<?xml version="1.0" encoding="utf-8" standalone="no"?>
<!DOCTYPE svg PUBLIC "-//W3C//DTD SVG 1.1//EN"
  "http://www.w3.org/Graphics/SVG/1.1/DTD/svg11.dtd">
<svg xmlns:xlink="http://www.w3.org/1999/xlink" width="720pt" height="432pt" viewBox="0 0 720 432" xmlns="http://www.w3.org/2000/svg" version="1.1">
 <metadata>
  <rdf:RDF xmlns:dc="http://purl.org/dc/elements/1.1/" xmlns:cc="http://creativecommons.org/ns#" xmlns:rdf="http://www.w3.org/1999/02/22-rdf-syntax-ns#">
   <cc:Work>
    <dc:type rdf:resource="http://purl.org/dc/dcmitype/StillImage"/>
    <dc:date>2024-12-13T17:49:40.817201</dc:date>
    <dc:format>image/svg+xml</dc:format>
    <dc:creator>
     <cc:Agent>
      <dc:title>Matplotlib v3.9.2, https://matplotlib.org/</dc:title>
     </cc:Agent>
    </dc:creator>
   </cc:Work>
  </rdf:RDF>
 </metadata>
 <defs>
  <style type="text/css">*{stroke-linejoin: round; stroke-linecap: butt}</style>
 </defs>
 <g id="figure_1">
  <g id="patch_1">
   <path d="M 0 432 
L 720 432 
L 720 0 
L 0 0 
z
" style="fill: #ffffff"/>
  </g>
  <g id="axes_1">
   <g id="patch_2">
    <path d="M 51.635416 384.626418 
L 704.88 384.626418 
L 704.88 30.114028 
L 51.635416 30.114028 
z
" style="fill: #ffffff"/>
   </g>
   <g id="PolyCollection_1">
    <defs>
     <path id="m580eb8d265" d="M 147.312653 -63.487781 
L 81.328352 -63.487781 
L 82.136732 -63.948857 
L 84.446363 -64.409933 
L 87.931526 -64.871009 
L 92.133476 -65.332085 
L 96.557983 -65.793161 
L 100.767385 -66.254237 
L 104.444164 -66.715313 
L 107.415592 -67.176389 
L 109.642624 -67.637465 
L 111.185526 -68.098541 
L 112.161579 -68.559617 
L 112.707292 -69.020693 
L 112.951931 -69.481769 
L 113.003533 -69.942845 
L 112.944927 -70.403921 
L 112.835883 -70.864997 
L 112.717849 -71.326073 
L 112.618807 -71.787149 
L 112.556972 -72.248225 
L 112.542981 -72.709301 
L 112.580857 -73.170377 
L 112.668345 -73.631453 
L 112.797348 -74.092529 
L 112.955018 -74.553605 
L 113.125724 -75.014681 
L 113.293686 -75.475757 
L 113.445724 -75.936833 
L 113.573409 -76.397909 
L 113.674051 -76.858985 
L 113.750297 -77.320061 
L 113.808536 -77.781137 
L 113.85664 -78.242213 
L 113.901746 -78.703289 
L 113.94865 -79.164365 
L 113.999156 -79.625441 
L 114.052367 -80.086517 
L 114.105629 -80.547593 
L 114.155709 -81.008669 
L 114.199814 -81.469745 
L 114.236215 -81.930821 
L 114.264416 -82.391897 
L 114.284963 -82.852973 
L 114.299063 -83.314049 
L 114.308193 -83.775125 
L 114.313777 -84.236201 
L 114.317005 -84.697277 
L 114.318772 -85.158353 
L 114.319688 -85.619429 
L 114.320138 -86.080505 
L 114.320347 -86.541581 
L 114.32044 -87.002657 
L 114.320478 -87.463733 
L 114.320494 -87.924809 
L 114.3205 -88.385885 
L 114.320502 -88.846961 
L 114.320502 -89.308037 
L 114.320503 -89.769113 
L 114.320503 -90.230189 
L 114.320503 -90.691265 
L 114.320503 -91.152341 
L 114.320503 -91.613417 
L 114.320503 -92.074493 
L 114.320503 -92.535569 
L 114.320503 -92.996645 
L 114.320503 -93.457721 
L 114.320503 -93.918797 
L 114.320503 -94.379873 
L 114.320503 -94.840949 
L 114.320503 -95.302025 
L 114.320503 -95.763101 
L 114.320503 -96.224177 
L 114.320503 -96.685253 
L 114.320503 -97.146329 
L 114.320503 -97.607404 
L 114.320503 -98.06848 
L 114.320502 -98.529556 
L 114.320501 -98.990632 
L 114.320497 -99.451708 
L 114.320486 -99.912784 
L 114.320457 -100.37386 
L 114.320389 -100.834936 
L 114.320231 -101.296012 
L 114.319886 -101.757088 
L 114.31917 -102.218164 
L 114.317761 -102.67924 
L 114.315138 -103.140316 
L 114.310513 -103.601392 
L 114.302805 -104.062468 
L 114.29067 -104.523544 
L 114.272653 -104.98462 
L 114.247479 -105.445696 
L 114.214468 -105.906772 
L 114.174003 -106.367848 
L 114.127916 -106.828924 
L 114.079614 -107.29 
L 114.033814 -107.751076 
L 113.99586 -108.212152 
L 113.970717 -108.673228 
L 113.96191 -109.134304 
L 114.679095 -109.134304 
L 114.679095 -109.134304 
L 114.670289 -108.673228 
L 114.645145 -108.212152 
L 114.607191 -107.751076 
L 114.561392 -107.29 
L 114.513089 -106.828924 
L 114.467002 -106.367848 
L 114.426538 -105.906772 
L 114.393526 -105.445696 
L 114.368352 -104.98462 
L 114.350336 -104.523544 
L 114.3382 -104.062468 
L 114.330492 -103.601392 
L 114.325868 -103.140316 
L 114.323244 -102.67924 
L 114.321836 -102.218164 
L 114.321119 -101.757088 
L 114.320774 -101.296012 
L 114.320616 -100.834936 
L 114.320548 -100.37386 
L 114.32052 -99.912784 
L 114.320509 -99.451708 
L 114.320505 -98.990632 
L 114.320503 -98.529556 
L 114.320503 -98.06848 
L 114.320503 -97.607404 
L 114.320503 -97.146329 
L 114.320503 -96.685253 
L 114.320503 -96.224177 
L 114.320503 -95.763101 
L 114.320503 -95.302025 
L 114.320503 -94.840949 
L 114.320503 -94.379873 
L 114.320503 -93.918797 
L 114.320503 -93.457721 
L 114.320503 -92.996645 
L 114.320503 -92.535569 
L 114.320503 -92.074493 
L 114.320503 -91.613417 
L 114.320503 -91.152341 
L 114.320503 -90.691265 
L 114.320503 -90.230189 
L 114.320503 -89.769113 
L 114.320503 -89.308037 
L 114.320504 -88.846961 
L 114.320506 -88.385885 
L 114.320512 -87.924809 
L 114.320527 -87.463733 
L 114.320566 -87.002657 
L 114.320658 -86.541581 
L 114.320868 -86.080505 
L 114.321317 -85.619429 
L 114.322233 -85.158353 
L 114.324 -84.697277 
L 114.327229 -84.236201 
L 114.332812 -83.775125 
L 114.341942 -83.314049 
L 114.356043 -82.852973 
L 114.376589 -82.391897 
L 114.40479 -81.930821 
L 114.441192 -81.469745 
L 114.485297 -81.008669 
L 114.535376 -80.547593 
L 114.588639 -80.086517 
L 114.64185 -79.625441 
L 114.692356 -79.164365 
L 114.739259 -78.703289 
L 114.784365 -78.242213 
L 114.83247 -77.781137 
L 114.890708 -77.320061 
L 114.966955 -76.858985 
L 115.067597 -76.397909 
L 115.195282 -75.936833 
L 115.34732 -75.475757 
L 115.515282 -75.014681 
L 115.685987 -74.553605 
L 115.843657 -74.092529 
L 115.97266 -73.631453 
L 116.060149 -73.170377 
L 116.098025 -72.709301 
L 116.084034 -72.248225 
L 116.022198 -71.787149 
L 115.923156 -71.326073 
L 115.805122 -70.864997 
L 115.696078 -70.403921 
L 115.637472 -69.942845 
L 115.689075 -69.481769 
L 115.933714 -69.020693 
L 116.479426 -68.559617 
L 117.455479 -68.098541 
L 118.998382 -67.637465 
L 121.225413 -67.176389 
L 124.196841 -66.715313 
L 127.87362 -66.254237 
L 132.083023 -65.793161 
L 136.507529 -65.332085 
L 140.70948 -64.871009 
L 144.194643 -64.409933 
L 146.504273 -63.948857 
L 147.312653 -63.487781 
z
" style="stroke: #000000; stroke-opacity: 0.4"/>
    </defs>
    <g clip-path="url(#p02faa53d56)">
     <use xlink:href="#m580eb8d265" x="0" y="432" style="fill: #440154; fill-opacity: 0.4; stroke: #000000; stroke-opacity: 0.4"/>
    </g>
   </g>
   <g id="PolyCollection_2">
    <defs>
     <path id="m4dfe9a4d74" d="M 279.281256 -63.487781 
L 213.296955 -63.487781 
L 213.606392 -64.172916 
L 214.693678 -64.858051 
L 216.472902 -65.543186 
L 218.811424 -66.228321 
L 221.54538 -66.913456 
L 224.497823 -67.59859 
L 227.496738 -68.283725 
L 230.390435 -68.96886 
L 233.058564 -69.653995 
L 235.417869 -70.33913 
L 237.422815 -71.024265 
L 239.061952 -71.7094 
L 240.351344 -72.394535 
L 241.326581 -73.079669 
L 242.034676 -73.764804 
L 242.526908 -74.449939 
L 242.853172 -75.135074 
L 243.058098 -75.820209 
L 243.178853 -76.505344 
L 243.24435 -77.190479 
L 243.275551 -77.875614 
L 243.286483 -78.560749 
L 243.285678 -79.245883 
L 243.277777 -79.931018 
L 243.265094 -80.616153 
L 243.24901 -81.301288 
L 243.231056 -81.986423 
L 243.213644 -82.671558 
L 243.200388 -83.356693 
L 243.196041 -84.041828 
L 243.206105 -84.726963 
L 243.2362 -85.412097 
L 243.291342 -86.097232 
L 243.375234 -86.782367 
L 243.489718 -87.467502 
L 243.634446 -88.152637 
L 243.806841 -88.837772 
L 244.002304 -89.522907 
L 244.214649 -90.208042 
L 244.436673 -90.893176 
L 244.660767 -91.578311 
L 244.879504 -92.263446 
L 245.086126 -92.948581 
L 245.274902 -93.633716 
L 245.441343 -94.318851 
L 245.582282 -95.003986 
L 245.695867 -95.689121 
L 245.78147 -96.374256 
L 245.839573 -97.05939 
L 245.871642 -97.744525 
L 245.880008 -98.42966 
L 245.867758 -99.114795 
L 245.838624 -99.79993 
L 245.796861 -100.485065 
L 245.747099 -101.1702 
L 245.694153 -101.855335 
L 245.642793 -102.540469 
L 245.597487 -103.225604 
L 245.562132 -103.910739 
L 245.539797 -104.595874 
L 245.532527 -105.281009 
L 245.541217 -105.966144 
L 245.565586 -106.651279 
L 245.604264 -107.336414 
L 245.654969 -108.021549 
L 245.714764 -108.706683 
L 245.780361 -109.391818 
L 245.848428 -110.076953 
L 245.91587 -110.762088 
L 245.980049 -111.447223 
L 246.038935 -112.132358 
L 246.091162 -112.817493 
L 246.136015 -113.502628 
L 246.173355 -114.187763 
L 246.203496 -114.872897 
L 246.227066 -115.558032 
L 246.244866 -116.243167 
L 246.25774 -116.928302 
L 246.266472 -117.613437 
L 246.271706 -118.298572 
L 246.273897 -118.983707 
L 246.273286 -119.668842 
L 246.269897 -120.353976 
L 246.263559 -121.039111 
L 246.253948 -121.724246 
L 246.240651 -122.409381 
L 246.22325 -123.094516 
L 246.20142 -123.779651 
L 246.175043 -124.464786 
L 246.144308 -125.149921 
L 246.109805 -125.835056 
L 246.072572 -126.52019 
L 246.034093 -127.205325 
L 245.996236 -127.89046 
L 245.961115 -128.575595 
L 245.930912 -129.26073 
L 245.90765 -129.945865 
L 245.892973 -130.631 
L 245.887957 -131.316135 
L 246.690254 -131.316135 
L 246.690254 -131.316135 
L 246.685238 -130.631 
L 246.670561 -129.945865 
L 246.647299 -129.26073 
L 246.617096 -128.575595 
L 246.581975 -127.89046 
L 246.544118 -127.205325 
L 246.505639 -126.52019 
L 246.468406 -125.835056 
L 246.433903 -125.149921 
L 246.403168 -124.464786 
L 246.37679 -123.779651 
L 246.354961 -123.094516 
L 246.33756 -122.409381 
L 246.324263 -121.724246 
L 246.314652 -121.039111 
L 246.308314 -120.353976 
L 246.304925 -119.668842 
L 246.304314 -118.983707 
L 246.306505 -118.298572 
L 246.311739 -117.613437 
L 246.320471 -116.928302 
L 246.333345 -116.243167 
L 246.351145 -115.558032 
L 246.374715 -114.872897 
L 246.404856 -114.187763 
L 246.442196 -113.502628 
L 246.487049 -112.817493 
L 246.539276 -112.132358 
L 246.598162 -111.447223 
L 246.662341 -110.762088 
L 246.729783 -110.076953 
L 246.79785 -109.391818 
L 246.863447 -108.706683 
L 246.923242 -108.021549 
L 246.973947 -107.336414 
L 247.012625 -106.651279 
L 247.036994 -105.966144 
L 247.045684 -105.281009 
L 247.038414 -104.595874 
L 247.016079 -103.910739 
L 246.980724 -103.225604 
L 246.935418 -102.540469 
L 246.884058 -101.855335 
L 246.831112 -101.1702 
L 246.78135 -100.485065 
L 246.739587 -99.79993 
L 246.710453 -99.114795 
L 246.698203 -98.42966 
L 246.706569 -97.744525 
L 246.738638 -97.05939 
L 246.796741 -96.374256 
L 246.882344 -95.689121 
L 246.995929 -95.003986 
L 247.136868 -94.318851 
L 247.303308 -93.633716 
L 247.492085 -92.948581 
L 247.698707 -92.263446 
L 247.917444 -91.578311 
L 248.141538 -90.893176 
L 248.363562 -90.208042 
L 248.575907 -89.522907 
L 248.77137 -88.837772 
L 248.943765 -88.152637 
L 249.088493 -87.467502 
L 249.202977 -86.782367 
L 249.286869 -86.097232 
L 249.342011 -85.412097 
L 249.372106 -84.726963 
L 249.38217 -84.041828 
L 249.377823 -83.356693 
L 249.364567 -82.671558 
L 249.347155 -81.986423 
L 249.329201 -81.301288 
L 249.313117 -80.616153 
L 249.300434 -79.931018 
L 249.292533 -79.245883 
L 249.291728 -78.560749 
L 249.30266 -77.875614 
L 249.333861 -77.190479 
L 249.399358 -76.505344 
L 249.520112 -75.820209 
L 249.725039 -75.135074 
L 250.051303 -74.449939 
L 250.543534 -73.764804 
L 251.25163 -73.079669 
L 252.226866 -72.394535 
L 253.516259 -71.7094 
L 255.155396 -71.024265 
L 257.160342 -70.33913 
L 259.519647 -69.653995 
L 262.187776 -68.96886 
L 265.081473 -68.283725 
L 268.080388 -67.59859 
L 271.032831 -66.913456 
L 273.766787 -66.228321 
L 276.105309 -65.543186 
L 277.884533 -64.858051 
L 278.971819 -64.172916 
L 279.281256 -63.487781 
z
" style="stroke: #000000; stroke-opacity: 0.4"/>
    </defs>
    <g clip-path="url(#p02faa53d56)">
     <use xlink:href="#m4dfe9a4d74" x="0" y="432" style="fill: #3b528b; fill-opacity: 0.4; stroke: #000000; stroke-opacity: 0.4"/>
    </g>
   </g>
   <g id="PolyCollection_3">
    <defs>
     <path id="m114e22f7f2" d="M 410.642362 -63.487781 
L 345.873055 -63.487781 
L 345.417604 -66.178316 
L 345.265558 -68.868852 
L 345.413033 -71.559387 
L 345.846914 -74.249922 
L 346.545713 -76.940457 
L 347.48085 -79.630992 
L 348.618239 -82.321528 
L 349.920068 -85.012063 
L 351.346645 -87.702598 
L 352.858201 -90.393133 
L 354.41653 -93.083668 
L 355.986394 -95.774204 
L 357.536628 -98.464739 
L 359.04091 -101.155274 
L 360.478194 -103.845809 
L 361.832832 -106.536344 
L 363.094401 -109.22688 
L 364.257308 -111.917415 
L 365.32021 -114.60795 
L 366.285326 -117.298485 
L 367.157681 -119.989021 
L 367.944345 -122.679556 
L 368.653698 -125.370091 
L 369.29477 -128.060626 
L 369.876664 -130.751161 
L 370.408085 -133.441697 
L 370.89698 -136.132232 
L 371.350291 -138.822767 
L 371.773809 -141.513302 
L 372.172126 -144.203837 
L 372.548664 -146.894373 
L 372.90577 -149.584908 
L 373.244859 -152.275443 
L 373.566589 -154.965978 
L 373.871047 -157.656514 
L 374.15794 -160.347049 
L 374.42677 -163.037584 
L 374.676992 -165.728119 
L 374.908134 -168.418654 
L 375.119896 -171.10919 
L 375.312202 -173.799725 
L 375.485229 -176.49026 
L 375.639397 -179.180795 
L 375.775344 -181.87133 
L 375.893875 -184.561866 
L 375.995902 -187.252401 
L 376.082389 -189.942936 
L 376.154286 -192.633471 
L 376.212484 -195.324006 
L 376.257782 -198.014542 
L 376.290871 -200.705077 
L 376.312331 -203.395612 
L 376.322657 -206.086147 
L 376.322287 -208.776683 
L 376.311652 -211.467218 
L 376.291222 -214.157753 
L 376.261562 -216.848288 
L 376.223376 -219.538823 
L 376.177539 -222.229359 
L 376.125122 -224.919894 
L 376.067391 -227.610429 
L 376.005794 -230.300964 
L 375.941926 -232.991499 
L 375.877486 -235.682035 
L 375.814214 -238.37257 
L 375.753829 -241.063105 
L 375.697962 -243.75364 
L 375.648094 -246.444175 
L 375.605507 -249.134711 
L 375.571238 -251.825246 
L 375.546057 -254.515781 
L 375.530459 -257.206316 
L 375.524663 -259.896852 
L 375.528641 -262.587387 
L 375.542141 -265.277922 
L 375.564731 -267.968457 
L 375.595839 -270.658992 
L 375.634801 -273.349528 
L 375.680899 -276.040063 
L 375.7334 -278.730598 
L 375.791582 -281.421133 
L 375.854761 -284.111668 
L 375.922301 -286.802204 
L 375.993623 -289.492739 
L 376.068203 -292.183274 
L 376.145568 -294.873809 
L 376.225291 -297.564345 
L 376.306981 -300.25488 
L 376.390275 -302.945415 
L 376.474833 -305.63595 
L 376.560326 -308.326485 
L 376.646438 -311.017021 
L 376.732862 -313.707556 
L 376.819294 -316.398091 
L 376.905437 -319.088626 
L 376.990995 -321.779161 
L 377.075675 -324.469697 
L 377.159182 -327.160232 
L 377.241219 -329.850767 
L 379.274198 -329.850767 
L 379.274198 -329.850767 
L 379.356234 -327.160232 
L 379.439741 -324.469697 
L 379.524421 -321.779161 
L 379.60998 -319.088626 
L 379.696123 -316.398091 
L 379.782555 -313.707556 
L 379.868979 -311.017021 
L 379.955091 -308.326485 
L 380.040584 -305.63595 
L 380.125141 -302.945415 
L 380.208436 -300.25488 
L 380.290126 -297.564345 
L 380.369849 -294.873809 
L 380.447213 -292.183274 
L 380.521793 -289.492739 
L 380.593115 -286.802204 
L 380.660656 -284.111668 
L 380.723835 -281.421133 
L 380.782017 -278.730598 
L 380.834517 -276.040063 
L 380.880615 -273.349528 
L 380.919577 -270.658992 
L 380.950686 -267.968457 
L 380.973275 -265.277922 
L 380.986775 -262.587387 
L 380.990753 -259.896852 
L 380.984958 -257.206316 
L 380.969359 -254.515781 
L 380.944179 -251.825246 
L 380.90991 -249.134711 
L 380.867322 -246.444175 
L 380.817455 -243.75364 
L 380.761587 -241.063105 
L 380.701202 -238.37257 
L 380.63793 -235.682035 
L 380.57349 -232.991499 
L 380.509623 -230.300964 
L 380.448025 -227.610429 
L 380.390294 -224.919894 
L 380.337877 -222.229359 
L 380.292041 -219.538823 
L 380.253854 -216.848288 
L 380.224195 -214.157753 
L 380.203765 -211.467218 
L 380.193129 -208.776683 
L 380.192759 -206.086147 
L 380.203085 -203.395612 
L 380.224546 -200.705077 
L 380.257634 -198.014542 
L 380.302933 -195.324006 
L 380.361131 -192.633471 
L 380.433027 -189.942936 
L 380.519514 -187.252401 
L 380.621542 -184.561866 
L 380.740072 -181.87133 
L 380.876019 -179.180795 
L 381.030188 -176.49026 
L 381.203214 -173.799725 
L 381.39552 -171.10919 
L 381.607282 -168.418654 
L 381.838425 -165.728119 
L 382.088646 -163.037584 
L 382.357477 -160.347049 
L 382.64437 -157.656514 
L 382.948827 -154.965978 
L 383.270557 -152.275443 
L 383.609646 -149.584908 
L 383.966752 -146.894373 
L 384.34329 -144.203837 
L 384.741607 -141.513302 
L 385.165126 -138.822767 
L 385.618437 -136.132232 
L 386.107332 -133.441697 
L 386.638752 -130.751161 
L 387.220647 -128.060626 
L 387.861719 -125.370091 
L 388.571072 -122.679556 
L 389.357735 -119.989021 
L 390.23009 -117.298485 
L 391.195207 -114.60795 
L 392.258109 -111.917415 
L 393.421015 -109.22688 
L 394.682584 -106.536344 
L 396.037222 -103.845809 
L 397.474507 -101.155274 
L 398.978788 -98.464739 
L 400.529022 -95.774204 
L 402.098887 -93.083668 
L 403.657215 -90.393133 
L 405.168771 -87.702598 
L 406.595348 -85.012063 
L 407.897177 -82.321528 
L 409.034566 -79.630992 
L 409.969704 -76.940457 
L 410.668502 -74.249922 
L 411.102383 -71.559387 
L 411.249859 -68.868852 
L 411.097812 -66.178316 
L 410.642362 -63.487781 
z
" style="stroke: #000000; stroke-opacity: 0.4"/>
    </defs>
    <g clip-path="url(#p02faa53d56)">
     <use xlink:href="#m114e22f7f2" x="0" y="432" style="fill: #21918c; fill-opacity: 0.4; stroke: #000000; stroke-opacity: 0.4"/>
    </g>
   </g>
   <g id="PolyCollection_4">
    <defs>
     <path id="m4f2ed553b0" d="M 543.218462 -63.487781 
L 477.23416 -63.487781 
L 477.440728 -63.96976 
L 478.325974 -64.451739 
L 479.829837 -64.933717 
L 481.856225 -65.415696 
L 484.283029 -65.897675 
L 486.974167 -66.379653 
L 489.792007 -66.861632 
L 492.608616 -67.343611 
L 495.314614 -67.82559 
L 497.824885 -68.307568 
L 500.08097 -68.789547 
L 502.050433 -69.271526 
L 503.723857 -69.753505 
L 505.110331 -70.235483 
L 506.232268 -70.717462 
L 507.120336 -71.199441 
L 507.809002 -71.681419 
L 508.333033 -72.163398 
L 508.725027 -72.645377 
L 509.013903 -73.127356 
L 509.224197 -73.609334 
L 509.375934 -74.091313 
L 509.48488 -74.573292 
L 509.563012 -75.055271 
L 509.61908 -75.537249 
L 509.659181 -76.019228 
L 509.68732 -76.501207 
L 509.705917 -76.983186 
L 509.71627 -77.465164 
L 509.718956 -77.947143 
L 509.714167 -78.429122 
L 509.701983 -78.9111 
L 509.682568 -79.393079 
L 509.6563 -79.875058 
L 509.623846 -80.357037 
L 509.586182 -80.839015 
L 509.544584 -81.320994 
L 509.500598 -81.802973 
L 509.45599 -82.284952 
L 509.41269 -82.76693 
L 509.372716 -83.248909 
L 509.338074 -83.730888 
L 509.310639 -84.212866 
L 509.292009 -84.694845 
L 509.283349 -85.176824 
L 509.285241 -85.658803 
L 509.297577 -86.140781 
L 509.319495 -86.62276 
L 509.349406 -87.104739 
L 509.385101 -87.586718 
L 509.423942 -88.068696 
L 509.463104 -88.550675 
L 509.499857 -89.032654 
L 509.531824 -89.514632 
L 509.557204 -89.996611 
L 509.574909 -90.47859 
L 509.584621 -90.960569 
L 509.586745 -91.442547 
L 509.582295 -91.924526 
L 509.572721 -92.406505 
L 509.559711 -92.888484 
L 509.544999 -93.370462 
L 509.530197 -93.852441 
L 509.516681 -94.33442 
L 509.505522 -94.816398 
L 509.497467 -95.298377 
L 509.492974 -95.780356 
L 509.492267 -96.262335 
L 509.495414 -96.744313 
L 509.5024 -97.226292 
L 509.513199 -97.708271 
L 509.527811 -98.19025 
L 509.546278 -98.672228 
L 509.568667 -99.154207 
L 509.595027 -99.636186 
L 509.625325 -100.118164 
L 509.659377 -100.600143 
L 509.696783 -101.082122 
L 509.736885 -101.564101 
L 509.778745 -102.046079 
L 509.821168 -102.528058 
L 509.862753 -103.010037 
L 509.901979 -103.492016 
L 509.93731 -103.973994 
L 509.96731 -104.455973 
L 509.990757 -104.937952 
L 510.006754 -105.419931 
L 510.014806 -105.901909 
L 510.014883 -106.383888 
L 510.007449 -106.865867 
L 509.993451 -107.347845 
L 509.974281 -107.829824 
L 509.951694 -108.311803 
L 509.927693 -108.793782 
L 509.904393 -109.27576 
L 509.883856 -109.757739 
L 509.867933 -110.239718 
L 509.858114 -110.721697 
L 509.85541 -111.203675 
L 510.597212 -111.203675 
L 510.597212 -111.203675 
L 510.594508 -110.721697 
L 510.584689 -110.239718 
L 510.568766 -109.757739 
L 510.548229 -109.27576 
L 510.524929 -108.793782 
L 510.500928 -108.311803 
L 510.478341 -107.829824 
L 510.459171 -107.347845 
L 510.445173 -106.865867 
L 510.437739 -106.383888 
L 510.437816 -105.901909 
L 510.445868 -105.419931 
L 510.461865 -104.937952 
L 510.485312 -104.455973 
L 510.515312 -103.973994 
L 510.550643 -103.492016 
L 510.589869 -103.010037 
L 510.631454 -102.528058 
L 510.673877 -102.046079 
L 510.715737 -101.564101 
L 510.755838 -101.082122 
L 510.793245 -100.600143 
L 510.827297 -100.118164 
L 510.857595 -99.636186 
L 510.883955 -99.154207 
L 510.906344 -98.672228 
L 510.924811 -98.19025 
L 510.939423 -97.708271 
L 510.950222 -97.226292 
L 510.957208 -96.744313 
L 510.960355 -96.262335 
L 510.959648 -95.780356 
L 510.955155 -95.298377 
L 510.9471 -94.816398 
L 510.935941 -94.33442 
L 510.922425 -93.852441 
L 510.907623 -93.370462 
L 510.892911 -92.888484 
L 510.879901 -92.406505 
L 510.870327 -91.924526 
L 510.865877 -91.442547 
L 510.868001 -90.960569 
L 510.877713 -90.47859 
L 510.895418 -89.996611 
L 510.920798 -89.514632 
L 510.952765 -89.032654 
L 510.989518 -88.550675 
L 511.02868 -88.068696 
L 511.06752 -87.586718 
L 511.103216 -87.104739 
L 511.133127 -86.62276 
L 511.155045 -86.140781 
L 511.167381 -85.658803 
L 511.169273 -85.176824 
L 511.160612 -84.694845 
L 511.141982 -84.212866 
L 511.114548 -83.730888 
L 511.079906 -83.248909 
L 511.039932 -82.76693 
L 510.996632 -82.284952 
L 510.952024 -81.802973 
L 510.908038 -81.320994 
L 510.86644 -80.839015 
L 510.828776 -80.357037 
L 510.796322 -79.875058 
L 510.770054 -79.393079 
L 510.750639 -78.9111 
L 510.738455 -78.429122 
L 510.733666 -77.947143 
L 510.736352 -77.465164 
L 510.746705 -76.983186 
L 510.765302 -76.501207 
L 510.793441 -76.019228 
L 510.833542 -75.537249 
L 510.88961 -75.055271 
L 510.967742 -74.573292 
L 511.076688 -74.091313 
L 511.228425 -73.609334 
L 511.438719 -73.127356 
L 511.727595 -72.645377 
L 512.119589 -72.163398 
L 512.64362 -71.681419 
L 513.332286 -71.199441 
L 514.220354 -70.717462 
L 515.342291 -70.235483 
L 516.728765 -69.753505 
L 518.402189 -69.271526 
L 520.371652 -68.789547 
L 522.627737 -68.307568 
L 525.138008 -67.82559 
L 527.844006 -67.343611 
L 530.660615 -66.861632 
L 533.478454 -66.379653 
L 536.169592 -65.897675 
L 538.596397 -65.415696 
L 540.622785 -64.933717 
L 542.126648 -64.451739 
L 543.011894 -63.96976 
L 543.218462 -63.487781 
z
" style="stroke: #000000; stroke-opacity: 0.4"/>
    </defs>
    <g clip-path="url(#p02faa53d56)">
     <use xlink:href="#m4f2ed553b0" x="0" y="432" style="fill: #5ec962; fill-opacity: 0.4; stroke: #000000; stroke-opacity: 0.4"/>
    </g>
   </g>
   <g id="PolyCollection_5">
    <defs>
     <path id="mbd3ea037a6" d="M 675.187064 -63.487781 
L 609.202763 -63.487781 
L 609.204735 -66.743175 
L 610.000749 -69.998569 
L 611.513586 -73.253963 
L 613.61671 -76.509357 
L 616.150895 -79.76475 
L 618.943559 -83.020144 
L 621.827625 -86.275538 
L 624.657079 -89.530932 
L 627.317413 -92.786326 
L 629.730223 -96.04172 
L 631.852424 -99.297113 
L 633.67134 -102.552507 
L 635.197352 -105.807901 
L 636.455818 -109.063295 
L 637.479636 -112.318689 
L 638.303351 -115.574083 
L 638.959183 -118.829477 
L 639.474899 -122.08487 
L 639.873196 -125.340264 
L 640.172108 -128.595658 
L 640.385953 -131.851052 
L 640.526443 -135.106446 
L 640.603686 -138.36184 
L 640.626949 -141.617234 
L 640.605147 -144.872627 
L 640.547097 -148.128021 
L 640.461596 -151.383415 
L 640.357397 -154.638809 
L 640.243116 -157.894203 
L 640.127108 -161.149597 
L 640.017297 -164.40499 
L 639.920966 -167.660384 
L 639.844489 -170.915778 
L 639.793023 -174.171172 
L 639.77019 -177.426566 
L 639.777805 -180.68196 
L 639.815705 -183.937354 
L 639.881734 -187.192747 
L 639.971923 -190.448141 
L 640.080847 -193.703535 
L 640.20215 -196.958929 
L 640.32916 -200.214323 
L 640.455524 -203.469717 
L 640.575787 -206.725111 
L 640.685847 -209.980504 
L 640.783236 -213.235898 
L 640.867214 -216.491292 
L 640.938663 -219.746686 
L 640.999819 -223.00208 
L 641.053866 -226.257474 
L 641.104457 -229.512867 
L 641.155209 -232.768261 
L 641.209246 -236.023655 
L 641.268829 -239.279049 
L 641.33513 -242.534443 
L 641.408153 -245.789837 
L 641.486825 -249.045231 
L 641.569211 -252.300624 
L 641.652821 -255.556018 
L 641.734962 -258.811412 
L 641.813067 -262.066806 
L 641.884967 -265.3222 
L 641.949077 -268.577594 
L 642.004475 -271.832988 
L 642.050888 -275.088381 
L 642.088609 -278.343775 
L 642.118359 -281.599169 
L 642.141138 -284.854563 
L 642.158073 -288.109957 
L 642.170303 -291.365351 
L 642.178881 -294.620744 
L 642.184722 -297.876138 
L 642.188579 -301.131532 
L 642.191034 -304.386926 
L 642.192516 -307.64232 
L 642.193319 -310.897714 
L 642.193615 -314.153108 
L 642.193476 -317.408501 
L 642.19288 -320.663895 
L 642.19171 -323.919289 
L 642.189753 -327.174683 
L 642.186692 -330.430077 
L 642.182102 -333.685471 
L 642.175451 -336.940865 
L 642.166123 -340.196258 
L 642.153454 -343.451652 
L 642.136798 -346.707046 
L 642.115623 -349.96244 
L 642.089614 -353.217834 
L 642.058802 -356.473228 
L 642.023663 -359.728622 
L 641.985196 -362.984015 
L 641.944934 -366.239409 
L 641.904886 -369.494803 
L 641.867392 -372.750197 
L 641.834909 -376.005591 
L 641.809752 -379.260985 
L 641.793823 -382.516378 
L 641.788368 -385.771772 
L 642.60146 -385.771772 
L 642.60146 -385.771772 
L 642.596005 -382.516378 
L 642.580075 -379.260985 
L 642.554919 -376.005591 
L 642.522436 -372.750197 
L 642.484941 -369.494803 
L 642.444893 -366.239409 
L 642.404631 -362.984015 
L 642.366165 -359.728622 
L 642.331026 -356.473228 
L 642.300213 -353.217834 
L 642.274205 -349.96244 
L 642.253029 -346.707046 
L 642.236374 -343.451652 
L 642.223704 -340.196258 
L 642.214376 -336.940865 
L 642.207726 -333.685471 
L 642.203135 -330.430077 
L 642.200075 -327.174683 
L 642.198118 -323.919289 
L 642.196948 -320.663895 
L 642.196351 -317.408501 
L 642.196213 -314.153108 
L 642.196509 -310.897714 
L 642.197311 -307.64232 
L 642.198794 -304.386926 
L 642.201249 -301.131532 
L 642.205105 -297.876138 
L 642.210946 -294.620744 
L 642.219524 -291.365351 
L 642.231754 -288.109957 
L 642.24869 -284.854563 
L 642.271468 -281.599169 
L 642.301218 -278.343775 
L 642.338939 -275.088381 
L 642.385352 -271.832988 
L 642.44075 -268.577594 
L 642.50486 -265.3222 
L 642.576761 -262.066806 
L 642.654866 -258.811412 
L 642.737007 -255.556018 
L 642.820617 -252.300624 
L 642.903002 -249.045231 
L 642.981674 -245.789837 
L 643.054698 -242.534443 
L 643.120998 -239.279049 
L 643.180582 -236.023655 
L 643.234619 -232.768261 
L 643.285371 -229.512867 
L 643.335961 -226.257474 
L 643.390008 -223.00208 
L 643.451164 -219.746686 
L 643.522613 -216.491292 
L 643.606591 -213.235898 
L 643.70398 -209.980504 
L 643.81404 -206.725111 
L 643.934304 -203.469717 
L 644.060668 -200.214323 
L 644.187678 -196.958929 
L 644.308981 -193.703535 
L 644.417905 -190.448141 
L 644.508093 -187.192747 
L 644.574123 -183.937354 
L 644.612022 -180.68196 
L 644.619637 -177.426566 
L 644.596804 -174.171172 
L 644.545338 -170.915778 
L 644.468862 -167.660384 
L 644.372531 -164.40499 
L 644.26272 -161.149597 
L 644.146711 -157.894203 
L 644.03243 -154.638809 
L 643.928231 -151.383415 
L 643.842731 -148.128021 
L 643.78468 -144.872627 
L 643.762878 -141.617234 
L 643.786142 -138.36184 
L 643.863385 -135.106446 
L 644.003875 -131.851052 
L 644.21772 -128.595658 
L 644.516631 -125.340264 
L 644.914929 -122.08487 
L 645.430644 -118.829477 
L 646.086476 -115.574083 
L 646.910192 -112.318689 
L 647.93401 -109.063295 
L 649.192475 -105.807901 
L 650.718488 -102.552507 
L 652.537403 -99.297113 
L 654.659605 -96.04172 
L 657.072414 -92.786326 
L 659.732748 -89.530932 
L 662.562203 -86.275538 
L 665.446268 -83.020144 
L 668.238933 -79.76475 
L 670.773117 -76.509357 
L 672.876242 -73.253963 
L 674.389078 -69.998569 
L 675.185092 -66.743175 
L 675.187064 -63.487781 
z
" style="stroke: #000000; stroke-opacity: 0.4"/>
    </defs>
    <g clip-path="url(#p02faa53d56)">
     <use xlink:href="#mbd3ea037a6" x="0" y="432" style="fill: #fde725; fill-opacity: 0.4; stroke: #000000; stroke-opacity: 0.4"/>
    </g>
   </g>
   <g id="matplotlib.axis_1">
    <g id="xtick_1">
     <g id="line2d_1">
      <defs>
       <path id="m2cabca8b78" d="M 0 0 
L 0 3.5 
" style="stroke: #000000; stroke-width: 0.8"/>
      </defs>
      <g>
       <use xlink:href="#m2cabca8b78" x="114.320503" y="384.626418" style="stroke: #000000; stroke-width: 0.8"/>
      </g>
     </g>
     <g id="text_1">
      <!-- Borda rule -->
      <g transform="translate(88.795319 399.236765) scale(0.11 -0.11)">
       <defs>
        <path id="CMR17-42" d="M 333 4352 
L 333 4186 
C 774 4186 845 4186 845 3900 
L 845 452 
C 845 166 774 166 333 166 
L 333 0 
L 2534 0 
C 3354 0 3885 583 3885 1164 
C 3885 1741 3360 2233 2675 2233 
C 3290 2356 3718 2771 3718 3264 
C 3718 3802 3194 4352 2368 4352 
L 333 4352 
z
M 1248 2304 
L 1248 3937 
C 1248 4155 1261 4186 1517 4186 
L 2336 4186 
C 2970 4186 3251 3674 3251 3277 
C 3251 2791 2861 2304 2170 2304 
L 1248 2304 
z
M 1517 166 
C 1261 166 1248 197 1248 413 
L 1248 2202 
L 2432 2202 
C 3091 2202 3411 1625 3411 1162 
C 3411 699 3046 166 2349 166 
L 1517 166 
z
" transform="scale(0.015625)"/>
        <path id="CMR17-6f" d="M 2758 1356 
C 2758 2176 2163 2816 1466 2816 
C 768 2816 173 2176 173 1356 
C 173 551 768 -64 1466 -64 
C 2163 -64 2758 551 2758 1356 
z
M 1466 51 
C 1165 51 909 230 762 480 
C 602 767 582 1126 582 1408 
C 582 1677 595 2010 762 2298 
C 890 2509 1139 2714 1466 2714 
C 1754 2714 1997 2554 2150 2330 
C 2349 2029 2349 1607 2349 1408 
C 2349 1158 2336 775 2163 467 
C 1984 173 1709 51 1466 51 
z
" transform="scale(0.015625)"/>
        <path id="CMR17-72" d="M 960 1497 
C 960 2112 1222 2688 1702 2688 
C 1747 2688 1792 2682 1837 2662 
C 1837 2662 1696 2617 1696 2452 
C 1696 2298 1818 2234 1914 2234 
C 1990 2234 2131 2279 2131 2458 
C 2131 2663 1926 2790 1709 2790 
C 1222 2790 1011 2317 947 2093 
L 941 2093 
L 941 2790 
L 198 2720 
L 198 2554 
C 576 2554 634 2515 634 2208 
L 634 428 
C 634 184 608 153 198 153 
L 198 -13 
C 352 0 646 0 813 0 
C 998 0 1325 0 1498 -13 
L 1498 153 
C 1037 153 960 153 960 440 
L 960 1497 
z
" transform="scale(0.015625)"/>
        <path id="CMR17-64" d="M 1869 4326 
L 1869 4160 
C 2246 4160 2304 4122 2304 3820 
L 2304 2345 
C 2278 2377 2016 2790 1498 2790 
C 845 2790 211 2208 211 1364 
C 211 525 806 -64 1434 -64 
C 1978 -64 2259 337 2291 380 
L 2291 -63 
L 3066 -63 
L 3066 128 
C 2688 128 2630 166 2630 473 
L 2630 4396 
L 1869 4326 
z
M 2291 755 
C 2291 563 2176 390 2029 262 
C 1811 70 1594 38 1472 38 
C 1286 38 621 134 621 1356 
C 621 2612 1363 2688 1530 2688 
C 1824 2688 2061 2522 2208 2291 
C 2291 2157 2291 2138 2291 2023 
L 2291 755 
z
" transform="scale(0.015625)"/>
        <path id="CMR17-61" d="M 2304 1653 
C 2304 2072 2304 2294 2035 2543 
C 1798 2752 1523 2816 1306 2816 
C 800 2816 435 2407 435 1971 
C 435 1728 627 1728 666 1728 
C 749 1728 896 1778 896 1954 
C 896 2112 774 2181 666 2181 
C 640 2181 608 2174 589 2168 
C 723 2592 1069 2714 1293 2714 
C 1613 2714 1965 2429 1965 1885 
L 1965 1600 
C 1587 1600 1133 1549 774 1357 
C 371 1133 256 813 256 570 
C 256 77 832 -64 1171 -64 
C 1523 -64 1850 139 1990 511 
C 2003 233 2182 -18 2464 -18 
C 2598 -18 2938 70 2938 567 
L 2938 920 
L 2822 920 
L 2822 562 
C 2822 178 2650 128 2566 128 
C 2304 128 2304 458 2304 738 
L 2304 1653 
z
M 1965 870 
C 1965 317 1568 38 1216 38 
C 896 38 646 275 646 570 
C 646 761 730 1100 1101 1305 
C 1408 1478 1760 1504 1965 1504 
L 1965 870 
z
" transform="scale(0.015625)"/>
        <path id="CMR17-75" d="M 1882 2693 
L 1882 2528 
C 2259 2528 2317 2489 2317 2186 
L 2317 1032 
C 2317 500 2029 38 1555 38 
C 1030 38 986 348 986 678 
L 986 2763 
L 211 2693 
L 211 2528 
C 467 2528 640 2528 646 2274 
L 646 1058 
C 646 633 646 361 813 183 
C 896 101 1056 -64 1517 -64 
C 2061 -64 2272 377 2323 506 
L 2330 506 
L 2330 -63 
L 3091 -63 
L 3091 128 
C 2714 128 2656 166 2656 473 
L 2656 2763 
L 1882 2693 
z
" transform="scale(0.015625)"/>
        <path id="CMR17-6c" d="M 979 4396 
L 218 4326 
L 218 4160 
C 595 4160 653 4122 653 3817 
L 653 426 
C 653 184 627 153 218 153 
L 218 -13 
C 371 0 653 0 813 0 
C 979 0 1261 0 1414 -13 
L 1414 153 
C 1005 153 979 178 979 426 
L 979 4396 
z
" transform="scale(0.015625)"/>
        <path id="CMR17-65" d="M 2438 1472 
C 2464 1498 2464 1511 2464 1576 
C 2464 2238 2118 2816 1389 2816 
C 710 2816 173 2169 173 1383 
C 173 551 781 -64 1459 -64 
C 2176 -64 2458 607 2458 740 
C 2458 784 2419 784 2406 784 
C 2362 784 2355 771 2330 696 
C 2189 265 1837 51 1504 51 
C 1229 51 954 203 781 480 
C 582 803 582 1176 582 1472 
L 2438 1472 
z
M 589 1568 
C 634 2505 1126 2714 1382 2714 
C 1818 2714 2112 2297 2118 1568 
L 589 1568 
z
" transform="scale(0.015625)"/>
       </defs>
       <use xlink:href="#CMR17-42" transform="scale(0.996264)"/>
       <use xlink:href="#CMR17-6f" transform="translate(65.188754 0) scale(0.996264)"/>
       <use xlink:href="#CMR17-72" transform="translate(110.879232 0) scale(0.996264)"/>
       <use xlink:href="#CMR17-64" transform="translate(146.159999 0) scale(0.996264)"/>
       <use xlink:href="#CMR17-61" transform="translate(197.055369 0) scale(0.996264)"/>
       <use xlink:href="#CMR17-72" transform="translate(272.821813 0) scale(0.996264)"/>
       <use xlink:href="#CMR17-75" transform="translate(308.10258 0) scale(0.996264)"/>
       <use xlink:href="#CMR17-6c" transform="translate(358.99795 0) scale(0.996264)"/>
       <use xlink:href="#CMR17-65" transform="translate(383.869009 0) scale(0.996264)"/>
      </g>
     </g>
    </g>
    <g id="xtick_2">
     <g id="line2d_2">
      <g>
       <use xlink:href="#m2cabca8b78" x="246.289105" y="384.626418" style="stroke: #000000; stroke-width: 0.8"/>
      </g>
     </g>
     <g id="text_2">
      <!-- Copeland's Rule -->
      <g transform="translate(207.065277 399.236765) scale(0.11 -0.11)">
       <defs>
        <path id="CMR17-43" d="M 3974 4289 
C 3974 4403 3968 4410 3930 4410 
C 3904 4410 3898 4403 3853 4327 
L 3571 3792 
C 3258 4187 2874 4416 2381 4416 
C 1286 4416 294 3456 294 2148 
C 294 826 1286 -128 2387 -128 
C 3366 -128 3974 730 3974 1461 
C 3974 1524 3974 1550 3917 1550 
C 3866 1550 3866 1531 3859 1474 
C 3808 585 3168 38 2477 38 
C 1824 38 781 495 781 2147 
C 781 3805 1843 4250 2464 4250 
C 3187 4250 3712 3628 3834 2745 
C 3846 2668 3846 2655 3904 2655 
C 3974 2655 3974 2668 3974 2783 
L 3974 4289 
z
" transform="scale(0.015625)"/>
        <path id="CMR17-70" d="M 1408 -1063 
C 998 -1063 973 -1037 973 -789 
L 973 402 
C 1158 134 1427 -38 1766 -38 
C 2406 -38 3053 523 3053 1388 
C 3053 2191 2496 2802 1837 2802 
C 1453 2802 1139 2592 960 2338 
L 960 2802 
L 198 2732 
L 198 2567 
C 576 2567 634 2528 634 2223 
L 634 -789 
C 634 -1031 608 -1063 198 -1063 
L 198 -1228 
C 352 -1216 634 -1216 800 -1216 
C 966 -1216 1254 -1216 1408 -1228 
L 1408 -1063 
z
M 973 2012 
C 973 2102 973 2235 1222 2471 
C 1254 2497 1472 2688 1792 2688 
C 2259 2688 2643 2108 2643 1382 
C 2643 656 2234 64 1728 64 
C 1498 64 1248 172 1056 472 
C 973 612 973 650 973 752 
L 973 2012 
z
" transform="scale(0.015625)"/>
        <path id="CMR17-6e" d="M 2656 1933 
C 2656 2259 2592 2790 1837 2790 
C 1331 2790 1069 2400 973 2144 
L 966 2144 
L 966 2790 
L 211 2720 
L 211 2554 
C 589 2554 646 2515 646 2208 
L 646 428 
C 646 184 621 153 211 153 
L 211 -13 
C 365 0 646 0 813 0 
C 979 0 1267 0 1421 -13 
L 1421 153 
C 1011 153 986 178 986 428 
L 986 1658 
C 986 2247 1344 2688 1792 2688 
C 2266 2688 2317 2266 2317 1958 
L 2317 428 
C 2317 184 2291 153 1882 153 
L 1882 -13 
C 2035 0 2317 0 2483 0 
C 2650 0 2938 0 3091 -13 
L 3091 153 
C 2682 153 2656 178 2656 428 
L 2656 1933 
z
" transform="scale(0.015625)"/>
        <path id="CMR17-27" d="M 1024 4025 
C 1037 3955 1043 3929 1043 3820 
C 1043 3415 883 3042 634 2778 
C 608 2752 595 2733 595 2707 
C 595 2681 621 2656 646 2656 
C 691 2656 1146 3105 1146 3811 
C 1146 3952 1133 4426 800 4426 
C 659 4426 538 4331 538 4165 
C 538 3999 659 3904 800 3904 
C 858 3904 966 3923 1024 4025 
z
" transform="scale(0.015625)"/>
        <path id="CMR17-73" d="M 1978 2697 
C 1978 2813 1971 2819 1933 2819 
C 1907 2819 1901 2813 1824 2717 
C 1805 2691 1747 2626 1728 2601 
C 1523 2819 1235 2819 1126 2819 
C 416 2819 160 2447 160 2076 
C 160 1498 813 1365 998 1325 
C 1402 1243 1542 1217 1677 1101 
C 1760 1025 1901 884 1901 654 
C 1901 384 1747 38 1158 38 
C 602 38 403 460 288 1021 
C 269 1110 269 1117 218 1117 
C 166 1117 160 1110 160 983 
L 160 63 
C 160 -51 166 -58 205 -58 
C 237 -58 243 -51 275 0 
C 314 57 410 211 448 276 
C 576 103 800 -64 1158 -64 
C 1792 -64 2131 283 2131 784 
C 2131 1112 1958 1285 1875 1362 
C 1683 1561 1459 1606 1190 1657 
C 838 1735 390 1825 390 2217 
C 390 2383 480 2737 1126 2737 
C 1811 2737 1850 2094 1862 1888 
C 1869 1856 1901 1849 1920 1849 
C 1978 1849 1978 1869 1978 1978 
L 1978 2697 
z
" transform="scale(0.015625)"/>
        <path id="CMR17-52" d="M 2509 2146 
C 3117 2268 3629 2676 3629 3186 
C 3629 3785 2950 4326 2054 4326 
L 333 4326 
L 333 4160 
C 774 4160 845 4160 845 3873 
L 845 415 
C 845 128 774 128 333 128 
L 333 -26 
C 518 -26 851 -26 1050 -26 
C 1248 -26 1581 -26 1766 -26 
L 1766 128 
C 1325 128 1254 128 1254 417 
L 1254 2112 
L 2003 2112 
C 2368 2112 2573 1964 2662 1881 
C 2918 1632 2918 1459 2918 1024 
C 2918 595 2918 377 3110 160 
C 3354 -102 3680 -128 3821 -128 
C 4294 -128 4365 396 4365 503 
C 4365 540 4365 585 4307 585 
C 4256 585 4250 547 4250 522 
C 4218 112 4032 -26 3834 -26 
C 3482 -26 3443 375 3405 764 
C 3386 898 3373 993 3360 1133 
C 3322 1452 3270 1917 2509 2146 
z
M 1984 2214 
L 1254 2214 
L 1254 3913 
C 1254 4129 1267 4160 1523 4160 
L 1990 4160 
C 2522 4160 3142 3977 3142 3190 
C 3142 2372 2464 2214 1984 2214 
z
" transform="scale(0.015625)"/>
       </defs>
       <use xlink:href="#CMR17-43" transform="scale(0.996264)"/>
       <use xlink:href="#CMR17-6f" transform="translate(66.509881 0) scale(0.996264)"/>
       <use xlink:href="#CMR17-70" transform="translate(112.200358 0) scale(0.996264)"/>
       <use xlink:href="#CMR17-65" transform="translate(165.698166 0) scale(0.996264)"/>
       <use xlink:href="#CMR17-6c" transform="translate(206.183827 0) scale(0.996264)"/>
       <use xlink:href="#CMR17-61" transform="translate(231.054885 0) scale(0.996264)"/>
       <use xlink:href="#CMR17-6e" transform="translate(276.745362 0) scale(0.996264)"/>
       <use xlink:href="#CMR17-64" transform="translate(327.640732 0) scale(0.996264)"/>
       <use xlink:href="#CMR17-27" transform="translate(378.536102 0) scale(0.996264)"/>
       <use xlink:href="#CMR17-73" transform="translate(403.40716 0) scale(0.996264)"/>
       <use xlink:href="#CMR17-52" transform="translate(469.284464 0) scale(0.996264)"/>
       <use xlink:href="#CMR17-75" transform="translate(537.075566 0) scale(0.996264)"/>
       <use xlink:href="#CMR17-6c" transform="translate(587.970936 0) scale(0.996264)"/>
       <use xlink:href="#CMR17-65" transform="translate(612.841994 0) scale(0.996264)"/>
      </g>
     </g>
    </g>
    <g id="xtick_3">
     <g id="line2d_3">
      <g>
       <use xlink:href="#m2cabca8b78" x="378.257708" y="384.626418" style="stroke: #000000; stroke-width: 0.8"/>
      </g>
     </g>
     <g id="text_3">
      <!-- Plurality rule -->
      <g transform="translate(346.187625 399.236765) scale(0.11 -0.11)">
       <defs>
        <path id="CMR17-50" d="M 1267 2042 
L 2291 2042 
C 3117 2042 3718 2578 3718 3184 
C 3718 3791 3130 4352 2291 4352 
L 333 4352 
L 333 4186 
C 774 4186 845 4186 845 3899 
L 845 446 
C 845 160 774 160 333 160 
L 333 0 
C 518 0 858 0 1056 0 
C 1254 0 1594 0 1779 0 
L 1779 160 
C 1338 160 1267 160 1267 446 
L 1267 2042 
z
M 1254 2176 
L 1254 3938 
C 1254 4155 1267 4186 1523 4186 
L 2170 4186 
C 2995 4186 3232 3714 3232 3184 
C 3232 2604 2950 2176 2170 2176 
L 1254 2176 
z
" transform="scale(0.015625)"/>
        <path id="CMR17-69" d="M 992 3909 
C 992 4049 877 4170 730 4170 
C 589 4170 467 4056 467 3909 
C 467 3769 582 3648 730 3648 
C 870 3648 992 3763 992 3909 
z
M 243 2706 
L 243 2541 
C 602 2541 653 2502 653 2197 
L 653 427 
C 653 184 627 153 218 153 
L 218 -13 
C 371 0 646 0 806 0 
C 960 0 1222 0 1370 -13 
L 1370 153 
C 992 153 979 191 979 420 
L 979 2776 
L 243 2706 
z
" transform="scale(0.015625)"/>
        <path id="CMR17-74" d="M 966 2560 
L 1862 2560 
L 1862 2725 
L 966 2725 
L 966 3904 
L 851 3904 
C 838 3245 614 2668 70 2668 
L 70 2560 
L 627 2560 
L 627 771 
C 627 650 627 -64 1370 -64 
C 1747 -64 1965 306 1965 777 
L 1965 1140 
L 1850 1140 
L 1850 783 
C 1850 344 1677 51 1408 51 
C 1222 51 966 178 966 758 
L 966 2560 
z
" transform="scale(0.015625)"/>
        <path id="CMR17-79" d="M 2496 2197 
C 2656 2586 2944 2586 3034 2586 
L 3034 2752 
C 2912 2752 2752 2752 2630 2752 
C 2496 2752 2285 2752 2157 2758 
L 2157 2592 
C 2400 2573 2406 2394 2406 2343 
C 2406 2280 2394 2248 2362 2171 
L 1664 449 
L 902 2306 
C 870 2382 870 2426 870 2433 
C 870 2573 1018 2586 1171 2586 
L 1171 2758 
C 1018 2752 742 2752 582 2752 
C 410 2752 205 2752 64 2758 
L 64 2586 
C 410 2586 448 2554 531 2350 
L 1485 15 
C 1197 -738 1030 -1178 627 -1178 
C 557 -1178 397 -1159 282 -1044 
C 429 -1031 493 -942 493 -833 
C 493 -725 416 -629 288 -629 
C 147 -629 77 -725 77 -840 
C 77 -1095 339 -1280 627 -1280 
C 998 -1280 1229 -922 1357 -604 
L 2496 2197 
z
" transform="scale(0.015625)"/>
       </defs>
       <use xlink:href="#CMR17-50" transform="scale(0.996264)"/>
       <use xlink:href="#CMR17-6c" transform="translate(62.586301 0) scale(0.996264)"/>
       <use xlink:href="#CMR17-75" transform="translate(87.457359 0) scale(0.996264)"/>
       <use xlink:href="#CMR17-72" transform="translate(138.352729 0) scale(0.996264)"/>
       <use xlink:href="#CMR17-61" transform="translate(173.633497 0) scale(0.996264)"/>
       <use xlink:href="#CMR17-6c" transform="translate(219.323974 0) scale(0.996264)"/>
       <use xlink:href="#CMR17-69" transform="translate(244.195032 0) scale(0.996264)"/>
       <use xlink:href="#CMR17-74" transform="translate(269.066091 0) scale(0.996264)"/>
       <use xlink:href="#CMR17-79" transform="translate(301.744405 0) scale(0.996264)"/>
       <use xlink:href="#CMR17-72" transform="translate(380.113287 0) scale(0.996264)"/>
       <use xlink:href="#CMR17-75" transform="translate(415.394055 0) scale(0.996264)"/>
       <use xlink:href="#CMR17-6c" transform="translate(466.289424 0) scale(0.996264)"/>
       <use xlink:href="#CMR17-65" transform="translate(491.160483 0) scale(0.996264)"/>
      </g>
     </g>
    </g>
    <g id="xtick_4">
     <g id="line2d_4">
      <g>
       <use xlink:href="#m2cabca8b78" x="510.226311" y="384.626418" style="stroke: #000000; stroke-width: 0.8"/>
      </g>
     </g>
     <g id="text_4">
      <!-- Black's Rule -->
      <g transform="translate(480.363246 399.236765) scale(0.11 -0.11)">
       <defs>
        <path id="CMR17-63" d="M 2234 2240 
C 2112 2240 1933 2240 1933 2017 
C 1933 1838 2080 1787 2163 1787 
C 2208 1787 2394 1807 2394 2024 
C 2394 2467 1958 2803 1466 2803 
C 787 2803 211 2178 211 1363 
C 211 516 813 -64 1466 -64 
C 2259 -64 2458 677 2458 748 
C 2458 774 2451 793 2406 793 
C 2362 793 2355 787 2330 703 
C 2163 180 1798 51 1523 51 
C 1114 51 621 427 621 1369 
C 621 2338 1094 2688 1472 2688 
C 1722 2688 2093 2573 2234 2240 
z
" transform="scale(0.015625)"/>
        <path id="CMR17-6b" d="M 1670 1673 
C 1664 1686 1632 1724 1632 1743 
C 1632 1756 2086 2171 2144 2222 
C 2509 2528 2739 2560 2906 2560 
L 2906 2733 
C 2867 2733 2854 2733 2848 2720 
L 2534 2720 
C 2355 2720 2080 2720 1907 2733 
L 1907 2566 
C 1997 2559 2061 2508 2061 2419 
C 2061 2291 1933 2170 1926 2170 
L 960 1289 
L 960 4396 
L 198 4326 
L 198 4160 
C 576 4160 634 4122 634 3817 
L 634 426 
C 634 184 608 153 198 153 
L 198 -13 
C 352 0 634 0 794 0 
C 954 0 1235 0 1389 -13 
L 1389 153 
C 979 153 954 178 954 428 
L 954 1130 
L 1395 1532 
L 2042 574 
C 2118 459 2182 369 2182 286 
C 2182 172 2067 153 1990 153 
L 1990 -13 
C 2144 0 2419 0 2579 0 
C 2694 0 2931 0 3040 0 
L 3040 153 
C 2739 153 2669 210 2477 491 
L 1670 1673 
z
" transform="scale(0.015625)"/>
       </defs>
       <use xlink:href="#CMR17-42" transform="scale(0.996264)"/>
       <use xlink:href="#CMR17-6c" transform="translate(65.188754 0) scale(0.996264)"/>
       <use xlink:href="#CMR17-61" transform="translate(90.059813 0) scale(0.996264)"/>
       <use xlink:href="#CMR17-63" transform="translate(135.75029 0) scale(0.996264)"/>
       <use xlink:href="#CMR17-6b" transform="translate(173.633497 0) scale(0.996264)"/>
       <use xlink:href="#CMR17-27" transform="translate(221.926412 0) scale(0.996264)"/>
       <use xlink:href="#CMR17-73" transform="translate(246.797471 0) scale(0.996264)"/>
       <use xlink:href="#CMR17-52" transform="translate(312.674775 0) scale(0.996264)"/>
       <use xlink:href="#CMR17-75" transform="translate(380.465877 0) scale(0.996264)"/>
       <use xlink:href="#CMR17-6c" transform="translate(431.361247 0) scale(0.996264)"/>
       <use xlink:href="#CMR17-65" transform="translate(456.232305 0) scale(0.996264)"/>
      </g>
     </g>
    </g>
    <g id="xtick_5">
     <g id="line2d_5">
      <g>
       <use xlink:href="#m2cabca8b78" x="642.194914" y="384.626418" style="stroke: #000000; stroke-width: 0.8"/>
      </g>
     </g>
     <g id="text_5">
      <!-- Instand-runoff voting -->
      <g transform="translate(591.311994 399.236765) scale(0.11 -0.11)">
       <defs>
        <path id="CMR17-49" d="M 1261 3905 
C 1261 4192 1338 4192 1798 4192 
L 1798 4352 
C 1594 4352 1267 4352 1050 4352 
C 832 4352 506 4352 301 4352 
L 301 4192 
C 762 4192 838 4192 838 3905 
L 838 447 
C 838 160 762 160 301 160 
L 301 0 
C 506 0 832 0 1050 0 
C 1267 0 1594 0 1798 0 
L 1798 160 
C 1338 160 1261 160 1261 447 
L 1261 3905 
z
" transform="scale(0.015625)"/>
        <path id="CMR17-2d" d="M 1632 1216 
L 1632 1496 
L 26 1496 
L 26 1216 
L 1632 1216 
z
" transform="scale(0.015625)"/>
        <path id="CMR17-b" d="M 2554 2560 
L 3283 2560 
L 3283 2725 
L 2541 2725 
L 2541 3494 
C 2541 4022 2810 4352 3085 4352 
C 3168 4352 3264 4327 3328 4282 
C 3277 4269 3142 4225 3142 4067 
C 3142 3901 3270 3850 3360 3850 
C 3450 3850 3578 3901 3578 4067 
C 3578 4308 3347 4454 3091 4454 
C 2842 4454 2637 4333 2477 4181 
C 2330 4390 2086 4454 1837 4454 
C 1338 4454 634 4168 634 3469 
L 634 2725 
L 122 2725 
L 122 2560 
L 634 2560 
L 634 427 
C 634 184 608 153 198 153 
L 198 -13 
C 352 0 634 0 794 0 
C 960 0 1242 0 1395 -13 
L 1395 153 
C 986 153 960 178 960 427 
L 960 2560 
L 2227 2560 
L 2227 427 
C 2227 184 2202 153 1792 153 
L 1792 -13 
C 1946 0 2240 0 2406 0 
C 2592 0 2918 0 3091 -13 
L 3091 153 
C 2630 153 2554 153 2554 439 
L 2554 2560 
z
M 947 2725 
L 947 3469 
C 947 4047 1395 4352 1824 4352 
C 1920 4352 2170 4332 2323 4187 
C 2208 4187 2099 4136 2099 3977 
C 2099 3812 2246 3767 2259 3767 
C 2227 3652 2227 3526 2227 3481 
L 2227 2725 
L 947 2725 
z
" transform="scale(0.015625)"/>
        <path id="CMR17-76" d="M 2502 2163 
C 2560 2304 2662 2560 3034 2560 
L 3034 2726 
C 2912 2726 2752 2726 2630 2726 
C 2496 2726 2285 2726 2157 2732 
L 2157 2566 
C 2317 2553 2406 2477 2406 2311 
C 2406 2253 2406 2240 2368 2151 
L 1664 377 
L 902 2286 
C 864 2369 864 2381 864 2407 
C 864 2560 1075 2560 1171 2560 
L 1171 2732 
C 1018 2726 736 2726 576 2726 
C 403 2726 205 2726 64 2732 
L 64 2560 
C 307 2560 442 2560 518 2362 
L 1446 44 
C 1485 -51 1491 -64 1549 -64 
C 1606 -64 1613 -51 1651 44 
L 2502 2163 
z
" transform="scale(0.015625)"/>
        <path id="CMR17-67" d="M 710 1164 
C 832 1068 1043 960 1299 960 
C 1805 960 2240 1357 2240 1888 
C 2240 2054 2189 2310 1997 2509 
C 2176 2692 2438 2752 2586 2752 
C 2611 2752 2650 2752 2682 2734 
C 2656 2728 2598 2703 2598 2605 
C 2598 2527 2656 2471 2739 2471 
C 2835 2471 2886 2533 2886 2614 
C 2886 2731 2790 2854 2586 2854 
C 2330 2854 2106 2738 1926 2580 
C 1734 2753 1504 2816 1299 2816 
C 794 2816 358 2419 358 1888 
C 358 1522 570 1292 634 1228 
C 442 1004 442 743 442 711 
C 442 545 506 302 723 168 
C 390 85 128 -169 128 -486 
C 128 -943 736 -1280 1466 -1280 
C 2170 -1280 2803 -956 2803 -479 
C 2803 384 1856 384 1363 384 
C 1216 384 954 384 922 391 
C 723 423 589 602 589 826 
C 589 883 589 1024 710 1164 
z
M 1299 1068 
C 736 1068 736 1760 736 1889 
C 736 2016 736 2708 1299 2708 
C 1862 2708 1862 2016 1862 1889 
C 1862 1760 1862 1068 1299 1068 
z
M 1466 -1171 
C 826 -1171 384 -835 384 -486 
C 384 -289 493 -105 634 -4 
C 794 104 858 104 1293 104 
C 1818 104 2547 104 2547 -486 
C 2547 -835 2106 -1171 1466 -1171 
z
" transform="scale(0.015625)"/>
       </defs>
       <use xlink:href="#CMR17-49" transform="scale(0.996264)"/>
       <use xlink:href="#CMR17-6e" transform="translate(32.638409 0) scale(0.996264)"/>
       <use xlink:href="#CMR17-73" transform="translate(83.533779 0) scale(0.996264)"/>
       <use xlink:href="#CMR17-74" transform="translate(119.335117 0) scale(0.996264)"/>
       <use xlink:href="#CMR17-61" transform="translate(154.615884 0) scale(0.996264)"/>
       <use xlink:href="#CMR17-6e" transform="translate(200.306362 0) scale(0.996264)"/>
       <use xlink:href="#CMR17-64" transform="translate(251.201731 0) scale(0.996264)"/>
       <use xlink:href="#CMR17-2d" transform="translate(302.097101 0) scale(0.996264)"/>
       <use xlink:href="#CMR17-72" transform="translate(332.173067 0) scale(0.996264)"/>
       <use xlink:href="#CMR17-75" transform="translate(367.453835 0) scale(0.996264)"/>
       <use xlink:href="#CMR17-6e" transform="translate(418.349205 0) scale(0.996264)"/>
       <use xlink:href="#CMR17-6f" transform="translate(469.244575 0) scale(0.996264)"/>
       <use xlink:href="#CMR17-b" transform="translate(514.935052 0) scale(0.996264)"/>
       <use xlink:href="#CMR17-76" transform="translate(597.355696 0) scale(0.996264)"/>
       <use xlink:href="#CMR17-6f" transform="translate(643.046157 0) scale(0.996264)"/>
       <use xlink:href="#CMR17-74" transform="translate(688.736635 0) scale(0.996264)"/>
       <use xlink:href="#CMR17-69" transform="translate(724.017402 0) scale(0.996264)"/>
       <use xlink:href="#CMR17-6e" transform="translate(748.888461 0) scale(0.996264)"/>
       <use xlink:href="#CMR17-67" transform="translate(799.783831 0) scale(0.996264)"/>
      </g>
     </g>
    </g>
    <g id="text_6">
     <!-- Number of voters -->
     <g transform="translate(329.964678 414.361688) scale(0.13 -0.13)">
      <defs>
       <path id="CMR17-4e" d="M 1312 4250 
C 1267 4320 1261 4320 1139 4320 
L 326 4320 
L 326 4160 
L 448 4160 
C 704 4160 819 4129 838 4122 
L 838 610 
C 838 451 838 153 326 153 
L 326 -13 
C 474 0 742 0 902 0 
C 1062 0 1331 0 1478 -13 
L 1478 153 
C 966 153 966 451 966 610 
L 966 4033 
C 1011 3995 1011 3982 1056 3919 
L 3430 76 
C 3475 0 3494 0 3526 0 
C 3590 0 3590 19 3590 139 
L 3590 3705 
C 3590 3863 3590 4160 4102 4160 
L 4102 4326 
C 3955 4320 3686 4320 3526 4320 
C 3366 4320 3098 4320 2950 4326 
L 2950 4160 
C 3462 4160 3462 3862 3462 3703 
L 3462 763 
L 1312 4250 
z
" transform="scale(0.015625)"/>
       <path id="CMR17-6d" d="M 4326 1933 
C 4326 2252 4269 2790 3507 2790 
C 3072 2790 2771 2496 2656 2151 
L 2650 2151 
C 2573 2676 2195 2790 1837 2790 
C 1331 2790 1069 2400 973 2144 
L 966 2144 
L 966 2790 
L 211 2720 
L 211 2554 
C 589 2554 646 2515 646 2208 
L 646 428 
C 646 184 621 153 211 153 
L 211 -13 
C 365 0 646 0 813 0 
C 979 0 1267 0 1421 -13 
L 1421 153 
C 1011 153 986 178 986 428 
L 986 1658 
C 986 2247 1344 2688 1792 2688 
C 2266 2688 2317 2266 2317 1958 
L 2317 428 
C 2317 184 2291 153 1882 153 
L 1882 -13 
C 2035 0 2317 0 2483 0 
C 2650 0 2938 0 3091 -13 
L 3091 153 
C 2682 153 2656 178 2656 428 
L 2656 1658 
C 2656 2247 3014 2688 3462 2688 
C 3936 2688 3987 2266 3987 1958 
L 3987 428 
C 3987 184 3962 153 3552 153 
L 3552 -13 
C 3706 0 3987 0 4154 0 
C 4320 0 4608 0 4762 -13 
L 4762 153 
C 4352 153 4326 178 4326 428 
L 4326 1933 
z
" transform="scale(0.015625)"/>
       <path id="CMR17-62" d="M 960 4396 
L 198 4326 
L 198 4160 
C 576 4160 634 4122 634 3817 
L 634 -13 
L 749 -13 
L 934 441 
C 1120 141 1395 -64 1766 -64 
C 2406 -64 3053 500 3053 1370 
C 3053 2188 2477 2790 1830 2790 
C 1434 2790 1152 2579 960 2330 
L 960 4396 
z
M 973 2004 
C 973 2118 973 2138 1062 2272 
C 1312 2657 1670 2688 1792 2688 
C 1984 2688 2643 2585 2643 1376 
C 2643 108 1888 38 1734 38 
C 1536 38 1248 114 1043 486 
C 973 608 973 621 973 735 
L 973 2004 
z
" transform="scale(0.015625)"/>
       <path id="CMR17-66" d="M 979 2560 
L 1709 2560 
L 1709 2725 
L 966 2725 
L 966 3494 
C 966 4022 1235 4352 1510 4352 
C 1594 4352 1690 4327 1754 4282 
C 1702 4269 1568 4225 1568 4067 
C 1568 3901 1696 3850 1786 3850 
C 1875 3850 2003 3901 2003 4067 
C 2003 4308 1773 4454 1517 4454 
C 1152 4454 653 4156 653 3481 
L 653 2725 
L 141 2725 
L 141 2560 
L 653 2560 
L 653 427 
C 653 184 627 153 218 153 
L 218 -13 
C 371 0 666 0 832 0 
C 1018 0 1344 0 1517 -13 
L 1517 153 
C 1056 153 979 153 979 439 
L 979 2560 
z
" transform="scale(0.015625)"/>
      </defs>
      <use xlink:href="#CMR17-4e" transform="scale(0.996264)"/>
      <use xlink:href="#CMR17-75" transform="translate(69.07243 0) scale(0.996264)"/>
      <use xlink:href="#CMR17-6d" transform="translate(119.9678 0) scale(0.996264)"/>
      <use xlink:href="#CMR17-62" transform="translate(194.284936 0) scale(0.996264)"/>
      <use xlink:href="#CMR17-65" transform="translate(247.782744 0) scale(0.996264)"/>
      <use xlink:href="#CMR17-72" transform="translate(288.268404 0) scale(0.996264)"/>
      <use xlink:href="#CMR17-6f" transform="translate(353.625139 0) scale(0.996264)"/>
      <use xlink:href="#CMR17-66" transform="translate(399.315616 0) scale(0.996264)"/>
      <use xlink:href="#CMR17-76" transform="translate(456.865095 0) scale(0.996264)"/>
      <use xlink:href="#CMR17-6f" transform="translate(502.555556 0) scale(0.996264)"/>
      <use xlink:href="#CMR17-74" transform="translate(548.246034 0) scale(0.996264)"/>
      <use xlink:href="#CMR17-65" transform="translate(583.526801 0) scale(0.996264)"/>
      <use xlink:href="#CMR17-72" transform="translate(624.012462 0) scale(0.996264)"/>
      <use xlink:href="#CMR17-73" transform="translate(659.29323 0) scale(0.996264)"/>
     </g>
    </g>
   </g>
   <g id="matplotlib.axis_2">
    <g id="ytick_1">
     <g id="line2d_6">
      <path d="M 51.635416 368.512219 
L 704.88 368.512219 
" clip-path="url(#p02faa53d56)" style="fill: none; stroke: #b0b0b0; stroke-opacity: 0.3; stroke-linecap: square"/>
     </g>
     <g id="line2d_7">
      <defs>
       <path id="m36dfc218ce" d="M 0 0 
L -3.5 0 
" style="stroke: #000000; stroke-width: 0.8"/>
      </defs>
      <g>
       <use xlink:href="#m36dfc218ce" x="51.635416" y="368.512219" style="stroke: #000000; stroke-width: 0.8"/>
      </g>
     </g>
     <g id="text_7">
      <!-- $\mathdefault{1.0}$ -->
      <g transform="translate(30.63234 372.317392) scale(0.11 -0.11)">
       <defs>
        <path id="CMR17-31" d="M 1702 4058 
C 1702 4192 1696 4192 1606 4192 
C 1357 3916 979 3827 621 3827 
C 602 3827 570 3827 563 3808 
C 557 3795 557 3782 557 3648 
C 755 3648 1088 3686 1344 3839 
L 1344 461 
C 1344 236 1331 160 781 160 
L 589 160 
L 589 0 
C 896 0 1216 0 1523 0 
C 1830 0 2150 0 2458 0 
L 2458 160 
L 2266 160 
C 1715 160 1702 230 1702 458 
L 1702 4058 
z
" transform="scale(0.015625)"/>
        <path id="CMMI12-3a" d="M 1178 307 
C 1178 492 1024 619 870 619 
C 685 619 557 466 557 313 
C 557 128 710 0 864 0 
C 1050 0 1178 153 1178 307 
z
" transform="scale(0.015625)"/>
        <path id="CMR17-30" d="M 2688 2025 
C 2688 2416 2682 3080 2413 3591 
C 2176 4039 1798 4198 1466 4198 
C 1158 4198 768 4058 525 3597 
C 269 3118 243 2524 243 2025 
C 243 1661 250 1106 448 619 
C 723 -39 1216 -128 1466 -128 
C 1760 -128 2208 -7 2470 600 
C 2662 1042 2688 1559 2688 2025 
z
M 1466 -26 
C 1056 -26 813 325 723 812 
C 653 1188 653 1738 653 2096 
C 653 2588 653 2997 736 3387 
C 858 3929 1216 4096 1466 4096 
C 1728 4096 2067 3923 2189 3400 
C 2272 3036 2278 2607 2278 2096 
C 2278 1680 2278 1169 2202 792 
C 2067 95 1690 -26 1466 -26 
z
" transform="scale(0.015625)"/>
       </defs>
       <use xlink:href="#CMR17-31" transform="scale(0.996264)"/>
       <use xlink:href="#CMMI12-3a" transform="translate(45.690477 0) scale(0.996264)"/>
       <use xlink:href="#CMR17-30" transform="translate(72.787654 0) scale(0.996264)"/>
      </g>
     </g>
    </g>
    <g id="ytick_2">
     <g id="line2d_8">
      <path d="M 51.635416 317.73286 
L 704.88 317.73286 
" clip-path="url(#p02faa53d56)" style="fill: none; stroke: #b0b0b0; stroke-opacity: 0.3; stroke-linecap: square"/>
     </g>
     <g id="line2d_9">
      <g>
       <use xlink:href="#m36dfc218ce" x="51.635416" y="317.73286" style="stroke: #000000; stroke-width: 0.8"/>
      </g>
     </g>
     <g id="text_8">
      <!-- $\mathdefault{1.5}$ -->
      <g transform="translate(30.63234 321.538033) scale(0.11 -0.11)">
       <defs>
        <path id="CMR17-35" d="M 730 3692 
C 794 3666 1056 3584 1325 3584 
C 1920 3584 2246 3911 2432 4100 
C 2432 4157 2432 4192 2394 4192 
C 2387 4192 2374 4192 2323 4163 
C 2099 4058 1837 3973 1517 3973 
C 1325 3973 1037 3999 723 4139 
C 653 4171 640 4171 634 4171 
C 602 4171 595 4164 595 4037 
L 595 2203 
C 595 2089 595 2057 659 2057 
C 691 2057 704 2070 736 2114 
C 941 2401 1222 2522 1542 2522 
C 1766 2522 2246 2382 2246 1289 
C 2246 1085 2246 715 2054 421 
C 1894 159 1645 25 1370 25 
C 947 25 518 320 403 814 
C 429 807 480 795 506 795 
C 589 795 749 840 749 1038 
C 749 1210 627 1280 506 1280 
C 358 1280 262 1190 262 1011 
C 262 454 704 -128 1382 -128 
C 2042 -128 2669 440 2669 1264 
C 2669 2030 2170 2624 1549 2624 
C 1222 2624 947 2503 730 2274 
L 730 3692 
z
" transform="scale(0.015625)"/>
       </defs>
       <use xlink:href="#CMR17-31" transform="scale(0.996264)"/>
       <use xlink:href="#CMMI12-3a" transform="translate(45.690477 0) scale(0.996264)"/>
       <use xlink:href="#CMR17-35" transform="translate(72.787654 0) scale(0.996264)"/>
      </g>
     </g>
    </g>
    <g id="ytick_3">
     <g id="line2d_10">
      <path d="M 51.635416 266.953501 
L 704.88 266.953501 
" clip-path="url(#p02faa53d56)" style="fill: none; stroke: #b0b0b0; stroke-opacity: 0.3; stroke-linecap: square"/>
     </g>
     <g id="line2d_11">
      <g>
       <use xlink:href="#m36dfc218ce" x="51.635416" y="266.953501" style="stroke: #000000; stroke-width: 0.8"/>
      </g>
     </g>
     <g id="text_9">
      <!-- $\mathdefault{2.0}$ -->
      <g transform="translate(30.63234 270.758674) scale(0.11 -0.11)">
       <defs>
        <path id="CMR17-32" d="M 2669 989 
L 2554 989 
C 2490 536 2438 459 2413 420 
C 2381 369 1920 369 1830 369 
L 602 369 
C 832 619 1280 1072 1824 1597 
C 2214 1967 2669 2402 2669 3035 
C 2669 3790 2067 4224 1395 4224 
C 691 4224 262 3604 262 3030 
C 262 2780 448 2748 525 2748 
C 589 2748 781 2787 781 3010 
C 781 3207 614 3264 525 3264 
C 486 3264 448 3258 422 3245 
C 544 3790 915 4058 1306 4058 
C 1862 4058 2227 3617 2227 3035 
C 2227 2479 1901 2000 1536 1584 
L 262 146 
L 262 0 
L 2515 0 
L 2669 989 
z
" transform="scale(0.015625)"/>
       </defs>
       <use xlink:href="#CMR17-32" transform="scale(0.996264)"/>
       <use xlink:href="#CMMI12-3a" transform="translate(45.690477 0) scale(0.996264)"/>
       <use xlink:href="#CMR17-30" transform="translate(72.787654 0) scale(0.996264)"/>
      </g>
     </g>
    </g>
    <g id="ytick_4">
     <g id="line2d_12">
      <path d="M 51.635416 216.174142 
L 704.88 216.174142 
" clip-path="url(#p02faa53d56)" style="fill: none; stroke: #b0b0b0; stroke-opacity: 0.3; stroke-linecap: square"/>
     </g>
     <g id="line2d_13">
      <g>
       <use xlink:href="#m36dfc218ce" x="51.635416" y="216.174142" style="stroke: #000000; stroke-width: 0.8"/>
      </g>
     </g>
     <g id="text_10">
      <!-- $\mathdefault{2.5}$ -->
      <g transform="translate(30.63234 219.979315) scale(0.11 -0.11)">
       <use xlink:href="#CMR17-32" transform="scale(0.996264)"/>
       <use xlink:href="#CMMI12-3a" transform="translate(45.690477 0) scale(0.996264)"/>
       <use xlink:href="#CMR17-35" transform="translate(72.787654 0) scale(0.996264)"/>
      </g>
     </g>
    </g>
    <g id="ytick_5">
     <g id="line2d_14">
      <path d="M 51.635416 165.394783 
L 704.88 165.394783 
" clip-path="url(#p02faa53d56)" style="fill: none; stroke: #b0b0b0; stroke-opacity: 0.3; stroke-linecap: square"/>
     </g>
     <g id="line2d_15">
      <g>
       <use xlink:href="#m36dfc218ce" x="51.635416" y="165.394783" style="stroke: #000000; stroke-width: 0.8"/>
      </g>
     </g>
     <g id="text_11">
      <!-- $\mathdefault{3.0}$ -->
      <g transform="translate(30.63234 169.199956) scale(0.11 -0.11)">
       <defs>
        <path id="CMR17-33" d="M 1414 2157 
C 1984 2157 2234 1662 2234 1090 
C 2234 320 1824 25 1453 25 
C 1114 25 563 194 390 693 
C 422 680 454 680 486 680 
C 640 680 755 782 755 948 
C 755 1133 614 1216 486 1216 
C 378 1216 211 1165 211 926 
C 211 335 787 -128 1466 -128 
C 2176 -128 2720 430 2720 1085 
C 2720 1707 2208 2157 1600 2227 
C 2086 2328 2554 2756 2554 3329 
C 2554 3820 2048 4179 1472 4179 
C 890 4179 378 3829 378 3329 
C 378 3110 544 3072 627 3072 
C 762 3072 877 3155 877 3321 
C 877 3486 762 3569 627 3569 
C 602 3569 570 3569 544 3557 
C 730 3959 1235 4032 1459 4032 
C 1683 4032 2106 3925 2106 3320 
C 2106 3143 2080 2828 1862 2550 
C 1670 2304 1453 2304 1242 2284 
C 1210 2284 1062 2269 1037 2269 
C 992 2263 966 2257 966 2208 
C 966 2163 973 2157 1101 2157 
L 1414 2157 
z
" transform="scale(0.015625)"/>
       </defs>
       <use xlink:href="#CMR17-33" transform="scale(0.996264)"/>
       <use xlink:href="#CMMI12-3a" transform="translate(45.690477 0) scale(0.996264)"/>
       <use xlink:href="#CMR17-30" transform="translate(72.787654 0) scale(0.996264)"/>
      </g>
     </g>
    </g>
    <g id="ytick_6">
     <g id="line2d_16">
      <path d="M 51.635416 114.615424 
L 704.88 114.615424 
" clip-path="url(#p02faa53d56)" style="fill: none; stroke: #b0b0b0; stroke-opacity: 0.3; stroke-linecap: square"/>
     </g>
     <g id="line2d_17">
      <g>
       <use xlink:href="#m36dfc218ce" x="51.635416" y="114.615424" style="stroke: #000000; stroke-width: 0.8"/>
      </g>
     </g>
     <g id="text_12">
      <!-- $\mathdefault{3.5}$ -->
      <g transform="translate(30.63234 118.420597) scale(0.11 -0.11)">
       <use xlink:href="#CMR17-33" transform="scale(0.996264)"/>
       <use xlink:href="#CMMI12-3a" transform="translate(45.690477 0) scale(0.996264)"/>
       <use xlink:href="#CMR17-35" transform="translate(72.787654 0) scale(0.996264)"/>
      </g>
     </g>
    </g>
    <g id="ytick_7">
     <g id="line2d_18">
      <path d="M 51.635416 63.836065 
L 704.88 63.836065 
" clip-path="url(#p02faa53d56)" style="fill: none; stroke: #b0b0b0; stroke-opacity: 0.3; stroke-linecap: square"/>
     </g>
     <g id="line2d_19">
      <g>
       <use xlink:href="#m36dfc218ce" x="51.635416" y="63.836065" style="stroke: #000000; stroke-width: 0.8"/>
      </g>
     </g>
     <g id="text_13">
      <!-- $\mathdefault{4.0}$ -->
      <g transform="translate(30.63234 67.641238) scale(0.11 -0.11)">
       <defs>
        <path id="CMR17-34" d="M 2150 4122 
C 2150 4256 2144 4256 2029 4256 
L 128 1254 
L 128 1088 
L 1779 1088 
L 1779 457 
C 1779 224 1766 160 1318 160 
L 1197 160 
L 1197 0 
C 1402 0 1747 0 1965 0 
C 2182 0 2528 0 2733 0 
L 2733 160 
L 2611 160 
C 2163 160 2150 224 2150 457 
L 2150 1088 
L 2803 1088 
L 2803 1254 
L 2150 1254 
L 2150 4122 
z
M 1798 3703 
L 1798 1254 
L 256 1254 
L 1798 3703 
z
" transform="scale(0.015625)"/>
       </defs>
       <use xlink:href="#CMR17-34" transform="scale(0.996264)"/>
       <use xlink:href="#CMMI12-3a" transform="translate(45.690477 0) scale(0.996264)"/>
       <use xlink:href="#CMR17-30" transform="translate(72.787654 0) scale(0.996264)"/>
      </g>
     </g>
    </g>
    <g id="text_14">
     <!-- Distortion -->
     <g transform="translate(24.114028 235.497321) rotate(-90) scale(0.13 -0.13)">
      <defs>
       <path id="CMR17-44" d="M 333 4352 
L 333 4186 
C 774 4186 845 4186 845 3900 
L 845 452 
C 845 166 774 166 333 166 
L 333 0 
L 2368 0 
C 3398 0 4224 943 4224 2141 
C 4224 3346 3411 4352 2368 4352 
L 333 4352 
z
M 1523 166 
C 1267 166 1254 197 1254 414 
L 1254 3938 
C 1254 4155 1267 4186 1523 4186 
L 2240 4186 
C 2771 4186 3750 3874 3750 2141 
C 3750 1242 3488 879 3366 707 
C 3213 510 2848 166 2240 166 
L 1523 166 
z
" transform="scale(0.015625)"/>
      </defs>
      <use xlink:href="#CMR17-44" transform="scale(0.996264)"/>
      <use xlink:href="#CMR17-69" transform="translate(70.393556 0) scale(0.996264)"/>
      <use xlink:href="#CMR17-73" transform="translate(95.264614 0) scale(0.996264)"/>
      <use xlink:href="#CMR17-74" transform="translate(131.065952 0) scale(0.996264)"/>
      <use xlink:href="#CMR17-6f" transform="translate(166.34672 0) scale(0.996264)"/>
      <use xlink:href="#CMR17-72" transform="translate(212.037197 0) scale(0.996264)"/>
      <use xlink:href="#CMR17-74" transform="translate(247.317965 0) scale(0.996264)"/>
      <use xlink:href="#CMR17-69" transform="translate(282.598733 0) scale(0.996264)"/>
      <use xlink:href="#CMR17-6f" transform="translate(307.469791 0) scale(0.996264)"/>
      <use xlink:href="#CMR17-6e" transform="translate(353.160268 0) scale(0.996264)"/>
     </g>
    </g>
   </g>
   <g id="LineCollection_1">
    <path d="M 97.824427 367.367434 
L 130.816578 367.367434 
" clip-path="url(#p02faa53d56)" style="fill: none; stroke: #1f77b4; stroke-width: 1.5"/>
    <path d="M 229.79303 364.282789 
L 262.785181 364.282789 
" clip-path="url(#p02faa53d56)" style="fill: none; stroke: #1f77b4; stroke-width: 1.5"/>
    <path d="M 361.761633 332.300218 
L 394.753784 332.300218 
" clip-path="url(#p02faa53d56)" style="fill: none; stroke: #1f77b4; stroke-width: 1.5"/>
    <path d="M 493.730236 366.079003 
L 526.722386 366.079003 
" clip-path="url(#p02faa53d56)" style="fill: none; stroke: #1f77b4; stroke-width: 1.5"/>
    <path d="M 625.698838 348.733441 
L 658.690989 348.733441 
" clip-path="url(#p02faa53d56)" style="fill: none; stroke: #1f77b4; stroke-width: 1.5"/>
   </g>
   <g id="LineCollection_2">
    <path d="M 97.824427 322.865696 
L 130.816578 322.865696 
" clip-path="url(#p02faa53d56)" style="fill: none; stroke: #1f77b4; stroke-width: 1.5"/>
    <path d="M 229.79303 300.683865 
L 262.785181 300.683865 
" clip-path="url(#p02faa53d56)" style="fill: none; stroke: #1f77b4; stroke-width: 1.5"/>
    <path d="M 361.761633 102.149233 
L 394.753784 102.149233 
" clip-path="url(#p02faa53d56)" style="fill: none; stroke: #1f77b4; stroke-width: 1.5"/>
    <path d="M 493.730236 320.796325 
L 526.722386 320.796325 
" clip-path="url(#p02faa53d56)" style="fill: none; stroke: #1f77b4; stroke-width: 1.5"/>
    <path d="M 625.698838 46.228228 
L 658.690989 46.228228 
" clip-path="url(#p02faa53d56)" style="fill: none; stroke: #1f77b4; stroke-width: 1.5"/>
   </g>
   <g id="LineCollection_3">
    <path d="M 97.824427 368.512219 
L 130.816578 368.512219 
" clip-path="url(#p02faa53d56)" style="fill: none; stroke: #1f77b4; stroke-width: 1.5"/>
    <path d="M 229.79303 368.512219 
L 262.785181 368.512219 
" clip-path="url(#p02faa53d56)" style="fill: none; stroke: #1f77b4; stroke-width: 1.5"/>
    <path d="M 361.761633 368.512219 
L 394.753784 368.512219 
" clip-path="url(#p02faa53d56)" style="fill: none; stroke: #1f77b4; stroke-width: 1.5"/>
    <path d="M 493.730236 368.512219 
L 526.722386 368.512219 
" clip-path="url(#p02faa53d56)" style="fill: none; stroke: #1f77b4; stroke-width: 1.5"/>
    <path d="M 625.698838 368.512219 
L 658.690989 368.512219 
" clip-path="url(#p02faa53d56)" style="fill: none; stroke: #1f77b4; stroke-width: 1.5"/>
   </g>
   <g id="LineCollection_4">
    <path d="M 114.320503 368.512219 
L 114.320503 322.865696 
" clip-path="url(#p02faa53d56)" style="fill: none; stroke: #1f77b4; stroke-width: 1.5"/>
    <path d="M 246.289105 368.512219 
L 246.289105 300.683865 
" clip-path="url(#p02faa53d56)" style="fill: none; stroke: #1f77b4; stroke-width: 1.5"/>
    <path d="M 378.257708 368.512219 
L 378.257708 102.149233 
" clip-path="url(#p02faa53d56)" style="fill: none; stroke: #1f77b4; stroke-width: 1.5"/>
    <path d="M 510.226311 368.512219 
L 510.226311 320.796325 
" clip-path="url(#p02faa53d56)" style="fill: none; stroke: #1f77b4; stroke-width: 1.5"/>
    <path d="M 642.194914 368.512219 
L 642.194914 46.228228 
" clip-path="url(#p02faa53d56)" style="fill: none; stroke: #1f77b4; stroke-width: 1.5"/>
   </g>
   <g id="patch_3">
    <path d="M 51.635416 384.626418 
L 51.635416 30.114028 
" style="fill: none; stroke: #000000; stroke-linejoin: miter; stroke-linecap: square"/>
   </g>
   <g id="patch_4">
    <path d="M 704.88 384.626418 
L 704.88 30.114028 
" style="fill: none; stroke: #000000; stroke-linejoin: miter; stroke-linecap: square"/>
   </g>
   <g id="patch_5">
    <path d="M 51.635416 384.626418 
L 704.88 384.626418 
" style="fill: none; stroke: #000000; stroke-linejoin: miter; stroke-linecap: square"/>
   </g>
   <g id="patch_6">
    <path d="M 51.635416 30.114028 
L 704.88 30.114028 
" style="fill: none; stroke: #000000; stroke-linejoin: miter; stroke-linecap: square"/>
   </g>
   <g id="text_15">
    <!-- Distortion Under Nash -->
    <g transform="translate(314.87355 24.114028) scale(0.13 -0.13)">
     <defs>
      <path id="CMR17-55" d="M 3456 1433 
C 3456 579 2899 38 2291 38 
C 1965 38 1670 210 1491 477 
C 1286 783 1261 1178 1261 1401 
L 1261 3874 
C 1261 4160 1331 4160 1773 4160 
L 1773 4320 
C 1587 4320 1248 4320 1050 4320 
C 851 4320 512 4320 326 4320 
L 326 4160 
C 768 4160 838 4160 838 3874 
L 838 1433 
C 838 516 1536 -128 2278 -128 
C 3110 -128 3590 719 3590 1344 
L 3590 3766 
C 3590 4122 3917 4160 4102 4160 
L 4102 4326 
C 3955 4320 3686 4320 3526 4320 
C 3366 4320 3091 4320 2944 4326 
L 2944 4160 
C 3456 4160 3456 3861 3456 3702 
L 3456 1433 
z
" transform="scale(0.015625)"/>
      <path id="CMR17-68" d="M 2656 1933 
C 2656 2259 2592 2790 1837 2790 
C 1312 2790 1056 2368 979 2157 
L 973 2157 
L 973 4396 
L 211 4326 
L 211 4160 
C 589 4160 646 4122 646 3817 
L 646 426 
C 646 184 621 153 211 153 
L 211 -13 
C 365 0 646 0 813 0 
C 979 0 1267 0 1421 -13 
L 1421 153 
C 1011 153 986 178 986 428 
L 986 1658 
C 986 2247 1344 2688 1792 2688 
C 2266 2688 2317 2266 2317 1958 
L 2317 428 
C 2317 184 2291 153 1882 153 
L 1882 -13 
C 2035 0 2317 0 2483 0 
C 2650 0 2938 0 3091 -13 
L 3091 153 
C 2682 153 2656 178 2656 428 
L 2656 1933 
z
" transform="scale(0.015625)"/>
     </defs>
     <use xlink:href="#CMR17-44" transform="scale(0.996264)"/>
     <use xlink:href="#CMR17-69" transform="translate(70.393556 0) scale(0.996264)"/>
     <use xlink:href="#CMR17-73" transform="translate(95.264614 0) scale(0.996264)"/>
     <use xlink:href="#CMR17-74" transform="translate(131.065952 0) scale(0.996264)"/>
     <use xlink:href="#CMR17-6f" transform="translate(166.34672 0) scale(0.996264)"/>
     <use xlink:href="#CMR17-72" transform="translate(212.037197 0) scale(0.996264)"/>
     <use xlink:href="#CMR17-74" transform="translate(247.317965 0) scale(0.996264)"/>
     <use xlink:href="#CMR17-69" transform="translate(282.598733 0) scale(0.996264)"/>
     <use xlink:href="#CMR17-6f" transform="translate(307.469791 0) scale(0.996264)"/>
     <use xlink:href="#CMR17-6e" transform="translate(353.160268 0) scale(0.996264)"/>
     <use xlink:href="#CMR17-55" transform="translate(434.131604 0) scale(0.996264)"/>
     <use xlink:href="#CMR17-6e" transform="translate(503.204034 0) scale(0.996264)"/>
     <use xlink:href="#CMR17-64" transform="translate(554.099404 0) scale(0.996264)"/>
     <use xlink:href="#CMR17-65" transform="translate(604.994774 0) scale(0.996264)"/>
     <use xlink:href="#CMR17-72" transform="translate(645.480434 0) scale(0.996264)"/>
     <use xlink:href="#CMR17-4e" transform="translate(710.837168 0) scale(0.996264)"/>
     <use xlink:href="#CMR17-61" transform="translate(779.909598 0) scale(0.996264)"/>
     <use xlink:href="#CMR17-73" transform="translate(825.600075 0) scale(0.996264)"/>
     <use xlink:href="#CMR17-68" transform="translate(861.401413 0) scale(0.996264)"/>
    </g>
   </g>
  </g>
 </g>
 <defs>
  <clipPath id="p02faa53d56">
   <rect x="51.635416" y="30.114028" width="653.244584" height="354.51239"/>
  </clipPath>
 </defs>
</svg>
