<?xml version="1.0" encoding="utf-8" standalone="no"?>
<!DOCTYPE svg PUBLIC "-//W3C//DTD SVG 1.1//EN"
  "http://www.w3.org/Graphics/SVG/1.1/DTD/svg11.dtd">
<svg xmlns:xlink="http://www.w3.org/1999/xlink" width="720pt" height="432pt" viewBox="0 0 720 432" xmlns="http://www.w3.org/2000/svg" version="1.1">
 <metadata>
  <rdf:RDF xmlns:dc="http://purl.org/dc/elements/1.1/" xmlns:cc="http://creativecommons.org/ns#" xmlns:rdf="http://www.w3.org/1999/02/22-rdf-syntax-ns#">
   <cc:Work>
    <dc:type rdf:resource="http://purl.org/dc/dcmitype/StillImage"/>
    <dc:date>2024-12-09T15:09:15.167552</dc:date>
    <dc:format>image/svg+xml</dc:format>
    <dc:creator>
     <cc:Agent>
      <dc:title>Matplotlib v3.9.2, https://matplotlib.org/</dc:title>
     </cc:Agent>
    </dc:creator>
   </cc:Work>
  </rdf:RDF>
 </metadata>
 <defs>
  <style type="text/css">*{stroke-linejoin: round; stroke-linecap: butt}</style>
 </defs>
 <g id="figure_1">
  <g id="patch_1">
   <path d="M 0 432 
L 720 432 
L 720 0 
L 0 0 
z
" style="fill: #ffffff"/>
  </g>
  <g id="axes_1">
   <g id="patch_2">
    <path d="M 48.591275 384.626418 
L 704.88 384.626418 
L 704.88 30.114028 
L 48.591275 30.114028 
z
" style="fill: #ffffff"/>
   </g>
   <g id="PolyCollection_1">
    <defs>
     <path id="m2610a5bb52" d="M 144.23111 -63.487781 
L 78.905842 -63.487781 
L 78.42258 -65.929326 
L 78.97804 -68.370872 
L 80.501875 -70.812417 
L 82.837132 -73.253963 
L 85.766048 -75.695508 
L 89.042773 -78.137053 
L 92.426291 -80.578599 
L 95.707616 -83.020144 
L 98.727473 -85.46169 
L 101.383264 -87.903235 
L 103.626546 -90.34478 
L 105.453773 -92.786326 
L 106.893656 -95.227871 
L 107.994185 -97.669417 
L 108.811466 -100.110962 
L 109.401533 -102.552507 
L 109.815329 -104.994053 
L 110.096418 -107.435598 
L 110.280637 -109.877143 
L 110.396849 -112.318689 
L 110.468083 -114.760234 
L 110.512542 -117.20178 
L 110.544287 -119.643325 
L 110.57356 -122.08487 
L 110.606929 -124.526416 
L 110.647458 -126.967961 
L 110.695097 -129.409507 
L 110.747374 -131.851052 
L 110.800331 -134.292597 
L 110.84956 -136.734143 
L 110.891107 -139.175688 
L 110.922075 -141.617234 
L 110.940821 -144.058779 
L 110.946789 -146.500324 
L 110.940102 -148.94187 
L 110.92115 -151.383415 
L 110.89033 -153.82496 
L 110.84809 -156.266506 
L 110.795247 -158.708051 
L 110.733472 -161.149597 
L 110.665746 -163.591142 
L 110.596583 -166.032687 
L 110.531869 -168.474233 
L 110.478296 -170.915778 
L 110.442482 -173.357324 
L 110.429959 -175.798869 
L 110.444271 -178.240414 
L 110.486366 -180.68196 
L 110.55444 -183.123505 
L 110.644216 -185.56505 
L 110.749611 -188.006596 
L 110.863611 -190.448141 
L 110.979198 -192.889687 
L 111.090142 -195.331232 
L 111.191578 -197.772777 
L 111.28028 -200.214323 
L 111.354674 -202.655868 
L 111.414634 -205.097414 
L 111.461138 -207.538959 
L 111.495878 -209.980504 
L 111.520894 -212.42205 
L 111.538263 -214.863595 
L 111.549897 -217.305141 
L 111.557414 -219.746686 
L 111.562101 -222.188231 
L 111.564921 -224.629777 
L 111.566558 -227.071322 
L 111.567475 -229.512867 
L 111.567971 -231.954413 
L 111.568229 -234.395958 
L 111.568359 -236.837504 
L 111.568422 -239.279049 
L 111.56845 -241.720594 
L 111.56846 -244.16214 
L 111.568457 -246.603685 
L 111.568441 -249.045231 
L 111.568401 -251.486776 
L 111.568317 -253.928321 
L 111.568148 -256.369867 
L 111.567823 -258.811412 
L 111.567219 -261.252958 
L 111.566143 -263.694503 
L 111.564296 -266.136048 
L 111.561245 -268.577594 
L 111.556402 -271.019139 
L 111.549015 -273.460684 
L 111.538199 -275.90223 
L 111.523007 -278.343775 
L 111.502565 -280.785321 
L 111.476253 -283.226866 
L 111.443919 -285.668411 
L 111.406092 -288.109957 
L 111.364133 -290.551502 
L 111.320266 -292.993048 
L 111.277456 -295.434593 
L 111.239116 -297.876138 
L 111.208675 -300.317684 
L 111.189077 -302.759229 
L 111.182309 -305.200775 
L 111.954642 -305.200775 
L 111.954642 -305.200775 
L 111.947875 -302.759229 
L 111.928276 -300.317684 
L 111.897835 -297.876138 
L 111.859496 -295.434593 
L 111.816685 -292.993048 
L 111.772818 -290.551502 
L 111.730859 -288.109957 
L 111.693033 -285.668411 
L 111.660699 -283.226866 
L 111.634386 -280.785321 
L 111.613944 -278.343775 
L 111.598753 -275.90223 
L 111.587936 -273.460684 
L 111.580549 -271.019139 
L 111.575706 -268.577594 
L 111.572655 -266.136048 
L 111.570808 -263.694503 
L 111.569732 -261.252958 
L 111.569129 -258.811412 
L 111.568803 -256.369867 
L 111.568635 -253.928321 
L 111.56855 -251.486776 
L 111.568511 -249.045231 
L 111.568494 -246.603685 
L 111.568492 -244.16214 
L 111.568501 -241.720594 
L 111.568529 -239.279049 
L 111.568592 -236.837504 
L 111.568722 -234.395958 
L 111.56898 -231.954413 
L 111.569476 -229.512867 
L 111.570393 -227.071322 
L 111.57203 -224.629777 
L 111.57485 -222.188231 
L 111.579537 -219.746686 
L 111.587054 -217.305141 
L 111.598688 -214.863595 
L 111.616058 -212.42205 
L 111.641073 -209.980504 
L 111.675814 -207.538959 
L 111.722317 -205.097414 
L 111.782277 -202.655868 
L 111.856671 -200.214323 
L 111.945373 -197.772777 
L 112.046809 -195.331232 
L 112.157754 -192.889687 
L 112.27334 -190.448141 
L 112.387341 -188.006596 
L 112.492735 -185.56505 
L 112.582512 -183.123505 
L 112.650585 -180.68196 
L 112.692681 -178.240414 
L 112.706992 -175.798869 
L 112.69447 -173.357324 
L 112.658655 -170.915778 
L 112.605082 -168.474233 
L 112.540368 -166.032687 
L 112.471205 -163.591142 
L 112.40348 -161.149597 
L 112.341704 -158.708051 
L 112.288861 -156.266506 
L 112.246621 -153.82496 
L 112.215802 -151.383415 
L 112.196849 -148.94187 
L 112.190163 -146.500324 
L 112.19613 -144.058779 
L 112.214876 -141.617234 
L 112.245844 -139.175688 
L 112.287391 -136.734143 
L 112.33662 -134.292597 
L 112.389577 -131.851052 
L 112.441854 -129.409507 
L 112.489493 -126.967961 
L 112.530022 -124.526416 
L 112.563391 -122.08487 
L 112.592664 -119.643325 
L 112.624409 -117.20178 
L 112.668869 -114.760234 
L 112.740102 -112.318689 
L 112.856315 -109.877143 
L 113.040533 -107.435598 
L 113.321622 -104.994053 
L 113.735419 -102.552507 
L 114.325485 -100.110962 
L 115.142766 -97.669417 
L 116.243295 -95.227871 
L 117.683178 -92.786326 
L 119.510405 -90.34478 
L 121.753687 -87.903235 
L 124.409479 -85.46169 
L 127.429335 -83.020144 
L 130.71066 -80.578599 
L 134.094178 -78.137053 
L 137.370904 -75.695508 
L 140.29982 -73.253963 
L 142.635076 -70.812417 
L 144.158911 -68.370872 
L 144.714371 -65.929326 
L 144.23111 -63.487781 
z
" style="stroke: #000000; stroke-opacity: 0.4"/>
    </defs>
    <g clip-path="url(#pd8b29fd5f5)">
     <use xlink:href="#m2610a5bb52" x="0" y="432" style="fill: #440154; fill-opacity: 0.4; stroke: #000000; stroke-opacity: 0.4"/>
    </g>
   </g>
   <g id="PolyCollection_2">
    <defs>
     <path id="m4e78e40647" d="M 276.497802 -63.487781 
L 211.806311 -63.487781 
L 211.079923 -66.743175 
L 211.006161 -69.998569 
L 211.56999 -73.253963 
L 212.716662 -76.509357 
L 214.358497 -79.76475 
L 216.384717 -83.020144 
L 218.672861 -86.275538 
L 221.10019 -89.530932 
L 223.553685 -92.786326 
L 225.937593 -96.04172 
L 228.178011 -99.297113 
L 230.224458 -102.552507 
L 232.048847 -105.807901 
L 233.642514 -109.063295 
L 235.012069 -112.318689 
L 236.174835 -115.574083 
L 237.154477 -118.829477 
L 237.977244 -122.08487 
L 238.669061 -125.340264 
L 239.253537 -128.595658 
L 239.750833 -131.851052 
L 240.177255 -135.106446 
L 240.545408 -138.36184 
L 240.86473 -141.617234 
L 241.142246 -144.872627 
L 241.383375 -148.128021 
L 241.592695 -151.383415 
L 241.774538 -154.638809 
L 241.933379 -157.894203 
L 242.073976 -161.149597 
L 242.201278 -164.40499 
L 242.320161 -167.660384 
L 242.435039 -170.915778 
L 242.549463 -174.171172 
L 242.665776 -177.426566 
L 242.784902 -180.68196 
L 242.906307 -183.937354 
L 243.028149 -187.192747 
L 243.147586 -190.448141 
L 243.261205 -193.703535 
L 243.365503 -196.958929 
L 243.457358 -200.214323 
L 243.534431 -203.469717 
L 243.595448 -206.725111 
L 243.640345 -209.980504 
L 243.670255 -213.235898 
L 243.687364 -216.491292 
L 243.69465 -219.746686 
L 243.69554 -223.00208 
L 243.69354 -226.257474 
L 243.691863 -229.512867 
L 243.693109 -232.768261 
L 243.699032 -236.023655 
L 243.7104 -239.279049 
L 243.726982 -242.534443 
L 243.747642 -245.789837 
L 243.770524 -249.045231 
L 243.793319 -252.300624 
L 243.81355 -255.556018 
L 243.82887 -258.811412 
L 243.837326 -262.066806 
L 243.837559 -265.3222 
L 243.828932 -268.577594 
L 243.811572 -271.832988 
L 243.786326 -275.088381 
L 243.754648 -278.343775 
L 243.718425 -281.599169 
L 243.67978 -284.854563 
L 243.640868 -288.109957 
L 243.603702 -291.365351 
L 243.570018 -294.620744 
L 243.541201 -297.876138 
L 243.518273 -301.131532 
L 243.501923 -304.386926 
L 243.492568 -307.64232 
L 243.490414 -310.897714 
L 243.495507 -314.153108 
L 243.50774 -317.408501 
L 243.526826 -320.663895 
L 243.552247 -323.919289 
L 243.583185 -327.174683 
L 243.618473 -330.430077 
L 243.656576 -333.685471 
L 243.695635 -336.940865 
L 243.733562 -340.196258 
L 243.768193 -343.451652 
L 243.797479 -346.707046 
L 243.819691 -349.96244 
L 243.833617 -353.217834 
L 243.83871 -356.473228 
L 243.835186 -359.728622 
L 243.824037 -362.984015 
L 243.806971 -366.239409 
L 243.786262 -369.494803 
L 243.764546 -372.750197 
L 243.744564 -376.005591 
L 243.728895 -379.260985 
L 243.719704 -382.516378 
L 243.718536 -385.771772 
L 244.585577 -385.771772 
L 244.585577 -385.771772 
L 244.584409 -382.516378 
L 244.575218 -379.260985 
L 244.559549 -376.005591 
L 244.539567 -372.750197 
L 244.517851 -369.494803 
L 244.497142 -366.239409 
L 244.480076 -362.984015 
L 244.468927 -359.728622 
L 244.465403 -356.473228 
L 244.470496 -353.217834 
L 244.484422 -349.96244 
L 244.506634 -346.707046 
L 244.53592 -343.451652 
L 244.570551 -340.196258 
L 244.608478 -336.940865 
L 244.647537 -333.685471 
L 244.68564 -330.430077 
L 244.720928 -327.174683 
L 244.751866 -323.919289 
L 244.777287 -320.663895 
L 244.796373 -317.408501 
L 244.808606 -314.153108 
L 244.813699 -310.897714 
L 244.811545 -307.64232 
L 244.80219 -304.386926 
L 244.78584 -301.131532 
L 244.762912 -297.876138 
L 244.734095 -294.620744 
L 244.700411 -291.365351 
L 244.663245 -288.109957 
L 244.624333 -284.854563 
L 244.585688 -281.599169 
L 244.549465 -278.343775 
L 244.517787 -275.088381 
L 244.492541 -271.832988 
L 244.475181 -268.577594 
L 244.466554 -265.3222 
L 244.466787 -262.066806 
L 244.475243 -258.811412 
L 244.490563 -255.556018 
L 244.510794 -252.300624 
L 244.533588 -249.045231 
L 244.556471 -245.789837 
L 244.577131 -242.534443 
L 244.593713 -239.279049 
L 244.605081 -236.023655 
L 244.611004 -232.768261 
L 244.61225 -229.512867 
L 244.610573 -226.257474 
L 244.608573 -223.00208 
L 244.609463 -219.746686 
L 244.616749 -216.491292 
L 244.633858 -213.235898 
L 244.663768 -209.980504 
L 244.708665 -206.725111 
L 244.769682 -203.469717 
L 244.846755 -200.214323 
L 244.93861 -196.958929 
L 245.042908 -193.703535 
L 245.156527 -190.448141 
L 245.275964 -187.192747 
L 245.397806 -183.937354 
L 245.519211 -180.68196 
L 245.638337 -177.426566 
L 245.75465 -174.171172 
L 245.869074 -170.915778 
L 245.983952 -167.660384 
L 246.102835 -164.40499 
L 246.230137 -161.149597 
L 246.370734 -157.894203 
L 246.529575 -154.638809 
L 246.711418 -151.383415 
L 246.920738 -148.128021 
L 247.161867 -144.872627 
L 247.439382 -141.617234 
L 247.758705 -138.36184 
L 248.126858 -135.106446 
L 248.55328 -131.851052 
L 249.050576 -128.595658 
L 249.635052 -125.340264 
L 250.326869 -122.08487 
L 251.149636 -118.829477 
L 252.129278 -115.574083 
L 253.292044 -112.318689 
L 254.661599 -109.063295 
L 256.255266 -105.807901 
L 258.079655 -102.552507 
L 260.126102 -99.297113 
L 262.366519 -96.04172 
L 264.750428 -92.786326 
L 267.203923 -89.530932 
L 269.631252 -86.275538 
L 271.919395 -83.020144 
L 273.945616 -79.76475 
L 275.587451 -76.509357 
L 276.734123 -73.253963 
L 277.297952 -69.998569 
L 277.22419 -66.743175 
L 276.497802 -63.487781 
z
" style="stroke: #000000; stroke-opacity: 0.4"/>
    </defs>
    <g clip-path="url(#pd8b29fd5f5)">
     <use xlink:href="#m4e78e40647" x="0" y="432" style="fill: #3b528b; fill-opacity: 0.4; stroke: #000000; stroke-opacity: 0.4"/>
    </g>
   </g>
   <g id="PolyCollection_3">
    <defs>
     <path id="m21c70a6cbe" d="M 408.749285 -63.487781 
L 344.721989 -63.487781 
L 344.055191 -65.624133 
L 343.677318 -67.760486 
L 343.589742 -69.896838 
L 343.784998 -72.03319 
L 344.24746 -74.169542 
L 344.954432 -76.305894 
L 345.877554 -78.442247 
L 346.984414 -80.578599 
L 348.240247 -82.714951 
L 349.609596 -84.851303 
L 351.057831 -86.987655 
L 352.55244 -89.124008 
L 354.064041 -91.26036 
L 355.567061 -93.396712 
L 357.040122 -95.533064 
L 358.466111 -97.669417 
L 359.832023 -99.805769 
L 361.128598 -101.942121 
L 362.349839 -104.078473 
L 363.492461 -106.214825 
L 364.555331 -108.351178 
L 365.538941 -110.48753 
L 366.444955 -112.623882 
L 367.275833 -114.760234 
L 368.034555 -116.896586 
L 368.724435 -119.032939 
L 369.349006 -121.169291 
L 369.911969 -123.305643 
L 370.417178 -125.441995 
L 370.86865 -127.578348 
L 371.270571 -129.7147 
L 371.627299 -131.851052 
L 371.943345 -133.987404 
L 372.22333 -136.123756 
L 372.471919 -138.260109 
L 372.693734 -140.396461 
L 372.893253 -142.532813 
L 373.074705 -144.669165 
L 373.241958 -146.805517 
L 373.398429 -148.94187 
L 373.546998 -151.078222 
L 373.689951 -153.214574 
L 373.828951 -155.350926 
L 373.965031 -157.487279 
L 374.098623 -159.623631 
L 374.229604 -161.759983 
L 374.357378 -163.896335 
L 374.480965 -166.032687 
L 374.59911 -168.16904 
L 374.710401 -170.305392 
L 374.813378 -172.441744 
L 374.906654 -174.578096 
L 374.989007 -176.714448 
L 375.059468 -178.850801 
L 375.117388 -180.987153 
L 375.16248 -183.123505 
L 375.194835 -185.259857 
L 375.214927 -187.39621 
L 375.223575 -189.532562 
L 375.221909 -191.668914 
L 375.211301 -193.805266 
L 375.193296 -195.941618 
L 375.169532 -198.077971 
L 375.141662 -200.214323 
L 375.111282 -202.350675 
L 375.079862 -204.487027 
L 375.048694 -206.623379 
L 375.018854 -208.759732 
L 374.991181 -210.896084 
L 374.966267 -213.032436 
L 374.944468 -215.168788 
L 374.925923 -217.305141 
L 374.910582 -219.441493 
L 374.898245 -221.577845 
L 374.888598 -223.714197 
L 374.881254 -225.850549 
L 374.875791 -227.986902 
L 374.871786 -230.123254 
L 374.868842 -232.259606 
L 374.866619 -234.395958 
L 374.864849 -236.53231 
L 374.863359 -238.668663 
L 374.862078 -240.805015 
L 374.861054 -242.941367 
L 374.860457 -245.077719 
L 374.860585 -247.214072 
L 374.861862 -249.350424 
L 374.864833 -251.486776 
L 374.870153 -253.623128 
L 374.878566 -255.75948 
L 374.890876 -257.895833 
L 374.907914 -260.032185 
L 374.930498 -262.168537 
L 374.959382 -264.304889 
L 374.995213 -266.441241 
L 375.038479 -268.577594 
L 375.089469 -270.713946 
L 375.14824 -272.850298 
L 375.214592 -274.98665 
L 378.256682 -274.98665 
L 378.256682 -274.98665 
L 378.323035 -272.850298 
L 378.381806 -270.713946 
L 378.432796 -268.577594 
L 378.476062 -266.441241 
L 378.511892 -264.304889 
L 378.540777 -262.168537 
L 378.563361 -260.032185 
L 378.580399 -257.895833 
L 378.592709 -255.75948 
L 378.601121 -253.623128 
L 378.606442 -251.486776 
L 378.609413 -249.350424 
L 378.61069 -247.214072 
L 378.610817 -245.077719 
L 378.61022 -242.941367 
L 378.609196 -240.805015 
L 378.607916 -238.668663 
L 378.606425 -236.53231 
L 378.604656 -234.395958 
L 378.602433 -232.259606 
L 378.599489 -230.123254 
L 378.595484 -227.986902 
L 378.590021 -225.850549 
L 378.582677 -223.714197 
L 378.57303 -221.577845 
L 378.560693 -219.441493 
L 378.545352 -217.305141 
L 378.526807 -215.168788 
L 378.505008 -213.032436 
L 378.480094 -210.896084 
L 378.452421 -208.759732 
L 378.422581 -206.623379 
L 378.391413 -204.487027 
L 378.359993 -202.350675 
L 378.329613 -200.214323 
L 378.301743 -198.077971 
L 378.277979 -195.941618 
L 378.259973 -193.805266 
L 378.249365 -191.668914 
L 378.247699 -189.532562 
L 378.256348 -187.39621 
L 378.276439 -185.259857 
L 378.308795 -183.123505 
L 378.353886 -180.987153 
L 378.411806 -178.850801 
L 378.482268 -176.714448 
L 378.56462 -174.578096 
L 378.657896 -172.441744 
L 378.760874 -170.305392 
L 378.872164 -168.16904 
L 378.99031 -166.032687 
L 379.113897 -163.896335 
L 379.241671 -161.759983 
L 379.372652 -159.623631 
L 379.506244 -157.487279 
L 379.642324 -155.350926 
L 379.781324 -153.214574 
L 379.924277 -151.078222 
L 380.072845 -148.94187 
L 380.229316 -146.805517 
L 380.39657 -144.669165 
L 380.578022 -142.532813 
L 380.777541 -140.396461 
L 380.999356 -138.260109 
L 381.247945 -136.123756 
L 381.52793 -133.987404 
L 381.843976 -131.851052 
L 382.200704 -129.7147 
L 382.602625 -127.578348 
L 383.054097 -125.441995 
L 383.559306 -123.305643 
L 384.122269 -121.169291 
L 384.74684 -119.032939 
L 385.43672 -116.896586 
L 386.195442 -114.760234 
L 387.026319 -112.623882 
L 387.932333 -110.48753 
L 388.915944 -108.351178 
L 389.978814 -106.214825 
L 391.121436 -104.078473 
L 392.342677 -101.942121 
L 393.639251 -99.805769 
L 395.005163 -97.669417 
L 396.431153 -95.533064 
L 397.904213 -93.396712 
L 399.407234 -91.26036 
L 400.918834 -89.124008 
L 402.413444 -86.987655 
L 403.861679 -84.851303 
L 405.231027 -82.714951 
L 406.486861 -80.578599 
L 407.593721 -78.442247 
L 408.516843 -76.305894 
L 409.223815 -74.169542 
L 409.686277 -72.03319 
L 409.881533 -69.896838 
L 409.793957 -67.760486 
L 409.416084 -65.624133 
L 408.749285 -63.487781 
z
" style="stroke: #000000; stroke-opacity: 0.4"/>
    </defs>
    <g clip-path="url(#pd8b29fd5f5)">
     <use xlink:href="#m21c70a6cbe" x="0" y="432" style="fill: #21918c; fill-opacity: 0.4; stroke: #000000; stroke-opacity: 0.4"/>
    </g>
   </g>
   <g id="PolyCollection_4">
    <defs>
     <path id="med9821d281" d="M 542.122384 -63.487781 
L 476.516053 -63.487781 
L 476.173323 -65.420671 
L 476.436906 -67.353561 
L 477.284583 -69.286451 
L 478.662607 -71.219341 
L 480.491081 -73.152232 
L 482.671422 -75.085122 
L 485.094941 -77.018012 
L 487.65151 -78.950902 
L 490.237396 -80.883792 
L 492.761523 -82.816682 
L 495.149746 -84.749572 
L 497.347005 -86.682462 
L 499.317489 -88.615352 
L 501.043193 -90.548242 
L 502.521297 -92.481133 
L 503.760901 -94.414023 
L 504.779565 -96.346913 
L 505.600028 -98.279803 
L 506.247386 -100.212693 
L 506.746881 -102.145583 
L 507.122334 -104.078473 
L 507.395215 -106.011363 
L 507.584243 -107.944253 
L 507.705397 -109.877143 
L 507.772206 -111.810034 
L 507.796178 -113.742924 
L 507.787266 -115.675814 
L 507.754272 -117.608704 
L 507.705147 -119.541594 
L 507.647154 -121.474484 
L 507.586899 -123.407374 
L 507.53027 -125.340264 
L 507.482309 -127.273154 
L 507.447079 -129.206044 
L 507.427557 -131.138935 
L 507.425586 -133.071825 
L 507.441908 -135.004715 
L 507.476267 -136.937605 
L 507.527576 -138.870495 
L 507.594124 -140.803385 
L 507.673785 -142.736275 
L 507.764224 -144.669165 
L 507.863053 -146.602055 
L 507.967952 -148.534945 
L 508.076742 -150.467836 
L 508.187408 -152.400726 
L 508.298102 -154.333616 
L 508.40713 -156.266506 
L 508.512932 -158.199396 
L 508.614073 -160.132286 
L 508.709243 -162.065176 
L 508.79727 -163.998066 
L 508.877136 -165.930956 
L 508.948003 -167.863846 
L 509.009229 -169.796737 
L 509.060378 -171.729627 
L 509.101223 -173.662517 
L 509.131745 -175.595407 
L 509.152127 -177.528297 
L 509.162748 -179.461187 
L 509.16418 -181.394077 
L 509.157201 -183.326967 
L 509.142796 -185.259857 
L 509.122166 -187.192747 
L 509.096728 -189.125638 
L 509.068098 -191.058528 
L 509.038047 -192.991418 
L 509.008435 -194.924308 
L 508.981121 -196.857198 
L 508.957846 -198.790088 
L 508.940118 -200.722978 
L 508.929094 -202.655868 
L 508.925483 -204.588758 
L 508.929483 -206.521648 
L 508.940754 -208.454539 
L 508.958442 -210.387429 
L 508.981237 -212.320319 
L 509.007461 -214.253209 
L 509.03519 -216.186099 
L 509.062364 -218.118989 
L 509.086912 -220.051879 
L 509.10685 -221.984769 
L 509.120377 -223.917659 
L 509.125947 -225.850549 
L 509.122337 -227.783439 
L 509.108712 -229.71633 
L 509.084676 -231.64922 
L 509.050342 -233.58211 
L 509.006375 -235.515 
L 508.954033 -237.44789 
L 508.895174 -239.38078 
L 508.832218 -241.31367 
L 508.768059 -243.24656 
L 508.70592 -245.17945 
L 508.649153 -247.11234 
L 508.600999 -249.045231 
L 508.564338 -250.978121 
L 508.54144 -252.911011 
L 508.533775 -254.843901 
L 510.104662 -254.843901 
L 510.104662 -254.843901 
L 510.096996 -252.911011 
L 510.074099 -250.978121 
L 510.037437 -249.045231 
L 509.989284 -247.11234 
L 509.932517 -245.17945 
L 509.870378 -243.24656 
L 509.806219 -241.31367 
L 509.743262 -239.38078 
L 509.684403 -237.44789 
L 509.632062 -235.515 
L 509.588095 -233.58211 
L 509.55376 -231.64922 
L 509.529725 -229.71633 
L 509.516099 -227.783439 
L 509.51249 -225.850549 
L 509.51806 -223.917659 
L 509.531586 -221.984769 
L 509.551524 -220.051879 
L 509.576072 -218.118989 
L 509.603246 -216.186099 
L 509.630975 -214.253209 
L 509.6572 -212.320319 
L 509.679994 -210.387429 
L 509.697682 -208.454539 
L 509.708954 -206.521648 
L 509.712953 -204.588758 
L 509.709342 -202.655868 
L 509.698318 -200.722978 
L 509.680591 -198.790088 
L 509.657316 -196.857198 
L 509.630001 -194.924308 
L 509.600389 -192.991418 
L 509.570338 -191.058528 
L 509.541708 -189.125638 
L 509.516271 -187.192747 
L 509.495641 -185.259857 
L 509.481235 -183.326967 
L 509.474256 -181.394077 
L 509.475689 -179.461187 
L 509.486309 -177.528297 
L 509.506691 -175.595407 
L 509.537214 -173.662517 
L 509.578059 -171.729627 
L 509.629207 -169.796737 
L 509.690433 -167.863846 
L 509.761301 -165.930956 
L 509.841167 -163.998066 
L 509.929193 -162.065176 
L 510.024363 -160.132286 
L 510.125504 -158.199396 
L 510.231307 -156.266506 
L 510.340335 -154.333616 
L 510.451029 -152.400726 
L 510.561694 -150.467836 
L 510.670484 -148.534945 
L 510.775384 -146.602055 
L 510.874213 -144.669165 
L 510.964651 -142.736275 
L 511.044312 -140.803385 
L 511.11086 -138.870495 
L 511.162169 -136.937605 
L 511.196528 -135.004715 
L 511.21285 -133.071825 
L 511.21088 -131.138935 
L 511.191357 -129.206044 
L 511.156128 -127.273154 
L 511.108166 -125.340264 
L 511.051537 -123.407374 
L 510.991282 -121.474484 
L 510.933289 -119.541594 
L 510.884165 -117.608704 
L 510.851171 -115.675814 
L 510.842258 -113.742924 
L 510.86623 -111.810034 
L 510.933039 -109.877143 
L 511.054193 -107.944253 
L 511.243222 -106.011363 
L 511.516103 -104.078473 
L 511.891556 -102.145583 
L 512.39105 -100.212693 
L 513.038409 -98.279803 
L 513.858871 -96.346913 
L 514.877535 -94.414023 
L 516.11714 -92.481133 
L 517.595244 -90.548242 
L 519.320947 -88.615352 
L 521.291432 -86.682462 
L 523.48869 -84.749572 
L 525.876914 -82.816682 
L 528.40104 -80.883792 
L 530.986926 -78.950902 
L 533.543495 -77.018012 
L 535.967014 -75.085122 
L 538.147356 -73.152232 
L 539.97583 -71.219341 
L 541.353854 -69.286451 
L 542.201531 -67.353561 
L 542.465113 -65.420671 
L 542.122384 -63.487781 
z
" style="stroke: #000000; stroke-opacity: 0.4"/>
    </defs>
    <g clip-path="url(#pd8b29fd5f5)">
     <use xlink:href="#med9821d281" x="0" y="432" style="fill: #5ec962; fill-opacity: 0.4; stroke: #000000; stroke-opacity: 0.4"/>
    </g>
   </g>
   <g id="PolyCollection_5">
    <defs>
     <path id="m9a9c07fe24" d="M 673.772322 -63.487781 
L 610.033276 -63.487781 
L 609.126187 -65.624133 
L 608.756904 -67.760486 
L 608.91969 -69.896838 
L 609.57936 -72.03319 
L 610.676026 -74.169542 
L 612.131964 -76.305894 
L 613.859601 -78.442247 
L 615.769526 -80.578599 
L 617.777544 -82.714951 
L 619.810052 -84.851303 
L 621.80734 -86.987655 
L 623.724794 -89.124008 
L 625.532274 -91.26036 
L 627.212165 -93.396712 
L 628.756666 -95.533064 
L 630.16489 -97.669417 
L 631.440214 -99.805769 
L 632.588168 -101.942121 
L 633.614991 -104.078473 
L 634.526825 -106.214825 
L 635.329431 -108.351178 
L 636.028254 -110.48753 
L 636.62868 -112.623882 
L 637.136328 -114.760234 
L 637.557295 -116.896586 
L 637.898307 -119.032939 
L 638.166757 -121.169291 
L 638.370654 -123.305643 
L 638.518495 -125.441995 
L 638.619087 -127.578348 
L 638.681336 -129.7147 
L 638.714019 -131.851052 
L 638.725547 -133.987404 
L 638.723741 -136.123756 
L 638.71562 -138.260109 
L 638.707241 -140.396461 
L 638.703577 -142.532813 
L 638.708474 -144.669165 
L 638.724651 -146.805517 
L 638.75377 -148.94187 
L 638.796543 -151.078222 
L 638.852857 -153.214574 
L 638.921913 -155.350926 
L 639.002367 -157.487279 
L 639.092454 -159.623631 
L 639.190121 -161.759983 
L 639.293157 -163.896335 
L 639.399329 -166.032687 
L 639.506525 -168.16904 
L 639.612894 -170.305392 
L 639.716966 -172.441744 
L 639.817737 -174.578096 
L 639.91471 -176.714448 
L 640.007863 -178.850801 
L 640.09758 -180.987153 
L 640.184531 -183.123505 
L 640.269526 -185.259857 
L 640.353388 -187.39621 
L 640.436836 -189.532562 
L 640.520415 -191.668914 
L 640.604465 -193.805266 
L 640.689126 -195.941618 
L 640.77436 -198.077971 
L 640.859984 -200.214323 
L 640.945697 -202.350675 
L 641.031092 -204.487027 
L 641.115658 -206.623379 
L 641.198785 -208.759732 
L 641.27976 -210.896084 
L 641.357792 -213.032436 
L 641.432039 -215.168788 
L 641.501663 -217.305141 
L 641.565886 -219.441493 
L 641.62405 -221.577845 
L 641.675662 -223.714197 
L 641.720429 -225.850549 
L 641.758252 -227.986902 
L 641.789207 -230.123254 
L 641.813504 -232.259606 
L 641.831427 -234.395958 
L 641.843274 -236.53231 
L 641.849307 -238.668663 
L 641.849711 -240.805015 
L 641.844586 -242.941367 
L 641.833959 -245.077719 
L 641.817827 -247.214072 
L 641.796222 -249.350424 
L 641.769293 -251.486776 
L 641.737393 -253.623128 
L 641.701158 -255.75948 
L 641.661561 -257.895833 
L 641.619932 -260.032185 
L 641.577932 -262.168537 
L 641.537479 -264.304889 
L 641.500621 -266.441241 
L 641.469383 -268.577594 
L 641.445588 -270.713946 
L 641.430687 -272.850298 
L 641.425614 -274.98665 
L 642.379984 -274.98665 
L 642.379984 -274.98665 
L 642.374912 -272.850298 
L 642.36001 -270.713946 
L 642.336215 -268.577594 
L 642.304977 -266.441241 
L 642.268119 -264.304889 
L 642.227666 -262.168537 
L 642.185667 -260.032185 
L 642.144037 -257.895833 
L 642.10444 -255.75948 
L 642.068205 -253.623128 
L 642.036305 -251.486776 
L 642.009376 -249.350424 
L 641.987771 -247.214072 
L 641.971639 -245.077719 
L 641.961012 -242.941367 
L 641.955887 -240.805015 
L 641.956291 -238.668663 
L 641.962324 -236.53231 
L 641.974171 -234.395958 
L 641.992094 -232.259606 
L 642.016391 -230.123254 
L 642.047347 -227.986902 
L 642.085169 -225.850549 
L 642.129936 -223.714197 
L 642.181549 -221.577845 
L 642.239712 -219.441493 
L 642.303935 -217.305141 
L 642.373559 -215.168788 
L 642.447806 -213.032436 
L 642.525838 -210.896084 
L 642.606814 -208.759732 
L 642.68994 -206.623379 
L 642.774506 -204.487027 
L 642.859901 -202.350675 
L 642.945614 -200.214323 
L 643.031238 -198.077971 
L 643.116472 -195.941618 
L 643.201133 -193.805266 
L 643.285183 -191.668914 
L 643.368762 -189.532562 
L 643.45221 -187.39621 
L 643.536072 -185.259857 
L 643.621067 -183.123505 
L 643.708018 -180.987153 
L 643.797736 -178.850801 
L 643.890889 -176.714448 
L 643.987861 -174.578096 
L 644.088633 -172.441744 
L 644.192704 -170.305392 
L 644.299073 -168.16904 
L 644.40627 -166.032687 
L 644.512441 -163.896335 
L 644.615477 -161.759983 
L 644.713144 -159.623631 
L 644.803231 -157.487279 
L 644.883685 -155.350926 
L 644.952742 -153.214574 
L 645.009055 -151.078222 
L 645.051828 -148.94187 
L 645.080947 -146.805517 
L 645.097124 -144.669165 
L 645.102021 -142.532813 
L 645.098358 -140.396461 
L 645.089978 -138.260109 
L 645.081857 -136.123756 
L 645.080051 -133.987404 
L 645.09158 -131.851052 
L 645.124262 -129.7147 
L 645.186511 -127.578348 
L 645.287103 -125.441995 
L 645.434944 -123.305643 
L 645.638841 -121.169291 
L 645.907291 -119.032939 
L 646.248303 -116.896586 
L 646.66927 -114.760234 
L 647.176918 -112.623882 
L 647.777344 -110.48753 
L 648.476168 -108.351178 
L 649.278773 -106.214825 
L 650.190607 -104.078473 
L 651.21743 -101.942121 
L 652.365384 -99.805769 
L 653.640708 -97.669417 
L 655.048932 -95.533064 
L 656.593433 -93.396712 
L 658.273324 -91.26036 
L 660.080804 -89.124008 
L 661.998258 -86.987655 
L 663.995546 -84.851303 
L 666.028054 -82.714951 
L 668.036072 -80.578599 
L 669.945997 -78.442247 
L 671.673635 -76.305894 
L 673.129572 -74.169542 
L 674.226238 -72.03319 
L 674.885908 -69.896838 
L 675.048694 -67.760486 
L 674.679411 -65.624133 
L 673.772322 -63.487781 
z
" style="stroke: #000000; stroke-opacity: 0.4"/>
    </defs>
    <g clip-path="url(#pd8b29fd5f5)">
     <use xlink:href="#m9a9c07fe24" x="0" y="432" style="fill: #fde725; fill-opacity: 0.4; stroke: #000000; stroke-opacity: 0.4"/>
    </g>
   </g>
   <g id="matplotlib.axis_1">
    <g id="xtick_1">
     <g id="line2d_1">
      <defs>
       <path id="m3a2ddc7f13" d="M 0 0 
L 0 3.5 
" style="stroke: #000000; stroke-width: 0.8"/>
      </defs>
      <g>
       <use xlink:href="#m3a2ddc7f13" x="111.568476" y="384.626418" style="stroke: #000000; stroke-width: 0.8"/>
      </g>
     </g>
     <g id="text_1">
      <!-- Borda rule -->
      <g transform="translate(86.043292 399.236765) scale(0.11 -0.11)">
       <defs>
        <path id="CMR17-42" d="M 333 4352 
L 333 4186 
C 774 4186 845 4186 845 3900 
L 845 452 
C 845 166 774 166 333 166 
L 333 0 
L 2534 0 
C 3354 0 3885 583 3885 1164 
C 3885 1741 3360 2233 2675 2233 
C 3290 2356 3718 2771 3718 3264 
C 3718 3802 3194 4352 2368 4352 
L 333 4352 
z
M 1248 2304 
L 1248 3937 
C 1248 4155 1261 4186 1517 4186 
L 2336 4186 
C 2970 4186 3251 3674 3251 3277 
C 3251 2791 2861 2304 2170 2304 
L 1248 2304 
z
M 1517 166 
C 1261 166 1248 197 1248 413 
L 1248 2202 
L 2432 2202 
C 3091 2202 3411 1625 3411 1162 
C 3411 699 3046 166 2349 166 
L 1517 166 
z
" transform="scale(0.015625)"/>
        <path id="CMR17-6f" d="M 2758 1356 
C 2758 2176 2163 2816 1466 2816 
C 768 2816 173 2176 173 1356 
C 173 551 768 -64 1466 -64 
C 2163 -64 2758 551 2758 1356 
z
M 1466 51 
C 1165 51 909 230 762 480 
C 602 767 582 1126 582 1408 
C 582 1677 595 2010 762 2298 
C 890 2509 1139 2714 1466 2714 
C 1754 2714 1997 2554 2150 2330 
C 2349 2029 2349 1607 2349 1408 
C 2349 1158 2336 775 2163 467 
C 1984 173 1709 51 1466 51 
z
" transform="scale(0.015625)"/>
        <path id="CMR17-72" d="M 960 1497 
C 960 2112 1222 2688 1702 2688 
C 1747 2688 1792 2682 1837 2662 
C 1837 2662 1696 2617 1696 2452 
C 1696 2298 1818 2234 1914 2234 
C 1990 2234 2131 2279 2131 2458 
C 2131 2663 1926 2790 1709 2790 
C 1222 2790 1011 2317 947 2093 
L 941 2093 
L 941 2790 
L 198 2720 
L 198 2554 
C 576 2554 634 2515 634 2208 
L 634 428 
C 634 184 608 153 198 153 
L 198 -13 
C 352 0 646 0 813 0 
C 998 0 1325 0 1498 -13 
L 1498 153 
C 1037 153 960 153 960 440 
L 960 1497 
z
" transform="scale(0.015625)"/>
        <path id="CMR17-64" d="M 1869 4326 
L 1869 4160 
C 2246 4160 2304 4122 2304 3820 
L 2304 2345 
C 2278 2377 2016 2790 1498 2790 
C 845 2790 211 2208 211 1364 
C 211 525 806 -64 1434 -64 
C 1978 -64 2259 337 2291 380 
L 2291 -63 
L 3066 -63 
L 3066 128 
C 2688 128 2630 166 2630 473 
L 2630 4396 
L 1869 4326 
z
M 2291 755 
C 2291 563 2176 390 2029 262 
C 1811 70 1594 38 1472 38 
C 1286 38 621 134 621 1356 
C 621 2612 1363 2688 1530 2688 
C 1824 2688 2061 2522 2208 2291 
C 2291 2157 2291 2138 2291 2023 
L 2291 755 
z
" transform="scale(0.015625)"/>
        <path id="CMR17-61" d="M 2304 1653 
C 2304 2072 2304 2294 2035 2543 
C 1798 2752 1523 2816 1306 2816 
C 800 2816 435 2407 435 1971 
C 435 1728 627 1728 666 1728 
C 749 1728 896 1778 896 1954 
C 896 2112 774 2181 666 2181 
C 640 2181 608 2174 589 2168 
C 723 2592 1069 2714 1293 2714 
C 1613 2714 1965 2429 1965 1885 
L 1965 1600 
C 1587 1600 1133 1549 774 1357 
C 371 1133 256 813 256 570 
C 256 77 832 -64 1171 -64 
C 1523 -64 1850 139 1990 511 
C 2003 233 2182 -18 2464 -18 
C 2598 -18 2938 70 2938 567 
L 2938 920 
L 2822 920 
L 2822 562 
C 2822 178 2650 128 2566 128 
C 2304 128 2304 458 2304 738 
L 2304 1653 
z
M 1965 870 
C 1965 317 1568 38 1216 38 
C 896 38 646 275 646 570 
C 646 761 730 1100 1101 1305 
C 1408 1478 1760 1504 1965 1504 
L 1965 870 
z
" transform="scale(0.015625)"/>
        <path id="CMR17-75" d="M 1882 2693 
L 1882 2528 
C 2259 2528 2317 2489 2317 2186 
L 2317 1032 
C 2317 500 2029 38 1555 38 
C 1030 38 986 348 986 678 
L 986 2763 
L 211 2693 
L 211 2528 
C 467 2528 640 2528 646 2274 
L 646 1058 
C 646 633 646 361 813 183 
C 896 101 1056 -64 1517 -64 
C 2061 -64 2272 377 2323 506 
L 2330 506 
L 2330 -63 
L 3091 -63 
L 3091 128 
C 2714 128 2656 166 2656 473 
L 2656 2763 
L 1882 2693 
z
" transform="scale(0.015625)"/>
        <path id="CMR17-6c" d="M 979 4396 
L 218 4326 
L 218 4160 
C 595 4160 653 4122 653 3817 
L 653 426 
C 653 184 627 153 218 153 
L 218 -13 
C 371 0 653 0 813 0 
C 979 0 1261 0 1414 -13 
L 1414 153 
C 1005 153 979 178 979 426 
L 979 4396 
z
" transform="scale(0.015625)"/>
        <path id="CMR17-65" d="M 2438 1472 
C 2464 1498 2464 1511 2464 1576 
C 2464 2238 2118 2816 1389 2816 
C 710 2816 173 2169 173 1383 
C 173 551 781 -64 1459 -64 
C 2176 -64 2458 607 2458 740 
C 2458 784 2419 784 2406 784 
C 2362 784 2355 771 2330 696 
C 2189 265 1837 51 1504 51 
C 1229 51 954 203 781 480 
C 582 803 582 1176 582 1472 
L 2438 1472 
z
M 589 1568 
C 634 2505 1126 2714 1382 2714 
C 1818 2714 2112 2297 2118 1568 
L 589 1568 
z
" transform="scale(0.015625)"/>
       </defs>
       <use xlink:href="#CMR17-42" transform="scale(0.996264)"/>
       <use xlink:href="#CMR17-6f" transform="translate(65.188754 0) scale(0.996264)"/>
       <use xlink:href="#CMR17-72" transform="translate(110.879232 0) scale(0.996264)"/>
       <use xlink:href="#CMR17-64" transform="translate(146.159999 0) scale(0.996264)"/>
       <use xlink:href="#CMR17-61" transform="translate(197.055369 0) scale(0.996264)"/>
       <use xlink:href="#CMR17-72" transform="translate(272.821813 0) scale(0.996264)"/>
       <use xlink:href="#CMR17-75" transform="translate(308.10258 0) scale(0.996264)"/>
       <use xlink:href="#CMR17-6c" transform="translate(358.99795 0) scale(0.996264)"/>
       <use xlink:href="#CMR17-65" transform="translate(383.869009 0) scale(0.996264)"/>
      </g>
     </g>
    </g>
    <g id="xtick_2">
     <g id="line2d_2">
      <g>
       <use xlink:href="#m3a2ddc7f13" x="244.152056" y="384.626418" style="stroke: #000000; stroke-width: 0.8"/>
      </g>
     </g>
     <g id="text_2">
      <!-- Copeland's Rule -->
      <g transform="translate(204.928228 399.236765) scale(0.11 -0.11)">
       <defs>
        <path id="CMR17-43" d="M 3974 4289 
C 3974 4403 3968 4410 3930 4410 
C 3904 4410 3898 4403 3853 4327 
L 3571 3792 
C 3258 4187 2874 4416 2381 4416 
C 1286 4416 294 3456 294 2148 
C 294 826 1286 -128 2387 -128 
C 3366 -128 3974 730 3974 1461 
C 3974 1524 3974 1550 3917 1550 
C 3866 1550 3866 1531 3859 1474 
C 3808 585 3168 38 2477 38 
C 1824 38 781 495 781 2147 
C 781 3805 1843 4250 2464 4250 
C 3187 4250 3712 3628 3834 2745 
C 3846 2668 3846 2655 3904 2655 
C 3974 2655 3974 2668 3974 2783 
L 3974 4289 
z
" transform="scale(0.015625)"/>
        <path id="CMR17-70" d="M 1408 -1063 
C 998 -1063 973 -1037 973 -789 
L 973 402 
C 1158 134 1427 -38 1766 -38 
C 2406 -38 3053 523 3053 1388 
C 3053 2191 2496 2802 1837 2802 
C 1453 2802 1139 2592 960 2338 
L 960 2802 
L 198 2732 
L 198 2567 
C 576 2567 634 2528 634 2223 
L 634 -789 
C 634 -1031 608 -1063 198 -1063 
L 198 -1228 
C 352 -1216 634 -1216 800 -1216 
C 966 -1216 1254 -1216 1408 -1228 
L 1408 -1063 
z
M 973 2012 
C 973 2102 973 2235 1222 2471 
C 1254 2497 1472 2688 1792 2688 
C 2259 2688 2643 2108 2643 1382 
C 2643 656 2234 64 1728 64 
C 1498 64 1248 172 1056 472 
C 973 612 973 650 973 752 
L 973 2012 
z
" transform="scale(0.015625)"/>
        <path id="CMR17-6e" d="M 2656 1933 
C 2656 2259 2592 2790 1837 2790 
C 1331 2790 1069 2400 973 2144 
L 966 2144 
L 966 2790 
L 211 2720 
L 211 2554 
C 589 2554 646 2515 646 2208 
L 646 428 
C 646 184 621 153 211 153 
L 211 -13 
C 365 0 646 0 813 0 
C 979 0 1267 0 1421 -13 
L 1421 153 
C 1011 153 986 178 986 428 
L 986 1658 
C 986 2247 1344 2688 1792 2688 
C 2266 2688 2317 2266 2317 1958 
L 2317 428 
C 2317 184 2291 153 1882 153 
L 1882 -13 
C 2035 0 2317 0 2483 0 
C 2650 0 2938 0 3091 -13 
L 3091 153 
C 2682 153 2656 178 2656 428 
L 2656 1933 
z
" transform="scale(0.015625)"/>
        <path id="CMR17-27" d="M 1024 4025 
C 1037 3955 1043 3929 1043 3820 
C 1043 3415 883 3042 634 2778 
C 608 2752 595 2733 595 2707 
C 595 2681 621 2656 646 2656 
C 691 2656 1146 3105 1146 3811 
C 1146 3952 1133 4426 800 4426 
C 659 4426 538 4331 538 4165 
C 538 3999 659 3904 800 3904 
C 858 3904 966 3923 1024 4025 
z
" transform="scale(0.015625)"/>
        <path id="CMR17-73" d="M 1978 2697 
C 1978 2813 1971 2819 1933 2819 
C 1907 2819 1901 2813 1824 2717 
C 1805 2691 1747 2626 1728 2601 
C 1523 2819 1235 2819 1126 2819 
C 416 2819 160 2447 160 2076 
C 160 1498 813 1365 998 1325 
C 1402 1243 1542 1217 1677 1101 
C 1760 1025 1901 884 1901 654 
C 1901 384 1747 38 1158 38 
C 602 38 403 460 288 1021 
C 269 1110 269 1117 218 1117 
C 166 1117 160 1110 160 983 
L 160 63 
C 160 -51 166 -58 205 -58 
C 237 -58 243 -51 275 0 
C 314 57 410 211 448 276 
C 576 103 800 -64 1158 -64 
C 1792 -64 2131 283 2131 784 
C 2131 1112 1958 1285 1875 1362 
C 1683 1561 1459 1606 1190 1657 
C 838 1735 390 1825 390 2217 
C 390 2383 480 2737 1126 2737 
C 1811 2737 1850 2094 1862 1888 
C 1869 1856 1901 1849 1920 1849 
C 1978 1849 1978 1869 1978 1978 
L 1978 2697 
z
" transform="scale(0.015625)"/>
        <path id="CMR17-52" d="M 2509 2146 
C 3117 2268 3629 2676 3629 3186 
C 3629 3785 2950 4326 2054 4326 
L 333 4326 
L 333 4160 
C 774 4160 845 4160 845 3873 
L 845 415 
C 845 128 774 128 333 128 
L 333 -26 
C 518 -26 851 -26 1050 -26 
C 1248 -26 1581 -26 1766 -26 
L 1766 128 
C 1325 128 1254 128 1254 417 
L 1254 2112 
L 2003 2112 
C 2368 2112 2573 1964 2662 1881 
C 2918 1632 2918 1459 2918 1024 
C 2918 595 2918 377 3110 160 
C 3354 -102 3680 -128 3821 -128 
C 4294 -128 4365 396 4365 503 
C 4365 540 4365 585 4307 585 
C 4256 585 4250 547 4250 522 
C 4218 112 4032 -26 3834 -26 
C 3482 -26 3443 375 3405 764 
C 3386 898 3373 993 3360 1133 
C 3322 1452 3270 1917 2509 2146 
z
M 1984 2214 
L 1254 2214 
L 1254 3913 
C 1254 4129 1267 4160 1523 4160 
L 1990 4160 
C 2522 4160 3142 3977 3142 3190 
C 3142 2372 2464 2214 1984 2214 
z
" transform="scale(0.015625)"/>
       </defs>
       <use xlink:href="#CMR17-43" transform="scale(0.996264)"/>
       <use xlink:href="#CMR17-6f" transform="translate(66.509881 0) scale(0.996264)"/>
       <use xlink:href="#CMR17-70" transform="translate(112.200358 0) scale(0.996264)"/>
       <use xlink:href="#CMR17-65" transform="translate(165.698166 0) scale(0.996264)"/>
       <use xlink:href="#CMR17-6c" transform="translate(206.183827 0) scale(0.996264)"/>
       <use xlink:href="#CMR17-61" transform="translate(231.054885 0) scale(0.996264)"/>
       <use xlink:href="#CMR17-6e" transform="translate(276.745362 0) scale(0.996264)"/>
       <use xlink:href="#CMR17-64" transform="translate(327.640732 0) scale(0.996264)"/>
       <use xlink:href="#CMR17-27" transform="translate(378.536102 0) scale(0.996264)"/>
       <use xlink:href="#CMR17-73" transform="translate(403.40716 0) scale(0.996264)"/>
       <use xlink:href="#CMR17-52" transform="translate(469.284464 0) scale(0.996264)"/>
       <use xlink:href="#CMR17-75" transform="translate(537.075566 0) scale(0.996264)"/>
       <use xlink:href="#CMR17-6c" transform="translate(587.970936 0) scale(0.996264)"/>
       <use xlink:href="#CMR17-65" transform="translate(612.841994 0) scale(0.996264)"/>
      </g>
     </g>
    </g>
    <g id="xtick_3">
     <g id="line2d_3">
      <g>
       <use xlink:href="#m3a2ddc7f13" x="376.735637" y="384.626418" style="stroke: #000000; stroke-width: 0.8"/>
      </g>
     </g>
     <g id="text_3">
      <!-- Plurality rule -->
      <g transform="translate(344.665554 399.236765) scale(0.11 -0.11)">
       <defs>
        <path id="CMR17-50" d="M 1267 2042 
L 2291 2042 
C 3117 2042 3718 2578 3718 3184 
C 3718 3791 3130 4352 2291 4352 
L 333 4352 
L 333 4186 
C 774 4186 845 4186 845 3899 
L 845 446 
C 845 160 774 160 333 160 
L 333 0 
C 518 0 858 0 1056 0 
C 1254 0 1594 0 1779 0 
L 1779 160 
C 1338 160 1267 160 1267 446 
L 1267 2042 
z
M 1254 2176 
L 1254 3938 
C 1254 4155 1267 4186 1523 4186 
L 2170 4186 
C 2995 4186 3232 3714 3232 3184 
C 3232 2604 2950 2176 2170 2176 
L 1254 2176 
z
" transform="scale(0.015625)"/>
        <path id="CMR17-69" d="M 992 3909 
C 992 4049 877 4170 730 4170 
C 589 4170 467 4056 467 3909 
C 467 3769 582 3648 730 3648 
C 870 3648 992 3763 992 3909 
z
M 243 2706 
L 243 2541 
C 602 2541 653 2502 653 2197 
L 653 427 
C 653 184 627 153 218 153 
L 218 -13 
C 371 0 646 0 806 0 
C 960 0 1222 0 1370 -13 
L 1370 153 
C 992 153 979 191 979 420 
L 979 2776 
L 243 2706 
z
" transform="scale(0.015625)"/>
        <path id="CMR17-74" d="M 966 2560 
L 1862 2560 
L 1862 2725 
L 966 2725 
L 966 3904 
L 851 3904 
C 838 3245 614 2668 70 2668 
L 70 2560 
L 627 2560 
L 627 771 
C 627 650 627 -64 1370 -64 
C 1747 -64 1965 306 1965 777 
L 1965 1140 
L 1850 1140 
L 1850 783 
C 1850 344 1677 51 1408 51 
C 1222 51 966 178 966 758 
L 966 2560 
z
" transform="scale(0.015625)"/>
        <path id="CMR17-79" d="M 2496 2197 
C 2656 2586 2944 2586 3034 2586 
L 3034 2752 
C 2912 2752 2752 2752 2630 2752 
C 2496 2752 2285 2752 2157 2758 
L 2157 2592 
C 2400 2573 2406 2394 2406 2343 
C 2406 2280 2394 2248 2362 2171 
L 1664 449 
L 902 2306 
C 870 2382 870 2426 870 2433 
C 870 2573 1018 2586 1171 2586 
L 1171 2758 
C 1018 2752 742 2752 582 2752 
C 410 2752 205 2752 64 2758 
L 64 2586 
C 410 2586 448 2554 531 2350 
L 1485 15 
C 1197 -738 1030 -1178 627 -1178 
C 557 -1178 397 -1159 282 -1044 
C 429 -1031 493 -942 493 -833 
C 493 -725 416 -629 288 -629 
C 147 -629 77 -725 77 -840 
C 77 -1095 339 -1280 627 -1280 
C 998 -1280 1229 -922 1357 -604 
L 2496 2197 
z
" transform="scale(0.015625)"/>
       </defs>
       <use xlink:href="#CMR17-50" transform="scale(0.996264)"/>
       <use xlink:href="#CMR17-6c" transform="translate(62.586301 0) scale(0.996264)"/>
       <use xlink:href="#CMR17-75" transform="translate(87.457359 0) scale(0.996264)"/>
       <use xlink:href="#CMR17-72" transform="translate(138.352729 0) scale(0.996264)"/>
       <use xlink:href="#CMR17-61" transform="translate(173.633497 0) scale(0.996264)"/>
       <use xlink:href="#CMR17-6c" transform="translate(219.323974 0) scale(0.996264)"/>
       <use xlink:href="#CMR17-69" transform="translate(244.195032 0) scale(0.996264)"/>
       <use xlink:href="#CMR17-74" transform="translate(269.066091 0) scale(0.996264)"/>
       <use xlink:href="#CMR17-79" transform="translate(301.744405 0) scale(0.996264)"/>
       <use xlink:href="#CMR17-72" transform="translate(380.113287 0) scale(0.996264)"/>
       <use xlink:href="#CMR17-75" transform="translate(415.394055 0) scale(0.996264)"/>
       <use xlink:href="#CMR17-6c" transform="translate(466.289424 0) scale(0.996264)"/>
       <use xlink:href="#CMR17-65" transform="translate(491.160483 0) scale(0.996264)"/>
      </g>
     </g>
    </g>
    <g id="xtick_4">
     <g id="line2d_4">
      <g>
       <use xlink:href="#m3a2ddc7f13" x="509.319218" y="384.626418" style="stroke: #000000; stroke-width: 0.8"/>
      </g>
     </g>
     <g id="text_4">
      <!-- Black's Rule -->
      <g transform="translate(479.456153 399.236765) scale(0.11 -0.11)">
       <defs>
        <path id="CMR17-63" d="M 2234 2240 
C 2112 2240 1933 2240 1933 2017 
C 1933 1838 2080 1787 2163 1787 
C 2208 1787 2394 1807 2394 2024 
C 2394 2467 1958 2803 1466 2803 
C 787 2803 211 2178 211 1363 
C 211 516 813 -64 1466 -64 
C 2259 -64 2458 677 2458 748 
C 2458 774 2451 793 2406 793 
C 2362 793 2355 787 2330 703 
C 2163 180 1798 51 1523 51 
C 1114 51 621 427 621 1369 
C 621 2338 1094 2688 1472 2688 
C 1722 2688 2093 2573 2234 2240 
z
" transform="scale(0.015625)"/>
        <path id="CMR17-6b" d="M 1670 1673 
C 1664 1686 1632 1724 1632 1743 
C 1632 1756 2086 2171 2144 2222 
C 2509 2528 2739 2560 2906 2560 
L 2906 2733 
C 2867 2733 2854 2733 2848 2720 
L 2534 2720 
C 2355 2720 2080 2720 1907 2733 
L 1907 2566 
C 1997 2559 2061 2508 2061 2419 
C 2061 2291 1933 2170 1926 2170 
L 960 1289 
L 960 4396 
L 198 4326 
L 198 4160 
C 576 4160 634 4122 634 3817 
L 634 426 
C 634 184 608 153 198 153 
L 198 -13 
C 352 0 634 0 794 0 
C 954 0 1235 0 1389 -13 
L 1389 153 
C 979 153 954 178 954 428 
L 954 1130 
L 1395 1532 
L 2042 574 
C 2118 459 2182 369 2182 286 
C 2182 172 2067 153 1990 153 
L 1990 -13 
C 2144 0 2419 0 2579 0 
C 2694 0 2931 0 3040 0 
L 3040 153 
C 2739 153 2669 210 2477 491 
L 1670 1673 
z
" transform="scale(0.015625)"/>
       </defs>
       <use xlink:href="#CMR17-42" transform="scale(0.996264)"/>
       <use xlink:href="#CMR17-6c" transform="translate(65.188754 0) scale(0.996264)"/>
       <use xlink:href="#CMR17-61" transform="translate(90.059813 0) scale(0.996264)"/>
       <use xlink:href="#CMR17-63" transform="translate(135.75029 0) scale(0.996264)"/>
       <use xlink:href="#CMR17-6b" transform="translate(173.633497 0) scale(0.996264)"/>
       <use xlink:href="#CMR17-27" transform="translate(221.926412 0) scale(0.996264)"/>
       <use xlink:href="#CMR17-73" transform="translate(246.797471 0) scale(0.996264)"/>
       <use xlink:href="#CMR17-52" transform="translate(312.674775 0) scale(0.996264)"/>
       <use xlink:href="#CMR17-75" transform="translate(380.465877 0) scale(0.996264)"/>
       <use xlink:href="#CMR17-6c" transform="translate(431.361247 0) scale(0.996264)"/>
       <use xlink:href="#CMR17-65" transform="translate(456.232305 0) scale(0.996264)"/>
      </g>
     </g>
    </g>
    <g id="xtick_5">
     <g id="line2d_5">
      <g>
       <use xlink:href="#m3a2ddc7f13" x="641.902799" y="384.626418" style="stroke: #000000; stroke-width: 0.8"/>
      </g>
     </g>
     <g id="text_5">
      <!-- Instand-runoff voting -->
      <g transform="translate(591.01988 399.236765) scale(0.11 -0.11)">
       <defs>
        <path id="CMR17-49" d="M 1261 3905 
C 1261 4192 1338 4192 1798 4192 
L 1798 4352 
C 1594 4352 1267 4352 1050 4352 
C 832 4352 506 4352 301 4352 
L 301 4192 
C 762 4192 838 4192 838 3905 
L 838 447 
C 838 160 762 160 301 160 
L 301 0 
C 506 0 832 0 1050 0 
C 1267 0 1594 0 1798 0 
L 1798 160 
C 1338 160 1261 160 1261 447 
L 1261 3905 
z
" transform="scale(0.015625)"/>
        <path id="CMR17-2d" d="M 1632 1216 
L 1632 1496 
L 26 1496 
L 26 1216 
L 1632 1216 
z
" transform="scale(0.015625)"/>
        <path id="CMR17-b" d="M 2554 2560 
L 3283 2560 
L 3283 2725 
L 2541 2725 
L 2541 3494 
C 2541 4022 2810 4352 3085 4352 
C 3168 4352 3264 4327 3328 4282 
C 3277 4269 3142 4225 3142 4067 
C 3142 3901 3270 3850 3360 3850 
C 3450 3850 3578 3901 3578 4067 
C 3578 4308 3347 4454 3091 4454 
C 2842 4454 2637 4333 2477 4181 
C 2330 4390 2086 4454 1837 4454 
C 1338 4454 634 4168 634 3469 
L 634 2725 
L 122 2725 
L 122 2560 
L 634 2560 
L 634 427 
C 634 184 608 153 198 153 
L 198 -13 
C 352 0 634 0 794 0 
C 960 0 1242 0 1395 -13 
L 1395 153 
C 986 153 960 178 960 427 
L 960 2560 
L 2227 2560 
L 2227 427 
C 2227 184 2202 153 1792 153 
L 1792 -13 
C 1946 0 2240 0 2406 0 
C 2592 0 2918 0 3091 -13 
L 3091 153 
C 2630 153 2554 153 2554 439 
L 2554 2560 
z
M 947 2725 
L 947 3469 
C 947 4047 1395 4352 1824 4352 
C 1920 4352 2170 4332 2323 4187 
C 2208 4187 2099 4136 2099 3977 
C 2099 3812 2246 3767 2259 3767 
C 2227 3652 2227 3526 2227 3481 
L 2227 2725 
L 947 2725 
z
" transform="scale(0.015625)"/>
        <path id="CMR17-76" d="M 2502 2163 
C 2560 2304 2662 2560 3034 2560 
L 3034 2726 
C 2912 2726 2752 2726 2630 2726 
C 2496 2726 2285 2726 2157 2732 
L 2157 2566 
C 2317 2553 2406 2477 2406 2311 
C 2406 2253 2406 2240 2368 2151 
L 1664 377 
L 902 2286 
C 864 2369 864 2381 864 2407 
C 864 2560 1075 2560 1171 2560 
L 1171 2732 
C 1018 2726 736 2726 576 2726 
C 403 2726 205 2726 64 2732 
L 64 2560 
C 307 2560 442 2560 518 2362 
L 1446 44 
C 1485 -51 1491 -64 1549 -64 
C 1606 -64 1613 -51 1651 44 
L 2502 2163 
z
" transform="scale(0.015625)"/>
        <path id="CMR17-67" d="M 710 1164 
C 832 1068 1043 960 1299 960 
C 1805 960 2240 1357 2240 1888 
C 2240 2054 2189 2310 1997 2509 
C 2176 2692 2438 2752 2586 2752 
C 2611 2752 2650 2752 2682 2734 
C 2656 2728 2598 2703 2598 2605 
C 2598 2527 2656 2471 2739 2471 
C 2835 2471 2886 2533 2886 2614 
C 2886 2731 2790 2854 2586 2854 
C 2330 2854 2106 2738 1926 2580 
C 1734 2753 1504 2816 1299 2816 
C 794 2816 358 2419 358 1888 
C 358 1522 570 1292 634 1228 
C 442 1004 442 743 442 711 
C 442 545 506 302 723 168 
C 390 85 128 -169 128 -486 
C 128 -943 736 -1280 1466 -1280 
C 2170 -1280 2803 -956 2803 -479 
C 2803 384 1856 384 1363 384 
C 1216 384 954 384 922 391 
C 723 423 589 602 589 826 
C 589 883 589 1024 710 1164 
z
M 1299 1068 
C 736 1068 736 1760 736 1889 
C 736 2016 736 2708 1299 2708 
C 1862 2708 1862 2016 1862 1889 
C 1862 1760 1862 1068 1299 1068 
z
M 1466 -1171 
C 826 -1171 384 -835 384 -486 
C 384 -289 493 -105 634 -4 
C 794 104 858 104 1293 104 
C 1818 104 2547 104 2547 -486 
C 2547 -835 2106 -1171 1466 -1171 
z
" transform="scale(0.015625)"/>
       </defs>
       <use xlink:href="#CMR17-49" transform="scale(0.996264)"/>
       <use xlink:href="#CMR17-6e" transform="translate(32.638409 0) scale(0.996264)"/>
       <use xlink:href="#CMR17-73" transform="translate(83.533779 0) scale(0.996264)"/>
       <use xlink:href="#CMR17-74" transform="translate(119.335117 0) scale(0.996264)"/>
       <use xlink:href="#CMR17-61" transform="translate(154.615884 0) scale(0.996264)"/>
       <use xlink:href="#CMR17-6e" transform="translate(200.306362 0) scale(0.996264)"/>
       <use xlink:href="#CMR17-64" transform="translate(251.201731 0) scale(0.996264)"/>
       <use xlink:href="#CMR17-2d" transform="translate(302.097101 0) scale(0.996264)"/>
       <use xlink:href="#CMR17-72" transform="translate(332.173067 0) scale(0.996264)"/>
       <use xlink:href="#CMR17-75" transform="translate(367.453835 0) scale(0.996264)"/>
       <use xlink:href="#CMR17-6e" transform="translate(418.349205 0) scale(0.996264)"/>
       <use xlink:href="#CMR17-6f" transform="translate(469.244575 0) scale(0.996264)"/>
       <use xlink:href="#CMR17-b" transform="translate(514.935052 0) scale(0.996264)"/>
       <use xlink:href="#CMR17-76" transform="translate(597.355696 0) scale(0.996264)"/>
       <use xlink:href="#CMR17-6f" transform="translate(643.046157 0) scale(0.996264)"/>
       <use xlink:href="#CMR17-74" transform="translate(688.736635 0) scale(0.996264)"/>
       <use xlink:href="#CMR17-69" transform="translate(724.017402 0) scale(0.996264)"/>
       <use xlink:href="#CMR17-6e" transform="translate(748.888461 0) scale(0.996264)"/>
       <use xlink:href="#CMR17-67" transform="translate(799.783831 0) scale(0.996264)"/>
      </g>
     </g>
    </g>
    <g id="text_6">
     <!-- Number of voters -->
     <g transform="translate(328.442607 414.361688) scale(0.13 -0.13)">
      <defs>
       <path id="CMR17-4e" d="M 1312 4250 
C 1267 4320 1261 4320 1139 4320 
L 326 4320 
L 326 4160 
L 448 4160 
C 704 4160 819 4129 838 4122 
L 838 610 
C 838 451 838 153 326 153 
L 326 -13 
C 474 0 742 0 902 0 
C 1062 0 1331 0 1478 -13 
L 1478 153 
C 966 153 966 451 966 610 
L 966 4033 
C 1011 3995 1011 3982 1056 3919 
L 3430 76 
C 3475 0 3494 0 3526 0 
C 3590 0 3590 19 3590 139 
L 3590 3705 
C 3590 3863 3590 4160 4102 4160 
L 4102 4326 
C 3955 4320 3686 4320 3526 4320 
C 3366 4320 3098 4320 2950 4326 
L 2950 4160 
C 3462 4160 3462 3862 3462 3703 
L 3462 763 
L 1312 4250 
z
" transform="scale(0.015625)"/>
       <path id="CMR17-6d" d="M 4326 1933 
C 4326 2252 4269 2790 3507 2790 
C 3072 2790 2771 2496 2656 2151 
L 2650 2151 
C 2573 2676 2195 2790 1837 2790 
C 1331 2790 1069 2400 973 2144 
L 966 2144 
L 966 2790 
L 211 2720 
L 211 2554 
C 589 2554 646 2515 646 2208 
L 646 428 
C 646 184 621 153 211 153 
L 211 -13 
C 365 0 646 0 813 0 
C 979 0 1267 0 1421 -13 
L 1421 153 
C 1011 153 986 178 986 428 
L 986 1658 
C 986 2247 1344 2688 1792 2688 
C 2266 2688 2317 2266 2317 1958 
L 2317 428 
C 2317 184 2291 153 1882 153 
L 1882 -13 
C 2035 0 2317 0 2483 0 
C 2650 0 2938 0 3091 -13 
L 3091 153 
C 2682 153 2656 178 2656 428 
L 2656 1658 
C 2656 2247 3014 2688 3462 2688 
C 3936 2688 3987 2266 3987 1958 
L 3987 428 
C 3987 184 3962 153 3552 153 
L 3552 -13 
C 3706 0 3987 0 4154 0 
C 4320 0 4608 0 4762 -13 
L 4762 153 
C 4352 153 4326 178 4326 428 
L 4326 1933 
z
" transform="scale(0.015625)"/>
       <path id="CMR17-62" d="M 960 4396 
L 198 4326 
L 198 4160 
C 576 4160 634 4122 634 3817 
L 634 -13 
L 749 -13 
L 934 441 
C 1120 141 1395 -64 1766 -64 
C 2406 -64 3053 500 3053 1370 
C 3053 2188 2477 2790 1830 2790 
C 1434 2790 1152 2579 960 2330 
L 960 4396 
z
M 973 2004 
C 973 2118 973 2138 1062 2272 
C 1312 2657 1670 2688 1792 2688 
C 1984 2688 2643 2585 2643 1376 
C 2643 108 1888 38 1734 38 
C 1536 38 1248 114 1043 486 
C 973 608 973 621 973 735 
L 973 2004 
z
" transform="scale(0.015625)"/>
       <path id="CMR17-66" d="M 979 2560 
L 1709 2560 
L 1709 2725 
L 966 2725 
L 966 3494 
C 966 4022 1235 4352 1510 4352 
C 1594 4352 1690 4327 1754 4282 
C 1702 4269 1568 4225 1568 4067 
C 1568 3901 1696 3850 1786 3850 
C 1875 3850 2003 3901 2003 4067 
C 2003 4308 1773 4454 1517 4454 
C 1152 4454 653 4156 653 3481 
L 653 2725 
L 141 2725 
L 141 2560 
L 653 2560 
L 653 427 
C 653 184 627 153 218 153 
L 218 -13 
C 371 0 666 0 832 0 
C 1018 0 1344 0 1517 -13 
L 1517 153 
C 1056 153 979 153 979 439 
L 979 2560 
z
" transform="scale(0.015625)"/>
      </defs>
      <use xlink:href="#CMR17-4e" transform="scale(0.996264)"/>
      <use xlink:href="#CMR17-75" transform="translate(69.07243 0) scale(0.996264)"/>
      <use xlink:href="#CMR17-6d" transform="translate(119.9678 0) scale(0.996264)"/>
      <use xlink:href="#CMR17-62" transform="translate(194.284936 0) scale(0.996264)"/>
      <use xlink:href="#CMR17-65" transform="translate(247.782744 0) scale(0.996264)"/>
      <use xlink:href="#CMR17-72" transform="translate(288.268404 0) scale(0.996264)"/>
      <use xlink:href="#CMR17-6f" transform="translate(353.625139 0) scale(0.996264)"/>
      <use xlink:href="#CMR17-66" transform="translate(399.315616 0) scale(0.996264)"/>
      <use xlink:href="#CMR17-76" transform="translate(456.865095 0) scale(0.996264)"/>
      <use xlink:href="#CMR17-6f" transform="translate(502.555556 0) scale(0.996264)"/>
      <use xlink:href="#CMR17-74" transform="translate(548.246034 0) scale(0.996264)"/>
      <use xlink:href="#CMR17-65" transform="translate(583.526801 0) scale(0.996264)"/>
      <use xlink:href="#CMR17-72" transform="translate(624.012462 0) scale(0.996264)"/>
      <use xlink:href="#CMR17-73" transform="translate(659.29323 0) scale(0.996264)"/>
     </g>
    </g>
   </g>
   <g id="matplotlib.axis_2">
    <g id="ytick_1">
     <g id="line2d_6">
      <path d="M 48.591275 378.583594 
L 704.88 378.583594 
" clip-path="url(#pd8b29fd5f5)" style="fill: none; stroke: #b0b0b0; stroke-opacity: 0.3; stroke-linecap: square"/>
     </g>
     <g id="line2d_7">
      <defs>
       <path id="mb555a7300c" d="M 0 0 
L -3.5 0 
" style="stroke: #000000; stroke-width: 0.8"/>
      </defs>
      <g>
       <use xlink:href="#mb555a7300c" x="48.591275" y="378.583594" style="stroke: #000000; stroke-width: 0.8"/>
      </g>
     </g>
     <g id="text_7">
      <!-- $\mathdefault{0}$ -->
      <g transform="translate(36.111807 382.388767) scale(0.11 -0.11)">
       <defs>
        <path id="CMR17-30" d="M 2688 2025 
C 2688 2416 2682 3080 2413 3591 
C 2176 4039 1798 4198 1466 4198 
C 1158 4198 768 4058 525 3597 
C 269 3118 243 2524 243 2025 
C 243 1661 250 1106 448 619 
C 723 -39 1216 -128 1466 -128 
C 1760 -128 2208 -7 2470 600 
C 2662 1042 2688 1559 2688 2025 
z
M 1466 -26 
C 1056 -26 813 325 723 812 
C 653 1188 653 1738 653 2096 
C 653 2588 653 2997 736 3387 
C 858 3929 1216 4096 1466 4096 
C 1728 4096 2067 3923 2189 3400 
C 2272 3036 2278 2607 2278 2096 
C 2278 1680 2278 1169 2202 792 
C 2067 95 1690 -26 1466 -26 
z
" transform="scale(0.015625)"/>
       </defs>
       <use xlink:href="#CMR17-30" transform="scale(0.996264)"/>
      </g>
     </g>
    </g>
    <g id="ytick_2">
     <g id="line2d_8">
      <path d="M 48.591275 328.22672 
L 704.88 328.22672 
" clip-path="url(#pd8b29fd5f5)" style="fill: none; stroke: #b0b0b0; stroke-opacity: 0.3; stroke-linecap: square"/>
     </g>
     <g id="line2d_9">
      <g>
       <use xlink:href="#mb555a7300c" x="48.591275" y="328.22672" style="stroke: #000000; stroke-width: 0.8"/>
      </g>
     </g>
     <g id="text_8">
      <!-- $\mathdefault{5}$ -->
      <g transform="translate(36.111807 332.031893) scale(0.11 -0.11)">
       <defs>
        <path id="CMR17-35" d="M 730 3692 
C 794 3666 1056 3584 1325 3584 
C 1920 3584 2246 3911 2432 4100 
C 2432 4157 2432 4192 2394 4192 
C 2387 4192 2374 4192 2323 4163 
C 2099 4058 1837 3973 1517 3973 
C 1325 3973 1037 3999 723 4139 
C 653 4171 640 4171 634 4171 
C 602 4171 595 4164 595 4037 
L 595 2203 
C 595 2089 595 2057 659 2057 
C 691 2057 704 2070 736 2114 
C 941 2401 1222 2522 1542 2522 
C 1766 2522 2246 2382 2246 1289 
C 2246 1085 2246 715 2054 421 
C 1894 159 1645 25 1370 25 
C 947 25 518 320 403 814 
C 429 807 480 795 506 795 
C 589 795 749 840 749 1038 
C 749 1210 627 1280 506 1280 
C 358 1280 262 1190 262 1011 
C 262 454 704 -128 1382 -128 
C 2042 -128 2669 440 2669 1264 
C 2669 2030 2170 2624 1549 2624 
C 1222 2624 947 2503 730 2274 
L 730 3692 
z
" transform="scale(0.015625)"/>
       </defs>
       <use xlink:href="#CMR17-35" transform="scale(0.996264)"/>
      </g>
     </g>
    </g>
    <g id="ytick_3">
     <g id="line2d_10">
      <path d="M 48.591275 277.869846 
L 704.88 277.869846 
" clip-path="url(#pd8b29fd5f5)" style="fill: none; stroke: #b0b0b0; stroke-opacity: 0.3; stroke-linecap: square"/>
     </g>
     <g id="line2d_11">
      <g>
       <use xlink:href="#mb555a7300c" x="48.591275" y="277.869846" style="stroke: #000000; stroke-width: 0.8"/>
      </g>
     </g>
     <g id="text_9">
      <!-- $\mathdefault{10}$ -->
      <g transform="translate(30.63234 281.67502) scale(0.11 -0.11)">
       <defs>
        <path id="CMR17-31" d="M 1702 4058 
C 1702 4192 1696 4192 1606 4192 
C 1357 3916 979 3827 621 3827 
C 602 3827 570 3827 563 3808 
C 557 3795 557 3782 557 3648 
C 755 3648 1088 3686 1344 3839 
L 1344 461 
C 1344 236 1331 160 781 160 
L 589 160 
L 589 0 
C 896 0 1216 0 1523 0 
C 1830 0 2150 0 2458 0 
L 2458 160 
L 2266 160 
C 1715 160 1702 230 1702 458 
L 1702 4058 
z
" transform="scale(0.015625)"/>
       </defs>
       <use xlink:href="#CMR17-31" transform="scale(0.996264)"/>
       <use xlink:href="#CMR17-30" transform="translate(45.690477 0) scale(0.996264)"/>
      </g>
     </g>
    </g>
    <g id="ytick_4">
     <g id="line2d_12">
      <path d="M 48.591275 227.512973 
L 704.88 227.512973 
" clip-path="url(#pd8b29fd5f5)" style="fill: none; stroke: #b0b0b0; stroke-opacity: 0.3; stroke-linecap: square"/>
     </g>
     <g id="line2d_13">
      <g>
       <use xlink:href="#mb555a7300c" x="48.591275" y="227.512973" style="stroke: #000000; stroke-width: 0.8"/>
      </g>
     </g>
     <g id="text_10">
      <!-- $\mathdefault{15}$ -->
      <g transform="translate(30.63234 231.318146) scale(0.11 -0.11)">
       <use xlink:href="#CMR17-31" transform="scale(0.996264)"/>
       <use xlink:href="#CMR17-35" transform="translate(45.690477 0) scale(0.996264)"/>
      </g>
     </g>
    </g>
    <g id="ytick_5">
     <g id="line2d_14">
      <path d="M 48.591275 177.156099 
L 704.88 177.156099 
" clip-path="url(#pd8b29fd5f5)" style="fill: none; stroke: #b0b0b0; stroke-opacity: 0.3; stroke-linecap: square"/>
     </g>
     <g id="line2d_15">
      <g>
       <use xlink:href="#mb555a7300c" x="48.591275" y="177.156099" style="stroke: #000000; stroke-width: 0.8"/>
      </g>
     </g>
     <g id="text_11">
      <!-- $\mathdefault{20}$ -->
      <g transform="translate(30.63234 180.961272) scale(0.11 -0.11)">
       <defs>
        <path id="CMR17-32" d="M 2669 989 
L 2554 989 
C 2490 536 2438 459 2413 420 
C 2381 369 1920 369 1830 369 
L 602 369 
C 832 619 1280 1072 1824 1597 
C 2214 1967 2669 2402 2669 3035 
C 2669 3790 2067 4224 1395 4224 
C 691 4224 262 3604 262 3030 
C 262 2780 448 2748 525 2748 
C 589 2748 781 2787 781 3010 
C 781 3207 614 3264 525 3264 
C 486 3264 448 3258 422 3245 
C 544 3790 915 4058 1306 4058 
C 1862 4058 2227 3617 2227 3035 
C 2227 2479 1901 2000 1536 1584 
L 262 146 
L 262 0 
L 2515 0 
L 2669 989 
z
" transform="scale(0.015625)"/>
       </defs>
       <use xlink:href="#CMR17-32" transform="scale(0.996264)"/>
       <use xlink:href="#CMR17-30" transform="translate(45.690477 0) scale(0.996264)"/>
      </g>
     </g>
    </g>
    <g id="ytick_6">
     <g id="line2d_16">
      <path d="M 48.591275 126.799225 
L 704.88 126.799225 
" clip-path="url(#pd8b29fd5f5)" style="fill: none; stroke: #b0b0b0; stroke-opacity: 0.3; stroke-linecap: square"/>
     </g>
     <g id="line2d_17">
      <g>
       <use xlink:href="#mb555a7300c" x="48.591275" y="126.799225" style="stroke: #000000; stroke-width: 0.8"/>
      </g>
     </g>
     <g id="text_12">
      <!-- $\mathdefault{25}$ -->
      <g transform="translate(30.63234 130.604399) scale(0.11 -0.11)">
       <use xlink:href="#CMR17-32" transform="scale(0.996264)"/>
       <use xlink:href="#CMR17-35" transform="translate(45.690477 0) scale(0.996264)"/>
      </g>
     </g>
    </g>
    <g id="ytick_7">
     <g id="line2d_18">
      <path d="M 48.591275 76.442352 
L 704.88 76.442352 
" clip-path="url(#pd8b29fd5f5)" style="fill: none; stroke: #b0b0b0; stroke-opacity: 0.3; stroke-linecap: square"/>
     </g>
     <g id="line2d_19">
      <g>
       <use xlink:href="#mb555a7300c" x="48.591275" y="76.442352" style="stroke: #000000; stroke-width: 0.8"/>
      </g>
     </g>
     <g id="text_13">
      <!-- $\mathdefault{30}$ -->
      <g transform="translate(30.63234 80.247525) scale(0.11 -0.11)">
       <defs>
        <path id="CMR17-33" d="M 1414 2157 
C 1984 2157 2234 1662 2234 1090 
C 2234 320 1824 25 1453 25 
C 1114 25 563 194 390 693 
C 422 680 454 680 486 680 
C 640 680 755 782 755 948 
C 755 1133 614 1216 486 1216 
C 378 1216 211 1165 211 926 
C 211 335 787 -128 1466 -128 
C 2176 -128 2720 430 2720 1085 
C 2720 1707 2208 2157 1600 2227 
C 2086 2328 2554 2756 2554 3329 
C 2554 3820 2048 4179 1472 4179 
C 890 4179 378 3829 378 3329 
C 378 3110 544 3072 627 3072 
C 762 3072 877 3155 877 3321 
C 877 3486 762 3569 627 3569 
C 602 3569 570 3569 544 3557 
C 730 3959 1235 4032 1459 4032 
C 1683 4032 2106 3925 2106 3320 
C 2106 3143 2080 2828 1862 2550 
C 1670 2304 1453 2304 1242 2284 
C 1210 2284 1062 2269 1037 2269 
C 992 2263 966 2257 966 2208 
C 966 2163 973 2157 1101 2157 
L 1414 2157 
z
" transform="scale(0.015625)"/>
       </defs>
       <use xlink:href="#CMR17-33" transform="scale(0.996264)"/>
       <use xlink:href="#CMR17-30" transform="translate(45.690477 0) scale(0.996264)"/>
      </g>
     </g>
    </g>
    <g id="text_14">
     <!-- Distortion -->
     <g transform="translate(24.114028 235.497321) rotate(-90) scale(0.13 -0.13)">
      <defs>
       <path id="CMR17-44" d="M 333 4352 
L 333 4186 
C 774 4186 845 4186 845 3900 
L 845 452 
C 845 166 774 166 333 166 
L 333 0 
L 2368 0 
C 3398 0 4224 943 4224 2141 
C 4224 3346 3411 4352 2368 4352 
L 333 4352 
z
M 1523 166 
C 1267 166 1254 197 1254 414 
L 1254 3938 
C 1254 4155 1267 4186 1523 4186 
L 2240 4186 
C 2771 4186 3750 3874 3750 2141 
C 3750 1242 3488 879 3366 707 
C 3213 510 2848 166 2240 166 
L 1523 166 
z
" transform="scale(0.015625)"/>
      </defs>
      <use xlink:href="#CMR17-44" transform="scale(0.996264)"/>
      <use xlink:href="#CMR17-69" transform="translate(70.393556 0) scale(0.996264)"/>
      <use xlink:href="#CMR17-73" transform="translate(95.264614 0) scale(0.996264)"/>
      <use xlink:href="#CMR17-74" transform="translate(131.065952 0) scale(0.996264)"/>
      <use xlink:href="#CMR17-6f" transform="translate(166.34672 0) scale(0.996264)"/>
      <use xlink:href="#CMR17-72" transform="translate(212.037197 0) scale(0.996264)"/>
      <use xlink:href="#CMR17-74" transform="translate(247.317965 0) scale(0.996264)"/>
      <use xlink:href="#CMR17-69" transform="translate(282.598733 0) scale(0.996264)"/>
      <use xlink:href="#CMR17-6f" transform="translate(307.469791 0) scale(0.996264)"/>
      <use xlink:href="#CMR17-6e" transform="translate(353.160268 0) scale(0.996264)"/>
     </g>
    </g>
   </g>
   <g id="LineCollection_1">
    <path d="M 94.995528 357.259531 
L 128.141423 357.259531 
" clip-path="url(#pd8b29fd5f5)" style="fill: none; stroke: #1f77b4; stroke-width: 1.5"/>
    <path d="M 227.579109 344.79901 
L 260.725004 344.79901 
" clip-path="url(#pd8b29fd5f5)" style="fill: none; stroke: #1f77b4; stroke-width: 1.5"/>
    <path d="M 360.16269 339.689219 
L 393.308585 339.689219 
" clip-path="url(#pd8b29fd5f5)" style="fill: none; stroke: #1f77b4; stroke-width: 1.5"/>
    <path d="M 492.746271 355.893458 
L 525.892166 355.893458 
" clip-path="url(#pd8b29fd5f5)" style="fill: none; stroke: #1f77b4; stroke-width: 1.5"/>
    <path d="M 625.329851 347.029828 
L 658.475747 347.029828 
" clip-path="url(#pd8b29fd5f5)" style="fill: none; stroke: #1f77b4; stroke-width: 1.5"/>
   </g>
   <g id="LineCollection_2">
    <path d="M 94.995528 126.799225 
L 128.141423 126.799225 
" clip-path="url(#pd8b29fd5f5)" style="fill: none; stroke: #1f77b4; stroke-width: 1.5"/>
    <path d="M 227.579109 46.228228 
L 260.725004 46.228228 
" clip-path="url(#pd8b29fd5f5)" style="fill: none; stroke: #1f77b4; stroke-width: 1.5"/>
    <path d="M 360.16269 157.01335 
L 393.308585 157.01335 
" clip-path="url(#pd8b29fd5f5)" style="fill: none; stroke: #1f77b4; stroke-width: 1.5"/>
    <path d="M 492.746271 177.156099 
L 525.892166 177.156099 
" clip-path="url(#pd8b29fd5f5)" style="fill: none; stroke: #1f77b4; stroke-width: 1.5"/>
    <path d="M 625.329851 157.01335 
L 658.475747 157.01335 
" clip-path="url(#pd8b29fd5f5)" style="fill: none; stroke: #1f77b4; stroke-width: 1.5"/>
   </g>
   <g id="LineCollection_3">
    <path d="M 94.995528 368.512219 
L 128.141423 368.512219 
" clip-path="url(#pd8b29fd5f5)" style="fill: none; stroke: #1f77b4; stroke-width: 1.5"/>
    <path d="M 227.579109 368.512219 
L 260.725004 368.512219 
" clip-path="url(#pd8b29fd5f5)" style="fill: none; stroke: #1f77b4; stroke-width: 1.5"/>
    <path d="M 360.16269 368.512219 
L 393.308585 368.512219 
" clip-path="url(#pd8b29fd5f5)" style="fill: none; stroke: #1f77b4; stroke-width: 1.5"/>
    <path d="M 492.746271 368.512219 
L 525.892166 368.512219 
" clip-path="url(#pd8b29fd5f5)" style="fill: none; stroke: #1f77b4; stroke-width: 1.5"/>
    <path d="M 625.329851 368.512219 
L 658.475747 368.512219 
" clip-path="url(#pd8b29fd5f5)" style="fill: none; stroke: #1f77b4; stroke-width: 1.5"/>
   </g>
   <g id="LineCollection_4">
    <path d="M 111.568476 368.512219 
L 111.568476 126.799225 
" clip-path="url(#pd8b29fd5f5)" style="fill: none; stroke: #1f77b4; stroke-width: 1.5"/>
    <path d="M 244.152056 368.512219 
L 244.152056 46.228228 
" clip-path="url(#pd8b29fd5f5)" style="fill: none; stroke: #1f77b4; stroke-width: 1.5"/>
    <path d="M 376.735637 368.512219 
L 376.735637 157.01335 
" clip-path="url(#pd8b29fd5f5)" style="fill: none; stroke: #1f77b4; stroke-width: 1.5"/>
    <path d="M 509.319218 368.512219 
L 509.319218 177.156099 
" clip-path="url(#pd8b29fd5f5)" style="fill: none; stroke: #1f77b4; stroke-width: 1.5"/>
    <path d="M 641.902799 368.512219 
L 641.902799 157.01335 
" clip-path="url(#pd8b29fd5f5)" style="fill: none; stroke: #1f77b4; stroke-width: 1.5"/>
   </g>
   <g id="patch_3">
    <path d="M 48.591275 384.626418 
L 48.591275 30.114028 
" style="fill: none; stroke: #000000; stroke-linejoin: miter; stroke-linecap: square"/>
   </g>
   <g id="patch_4">
    <path d="M 704.88 384.626418 
L 704.88 30.114028 
" style="fill: none; stroke: #000000; stroke-linejoin: miter; stroke-linecap: square"/>
   </g>
   <g id="patch_5">
    <path d="M 48.591275 384.626418 
L 704.88 384.626418 
" style="fill: none; stroke: #000000; stroke-linejoin: miter; stroke-linecap: square"/>
   </g>
   <g id="patch_6">
    <path d="M 48.591275 30.114028 
L 704.88 30.114028 
" style="fill: none; stroke: #000000; stroke-linejoin: miter; stroke-linecap: square"/>
   </g>
   <g id="text_15">
    <!-- Distortion Under Rawlsian -->
    <g transform="translate(302.342128 24.114028) scale(0.13 -0.13)">
     <defs>
      <path id="CMR17-55" d="M 3456 1433 
C 3456 579 2899 38 2291 38 
C 1965 38 1670 210 1491 477 
C 1286 783 1261 1178 1261 1401 
L 1261 3874 
C 1261 4160 1331 4160 1773 4160 
L 1773 4320 
C 1587 4320 1248 4320 1050 4320 
C 851 4320 512 4320 326 4320 
L 326 4160 
C 768 4160 838 4160 838 3874 
L 838 1433 
C 838 516 1536 -128 2278 -128 
C 3110 -128 3590 719 3590 1344 
L 3590 3766 
C 3590 4122 3917 4160 4102 4160 
L 4102 4326 
C 3955 4320 3686 4320 3526 4320 
C 3366 4320 3091 4320 2944 4326 
L 2944 4160 
C 3456 4160 3456 3861 3456 3702 
L 3456 1433 
z
" transform="scale(0.015625)"/>
      <path id="CMR17-77" d="M 3725 2183 
C 3853 2560 4109 2560 4205 2560 
L 4205 2732 
C 4077 2732 3949 2732 3821 2732 
C 3699 2732 3424 2732 3315 2738 
L 3315 2560 
C 3514 2560 3622 2445 3622 2286 
C 3622 2241 3610 2184 3597 2140 
L 2995 407 
L 2342 2275 
C 2330 2319 2310 2370 2310 2395 
C 2310 2560 2528 2560 2630 2560 
L 2630 2738 
C 2483 2732 2214 2732 2061 2732 
C 1901 2732 1734 2732 1587 2738 
L 1587 2560 
C 1939 2560 1939 2547 2074 2149 
L 1485 451 
L 851 2281 
C 819 2363 819 2376 819 2395 
C 819 2560 1037 2560 1139 2560 
L 1139 2738 
C 986 2732 717 2732 557 2732 
C 416 2732 198 2732 64 2738 
L 64 2560 
C 346 2560 416 2541 486 2331 
L 1274 49 
C 1299 -33 1318 -52 1370 -52 
C 1414 -52 1440 -39 1472 56 
L 2131 1980 
L 2797 56 
C 2829 -39 2854 -52 2899 -52 
C 2950 -52 2970 -33 2995 50 
L 3725 2183 
z
" transform="scale(0.015625)"/>
     </defs>
     <use xlink:href="#CMR17-44" transform="scale(0.996264)"/>
     <use xlink:href="#CMR17-69" transform="translate(70.393556 0) scale(0.996264)"/>
     <use xlink:href="#CMR17-73" transform="translate(95.264614 0) scale(0.996264)"/>
     <use xlink:href="#CMR17-74" transform="translate(131.065952 0) scale(0.996264)"/>
     <use xlink:href="#CMR17-6f" transform="translate(166.34672 0) scale(0.996264)"/>
     <use xlink:href="#CMR17-72" transform="translate(212.037197 0) scale(0.996264)"/>
     <use xlink:href="#CMR17-74" transform="translate(247.317965 0) scale(0.996264)"/>
     <use xlink:href="#CMR17-69" transform="translate(282.598733 0) scale(0.996264)"/>
     <use xlink:href="#CMR17-6f" transform="translate(307.469791 0) scale(0.996264)"/>
     <use xlink:href="#CMR17-6e" transform="translate(353.160268 0) scale(0.996264)"/>
     <use xlink:href="#CMR17-55" transform="translate(434.131604 0) scale(0.996264)"/>
     <use xlink:href="#CMR17-6e" transform="translate(503.204034 0) scale(0.996264)"/>
     <use xlink:href="#CMR17-64" transform="translate(554.099404 0) scale(0.996264)"/>
     <use xlink:href="#CMR17-65" transform="translate(604.994774 0) scale(0.996264)"/>
     <use xlink:href="#CMR17-72" transform="translate(645.480434 0) scale(0.996264)"/>
     <use xlink:href="#CMR17-52" transform="translate(710.837168 0) scale(0.996264)"/>
     <use xlink:href="#CMR17-61" transform="translate(778.62827 0) scale(0.996264)"/>
     <use xlink:href="#CMR17-77" transform="translate(821.716293 0) scale(0.996264)"/>
     <use xlink:href="#CMR17-6c" transform="translate(888.226174 0) scale(0.996264)"/>
     <use xlink:href="#CMR17-73" transform="translate(913.097232 0) scale(0.996264)"/>
     <use xlink:href="#CMR17-69" transform="translate(948.89857 0) scale(0.996264)"/>
     <use xlink:href="#CMR17-61" transform="translate(973.769629 0) scale(0.996264)"/>
     <use xlink:href="#CMR17-6e" transform="translate(1019.460106 0) scale(0.996264)"/>
    </g>
   </g>
  </g>
 </g>
 <defs>
  <clipPath id="pd8b29fd5f5">
   <rect x="48.591275" y="30.114028" width="656.288725" height="354.51239"/>
  </clipPath>
 </defs>
</svg>
