<?xml version="1.0" encoding="utf-8" standalone="no"?>
<!DOCTYPE svg PUBLIC "-//W3C//DTD SVG 1.1//EN"
  "http://www.w3.org/Graphics/SVG/1.1/DTD/svg11.dtd">
<svg xmlns:xlink="http://www.w3.org/1999/xlink" width="720pt" height="432pt" viewBox="0 0 720 432" xmlns="http://www.w3.org/2000/svg" version="1.1">
 <metadata>
  <rdf:RDF xmlns:dc="http://purl.org/dc/elements/1.1/" xmlns:cc="http://creativecommons.org/ns#" xmlns:rdf="http://www.w3.org/1999/02/22-rdf-syntax-ns#">
   <cc:Work>
    <dc:type rdf:resource="http://purl.org/dc/dcmitype/StillImage"/>
    <dc:date>2024-12-09T12:29:55.565956</dc:date>
    <dc:format>image/svg+xml</dc:format>
    <dc:creator>
     <cc:Agent>
      <dc:title>Matplotlib v3.9.2, https://matplotlib.org/</dc:title>
     </cc:Agent>
    </dc:creator>
   </cc:Work>
  </rdf:RDF>
 </metadata>
 <defs>
  <style type="text/css">*{stroke-linejoin: round; stroke-linecap: butt}</style>
 </defs>
 <g id="figure_1">
  <g id="patch_1">
   <path d="M 0 432 
L 720 432 
L 720 0 
L 0 0 
z
" style="fill: #ffffff"/>
  </g>
  <g id="axes_1">
   <g id="patch_2">
    <path d="M 57.114884 384.626418 
L 704.88 384.626418 
L 704.88 30.114028 
L 57.114884 30.114028 
z
" style="fill: #ffffff"/>
   </g>
   <g id="PolyCollection_1">
    <defs>
     <path id="md8763c9a6b" d="M 170.684092 -63.487781 
L 86.558753 -63.487781 
L 86.558753 -63.487781 
L 86.558753 -63.487781 
L 86.558753 -63.487781 
L 86.558753 -63.487781 
L 86.558753 -63.487781 
L 86.558753 -63.487781 
L 86.558753 -63.487781 
L 86.558753 -63.487781 
L 86.558753 -63.487781 
L 86.558753 -63.487781 
L 86.558753 -63.487781 
L 86.558753 -63.487781 
L 86.558753 -63.487781 
L 86.558753 -63.487781 
L 86.558753 -63.487781 
L 86.558753 -63.487781 
L 86.558753 -63.487781 
L 86.558753 -63.487781 
L 86.558753 -63.487781 
L 86.558753 -63.487781 
L 86.558753 -63.487781 
L 86.558753 -63.487781 
L 86.558753 -63.487781 
L 86.558753 -63.487781 
L 86.558753 -63.487781 
L 86.558753 -63.487781 
L 86.558753 -63.487781 
L 86.558753 -63.487781 
L 86.558753 -63.487781 
L 86.558753 -63.487781 
L 86.558753 -63.487781 
L 86.558753 -63.487781 
L 86.558753 -63.487781 
L 86.558753 -63.487781 
L 86.558753 -63.487781 
L 86.558753 -63.487781 
L 86.558753 -63.487781 
L 86.558753 -63.487781 
L 86.558753 -63.487781 
L 86.558753 -63.487781 
L 86.558753 -63.487781 
L 86.558753 -63.487781 
L 86.558753 -63.487781 
L 86.558753 -63.487781 
L 86.558753 -63.487781 
L 86.558753 -63.487781 
L 86.558753 -63.487781 
L 86.558753 -63.487781 
L 86.558753 -63.487781 
L 86.558753 -63.487781 
L 86.558753 -63.487781 
L 86.558753 -63.487781 
L 86.558753 -63.487781 
L 86.558753 -63.487781 
L 86.558753 -63.487781 
L 86.558753 -63.487781 
L 86.558753 -63.487781 
L 86.558753 -63.487781 
L 86.558753 -63.487781 
L 86.558753 -63.487781 
L 86.558753 -63.487781 
L 86.558753 -63.487781 
L 86.558753 -63.487781 
L 86.558753 -63.487781 
L 86.558753 -63.487781 
L 86.558753 -63.487781 
L 86.558753 -63.487781 
L 86.558753 -63.487781 
L 86.558753 -63.487781 
L 86.558753 -63.487781 
L 86.558753 -63.487781 
L 86.558753 -63.487781 
L 86.558753 -63.487781 
L 86.558753 -63.487781 
L 86.558753 -63.487781 
L 86.558753 -63.487781 
L 86.558753 -63.487781 
L 86.558753 -63.487781 
L 86.558753 -63.487781 
L 86.558753 -63.487781 
L 86.558753 -63.487781 
L 86.558753 -63.487781 
L 86.558753 -63.487781 
L 86.558753 -63.487781 
L 86.558753 -63.487781 
L 86.558753 -63.487781 
L 86.558753 -63.487781 
L 86.558753 -63.487781 
L 86.558753 -63.487781 
L 86.558753 -63.487781 
L 86.558753 -63.487781 
L 86.558753 -63.487781 
L 86.558753 -63.487781 
L 86.558753 -63.487781 
L 86.558753 -63.487781 
L 86.558753 -63.487781 
L 86.558753 -63.487781 
L 86.558753 -63.487781 
L 86.558753 -63.487781 
L 170.684092 -63.487781 
L 170.684092 -63.487781 
L 170.684092 -63.487781 
L 170.684092 -63.487781 
L 170.684092 -63.487781 
L 170.684092 -63.487781 
L 170.684092 -63.487781 
L 170.684092 -63.487781 
L 170.684092 -63.487781 
L 170.684092 -63.487781 
L 170.684092 -63.487781 
L 170.684092 -63.487781 
L 170.684092 -63.487781 
L 170.684092 -63.487781 
L 170.684092 -63.487781 
L 170.684092 -63.487781 
L 170.684092 -63.487781 
L 170.684092 -63.487781 
L 170.684092 -63.487781 
L 170.684092 -63.487781 
L 170.684092 -63.487781 
L 170.684092 -63.487781 
L 170.684092 -63.487781 
L 170.684092 -63.487781 
L 170.684092 -63.487781 
L 170.684092 -63.487781 
L 170.684092 -63.487781 
L 170.684092 -63.487781 
L 170.684092 -63.487781 
L 170.684092 -63.487781 
L 170.684092 -63.487781 
L 170.684092 -63.487781 
L 170.684092 -63.487781 
L 170.684092 -63.487781 
L 170.684092 -63.487781 
L 170.684092 -63.487781 
L 170.684092 -63.487781 
L 170.684092 -63.487781 
L 170.684092 -63.487781 
L 170.684092 -63.487781 
L 170.684092 -63.487781 
L 170.684092 -63.487781 
L 170.684092 -63.487781 
L 170.684092 -63.487781 
L 170.684092 -63.487781 
L 170.684092 -63.487781 
L 170.684092 -63.487781 
L 170.684092 -63.487781 
L 170.684092 -63.487781 
L 170.684092 -63.487781 
L 170.684092 -63.487781 
L 170.684092 -63.487781 
L 170.684092 -63.487781 
L 170.684092 -63.487781 
L 170.684092 -63.487781 
L 170.684092 -63.487781 
L 170.684092 -63.487781 
L 170.684092 -63.487781 
L 170.684092 -63.487781 
L 170.684092 -63.487781 
L 170.684092 -63.487781 
L 170.684092 -63.487781 
L 170.684092 -63.487781 
L 170.684092 -63.487781 
L 170.684092 -63.487781 
L 170.684092 -63.487781 
L 170.684092 -63.487781 
L 170.684092 -63.487781 
L 170.684092 -63.487781 
L 170.684092 -63.487781 
L 170.684092 -63.487781 
L 170.684092 -63.487781 
L 170.684092 -63.487781 
L 170.684092 -63.487781 
L 170.684092 -63.487781 
L 170.684092 -63.487781 
L 170.684092 -63.487781 
L 170.684092 -63.487781 
L 170.684092 -63.487781 
L 170.684092 -63.487781 
L 170.684092 -63.487781 
L 170.684092 -63.487781 
L 170.684092 -63.487781 
L 170.684092 -63.487781 
L 170.684092 -63.487781 
L 170.684092 -63.487781 
L 170.684092 -63.487781 
L 170.684092 -63.487781 
L 170.684092 -63.487781 
L 170.684092 -63.487781 
L 170.684092 -63.487781 
L 170.684092 -63.487781 
L 170.684092 -63.487781 
L 170.684092 -63.487781 
L 170.684092 -63.487781 
L 170.684092 -63.487781 
L 170.684092 -63.487781 
L 170.684092 -63.487781 
L 170.684092 -63.487781 
L 170.684092 -63.487781 
L 170.684092 -63.487781 
z
" style="stroke: #000000; stroke-opacity: 0.4"/>
    </defs>
    <g clip-path="url(#p1f08c93ae8)">
     <use xlink:href="#md8763c9a6b" x="0" y="432" style="fill: #440154; fill-opacity: 0.4; stroke: #000000; stroke-opacity: 0.4"/>
    </g>
   </g>
   <g id="PolyCollection_2">
    <defs>
     <path id="m7e684311d0" d="M 338.457907 -63.487781 
L 255.286297 -63.487781 
L 255.03972 -66.743175 
L 254.880741 -69.998569 
L 254.809432 -73.253963 
L 254.825274 -76.509357 
L 254.927168 -79.76475 
L 255.113465 -83.020144 
L 255.381986 -86.275538 
L 255.730067 -89.530932 
L 256.154586 -92.786326 
L 256.65202 -96.04172 
L 257.21848 -99.297113 
L 257.849768 -102.552507 
L 258.541426 -105.807901 
L 259.288787 -109.063295 
L 260.087029 -112.318689 
L 260.93122 -115.574083 
L 261.816377 -118.829477 
L 262.737503 -122.08487 
L 263.689637 -125.340264 
L 264.667895 -128.595658 
L 265.667501 -131.851052 
L 266.683827 -135.106446 
L 267.712417 -138.36184 
L 268.749012 -141.617234 
L 269.789571 -144.872627 
L 270.830284 -148.128021 
L 271.867584 -151.383415 
L 272.898156 -154.638809 
L 273.918937 -157.894203 
L 274.927121 -161.149597 
L 275.920148 -164.40499 
L 276.895708 -167.660384 
L 277.851726 -170.915778 
L 278.786355 -174.171172 
L 279.697966 -177.426566 
L 280.585133 -180.68196 
L 281.446624 -183.937354 
L 282.281383 -187.192747 
L 283.08852 -190.448141 
L 283.867299 -193.703535 
L 284.61712 -196.958929 
L 285.337511 -200.214323 
L 286.028117 -203.469717 
L 286.688686 -206.725111 
L 287.319059 -209.980504 
L 287.919165 -213.235898 
L 288.489009 -216.491292 
L 289.028665 -219.746686 
L 289.538274 -223.00208 
L 290.01803 -226.257474 
L 290.468185 -229.512867 
L 290.889038 -232.768261 
L 291.280934 -236.023655 
L 291.644262 -239.279049 
L 291.97945 -242.534443 
L 292.286969 -245.789837 
L 292.567323 -249.045231 
L 292.821059 -252.300624 
L 293.048756 -255.556018 
L 293.25103 -258.811412 
L 293.428537 -262.066806 
L 293.581964 -265.3222 
L 293.712039 -268.577594 
L 293.819526 -271.832988 
L 293.905225 -275.088381 
L 293.969976 -278.343775 
L 294.014658 -281.599169 
L 294.040188 -284.854563 
L 294.047521 -288.109957 
L 294.037655 -291.365351 
L 294.011622 -294.620744 
L 293.970496 -297.876138 
L 293.915388 -301.131532 
L 293.847443 -304.386926 
L 293.767843 -307.64232 
L 293.677799 -310.897714 
L 293.578552 -314.153108 
L 293.471367 -317.408501 
L 293.357533 -320.663895 
L 293.23835 -323.919289 
L 293.115131 -327.174683 
L 292.989194 -330.430077 
L 292.861853 -333.685471 
L 292.734411 -336.940865 
L 292.608156 -340.196258 
L 292.484348 -343.451652 
L 292.364215 -346.707046 
L 292.24894 -349.96244 
L 292.139658 -353.217834 
L 292.037442 -356.473228 
L 291.943298 -359.728622 
L 291.858155 -362.984015 
L 291.78286 -366.239409 
L 291.718171 -369.494803 
L 291.664746 -372.750197 
L 291.623147 -376.005591 
L 291.593826 -379.260985 
L 291.57713 -382.516378 
L 291.573291 -385.771772 
L 302.170913 -385.771772 
L 302.170913 -385.771772 
L 302.167074 -382.516378 
L 302.150378 -379.260985 
L 302.121057 -376.005591 
L 302.079458 -372.750197 
L 302.026034 -369.494803 
L 301.961344 -366.239409 
L 301.886049 -362.984015 
L 301.800906 -359.728622 
L 301.706762 -356.473228 
L 301.604546 -353.217834 
L 301.495264 -349.96244 
L 301.379989 -346.707046 
L 301.259856 -343.451652 
L 301.136049 -340.196258 
L 301.009793 -336.940865 
L 300.882352 -333.685471 
L 300.75501 -330.430077 
L 300.629073 -327.174683 
L 300.505855 -323.919289 
L 300.386672 -320.663895 
L 300.272837 -317.408501 
L 300.165653 -314.153108 
L 300.066405 -310.897714 
L 299.976361 -307.64232 
L 299.896761 -304.386926 
L 299.828816 -301.131532 
L 299.773708 -297.876138 
L 299.732582 -294.620744 
L 299.706549 -291.365351 
L 299.696683 -288.109957 
L 299.704016 -284.854563 
L 299.729546 -281.599169 
L 299.774228 -278.343775 
L 299.838979 -275.088381 
L 299.924679 -271.832988 
L 300.032165 -268.577594 
L 300.16224 -265.3222 
L 300.315667 -262.066806 
L 300.493174 -258.811412 
L 300.695449 -255.556018 
L 300.923145 -252.300624 
L 301.176881 -249.045231 
L 301.457236 -245.789837 
L 301.764754 -242.534443 
L 302.099942 -239.279049 
L 302.46327 -236.023655 
L 302.855166 -232.768261 
L 303.276019 -229.512867 
L 303.726174 -226.257474 
L 304.205931 -223.00208 
L 304.715539 -219.746686 
L 305.255196 -216.491292 
L 305.825039 -213.235898 
L 306.425145 -209.980504 
L 307.055518 -206.725111 
L 307.716087 -203.469717 
L 308.406693 -200.214323 
L 309.127084 -196.958929 
L 309.876905 -193.703535 
L 310.655684 -190.448141 
L 311.462821 -187.192747 
L 312.29758 -183.937354 
L 313.159071 -180.68196 
L 314.046238 -177.426566 
L 314.957849 -174.171172 
L 315.892478 -170.915778 
L 316.848496 -167.660384 
L 317.824056 -164.40499 
L 318.817084 -161.149597 
L 319.825267 -157.894203 
L 320.846048 -154.638809 
L 321.87662 -151.383415 
L 322.91392 -148.128021 
L 323.954633 -144.872627 
L 324.995192 -141.617234 
L 326.031787 -138.36184 
L 327.060377 -135.106446 
L 328.076703 -131.851052 
L 329.076309 -128.595658 
L 330.054567 -125.340264 
L 331.006701 -122.08487 
L 331.927827 -118.829477 
L 332.812984 -115.574083 
L 333.657176 -112.318689 
L 334.455417 -109.063295 
L 335.202778 -105.807901 
L 335.894436 -102.552507 
L 336.525724 -99.297113 
L 337.092184 -96.04172 
L 337.589618 -92.786326 
L 338.014138 -89.530932 
L 338.362218 -86.275538 
L 338.63074 -83.020144 
L 338.817036 -79.76475 
L 338.918931 -76.509357 
L 338.934772 -73.253963 
L 338.863463 -69.998569 
L 338.704484 -66.743175 
L 338.457907 -63.487781 
z
" style="stroke: #000000; stroke-opacity: 0.4"/>
    </defs>
    <g clip-path="url(#p1f08c93ae8)">
     <use xlink:href="#m7e684311d0" x="0" y="432" style="fill: #31688e; fill-opacity: 0.4; stroke: #000000; stroke-opacity: 0.4"/>
    </g>
   </g>
   <g id="PolyCollection_3">
    <defs>
     <path id="m7272f788da" d="M 507.166415 -63.487781 
L 423.079148 -63.487781 
L 423.060112 -65.885093 
L 423.133503 -68.282405 
L 423.298145 -70.679717 
L 423.552209 -73.07703 
L 423.893239 -75.474342 
L 424.318179 -77.871654 
L 424.823415 -80.268966 
L 425.404819 -82.666278 
L 426.057798 -85.06359 
L 426.77735 -87.460902 
L 427.558123 -89.858214 
L 428.39448 -92.255527 
L 429.280557 -94.652839 
L 430.210337 -97.050151 
L 431.177707 -99.447463 
L 432.176531 -101.844775 
L 433.200704 -104.242087 
L 434.244219 -106.639399 
L 435.301222 -109.036711 
L 436.366062 -111.434024 
L 437.43334 -113.831336 
L 438.49795 -116.228648 
L 439.555119 -118.62596 
L 440.600432 -121.023272 
L 441.629859 -123.420584 
L 442.63977 -125.817896 
L 443.62695 -128.215208 
L 444.5886 -130.61252 
L 445.522339 -133.009833 
L 446.426194 -135.407145 
L 447.298593 -137.804457 
L 448.138347 -140.201769 
L 448.944626 -142.599081 
L 449.71694 -144.996393 
L 450.45511 -147.393705 
L 451.159239 -149.791017 
L 451.829682 -152.18833 
L 452.467013 -154.585642 
L 453.071991 -156.982954 
L 453.645532 -159.380266 
L 454.188675 -161.777578 
L 454.702551 -164.17489 
L 455.188355 -166.572202 
L 455.647319 -168.969514 
L 456.080685 -171.366827 
L 456.489688 -173.764139 
L 456.875529 -176.161451 
L 457.239366 -178.558763 
L 457.582292 -180.956075 
L 457.905331 -183.353387 
L 458.209426 -185.750699 
L 458.495433 -188.148011 
L 458.764121 -190.545323 
L 459.016168 -192.942636 
L 459.252166 -195.339948 
L 459.472624 -197.73726 
L 459.677973 -200.134572 
L 459.868573 -202.531884 
L 460.044722 -204.929196 
L 460.206669 -207.326508 
L 460.354618 -209.72382 
L 460.488743 -212.121133 
L 460.6092 -214.518445 
L 460.716134 -216.915757 
L 460.809695 -219.313069 
L 460.890045 -221.710381 
L 460.957369 -224.107693 
L 461.011885 -226.505005 
L 461.05385 -228.902317 
L 461.083572 -231.29963 
L 461.101409 -233.696942 
L 461.107782 -236.094254 
L 461.103171 -238.491566 
L 461.088123 -240.888878 
L 461.063251 -243.28619 
L 461.029232 -245.683502 
L 460.986808 -248.080814 
L 460.936783 -250.478126 
L 460.880017 -252.875439 
L 460.817422 -255.272751 
L 460.749955 -257.670063 
L 460.678614 -260.067375 
L 460.604425 -262.464687 
L 460.528438 -264.861999 
L 460.451716 -267.259311 
L 460.375324 -269.656623 
L 460.300322 -272.053936 
L 460.227753 -274.451248 
L 460.158634 -276.84856 
L 460.093947 -279.245872 
L 460.034627 -281.643184 
L 459.981556 -284.040496 
L 459.935552 -286.437808 
L 459.897364 -288.83512 
L 459.867663 -291.232433 
L 459.847036 -293.629745 
L 459.835984 -296.027057 
L 459.834913 -298.424369 
L 459.844135 -300.821681 
L 470.401428 -300.821681 
L 470.401428 -300.821681 
L 470.410651 -298.424369 
L 470.40958 -296.027057 
L 470.398527 -293.629745 
L 470.377901 -291.232433 
L 470.348199 -288.83512 
L 470.310011 -286.437808 
L 470.264007 -284.040496 
L 470.210936 -281.643184 
L 470.151616 -279.245872 
L 470.086929 -276.84856 
L 470.01781 -274.451248 
L 469.945242 -272.053936 
L 469.870239 -269.656623 
L 469.793848 -267.259311 
L 469.717125 -264.861999 
L 469.641138 -262.464687 
L 469.56695 -260.067375 
L 469.495608 -257.670063 
L 469.428142 -255.272751 
L 469.365546 -252.875439 
L 469.30878 -250.478126 
L 469.258755 -248.080814 
L 469.216332 -245.683502 
L 469.182313 -243.28619 
L 469.15744 -240.888878 
L 469.142393 -238.491566 
L 469.137782 -236.094254 
L 469.144154 -233.696942 
L 469.161992 -231.29963 
L 469.191713 -228.902317 
L 469.233679 -226.505005 
L 469.288194 -224.107693 
L 469.355518 -221.710381 
L 469.435868 -219.313069 
L 469.529429 -216.915757 
L 469.636363 -214.518445 
L 469.75682 -212.121133 
L 469.890945 -209.72382 
L 470.038894 -207.326508 
L 470.200841 -204.929196 
L 470.376991 -202.531884 
L 470.56759 -200.134572 
L 470.772939 -197.73726 
L 470.993397 -195.339948 
L 471.229395 -192.942636 
L 471.481442 -190.545323 
L 471.75013 -188.148011 
L 472.036137 -185.750699 
L 472.340232 -183.353387 
L 472.663271 -180.956075 
L 473.006198 -178.558763 
L 473.370034 -176.161451 
L 473.755876 -173.764139 
L 474.164878 -171.366827 
L 474.598245 -168.969514 
L 475.057208 -166.572202 
L 475.543012 -164.17489 
L 476.056888 -161.777578 
L 476.600031 -159.380266 
L 477.173573 -156.982954 
L 477.778551 -154.585642 
L 478.415881 -152.18833 
L 479.086324 -149.791017 
L 479.790453 -147.393705 
L 480.528624 -144.996393 
L 481.300938 -142.599081 
L 482.107216 -140.201769 
L 482.94697 -137.804457 
L 483.819369 -135.407145 
L 484.723224 -133.009833 
L 485.656963 -130.61252 
L 486.618613 -128.215208 
L 487.605793 -125.817896 
L 488.615704 -123.420584 
L 489.645131 -121.023272 
L 490.690444 -118.62596 
L 491.747613 -116.228648 
L 492.812224 -113.831336 
L 493.879501 -111.434024 
L 494.944341 -109.036711 
L 496.001344 -106.639399 
L 497.044859 -104.242087 
L 498.069033 -101.844775 
L 499.067856 -99.447463 
L 500.035226 -97.050151 
L 500.965006 -94.652839 
L 501.851084 -92.255527 
L 502.68744 -89.858214 
L 503.468213 -87.460902 
L 504.187765 -85.06359 
L 504.840744 -82.666278 
L 505.422148 -80.268966 
L 505.927384 -77.871654 
L 506.352324 -75.474342 
L 506.693354 -73.07703 
L 506.947419 -70.679717 
L 507.112061 -68.282405 
L 507.185452 -65.885093 
L 507.166415 -63.487781 
z
" style="stroke: #000000; stroke-opacity: 0.4"/>
    </defs>
    <g clip-path="url(#p1f08c93ae8)">
     <use xlink:href="#m7272f788da" x="0" y="432" style="fill: #35b779; fill-opacity: 0.4; stroke: #000000; stroke-opacity: 0.4"/>
    </g>
   </g>
   <g id="PolyCollection_4">
    <defs>
     <path id="m3adea0cf10" d="M 675.436131 -63.487781 
L 591.310791 -63.487781 
L 591.364653 -64.683241 
L 591.525833 -65.878701 
L 591.793095 -67.074161 
L 592.164397 -68.269621 
L 592.636918 -69.465081 
L 593.207092 -70.660541 
L 593.870651 -71.856001 
L 594.622684 -73.051461 
L 595.457691 -74.246921 
L 596.369654 -75.44238 
L 597.352108 -76.63784 
L 598.398216 -77.8333 
L 599.500849 -79.02876 
L 600.652665 -80.22422 
L 601.84619 -81.41968 
L 603.0739 -82.61514 
L 604.328294 -83.8106 
L 605.601971 -85.00606 
L 606.887697 -86.20152 
L 608.178474 -87.39698 
L 609.467595 -88.59244 
L 610.748698 -89.7879 
L 612.015812 -90.98336 
L 613.263392 -92.17882 
L 614.486352 -93.37428 
L 615.680091 -94.56974 
L 616.8405 -95.765199 
L 617.963979 -96.960659 
L 619.047436 -98.156119 
L 620.088279 -99.351579 
L 621.084408 -100.547039 
L 622.0342 -101.742499 
L 622.936482 -102.937959 
L 623.790513 -104.133419 
L 624.595951 -105.328879 
L 625.352824 -106.524339 
L 626.061494 -107.719799 
L 626.722624 -108.915259 
L 627.337143 -110.110719 
L 627.90621 -111.306179 
L 628.431177 -112.501639 
L 628.913557 -113.697099 
L 629.354992 -114.892559 
L 629.757216 -116.088018 
L 630.122033 -117.283478 
L 630.451285 -118.478938 
L 630.74683 -119.674398 
L 631.010518 -120.869858 
L 631.244173 -122.065318 
L 631.449577 -123.260778 
L 631.628453 -124.456238 
L 631.782459 -125.651698 
L 631.913174 -126.847158 
L 632.022095 -128.042618 
L 632.11063 -129.238078 
L 632.180099 -130.433538 
L 632.231734 -131.628998 
L 632.266677 -132.824458 
L 632.285989 -134.019918 
L 632.290647 -135.215377 
L 632.28156 -136.410837 
L 632.259565 -137.606297 
L 632.225442 -138.801757 
L 632.17992 -139.997217 
L 632.123682 -141.192677 
L 632.05738 -142.388137 
L 631.981637 -143.583597 
L 631.897059 -144.779057 
L 631.804242 -145.974517 
L 631.703781 -147.169977 
L 631.596274 -148.365437 
L 631.48233 -149.560897 
L 631.362575 -150.756357 
L 631.237656 -151.951817 
L 631.108244 -153.147277 
L 630.975037 -154.342737 
L 630.83876 -155.538196 
L 630.700169 -156.733656 
L 630.560047 -157.929116 
L 630.419203 -159.124576 
L 630.278469 -160.320036 
L 630.138697 -161.515496 
L 630.000753 -162.710956 
L 629.865514 -163.906416 
L 629.733858 -165.101876 
L 629.606657 -166.297336 
L 629.484775 -167.492796 
L 629.369053 -168.688256 
L 629.260304 -169.883716 
L 629.159308 -171.079176 
L 629.066796 -172.274636 
L 628.983451 -173.470096 
L 628.909893 -174.665555 
L 628.846676 -175.861015 
L 628.794282 -177.056475 
L 628.753112 -178.251935 
L 628.723484 -179.447395 
L 628.705628 -180.642855 
L 628.699685 -181.838315 
L 638.047237 -181.838315 
L 638.047237 -181.838315 
L 638.041294 -180.642855 
L 638.023439 -179.447395 
L 637.993811 -178.251935 
L 637.95264 -177.056475 
L 637.900246 -175.861015 
L 637.83703 -174.665555 
L 637.763472 -173.470096 
L 637.680126 -172.274636 
L 637.587615 -171.079176 
L 637.486618 -169.883716 
L 637.37787 -168.688256 
L 637.262147 -167.492796 
L 637.140265 -166.297336 
L 637.013065 -165.101876 
L 636.881408 -163.906416 
L 636.746169 -162.710956 
L 636.608226 -161.515496 
L 636.468454 -160.320036 
L 636.32772 -159.124576 
L 636.186875 -157.929116 
L 636.046753 -156.733656 
L 635.908162 -155.538196 
L 635.771886 -154.342737 
L 635.638678 -153.147277 
L 635.509266 -151.951817 
L 635.384347 -150.756357 
L 635.264592 -149.560897 
L 635.150648 -148.365437 
L 635.043141 -147.169977 
L 634.94268 -145.974517 
L 634.849863 -144.779057 
L 634.765285 -143.583597 
L 634.689542 -142.388137 
L 634.62324 -141.192677 
L 634.567003 -139.997217 
L 634.52148 -138.801757 
L 634.487358 -137.606297 
L 634.465363 -136.410837 
L 634.456275 -135.215377 
L 634.460934 -134.019918 
L 634.480245 -132.824458 
L 634.515188 -131.628998 
L 634.566823 -130.433538 
L 634.636293 -129.238078 
L 634.724828 -128.042618 
L 634.833748 -126.847158 
L 634.964463 -125.651698 
L 635.118469 -124.456238 
L 635.297346 -123.260778 
L 635.502749 -122.065318 
L 635.736404 -120.869858 
L 636.000092 -119.674398 
L 636.295637 -118.478938 
L 636.624889 -117.283478 
L 636.989706 -116.088018 
L 637.391931 -114.892559 
L 637.833365 -113.697099 
L 638.315746 -112.501639 
L 638.840713 -111.306179 
L 639.409779 -110.110719 
L 640.024299 -108.915259 
L 640.685429 -107.719799 
L 641.394098 -106.524339 
L 642.150971 -105.328879 
L 642.95641 -104.133419 
L 643.810441 -102.937959 
L 644.712723 -101.742499 
L 645.662514 -100.547039 
L 646.658643 -99.351579 
L 647.699486 -98.156119 
L 648.782943 -96.960659 
L 649.906423 -95.765199 
L 651.066832 -94.56974 
L 652.26057 -93.37428 
L 653.483531 -92.17882 
L 654.731111 -90.98336 
L 655.998224 -89.7879 
L 657.279327 -88.59244 
L 658.568449 -87.39698 
L 659.859226 -86.20152 
L 661.144952 -85.00606 
L 662.418628 -83.8106 
L 663.673022 -82.61514 
L 664.900732 -81.41968 
L 666.094258 -80.22422 
L 667.246073 -79.02876 
L 668.348706 -77.8333 
L 669.394814 -76.63784 
L 670.377268 -75.44238 
L 671.289231 -74.246921 
L 672.124238 -73.051461 
L 672.876271 -71.856001 
L 673.539831 -70.660541 
L 674.110004 -69.465081 
L 674.582525 -68.269621 
L 674.953828 -67.074161 
L 675.22109 -65.878701 
L 675.382269 -64.683241 
L 675.436131 -63.487781 
z
" style="stroke: #000000; stroke-opacity: 0.4"/>
    </defs>
    <g clip-path="url(#p1f08c93ae8)">
     <use xlink:href="#m3adea0cf10" x="0" y="432" style="fill: #fde725; fill-opacity: 0.4; stroke: #000000; stroke-opacity: 0.4"/>
    </g>
   </g>
   <g id="matplotlib.axis_1">
    <g id="xtick_1">
     <g id="line2d_1">
      <defs>
       <path id="m6f9275907f" d="M 0 0 
L 0 3.5 
" style="stroke: #000000; stroke-width: 0.8"/>
      </defs>
      <g>
       <use xlink:href="#m6f9275907f" x="128.621423" y="384.626418" style="stroke: #000000; stroke-width: 0.8"/>
      </g>
     </g>
     <g id="text_1">
      <!-- Borda rule -->
      <g transform="translate(103.096239 399.236765) scale(0.11 -0.11)">
       <defs>
        <path id="CMR17-42" d="M 333 4352 
L 333 4186 
C 774 4186 845 4186 845 3900 
L 845 452 
C 845 166 774 166 333 166 
L 333 0 
L 2534 0 
C 3354 0 3885 583 3885 1164 
C 3885 1741 3360 2233 2675 2233 
C 3290 2356 3718 2771 3718 3264 
C 3718 3802 3194 4352 2368 4352 
L 333 4352 
z
M 1248 2304 
L 1248 3937 
C 1248 4155 1261 4186 1517 4186 
L 2336 4186 
C 2970 4186 3251 3674 3251 3277 
C 3251 2791 2861 2304 2170 2304 
L 1248 2304 
z
M 1517 166 
C 1261 166 1248 197 1248 413 
L 1248 2202 
L 2432 2202 
C 3091 2202 3411 1625 3411 1162 
C 3411 699 3046 166 2349 166 
L 1517 166 
z
" transform="scale(0.015625)"/>
        <path id="CMR17-6f" d="M 2758 1356 
C 2758 2176 2163 2816 1466 2816 
C 768 2816 173 2176 173 1356 
C 173 551 768 -64 1466 -64 
C 2163 -64 2758 551 2758 1356 
z
M 1466 51 
C 1165 51 909 230 762 480 
C 602 767 582 1126 582 1408 
C 582 1677 595 2010 762 2298 
C 890 2509 1139 2714 1466 2714 
C 1754 2714 1997 2554 2150 2330 
C 2349 2029 2349 1607 2349 1408 
C 2349 1158 2336 775 2163 467 
C 1984 173 1709 51 1466 51 
z
" transform="scale(0.015625)"/>
        <path id="CMR17-72" d="M 960 1497 
C 960 2112 1222 2688 1702 2688 
C 1747 2688 1792 2682 1837 2662 
C 1837 2662 1696 2617 1696 2452 
C 1696 2298 1818 2234 1914 2234 
C 1990 2234 2131 2279 2131 2458 
C 2131 2663 1926 2790 1709 2790 
C 1222 2790 1011 2317 947 2093 
L 941 2093 
L 941 2790 
L 198 2720 
L 198 2554 
C 576 2554 634 2515 634 2208 
L 634 428 
C 634 184 608 153 198 153 
L 198 -13 
C 352 0 646 0 813 0 
C 998 0 1325 0 1498 -13 
L 1498 153 
C 1037 153 960 153 960 440 
L 960 1497 
z
" transform="scale(0.015625)"/>
        <path id="CMR17-64" d="M 1869 4326 
L 1869 4160 
C 2246 4160 2304 4122 2304 3820 
L 2304 2345 
C 2278 2377 2016 2790 1498 2790 
C 845 2790 211 2208 211 1364 
C 211 525 806 -64 1434 -64 
C 1978 -64 2259 337 2291 380 
L 2291 -63 
L 3066 -63 
L 3066 128 
C 2688 128 2630 166 2630 473 
L 2630 4396 
L 1869 4326 
z
M 2291 755 
C 2291 563 2176 390 2029 262 
C 1811 70 1594 38 1472 38 
C 1286 38 621 134 621 1356 
C 621 2612 1363 2688 1530 2688 
C 1824 2688 2061 2522 2208 2291 
C 2291 2157 2291 2138 2291 2023 
L 2291 755 
z
" transform="scale(0.015625)"/>
        <path id="CMR17-61" d="M 2304 1653 
C 2304 2072 2304 2294 2035 2543 
C 1798 2752 1523 2816 1306 2816 
C 800 2816 435 2407 435 1971 
C 435 1728 627 1728 666 1728 
C 749 1728 896 1778 896 1954 
C 896 2112 774 2181 666 2181 
C 640 2181 608 2174 589 2168 
C 723 2592 1069 2714 1293 2714 
C 1613 2714 1965 2429 1965 1885 
L 1965 1600 
C 1587 1600 1133 1549 774 1357 
C 371 1133 256 813 256 570 
C 256 77 832 -64 1171 -64 
C 1523 -64 1850 139 1990 511 
C 2003 233 2182 -18 2464 -18 
C 2598 -18 2938 70 2938 567 
L 2938 920 
L 2822 920 
L 2822 562 
C 2822 178 2650 128 2566 128 
C 2304 128 2304 458 2304 738 
L 2304 1653 
z
M 1965 870 
C 1965 317 1568 38 1216 38 
C 896 38 646 275 646 570 
C 646 761 730 1100 1101 1305 
C 1408 1478 1760 1504 1965 1504 
L 1965 870 
z
" transform="scale(0.015625)"/>
        <path id="CMR17-75" d="M 1882 2693 
L 1882 2528 
C 2259 2528 2317 2489 2317 2186 
L 2317 1032 
C 2317 500 2029 38 1555 38 
C 1030 38 986 348 986 678 
L 986 2763 
L 211 2693 
L 211 2528 
C 467 2528 640 2528 646 2274 
L 646 1058 
C 646 633 646 361 813 183 
C 896 101 1056 -64 1517 -64 
C 2061 -64 2272 377 2323 506 
L 2330 506 
L 2330 -63 
L 3091 -63 
L 3091 128 
C 2714 128 2656 166 2656 473 
L 2656 2763 
L 1882 2693 
z
" transform="scale(0.015625)"/>
        <path id="CMR17-6c" d="M 979 4396 
L 218 4326 
L 218 4160 
C 595 4160 653 4122 653 3817 
L 653 426 
C 653 184 627 153 218 153 
L 218 -13 
C 371 0 653 0 813 0 
C 979 0 1261 0 1414 -13 
L 1414 153 
C 1005 153 979 178 979 426 
L 979 4396 
z
" transform="scale(0.015625)"/>
        <path id="CMR17-65" d="M 2438 1472 
C 2464 1498 2464 1511 2464 1576 
C 2464 2238 2118 2816 1389 2816 
C 710 2816 173 2169 173 1383 
C 173 551 781 -64 1459 -64 
C 2176 -64 2458 607 2458 740 
C 2458 784 2419 784 2406 784 
C 2362 784 2355 771 2330 696 
C 2189 265 1837 51 1504 51 
C 1229 51 954 203 781 480 
C 582 803 582 1176 582 1472 
L 2438 1472 
z
M 589 1568 
C 634 2505 1126 2714 1382 2714 
C 1818 2714 2112 2297 2118 1568 
L 589 1568 
z
" transform="scale(0.015625)"/>
       </defs>
       <use xlink:href="#CMR17-42" transform="scale(0.996264)"/>
       <use xlink:href="#CMR17-6f" transform="translate(65.188754 0) scale(0.996264)"/>
       <use xlink:href="#CMR17-72" transform="translate(110.879232 0) scale(0.996264)"/>
       <use xlink:href="#CMR17-64" transform="translate(146.159999 0) scale(0.996264)"/>
       <use xlink:href="#CMR17-61" transform="translate(197.055369 0) scale(0.996264)"/>
       <use xlink:href="#CMR17-72" transform="translate(272.821813 0) scale(0.996264)"/>
       <use xlink:href="#CMR17-75" transform="translate(308.10258 0) scale(0.996264)"/>
       <use xlink:href="#CMR17-6c" transform="translate(358.99795 0) scale(0.996264)"/>
       <use xlink:href="#CMR17-65" transform="translate(383.869009 0) scale(0.996264)"/>
      </g>
     </g>
    </g>
    <g id="xtick_2">
     <g id="line2d_2">
      <g>
       <use xlink:href="#m6f9275907f" x="296.872102" y="384.626418" style="stroke: #000000; stroke-width: 0.8"/>
      </g>
     </g>
     <g id="text_2">
      <!-- Copeland's Rule -->
      <g transform="translate(257.648273 399.236765) scale(0.11 -0.11)">
       <defs>
        <path id="CMR17-43" d="M 3974 4289 
C 3974 4403 3968 4410 3930 4410 
C 3904 4410 3898 4403 3853 4327 
L 3571 3792 
C 3258 4187 2874 4416 2381 4416 
C 1286 4416 294 3456 294 2148 
C 294 826 1286 -128 2387 -128 
C 3366 -128 3974 730 3974 1461 
C 3974 1524 3974 1550 3917 1550 
C 3866 1550 3866 1531 3859 1474 
C 3808 585 3168 38 2477 38 
C 1824 38 781 495 781 2147 
C 781 3805 1843 4250 2464 4250 
C 3187 4250 3712 3628 3834 2745 
C 3846 2668 3846 2655 3904 2655 
C 3974 2655 3974 2668 3974 2783 
L 3974 4289 
z
" transform="scale(0.015625)"/>
        <path id="CMR17-70" d="M 1408 -1063 
C 998 -1063 973 -1037 973 -789 
L 973 402 
C 1158 134 1427 -38 1766 -38 
C 2406 -38 3053 523 3053 1388 
C 3053 2191 2496 2802 1837 2802 
C 1453 2802 1139 2592 960 2338 
L 960 2802 
L 198 2732 
L 198 2567 
C 576 2567 634 2528 634 2223 
L 634 -789 
C 634 -1031 608 -1063 198 -1063 
L 198 -1228 
C 352 -1216 634 -1216 800 -1216 
C 966 -1216 1254 -1216 1408 -1228 
L 1408 -1063 
z
M 973 2012 
C 973 2102 973 2235 1222 2471 
C 1254 2497 1472 2688 1792 2688 
C 2259 2688 2643 2108 2643 1382 
C 2643 656 2234 64 1728 64 
C 1498 64 1248 172 1056 472 
C 973 612 973 650 973 752 
L 973 2012 
z
" transform="scale(0.015625)"/>
        <path id="CMR17-6e" d="M 2656 1933 
C 2656 2259 2592 2790 1837 2790 
C 1331 2790 1069 2400 973 2144 
L 966 2144 
L 966 2790 
L 211 2720 
L 211 2554 
C 589 2554 646 2515 646 2208 
L 646 428 
C 646 184 621 153 211 153 
L 211 -13 
C 365 0 646 0 813 0 
C 979 0 1267 0 1421 -13 
L 1421 153 
C 1011 153 986 178 986 428 
L 986 1658 
C 986 2247 1344 2688 1792 2688 
C 2266 2688 2317 2266 2317 1958 
L 2317 428 
C 2317 184 2291 153 1882 153 
L 1882 -13 
C 2035 0 2317 0 2483 0 
C 2650 0 2938 0 3091 -13 
L 3091 153 
C 2682 153 2656 178 2656 428 
L 2656 1933 
z
" transform="scale(0.015625)"/>
        <path id="CMR17-27" d="M 1024 4025 
C 1037 3955 1043 3929 1043 3820 
C 1043 3415 883 3042 634 2778 
C 608 2752 595 2733 595 2707 
C 595 2681 621 2656 646 2656 
C 691 2656 1146 3105 1146 3811 
C 1146 3952 1133 4426 800 4426 
C 659 4426 538 4331 538 4165 
C 538 3999 659 3904 800 3904 
C 858 3904 966 3923 1024 4025 
z
" transform="scale(0.015625)"/>
        <path id="CMR17-73" d="M 1978 2697 
C 1978 2813 1971 2819 1933 2819 
C 1907 2819 1901 2813 1824 2717 
C 1805 2691 1747 2626 1728 2601 
C 1523 2819 1235 2819 1126 2819 
C 416 2819 160 2447 160 2076 
C 160 1498 813 1365 998 1325 
C 1402 1243 1542 1217 1677 1101 
C 1760 1025 1901 884 1901 654 
C 1901 384 1747 38 1158 38 
C 602 38 403 460 288 1021 
C 269 1110 269 1117 218 1117 
C 166 1117 160 1110 160 983 
L 160 63 
C 160 -51 166 -58 205 -58 
C 237 -58 243 -51 275 0 
C 314 57 410 211 448 276 
C 576 103 800 -64 1158 -64 
C 1792 -64 2131 283 2131 784 
C 2131 1112 1958 1285 1875 1362 
C 1683 1561 1459 1606 1190 1657 
C 838 1735 390 1825 390 2217 
C 390 2383 480 2737 1126 2737 
C 1811 2737 1850 2094 1862 1888 
C 1869 1856 1901 1849 1920 1849 
C 1978 1849 1978 1869 1978 1978 
L 1978 2697 
z
" transform="scale(0.015625)"/>
        <path id="CMR17-52" d="M 2509 2146 
C 3117 2268 3629 2676 3629 3186 
C 3629 3785 2950 4326 2054 4326 
L 333 4326 
L 333 4160 
C 774 4160 845 4160 845 3873 
L 845 415 
C 845 128 774 128 333 128 
L 333 -26 
C 518 -26 851 -26 1050 -26 
C 1248 -26 1581 -26 1766 -26 
L 1766 128 
C 1325 128 1254 128 1254 417 
L 1254 2112 
L 2003 2112 
C 2368 2112 2573 1964 2662 1881 
C 2918 1632 2918 1459 2918 1024 
C 2918 595 2918 377 3110 160 
C 3354 -102 3680 -128 3821 -128 
C 4294 -128 4365 396 4365 503 
C 4365 540 4365 585 4307 585 
C 4256 585 4250 547 4250 522 
C 4218 112 4032 -26 3834 -26 
C 3482 -26 3443 375 3405 764 
C 3386 898 3373 993 3360 1133 
C 3322 1452 3270 1917 2509 2146 
z
M 1984 2214 
L 1254 2214 
L 1254 3913 
C 1254 4129 1267 4160 1523 4160 
L 1990 4160 
C 2522 4160 3142 3977 3142 3190 
C 3142 2372 2464 2214 1984 2214 
z
" transform="scale(0.015625)"/>
       </defs>
       <use xlink:href="#CMR17-43" transform="scale(0.996264)"/>
       <use xlink:href="#CMR17-6f" transform="translate(66.509881 0) scale(0.996264)"/>
       <use xlink:href="#CMR17-70" transform="translate(112.200358 0) scale(0.996264)"/>
       <use xlink:href="#CMR17-65" transform="translate(165.698166 0) scale(0.996264)"/>
       <use xlink:href="#CMR17-6c" transform="translate(206.183827 0) scale(0.996264)"/>
       <use xlink:href="#CMR17-61" transform="translate(231.054885 0) scale(0.996264)"/>
       <use xlink:href="#CMR17-6e" transform="translate(276.745362 0) scale(0.996264)"/>
       <use xlink:href="#CMR17-64" transform="translate(327.640732 0) scale(0.996264)"/>
       <use xlink:href="#CMR17-27" transform="translate(378.536102 0) scale(0.996264)"/>
       <use xlink:href="#CMR17-73" transform="translate(403.40716 0) scale(0.996264)"/>
       <use xlink:href="#CMR17-52" transform="translate(469.284464 0) scale(0.996264)"/>
       <use xlink:href="#CMR17-75" transform="translate(537.075566 0) scale(0.996264)"/>
       <use xlink:href="#CMR17-6c" transform="translate(587.970936 0) scale(0.996264)"/>
       <use xlink:href="#CMR17-65" transform="translate(612.841994 0) scale(0.996264)"/>
      </g>
     </g>
    </g>
    <g id="xtick_3">
     <g id="line2d_3">
      <g>
       <use xlink:href="#m6f9275907f" x="465.122782" y="384.626418" style="stroke: #000000; stroke-width: 0.8"/>
      </g>
     </g>
     <g id="text_3">
      <!-- Plurality rule -->
      <g transform="translate(433.052699 399.236765) scale(0.11 -0.11)">
       <defs>
        <path id="CMR17-50" d="M 1267 2042 
L 2291 2042 
C 3117 2042 3718 2578 3718 3184 
C 3718 3791 3130 4352 2291 4352 
L 333 4352 
L 333 4186 
C 774 4186 845 4186 845 3899 
L 845 446 
C 845 160 774 160 333 160 
L 333 0 
C 518 0 858 0 1056 0 
C 1254 0 1594 0 1779 0 
L 1779 160 
C 1338 160 1267 160 1267 446 
L 1267 2042 
z
M 1254 2176 
L 1254 3938 
C 1254 4155 1267 4186 1523 4186 
L 2170 4186 
C 2995 4186 3232 3714 3232 3184 
C 3232 2604 2950 2176 2170 2176 
L 1254 2176 
z
" transform="scale(0.015625)"/>
        <path id="CMR17-69" d="M 992 3909 
C 992 4049 877 4170 730 4170 
C 589 4170 467 4056 467 3909 
C 467 3769 582 3648 730 3648 
C 870 3648 992 3763 992 3909 
z
M 243 2706 
L 243 2541 
C 602 2541 653 2502 653 2197 
L 653 427 
C 653 184 627 153 218 153 
L 218 -13 
C 371 0 646 0 806 0 
C 960 0 1222 0 1370 -13 
L 1370 153 
C 992 153 979 191 979 420 
L 979 2776 
L 243 2706 
z
" transform="scale(0.015625)"/>
        <path id="CMR17-74" d="M 966 2560 
L 1862 2560 
L 1862 2725 
L 966 2725 
L 966 3904 
L 851 3904 
C 838 3245 614 2668 70 2668 
L 70 2560 
L 627 2560 
L 627 771 
C 627 650 627 -64 1370 -64 
C 1747 -64 1965 306 1965 777 
L 1965 1140 
L 1850 1140 
L 1850 783 
C 1850 344 1677 51 1408 51 
C 1222 51 966 178 966 758 
L 966 2560 
z
" transform="scale(0.015625)"/>
        <path id="CMR17-79" d="M 2496 2197 
C 2656 2586 2944 2586 3034 2586 
L 3034 2752 
C 2912 2752 2752 2752 2630 2752 
C 2496 2752 2285 2752 2157 2758 
L 2157 2592 
C 2400 2573 2406 2394 2406 2343 
C 2406 2280 2394 2248 2362 2171 
L 1664 449 
L 902 2306 
C 870 2382 870 2426 870 2433 
C 870 2573 1018 2586 1171 2586 
L 1171 2758 
C 1018 2752 742 2752 582 2752 
C 410 2752 205 2752 64 2758 
L 64 2586 
C 410 2586 448 2554 531 2350 
L 1485 15 
C 1197 -738 1030 -1178 627 -1178 
C 557 -1178 397 -1159 282 -1044 
C 429 -1031 493 -942 493 -833 
C 493 -725 416 -629 288 -629 
C 147 -629 77 -725 77 -840 
C 77 -1095 339 -1280 627 -1280 
C 998 -1280 1229 -922 1357 -604 
L 2496 2197 
z
" transform="scale(0.015625)"/>
       </defs>
       <use xlink:href="#CMR17-50" transform="scale(0.996264)"/>
       <use xlink:href="#CMR17-6c" transform="translate(62.586301 0) scale(0.996264)"/>
       <use xlink:href="#CMR17-75" transform="translate(87.457359 0) scale(0.996264)"/>
       <use xlink:href="#CMR17-72" transform="translate(138.352729 0) scale(0.996264)"/>
       <use xlink:href="#CMR17-61" transform="translate(173.633497 0) scale(0.996264)"/>
       <use xlink:href="#CMR17-6c" transform="translate(219.323974 0) scale(0.996264)"/>
       <use xlink:href="#CMR17-69" transform="translate(244.195032 0) scale(0.996264)"/>
       <use xlink:href="#CMR17-74" transform="translate(269.066091 0) scale(0.996264)"/>
       <use xlink:href="#CMR17-79" transform="translate(301.744405 0) scale(0.996264)"/>
       <use xlink:href="#CMR17-72" transform="translate(380.113287 0) scale(0.996264)"/>
       <use xlink:href="#CMR17-75" transform="translate(415.394055 0) scale(0.996264)"/>
       <use xlink:href="#CMR17-6c" transform="translate(466.289424 0) scale(0.996264)"/>
       <use xlink:href="#CMR17-65" transform="translate(491.160483 0) scale(0.996264)"/>
      </g>
     </g>
    </g>
    <g id="xtick_4">
     <g id="line2d_4">
      <g>
       <use xlink:href="#m6f9275907f" x="633.373461" y="384.626418" style="stroke: #000000; stroke-width: 0.8"/>
      </g>
     </g>
     <g id="text_4">
      <!-- Black's Rule -->
      <g transform="translate(603.510396 399.236765) scale(0.11 -0.11)">
       <defs>
        <path id="CMR17-63" d="M 2234 2240 
C 2112 2240 1933 2240 1933 2017 
C 1933 1838 2080 1787 2163 1787 
C 2208 1787 2394 1807 2394 2024 
C 2394 2467 1958 2803 1466 2803 
C 787 2803 211 2178 211 1363 
C 211 516 813 -64 1466 -64 
C 2259 -64 2458 677 2458 748 
C 2458 774 2451 793 2406 793 
C 2362 793 2355 787 2330 703 
C 2163 180 1798 51 1523 51 
C 1114 51 621 427 621 1369 
C 621 2338 1094 2688 1472 2688 
C 1722 2688 2093 2573 2234 2240 
z
" transform="scale(0.015625)"/>
        <path id="CMR17-6b" d="M 1670 1673 
C 1664 1686 1632 1724 1632 1743 
C 1632 1756 2086 2171 2144 2222 
C 2509 2528 2739 2560 2906 2560 
L 2906 2733 
C 2867 2733 2854 2733 2848 2720 
L 2534 2720 
C 2355 2720 2080 2720 1907 2733 
L 1907 2566 
C 1997 2559 2061 2508 2061 2419 
C 2061 2291 1933 2170 1926 2170 
L 960 1289 
L 960 4396 
L 198 4326 
L 198 4160 
C 576 4160 634 4122 634 3817 
L 634 426 
C 634 184 608 153 198 153 
L 198 -13 
C 352 0 634 0 794 0 
C 954 0 1235 0 1389 -13 
L 1389 153 
C 979 153 954 178 954 428 
L 954 1130 
L 1395 1532 
L 2042 574 
C 2118 459 2182 369 2182 286 
C 2182 172 2067 153 1990 153 
L 1990 -13 
C 2144 0 2419 0 2579 0 
C 2694 0 2931 0 3040 0 
L 3040 153 
C 2739 153 2669 210 2477 491 
L 1670 1673 
z
" transform="scale(0.015625)"/>
       </defs>
       <use xlink:href="#CMR17-42" transform="scale(0.996264)"/>
       <use xlink:href="#CMR17-6c" transform="translate(65.188754 0) scale(0.996264)"/>
       <use xlink:href="#CMR17-61" transform="translate(90.059813 0) scale(0.996264)"/>
       <use xlink:href="#CMR17-63" transform="translate(135.75029 0) scale(0.996264)"/>
       <use xlink:href="#CMR17-6b" transform="translate(173.633497 0) scale(0.996264)"/>
       <use xlink:href="#CMR17-27" transform="translate(221.926412 0) scale(0.996264)"/>
       <use xlink:href="#CMR17-73" transform="translate(246.797471 0) scale(0.996264)"/>
       <use xlink:href="#CMR17-52" transform="translate(312.674775 0) scale(0.996264)"/>
       <use xlink:href="#CMR17-75" transform="translate(380.465877 0) scale(0.996264)"/>
       <use xlink:href="#CMR17-6c" transform="translate(431.361247 0) scale(0.996264)"/>
       <use xlink:href="#CMR17-65" transform="translate(456.232305 0) scale(0.996264)"/>
      </g>
     </g>
    </g>
    <g id="text_5">
     <!-- Number of voters -->
     <g transform="translate(332.704412 414.361688) scale(0.13 -0.13)">
      <defs>
       <path id="CMR17-4e" d="M 1312 4250 
C 1267 4320 1261 4320 1139 4320 
L 326 4320 
L 326 4160 
L 448 4160 
C 704 4160 819 4129 838 4122 
L 838 610 
C 838 451 838 153 326 153 
L 326 -13 
C 474 0 742 0 902 0 
C 1062 0 1331 0 1478 -13 
L 1478 153 
C 966 153 966 451 966 610 
L 966 4033 
C 1011 3995 1011 3982 1056 3919 
L 3430 76 
C 3475 0 3494 0 3526 0 
C 3590 0 3590 19 3590 139 
L 3590 3705 
C 3590 3863 3590 4160 4102 4160 
L 4102 4326 
C 3955 4320 3686 4320 3526 4320 
C 3366 4320 3098 4320 2950 4326 
L 2950 4160 
C 3462 4160 3462 3862 3462 3703 
L 3462 763 
L 1312 4250 
z
" transform="scale(0.015625)"/>
       <path id="CMR17-6d" d="M 4326 1933 
C 4326 2252 4269 2790 3507 2790 
C 3072 2790 2771 2496 2656 2151 
L 2650 2151 
C 2573 2676 2195 2790 1837 2790 
C 1331 2790 1069 2400 973 2144 
L 966 2144 
L 966 2790 
L 211 2720 
L 211 2554 
C 589 2554 646 2515 646 2208 
L 646 428 
C 646 184 621 153 211 153 
L 211 -13 
C 365 0 646 0 813 0 
C 979 0 1267 0 1421 -13 
L 1421 153 
C 1011 153 986 178 986 428 
L 986 1658 
C 986 2247 1344 2688 1792 2688 
C 2266 2688 2317 2266 2317 1958 
L 2317 428 
C 2317 184 2291 153 1882 153 
L 1882 -13 
C 2035 0 2317 0 2483 0 
C 2650 0 2938 0 3091 -13 
L 3091 153 
C 2682 153 2656 178 2656 428 
L 2656 1658 
C 2656 2247 3014 2688 3462 2688 
C 3936 2688 3987 2266 3987 1958 
L 3987 428 
C 3987 184 3962 153 3552 153 
L 3552 -13 
C 3706 0 3987 0 4154 0 
C 4320 0 4608 0 4762 -13 
L 4762 153 
C 4352 153 4326 178 4326 428 
L 4326 1933 
z
" transform="scale(0.015625)"/>
       <path id="CMR17-62" d="M 960 4396 
L 198 4326 
L 198 4160 
C 576 4160 634 4122 634 3817 
L 634 -13 
L 749 -13 
L 934 441 
C 1120 141 1395 -64 1766 -64 
C 2406 -64 3053 500 3053 1370 
C 3053 2188 2477 2790 1830 2790 
C 1434 2790 1152 2579 960 2330 
L 960 4396 
z
M 973 2004 
C 973 2118 973 2138 1062 2272 
C 1312 2657 1670 2688 1792 2688 
C 1984 2688 2643 2585 2643 1376 
C 2643 108 1888 38 1734 38 
C 1536 38 1248 114 1043 486 
C 973 608 973 621 973 735 
L 973 2004 
z
" transform="scale(0.015625)"/>
       <path id="CMR17-66" d="M 979 2560 
L 1709 2560 
L 1709 2725 
L 966 2725 
L 966 3494 
C 966 4022 1235 4352 1510 4352 
C 1594 4352 1690 4327 1754 4282 
C 1702 4269 1568 4225 1568 4067 
C 1568 3901 1696 3850 1786 3850 
C 1875 3850 2003 3901 2003 4067 
C 2003 4308 1773 4454 1517 4454 
C 1152 4454 653 4156 653 3481 
L 653 2725 
L 141 2725 
L 141 2560 
L 653 2560 
L 653 427 
C 653 184 627 153 218 153 
L 218 -13 
C 371 0 666 0 832 0 
C 1018 0 1344 0 1517 -13 
L 1517 153 
C 1056 153 979 153 979 439 
L 979 2560 
z
" transform="scale(0.015625)"/>
       <path id="CMR17-76" d="M 2502 2163 
C 2560 2304 2662 2560 3034 2560 
L 3034 2726 
C 2912 2726 2752 2726 2630 2726 
C 2496 2726 2285 2726 2157 2732 
L 2157 2566 
C 2317 2553 2406 2477 2406 2311 
C 2406 2253 2406 2240 2368 2151 
L 1664 377 
L 902 2286 
C 864 2369 864 2381 864 2407 
C 864 2560 1075 2560 1171 2560 
L 1171 2732 
C 1018 2726 736 2726 576 2726 
C 403 2726 205 2726 64 2732 
L 64 2560 
C 307 2560 442 2560 518 2362 
L 1446 44 
C 1485 -51 1491 -64 1549 -64 
C 1606 -64 1613 -51 1651 44 
L 2502 2163 
z
" transform="scale(0.015625)"/>
      </defs>
      <use xlink:href="#CMR17-4e" transform="scale(0.996264)"/>
      <use xlink:href="#CMR17-75" transform="translate(69.07243 0) scale(0.996264)"/>
      <use xlink:href="#CMR17-6d" transform="translate(119.9678 0) scale(0.996264)"/>
      <use xlink:href="#CMR17-62" transform="translate(194.284936 0) scale(0.996264)"/>
      <use xlink:href="#CMR17-65" transform="translate(247.782744 0) scale(0.996264)"/>
      <use xlink:href="#CMR17-72" transform="translate(288.268404 0) scale(0.996264)"/>
      <use xlink:href="#CMR17-6f" transform="translate(353.625139 0) scale(0.996264)"/>
      <use xlink:href="#CMR17-66" transform="translate(399.315616 0) scale(0.996264)"/>
      <use xlink:href="#CMR17-76" transform="translate(456.865095 0) scale(0.996264)"/>
      <use xlink:href="#CMR17-6f" transform="translate(502.555556 0) scale(0.996264)"/>
      <use xlink:href="#CMR17-74" transform="translate(548.246034 0) scale(0.996264)"/>
      <use xlink:href="#CMR17-65" transform="translate(583.526801 0) scale(0.996264)"/>
      <use xlink:href="#CMR17-72" transform="translate(624.012462 0) scale(0.996264)"/>
      <use xlink:href="#CMR17-73" transform="translate(659.29323 0) scale(0.996264)"/>
     </g>
    </g>
   </g>
   <g id="matplotlib.axis_2">
    <g id="ytick_1">
     <g id="line2d_5">
      <path d="M 57.114884 368.512219 
L 704.88 368.512219 
" clip-path="url(#p1f08c93ae8)" style="fill: none; stroke: #b0b0b0; stroke-opacity: 0.3; stroke-linecap: square"/>
     </g>
     <g id="line2d_6">
      <defs>
       <path id="mb128be0b74" d="M 0 0 
L -3.5 0 
" style="stroke: #000000; stroke-width: 0.8"/>
      </defs>
      <g>
       <use xlink:href="#mb128be0b74" x="57.114884" y="368.512219" style="stroke: #000000; stroke-width: 0.8"/>
      </g>
     </g>
     <g id="text_6">
      <!-- $\mathdefault{1.00}$ -->
      <g transform="translate(30.63234 372.317392) scale(0.11 -0.11)">
       <defs>
        <path id="CMR17-31" d="M 1702 4058 
C 1702 4192 1696 4192 1606 4192 
C 1357 3916 979 3827 621 3827 
C 602 3827 570 3827 563 3808 
C 557 3795 557 3782 557 3648 
C 755 3648 1088 3686 1344 3839 
L 1344 461 
C 1344 236 1331 160 781 160 
L 589 160 
L 589 0 
C 896 0 1216 0 1523 0 
C 1830 0 2150 0 2458 0 
L 2458 160 
L 2266 160 
C 1715 160 1702 230 1702 458 
L 1702 4058 
z
" transform="scale(0.015625)"/>
        <path id="CMMI12-3a" d="M 1178 307 
C 1178 492 1024 619 870 619 
C 685 619 557 466 557 313 
C 557 128 710 0 864 0 
C 1050 0 1178 153 1178 307 
z
" transform="scale(0.015625)"/>
        <path id="CMR17-30" d="M 2688 2025 
C 2688 2416 2682 3080 2413 3591 
C 2176 4039 1798 4198 1466 4198 
C 1158 4198 768 4058 525 3597 
C 269 3118 243 2524 243 2025 
C 243 1661 250 1106 448 619 
C 723 -39 1216 -128 1466 -128 
C 1760 -128 2208 -7 2470 600 
C 2662 1042 2688 1559 2688 2025 
z
M 1466 -26 
C 1056 -26 813 325 723 812 
C 653 1188 653 1738 653 2096 
C 653 2588 653 2997 736 3387 
C 858 3929 1216 4096 1466 4096 
C 1728 4096 2067 3923 2189 3400 
C 2272 3036 2278 2607 2278 2096 
C 2278 1680 2278 1169 2202 792 
C 2067 95 1690 -26 1466 -26 
z
" transform="scale(0.015625)"/>
       </defs>
       <use xlink:href="#CMR17-31" transform="scale(0.996264)"/>
       <use xlink:href="#CMMI12-3a" transform="translate(45.690477 0) scale(0.996264)"/>
       <use xlink:href="#CMR17-30" transform="translate(72.787654 0) scale(0.996264)"/>
       <use xlink:href="#CMR17-30" transform="translate(118.478131 0) scale(0.996264)"/>
      </g>
     </g>
    </g>
    <g id="ytick_2">
     <g id="line2d_7">
      <path d="M 57.114884 313.672608 
L 704.88 313.672608 
" clip-path="url(#p1f08c93ae8)" style="fill: none; stroke: #b0b0b0; stroke-opacity: 0.3; stroke-linecap: square"/>
     </g>
     <g id="line2d_8">
      <g>
       <use xlink:href="#mb128be0b74" x="57.114884" y="313.672608" style="stroke: #000000; stroke-width: 0.8"/>
      </g>
     </g>
     <g id="text_7">
      <!-- $\mathdefault{1.05}$ -->
      <g transform="translate(30.63234 317.477781) scale(0.11 -0.11)">
       <defs>
        <path id="CMR17-35" d="M 730 3692 
C 794 3666 1056 3584 1325 3584 
C 1920 3584 2246 3911 2432 4100 
C 2432 4157 2432 4192 2394 4192 
C 2387 4192 2374 4192 2323 4163 
C 2099 4058 1837 3973 1517 3973 
C 1325 3973 1037 3999 723 4139 
C 653 4171 640 4171 634 4171 
C 602 4171 595 4164 595 4037 
L 595 2203 
C 595 2089 595 2057 659 2057 
C 691 2057 704 2070 736 2114 
C 941 2401 1222 2522 1542 2522 
C 1766 2522 2246 2382 2246 1289 
C 2246 1085 2246 715 2054 421 
C 1894 159 1645 25 1370 25 
C 947 25 518 320 403 814 
C 429 807 480 795 506 795 
C 589 795 749 840 749 1038 
C 749 1210 627 1280 506 1280 
C 358 1280 262 1190 262 1011 
C 262 454 704 -128 1382 -128 
C 2042 -128 2669 440 2669 1264 
C 2669 2030 2170 2624 1549 2624 
C 1222 2624 947 2503 730 2274 
L 730 3692 
z
" transform="scale(0.015625)"/>
       </defs>
       <use xlink:href="#CMR17-31" transform="scale(0.996264)"/>
       <use xlink:href="#CMMI12-3a" transform="translate(45.690477 0) scale(0.996264)"/>
       <use xlink:href="#CMR17-30" transform="translate(72.787654 0) scale(0.996264)"/>
       <use xlink:href="#CMR17-35" transform="translate(118.478131 0) scale(0.996264)"/>
      </g>
     </g>
    </g>
    <g id="ytick_3">
     <g id="line2d_9">
      <path d="M 57.114884 258.832997 
L 704.88 258.832997 
" clip-path="url(#p1f08c93ae8)" style="fill: none; stroke: #b0b0b0; stroke-opacity: 0.3; stroke-linecap: square"/>
     </g>
     <g id="line2d_10">
      <g>
       <use xlink:href="#mb128be0b74" x="57.114884" y="258.832997" style="stroke: #000000; stroke-width: 0.8"/>
      </g>
     </g>
     <g id="text_8">
      <!-- $\mathdefault{1.10}$ -->
      <g transform="translate(30.63234 262.63817) scale(0.11 -0.11)">
       <use xlink:href="#CMR17-31" transform="scale(0.996264)"/>
       <use xlink:href="#CMMI12-3a" transform="translate(45.690477 0) scale(0.996264)"/>
       <use xlink:href="#CMR17-31" transform="translate(72.787654 0) scale(0.996264)"/>
       <use xlink:href="#CMR17-30" transform="translate(118.478131 0) scale(0.996264)"/>
      </g>
     </g>
    </g>
    <g id="ytick_4">
     <g id="line2d_11">
      <path d="M 57.114884 203.993386 
L 704.88 203.993386 
" clip-path="url(#p1f08c93ae8)" style="fill: none; stroke: #b0b0b0; stroke-opacity: 0.3; stroke-linecap: square"/>
     </g>
     <g id="line2d_12">
      <g>
       <use xlink:href="#mb128be0b74" x="57.114884" y="203.993386" style="stroke: #000000; stroke-width: 0.8"/>
      </g>
     </g>
     <g id="text_9">
      <!-- $\mathdefault{1.15}$ -->
      <g transform="translate(30.63234 207.798559) scale(0.11 -0.11)">
       <use xlink:href="#CMR17-31" transform="scale(0.996264)"/>
       <use xlink:href="#CMMI12-3a" transform="translate(45.690477 0) scale(0.996264)"/>
       <use xlink:href="#CMR17-31" transform="translate(72.787654 0) scale(0.996264)"/>
       <use xlink:href="#CMR17-35" transform="translate(118.478131 0) scale(0.996264)"/>
      </g>
     </g>
    </g>
    <g id="ytick_5">
     <g id="line2d_13">
      <path d="M 57.114884 149.153775 
L 704.88 149.153775 
" clip-path="url(#p1f08c93ae8)" style="fill: none; stroke: #b0b0b0; stroke-opacity: 0.3; stroke-linecap: square"/>
     </g>
     <g id="line2d_14">
      <g>
       <use xlink:href="#mb128be0b74" x="57.114884" y="149.153775" style="stroke: #000000; stroke-width: 0.8"/>
      </g>
     </g>
     <g id="text_10">
      <!-- $\mathdefault{1.20}$ -->
      <g transform="translate(30.63234 152.958948) scale(0.11 -0.11)">
       <defs>
        <path id="CMR17-32" d="M 2669 989 
L 2554 989 
C 2490 536 2438 459 2413 420 
C 2381 369 1920 369 1830 369 
L 602 369 
C 832 619 1280 1072 1824 1597 
C 2214 1967 2669 2402 2669 3035 
C 2669 3790 2067 4224 1395 4224 
C 691 4224 262 3604 262 3030 
C 262 2780 448 2748 525 2748 
C 589 2748 781 2787 781 3010 
C 781 3207 614 3264 525 3264 
C 486 3264 448 3258 422 3245 
C 544 3790 915 4058 1306 4058 
C 1862 4058 2227 3617 2227 3035 
C 2227 2479 1901 2000 1536 1584 
L 262 146 
L 262 0 
L 2515 0 
L 2669 989 
z
" transform="scale(0.015625)"/>
       </defs>
       <use xlink:href="#CMR17-31" transform="scale(0.996264)"/>
       <use xlink:href="#CMMI12-3a" transform="translate(45.690477 0) scale(0.996264)"/>
       <use xlink:href="#CMR17-32" transform="translate(72.787654 0) scale(0.996264)"/>
       <use xlink:href="#CMR17-30" transform="translate(118.478131 0) scale(0.996264)"/>
      </g>
     </g>
    </g>
    <g id="ytick_6">
     <g id="line2d_15">
      <path d="M 57.114884 94.314164 
L 704.88 94.314164 
" clip-path="url(#p1f08c93ae8)" style="fill: none; stroke: #b0b0b0; stroke-opacity: 0.3; stroke-linecap: square"/>
     </g>
     <g id="line2d_16">
      <g>
       <use xlink:href="#mb128be0b74" x="57.114884" y="94.314164" style="stroke: #000000; stroke-width: 0.8"/>
      </g>
     </g>
     <g id="text_11">
      <!-- $\mathdefault{1.25}$ -->
      <g transform="translate(30.63234 98.119337) scale(0.11 -0.11)">
       <use xlink:href="#CMR17-31" transform="scale(0.996264)"/>
       <use xlink:href="#CMMI12-3a" transform="translate(45.690477 0) scale(0.996264)"/>
       <use xlink:href="#CMR17-32" transform="translate(72.787654 0) scale(0.996264)"/>
       <use xlink:href="#CMR17-35" transform="translate(118.478131 0) scale(0.996264)"/>
      </g>
     </g>
    </g>
    <g id="ytick_7">
     <g id="line2d_17">
      <path d="M 57.114884 39.474553 
L 704.88 39.474553 
" clip-path="url(#p1f08c93ae8)" style="fill: none; stroke: #b0b0b0; stroke-opacity: 0.3; stroke-linecap: square"/>
     </g>
     <g id="line2d_18">
      <g>
       <use xlink:href="#mb128be0b74" x="57.114884" y="39.474553" style="stroke: #000000; stroke-width: 0.8"/>
      </g>
     </g>
     <g id="text_12">
      <!-- $\mathdefault{1.30}$ -->
      <g transform="translate(30.63234 43.279726) scale(0.11 -0.11)">
       <defs>
        <path id="CMR17-33" d="M 1414 2157 
C 1984 2157 2234 1662 2234 1090 
C 2234 320 1824 25 1453 25 
C 1114 25 563 194 390 693 
C 422 680 454 680 486 680 
C 640 680 755 782 755 948 
C 755 1133 614 1216 486 1216 
C 378 1216 211 1165 211 926 
C 211 335 787 -128 1466 -128 
C 2176 -128 2720 430 2720 1085 
C 2720 1707 2208 2157 1600 2227 
C 2086 2328 2554 2756 2554 3329 
C 2554 3820 2048 4179 1472 4179 
C 890 4179 378 3829 378 3329 
C 378 3110 544 3072 627 3072 
C 762 3072 877 3155 877 3321 
C 877 3486 762 3569 627 3569 
C 602 3569 570 3569 544 3557 
C 730 3959 1235 4032 1459 4032 
C 1683 4032 2106 3925 2106 3320 
C 2106 3143 2080 2828 1862 2550 
C 1670 2304 1453 2304 1242 2284 
C 1210 2284 1062 2269 1037 2269 
C 992 2263 966 2257 966 2208 
C 966 2163 973 2157 1101 2157 
L 1414 2157 
z
" transform="scale(0.015625)"/>
       </defs>
       <use xlink:href="#CMR17-31" transform="scale(0.996264)"/>
       <use xlink:href="#CMMI12-3a" transform="translate(45.690477 0) scale(0.996264)"/>
       <use xlink:href="#CMR17-33" transform="translate(72.787654 0) scale(0.996264)"/>
       <use xlink:href="#CMR17-30" transform="translate(118.478131 0) scale(0.996264)"/>
      </g>
     </g>
    </g>
    <g id="text_13">
     <!-- Distortion -->
     <g transform="translate(24.114028 235.497321) rotate(-90) scale(0.13 -0.13)">
      <defs>
       <path id="CMR17-44" d="M 333 4352 
L 333 4186 
C 774 4186 845 4186 845 3900 
L 845 452 
C 845 166 774 166 333 166 
L 333 0 
L 2368 0 
C 3398 0 4224 943 4224 2141 
C 4224 3346 3411 4352 2368 4352 
L 333 4352 
z
M 1523 166 
C 1267 166 1254 197 1254 414 
L 1254 3938 
C 1254 4155 1267 4186 1523 4186 
L 2240 4186 
C 2771 4186 3750 3874 3750 2141 
C 3750 1242 3488 879 3366 707 
C 3213 510 2848 166 2240 166 
L 1523 166 
z
" transform="scale(0.015625)"/>
      </defs>
      <use xlink:href="#CMR17-44" transform="scale(0.996264)"/>
      <use xlink:href="#CMR17-69" transform="translate(70.393556 0) scale(0.996264)"/>
      <use xlink:href="#CMR17-73" transform="translate(95.264614 0) scale(0.996264)"/>
      <use xlink:href="#CMR17-74" transform="translate(131.065952 0) scale(0.996264)"/>
      <use xlink:href="#CMR17-6f" transform="translate(166.34672 0) scale(0.996264)"/>
      <use xlink:href="#CMR17-72" transform="translate(212.037197 0) scale(0.996264)"/>
      <use xlink:href="#CMR17-74" transform="translate(247.317965 0) scale(0.996264)"/>
      <use xlink:href="#CMR17-69" transform="translate(282.598733 0) scale(0.996264)"/>
      <use xlink:href="#CMR17-6f" transform="translate(307.469791 0) scale(0.996264)"/>
      <use xlink:href="#CMR17-6e" transform="translate(353.160268 0) scale(0.996264)"/>
     </g>
    </g>
   </g>
   <g id="LineCollection_1">
    <path d="M 107.590088 368.512219 
L 149.652757 368.512219 
" clip-path="url(#p1f08c93ae8)" style="fill: none; stroke: #1f77b4; stroke-width: 1.5"/>
    <path d="M 275.840767 319.493422 
L 317.903437 319.493422 
" clip-path="url(#p1f08c93ae8)" style="fill: none; stroke: #1f77b4; stroke-width: 1.5"/>
    <path d="M 444.091447 334.792528 
L 486.154117 334.792528 
" clip-path="url(#p1f08c93ae8)" style="fill: none; stroke: #1f77b4; stroke-width: 1.5"/>
    <path d="M 612.342126 356.677165 
L 654.404796 356.677165 
" clip-path="url(#p1f08c93ae8)" style="fill: none; stroke: #1f77b4; stroke-width: 1.5"/>
   </g>
   <g id="LineCollection_2">
    <path d="M 107.590088 368.512219 
L 149.652757 368.512219 
" clip-path="url(#p1f08c93ae8)" style="fill: none; stroke: #1f77b4; stroke-width: 1.5"/>
    <path d="M 275.840767 46.228228 
L 317.903437 46.228228 
" clip-path="url(#p1f08c93ae8)" style="fill: none; stroke: #1f77b4; stroke-width: 1.5"/>
    <path d="M 444.091447 131.178319 
L 486.154117 131.178319 
" clip-path="url(#p1f08c93ae8)" style="fill: none; stroke: #1f77b4; stroke-width: 1.5"/>
    <path d="M 612.342126 250.161685 
L 654.404796 250.161685 
" clip-path="url(#p1f08c93ae8)" style="fill: none; stroke: #1f77b4; stroke-width: 1.5"/>
   </g>
   <g id="LineCollection_3">
    <path d="M 107.590088 368.512219 
L 149.652757 368.512219 
" clip-path="url(#p1f08c93ae8)" style="fill: none; stroke: #1f77b4; stroke-width: 1.5"/>
    <path d="M 275.840767 368.512219 
L 317.903437 368.512219 
" clip-path="url(#p1f08c93ae8)" style="fill: none; stroke: #1f77b4; stroke-width: 1.5"/>
    <path d="M 444.091447 368.512219 
L 486.154117 368.512219 
" clip-path="url(#p1f08c93ae8)" style="fill: none; stroke: #1f77b4; stroke-width: 1.5"/>
    <path d="M 612.342126 368.512219 
L 654.404796 368.512219 
" clip-path="url(#p1f08c93ae8)" style="fill: none; stroke: #1f77b4; stroke-width: 1.5"/>
   </g>
   <g id="LineCollection_4">
    <path d="M 128.621423 368.512219 
L 128.621423 368.512219 
" clip-path="url(#p1f08c93ae8)" style="fill: none; stroke: #1f77b4; stroke-width: 1.5"/>
    <path d="M 296.872102 368.512219 
L 296.872102 46.228228 
" clip-path="url(#p1f08c93ae8)" style="fill: none; stroke: #1f77b4; stroke-width: 1.5"/>
    <path d="M 465.122782 368.512219 
L 465.122782 131.178319 
" clip-path="url(#p1f08c93ae8)" style="fill: none; stroke: #1f77b4; stroke-width: 1.5"/>
    <path d="M 633.373461 368.512219 
L 633.373461 250.161685 
" clip-path="url(#p1f08c93ae8)" style="fill: none; stroke: #1f77b4; stroke-width: 1.5"/>
   </g>
   <g id="patch_3">
    <path d="M 57.114884 384.626418 
L 57.114884 30.114028 
" style="fill: none; stroke: #000000; stroke-linejoin: miter; stroke-linecap: square"/>
   </g>
   <g id="patch_4">
    <path d="M 704.88 384.626418 
L 704.88 30.114028 
" style="fill: none; stroke: #000000; stroke-linejoin: miter; stroke-linecap: square"/>
   </g>
   <g id="patch_5">
    <path d="M 57.114884 384.626418 
L 704.88 384.626418 
" style="fill: none; stroke: #000000; stroke-linejoin: miter; stroke-linecap: square"/>
   </g>
   <g id="patch_6">
    <path d="M 57.114884 30.114028 
L 704.88 30.114028 
" style="fill: none; stroke: #000000; stroke-linejoin: miter; stroke-linecap: square"/>
   </g>
   <g id="text_14">
    <!-- Distortion Under Nash -->
    <g transform="translate(317.613283 24.114028) scale(0.13 -0.13)">
     <defs>
      <path id="CMR17-55" d="M 3456 1433 
C 3456 579 2899 38 2291 38 
C 1965 38 1670 210 1491 477 
C 1286 783 1261 1178 1261 1401 
L 1261 3874 
C 1261 4160 1331 4160 1773 4160 
L 1773 4320 
C 1587 4320 1248 4320 1050 4320 
C 851 4320 512 4320 326 4320 
L 326 4160 
C 768 4160 838 4160 838 3874 
L 838 1433 
C 838 516 1536 -128 2278 -128 
C 3110 -128 3590 719 3590 1344 
L 3590 3766 
C 3590 4122 3917 4160 4102 4160 
L 4102 4326 
C 3955 4320 3686 4320 3526 4320 
C 3366 4320 3091 4320 2944 4326 
L 2944 4160 
C 3456 4160 3456 3861 3456 3702 
L 3456 1433 
z
" transform="scale(0.015625)"/>
      <path id="CMR17-68" d="M 2656 1933 
C 2656 2259 2592 2790 1837 2790 
C 1312 2790 1056 2368 979 2157 
L 973 2157 
L 973 4396 
L 211 4326 
L 211 4160 
C 589 4160 646 4122 646 3817 
L 646 426 
C 646 184 621 153 211 153 
L 211 -13 
C 365 0 646 0 813 0 
C 979 0 1267 0 1421 -13 
L 1421 153 
C 1011 153 986 178 986 428 
L 986 1658 
C 986 2247 1344 2688 1792 2688 
C 2266 2688 2317 2266 2317 1958 
L 2317 428 
C 2317 184 2291 153 1882 153 
L 1882 -13 
C 2035 0 2317 0 2483 0 
C 2650 0 2938 0 3091 -13 
L 3091 153 
C 2682 153 2656 178 2656 428 
L 2656 1933 
z
" transform="scale(0.015625)"/>
     </defs>
     <use xlink:href="#CMR17-44" transform="scale(0.996264)"/>
     <use xlink:href="#CMR17-69" transform="translate(70.393556 0) scale(0.996264)"/>
     <use xlink:href="#CMR17-73" transform="translate(95.264614 0) scale(0.996264)"/>
     <use xlink:href="#CMR17-74" transform="translate(131.065952 0) scale(0.996264)"/>
     <use xlink:href="#CMR17-6f" transform="translate(166.34672 0) scale(0.996264)"/>
     <use xlink:href="#CMR17-72" transform="translate(212.037197 0) scale(0.996264)"/>
     <use xlink:href="#CMR17-74" transform="translate(247.317965 0) scale(0.996264)"/>
     <use xlink:href="#CMR17-69" transform="translate(282.598733 0) scale(0.996264)"/>
     <use xlink:href="#CMR17-6f" transform="translate(307.469791 0) scale(0.996264)"/>
     <use xlink:href="#CMR17-6e" transform="translate(353.160268 0) scale(0.996264)"/>
     <use xlink:href="#CMR17-55" transform="translate(434.131604 0) scale(0.996264)"/>
     <use xlink:href="#CMR17-6e" transform="translate(503.204034 0) scale(0.996264)"/>
     <use xlink:href="#CMR17-64" transform="translate(554.099404 0) scale(0.996264)"/>
     <use xlink:href="#CMR17-65" transform="translate(604.994774 0) scale(0.996264)"/>
     <use xlink:href="#CMR17-72" transform="translate(645.480434 0) scale(0.996264)"/>
     <use xlink:href="#CMR17-4e" transform="translate(710.837168 0) scale(0.996264)"/>
     <use xlink:href="#CMR17-61" transform="translate(779.909598 0) scale(0.996264)"/>
     <use xlink:href="#CMR17-73" transform="translate(825.600075 0) scale(0.996264)"/>
     <use xlink:href="#CMR17-68" transform="translate(861.401413 0) scale(0.996264)"/>
    </g>
   </g>
  </g>
 </g>
 <defs>
  <clipPath id="p1f08c93ae8">
   <rect x="57.114884" y="30.114028" width="647.765116" height="354.51239"/>
  </clipPath>
 </defs>
</svg>
