<?xml version="1.0" encoding="utf-8" standalone="no"?>
<!DOCTYPE svg PUBLIC "-//W3C//DTD SVG 1.1//EN"
  "http://www.w3.org/Graphics/SVG/1.1/DTD/svg11.dtd">
<svg xmlns:xlink="http://www.w3.org/1999/xlink" width="720pt" height="432pt" viewBox="0 0 720 432" xmlns="http://www.w3.org/2000/svg" version="1.1">
 <metadata>
  <rdf:RDF xmlns:dc="http://purl.org/dc/elements/1.1/" xmlns:cc="http://creativecommons.org/ns#" xmlns:rdf="http://www.w3.org/1999/02/22-rdf-syntax-ns#">
   <cc:Work>
    <dc:type rdf:resource="http://purl.org/dc/dcmitype/StillImage"/>
    <dc:date>2024-12-08T13:02:52.964053</dc:date>
    <dc:format>image/svg+xml</dc:format>
    <dc:creator>
     <cc:Agent>
      <dc:title>Matplotlib v3.9.2, https://matplotlib.org/</dc:title>
     </cc:Agent>
    </dc:creator>
   </cc:Work>
  </rdf:RDF>
 </metadata>
 <defs>
  <style type="text/css">*{stroke-linejoin: round; stroke-linecap: butt}</style>
 </defs>
 <g id="figure_1">
  <g id="patch_1">
   <path d="M 0 432 
L 720 432 
L 720 0 
L 0 0 
z
" style="fill: #ffffff"/>
  </g>
  <g id="axes_1">
   <g id="patch_2">
    <path d="M 48.591275 384.626418 
L 704.88 384.626418 
L 704.88 30.114028 
L 48.591275 30.114028 
z
" style="fill: #ffffff"/>
   </g>
   <g id="PolyCollection_1">
    <defs>
     <path id="mb5423011e4" d="M 150.126065 -63.487781 
L 91.951397 -63.487781 
L 89.181085 -66.743175 
L 86.620855 -69.998569 
L 84.338499 -73.253963 
L 82.389237 -76.509357 
L 80.812678 -79.76475 
L 79.631113 -83.020144 
L 78.849224 -86.275538 
L 78.455134 -89.530932 
L 78.42258 -92.786326 
L 78.713891 -96.04172 
L 79.283424 -99.297113 
L 80.081111 -102.552507 
L 81.05582 -105.807901 
L 82.158324 -109.063295 
L 83.343713 -112.318689 
L 84.573202 -115.574083 
L 85.815305 -118.829477 
L 87.046398 -122.08487 
L 88.250724 -125.340264 
L 89.419887 -128.595658 
L 90.55193 -131.851052 
L 91.650077 -135.106446 
L 92.721248 -138.36184 
L 93.774493 -141.617234 
L 94.819446 -144.872627 
L 95.864958 -148.128021 
L 96.917998 -151.383415 
L 97.982901 -154.638809 
L 99.061002 -157.894203 
L 100.150641 -161.149597 
L 101.247491 -164.40499 
L 102.345114 -167.660384 
L 103.435676 -170.915778 
L 104.510684 -174.171172 
L 105.561699 -177.426566 
L 106.580923 -180.68196 
L 107.561644 -183.937354 
L 108.498508 -187.192747 
L 109.387645 -190.448141 
L 110.226641 -193.703535 
L 111.014421 -196.958929 
L 111.751062 -200.214323 
L 112.437559 -203.469717 
L 113.0756 -206.725111 
L 113.667332 -209.980504 
L 114.215157 -213.235898 
L 114.721556 -216.491292 
L 115.188928 -219.746686 
L 115.619478 -223.00208 
L 116.015131 -226.257474 
L 116.377484 -229.512867 
L 116.707814 -232.768261 
L 117.007127 -236.023655 
L 117.276259 -239.279049 
L 117.516016 -242.534443 
L 117.72734 -245.789837 
L 117.911465 -249.045231 
L 118.070064 -252.300624 
L 118.205326 -255.556018 
L 118.319973 -258.811412 
L 118.417198 -262.066806 
L 118.500515 -265.3222 
L 118.573568 -268.577594 
L 118.639894 -271.832988 
L 118.702707 -275.088381 
L 118.764713 -278.343775 
L 118.827998 -281.599169 
L 118.893996 -284.854563 
L 118.963541 -288.109957 
L 119.036986 -291.365351 
L 119.114355 -294.620744 
L 119.195503 -297.876138 
L 119.280244 -301.131532 
L 119.368419 -304.386926 
L 119.459903 -307.64232 
L 119.554541 -310.897714 
L 119.65204 -314.153108 
L 119.75184 -317.408501 
L 119.852991 -320.663895 
L 119.954079 -323.919289 
L 120.053208 -327.174683 
L 120.148058 -330.430077 
L 120.236013 -333.685471 
L 120.314351 -336.940865 
L 120.380471 -340.196258 
L 120.432135 -343.451652 
L 120.467698 -346.707046 
L 120.486303 -349.96244 
L 120.488022 -353.217834 
L 120.473927 -356.473228 
L 120.44608 -359.728622 
L 120.407447 -362.984015 
L 120.361724 -366.239409 
L 120.3131 -369.494803 
L 120.265965 -372.750197 
L 120.224584 -376.005591 
L 120.192781 -379.260985 
L 120.173647 -382.516378 
L 120.169311 -385.771772 
L 121.908151 -385.771772 
L 121.908151 -385.771772 
L 121.903816 -382.516378 
L 121.884682 -379.260985 
L 121.852879 -376.005591 
L 121.811498 -372.750197 
L 121.764362 -369.494803 
L 121.715739 -366.239409 
L 121.670016 -362.984015 
L 121.631383 -359.728622 
L 121.603536 -356.473228 
L 121.589441 -353.217834 
L 121.59116 -349.96244 
L 121.609765 -346.707046 
L 121.645328 -343.451652 
L 121.696992 -340.196258 
L 121.763112 -336.940865 
L 121.84145 -333.685471 
L 121.929405 -330.430077 
L 122.024254 -327.174683 
L 122.123384 -323.919289 
L 122.224472 -320.663895 
L 122.325623 -317.408501 
L 122.425423 -314.153108 
L 122.522922 -310.897714 
L 122.61756 -307.64232 
L 122.709044 -304.386926 
L 122.797219 -301.131532 
L 122.881959 -297.876138 
L 122.963108 -294.620744 
L 123.040477 -291.365351 
L 123.113922 -288.109957 
L 123.183467 -284.854563 
L 123.249465 -281.599169 
L 123.31275 -278.343775 
L 123.374756 -275.088381 
L 123.437569 -271.832988 
L 123.503895 -268.577594 
L 123.576947 -265.3222 
L 123.660265 -262.066806 
L 123.75749 -258.811412 
L 123.872137 -255.556018 
L 124.007399 -252.300624 
L 124.165998 -249.045231 
L 124.350123 -245.789837 
L 124.561446 -242.534443 
L 124.801204 -239.279049 
L 125.070336 -236.023655 
L 125.369649 -232.768261 
L 125.699979 -229.512867 
L 126.062332 -226.257474 
L 126.457985 -223.00208 
L 126.888535 -219.746686 
L 127.355907 -216.491292 
L 127.862305 -213.235898 
L 128.410131 -209.980504 
L 129.001863 -206.725111 
L 129.639904 -203.469717 
L 130.326401 -200.214323 
L 131.063041 -196.958929 
L 131.850822 -193.703535 
L 132.689818 -190.448141 
L 133.578954 -187.192747 
L 134.515819 -183.937354 
L 135.496539 -180.68196 
L 136.515763 -177.426566 
L 137.566779 -174.171172 
L 138.641787 -170.915778 
L 139.732348 -167.660384 
L 140.829972 -164.40499 
L 141.926822 -161.149597 
L 143.016461 -157.894203 
L 144.094562 -154.638809 
L 145.159464 -151.383415 
L 146.212504 -148.128021 
L 147.258017 -144.872627 
L 148.30297 -141.617234 
L 149.356215 -138.36184 
L 150.427386 -135.106446 
L 151.525532 -131.851052 
L 152.657576 -128.595658 
L 153.826739 -125.340264 
L 155.031064 -122.08487 
L 156.262158 -118.829477 
L 157.50426 -115.574083 
L 158.733749 -112.318689 
L 159.919139 -109.063295 
L 161.021643 -105.807901 
L 161.996352 -102.552507 
L 162.794039 -99.297113 
L 163.363572 -96.04172 
L 163.654882 -92.786326 
L 163.622328 -89.530932 
L 163.228239 -86.275538 
L 162.446349 -83.020144 
L 161.264785 -79.76475 
L 159.688226 -76.509357 
L 157.738964 -73.253963 
L 155.456608 -69.998569 
L 152.896378 -66.743175 
L 150.126065 -63.487781 
z
" style="stroke: #000000; stroke-opacity: 0.4"/>
    </defs>
    <g clip-path="url(#p9fc3ebf9b3)">
     <use xlink:href="#mb5423011e4" x="0" y="432" style="fill: #440154; fill-opacity: 0.4; stroke: #000000; stroke-opacity: 0.4"/>
    </g>
   </g>
   <g id="PolyCollection_2">
    <defs>
     <path id="mfdb88d6954" d="M 314.618786 -63.487781 
L 268.387884 -63.487781 
L 266.181385 -65.391556 
L 264.001407 -67.29533 
L 261.88212 -69.199105 
L 259.856547 -71.102879 
L 257.955175 -73.006654 
L 256.204671 -74.910428 
L 254.626793 -76.814203 
L 253.237579 -78.717977 
L 252.046874 -80.621752 
L 251.058213 -82.525526 
L 250.26909 -84.429301 
L 249.671549 -86.333075 
L 249.253078 -88.23685 
L 248.997698 -90.140624 
L 248.887184 -92.044399 
L 248.902305 -93.948173 
L 249.024002 -95.851948 
L 249.23443 -97.755722 
L 249.517804 -99.659497 
L 249.861009 -101.563271 
L 250.253965 -103.467046 
L 250.689741 -105.37082 
L 251.164451 -107.274595 
L 251.67695 -109.178369 
L 252.22837 -111.082144 
L 252.821547 -112.985918 
L 253.460371 -114.889693 
L 254.149104 -116.793467 
L 254.891706 -118.697242 
L 255.691217 -120.601016 
L 256.549212 -122.504791 
L 257.46538 -124.408565 
L 258.437243 -126.31234 
L 259.460038 -128.216115 
L 260.526775 -130.119889 
L 261.628457 -132.023664 
L 262.754473 -133.927438 
L 263.893106 -135.831213 
L 265.032143 -137.734987 
L 266.159529 -139.638762 
L 267.26402 -141.542536 
L 268.335771 -143.446311 
L 269.366825 -145.350085 
L 270.351464 -147.25386 
L 271.286377 -149.157634 
L 272.170663 -151.061409 
L 273.005642 -152.965183 
L 273.79452 -154.868958 
L 274.541923 -156.772732 
L 275.253345 -158.676507 
L 275.934571 -160.580281 
L 276.591112 -162.484056 
L 277.227697 -164.38783 
L 277.847884 -166.291605 
L 278.453786 -168.195379 
L 279.045964 -170.099154 
L 279.623459 -172.002928 
L 280.183975 -173.906703 
L 280.724178 -175.810477 
L 281.240087 -177.714252 
L 281.727509 -179.618026 
L 282.182498 -181.521801 
L 282.601775 -183.425575 
L 282.983092 -185.32935 
L 283.325507 -187.233124 
L 283.629548 -189.136899 
L 283.897262 -191.040673 
L 284.132144 -192.944448 
L 284.338946 -194.848222 
L 284.523407 -196.751997 
L 284.69189 -198.655771 
L 284.85099 -200.559546 
L 285.007115 -202.46332 
L 285.16609 -204.367095 
L 285.332802 -206.27087 
L 285.510919 -208.174644 
L 285.702705 -210.078419 
L 285.908936 -211.982193 
L 286.128932 -213.885968 
L 286.3607 -215.789742 
L 286.601159 -217.693517 
L 286.84645 -219.597291 
L 287.092287 -221.501066 
L 287.334322 -223.40484 
L 287.568494 -225.308615 
L 287.791337 -227.212389 
L 288.000211 -229.116164 
L 288.193463 -231.019938 
L 288.370484 -232.923713 
L 288.531681 -234.827487 
L 288.678368 -236.731262 
L 288.812589 -238.635036 
L 288.936899 -240.538811 
L 289.054116 -242.442585 
L 289.16708 -244.34636 
L 289.278426 -246.250134 
L 289.390398 -248.153909 
L 289.504704 -250.057683 
L 289.622439 -251.961458 
L 293.384232 -251.961458 
L 293.384232 -251.961458 
L 293.501966 -250.057683 
L 293.616273 -248.153909 
L 293.728245 -246.250134 
L 293.839591 -244.34636 
L 293.952555 -242.442585 
L 294.069772 -240.538811 
L 294.194082 -238.635036 
L 294.328303 -236.731262 
L 294.47499 -234.827487 
L 294.636187 -232.923713 
L 294.813208 -231.019938 
L 295.00646 -229.116164 
L 295.215334 -227.212389 
L 295.438176 -225.308615 
L 295.672349 -223.40484 
L 295.914384 -221.501066 
L 296.160221 -219.597291 
L 296.405512 -217.693517 
L 296.645971 -215.789742 
L 296.877738 -213.885968 
L 297.097735 -211.982193 
L 297.303966 -210.078419 
L 297.495752 -208.174644 
L 297.673869 -206.27087 
L 297.84058 -204.367095 
L 297.999555 -202.46332 
L 298.155681 -200.559546 
L 298.31478 -198.655771 
L 298.483264 -196.751997 
L 298.667724 -194.848222 
L 298.874527 -192.944448 
L 299.109409 -191.040673 
L 299.377123 -189.136899 
L 299.681164 -187.233124 
L 300.023578 -185.32935 
L 300.404895 -183.425575 
L 300.824172 -181.521801 
L 301.279162 -179.618026 
L 301.766584 -177.714252 
L 302.282492 -175.810477 
L 302.822695 -173.906703 
L 303.383211 -172.002928 
L 303.960706 -170.099154 
L 304.552885 -168.195379 
L 305.158787 -166.291605 
L 305.778974 -164.38783 
L 306.415559 -162.484056 
L 307.0721 -160.580281 
L 307.753326 -158.676507 
L 308.464748 -156.772732 
L 309.21215 -154.868958 
L 310.001029 -152.965183 
L 310.836008 -151.061409 
L 311.720294 -149.157634 
L 312.655207 -147.25386 
L 313.639846 -145.350085 
L 314.6709 -143.446311 
L 315.74265 -141.542536 
L 316.847141 -139.638762 
L 317.974528 -137.734987 
L 319.113565 -135.831213 
L 320.252197 -133.927438 
L 321.378213 -132.023664 
L 322.479896 -130.119889 
L 323.546632 -128.216115 
L 324.569428 -126.31234 
L 325.541291 -124.408565 
L 326.457459 -122.504791 
L 327.315453 -120.601016 
L 328.114964 -118.697242 
L 328.857567 -116.793467 
L 329.546299 -114.889693 
L 330.185124 -112.985918 
L 330.778301 -111.082144 
L 331.329721 -109.178369 
L 331.84222 -107.274595 
L 332.31693 -105.37082 
L 332.752706 -103.467046 
L 333.145662 -101.563271 
L 333.488867 -99.659497 
L 333.772241 -97.755722 
L 333.982669 -95.851948 
L 334.104365 -93.948173 
L 334.119486 -92.044399 
L 334.008973 -90.140624 
L 333.753593 -88.23685 
L 333.335121 -86.333075 
L 332.737581 -84.429301 
L 331.948457 -82.525526 
L 330.959797 -80.621752 
L 329.769091 -78.717977 
L 328.379878 -76.814203 
L 326.802 -74.910428 
L 325.051496 -73.006654 
L 323.150124 -71.102879 
L 321.124551 -69.199105 
L 319.005263 -67.29533 
L 316.825285 -65.391556 
L 314.618786 -63.487781 
z
" style="stroke: #000000; stroke-opacity: 0.4"/>
    </defs>
    <g clip-path="url(#p9fc3ebf9b3)">
     <use xlink:href="#mfdb88d6954" x="0" y="432" style="fill: #31688e; fill-opacity: 0.4; stroke: #000000; stroke-opacity: 0.4"/>
    </g>
   </g>
   <g id="PolyCollection_3">
    <defs>
     <path id="me21d656cab" d="M 488.535531 -63.487781 
L 435.400347 -63.487781 
L 432.908475 -65.32279 
L 430.502305 -67.157798 
L 428.230468 -68.992807 
L 426.139704 -70.827816 
L 424.273105 -72.662824 
L 422.668434 -74.497833 
L 421.356599 -76.332842 
L 420.360347 -78.16785 
L 419.693262 -80.002859 
L 419.359137 -81.837868 
L 419.351788 -83.672877 
L 419.655354 -85.507885 
L 420.245091 -87.342894 
L 421.088656 -89.177903 
L 422.147797 -91.012911 
L 423.380366 -92.84792 
L 424.742498 -94.682929 
L 426.190829 -96.517937 
L 427.684566 -98.352946 
L 429.18727 -100.187955 
L 430.668238 -102.022963 
L 432.103396 -103.857972 
L 433.475666 -105.692981 
L 434.774839 -107.527989 
L 435.996992 -109.362998 
L 437.143556 -111.198007 
L 438.220151 -113.033015 
L 439.235293 -114.868024 
L 440.199113 -116.703033 
L 441.122169 -118.538041 
L 442.014435 -120.37305 
L 442.884518 -122.208059 
L 443.739119 -124.043067 
L 444.58274 -125.878076 
L 445.417606 -127.713085 
L 446.243791 -129.548093 
L 447.059476 -131.383102 
L 447.861318 -133.218111 
L 448.644889 -135.053119 
L 449.405134 -136.888128 
L 450.136841 -138.723137 
L 450.83507 -140.558145 
L 451.495545 -142.393154 
L 452.114968 -144.228163 
L 452.691256 -146.063171 
L 453.223676 -147.89818 
L 453.71287 -149.733189 
L 454.160776 -151.568197 
L 454.570431 -153.403206 
L 454.945697 -155.238215 
L 455.290903 -157.073223 
L 455.610464 -158.908232 
L 455.908505 -160.743241 
L 456.188523 -162.578249 
L 456.453149 -164.413258 
L 456.70402 -166.248267 
L 456.941787 -168.083275 
L 457.166257 -169.918284 
L 457.376649 -171.753293 
L 457.571928 -173.588302 
L 457.751173 -175.42331 
L 457.913914 -177.258319 
L 458.06041 -179.093328 
L 458.191805 -180.928336 
L 458.31015 -182.763345 
L 458.41829 -184.598354 
L 458.519626 -186.433362 
L 458.617788 -188.268371 
L 458.716277 -190.10338 
L 458.818109 -191.938388 
L 458.925524 -193.773397 
L 459.0398 -195.608406 
L 459.161175 -197.443414 
L 459.288898 -199.278423 
L 459.421393 -201.113432 
L 459.556489 -202.94844 
L 459.691705 -204.783449 
L 459.82452 -206.618458 
L 459.952617 -208.453466 
L 460.074059 -210.288475 
L 460.187384 -212.123484 
L 460.291631 -213.958492 
L 460.386292 -215.793501 
L 460.471233 -217.62851 
L 460.546588 -219.463518 
L 460.612668 -221.298527 
L 460.669891 -223.133536 
L 460.718756 -224.968544 
L 460.759852 -226.803553 
L 460.793894 -228.638562 
L 460.821775 -230.47357 
L 460.844615 -232.308579 
L 460.863779 -234.143588 
L 460.880862 -235.978596 
L 460.897638 -237.813605 
L 460.915953 -239.648614 
L 460.937601 -241.483622 
L 460.964177 -243.318631 
L 460.996935 -245.15364 
L 462.938944 -245.15364 
L 462.938944 -245.15364 
L 462.971702 -243.318631 
L 462.998277 -241.483622 
L 463.019926 -239.648614 
L 463.038241 -237.813605 
L 463.055017 -235.978596 
L 463.0721 -234.143588 
L 463.091263 -232.308579 
L 463.114103 -230.47357 
L 463.141985 -228.638562 
L 463.176027 -226.803553 
L 463.217123 -224.968544 
L 463.265988 -223.133536 
L 463.323211 -221.298527 
L 463.38929 -219.463518 
L 463.464646 -217.62851 
L 463.549587 -215.793501 
L 463.644248 -213.958492 
L 463.748494 -212.123484 
L 463.861819 -210.288475 
L 463.983261 -208.453466 
L 464.111359 -206.618458 
L 464.244174 -204.783449 
L 464.37939 -202.94844 
L 464.514486 -201.113432 
L 464.646981 -199.278423 
L 464.774704 -197.443414 
L 464.896078 -195.608406 
L 465.010354 -193.773397 
L 465.11777 -191.938388 
L 465.219601 -190.10338 
L 465.31809 -188.268371 
L 465.416253 -186.433362 
L 465.517589 -184.598354 
L 465.625729 -182.763345 
L 465.744074 -180.928336 
L 465.875469 -179.093328 
L 466.021965 -177.258319 
L 466.184706 -175.42331 
L 466.36395 -173.588302 
L 466.55923 -171.753293 
L 466.769622 -169.918284 
L 466.994092 -168.083275 
L 467.231859 -166.248267 
L 467.482729 -164.413258 
L 467.747355 -162.578249 
L 468.027373 -160.743241 
L 468.325414 -158.908232 
L 468.644976 -157.073223 
L 468.990182 -155.238215 
L 469.365447 -153.403206 
L 469.775103 -151.568197 
L 470.223008 -149.733189 
L 470.712203 -147.89818 
L 471.244623 -146.063171 
L 471.820911 -144.228163 
L 472.440334 -142.393154 
L 473.100808 -140.558145 
L 473.799038 -138.723137 
L 474.530745 -136.888128 
L 475.29099 -135.053119 
L 476.074561 -133.218111 
L 476.876403 -131.383102 
L 477.692087 -129.548093 
L 478.518273 -127.713085 
L 479.353139 -125.878076 
L 480.196759 -124.043067 
L 481.051361 -122.208059 
L 481.921444 -120.37305 
L 482.81371 -118.538041 
L 483.736766 -116.703033 
L 484.700586 -114.868024 
L 485.715728 -113.033015 
L 486.792322 -111.198007 
L 487.938887 -109.362998 
L 489.161039 -107.527989 
L 490.460212 -105.692981 
L 491.832483 -103.857972 
L 493.26764 -102.022963 
L 494.748609 -100.187955 
L 496.251313 -98.352946 
L 497.74505 -96.517937 
L 499.193381 -94.682929 
L 500.555513 -92.84792 
L 501.788081 -91.012911 
L 502.847223 -89.177903 
L 503.690788 -87.342894 
L 504.280525 -85.507885 
L 504.58409 -83.672877 
L 504.576742 -81.837868 
L 504.242617 -80.002859 
L 503.575532 -78.16785 
L 502.57928 -76.332842 
L 501.267445 -74.497833 
L 499.662774 -72.662824 
L 497.796175 -70.827816 
L 495.705411 -68.992807 
L 493.433574 -67.157798 
L 491.027403 -65.32279 
L 488.535531 -63.487781 
z
" style="stroke: #000000; stroke-opacity: 0.4"/>
    </defs>
    <g clip-path="url(#p9fc3ebf9b3)">
     <use xlink:href="#me21d656cab" x="0" y="432" style="fill: #35b779; fill-opacity: 0.4; stroke: #000000; stroke-opacity: 0.4"/>
    </g>
   </g>
   <g id="PolyCollection_4">
    <defs>
     <path id="m01be61c973" d="M 659.077604 -63.487781 
L 605.787483 -63.487781 
L 603.683975 -65.553272 
L 601.636747 -67.618764 
L 599.675547 -69.684255 
L 597.829396 -71.749746 
L 596.125744 -73.815237 
L 594.589641 -75.880729 
L 593.242957 -77.94622 
L 592.103688 -80.011711 
L 591.185366 -82.077203 
L 590.496623 -84.142694 
L 590.040924 -86.208185 
L 589.816484 -88.273676 
L 589.816392 -90.339168 
L 590.02893 -92.404659 
L 590.438069 -94.47015 
L 591.024141 -96.535641 
L 591.76462 -98.601133 
L 592.634997 -100.666624 
L 593.609685 -102.732115 
L 594.662918 -104.797607 
L 595.769586 -106.863098 
L 596.905977 -108.928589 
L 598.050398 -110.99408 
L 599.183643 -113.059572 
L 600.289314 -115.125063 
L 601.353992 -117.190554 
L 602.367264 -119.256045 
L 603.321632 -121.321537 
L 604.212329 -123.387028 
L 605.037054 -125.452519 
L 605.795668 -127.51801 
L 606.489858 -129.583502 
L 607.122802 -131.648993 
L 607.69884 -133.714484 
L 608.223175 -135.779976 
L 608.7016 -137.845467 
L 609.140266 -139.910958 
L 609.545493 -141.976449 
L 609.92361 -144.041941 
L 610.280847 -146.107432 
L 610.623248 -148.172923 
L 610.956617 -150.238414 
L 611.28648 -152.303906 
L 611.618067 -154.369397 
L 611.956284 -156.434888 
L 612.305692 -158.50038 
L 612.670473 -160.565871 
L 613.054372 -162.631362 
L 613.460633 -164.696853 
L 613.891915 -166.762345 
L 614.350197 -168.827836 
L 614.836682 -170.893327 
L 615.351713 -172.958818 
L 615.8947 -175.02431 
L 616.464092 -177.089801 
L 617.057377 -179.155292 
L 617.671135 -181.220784 
L 618.301142 -183.286275 
L 618.942516 -185.351766 
L 619.589903 -187.417257 
L 620.237695 -189.482749 
L 620.880246 -191.54824 
L 621.512101 -193.613731 
L 622.128191 -195.679222 
L 622.723996 -197.744714 
L 623.295671 -199.810205 
L 623.840105 -201.875696 
L 624.354947 -203.941188 
L 624.838574 -206.006679 
L 625.290023 -208.07217 
L 625.708904 -210.137661 
L 626.09529 -212.203153 
L 626.449617 -214.268644 
L 626.772586 -216.334135 
L 627.065098 -218.399626 
L 627.328197 -220.465118 
L 627.563049 -222.530609 
L 627.77094 -224.5961 
L 627.953292 -226.661591 
L 628.111686 -228.727083 
L 628.24789 -230.792574 
L 628.363882 -232.858065 
L 628.461864 -234.923557 
L 628.544255 -236.989048 
L 628.613677 -239.054539 
L 628.672916 -241.12003 
L 628.724873 -243.185522 
L 628.772503 -245.251013 
L 628.818743 -247.316504 
L 628.866436 -249.381995 
L 628.918253 -251.447487 
L 628.976622 -253.512978 
L 629.043651 -255.578469 
L 629.121073 -257.643961 
L 629.210187 -259.709452 
L 629.311822 -261.774943 
L 629.426306 -263.840434 
L 629.553466 -265.905926 
L 629.692629 -267.971417 
L 635.172458 -267.971417 
L 635.172458 -267.971417 
L 635.31162 -265.905926 
L 635.43878 -263.840434 
L 635.553265 -261.774943 
L 635.654899 -259.709452 
L 635.744013 -257.643961 
L 635.821435 -255.578469 
L 635.888465 -253.512978 
L 635.946833 -251.447487 
L 635.998651 -249.381995 
L 636.046343 -247.316504 
L 636.092583 -245.251013 
L 636.140214 -243.185522 
L 636.192171 -241.12003 
L 636.251409 -239.054539 
L 636.320831 -236.989048 
L 636.403222 -234.923557 
L 636.501204 -232.858065 
L 636.617197 -230.792574 
L 636.753401 -228.727083 
L 636.911794 -226.661591 
L 637.094146 -224.5961 
L 637.302038 -222.530609 
L 637.536889 -220.465118 
L 637.799988 -218.399626 
L 638.0925 -216.334135 
L 638.41547 -214.268644 
L 638.769796 -212.203153 
L 639.156182 -210.137661 
L 639.575063 -208.07217 
L 640.026513 -206.006679 
L 640.51014 -203.941188 
L 641.024982 -201.875696 
L 641.569416 -199.810205 
L 642.14109 -197.744714 
L 642.736896 -195.679222 
L 643.352986 -193.613731 
L 643.984841 -191.54824 
L 644.627392 -189.482749 
L 645.275183 -187.417257 
L 645.922571 -185.351766 
L 646.563945 -183.286275 
L 647.193952 -181.220784 
L 647.80771 -179.155292 
L 648.400994 -177.089801 
L 648.970386 -175.02431 
L 649.513374 -172.958818 
L 650.028404 -170.893327 
L 650.51489 -168.827836 
L 650.973171 -166.762345 
L 651.404453 -164.696853 
L 651.810715 -162.631362 
L 652.194613 -160.565871 
L 652.559394 -158.50038 
L 652.908803 -156.434888 
L 653.24702 -154.369397 
L 653.578607 -152.303906 
L 653.90847 -150.238414 
L 654.241838 -148.172923 
L 654.584239 -146.107432 
L 654.941476 -144.041941 
L 655.319594 -141.976449 
L 655.72482 -139.910958 
L 656.163487 -137.845467 
L 656.641912 -135.779976 
L 657.166247 -133.714484 
L 657.742285 -131.648993 
L 658.375229 -129.583502 
L 659.069419 -127.51801 
L 659.828033 -125.452519 
L 660.652758 -123.387028 
L 661.543455 -121.321537 
L 662.497823 -119.256045 
L 663.511094 -117.190554 
L 664.575772 -115.125063 
L 665.681444 -113.059572 
L 666.814689 -110.99408 
L 667.959109 -108.928589 
L 669.095501 -106.863098 
L 670.202168 -104.797607 
L 671.255401 -102.732115 
L 672.23009 -100.666624 
L 673.100467 -98.601133 
L 673.840945 -96.535641 
L 674.427017 -94.47015 
L 674.836157 -92.404659 
L 675.048694 -90.339168 
L 675.048603 -88.273676 
L 674.824163 -86.208185 
L 674.368464 -84.142694 
L 673.679721 -82.077203 
L 672.761399 -80.011711 
L 671.622129 -77.94622 
L 670.275446 -75.880729 
L 668.739342 -73.815237 
L 667.03569 -71.749746 
L 665.189539 -69.684255 
L 663.22834 -67.618764 
L 661.181112 -65.553272 
L 659.077604 -63.487781 
z
" style="stroke: #000000; stroke-opacity: 0.4"/>
    </defs>
    <g clip-path="url(#p9fc3ebf9b3)">
     <use xlink:href="#m01be61c973" x="0" y="432" style="fill: #fde725; fill-opacity: 0.4; stroke: #000000; stroke-opacity: 0.4"/>
    </g>
   </g>
   <g id="matplotlib.axis_1">
    <g id="xtick_1">
     <g id="line2d_1">
      <defs>
       <path id="m377e6d4552" d="M 0 0 
L 0 3.5 
" style="stroke: #000000; stroke-width: 0.8"/>
      </defs>
      <g>
       <use xlink:href="#m377e6d4552" x="121.038731" y="384.626418" style="stroke: #000000; stroke-width: 0.8"/>
      </g>
     </g>
     <g id="text_1">
      <!-- Borda rule -->
      <g transform="translate(95.513548 399.236765) scale(0.11 -0.11)">
       <defs>
        <path id="CMR17-42" d="M 333 4352 
L 333 4186 
C 774 4186 845 4186 845 3900 
L 845 452 
C 845 166 774 166 333 166 
L 333 0 
L 2534 0 
C 3354 0 3885 583 3885 1164 
C 3885 1741 3360 2233 2675 2233 
C 3290 2356 3718 2771 3718 3264 
C 3718 3802 3194 4352 2368 4352 
L 333 4352 
z
M 1248 2304 
L 1248 3937 
C 1248 4155 1261 4186 1517 4186 
L 2336 4186 
C 2970 4186 3251 3674 3251 3277 
C 3251 2791 2861 2304 2170 2304 
L 1248 2304 
z
M 1517 166 
C 1261 166 1248 197 1248 413 
L 1248 2202 
L 2432 2202 
C 3091 2202 3411 1625 3411 1162 
C 3411 699 3046 166 2349 166 
L 1517 166 
z
" transform="scale(0.015625)"/>
        <path id="CMR17-6f" d="M 2758 1356 
C 2758 2176 2163 2816 1466 2816 
C 768 2816 173 2176 173 1356 
C 173 551 768 -64 1466 -64 
C 2163 -64 2758 551 2758 1356 
z
M 1466 51 
C 1165 51 909 230 762 480 
C 602 767 582 1126 582 1408 
C 582 1677 595 2010 762 2298 
C 890 2509 1139 2714 1466 2714 
C 1754 2714 1997 2554 2150 2330 
C 2349 2029 2349 1607 2349 1408 
C 2349 1158 2336 775 2163 467 
C 1984 173 1709 51 1466 51 
z
" transform="scale(0.015625)"/>
        <path id="CMR17-72" d="M 960 1497 
C 960 2112 1222 2688 1702 2688 
C 1747 2688 1792 2682 1837 2662 
C 1837 2662 1696 2617 1696 2452 
C 1696 2298 1818 2234 1914 2234 
C 1990 2234 2131 2279 2131 2458 
C 2131 2663 1926 2790 1709 2790 
C 1222 2790 1011 2317 947 2093 
L 941 2093 
L 941 2790 
L 198 2720 
L 198 2554 
C 576 2554 634 2515 634 2208 
L 634 428 
C 634 184 608 153 198 153 
L 198 -13 
C 352 0 646 0 813 0 
C 998 0 1325 0 1498 -13 
L 1498 153 
C 1037 153 960 153 960 440 
L 960 1497 
z
" transform="scale(0.015625)"/>
        <path id="CMR17-64" d="M 1869 4326 
L 1869 4160 
C 2246 4160 2304 4122 2304 3820 
L 2304 2345 
C 2278 2377 2016 2790 1498 2790 
C 845 2790 211 2208 211 1364 
C 211 525 806 -64 1434 -64 
C 1978 -64 2259 337 2291 380 
L 2291 -63 
L 3066 -63 
L 3066 128 
C 2688 128 2630 166 2630 473 
L 2630 4396 
L 1869 4326 
z
M 2291 755 
C 2291 563 2176 390 2029 262 
C 1811 70 1594 38 1472 38 
C 1286 38 621 134 621 1356 
C 621 2612 1363 2688 1530 2688 
C 1824 2688 2061 2522 2208 2291 
C 2291 2157 2291 2138 2291 2023 
L 2291 755 
z
" transform="scale(0.015625)"/>
        <path id="CMR17-61" d="M 2304 1653 
C 2304 2072 2304 2294 2035 2543 
C 1798 2752 1523 2816 1306 2816 
C 800 2816 435 2407 435 1971 
C 435 1728 627 1728 666 1728 
C 749 1728 896 1778 896 1954 
C 896 2112 774 2181 666 2181 
C 640 2181 608 2174 589 2168 
C 723 2592 1069 2714 1293 2714 
C 1613 2714 1965 2429 1965 1885 
L 1965 1600 
C 1587 1600 1133 1549 774 1357 
C 371 1133 256 813 256 570 
C 256 77 832 -64 1171 -64 
C 1523 -64 1850 139 1990 511 
C 2003 233 2182 -18 2464 -18 
C 2598 -18 2938 70 2938 567 
L 2938 920 
L 2822 920 
L 2822 562 
C 2822 178 2650 128 2566 128 
C 2304 128 2304 458 2304 738 
L 2304 1653 
z
M 1965 870 
C 1965 317 1568 38 1216 38 
C 896 38 646 275 646 570 
C 646 761 730 1100 1101 1305 
C 1408 1478 1760 1504 1965 1504 
L 1965 870 
z
" transform="scale(0.015625)"/>
        <path id="CMR17-75" d="M 1882 2693 
L 1882 2528 
C 2259 2528 2317 2489 2317 2186 
L 2317 1032 
C 2317 500 2029 38 1555 38 
C 1030 38 986 348 986 678 
L 986 2763 
L 211 2693 
L 211 2528 
C 467 2528 640 2528 646 2274 
L 646 1058 
C 646 633 646 361 813 183 
C 896 101 1056 -64 1517 -64 
C 2061 -64 2272 377 2323 506 
L 2330 506 
L 2330 -63 
L 3091 -63 
L 3091 128 
C 2714 128 2656 166 2656 473 
L 2656 2763 
L 1882 2693 
z
" transform="scale(0.015625)"/>
        <path id="CMR17-6c" d="M 979 4396 
L 218 4326 
L 218 4160 
C 595 4160 653 4122 653 3817 
L 653 426 
C 653 184 627 153 218 153 
L 218 -13 
C 371 0 653 0 813 0 
C 979 0 1261 0 1414 -13 
L 1414 153 
C 1005 153 979 178 979 426 
L 979 4396 
z
" transform="scale(0.015625)"/>
        <path id="CMR17-65" d="M 2438 1472 
C 2464 1498 2464 1511 2464 1576 
C 2464 2238 2118 2816 1389 2816 
C 710 2816 173 2169 173 1383 
C 173 551 781 -64 1459 -64 
C 2176 -64 2458 607 2458 740 
C 2458 784 2419 784 2406 784 
C 2362 784 2355 771 2330 696 
C 2189 265 1837 51 1504 51 
C 1229 51 954 203 781 480 
C 582 803 582 1176 582 1472 
L 2438 1472 
z
M 589 1568 
C 634 2505 1126 2714 1382 2714 
C 1818 2714 2112 2297 2118 1568 
L 589 1568 
z
" transform="scale(0.015625)"/>
       </defs>
       <use xlink:href="#CMR17-42" transform="scale(0.996264)"/>
       <use xlink:href="#CMR17-6f" transform="translate(65.188754 0) scale(0.996264)"/>
       <use xlink:href="#CMR17-72" transform="translate(110.879232 0) scale(0.996264)"/>
       <use xlink:href="#CMR17-64" transform="translate(146.159999 0) scale(0.996264)"/>
       <use xlink:href="#CMR17-61" transform="translate(197.055369 0) scale(0.996264)"/>
       <use xlink:href="#CMR17-72" transform="translate(272.821813 0) scale(0.996264)"/>
       <use xlink:href="#CMR17-75" transform="translate(308.10258 0) scale(0.996264)"/>
       <use xlink:href="#CMR17-6c" transform="translate(358.99795 0) scale(0.996264)"/>
       <use xlink:href="#CMR17-65" transform="translate(383.869009 0) scale(0.996264)"/>
      </g>
     </g>
    </g>
    <g id="xtick_2">
     <g id="line2d_2">
      <g>
       <use xlink:href="#m377e6d4552" x="291.503335" y="384.626418" style="stroke: #000000; stroke-width: 0.8"/>
      </g>
     </g>
     <g id="text_2">
      <!-- Copeland's Rule -->
      <g transform="translate(252.279506 399.236765) scale(0.11 -0.11)">
       <defs>
        <path id="CMR17-43" d="M 3974 4289 
C 3974 4403 3968 4410 3930 4410 
C 3904 4410 3898 4403 3853 4327 
L 3571 3792 
C 3258 4187 2874 4416 2381 4416 
C 1286 4416 294 3456 294 2148 
C 294 826 1286 -128 2387 -128 
C 3366 -128 3974 730 3974 1461 
C 3974 1524 3974 1550 3917 1550 
C 3866 1550 3866 1531 3859 1474 
C 3808 585 3168 38 2477 38 
C 1824 38 781 495 781 2147 
C 781 3805 1843 4250 2464 4250 
C 3187 4250 3712 3628 3834 2745 
C 3846 2668 3846 2655 3904 2655 
C 3974 2655 3974 2668 3974 2783 
L 3974 4289 
z
" transform="scale(0.015625)"/>
        <path id="CMR17-70" d="M 1408 -1063 
C 998 -1063 973 -1037 973 -789 
L 973 402 
C 1158 134 1427 -38 1766 -38 
C 2406 -38 3053 523 3053 1388 
C 3053 2191 2496 2802 1837 2802 
C 1453 2802 1139 2592 960 2338 
L 960 2802 
L 198 2732 
L 198 2567 
C 576 2567 634 2528 634 2223 
L 634 -789 
C 634 -1031 608 -1063 198 -1063 
L 198 -1228 
C 352 -1216 634 -1216 800 -1216 
C 966 -1216 1254 -1216 1408 -1228 
L 1408 -1063 
z
M 973 2012 
C 973 2102 973 2235 1222 2471 
C 1254 2497 1472 2688 1792 2688 
C 2259 2688 2643 2108 2643 1382 
C 2643 656 2234 64 1728 64 
C 1498 64 1248 172 1056 472 
C 973 612 973 650 973 752 
L 973 2012 
z
" transform="scale(0.015625)"/>
        <path id="CMR17-6e" d="M 2656 1933 
C 2656 2259 2592 2790 1837 2790 
C 1331 2790 1069 2400 973 2144 
L 966 2144 
L 966 2790 
L 211 2720 
L 211 2554 
C 589 2554 646 2515 646 2208 
L 646 428 
C 646 184 621 153 211 153 
L 211 -13 
C 365 0 646 0 813 0 
C 979 0 1267 0 1421 -13 
L 1421 153 
C 1011 153 986 178 986 428 
L 986 1658 
C 986 2247 1344 2688 1792 2688 
C 2266 2688 2317 2266 2317 1958 
L 2317 428 
C 2317 184 2291 153 1882 153 
L 1882 -13 
C 2035 0 2317 0 2483 0 
C 2650 0 2938 0 3091 -13 
L 3091 153 
C 2682 153 2656 178 2656 428 
L 2656 1933 
z
" transform="scale(0.015625)"/>
        <path id="CMR17-27" d="M 1024 4025 
C 1037 3955 1043 3929 1043 3820 
C 1043 3415 883 3042 634 2778 
C 608 2752 595 2733 595 2707 
C 595 2681 621 2656 646 2656 
C 691 2656 1146 3105 1146 3811 
C 1146 3952 1133 4426 800 4426 
C 659 4426 538 4331 538 4165 
C 538 3999 659 3904 800 3904 
C 858 3904 966 3923 1024 4025 
z
" transform="scale(0.015625)"/>
        <path id="CMR17-73" d="M 1978 2697 
C 1978 2813 1971 2819 1933 2819 
C 1907 2819 1901 2813 1824 2717 
C 1805 2691 1747 2626 1728 2601 
C 1523 2819 1235 2819 1126 2819 
C 416 2819 160 2447 160 2076 
C 160 1498 813 1365 998 1325 
C 1402 1243 1542 1217 1677 1101 
C 1760 1025 1901 884 1901 654 
C 1901 384 1747 38 1158 38 
C 602 38 403 460 288 1021 
C 269 1110 269 1117 218 1117 
C 166 1117 160 1110 160 983 
L 160 63 
C 160 -51 166 -58 205 -58 
C 237 -58 243 -51 275 0 
C 314 57 410 211 448 276 
C 576 103 800 -64 1158 -64 
C 1792 -64 2131 283 2131 784 
C 2131 1112 1958 1285 1875 1362 
C 1683 1561 1459 1606 1190 1657 
C 838 1735 390 1825 390 2217 
C 390 2383 480 2737 1126 2737 
C 1811 2737 1850 2094 1862 1888 
C 1869 1856 1901 1849 1920 1849 
C 1978 1849 1978 1869 1978 1978 
L 1978 2697 
z
" transform="scale(0.015625)"/>
        <path id="CMR17-52" d="M 2509 2146 
C 3117 2268 3629 2676 3629 3186 
C 3629 3785 2950 4326 2054 4326 
L 333 4326 
L 333 4160 
C 774 4160 845 4160 845 3873 
L 845 415 
C 845 128 774 128 333 128 
L 333 -26 
C 518 -26 851 -26 1050 -26 
C 1248 -26 1581 -26 1766 -26 
L 1766 128 
C 1325 128 1254 128 1254 417 
L 1254 2112 
L 2003 2112 
C 2368 2112 2573 1964 2662 1881 
C 2918 1632 2918 1459 2918 1024 
C 2918 595 2918 377 3110 160 
C 3354 -102 3680 -128 3821 -128 
C 4294 -128 4365 396 4365 503 
C 4365 540 4365 585 4307 585 
C 4256 585 4250 547 4250 522 
C 4218 112 4032 -26 3834 -26 
C 3482 -26 3443 375 3405 764 
C 3386 898 3373 993 3360 1133 
C 3322 1452 3270 1917 2509 2146 
z
M 1984 2214 
L 1254 2214 
L 1254 3913 
C 1254 4129 1267 4160 1523 4160 
L 1990 4160 
C 2522 4160 3142 3977 3142 3190 
C 3142 2372 2464 2214 1984 2214 
z
" transform="scale(0.015625)"/>
       </defs>
       <use xlink:href="#CMR17-43" transform="scale(0.996264)"/>
       <use xlink:href="#CMR17-6f" transform="translate(66.509881 0) scale(0.996264)"/>
       <use xlink:href="#CMR17-70" transform="translate(112.200358 0) scale(0.996264)"/>
       <use xlink:href="#CMR17-65" transform="translate(165.698166 0) scale(0.996264)"/>
       <use xlink:href="#CMR17-6c" transform="translate(206.183827 0) scale(0.996264)"/>
       <use xlink:href="#CMR17-61" transform="translate(231.054885 0) scale(0.996264)"/>
       <use xlink:href="#CMR17-6e" transform="translate(276.745362 0) scale(0.996264)"/>
       <use xlink:href="#CMR17-64" transform="translate(327.640732 0) scale(0.996264)"/>
       <use xlink:href="#CMR17-27" transform="translate(378.536102 0) scale(0.996264)"/>
       <use xlink:href="#CMR17-73" transform="translate(403.40716 0) scale(0.996264)"/>
       <use xlink:href="#CMR17-52" transform="translate(469.284464 0) scale(0.996264)"/>
       <use xlink:href="#CMR17-75" transform="translate(537.075566 0) scale(0.996264)"/>
       <use xlink:href="#CMR17-6c" transform="translate(587.970936 0) scale(0.996264)"/>
       <use xlink:href="#CMR17-65" transform="translate(612.841994 0) scale(0.996264)"/>
      </g>
     </g>
    </g>
    <g id="xtick_3">
     <g id="line2d_3">
      <g>
       <use xlink:href="#m377e6d4552" x="461.967939" y="384.626418" style="stroke: #000000; stroke-width: 0.8"/>
      </g>
     </g>
     <g id="text_3">
      <!-- Plurality rule -->
      <g transform="translate(429.897856 399.236765) scale(0.11 -0.11)">
       <defs>
        <path id="CMR17-50" d="M 1267 2042 
L 2291 2042 
C 3117 2042 3718 2578 3718 3184 
C 3718 3791 3130 4352 2291 4352 
L 333 4352 
L 333 4186 
C 774 4186 845 4186 845 3899 
L 845 446 
C 845 160 774 160 333 160 
L 333 0 
C 518 0 858 0 1056 0 
C 1254 0 1594 0 1779 0 
L 1779 160 
C 1338 160 1267 160 1267 446 
L 1267 2042 
z
M 1254 2176 
L 1254 3938 
C 1254 4155 1267 4186 1523 4186 
L 2170 4186 
C 2995 4186 3232 3714 3232 3184 
C 3232 2604 2950 2176 2170 2176 
L 1254 2176 
z
" transform="scale(0.015625)"/>
        <path id="CMR17-69" d="M 992 3909 
C 992 4049 877 4170 730 4170 
C 589 4170 467 4056 467 3909 
C 467 3769 582 3648 730 3648 
C 870 3648 992 3763 992 3909 
z
M 243 2706 
L 243 2541 
C 602 2541 653 2502 653 2197 
L 653 427 
C 653 184 627 153 218 153 
L 218 -13 
C 371 0 646 0 806 0 
C 960 0 1222 0 1370 -13 
L 1370 153 
C 992 153 979 191 979 420 
L 979 2776 
L 243 2706 
z
" transform="scale(0.015625)"/>
        <path id="CMR17-74" d="M 966 2560 
L 1862 2560 
L 1862 2725 
L 966 2725 
L 966 3904 
L 851 3904 
C 838 3245 614 2668 70 2668 
L 70 2560 
L 627 2560 
L 627 771 
C 627 650 627 -64 1370 -64 
C 1747 -64 1965 306 1965 777 
L 1965 1140 
L 1850 1140 
L 1850 783 
C 1850 344 1677 51 1408 51 
C 1222 51 966 178 966 758 
L 966 2560 
z
" transform="scale(0.015625)"/>
        <path id="CMR17-79" d="M 2496 2197 
C 2656 2586 2944 2586 3034 2586 
L 3034 2752 
C 2912 2752 2752 2752 2630 2752 
C 2496 2752 2285 2752 2157 2758 
L 2157 2592 
C 2400 2573 2406 2394 2406 2343 
C 2406 2280 2394 2248 2362 2171 
L 1664 449 
L 902 2306 
C 870 2382 870 2426 870 2433 
C 870 2573 1018 2586 1171 2586 
L 1171 2758 
C 1018 2752 742 2752 582 2752 
C 410 2752 205 2752 64 2758 
L 64 2586 
C 410 2586 448 2554 531 2350 
L 1485 15 
C 1197 -738 1030 -1178 627 -1178 
C 557 -1178 397 -1159 282 -1044 
C 429 -1031 493 -942 493 -833 
C 493 -725 416 -629 288 -629 
C 147 -629 77 -725 77 -840 
C 77 -1095 339 -1280 627 -1280 
C 998 -1280 1229 -922 1357 -604 
L 2496 2197 
z
" transform="scale(0.015625)"/>
       </defs>
       <use xlink:href="#CMR17-50" transform="scale(0.996264)"/>
       <use xlink:href="#CMR17-6c" transform="translate(62.586301 0) scale(0.996264)"/>
       <use xlink:href="#CMR17-75" transform="translate(87.457359 0) scale(0.996264)"/>
       <use xlink:href="#CMR17-72" transform="translate(138.352729 0) scale(0.996264)"/>
       <use xlink:href="#CMR17-61" transform="translate(173.633497 0) scale(0.996264)"/>
       <use xlink:href="#CMR17-6c" transform="translate(219.323974 0) scale(0.996264)"/>
       <use xlink:href="#CMR17-69" transform="translate(244.195032 0) scale(0.996264)"/>
       <use xlink:href="#CMR17-74" transform="translate(269.066091 0) scale(0.996264)"/>
       <use xlink:href="#CMR17-79" transform="translate(301.744405 0) scale(0.996264)"/>
       <use xlink:href="#CMR17-72" transform="translate(380.113287 0) scale(0.996264)"/>
       <use xlink:href="#CMR17-75" transform="translate(415.394055 0) scale(0.996264)"/>
       <use xlink:href="#CMR17-6c" transform="translate(466.289424 0) scale(0.996264)"/>
       <use xlink:href="#CMR17-65" transform="translate(491.160483 0) scale(0.996264)"/>
      </g>
     </g>
    </g>
    <g id="xtick_4">
     <g id="line2d_4">
      <g>
       <use xlink:href="#m377e6d4552" x="632.432543" y="384.626418" style="stroke: #000000; stroke-width: 0.8"/>
      </g>
     </g>
     <g id="text_4">
      <!-- Black's Rule -->
      <g transform="translate(602.569478 399.236765) scale(0.11 -0.11)">
       <defs>
        <path id="CMR17-63" d="M 2234 2240 
C 2112 2240 1933 2240 1933 2017 
C 1933 1838 2080 1787 2163 1787 
C 2208 1787 2394 1807 2394 2024 
C 2394 2467 1958 2803 1466 2803 
C 787 2803 211 2178 211 1363 
C 211 516 813 -64 1466 -64 
C 2259 -64 2458 677 2458 748 
C 2458 774 2451 793 2406 793 
C 2362 793 2355 787 2330 703 
C 2163 180 1798 51 1523 51 
C 1114 51 621 427 621 1369 
C 621 2338 1094 2688 1472 2688 
C 1722 2688 2093 2573 2234 2240 
z
" transform="scale(0.015625)"/>
        <path id="CMR17-6b" d="M 1670 1673 
C 1664 1686 1632 1724 1632 1743 
C 1632 1756 2086 2171 2144 2222 
C 2509 2528 2739 2560 2906 2560 
L 2906 2733 
C 2867 2733 2854 2733 2848 2720 
L 2534 2720 
C 2355 2720 2080 2720 1907 2733 
L 1907 2566 
C 1997 2559 2061 2508 2061 2419 
C 2061 2291 1933 2170 1926 2170 
L 960 1289 
L 960 4396 
L 198 4326 
L 198 4160 
C 576 4160 634 4122 634 3817 
L 634 426 
C 634 184 608 153 198 153 
L 198 -13 
C 352 0 634 0 794 0 
C 954 0 1235 0 1389 -13 
L 1389 153 
C 979 153 954 178 954 428 
L 954 1130 
L 1395 1532 
L 2042 574 
C 2118 459 2182 369 2182 286 
C 2182 172 2067 153 1990 153 
L 1990 -13 
C 2144 0 2419 0 2579 0 
C 2694 0 2931 0 3040 0 
L 3040 153 
C 2739 153 2669 210 2477 491 
L 1670 1673 
z
" transform="scale(0.015625)"/>
       </defs>
       <use xlink:href="#CMR17-42" transform="scale(0.996264)"/>
       <use xlink:href="#CMR17-6c" transform="translate(65.188754 0) scale(0.996264)"/>
       <use xlink:href="#CMR17-61" transform="translate(90.059813 0) scale(0.996264)"/>
       <use xlink:href="#CMR17-63" transform="translate(135.75029 0) scale(0.996264)"/>
       <use xlink:href="#CMR17-6b" transform="translate(173.633497 0) scale(0.996264)"/>
       <use xlink:href="#CMR17-27" transform="translate(221.926412 0) scale(0.996264)"/>
       <use xlink:href="#CMR17-73" transform="translate(246.797471 0) scale(0.996264)"/>
       <use xlink:href="#CMR17-52" transform="translate(312.674775 0) scale(0.996264)"/>
       <use xlink:href="#CMR17-75" transform="translate(380.465877 0) scale(0.996264)"/>
       <use xlink:href="#CMR17-6c" transform="translate(431.361247 0) scale(0.996264)"/>
       <use xlink:href="#CMR17-65" transform="translate(456.232305 0) scale(0.996264)"/>
      </g>
     </g>
    </g>
    <g id="text_5">
     <!-- Number of voters -->
     <g transform="translate(328.442607 414.361688) scale(0.13 -0.13)">
      <defs>
       <path id="CMR17-4e" d="M 1312 4250 
C 1267 4320 1261 4320 1139 4320 
L 326 4320 
L 326 4160 
L 448 4160 
C 704 4160 819 4129 838 4122 
L 838 610 
C 838 451 838 153 326 153 
L 326 -13 
C 474 0 742 0 902 0 
C 1062 0 1331 0 1478 -13 
L 1478 153 
C 966 153 966 451 966 610 
L 966 4033 
C 1011 3995 1011 3982 1056 3919 
L 3430 76 
C 3475 0 3494 0 3526 0 
C 3590 0 3590 19 3590 139 
L 3590 3705 
C 3590 3863 3590 4160 4102 4160 
L 4102 4326 
C 3955 4320 3686 4320 3526 4320 
C 3366 4320 3098 4320 2950 4326 
L 2950 4160 
C 3462 4160 3462 3862 3462 3703 
L 3462 763 
L 1312 4250 
z
" transform="scale(0.015625)"/>
       <path id="CMR17-6d" d="M 4326 1933 
C 4326 2252 4269 2790 3507 2790 
C 3072 2790 2771 2496 2656 2151 
L 2650 2151 
C 2573 2676 2195 2790 1837 2790 
C 1331 2790 1069 2400 973 2144 
L 966 2144 
L 966 2790 
L 211 2720 
L 211 2554 
C 589 2554 646 2515 646 2208 
L 646 428 
C 646 184 621 153 211 153 
L 211 -13 
C 365 0 646 0 813 0 
C 979 0 1267 0 1421 -13 
L 1421 153 
C 1011 153 986 178 986 428 
L 986 1658 
C 986 2247 1344 2688 1792 2688 
C 2266 2688 2317 2266 2317 1958 
L 2317 428 
C 2317 184 2291 153 1882 153 
L 1882 -13 
C 2035 0 2317 0 2483 0 
C 2650 0 2938 0 3091 -13 
L 3091 153 
C 2682 153 2656 178 2656 428 
L 2656 1658 
C 2656 2247 3014 2688 3462 2688 
C 3936 2688 3987 2266 3987 1958 
L 3987 428 
C 3987 184 3962 153 3552 153 
L 3552 -13 
C 3706 0 3987 0 4154 0 
C 4320 0 4608 0 4762 -13 
L 4762 153 
C 4352 153 4326 178 4326 428 
L 4326 1933 
z
" transform="scale(0.015625)"/>
       <path id="CMR17-62" d="M 960 4396 
L 198 4326 
L 198 4160 
C 576 4160 634 4122 634 3817 
L 634 -13 
L 749 -13 
L 934 441 
C 1120 141 1395 -64 1766 -64 
C 2406 -64 3053 500 3053 1370 
C 3053 2188 2477 2790 1830 2790 
C 1434 2790 1152 2579 960 2330 
L 960 4396 
z
M 973 2004 
C 973 2118 973 2138 1062 2272 
C 1312 2657 1670 2688 1792 2688 
C 1984 2688 2643 2585 2643 1376 
C 2643 108 1888 38 1734 38 
C 1536 38 1248 114 1043 486 
C 973 608 973 621 973 735 
L 973 2004 
z
" transform="scale(0.015625)"/>
       <path id="CMR17-66" d="M 979 2560 
L 1709 2560 
L 1709 2725 
L 966 2725 
L 966 3494 
C 966 4022 1235 4352 1510 4352 
C 1594 4352 1690 4327 1754 4282 
C 1702 4269 1568 4225 1568 4067 
C 1568 3901 1696 3850 1786 3850 
C 1875 3850 2003 3901 2003 4067 
C 2003 4308 1773 4454 1517 4454 
C 1152 4454 653 4156 653 3481 
L 653 2725 
L 141 2725 
L 141 2560 
L 653 2560 
L 653 427 
C 653 184 627 153 218 153 
L 218 -13 
C 371 0 666 0 832 0 
C 1018 0 1344 0 1517 -13 
L 1517 153 
C 1056 153 979 153 979 439 
L 979 2560 
z
" transform="scale(0.015625)"/>
       <path id="CMR17-76" d="M 2502 2163 
C 2560 2304 2662 2560 3034 2560 
L 3034 2726 
C 2912 2726 2752 2726 2630 2726 
C 2496 2726 2285 2726 2157 2732 
L 2157 2566 
C 2317 2553 2406 2477 2406 2311 
C 2406 2253 2406 2240 2368 2151 
L 1664 377 
L 902 2286 
C 864 2369 864 2381 864 2407 
C 864 2560 1075 2560 1171 2560 
L 1171 2732 
C 1018 2726 736 2726 576 2726 
C 403 2726 205 2726 64 2732 
L 64 2560 
C 307 2560 442 2560 518 2362 
L 1446 44 
C 1485 -51 1491 -64 1549 -64 
C 1606 -64 1613 -51 1651 44 
L 2502 2163 
z
" transform="scale(0.015625)"/>
      </defs>
      <use xlink:href="#CMR17-4e" transform="scale(0.996264)"/>
      <use xlink:href="#CMR17-75" transform="translate(69.07243 0) scale(0.996264)"/>
      <use xlink:href="#CMR17-6d" transform="translate(119.9678 0) scale(0.996264)"/>
      <use xlink:href="#CMR17-62" transform="translate(194.284936 0) scale(0.996264)"/>
      <use xlink:href="#CMR17-65" transform="translate(247.782744 0) scale(0.996264)"/>
      <use xlink:href="#CMR17-72" transform="translate(288.268404 0) scale(0.996264)"/>
      <use xlink:href="#CMR17-6f" transform="translate(353.625139 0) scale(0.996264)"/>
      <use xlink:href="#CMR17-66" transform="translate(399.315616 0) scale(0.996264)"/>
      <use xlink:href="#CMR17-76" transform="translate(456.865095 0) scale(0.996264)"/>
      <use xlink:href="#CMR17-6f" transform="translate(502.555556 0) scale(0.996264)"/>
      <use xlink:href="#CMR17-74" transform="translate(548.246034 0) scale(0.996264)"/>
      <use xlink:href="#CMR17-65" transform="translate(583.526801 0) scale(0.996264)"/>
      <use xlink:href="#CMR17-72" transform="translate(624.012462 0) scale(0.996264)"/>
      <use xlink:href="#CMR17-73" transform="translate(659.29323 0) scale(0.996264)"/>
     </g>
    </g>
   </g>
   <g id="matplotlib.axis_2">
    <g id="ytick_1">
     <g id="line2d_5">
      <path d="M 48.591275 335.567633 
L 704.88 335.567633 
" clip-path="url(#p9fc3ebf9b3)" style="fill: none; stroke: #b0b0b0; stroke-opacity: 0.3; stroke-linecap: square"/>
     </g>
     <g id="line2d_6">
      <defs>
       <path id="md987cbba95" d="M 0 0 
L -3.5 0 
" style="stroke: #000000; stroke-width: 0.8"/>
      </defs>
      <g>
       <use xlink:href="#md987cbba95" x="48.591275" y="335.567633" style="stroke: #000000; stroke-width: 0.8"/>
      </g>
     </g>
     <g id="text_6">
      <!-- $\mathdefault{2}$ -->
      <g transform="translate(36.111807 339.372806) scale(0.11 -0.11)">
       <defs>
        <path id="CMR17-32" d="M 2669 989 
L 2554 989 
C 2490 536 2438 459 2413 420 
C 2381 369 1920 369 1830 369 
L 602 369 
C 832 619 1280 1072 1824 1597 
C 2214 1967 2669 2402 2669 3035 
C 2669 3790 2067 4224 1395 4224 
C 691 4224 262 3604 262 3030 
C 262 2780 448 2748 525 2748 
C 589 2748 781 2787 781 3010 
C 781 3207 614 3264 525 3264 
C 486 3264 448 3258 422 3245 
C 544 3790 915 4058 1306 4058 
C 1862 4058 2227 3617 2227 3035 
C 2227 2479 1901 2000 1536 1584 
L 262 146 
L 262 0 
L 2515 0 
L 2669 989 
z
" transform="scale(0.015625)"/>
       </defs>
       <use xlink:href="#CMR17-32" transform="scale(0.996264)"/>
      </g>
     </g>
    </g>
    <g id="ytick_2">
     <g id="line2d_7">
      <path d="M 48.591275 269.678462 
L 704.88 269.678462 
" clip-path="url(#p9fc3ebf9b3)" style="fill: none; stroke: #b0b0b0; stroke-opacity: 0.3; stroke-linecap: square"/>
     </g>
     <g id="line2d_8">
      <g>
       <use xlink:href="#md987cbba95" x="48.591275" y="269.678462" style="stroke: #000000; stroke-width: 0.8"/>
      </g>
     </g>
     <g id="text_7">
      <!-- $\mathdefault{4}$ -->
      <g transform="translate(36.111807 273.483635) scale(0.11 -0.11)">
       <defs>
        <path id="CMR17-34" d="M 2150 4122 
C 2150 4256 2144 4256 2029 4256 
L 128 1254 
L 128 1088 
L 1779 1088 
L 1779 457 
C 1779 224 1766 160 1318 160 
L 1197 160 
L 1197 0 
C 1402 0 1747 0 1965 0 
C 2182 0 2528 0 2733 0 
L 2733 160 
L 2611 160 
C 2163 160 2150 224 2150 457 
L 2150 1088 
L 2803 1088 
L 2803 1254 
L 2150 1254 
L 2150 4122 
z
M 1798 3703 
L 1798 1254 
L 256 1254 
L 1798 3703 
z
" transform="scale(0.015625)"/>
       </defs>
       <use xlink:href="#CMR17-34" transform="scale(0.996264)"/>
      </g>
     </g>
    </g>
    <g id="ytick_3">
     <g id="line2d_9">
      <path d="M 48.591275 203.78929 
L 704.88 203.78929 
" clip-path="url(#p9fc3ebf9b3)" style="fill: none; stroke: #b0b0b0; stroke-opacity: 0.3; stroke-linecap: square"/>
     </g>
     <g id="line2d_10">
      <g>
       <use xlink:href="#md987cbba95" x="48.591275" y="203.78929" style="stroke: #000000; stroke-width: 0.8"/>
      </g>
     </g>
     <g id="text_8">
      <!-- $\mathdefault{6}$ -->
      <g transform="translate(36.111807 207.594463) scale(0.11 -0.11)">
       <defs>
        <path id="CMR17-36" d="M 678 2176 
C 678 3690 1395 4032 1811 4032 
C 1946 4032 2272 4009 2400 3776 
C 2298 3776 2106 3776 2106 3553 
C 2106 3381 2246 3323 2336 3323 
C 2394 3323 2566 3348 2566 3560 
C 2566 3954 2246 4179 1805 4179 
C 1043 4179 243 3390 243 1984 
C 243 253 966 -128 1478 -128 
C 2099 -128 2688 427 2688 1283 
C 2688 2081 2170 2662 1517 2662 
C 1126 2662 838 2407 678 1960 
L 678 2176 
z
M 1478 25 
C 691 25 691 1200 691 1436 
C 691 1896 909 2560 1504 2560 
C 1613 2560 1926 2560 2138 2120 
C 2253 1870 2253 1609 2253 1289 
C 2253 944 2253 690 2118 434 
C 1978 171 1773 25 1478 25 
z
" transform="scale(0.015625)"/>
       </defs>
       <use xlink:href="#CMR17-36" transform="scale(0.996264)"/>
      </g>
     </g>
    </g>
    <g id="ytick_4">
     <g id="line2d_11">
      <path d="M 48.591275 137.900119 
L 704.88 137.900119 
" clip-path="url(#p9fc3ebf9b3)" style="fill: none; stroke: #b0b0b0; stroke-opacity: 0.3; stroke-linecap: square"/>
     </g>
     <g id="line2d_12">
      <g>
       <use xlink:href="#md987cbba95" x="48.591275" y="137.900119" style="stroke: #000000; stroke-width: 0.8"/>
      </g>
     </g>
     <g id="text_9">
      <!-- $\mathdefault{8}$ -->
      <g transform="translate(36.111807 141.705292) scale(0.11 -0.11)">
       <defs>
        <path id="CMR17-38" d="M 1741 2264 
C 2144 2467 2554 2773 2554 3263 
C 2554 3841 1990 4179 1472 4179 
C 890 4179 378 3759 378 3180 
C 378 3021 416 2747 666 2505 
C 730 2442 998 2251 1171 2130 
C 883 1983 211 1634 211 934 
C 211 279 838 -128 1459 -128 
C 2144 -128 2720 362 2720 1010 
C 2720 1590 2330 1857 2074 2029 
L 1741 2264 
z
M 902 2822 
C 851 2854 595 3051 595 3351 
C 595 3739 998 4032 1459 4032 
C 1965 4032 2336 3676 2336 3262 
C 2336 2669 1670 2331 1638 2331 
C 1632 2331 1626 2331 1574 2370 
L 902 2822 
z
M 2080 1519 
C 2176 1449 2483 1240 2483 851 
C 2483 381 2010 25 1472 25 
C 890 25 448 438 448 940 
C 448 1443 838 1862 1280 2060 
L 2080 1519 
z
" transform="scale(0.015625)"/>
       </defs>
       <use xlink:href="#CMR17-38" transform="scale(0.996264)"/>
      </g>
     </g>
    </g>
    <g id="ytick_5">
     <g id="line2d_13">
      <path d="M 48.591275 72.010947 
L 704.88 72.010947 
" clip-path="url(#p9fc3ebf9b3)" style="fill: none; stroke: #b0b0b0; stroke-opacity: 0.3; stroke-linecap: square"/>
     </g>
     <g id="line2d_14">
      <g>
       <use xlink:href="#md987cbba95" x="48.591275" y="72.010947" style="stroke: #000000; stroke-width: 0.8"/>
      </g>
     </g>
     <g id="text_10">
      <!-- $\mathdefault{10}$ -->
      <g transform="translate(30.63234 75.81612) scale(0.11 -0.11)">
       <defs>
        <path id="CMR17-31" d="M 1702 4058 
C 1702 4192 1696 4192 1606 4192 
C 1357 3916 979 3827 621 3827 
C 602 3827 570 3827 563 3808 
C 557 3795 557 3782 557 3648 
C 755 3648 1088 3686 1344 3839 
L 1344 461 
C 1344 236 1331 160 781 160 
L 589 160 
L 589 0 
C 896 0 1216 0 1523 0 
C 1830 0 2150 0 2458 0 
L 2458 160 
L 2266 160 
C 1715 160 1702 230 1702 458 
L 1702 4058 
z
" transform="scale(0.015625)"/>
        <path id="CMR17-30" d="M 2688 2025 
C 2688 2416 2682 3080 2413 3591 
C 2176 4039 1798 4198 1466 4198 
C 1158 4198 768 4058 525 3597 
C 269 3118 243 2524 243 2025 
C 243 1661 250 1106 448 619 
C 723 -39 1216 -128 1466 -128 
C 1760 -128 2208 -7 2470 600 
C 2662 1042 2688 1559 2688 2025 
z
M 1466 -26 
C 1056 -26 813 325 723 812 
C 653 1188 653 1738 653 2096 
C 653 2588 653 2997 736 3387 
C 858 3929 1216 4096 1466 4096 
C 1728 4096 2067 3923 2189 3400 
C 2272 3036 2278 2607 2278 2096 
C 2278 1680 2278 1169 2202 792 
C 2067 95 1690 -26 1466 -26 
z
" transform="scale(0.015625)"/>
       </defs>
       <use xlink:href="#CMR17-31" transform="scale(0.996264)"/>
       <use xlink:href="#CMR17-30" transform="translate(45.690477 0) scale(0.996264)"/>
      </g>
     </g>
    </g>
    <g id="text_11">
     <!-- Distortion -->
     <g transform="translate(24.114028 235.497321) rotate(-90) scale(0.13 -0.13)">
      <defs>
       <path id="CMR17-44" d="M 333 4352 
L 333 4186 
C 774 4186 845 4186 845 3900 
L 845 452 
C 845 166 774 166 333 166 
L 333 0 
L 2368 0 
C 3398 0 4224 943 4224 2141 
C 4224 3346 3411 4352 2368 4352 
L 333 4352 
z
M 1523 166 
C 1267 166 1254 197 1254 414 
L 1254 3938 
C 1254 4155 1267 4186 1523 4186 
L 2240 4186 
C 2771 4186 3750 3874 3750 2141 
C 3750 1242 3488 879 3366 707 
C 3213 510 2848 166 2240 166 
L 1523 166 
z
" transform="scale(0.015625)"/>
      </defs>
      <use xlink:href="#CMR17-44" transform="scale(0.996264)"/>
      <use xlink:href="#CMR17-69" transform="translate(70.393556 0) scale(0.996264)"/>
      <use xlink:href="#CMR17-73" transform="translate(95.264614 0) scale(0.996264)"/>
      <use xlink:href="#CMR17-74" transform="translate(131.065952 0) scale(0.996264)"/>
      <use xlink:href="#CMR17-6f" transform="translate(166.34672 0) scale(0.996264)"/>
      <use xlink:href="#CMR17-72" transform="translate(212.037197 0) scale(0.996264)"/>
      <use xlink:href="#CMR17-74" transform="translate(247.317965 0) scale(0.996264)"/>
      <use xlink:href="#CMR17-69" transform="translate(282.598733 0) scale(0.996264)"/>
      <use xlink:href="#CMR17-6f" transform="translate(307.469791 0) scale(0.996264)"/>
      <use xlink:href="#CMR17-6e" transform="translate(353.160268 0) scale(0.996264)"/>
     </g>
    </g>
   </g>
   <g id="LineCollection_1">
    <path d="M 99.730656 307.238016 
L 142.346807 307.238016 
" clip-path="url(#p9fc3ebf9b3)" style="fill: none; stroke: #1f77b4; stroke-width: 1.5"/>
    <path d="M 270.19526 314.853562 
L 312.811411 314.853562 
" clip-path="url(#p9fc3ebf9b3)" style="fill: none; stroke: #1f77b4; stroke-width: 1.5"/>
    <path d="M 440.659864 330.016143 
L 483.276015 330.016143 
" clip-path="url(#p9fc3ebf9b3)" style="fill: none; stroke: #1f77b4; stroke-width: 1.5"/>
    <path d="M 611.124468 310.698454 
L 653.740619 310.698454 
" clip-path="url(#p9fc3ebf9b3)" style="fill: none; stroke: #1f77b4; stroke-width: 1.5"/>
   </g>
   <g id="LineCollection_2">
    <path d="M 99.730656 46.228228 
L 142.346807 46.228228 
" clip-path="url(#p9fc3ebf9b3)" style="fill: none; stroke: #1f77b4; stroke-width: 1.5"/>
    <path d="M 270.19526 180.038542 
L 312.811411 180.038542 
" clip-path="url(#p9fc3ebf9b3)" style="fill: none; stroke: #1f77b4; stroke-width: 1.5"/>
    <path d="M 440.659864 186.84636 
L 483.276015 186.84636 
" clip-path="url(#p9fc3ebf9b3)" style="fill: none; stroke: #1f77b4; stroke-width: 1.5"/>
    <path d="M 611.124468 164.028583 
L 653.740619 164.028583 
" clip-path="url(#p9fc3ebf9b3)" style="fill: none; stroke: #1f77b4; stroke-width: 1.5"/>
   </g>
   <g id="LineCollection_3">
    <path d="M 99.730656 368.512219 
L 142.346807 368.512219 
" clip-path="url(#p9fc3ebf9b3)" style="fill: none; stroke: #1f77b4; stroke-width: 1.5"/>
    <path d="M 270.19526 368.512219 
L 312.811411 368.512219 
" clip-path="url(#p9fc3ebf9b3)" style="fill: none; stroke: #1f77b4; stroke-width: 1.5"/>
    <path d="M 440.659864 368.512219 
L 483.276015 368.512219 
" clip-path="url(#p9fc3ebf9b3)" style="fill: none; stroke: #1f77b4; stroke-width: 1.5"/>
    <path d="M 611.124468 368.512219 
L 653.740619 368.512219 
" clip-path="url(#p9fc3ebf9b3)" style="fill: none; stroke: #1f77b4; stroke-width: 1.5"/>
   </g>
   <g id="LineCollection_4">
    <path d="M 121.038731 368.512219 
L 121.038731 46.228228 
" clip-path="url(#p9fc3ebf9b3)" style="fill: none; stroke: #1f77b4; stroke-width: 1.5"/>
    <path d="M 291.503335 368.512219 
L 291.503335 180.038542 
" clip-path="url(#p9fc3ebf9b3)" style="fill: none; stroke: #1f77b4; stroke-width: 1.5"/>
    <path d="M 461.967939 368.512219 
L 461.967939 186.84636 
" clip-path="url(#p9fc3ebf9b3)" style="fill: none; stroke: #1f77b4; stroke-width: 1.5"/>
    <path d="M 632.432543 368.512219 
L 632.432543 164.028583 
" clip-path="url(#p9fc3ebf9b3)" style="fill: none; stroke: #1f77b4; stroke-width: 1.5"/>
   </g>
   <g id="patch_3">
    <path d="M 48.591275 384.626418 
L 48.591275 30.114028 
" style="fill: none; stroke: #000000; stroke-linejoin: miter; stroke-linecap: square"/>
   </g>
   <g id="patch_4">
    <path d="M 704.88 384.626418 
L 704.88 30.114028 
" style="fill: none; stroke: #000000; stroke-linejoin: miter; stroke-linecap: square"/>
   </g>
   <g id="patch_5">
    <path d="M 48.591275 384.626418 
L 704.88 384.626418 
" style="fill: none; stroke: #000000; stroke-linejoin: miter; stroke-linecap: square"/>
   </g>
   <g id="patch_6">
    <path d="M 48.591275 30.114028 
L 704.88 30.114028 
" style="fill: none; stroke: #000000; stroke-linejoin: miter; stroke-linecap: square"/>
   </g>
   <g id="text_12">
    <!-- Distortion Under Nietzschean -->
    <g transform="translate(294.505396 24.114028) scale(0.13 -0.13)">
     <defs>
      <path id="CMR17-55" d="M 3456 1433 
C 3456 579 2899 38 2291 38 
C 1965 38 1670 210 1491 477 
C 1286 783 1261 1178 1261 1401 
L 1261 3874 
C 1261 4160 1331 4160 1773 4160 
L 1773 4320 
C 1587 4320 1248 4320 1050 4320 
C 851 4320 512 4320 326 4320 
L 326 4160 
C 768 4160 838 4160 838 3874 
L 838 1433 
C 838 516 1536 -128 2278 -128 
C 3110 -128 3590 719 3590 1344 
L 3590 3766 
C 3590 4122 3917 4160 4102 4160 
L 4102 4326 
C 3955 4320 3686 4320 3526 4320 
C 3366 4320 3091 4320 2944 4326 
L 2944 4160 
C 3456 4160 3456 3861 3456 3702 
L 3456 1433 
z
" transform="scale(0.015625)"/>
      <path id="CMR17-7a" d="M 2310 2605 
C 2362 2670 2362 2682 2362 2695 
C 2362 2752 2336 2752 2221 2752 
L 275 2752 
L 211 1760 
L 326 1760 
C 371 2381 442 2650 1178 2650 
L 1958 2650 
L 128 96 
C 128 0 134 0 269 0 
L 2291 0 
L 2381 1152 
L 2266 1152 
C 2214 442 2131 115 1350 115 
L 531 115 
L 2310 2605 
z
" transform="scale(0.015625)"/>
      <path id="CMR17-68" d="M 2656 1933 
C 2656 2259 2592 2790 1837 2790 
C 1312 2790 1056 2368 979 2157 
L 973 2157 
L 973 4396 
L 211 4326 
L 211 4160 
C 589 4160 646 4122 646 3817 
L 646 426 
C 646 184 621 153 211 153 
L 211 -13 
C 365 0 646 0 813 0 
C 979 0 1267 0 1421 -13 
L 1421 153 
C 1011 153 986 178 986 428 
L 986 1658 
C 986 2247 1344 2688 1792 2688 
C 2266 2688 2317 2266 2317 1958 
L 2317 428 
C 2317 184 2291 153 1882 153 
L 1882 -13 
C 2035 0 2317 0 2483 0 
C 2650 0 2938 0 3091 -13 
L 3091 153 
C 2682 153 2656 178 2656 428 
L 2656 1933 
z
" transform="scale(0.015625)"/>
     </defs>
     <use xlink:href="#CMR17-44" transform="scale(0.996264)"/>
     <use xlink:href="#CMR17-69" transform="translate(70.393556 0) scale(0.996264)"/>
     <use xlink:href="#CMR17-73" transform="translate(95.264614 0) scale(0.996264)"/>
     <use xlink:href="#CMR17-74" transform="translate(131.065952 0) scale(0.996264)"/>
     <use xlink:href="#CMR17-6f" transform="translate(166.34672 0) scale(0.996264)"/>
     <use xlink:href="#CMR17-72" transform="translate(212.037197 0) scale(0.996264)"/>
     <use xlink:href="#CMR17-74" transform="translate(247.317965 0) scale(0.996264)"/>
     <use xlink:href="#CMR17-69" transform="translate(282.598733 0) scale(0.996264)"/>
     <use xlink:href="#CMR17-6f" transform="translate(307.469791 0) scale(0.996264)"/>
     <use xlink:href="#CMR17-6e" transform="translate(353.160268 0) scale(0.996264)"/>
     <use xlink:href="#CMR17-55" transform="translate(434.131604 0) scale(0.996264)"/>
     <use xlink:href="#CMR17-6e" transform="translate(503.204034 0) scale(0.996264)"/>
     <use xlink:href="#CMR17-64" transform="translate(554.099404 0) scale(0.996264)"/>
     <use xlink:href="#CMR17-65" transform="translate(604.994774 0) scale(0.996264)"/>
     <use xlink:href="#CMR17-72" transform="translate(645.480434 0) scale(0.996264)"/>
     <use xlink:href="#CMR17-4e" transform="translate(710.837168 0) scale(0.996264)"/>
     <use xlink:href="#CMR17-69" transform="translate(779.909598 0) scale(0.996264)"/>
     <use xlink:href="#CMR17-65" transform="translate(804.780657 0) scale(0.996264)"/>
     <use xlink:href="#CMR17-74" transform="translate(845.266317 0) scale(0.996264)"/>
     <use xlink:href="#CMR17-7a" transform="translate(880.547085 0) scale(0.996264)"/>
     <use xlink:href="#CMR17-73" transform="translate(921.032745 0) scale(0.996264)"/>
     <use xlink:href="#CMR17-63" transform="translate(956.834083 0) scale(0.996264)"/>
     <use xlink:href="#CMR17-68" transform="translate(994.717289 0) scale(0.996264)"/>
     <use xlink:href="#CMR17-65" transform="translate(1045.612659 0) scale(0.996264)"/>
     <use xlink:href="#CMR17-61" transform="translate(1086.09832 0) scale(0.996264)"/>
     <use xlink:href="#CMR17-6e" transform="translate(1131.788797 0) scale(0.996264)"/>
    </g>
   </g>
  </g>
 </g>
 <defs>
  <clipPath id="p9fc3ebf9b3">
   <rect x="48.591275" y="30.114028" width="656.288725" height="354.51239"/>
  </clipPath>
 </defs>
</svg>
