<?xml version="1.0" encoding="utf-8" standalone="no"?>
<!DOCTYPE svg PUBLIC "-//W3C//DTD SVG 1.1//EN"
  "http://www.w3.org/Graphics/SVG/1.1/DTD/svg11.dtd">
<svg xmlns:xlink="http://www.w3.org/1999/xlink" width="720pt" height="432pt" viewBox="0 0 720 432" xmlns="http://www.w3.org/2000/svg" version="1.1">
 <metadata>
  <rdf:RDF xmlns:dc="http://purl.org/dc/elements/1.1/" xmlns:cc="http://creativecommons.org/ns#" xmlns:rdf="http://www.w3.org/1999/02/22-rdf-syntax-ns#">
   <cc:Work>
    <dc:type rdf:resource="http://purl.org/dc/dcmitype/StillImage"/>
    <dc:date>2024-12-05T20:29:47.055426</dc:date>
    <dc:format>image/svg+xml</dc:format>
    <dc:creator>
     <cc:Agent>
      <dc:title>Matplotlib v3.9.2, https://matplotlib.org/</dc:title>
     </cc:Agent>
    </dc:creator>
   </cc:Work>
  </rdf:RDF>
 </metadata>
 <defs>
  <style type="text/css">*{stroke-linejoin: round; stroke-linecap: butt}</style>
 </defs>
 <g id="figure_1">
  <g id="patch_1">
   <path d="M 0 432 
L 720 432 
L 720 0 
L 0 0 
z
" style="fill: #ffffff"/>
  </g>
  <g id="axes_1">
   <g id="patch_2">
    <path d="M 57.114884 384.626418 
L 704.88 384.626418 
L 704.88 30.114028 
L 57.114884 30.114028 
z
" style="fill: #ffffff"/>
   </g>
   <g id="PolyCollection_1">
    <defs>
     <path id="mdd133a7ad0" d="M 169.502783 -63.487781 
L 87.740062 -63.487781 
L 86.757583 -66.743175 
L 86.558753 -69.998569 
L 87.107661 -73.253963 
L 88.319584 -76.509357 
L 90.071927 -79.76475 
L 92.218692 -83.020144 
L 94.606206 -86.275538 
L 97.087938 -89.530932 
L 99.536535 -92.786326 
L 101.851924 -96.04172 
L 103.965047 -99.297113 
L 105.837511 -102.552507 
L 107.457983 -105.807901 
L 108.836456 -109.063295 
L 109.997578 -112.318689 
L 110.974104 -115.574083 
L 111.801284 -118.829477 
L 112.512634 -122.08487 
L 113.137291 -125.340264 
L 113.69881 -128.595658 
L 114.215161 -131.851052 
L 114.699538 -135.106446 
L 115.161578 -138.36184 
L 115.608668 -141.617234 
L 116.047048 -144.872627 
L 116.482567 -148.128021 
L 116.921011 -151.383415 
L 117.368051 -154.638809 
L 117.828879 -157.894203 
L 118.307685 -161.149597 
L 118.807112 -164.40499 
L 119.327827 -167.660384 
L 119.868287 -170.915778 
L 120.42477 -174.171172 
L 120.991656 -177.426566 
L 121.561905 -180.68196 
L 122.127656 -183.937354 
L 122.680854 -187.192747 
L 123.213805 -190.448141 
L 123.719611 -193.703535 
L 124.19244 -196.958929 
L 124.627661 -200.214323 
L 125.021845 -203.469717 
L 125.372718 -206.725111 
L 125.679079 -209.980504 
L 125.940738 -213.235898 
L 126.158462 -216.491292 
L 126.333939 -219.746686 
L 126.469711 -223.00208 
L 126.569068 -226.257474 
L 126.635882 -229.512867 
L 126.674385 -232.768261 
L 126.688916 -236.023655 
L 126.68368 -239.279049 
L 126.662554 -242.534443 
L 126.628987 -245.789837 
L 126.585993 -249.045231 
L 126.536235 -252.300624 
L 126.482165 -255.556018 
L 126.42618 -258.811412 
L 126.370749 -262.066806 
L 126.318474 -265.3222 
L 126.272087 -268.577594 
L 126.234372 -271.832988 
L 126.208058 -275.088381 
L 126.195689 -278.343775 
L 126.199504 -281.599169 
L 126.22134 -284.854563 
L 126.262553 -288.109957 
L 126.323952 -291.365351 
L 126.40573 -294.620744 
L 126.507392 -297.876138 
L 126.627692 -301.131532 
L 126.764586 -304.386926 
L 126.915233 -307.64232 
L 127.076062 -310.897714 
L 127.24292 -314.153108 
L 127.41129 -317.408501 
L 127.57657 -320.663895 
L 127.734367 -323.919289 
L 127.880772 -327.174683 
L 128.012588 -330.430077 
L 128.127466 -333.685471 
L 128.223961 -336.940865 
L 128.301503 -340.196258 
L 128.360301 -343.451652 
L 128.401219 -346.707046 
L 128.425645 -349.96244 
L 128.435372 -353.217834 
L 128.432508 -356.473228 
L 128.41941 -359.728622 
L 128.39863 -362.984015 
L 128.372861 -366.239409 
L 128.344862 -369.494803 
L 128.31736 -372.750197 
L 128.29291 -376.005591 
L 128.273748 -379.260985 
L 128.261631 -382.516378 
L 128.257716 -385.771772 
L 128.985129 -385.771772 
L 128.985129 -385.771772 
L 128.981214 -382.516378 
L 128.969097 -379.260985 
L 128.949935 -376.005591 
L 128.925485 -372.750197 
L 128.897983 -369.494803 
L 128.869984 -366.239409 
L 128.844215 -362.984015 
L 128.823435 -359.728622 
L 128.810337 -356.473228 
L 128.807473 -353.217834 
L 128.8172 -349.96244 
L 128.841626 -346.707046 
L 128.882544 -343.451652 
L 128.941342 -340.196258 
L 129.018884 -336.940865 
L 129.115379 -333.685471 
L 129.230257 -330.430077 
L 129.362073 -327.174683 
L 129.508478 -323.919289 
L 129.666275 -320.663895 
L 129.831555 -317.408501 
L 129.999925 -314.153108 
L 130.166783 -310.897714 
L 130.327612 -307.64232 
L 130.478259 -304.386926 
L 130.615153 -301.131532 
L 130.735453 -297.876138 
L 130.837115 -294.620744 
L 130.918893 -291.365351 
L 130.980292 -288.109957 
L 131.021505 -284.854563 
L 131.043341 -281.599169 
L 131.047156 -278.343775 
L 131.034787 -275.088381 
L 131.008473 -271.832988 
L 130.970758 -268.577594 
L 130.924371 -265.3222 
L 130.872096 -262.066806 
L 130.816665 -258.811412 
L 130.76068 -255.556018 
L 130.70661 -252.300624 
L 130.656852 -249.045231 
L 130.613858 -245.789837 
L 130.580291 -242.534443 
L 130.559165 -239.279049 
L 130.553929 -236.023655 
L 130.56846 -232.768261 
L 130.606963 -229.512867 
L 130.673777 -226.257474 
L 130.773134 -223.00208 
L 130.908906 -219.746686 
L 131.084383 -216.491292 
L 131.302107 -213.235898 
L 131.563766 -209.980504 
L 131.870127 -206.725111 
L 132.221 -203.469717 
L 132.615184 -200.214323 
L 133.050405 -196.958929 
L 133.523234 -193.703535 
L 134.02904 -190.448141 
L 134.561991 -187.192747 
L 135.115189 -183.937354 
L 135.68094 -180.68196 
L 136.251189 -177.426566 
L 136.818075 -174.171172 
L 137.374558 -170.915778 
L 137.915018 -167.660384 
L 138.435733 -164.40499 
L 138.93516 -161.149597 
L 139.413966 -157.894203 
L 139.874794 -154.638809 
L 140.321834 -151.383415 
L 140.760278 -148.128021 
L 141.195797 -144.872627 
L 141.634177 -141.617234 
L 142.081267 -138.36184 
L 142.543307 -135.106446 
L 143.027684 -131.851052 
L 143.544035 -128.595658 
L 144.105554 -125.340264 
L 144.730211 -122.08487 
L 145.441561 -118.829477 
L 146.268741 -115.574083 
L 147.245267 -112.318689 
L 148.406389 -109.063295 
L 149.784862 -105.807901 
L 151.405334 -102.552507 
L 153.277798 -99.297113 
L 155.390921 -96.04172 
L 157.70631 -92.786326 
L 160.154907 -89.530932 
L 162.636639 -86.275538 
L 165.024153 -83.020144 
L 167.170918 -79.76475 
L 168.923261 -76.509357 
L 170.135184 -73.253963 
L 170.684092 -69.998569 
L 170.485262 -66.743175 
L 169.502783 -63.487781 
z
" style="stroke: #000000; stroke-opacity: 0.7"/>
    </defs>
    <g clip-path="url(#pd53f1acf67)">
     <use xlink:href="#mdd133a7ad0" x="0" y="432" style="fill: #440154; fill-opacity: 0.7; stroke: #000000; stroke-opacity: 0.7"/>
    </g>
   </g>
   <g id="PolyCollection_2">
    <defs>
     <path id="m341754a7c8" d="M 338.203839 -63.487781 
L 255.540365 -63.487781 
L 254.876728 -66.588267 
L 254.809432 -69.688753 
L 255.302768 -72.789239 
L 256.291315 -75.889725 
L 257.686244 -78.990211 
L 259.383403 -82.090698 
L 261.272209 -85.191184 
L 263.244342 -88.29167 
L 265.201364 -91.392156 
L 267.060565 -94.492642 
L 268.758687 -97.593128 
L 270.253423 -100.693614 
L 271.522888 -103.7941 
L 272.563468 -106.894586 
L 273.386545 -109.995072 
L 274.014631 -113.095558 
L 274.477409 -116.196044 
L 274.80806 -119.29653 
L 275.040138 -122.397017 
L 275.205139 -125.497503 
L 275.330777 -128.597989 
L 275.439941 -131.698475 
L 275.550222 -134.798961 
L 275.673908 -137.899447 
L 275.818351 -140.999933 
L 275.986582 -144.100419 
L 276.178137 -147.200905 
L 276.389995 -150.301391 
L 276.617591 -153.401877 
L 276.855827 -156.502363 
L 277.100031 -159.602849 
L 277.346776 -162.703336 
L 277.594517 -165.803822 
L 277.843965 -168.904308 
L 278.098174 -172.004794 
L 278.362335 -175.10528 
L 278.643293 -178.205766 
L 278.948846 -181.306252 
L 279.286914 -184.406738 
L 279.664664 -187.507224 
L 280.087704 -190.60771 
L 280.559435 -193.708196 
L 281.080621 -196.808682 
L 281.649221 -199.909168 
L 282.260494 -203.009655 
L 282.907333 -206.110141 
L 283.580801 -209.210627 
L 284.270778 -212.311113 
L 284.966673 -215.411599 
L 285.658103 -218.512085 
L 286.335515 -221.612571 
L 286.990672 -224.713057 
L 287.617005 -227.813543 
L 288.2098 -230.914029 
L 288.766227 -234.014515 
L 289.285229 -237.115001 
L 289.767292 -240.215487 
L 290.214129 -243.315974 
L 290.62831 -246.41646 
L 291.01289 -249.516946 
L 291.37106 -252.617432 
L 291.705858 -255.717918 
L 292.019974 -258.818404 
L 292.31564 -261.91889 
L 292.594618 -265.019376 
L 292.858268 -268.119862 
L 293.107657 -271.220348 
L 293.343692 -274.320834 
L 293.567232 -277.42132 
L 293.779166 -280.521807 
L 293.980431 -283.622293 
L 294.171978 -286.722779 
L 294.354694 -289.823265 
L 294.529308 -292.923751 
L 294.696292 -296.024237 
L 294.855806 -299.124723 
L 295.007673 -302.225209 
L 295.151425 -305.325695 
L 295.286385 -308.426181 
L 295.411782 -311.526667 
L 295.526893 -314.627153 
L 295.631156 -317.727639 
L 295.724265 -320.828126 
L 295.806224 -323.928612 
L 295.877352 -327.029098 
L 295.938256 -330.129584 
L 295.989774 -333.23007 
L 296.032911 -336.330556 
L 296.068779 -339.431042 
L 296.09855 -342.531528 
L 296.123421 -345.632014 
L 296.144609 -348.7325 
L 296.163333 -351.832986 
L 296.180811 -354.933472 
L 296.198238 -358.033958 
L 296.21675 -361.134445 
L 296.237372 -364.234931 
L 296.260953 -367.335417 
L 296.288106 -370.435903 
L 297.456098 -370.435903 
L 297.456098 -370.435903 
L 297.483251 -367.335417 
L 297.506832 -364.234931 
L 297.527454 -361.134445 
L 297.545966 -358.033958 
L 297.563393 -354.933472 
L 297.580872 -351.832986 
L 297.599595 -348.7325 
L 297.620783 -345.632014 
L 297.645655 -342.531528 
L 297.675425 -339.431042 
L 297.711293 -336.330556 
L 297.75443 -333.23007 
L 297.805948 -330.129584 
L 297.866852 -327.029098 
L 297.93798 -323.928612 
L 298.019939 -320.828126 
L 298.113048 -317.727639 
L 298.217311 -314.627153 
L 298.332422 -311.526667 
L 298.45782 -308.426181 
L 298.592779 -305.325695 
L 298.736531 -302.225209 
L 298.888399 -299.124723 
L 299.047912 -296.024237 
L 299.214896 -292.923751 
L 299.38951 -289.823265 
L 299.572226 -286.722779 
L 299.763773 -283.622293 
L 299.965038 -280.521807 
L 300.176972 -277.42132 
L 300.400512 -274.320834 
L 300.636547 -271.220348 
L 300.885936 -268.119862 
L 301.149586 -265.019376 
L 301.428564 -261.91889 
L 301.72423 -258.818404 
L 302.038346 -255.717918 
L 302.373144 -252.617432 
L 302.731314 -249.516946 
L 303.115894 -246.41646 
L 303.530075 -243.315974 
L 303.976912 -240.215487 
L 304.458976 -237.115001 
L 304.977977 -234.014515 
L 305.534404 -230.914029 
L 306.127199 -227.813543 
L 306.753532 -224.713057 
L 307.408689 -221.612571 
L 308.086101 -218.512085 
L 308.777531 -215.411599 
L 309.473426 -212.311113 
L 310.163404 -209.210627 
L 310.836871 -206.110141 
L 311.48371 -203.009655 
L 312.094983 -199.909168 
L 312.663583 -196.808682 
L 313.184769 -193.708196 
L 313.6565 -190.60771 
L 314.07954 -187.507224 
L 314.45729 -184.406738 
L 314.795358 -181.306252 
L 315.100912 -178.205766 
L 315.381869 -175.10528 
L 315.64603 -172.004794 
L 315.900239 -168.904308 
L 316.149687 -165.803822 
L 316.397428 -162.703336 
L 316.644173 -159.602849 
L 316.888377 -156.502363 
L 317.126613 -153.401877 
L 317.354209 -150.301391 
L 317.566068 -147.200905 
L 317.757622 -144.100419 
L 317.925853 -140.999933 
L 318.070296 -137.899447 
L 318.193983 -134.798961 
L 318.304263 -131.698475 
L 318.413427 -128.597989 
L 318.539065 -125.497503 
L 318.704066 -122.397017 
L 318.936145 -119.29653 
L 319.266795 -116.196044 
L 319.729573 -113.095558 
L 320.357659 -109.995072 
L 321.180736 -106.894586 
L 322.221316 -103.7941 
L 323.490781 -100.693614 
L 324.985517 -97.593128 
L 326.683639 -94.492642 
L 328.542841 -91.392156 
L 330.499862 -88.29167 
L 332.471995 -85.191184 
L 334.360801 -82.090698 
L 336.05796 -78.990211 
L 337.452889 -75.889725 
L 338.441436 -72.789239 
L 338.934772 -69.688753 
L 338.867476 -66.588267 
L 338.203839 -63.487781 
z
" style="stroke: #000000; stroke-opacity: 0.7"/>
    </defs>
    <g clip-path="url(#pd53f1acf67)">
     <use xlink:href="#m341754a7c8" x="0" y="432" style="fill: #31688e; fill-opacity: 0.7; stroke: #000000; stroke-opacity: 0.7"/>
    </g>
   </g>
   <g id="PolyCollection_3">
    <defs>
     <path id="me2612ad13c" d="M 506.047149 -63.487781 
L 424.198414 -63.487781 
L 423.394035 -66.629189 
L 423.060112 -69.770596 
L 423.182086 -72.912004 
L 423.725574 -76.053411 
L 424.639107 -79.194818 
L 425.857986 -82.336226 
L 427.308868 -85.477633 
L 428.914671 -88.619041 
L 430.599368 -91.760448 
L 432.292292 -94.901856 
L 433.931659 -98.043263 
L 435.467123 -101.184671 
L 436.861272 -104.326078 
L 438.090098 -107.467486 
L 439.142538 -110.608893 
L 440.019255 -113.750301 
L 440.730862 -116.891708 
L 441.295788 -120.033116 
L 441.737983 -123.174523 
L 442.084635 -126.315931 
L 442.364027 -129.457338 
L 442.603643 -132.598745 
L 442.828584 -135.740153 
L 443.060337 -138.88156 
L 443.315916 -142.022968 
L 443.607371 -145.164375 
L 443.941647 -148.305783 
L 444.320776 -151.44719 
L 444.742342 -154.588598 
L 445.200197 -157.730005 
L 445.685341 -160.871413 
L 446.186925 -164.01282 
L 446.693296 -167.154228 
L 447.193013 -170.295635 
L 447.675779 -173.437043 
L 448.133211 -176.57845 
L 448.559425 -179.719858 
L 448.951387 -182.861265 
L 449.309022 -186.002673 
L 449.635096 -189.14408 
L 449.934874 -192.285487 
L 450.215615 -195.426895 
L 450.485943 -198.568302 
L 450.755139 -201.70971 
L 451.032442 -204.851117 
L 451.32638 -207.992525 
L 451.6442 -211.133932 
L 451.991425 -214.27534 
L 452.371555 -217.416747 
L 452.785928 -220.558155 
L 453.233734 -223.699562 
L 453.712161 -226.84097 
L 454.216653 -229.982377 
L 454.741261 -233.123785 
L 455.279029 -236.265192 
L 455.822417 -239.4066 
L 456.363705 -242.548007 
L 456.895369 -245.689414 
L 457.410408 -248.830822 
L 457.902607 -251.972229 
L 458.366726 -255.113637 
L 458.798626 -258.255044 
L 459.195323 -261.396452 
L 459.554985 -264.537859 
L 459.876882 -267.679267 
L 460.161303 -270.820674 
L 460.409446 -273.962082 
L 460.623297 -277.103489 
L 460.805502 -280.244897 
L 460.959235 -283.386304 
L 461.088077 -286.527712 
L 461.195884 -289.669119 
L 461.286661 -292.810527 
L 461.36444 -295.951934 
L 461.433146 -299.093342 
L 461.496481 -302.234749 
L 461.557804 -305.376156 
L 461.620035 -308.517564 
L 461.685571 -311.658971 
L 461.756235 -314.800379 
L 461.833265 -317.941786 
L 461.917323 -321.083194 
L 462.00855 -324.224601 
L 462.10665 -327.366009 
L 462.210981 -330.507416 
L 462.320678 -333.648824 
L 462.434755 -336.790231 
L 462.552209 -339.931639 
L 462.672104 -343.073046 
L 462.79362 -346.214454 
L 462.916091 -349.355861 
L 463.039 -352.497269 
L 463.161964 -355.638676 
L 463.284692 -358.780083 
L 463.406942 -361.921491 
L 463.528468 -365.062898 
L 463.648979 -368.204306 
L 463.7681 -371.345713 
L 463.885356 -374.487121 
L 466.360208 -374.487121 
L 466.360208 -374.487121 
L 466.477463 -371.345713 
L 466.596584 -368.204306 
L 466.717095 -365.062898 
L 466.838621 -361.921491 
L 466.960871 -358.780083 
L 467.083599 -355.638676 
L 467.206563 -352.497269 
L 467.329472 -349.355861 
L 467.451943 -346.214454 
L 467.57346 -343.073046 
L 467.693354 -339.931639 
L 467.810808 -336.790231 
L 467.924885 -333.648824 
L 468.034582 -330.507416 
L 468.138914 -327.366009 
L 468.237013 -324.224601 
L 468.328241 -321.083194 
L 468.412298 -317.941786 
L 468.489328 -314.800379 
L 468.559993 -311.658971 
L 468.625528 -308.517564 
L 468.687759 -305.376156 
L 468.749083 -302.234749 
L 468.812418 -299.093342 
L 468.881124 -295.951934 
L 468.958902 -292.810527 
L 469.04968 -289.669119 
L 469.157486 -286.527712 
L 469.286328 -283.386304 
L 469.440062 -280.244897 
L 469.622266 -277.103489 
L 469.836117 -273.962082 
L 470.08426 -270.820674 
L 470.368682 -267.679267 
L 470.690579 -264.537859 
L 471.05024 -261.396452 
L 471.446937 -258.255044 
L 471.878837 -255.113637 
L 472.342956 -251.972229 
L 472.835155 -248.830822 
L 473.350194 -245.689414 
L 473.881858 -242.548007 
L 474.423146 -239.4066 
L 474.966534 -236.265192 
L 475.504302 -233.123785 
L 476.02891 -229.982377 
L 476.533403 -226.84097 
L 477.011829 -223.699562 
L 477.459635 -220.558155 
L 477.874009 -217.416747 
L 478.254138 -214.27534 
L 478.601363 -211.133932 
L 478.919184 -207.992525 
L 479.213121 -204.851117 
L 479.490424 -201.70971 
L 479.759621 -198.568302 
L 480.029948 -195.426895 
L 480.31069 -192.285487 
L 480.610467 -189.14408 
L 480.936541 -186.002673 
L 481.294177 -182.861265 
L 481.686138 -179.719858 
L 482.112353 -176.57845 
L 482.569785 -173.437043 
L 483.05255 -170.295635 
L 483.552267 -167.154228 
L 484.058638 -164.01282 
L 484.560222 -160.871413 
L 485.045366 -157.730005 
L 485.503221 -154.588598 
L 485.924788 -151.44719 
L 486.303916 -148.305783 
L 486.638193 -145.164375 
L 486.929647 -142.022968 
L 487.185226 -138.88156 
L 487.416979 -135.740153 
L 487.64192 -132.598745 
L 487.881536 -129.457338 
L 488.160928 -126.315931 
L 488.50758 -123.174523 
L 488.949775 -120.033116 
L 489.514701 -116.891708 
L 490.226308 -113.750301 
L 491.103025 -110.608893 
L 492.155465 -107.467486 
L 493.384291 -104.326078 
L 494.77844 -101.184671 
L 496.313904 -98.043263 
L 497.953271 -94.901856 
L 499.646195 -91.760448 
L 501.330893 -88.619041 
L 502.936696 -85.477633 
L 504.387577 -82.336226 
L 505.606456 -79.194818 
L 506.519989 -76.053411 
L 507.063478 -72.912004 
L 507.185452 -69.770596 
L 506.851528 -66.629189 
L 506.047149 -63.487781 
z
" style="stroke: #000000; stroke-opacity: 0.7"/>
    </defs>
    <g clip-path="url(#pd53f1acf67)">
     <use xlink:href="#me2612ad13c" x="0" y="432" style="fill: #35b779; fill-opacity: 0.7; stroke: #000000; stroke-opacity: 0.7"/>
    </g>
   </g>
   <g id="PolyCollection_4">
    <defs>
     <path id="m730abd6a6d" d="M 674.487708 -63.487781 
L 592.259214 -63.487781 
L 591.479031 -66.453522 
L 591.310791 -69.419262 
L 591.721294 -72.385002 
L 592.646791 -75.350743 
L 593.999995 -78.316483 
L 595.67888 -81.282224 
L 597.576102 -84.247964 
L 599.587895 -87.213705 
L 601.621483 -90.179445 
L 603.60034 -93.145186 
L 605.467018 -96.110926 
L 607.183624 -99.076666 
L 608.730333 -102.042407 
L 610.1025 -105.008147 
L 611.307024 -107.973888 
L 612.358561 -110.939628 
L 613.276067 -113.905369 
L 614.079988 -116.871109 
L 614.790224 -119.83685 
L 615.42488 -122.80259 
L 615.99966 -125.76833 
L 616.52775 -128.734071 
L 617.02 -131.699811 
L 617.485237 -134.665552 
L 617.930608 -137.631292 
L 618.361852 -140.597033 
L 618.783516 -143.562773 
L 619.199093 -146.528514 
L 619.611118 -149.494254 
L 620.021263 -152.459995 
L 620.430447 -155.425735 
L 620.838973 -158.391475 
L 621.2467 -161.357216 
L 621.653229 -164.322956 
L 622.058081 -167.288697 
L 622.46084 -170.254437 
L 622.861252 -173.220178 
L 623.259244 -176.185918 
L 623.65489 -179.151659 
L 624.048305 -182.117399 
L 624.439515 -185.083139 
L 624.828302 -188.04888 
L 625.214074 -191.01462 
L 625.595782 -193.980361 
L 625.971888 -196.946101 
L 626.340411 -199.911842 
L 626.699041 -202.877582 
L 627.045303 -205.843323 
L 627.376752 -208.809063 
L 627.691167 -211.774803 
L 627.986722 -214.740544 
L 628.262101 -217.706284 
L 628.516552 -220.672025 
L 628.749868 -223.637765 
L 628.962314 -226.603506 
L 629.154513 -229.569246 
L 629.327325 -232.534987 
L 629.481743 -235.500727 
L 629.618833 -238.466468 
L 629.739726 -241.432208 
L 629.845672 -244.397948 
L 629.938133 -247.363689 
L 630.018894 -250.329429 
L 630.090166 -253.29517 
L 630.15464 -256.26091 
L 630.215466 -259.226651 
L 630.276155 -262.192391 
L 630.340386 -265.158132 
L 630.411744 -268.123872 
L 630.493424 -271.089612 
L 630.587919 -274.055353 
L 630.696763 -277.021093 
L 630.820345 -279.986834 
L 630.957822 -282.952574 
L 631.107166 -285.918315 
L 631.265322 -288.884055 
L 631.428466 -291.849796 
L 631.592338 -294.815536 
L 631.752607 -297.781276 
L 631.905217 -300.747017 
L 632.046703 -303.712757 
L 632.174408 -306.678498 
L 632.286621 -309.644238 
L 632.382608 -312.609979 
L 632.462547 -315.575719 
L 632.527395 -318.54146 
L 632.578711 -321.5072 
L 632.61845 -324.47294 
L 632.648775 -327.438681 
L 632.671892 -330.404421 
L 632.689921 -333.370162 
L 632.704816 -336.335902 
L 632.718316 -339.301643 
L 632.731926 -342.267383 
L 632.746911 -345.233124 
L 632.764292 -348.198864 
L 632.784842 -351.164605 
L 632.809076 -354.130345 
L 632.837236 -357.096085 
L 633.909686 -357.096085 
L 633.909686 -357.096085 
L 633.937846 -354.130345 
L 633.96208 -351.164605 
L 633.982631 -348.198864 
L 634.000011 -345.233124 
L 634.014996 -342.267383 
L 634.028607 -339.301643 
L 634.042107 -336.335902 
L 634.057002 -333.370162 
L 634.07503 -330.404421 
L 634.098147 -327.438681 
L 634.128472 -324.47294 
L 634.168211 -321.5072 
L 634.219527 -318.54146 
L 634.284376 -315.575719 
L 634.364314 -312.609979 
L 634.460301 -309.644238 
L 634.572515 -306.678498 
L 634.700219 -303.712757 
L 634.841705 -300.747017 
L 634.994316 -297.781276 
L 635.154584 -294.815536 
L 635.318457 -291.849796 
L 635.4816 -288.884055 
L 635.639756 -285.918315 
L 635.789101 -282.952574 
L 635.926577 -279.986834 
L 636.050159 -277.021093 
L 636.159004 -274.055353 
L 636.253499 -271.089612 
L 636.335178 -268.123872 
L 636.406536 -265.158132 
L 636.470767 -262.192391 
L 636.531456 -259.226651 
L 636.592283 -256.26091 
L 636.656756 -253.29517 
L 636.728028 -250.329429 
L 636.80879 -247.363689 
L 636.90125 -244.397948 
L 637.007197 -241.432208 
L 637.12809 -238.466468 
L 637.26518 -235.500727 
L 637.419598 -232.534987 
L 637.59241 -229.569246 
L 637.784608 -226.603506 
L 637.997054 -223.637765 
L 638.23037 -220.672025 
L 638.484822 -217.706284 
L 638.760201 -214.740544 
L 639.055755 -211.774803 
L 639.37017 -208.809063 
L 639.701619 -205.843323 
L 640.047881 -202.877582 
L 640.406512 -199.911842 
L 640.775035 -196.946101 
L 641.15114 -193.980361 
L 641.532848 -191.01462 
L 641.918621 -188.04888 
L 642.307407 -185.083139 
L 642.698617 -182.117399 
L 643.092033 -179.151659 
L 643.487678 -176.185918 
L 643.885671 -173.220178 
L 644.286082 -170.254437 
L 644.688842 -167.288697 
L 645.093693 -164.322956 
L 645.500223 -161.357216 
L 645.90795 -158.391475 
L 646.316475 -155.425735 
L 646.725659 -152.459995 
L 647.135804 -149.494254 
L 647.547829 -146.528514 
L 647.963406 -143.562773 
L 648.385071 -140.597033 
L 648.816315 -137.631292 
L 649.261685 -134.665552 
L 649.726923 -131.699811 
L 650.219172 -128.734071 
L 650.747262 -125.76833 
L 651.322042 -122.80259 
L 651.956698 -119.83685 
L 652.666935 -116.871109 
L 653.470855 -113.905369 
L 654.388362 -110.939628 
L 655.439899 -107.973888 
L 656.644423 -105.008147 
L 658.01659 -102.042407 
L 659.563298 -99.076666 
L 661.279904 -96.110926 
L 663.146582 -93.145186 
L 665.125439 -90.179445 
L 667.159028 -87.213705 
L 669.170821 -84.247964 
L 671.068042 -81.282224 
L 672.746928 -78.316483 
L 674.100132 -75.350743 
L 675.025628 -72.385002 
L 675.436131 -69.419262 
L 675.267891 -66.453522 
L 674.487708 -63.487781 
z
" style="stroke: #000000; stroke-opacity: 0.7"/>
    </defs>
    <g clip-path="url(#pd53f1acf67)">
     <use xlink:href="#m730abd6a6d" x="0" y="432" style="fill: #fde725; fill-opacity: 0.7; stroke: #000000; stroke-opacity: 0.7"/>
    </g>
   </g>
   <g id="matplotlib.axis_1">
    <g id="xtick_1">
     <g id="line2d_1">
      <defs>
       <path id="mbc707f6925" d="M 0 0 
L 0 3.5 
" style="stroke: #000000; stroke-width: 0.8"/>
      </defs>
      <g>
       <use xlink:href="#mbc707f6925" x="128.621423" y="384.626418" style="stroke: #000000; stroke-width: 0.8"/>
      </g>
     </g>
     <g id="text_1">
      <!-- Borda rule -->
      <g transform="translate(103.096239 399.236765) scale(0.11 -0.11)">
       <defs>
        <path id="CMR17-42" d="M 333 4352 
L 333 4186 
C 774 4186 845 4186 845 3900 
L 845 452 
C 845 166 774 166 333 166 
L 333 0 
L 2534 0 
C 3354 0 3885 583 3885 1164 
C 3885 1741 3360 2233 2675 2233 
C 3290 2356 3718 2771 3718 3264 
C 3718 3802 3194 4352 2368 4352 
L 333 4352 
z
M 1248 2304 
L 1248 3937 
C 1248 4155 1261 4186 1517 4186 
L 2336 4186 
C 2970 4186 3251 3674 3251 3277 
C 3251 2791 2861 2304 2170 2304 
L 1248 2304 
z
M 1517 166 
C 1261 166 1248 197 1248 413 
L 1248 2202 
L 2432 2202 
C 3091 2202 3411 1625 3411 1162 
C 3411 699 3046 166 2349 166 
L 1517 166 
z
" transform="scale(0.015625)"/>
        <path id="CMR17-6f" d="M 2758 1356 
C 2758 2176 2163 2816 1466 2816 
C 768 2816 173 2176 173 1356 
C 173 551 768 -64 1466 -64 
C 2163 -64 2758 551 2758 1356 
z
M 1466 51 
C 1165 51 909 230 762 480 
C 602 767 582 1126 582 1408 
C 582 1677 595 2010 762 2298 
C 890 2509 1139 2714 1466 2714 
C 1754 2714 1997 2554 2150 2330 
C 2349 2029 2349 1607 2349 1408 
C 2349 1158 2336 775 2163 467 
C 1984 173 1709 51 1466 51 
z
" transform="scale(0.015625)"/>
        <path id="CMR17-72" d="M 960 1497 
C 960 2112 1222 2688 1702 2688 
C 1747 2688 1792 2682 1837 2662 
C 1837 2662 1696 2617 1696 2452 
C 1696 2298 1818 2234 1914 2234 
C 1990 2234 2131 2279 2131 2458 
C 2131 2663 1926 2790 1709 2790 
C 1222 2790 1011 2317 947 2093 
L 941 2093 
L 941 2790 
L 198 2720 
L 198 2554 
C 576 2554 634 2515 634 2208 
L 634 428 
C 634 184 608 153 198 153 
L 198 -13 
C 352 0 646 0 813 0 
C 998 0 1325 0 1498 -13 
L 1498 153 
C 1037 153 960 153 960 440 
L 960 1497 
z
" transform="scale(0.015625)"/>
        <path id="CMR17-64" d="M 1869 4326 
L 1869 4160 
C 2246 4160 2304 4122 2304 3820 
L 2304 2345 
C 2278 2377 2016 2790 1498 2790 
C 845 2790 211 2208 211 1364 
C 211 525 806 -64 1434 -64 
C 1978 -64 2259 337 2291 380 
L 2291 -63 
L 3066 -63 
L 3066 128 
C 2688 128 2630 166 2630 473 
L 2630 4396 
L 1869 4326 
z
M 2291 755 
C 2291 563 2176 390 2029 262 
C 1811 70 1594 38 1472 38 
C 1286 38 621 134 621 1356 
C 621 2612 1363 2688 1530 2688 
C 1824 2688 2061 2522 2208 2291 
C 2291 2157 2291 2138 2291 2023 
L 2291 755 
z
" transform="scale(0.015625)"/>
        <path id="CMR17-61" d="M 2304 1653 
C 2304 2072 2304 2294 2035 2543 
C 1798 2752 1523 2816 1306 2816 
C 800 2816 435 2407 435 1971 
C 435 1728 627 1728 666 1728 
C 749 1728 896 1778 896 1954 
C 896 2112 774 2181 666 2181 
C 640 2181 608 2174 589 2168 
C 723 2592 1069 2714 1293 2714 
C 1613 2714 1965 2429 1965 1885 
L 1965 1600 
C 1587 1600 1133 1549 774 1357 
C 371 1133 256 813 256 570 
C 256 77 832 -64 1171 -64 
C 1523 -64 1850 139 1990 511 
C 2003 233 2182 -18 2464 -18 
C 2598 -18 2938 70 2938 567 
L 2938 920 
L 2822 920 
L 2822 562 
C 2822 178 2650 128 2566 128 
C 2304 128 2304 458 2304 738 
L 2304 1653 
z
M 1965 870 
C 1965 317 1568 38 1216 38 
C 896 38 646 275 646 570 
C 646 761 730 1100 1101 1305 
C 1408 1478 1760 1504 1965 1504 
L 1965 870 
z
" transform="scale(0.015625)"/>
        <path id="CMR17-75" d="M 1882 2693 
L 1882 2528 
C 2259 2528 2317 2489 2317 2186 
L 2317 1032 
C 2317 500 2029 38 1555 38 
C 1030 38 986 348 986 678 
L 986 2763 
L 211 2693 
L 211 2528 
C 467 2528 640 2528 646 2274 
L 646 1058 
C 646 633 646 361 813 183 
C 896 101 1056 -64 1517 -64 
C 2061 -64 2272 377 2323 506 
L 2330 506 
L 2330 -63 
L 3091 -63 
L 3091 128 
C 2714 128 2656 166 2656 473 
L 2656 2763 
L 1882 2693 
z
" transform="scale(0.015625)"/>
        <path id="CMR17-6c" d="M 979 4396 
L 218 4326 
L 218 4160 
C 595 4160 653 4122 653 3817 
L 653 426 
C 653 184 627 153 218 153 
L 218 -13 
C 371 0 653 0 813 0 
C 979 0 1261 0 1414 -13 
L 1414 153 
C 1005 153 979 178 979 426 
L 979 4396 
z
" transform="scale(0.015625)"/>
        <path id="CMR17-65" d="M 2438 1472 
C 2464 1498 2464 1511 2464 1576 
C 2464 2238 2118 2816 1389 2816 
C 710 2816 173 2169 173 1383 
C 173 551 781 -64 1459 -64 
C 2176 -64 2458 607 2458 740 
C 2458 784 2419 784 2406 784 
C 2362 784 2355 771 2330 696 
C 2189 265 1837 51 1504 51 
C 1229 51 954 203 781 480 
C 582 803 582 1176 582 1472 
L 2438 1472 
z
M 589 1568 
C 634 2505 1126 2714 1382 2714 
C 1818 2714 2112 2297 2118 1568 
L 589 1568 
z
" transform="scale(0.015625)"/>
       </defs>
       <use xlink:href="#CMR17-42" transform="scale(0.996264)"/>
       <use xlink:href="#CMR17-6f" transform="translate(65.188754 0) scale(0.996264)"/>
       <use xlink:href="#CMR17-72" transform="translate(110.879232 0) scale(0.996264)"/>
       <use xlink:href="#CMR17-64" transform="translate(146.159999 0) scale(0.996264)"/>
       <use xlink:href="#CMR17-61" transform="translate(197.055369 0) scale(0.996264)"/>
       <use xlink:href="#CMR17-72" transform="translate(272.821813 0) scale(0.996264)"/>
       <use xlink:href="#CMR17-75" transform="translate(308.10258 0) scale(0.996264)"/>
       <use xlink:href="#CMR17-6c" transform="translate(358.99795 0) scale(0.996264)"/>
       <use xlink:href="#CMR17-65" transform="translate(383.869009 0) scale(0.996264)"/>
      </g>
     </g>
    </g>
    <g id="xtick_2">
     <g id="line2d_2">
      <g>
       <use xlink:href="#mbc707f6925" x="296.872102" y="384.626418" style="stroke: #000000; stroke-width: 0.8"/>
      </g>
     </g>
     <g id="text_2">
      <!-- Copeland's Rule -->
      <g transform="translate(257.648273 399.236765) scale(0.11 -0.11)">
       <defs>
        <path id="CMR17-43" d="M 3974 4289 
C 3974 4403 3968 4410 3930 4410 
C 3904 4410 3898 4403 3853 4327 
L 3571 3792 
C 3258 4187 2874 4416 2381 4416 
C 1286 4416 294 3456 294 2148 
C 294 826 1286 -128 2387 -128 
C 3366 -128 3974 730 3974 1461 
C 3974 1524 3974 1550 3917 1550 
C 3866 1550 3866 1531 3859 1474 
C 3808 585 3168 38 2477 38 
C 1824 38 781 495 781 2147 
C 781 3805 1843 4250 2464 4250 
C 3187 4250 3712 3628 3834 2745 
C 3846 2668 3846 2655 3904 2655 
C 3974 2655 3974 2668 3974 2783 
L 3974 4289 
z
" transform="scale(0.015625)"/>
        <path id="CMR17-70" d="M 1408 -1063 
C 998 -1063 973 -1037 973 -789 
L 973 402 
C 1158 134 1427 -38 1766 -38 
C 2406 -38 3053 523 3053 1388 
C 3053 2191 2496 2802 1837 2802 
C 1453 2802 1139 2592 960 2338 
L 960 2802 
L 198 2732 
L 198 2567 
C 576 2567 634 2528 634 2223 
L 634 -789 
C 634 -1031 608 -1063 198 -1063 
L 198 -1228 
C 352 -1216 634 -1216 800 -1216 
C 966 -1216 1254 -1216 1408 -1228 
L 1408 -1063 
z
M 973 2012 
C 973 2102 973 2235 1222 2471 
C 1254 2497 1472 2688 1792 2688 
C 2259 2688 2643 2108 2643 1382 
C 2643 656 2234 64 1728 64 
C 1498 64 1248 172 1056 472 
C 973 612 973 650 973 752 
L 973 2012 
z
" transform="scale(0.015625)"/>
        <path id="CMR17-6e" d="M 2656 1933 
C 2656 2259 2592 2790 1837 2790 
C 1331 2790 1069 2400 973 2144 
L 966 2144 
L 966 2790 
L 211 2720 
L 211 2554 
C 589 2554 646 2515 646 2208 
L 646 428 
C 646 184 621 153 211 153 
L 211 -13 
C 365 0 646 0 813 0 
C 979 0 1267 0 1421 -13 
L 1421 153 
C 1011 153 986 178 986 428 
L 986 1658 
C 986 2247 1344 2688 1792 2688 
C 2266 2688 2317 2266 2317 1958 
L 2317 428 
C 2317 184 2291 153 1882 153 
L 1882 -13 
C 2035 0 2317 0 2483 0 
C 2650 0 2938 0 3091 -13 
L 3091 153 
C 2682 153 2656 178 2656 428 
L 2656 1933 
z
" transform="scale(0.015625)"/>
        <path id="CMR17-27" d="M 1024 4025 
C 1037 3955 1043 3929 1043 3820 
C 1043 3415 883 3042 634 2778 
C 608 2752 595 2733 595 2707 
C 595 2681 621 2656 646 2656 
C 691 2656 1146 3105 1146 3811 
C 1146 3952 1133 4426 800 4426 
C 659 4426 538 4331 538 4165 
C 538 3999 659 3904 800 3904 
C 858 3904 966 3923 1024 4025 
z
" transform="scale(0.015625)"/>
        <path id="CMR17-73" d="M 1978 2697 
C 1978 2813 1971 2819 1933 2819 
C 1907 2819 1901 2813 1824 2717 
C 1805 2691 1747 2626 1728 2601 
C 1523 2819 1235 2819 1126 2819 
C 416 2819 160 2447 160 2076 
C 160 1498 813 1365 998 1325 
C 1402 1243 1542 1217 1677 1101 
C 1760 1025 1901 884 1901 654 
C 1901 384 1747 38 1158 38 
C 602 38 403 460 288 1021 
C 269 1110 269 1117 218 1117 
C 166 1117 160 1110 160 983 
L 160 63 
C 160 -51 166 -58 205 -58 
C 237 -58 243 -51 275 0 
C 314 57 410 211 448 276 
C 576 103 800 -64 1158 -64 
C 1792 -64 2131 283 2131 784 
C 2131 1112 1958 1285 1875 1362 
C 1683 1561 1459 1606 1190 1657 
C 838 1735 390 1825 390 2217 
C 390 2383 480 2737 1126 2737 
C 1811 2737 1850 2094 1862 1888 
C 1869 1856 1901 1849 1920 1849 
C 1978 1849 1978 1869 1978 1978 
L 1978 2697 
z
" transform="scale(0.015625)"/>
        <path id="CMR17-52" d="M 2509 2146 
C 3117 2268 3629 2676 3629 3186 
C 3629 3785 2950 4326 2054 4326 
L 333 4326 
L 333 4160 
C 774 4160 845 4160 845 3873 
L 845 415 
C 845 128 774 128 333 128 
L 333 -26 
C 518 -26 851 -26 1050 -26 
C 1248 -26 1581 -26 1766 -26 
L 1766 128 
C 1325 128 1254 128 1254 417 
L 1254 2112 
L 2003 2112 
C 2368 2112 2573 1964 2662 1881 
C 2918 1632 2918 1459 2918 1024 
C 2918 595 2918 377 3110 160 
C 3354 -102 3680 -128 3821 -128 
C 4294 -128 4365 396 4365 503 
C 4365 540 4365 585 4307 585 
C 4256 585 4250 547 4250 522 
C 4218 112 4032 -26 3834 -26 
C 3482 -26 3443 375 3405 764 
C 3386 898 3373 993 3360 1133 
C 3322 1452 3270 1917 2509 2146 
z
M 1984 2214 
L 1254 2214 
L 1254 3913 
C 1254 4129 1267 4160 1523 4160 
L 1990 4160 
C 2522 4160 3142 3977 3142 3190 
C 3142 2372 2464 2214 1984 2214 
z
" transform="scale(0.015625)"/>
       </defs>
       <use xlink:href="#CMR17-43" transform="scale(0.996264)"/>
       <use xlink:href="#CMR17-6f" transform="translate(66.509881 0) scale(0.996264)"/>
       <use xlink:href="#CMR17-70" transform="translate(112.200358 0) scale(0.996264)"/>
       <use xlink:href="#CMR17-65" transform="translate(165.698166 0) scale(0.996264)"/>
       <use xlink:href="#CMR17-6c" transform="translate(206.183827 0) scale(0.996264)"/>
       <use xlink:href="#CMR17-61" transform="translate(231.054885 0) scale(0.996264)"/>
       <use xlink:href="#CMR17-6e" transform="translate(276.745362 0) scale(0.996264)"/>
       <use xlink:href="#CMR17-64" transform="translate(327.640732 0) scale(0.996264)"/>
       <use xlink:href="#CMR17-27" transform="translate(378.536102 0) scale(0.996264)"/>
       <use xlink:href="#CMR17-73" transform="translate(403.40716 0) scale(0.996264)"/>
       <use xlink:href="#CMR17-52" transform="translate(469.284464 0) scale(0.996264)"/>
       <use xlink:href="#CMR17-75" transform="translate(537.075566 0) scale(0.996264)"/>
       <use xlink:href="#CMR17-6c" transform="translate(587.970936 0) scale(0.996264)"/>
       <use xlink:href="#CMR17-65" transform="translate(612.841994 0) scale(0.996264)"/>
      </g>
     </g>
    </g>
    <g id="xtick_3">
     <g id="line2d_3">
      <g>
       <use xlink:href="#mbc707f6925" x="465.122782" y="384.626418" style="stroke: #000000; stroke-width: 0.8"/>
      </g>
     </g>
     <g id="text_3">
      <!-- Plurality rule -->
      <g transform="translate(433.052699 399.236765) scale(0.11 -0.11)">
       <defs>
        <path id="CMR17-50" d="M 1267 2042 
L 2291 2042 
C 3117 2042 3718 2578 3718 3184 
C 3718 3791 3130 4352 2291 4352 
L 333 4352 
L 333 4186 
C 774 4186 845 4186 845 3899 
L 845 446 
C 845 160 774 160 333 160 
L 333 0 
C 518 0 858 0 1056 0 
C 1254 0 1594 0 1779 0 
L 1779 160 
C 1338 160 1267 160 1267 446 
L 1267 2042 
z
M 1254 2176 
L 1254 3938 
C 1254 4155 1267 4186 1523 4186 
L 2170 4186 
C 2995 4186 3232 3714 3232 3184 
C 3232 2604 2950 2176 2170 2176 
L 1254 2176 
z
" transform="scale(0.015625)"/>
        <path id="CMR17-69" d="M 992 3909 
C 992 4049 877 4170 730 4170 
C 589 4170 467 4056 467 3909 
C 467 3769 582 3648 730 3648 
C 870 3648 992 3763 992 3909 
z
M 243 2706 
L 243 2541 
C 602 2541 653 2502 653 2197 
L 653 427 
C 653 184 627 153 218 153 
L 218 -13 
C 371 0 646 0 806 0 
C 960 0 1222 0 1370 -13 
L 1370 153 
C 992 153 979 191 979 420 
L 979 2776 
L 243 2706 
z
" transform="scale(0.015625)"/>
        <path id="CMR17-74" d="M 966 2560 
L 1862 2560 
L 1862 2725 
L 966 2725 
L 966 3904 
L 851 3904 
C 838 3245 614 2668 70 2668 
L 70 2560 
L 627 2560 
L 627 771 
C 627 650 627 -64 1370 -64 
C 1747 -64 1965 306 1965 777 
L 1965 1140 
L 1850 1140 
L 1850 783 
C 1850 344 1677 51 1408 51 
C 1222 51 966 178 966 758 
L 966 2560 
z
" transform="scale(0.015625)"/>
        <path id="CMR17-79" d="M 2496 2197 
C 2656 2586 2944 2586 3034 2586 
L 3034 2752 
C 2912 2752 2752 2752 2630 2752 
C 2496 2752 2285 2752 2157 2758 
L 2157 2592 
C 2400 2573 2406 2394 2406 2343 
C 2406 2280 2394 2248 2362 2171 
L 1664 449 
L 902 2306 
C 870 2382 870 2426 870 2433 
C 870 2573 1018 2586 1171 2586 
L 1171 2758 
C 1018 2752 742 2752 582 2752 
C 410 2752 205 2752 64 2758 
L 64 2586 
C 410 2586 448 2554 531 2350 
L 1485 15 
C 1197 -738 1030 -1178 627 -1178 
C 557 -1178 397 -1159 282 -1044 
C 429 -1031 493 -942 493 -833 
C 493 -725 416 -629 288 -629 
C 147 -629 77 -725 77 -840 
C 77 -1095 339 -1280 627 -1280 
C 998 -1280 1229 -922 1357 -604 
L 2496 2197 
z
" transform="scale(0.015625)"/>
       </defs>
       <use xlink:href="#CMR17-50" transform="scale(0.996264)"/>
       <use xlink:href="#CMR17-6c" transform="translate(62.586301 0) scale(0.996264)"/>
       <use xlink:href="#CMR17-75" transform="translate(87.457359 0) scale(0.996264)"/>
       <use xlink:href="#CMR17-72" transform="translate(138.352729 0) scale(0.996264)"/>
       <use xlink:href="#CMR17-61" transform="translate(173.633497 0) scale(0.996264)"/>
       <use xlink:href="#CMR17-6c" transform="translate(219.323974 0) scale(0.996264)"/>
       <use xlink:href="#CMR17-69" transform="translate(244.195032 0) scale(0.996264)"/>
       <use xlink:href="#CMR17-74" transform="translate(269.066091 0) scale(0.996264)"/>
       <use xlink:href="#CMR17-79" transform="translate(301.744405 0) scale(0.996264)"/>
       <use xlink:href="#CMR17-72" transform="translate(380.113287 0) scale(0.996264)"/>
       <use xlink:href="#CMR17-75" transform="translate(415.394055 0) scale(0.996264)"/>
       <use xlink:href="#CMR17-6c" transform="translate(466.289424 0) scale(0.996264)"/>
       <use xlink:href="#CMR17-65" transform="translate(491.160483 0) scale(0.996264)"/>
      </g>
     </g>
    </g>
    <g id="xtick_4">
     <g id="line2d_4">
      <g>
       <use xlink:href="#mbc707f6925" x="633.373461" y="384.626418" style="stroke: #000000; stroke-width: 0.8"/>
      </g>
     </g>
     <g id="text_4">
      <!-- Black's Rule -->
      <g transform="translate(603.510396 399.236765) scale(0.11 -0.11)">
       <defs>
        <path id="CMR17-63" d="M 2234 2240 
C 2112 2240 1933 2240 1933 2017 
C 1933 1838 2080 1787 2163 1787 
C 2208 1787 2394 1807 2394 2024 
C 2394 2467 1958 2803 1466 2803 
C 787 2803 211 2178 211 1363 
C 211 516 813 -64 1466 -64 
C 2259 -64 2458 677 2458 748 
C 2458 774 2451 793 2406 793 
C 2362 793 2355 787 2330 703 
C 2163 180 1798 51 1523 51 
C 1114 51 621 427 621 1369 
C 621 2338 1094 2688 1472 2688 
C 1722 2688 2093 2573 2234 2240 
z
" transform="scale(0.015625)"/>
        <path id="CMR17-6b" d="M 1670 1673 
C 1664 1686 1632 1724 1632 1743 
C 1632 1756 2086 2171 2144 2222 
C 2509 2528 2739 2560 2906 2560 
L 2906 2733 
C 2867 2733 2854 2733 2848 2720 
L 2534 2720 
C 2355 2720 2080 2720 1907 2733 
L 1907 2566 
C 1997 2559 2061 2508 2061 2419 
C 2061 2291 1933 2170 1926 2170 
L 960 1289 
L 960 4396 
L 198 4326 
L 198 4160 
C 576 4160 634 4122 634 3817 
L 634 426 
C 634 184 608 153 198 153 
L 198 -13 
C 352 0 634 0 794 0 
C 954 0 1235 0 1389 -13 
L 1389 153 
C 979 153 954 178 954 428 
L 954 1130 
L 1395 1532 
L 2042 574 
C 2118 459 2182 369 2182 286 
C 2182 172 2067 153 1990 153 
L 1990 -13 
C 2144 0 2419 0 2579 0 
C 2694 0 2931 0 3040 0 
L 3040 153 
C 2739 153 2669 210 2477 491 
L 1670 1673 
z
" transform="scale(0.015625)"/>
       </defs>
       <use xlink:href="#CMR17-42" transform="scale(0.996264)"/>
       <use xlink:href="#CMR17-6c" transform="translate(65.188754 0) scale(0.996264)"/>
       <use xlink:href="#CMR17-61" transform="translate(90.059813 0) scale(0.996264)"/>
       <use xlink:href="#CMR17-63" transform="translate(135.75029 0) scale(0.996264)"/>
       <use xlink:href="#CMR17-6b" transform="translate(173.633497 0) scale(0.996264)"/>
       <use xlink:href="#CMR17-27" transform="translate(221.926412 0) scale(0.996264)"/>
       <use xlink:href="#CMR17-73" transform="translate(246.797471 0) scale(0.996264)"/>
       <use xlink:href="#CMR17-52" transform="translate(312.674775 0) scale(0.996264)"/>
       <use xlink:href="#CMR17-75" transform="translate(380.465877 0) scale(0.996264)"/>
       <use xlink:href="#CMR17-6c" transform="translate(431.361247 0) scale(0.996264)"/>
       <use xlink:href="#CMR17-65" transform="translate(456.232305 0) scale(0.996264)"/>
      </g>
     </g>
    </g>
    <g id="text_5">
     <!-- Number of voters -->
     <g transform="translate(332.704412 414.361688) scale(0.13 -0.13)">
      <defs>
       <path id="CMR17-4e" d="M 1312 4250 
C 1267 4320 1261 4320 1139 4320 
L 326 4320 
L 326 4160 
L 448 4160 
C 704 4160 819 4129 838 4122 
L 838 610 
C 838 451 838 153 326 153 
L 326 -13 
C 474 0 742 0 902 0 
C 1062 0 1331 0 1478 -13 
L 1478 153 
C 966 153 966 451 966 610 
L 966 4033 
C 1011 3995 1011 3982 1056 3919 
L 3430 76 
C 3475 0 3494 0 3526 0 
C 3590 0 3590 19 3590 139 
L 3590 3705 
C 3590 3863 3590 4160 4102 4160 
L 4102 4326 
C 3955 4320 3686 4320 3526 4320 
C 3366 4320 3098 4320 2950 4326 
L 2950 4160 
C 3462 4160 3462 3862 3462 3703 
L 3462 763 
L 1312 4250 
z
" transform="scale(0.015625)"/>
       <path id="CMR17-6d" d="M 4326 1933 
C 4326 2252 4269 2790 3507 2790 
C 3072 2790 2771 2496 2656 2151 
L 2650 2151 
C 2573 2676 2195 2790 1837 2790 
C 1331 2790 1069 2400 973 2144 
L 966 2144 
L 966 2790 
L 211 2720 
L 211 2554 
C 589 2554 646 2515 646 2208 
L 646 428 
C 646 184 621 153 211 153 
L 211 -13 
C 365 0 646 0 813 0 
C 979 0 1267 0 1421 -13 
L 1421 153 
C 1011 153 986 178 986 428 
L 986 1658 
C 986 2247 1344 2688 1792 2688 
C 2266 2688 2317 2266 2317 1958 
L 2317 428 
C 2317 184 2291 153 1882 153 
L 1882 -13 
C 2035 0 2317 0 2483 0 
C 2650 0 2938 0 3091 -13 
L 3091 153 
C 2682 153 2656 178 2656 428 
L 2656 1658 
C 2656 2247 3014 2688 3462 2688 
C 3936 2688 3987 2266 3987 1958 
L 3987 428 
C 3987 184 3962 153 3552 153 
L 3552 -13 
C 3706 0 3987 0 4154 0 
C 4320 0 4608 0 4762 -13 
L 4762 153 
C 4352 153 4326 178 4326 428 
L 4326 1933 
z
" transform="scale(0.015625)"/>
       <path id="CMR17-62" d="M 960 4396 
L 198 4326 
L 198 4160 
C 576 4160 634 4122 634 3817 
L 634 -13 
L 749 -13 
L 934 441 
C 1120 141 1395 -64 1766 -64 
C 2406 -64 3053 500 3053 1370 
C 3053 2188 2477 2790 1830 2790 
C 1434 2790 1152 2579 960 2330 
L 960 4396 
z
M 973 2004 
C 973 2118 973 2138 1062 2272 
C 1312 2657 1670 2688 1792 2688 
C 1984 2688 2643 2585 2643 1376 
C 2643 108 1888 38 1734 38 
C 1536 38 1248 114 1043 486 
C 973 608 973 621 973 735 
L 973 2004 
z
" transform="scale(0.015625)"/>
       <path id="CMR17-66" d="M 979 2560 
L 1709 2560 
L 1709 2725 
L 966 2725 
L 966 3494 
C 966 4022 1235 4352 1510 4352 
C 1594 4352 1690 4327 1754 4282 
C 1702 4269 1568 4225 1568 4067 
C 1568 3901 1696 3850 1786 3850 
C 1875 3850 2003 3901 2003 4067 
C 2003 4308 1773 4454 1517 4454 
C 1152 4454 653 4156 653 3481 
L 653 2725 
L 141 2725 
L 141 2560 
L 653 2560 
L 653 427 
C 653 184 627 153 218 153 
L 218 -13 
C 371 0 666 0 832 0 
C 1018 0 1344 0 1517 -13 
L 1517 153 
C 1056 153 979 153 979 439 
L 979 2560 
z
" transform="scale(0.015625)"/>
       <path id="CMR17-76" d="M 2502 2163 
C 2560 2304 2662 2560 3034 2560 
L 3034 2726 
C 2912 2726 2752 2726 2630 2726 
C 2496 2726 2285 2726 2157 2732 
L 2157 2566 
C 2317 2553 2406 2477 2406 2311 
C 2406 2253 2406 2240 2368 2151 
L 1664 377 
L 902 2286 
C 864 2369 864 2381 864 2407 
C 864 2560 1075 2560 1171 2560 
L 1171 2732 
C 1018 2726 736 2726 576 2726 
C 403 2726 205 2726 64 2732 
L 64 2560 
C 307 2560 442 2560 518 2362 
L 1446 44 
C 1485 -51 1491 -64 1549 -64 
C 1606 -64 1613 -51 1651 44 
L 2502 2163 
z
" transform="scale(0.015625)"/>
      </defs>
      <use xlink:href="#CMR17-4e" transform="scale(0.996264)"/>
      <use xlink:href="#CMR17-75" transform="translate(69.07243 0) scale(0.996264)"/>
      <use xlink:href="#CMR17-6d" transform="translate(119.9678 0) scale(0.996264)"/>
      <use xlink:href="#CMR17-62" transform="translate(194.284936 0) scale(0.996264)"/>
      <use xlink:href="#CMR17-65" transform="translate(247.782744 0) scale(0.996264)"/>
      <use xlink:href="#CMR17-72" transform="translate(288.268404 0) scale(0.996264)"/>
      <use xlink:href="#CMR17-6f" transform="translate(353.625139 0) scale(0.996264)"/>
      <use xlink:href="#CMR17-66" transform="translate(399.315616 0) scale(0.996264)"/>
      <use xlink:href="#CMR17-76" transform="translate(456.865095 0) scale(0.996264)"/>
      <use xlink:href="#CMR17-6f" transform="translate(502.555556 0) scale(0.996264)"/>
      <use xlink:href="#CMR17-74" transform="translate(548.246034 0) scale(0.996264)"/>
      <use xlink:href="#CMR17-65" transform="translate(583.526801 0) scale(0.996264)"/>
      <use xlink:href="#CMR17-72" transform="translate(624.012462 0) scale(0.996264)"/>
      <use xlink:href="#CMR17-73" transform="translate(659.29323 0) scale(0.996264)"/>
     </g>
    </g>
   </g>
   <g id="matplotlib.axis_2">
    <g id="ytick_1">
     <g id="line2d_5">
      <path d="M 57.114884 368.512219 
L 704.88 368.512219 
" clip-path="url(#pd53f1acf67)" style="fill: none; stroke: #b0b0b0; stroke-opacity: 0.3; stroke-linecap: square"/>
     </g>
     <g id="line2d_6">
      <defs>
       <path id="m97dc0ac0f1" d="M 0 0 
L -3.5 0 
" style="stroke: #000000; stroke-width: 0.8"/>
      </defs>
      <g>
       <use xlink:href="#m97dc0ac0f1" x="57.114884" y="368.512219" style="stroke: #000000; stroke-width: 0.8"/>
      </g>
     </g>
     <g id="text_6">
      <!-- $\mathdefault{1.00}$ -->
      <g transform="translate(30.63234 372.317392) scale(0.11 -0.11)">
       <defs>
        <path id="CMR17-31" d="M 1702 4058 
C 1702 4192 1696 4192 1606 4192 
C 1357 3916 979 3827 621 3827 
C 602 3827 570 3827 563 3808 
C 557 3795 557 3782 557 3648 
C 755 3648 1088 3686 1344 3839 
L 1344 461 
C 1344 236 1331 160 781 160 
L 589 160 
L 589 0 
C 896 0 1216 0 1523 0 
C 1830 0 2150 0 2458 0 
L 2458 160 
L 2266 160 
C 1715 160 1702 230 1702 458 
L 1702 4058 
z
" transform="scale(0.015625)"/>
        <path id="CMMI12-3a" d="M 1178 307 
C 1178 492 1024 619 870 619 
C 685 619 557 466 557 313 
C 557 128 710 0 864 0 
C 1050 0 1178 153 1178 307 
z
" transform="scale(0.015625)"/>
        <path id="CMR17-30" d="M 2688 2025 
C 2688 2416 2682 3080 2413 3591 
C 2176 4039 1798 4198 1466 4198 
C 1158 4198 768 4058 525 3597 
C 269 3118 243 2524 243 2025 
C 243 1661 250 1106 448 619 
C 723 -39 1216 -128 1466 -128 
C 1760 -128 2208 -7 2470 600 
C 2662 1042 2688 1559 2688 2025 
z
M 1466 -26 
C 1056 -26 813 325 723 812 
C 653 1188 653 1738 653 2096 
C 653 2588 653 2997 736 3387 
C 858 3929 1216 4096 1466 4096 
C 1728 4096 2067 3923 2189 3400 
C 2272 3036 2278 2607 2278 2096 
C 2278 1680 2278 1169 2202 792 
C 2067 95 1690 -26 1466 -26 
z
" transform="scale(0.015625)"/>
       </defs>
       <use xlink:href="#CMR17-31" transform="scale(0.996264)"/>
       <use xlink:href="#CMMI12-3a" transform="translate(45.690477 0) scale(0.996264)"/>
       <use xlink:href="#CMR17-30" transform="translate(72.787654 0) scale(0.996264)"/>
       <use xlink:href="#CMR17-30" transform="translate(118.478131 0) scale(0.996264)"/>
      </g>
     </g>
    </g>
    <g id="ytick_2">
     <g id="line2d_7">
      <path d="M 57.114884 299.803062 
L 704.88 299.803062 
" clip-path="url(#pd53f1acf67)" style="fill: none; stroke: #b0b0b0; stroke-opacity: 0.3; stroke-linecap: square"/>
     </g>
     <g id="line2d_8">
      <g>
       <use xlink:href="#m97dc0ac0f1" x="57.114884" y="299.803062" style="stroke: #000000; stroke-width: 0.8"/>
      </g>
     </g>
     <g id="text_7">
      <!-- $\mathdefault{1.05}$ -->
      <g transform="translate(30.63234 303.608236) scale(0.11 -0.11)">
       <defs>
        <path id="CMR17-35" d="M 730 3692 
C 794 3666 1056 3584 1325 3584 
C 1920 3584 2246 3911 2432 4100 
C 2432 4157 2432 4192 2394 4192 
C 2387 4192 2374 4192 2323 4163 
C 2099 4058 1837 3973 1517 3973 
C 1325 3973 1037 3999 723 4139 
C 653 4171 640 4171 634 4171 
C 602 4171 595 4164 595 4037 
L 595 2203 
C 595 2089 595 2057 659 2057 
C 691 2057 704 2070 736 2114 
C 941 2401 1222 2522 1542 2522 
C 1766 2522 2246 2382 2246 1289 
C 2246 1085 2246 715 2054 421 
C 1894 159 1645 25 1370 25 
C 947 25 518 320 403 814 
C 429 807 480 795 506 795 
C 589 795 749 840 749 1038 
C 749 1210 627 1280 506 1280 
C 358 1280 262 1190 262 1011 
C 262 454 704 -128 1382 -128 
C 2042 -128 2669 440 2669 1264 
C 2669 2030 2170 2624 1549 2624 
C 1222 2624 947 2503 730 2274 
L 730 3692 
z
" transform="scale(0.015625)"/>
       </defs>
       <use xlink:href="#CMR17-31" transform="scale(0.996264)"/>
       <use xlink:href="#CMMI12-3a" transform="translate(45.690477 0) scale(0.996264)"/>
       <use xlink:href="#CMR17-30" transform="translate(72.787654 0) scale(0.996264)"/>
       <use xlink:href="#CMR17-35" transform="translate(118.478131 0) scale(0.996264)"/>
      </g>
     </g>
    </g>
    <g id="ytick_3">
     <g id="line2d_9">
      <path d="M 57.114884 231.093906 
L 704.88 231.093906 
" clip-path="url(#pd53f1acf67)" style="fill: none; stroke: #b0b0b0; stroke-opacity: 0.3; stroke-linecap: square"/>
     </g>
     <g id="line2d_10">
      <g>
       <use xlink:href="#m97dc0ac0f1" x="57.114884" y="231.093906" style="stroke: #000000; stroke-width: 0.8"/>
      </g>
     </g>
     <g id="text_8">
      <!-- $\mathdefault{1.10}$ -->
      <g transform="translate(30.63234 234.899079) scale(0.11 -0.11)">
       <use xlink:href="#CMR17-31" transform="scale(0.996264)"/>
       <use xlink:href="#CMMI12-3a" transform="translate(45.690477 0) scale(0.996264)"/>
       <use xlink:href="#CMR17-31" transform="translate(72.787654 0) scale(0.996264)"/>
       <use xlink:href="#CMR17-30" transform="translate(118.478131 0) scale(0.996264)"/>
      </g>
     </g>
    </g>
    <g id="ytick_4">
     <g id="line2d_11">
      <path d="M 57.114884 162.38475 
L 704.88 162.38475 
" clip-path="url(#pd53f1acf67)" style="fill: none; stroke: #b0b0b0; stroke-opacity: 0.3; stroke-linecap: square"/>
     </g>
     <g id="line2d_12">
      <g>
       <use xlink:href="#m97dc0ac0f1" x="57.114884" y="162.38475" style="stroke: #000000; stroke-width: 0.8"/>
      </g>
     </g>
     <g id="text_9">
      <!-- $\mathdefault{1.15}$ -->
      <g transform="translate(30.63234 166.189923) scale(0.11 -0.11)">
       <use xlink:href="#CMR17-31" transform="scale(0.996264)"/>
       <use xlink:href="#CMMI12-3a" transform="translate(45.690477 0) scale(0.996264)"/>
       <use xlink:href="#CMR17-31" transform="translate(72.787654 0) scale(0.996264)"/>
       <use xlink:href="#CMR17-35" transform="translate(118.478131 0) scale(0.996264)"/>
      </g>
     </g>
    </g>
    <g id="ytick_5">
     <g id="line2d_13">
      <path d="M 57.114884 93.675593 
L 704.88 93.675593 
" clip-path="url(#pd53f1acf67)" style="fill: none; stroke: #b0b0b0; stroke-opacity: 0.3; stroke-linecap: square"/>
     </g>
     <g id="line2d_14">
      <g>
       <use xlink:href="#m97dc0ac0f1" x="57.114884" y="93.675593" style="stroke: #000000; stroke-width: 0.8"/>
      </g>
     </g>
     <g id="text_10">
      <!-- $\mathdefault{1.20}$ -->
      <g transform="translate(30.63234 97.480766) scale(0.11 -0.11)">
       <defs>
        <path id="CMR17-32" d="M 2669 989 
L 2554 989 
C 2490 536 2438 459 2413 420 
C 2381 369 1920 369 1830 369 
L 602 369 
C 832 619 1280 1072 1824 1597 
C 2214 1967 2669 2402 2669 3035 
C 2669 3790 2067 4224 1395 4224 
C 691 4224 262 3604 262 3030 
C 262 2780 448 2748 525 2748 
C 589 2748 781 2787 781 3010 
C 781 3207 614 3264 525 3264 
C 486 3264 448 3258 422 3245 
C 544 3790 915 4058 1306 4058 
C 1862 4058 2227 3617 2227 3035 
C 2227 2479 1901 2000 1536 1584 
L 262 146 
L 262 0 
L 2515 0 
L 2669 989 
z
" transform="scale(0.015625)"/>
       </defs>
       <use xlink:href="#CMR17-31" transform="scale(0.996264)"/>
       <use xlink:href="#CMMI12-3a" transform="translate(45.690477 0) scale(0.996264)"/>
       <use xlink:href="#CMR17-32" transform="translate(72.787654 0) scale(0.996264)"/>
       <use xlink:href="#CMR17-30" transform="translate(118.478131 0) scale(0.996264)"/>
      </g>
     </g>
    </g>
    <g id="text_11">
     <!-- Distortion -->
     <g transform="translate(24.114028 235.497321) rotate(-90) scale(0.13 -0.13)">
      <defs>
       <path id="CMR17-44" d="M 333 4352 
L 333 4186 
C 774 4186 845 4186 845 3900 
L 845 452 
C 845 166 774 166 333 166 
L 333 0 
L 2368 0 
C 3398 0 4224 943 4224 2141 
C 4224 3346 3411 4352 2368 4352 
L 333 4352 
z
M 1523 166 
C 1267 166 1254 197 1254 414 
L 1254 3938 
C 1254 4155 1267 4186 1523 4186 
L 2240 4186 
C 2771 4186 3750 3874 3750 2141 
C 3750 1242 3488 879 3366 707 
C 3213 510 2848 166 2240 166 
L 1523 166 
z
" transform="scale(0.015625)"/>
      </defs>
      <use xlink:href="#CMR17-44" transform="scale(0.996264)"/>
      <use xlink:href="#CMR17-69" transform="translate(70.393556 0) scale(0.996264)"/>
      <use xlink:href="#CMR17-73" transform="translate(95.264614 0) scale(0.996264)"/>
      <use xlink:href="#CMR17-74" transform="translate(131.065952 0) scale(0.996264)"/>
      <use xlink:href="#CMR17-6f" transform="translate(166.34672 0) scale(0.996264)"/>
      <use xlink:href="#CMR17-72" transform="translate(212.037197 0) scale(0.996264)"/>
      <use xlink:href="#CMR17-74" transform="translate(247.317965 0) scale(0.996264)"/>
      <use xlink:href="#CMR17-69" transform="translate(282.598733 0) scale(0.996264)"/>
      <use xlink:href="#CMR17-6f" transform="translate(307.469791 0) scale(0.996264)"/>
      <use xlink:href="#CMR17-6e" transform="translate(353.160268 0) scale(0.996264)"/>
     </g>
    </g>
   </g>
   <g id="LineCollection_1">
    <path d="M 107.590088 326.46032 
L 149.652757 326.46032 
" clip-path="url(#pd53f1acf67)" style="fill: none; stroke: #1f77b4; stroke-width: 1.5"/>
    <path d="M 275.840767 308.661512 
L 317.903437 308.661512 
" clip-path="url(#pd53f1acf67)" style="fill: none; stroke: #1f77b4; stroke-width: 1.5"/>
    <path d="M 444.091447 303.109093 
L 486.154117 303.109093 
" clip-path="url(#pd53f1acf67)" style="fill: none; stroke: #1f77b4; stroke-width: 1.5"/>
    <path d="M 612.342126 321.378199 
L 654.404796 321.378199 
" clip-path="url(#pd53f1acf67)" style="fill: none; stroke: #1f77b4; stroke-width: 1.5"/>
   </g>
   <g id="LineCollection_2">
    <path d="M 107.590088 46.228228 
L 149.652757 46.228228 
" clip-path="url(#pd53f1acf67)" style="fill: none; stroke: #1f77b4; stroke-width: 1.5"/>
    <path d="M 275.840767 61.564097 
L 317.903437 61.564097 
" clip-path="url(#pd53f1acf67)" style="fill: none; stroke: #1f77b4; stroke-width: 1.5"/>
    <path d="M 444.091447 57.512879 
L 486.154117 57.512879 
" clip-path="url(#pd53f1acf67)" style="fill: none; stroke: #1f77b4; stroke-width: 1.5"/>
    <path d="M 612.342126 74.903915 
L 654.404796 74.903915 
" clip-path="url(#pd53f1acf67)" style="fill: none; stroke: #1f77b4; stroke-width: 1.5"/>
   </g>
   <g id="LineCollection_3">
    <path d="M 107.590088 368.512219 
L 149.652757 368.512219 
" clip-path="url(#pd53f1acf67)" style="fill: none; stroke: #1f77b4; stroke-width: 1.5"/>
    <path d="M 275.840767 368.512219 
L 317.903437 368.512219 
" clip-path="url(#pd53f1acf67)" style="fill: none; stroke: #1f77b4; stroke-width: 1.5"/>
    <path d="M 444.091447 368.512219 
L 486.154117 368.512219 
" clip-path="url(#pd53f1acf67)" style="fill: none; stroke: #1f77b4; stroke-width: 1.5"/>
    <path d="M 612.342126 368.512219 
L 654.404796 368.512219 
" clip-path="url(#pd53f1acf67)" style="fill: none; stroke: #1f77b4; stroke-width: 1.5"/>
   </g>
   <g id="LineCollection_4">
    <path d="M 128.621423 368.512219 
L 128.621423 46.228228 
" clip-path="url(#pd53f1acf67)" style="fill: none; stroke: #1f77b4; stroke-width: 1.5"/>
    <path d="M 296.872102 368.512219 
L 296.872102 61.564097 
" clip-path="url(#pd53f1acf67)" style="fill: none; stroke: #1f77b4; stroke-width: 1.5"/>
    <path d="M 465.122782 368.512219 
L 465.122782 57.512879 
" clip-path="url(#pd53f1acf67)" style="fill: none; stroke: #1f77b4; stroke-width: 1.5"/>
    <path d="M 633.373461 368.512219 
L 633.373461 74.903915 
" clip-path="url(#pd53f1acf67)" style="fill: none; stroke: #1f77b4; stroke-width: 1.5"/>
   </g>
   <g id="patch_3">
    <path d="M 57.114884 384.626418 
L 57.114884 30.114028 
" style="fill: none; stroke: #000000; stroke-linejoin: miter; stroke-linecap: square"/>
   </g>
   <g id="patch_4">
    <path d="M 704.88 384.626418 
L 704.88 30.114028 
" style="fill: none; stroke: #000000; stroke-linejoin: miter; stroke-linecap: square"/>
   </g>
   <g id="patch_5">
    <path d="M 57.114884 384.626418 
L 704.88 384.626418 
" style="fill: none; stroke: #000000; stroke-linejoin: miter; stroke-linecap: square"/>
   </g>
   <g id="patch_6">
    <path d="M 57.114884 30.114028 
L 704.88 30.114028 
" style="fill: none; stroke: #000000; stroke-linejoin: miter; stroke-linecap: square"/>
   </g>
   <g id="text_12">
    <!-- Distortion Under Utiliratian -->
    <g transform="translate(302.501184 24.114028) scale(0.13 -0.13)">
     <defs>
      <path id="CMR17-55" d="M 3456 1433 
C 3456 579 2899 38 2291 38 
C 1965 38 1670 210 1491 477 
C 1286 783 1261 1178 1261 1401 
L 1261 3874 
C 1261 4160 1331 4160 1773 4160 
L 1773 4320 
C 1587 4320 1248 4320 1050 4320 
C 851 4320 512 4320 326 4320 
L 326 4160 
C 768 4160 838 4160 838 3874 
L 838 1433 
C 838 516 1536 -128 2278 -128 
C 3110 -128 3590 719 3590 1344 
L 3590 3766 
C 3590 4122 3917 4160 4102 4160 
L 4102 4326 
C 3955 4320 3686 4320 3526 4320 
C 3366 4320 3091 4320 2944 4326 
L 2944 4160 
C 3456 4160 3456 3861 3456 3702 
L 3456 1433 
z
" transform="scale(0.015625)"/>
     </defs>
     <use xlink:href="#CMR17-44" transform="scale(0.996264)"/>
     <use xlink:href="#CMR17-69" transform="translate(70.393556 0) scale(0.996264)"/>
     <use xlink:href="#CMR17-73" transform="translate(95.264614 0) scale(0.996264)"/>
     <use xlink:href="#CMR17-74" transform="translate(131.065952 0) scale(0.996264)"/>
     <use xlink:href="#CMR17-6f" transform="translate(166.34672 0) scale(0.996264)"/>
     <use xlink:href="#CMR17-72" transform="translate(212.037197 0) scale(0.996264)"/>
     <use xlink:href="#CMR17-74" transform="translate(247.317965 0) scale(0.996264)"/>
     <use xlink:href="#CMR17-69" transform="translate(282.598733 0) scale(0.996264)"/>
     <use xlink:href="#CMR17-6f" transform="translate(307.469791 0) scale(0.996264)"/>
     <use xlink:href="#CMR17-6e" transform="translate(353.160268 0) scale(0.996264)"/>
     <use xlink:href="#CMR17-55" transform="translate(434.131604 0) scale(0.996264)"/>
     <use xlink:href="#CMR17-6e" transform="translate(503.204034 0) scale(0.996264)"/>
     <use xlink:href="#CMR17-64" transform="translate(554.099404 0) scale(0.996264)"/>
     <use xlink:href="#CMR17-65" transform="translate(604.994774 0) scale(0.996264)"/>
     <use xlink:href="#CMR17-72" transform="translate(645.480434 0) scale(0.996264)"/>
     <use xlink:href="#CMR17-55" transform="translate(710.837168 0) scale(0.996264)"/>
     <use xlink:href="#CMR17-74" transform="translate(779.909598 0) scale(0.996264)"/>
     <use xlink:href="#CMR17-69" transform="translate(815.190366 0) scale(0.996264)"/>
     <use xlink:href="#CMR17-6c" transform="translate(840.061424 0) scale(0.996264)"/>
     <use xlink:href="#CMR17-69" transform="translate(864.932483 0) scale(0.996264)"/>
     <use xlink:href="#CMR17-72" transform="translate(889.803541 0) scale(0.996264)"/>
     <use xlink:href="#CMR17-61" transform="translate(925.084309 0) scale(0.996264)"/>
     <use xlink:href="#CMR17-74" transform="translate(970.774786 0) scale(0.996264)"/>
     <use xlink:href="#CMR17-69" transform="translate(1006.055554 0) scale(0.996264)"/>
     <use xlink:href="#CMR17-61" transform="translate(1030.926612 0) scale(0.996264)"/>
     <use xlink:href="#CMR17-6e" transform="translate(1076.61709 0) scale(0.996264)"/>
    </g>
   </g>
  </g>
 </g>
 <defs>
  <clipPath id="pd53f1acf67">
   <rect x="57.114884" y="30.114028" width="647.765116" height="354.51239"/>
  </clipPath>
 </defs>
</svg>
