<?xml version="1.0" encoding="utf-8" standalone="no"?>
<!DOCTYPE svg PUBLIC "-//W3C//DTD SVG 1.1//EN"
  "http://www.w3.org/Graphics/SVG/1.1/DTD/svg11.dtd">
<svg xmlns:xlink="http://www.w3.org/1999/xlink" width="720pt" height="432pt" viewBox="0 0 720 432" xmlns="http://www.w3.org/2000/svg" version="1.1">
 <metadata>
  <rdf:RDF xmlns:dc="http://purl.org/dc/elements/1.1/" xmlns:cc="http://creativecommons.org/ns#" xmlns:rdf="http://www.w3.org/1999/02/22-rdf-syntax-ns#">
   <cc:Work>
    <dc:type rdf:resource="http://purl.org/dc/dcmitype/StillImage"/>
    <dc:date>2024-12-13T17:49:39.557823</dc:date>
    <dc:format>image/svg+xml</dc:format>
    <dc:creator>
     <cc:Agent>
      <dc:title>Matplotlib v3.9.2, https://matplotlib.org/</dc:title>
     </cc:Agent>
    </dc:creator>
   </cc:Work>
  </rdf:RDF>
 </metadata>
 <defs>
  <style type="text/css">*{stroke-linejoin: round; stroke-linecap: butt}</style>
 </defs>
 <g id="figure_1">
  <g id="patch_1">
   <path d="M 0 432 
L 720 432 
L 720 0 
L 0 0 
z
" style="fill: #ffffff"/>
  </g>
  <g id="axes_1">
   <g id="patch_2">
    <path d="M 57.114884 384.626418 
L 704.88 384.626418 
L 704.88 30.114028 
L 57.114884 30.114028 
z
" style="fill: #ffffff"/>
   </g>
   <g id="PolyCollection_1">
    <defs>
     <path id="m862eeddb29" d="M 150.824362 -63.487781 
L 87.723963 -63.487781 
L 86.919591 -66.743175 
L 86.558753 -69.998569 
L 86.636039 -73.253963 
L 87.124783 -76.509357 
L 87.97987 -79.76475 
L 89.141912 -83.020144 
L 90.542297 -86.275538 
L 92.108553 -89.530932 
L 93.769468 -92.786326 
L 95.459533 -96.04172 
L 97.122349 -99.297113 
L 98.712828 -102.552507 
L 100.198175 -105.807901 
L 101.55774 -109.063295 
L 102.781963 -112.318689 
L 103.870667 -115.574083 
L 104.830973 -118.829477 
L 105.675107 -122.08487 
L 106.418306 -125.340264 
L 107.076984 -128.595658 
L 107.667244 -131.851052 
L 108.203797 -135.106446 
L 108.699257 -138.36184 
L 109.163791 -141.617234 
L 109.605061 -144.872627 
L 110.028377 -148.128021 
L 110.43702 -151.383415 
L 110.832633 -154.638809 
L 111.215666 -157.894203 
L 111.585797 -161.149597 
L 111.942307 -164.40499 
L 112.28439 -167.660384 
L 112.611372 -170.915778 
L 112.922847 -174.171172 
L 113.218733 -177.426566 
L 113.49926 -180.68196 
L 113.764917 -183.937354 
L 114.016378 -187.192747 
L 114.254422 -190.448141 
L 114.479872 -193.703535 
L 114.693553 -196.958929 
L 114.896274 -200.214323 
L 115.088826 -203.469717 
L 115.271979 -206.725111 
L 115.446478 -209.980504 
L 115.613016 -213.235898 
L 115.772193 -216.491292 
L 115.924458 -219.746686 
L 116.070048 -223.00208 
L 116.208948 -226.257474 
L 116.340875 -229.512867 
L 116.465317 -232.768261 
L 116.581619 -236.023655 
L 116.689126 -239.279049 
L 116.787353 -242.534443 
L 116.876168 -245.789837 
L 116.955954 -249.045231 
L 117.027724 -252.300624 
L 117.093152 -255.556018 
L 117.154521 -258.811412 
L 117.214574 -262.066806 
L 117.276292 -265.3222 
L 117.342615 -268.577594 
L 117.416152 -271.832988 
L 117.498905 -275.088381 
L 117.59206 -278.343775 
L 117.695854 -281.599169 
L 117.809551 -284.854563 
L 117.931507 -288.109957 
L 118.059339 -291.365351 
L 118.190144 -294.620744 
L 118.320761 -297.876138 
L 118.448035 -301.131532 
L 118.569051 -304.386926 
L 118.681316 -307.64232 
L 118.782884 -310.897714 
L 118.872402 -314.153108 
L 118.949101 -317.408501 
L 119.012729 -320.663895 
L 119.063456 -323.919289 
L 119.101759 -327.174683 
L 119.128309 -330.430077 
L 119.143879 -333.685471 
L 119.149274 -336.940865 
L 119.145301 -340.196258 
L 119.132768 -343.451652 
L 119.112508 -346.707046 
L 119.085424 -349.96244 
L 119.052546 -353.217834 
L 119.015074 -356.473228 
L 118.974412 -359.728622 
L 118.932165 -362.984015 
L 118.890115 -366.239409 
L 118.850154 -369.494803 
L 118.814187 -372.750197 
L 118.784019 -376.005591 
L 118.761226 -379.260985 
L 118.747037 -382.516378 
L 118.742237 -385.771772 
L 119.806088 -385.771772 
L 119.806088 -385.771772 
L 119.801288 -382.516378 
L 119.787099 -379.260985 
L 119.764306 -376.005591 
L 119.734138 -372.750197 
L 119.698171 -369.494803 
L 119.65821 -366.239409 
L 119.61616 -362.984015 
L 119.573913 -359.728622 
L 119.533251 -356.473228 
L 119.495779 -353.217834 
L 119.462901 -349.96244 
L 119.435817 -346.707046 
L 119.415557 -343.451652 
L 119.403024 -340.196258 
L 119.399052 -336.940865 
L 119.404446 -333.685471 
L 119.420016 -330.430077 
L 119.446566 -327.174683 
L 119.484869 -323.919289 
L 119.535596 -320.663895 
L 119.599224 -317.408501 
L 119.675923 -314.153108 
L 119.765441 -310.897714 
L 119.867009 -307.64232 
L 119.979274 -304.386926 
L 120.10029 -301.131532 
L 120.227564 -297.876138 
L 120.358181 -294.620744 
L 120.488986 -291.365351 
L 120.616818 -288.109957 
L 120.738775 -284.854563 
L 120.852471 -281.599169 
L 120.956265 -278.343775 
L 121.04942 -275.088381 
L 121.132173 -271.832988 
L 121.20571 -268.577594 
L 121.272033 -265.3222 
L 121.333751 -262.066806 
L 121.393804 -258.811412 
L 121.455173 -255.556018 
L 121.520601 -252.300624 
L 121.592371 -249.045231 
L 121.672158 -245.789837 
L 121.760972 -242.534443 
L 121.859199 -239.279049 
L 121.966706 -236.023655 
L 122.083008 -232.768261 
L 122.20745 -229.512867 
L 122.339377 -226.257474 
L 122.478277 -223.00208 
L 122.623867 -219.746686 
L 122.776132 -216.491292 
L 122.935309 -213.235898 
L 123.101847 -209.980504 
L 123.276346 -206.725111 
L 123.459499 -203.469717 
L 123.652051 -200.214323 
L 123.854772 -196.958929 
L 124.068453 -193.703535 
L 124.293903 -190.448141 
L 124.531947 -187.192747 
L 124.783408 -183.937354 
L 125.049065 -180.68196 
L 125.329592 -177.426566 
L 125.625478 -174.171172 
L 125.936953 -170.915778 
L 126.263935 -167.660384 
L 126.606018 -164.40499 
L 126.962528 -161.149597 
L 127.332659 -157.894203 
L 127.715692 -154.638809 
L 128.111305 -151.383415 
L 128.519948 -148.128021 
L 128.943264 -144.872627 
L 129.384534 -141.617234 
L 129.849068 -138.36184 
L 130.344528 -135.106446 
L 130.881081 -131.851052 
L 131.471341 -128.595658 
L 132.130019 -125.340264 
L 132.873218 -122.08487 
L 133.717352 -118.829477 
L 134.677658 -115.574083 
L 135.766362 -112.318689 
L 136.990585 -109.063295 
L 138.350151 -105.807901 
L 139.835497 -102.552507 
L 141.425976 -99.297113 
L 143.088792 -96.04172 
L 144.778857 -92.786326 
L 146.439772 -89.530932 
L 148.006028 -86.275538 
L 149.406413 -83.020144 
L 150.568455 -79.76475 
L 151.423542 -76.509357 
L 151.912286 -73.253963 
L 151.989572 -69.998569 
L 151.628734 -66.743175 
L 150.824362 -63.487781 
z
" style="stroke: #000000; stroke-opacity: 0.4"/>
    </defs>
    <g clip-path="url(#pc227148d69)">
     <use xlink:href="#m862eeddb29" x="0" y="432" style="fill: #440154; fill-opacity: 0.4; stroke: #000000; stroke-opacity: 0.4"/>
    </g>
   </g>
   <g id="PolyCollection_2">
    <defs>
     <path id="m7dae03f698" d="M 281.998961 -63.487781 
L 218.272643 -63.487781 
L 217.663164 -66.322097 
L 217.420392 -69.156413 
L 217.527785 -71.990728 
L 217.953006 -74.825044 
L 218.650707 -77.65936 
L 219.566185 -80.493675 
L 220.639576 -83.327991 
L 221.81014 -86.162307 
L 223.020286 -88.996623 
L 224.218977 -91.830938 
L 225.364296 -94.665254 
L 226.425033 -97.49957 
L 227.381266 -100.333886 
L 228.22402 -103.168201 
L 228.954152 -106.002517 
L 229.580656 -108.836833 
L 230.118614 -111.671149 
L 230.587016 -114.505464 
L 231.00663 -117.33978 
L 231.398095 -120.174096 
L 231.780346 -123.008411 
L 232.169444 -125.842727 
L 232.57783 -128.677043 
L 233.01401 -131.511359 
L 233.482604 -134.345674 
L 233.984712 -137.17999 
L 234.518502 -140.014306 
L 235.079933 -142.848622 
L 235.663526 -145.682937 
L 236.263104 -148.517253 
L 236.872427 -151.351569 
L 237.485693 -154.185885 
L 238.09787 -157.0202 
L 238.704865 -159.854516 
L 239.303548 -162.688832 
L 239.891661 -165.523147 
L 240.467653 -168.357463 
L 241.030476 -171.191779 
L 241.579395 -174.026095 
L 242.113813 -176.86041 
L 242.633148 -179.694726 
L 243.136761 -182.529042 
L 243.623927 -185.363358 
L 244.093844 -188.197673 
L 244.545667 -191.031989 
L 244.978547 -193.866305 
L 245.39167 -196.700621 
L 245.784291 -199.534936 
L 246.15575 -202.369252 
L 246.505479 -205.203568 
L 246.832995 -208.037883 
L 247.137891 -210.872199 
L 247.419819 -213.706515 
L 247.678481 -216.540831 
L 247.913618 -219.375146 
L 248.125012 -222.209462 
L 248.312501 -225.043778 
L 248.475999 -227.878094 
L 248.615539 -230.712409 
L 248.731318 -233.546725 
L 248.823756 -236.381041 
L 248.893558 -239.215357 
L 248.941769 -242.049672 
L 248.969821 -244.883988 
L 248.979558 -247.718304 
L 248.973229 -250.552619 
L 248.953456 -253.386935 
L 248.923161 -256.221251 
L 248.885465 -259.055567 
L 248.843558 -261.889882 
L 248.800562 -264.724198 
L 248.759384 -267.558514 
L 248.722584 -270.39283 
L 248.692267 -273.227145 
L 248.67001 -276.061461 
L 248.65682 -278.895777 
L 248.653144 -281.730093 
L 248.658902 -284.564408 
L 248.673557 -287.398724 
L 248.696204 -290.23304 
L 248.725668 -293.067355 
L 248.760602 -295.901671 
L 248.799582 -298.735987 
L 248.841189 -301.570303 
L 248.884078 -304.404618 
L 248.92704 -307.238934 
L 248.969049 -310.07325 
L 249.009297 -312.907566 
L 249.04723 -315.741881 
L 249.082564 -318.576197 
L 249.115295 -321.410513 
L 249.145696 -324.244829 
L 249.174292 -327.079144 
L 249.20182 -329.91346 
L 249.229167 -332.747776 
L 249.257296 -335.582091 
L 249.287159 -338.416407 
L 249.319606 -341.250723 
L 249.355305 -344.085039 
L 250.9163 -344.085039 
L 250.9163 -344.085039 
L 250.951998 -341.250723 
L 250.984445 -338.416407 
L 251.014308 -335.582091 
L 251.042437 -332.747776 
L 251.069784 -329.91346 
L 251.097312 -327.079144 
L 251.125908 -324.244829 
L 251.156309 -321.410513 
L 251.18904 -318.576197 
L 251.224374 -315.741881 
L 251.262307 -312.907566 
L 251.302556 -310.07325 
L 251.344564 -307.238934 
L 251.387526 -304.404618 
L 251.430416 -301.570303 
L 251.472022 -298.735987 
L 251.511002 -295.901671 
L 251.545936 -293.067355 
L 251.5754 -290.23304 
L 251.598047 -287.398724 
L 251.612702 -284.564408 
L 251.61846 -281.730093 
L 251.614784 -278.895777 
L 251.601595 -276.061461 
L 251.579337 -273.227145 
L 251.54902 -270.39283 
L 251.51222 -267.558514 
L 251.471042 -264.724198 
L 251.428046 -261.889882 
L 251.38614 -259.055567 
L 251.348443 -256.221251 
L 251.318149 -253.386935 
L 251.298376 -250.552619 
L 251.292047 -247.718304 
L 251.301783 -244.883988 
L 251.329836 -242.049672 
L 251.378047 -239.215357 
L 251.447848 -236.381041 
L 251.540286 -233.546725 
L 251.656065 -230.712409 
L 251.795605 -227.878094 
L 251.959104 -225.043778 
L 252.146592 -222.209462 
L 252.357986 -219.375146 
L 252.593123 -216.540831 
L 252.851785 -213.706515 
L 253.133714 -210.872199 
L 253.43861 -208.037883 
L 253.766126 -205.203568 
L 254.115855 -202.369252 
L 254.487314 -199.534936 
L 254.879935 -196.700621 
L 255.293057 -193.866305 
L 255.725937 -191.031989 
L 256.17776 -188.197673 
L 256.647678 -185.363358 
L 257.134843 -182.529042 
L 257.638456 -179.694726 
L 258.157791 -176.86041 
L 258.692209 -174.026095 
L 259.241128 -171.191779 
L 259.803952 -168.357463 
L 260.379943 -165.523147 
L 260.968056 -162.688832 
L 261.56674 -159.854516 
L 262.173735 -157.0202 
L 262.785911 -154.185885 
L 263.399177 -151.351569 
L 264.0085 -148.517253 
L 264.608078 -145.682937 
L 265.191672 -142.848622 
L 265.753103 -140.014306 
L 266.286892 -137.17999 
L 266.789 -134.345674 
L 267.257595 -131.511359 
L 267.693775 -128.677043 
L 268.102161 -125.842727 
L 268.491258 -123.008411 
L 268.873509 -120.174096 
L 269.264974 -117.33978 
L 269.684588 -114.505464 
L 270.15299 -111.671149 
L 270.690948 -108.836833 
L 271.317452 -106.002517 
L 272.047584 -103.168201 
L 272.890338 -100.333886 
L 273.846571 -97.49957 
L 274.907308 -94.665254 
L 276.052628 -91.830938 
L 277.251318 -88.996623 
L 278.461464 -86.162307 
L 279.632028 -83.327991 
L 280.705419 -80.493675 
L 281.620898 -77.65936 
L 282.318598 -74.825044 
L 282.74382 -71.990728 
L 282.851212 -69.156413 
L 282.608441 -66.322097 
L 281.998961 -63.487781 
z
" style="stroke: #000000; stroke-opacity: 0.4"/>
    </defs>
    <g clip-path="url(#pc227148d69)">
     <use xlink:href="#m7dae03f698" x="0" y="432" style="fill: #3b528b; fill-opacity: 0.4; stroke: #000000; stroke-opacity: 0.4"/>
    </g>
   </g>
   <g id="PolyCollection_3">
    <defs>
     <path id="m83eb11a00e" d="M 413.042521 -63.487781 
L 348.952362 -63.487781 
L 348.397616 -66.219752 
L 348.282032 -68.951723 
L 348.590557 -71.683695 
L 349.288333 -74.415666 
L 350.32391 -77.147637 
L 351.633617 -79.879608 
L 353.146603 -82.611579 
L 354.790028 -85.34355 
L 356.493919 -88.075521 
L 358.195271 -90.807493 
L 359.84113 -93.539464 
L 361.390516 -96.271435 
L 362.815178 -99.003406 
L 364.099306 -101.735377 
L 365.238384 -104.467348 
L 366.237423 -107.199319 
L 367.108826 -109.931291 
L 367.870101 -112.663262 
L 368.541635 -115.395233 
L 369.144661 -118.127204 
L 369.699538 -120.859175 
L 370.224395 -123.591146 
L 370.73418 -126.323118 
L 371.240099 -129.055089 
L 371.749422 -131.78706 
L 372.265621 -134.519031 
L 372.788765 -137.251002 
L 373.316113 -139.982973 
L 373.842827 -142.714944 
L 374.362723 -145.446916 
L 374.868996 -148.178887 
L 375.354855 -150.910858 
L 375.81402 -153.642829 
L 376.24106 -156.3748 
L 376.631571 -159.106771 
L 376.982209 -161.838742 
L 377.290618 -164.570714 
L 377.555301 -167.302685 
L 377.775481 -170.034656 
L 377.951001 -172.766627 
L 378.082292 -175.498598 
L 378.170423 -178.230569 
L 378.217222 -180.962541 
L 378.225442 -183.694512 
L 378.198923 -186.426483 
L 378.142711 -189.158454 
L 378.06307 -191.890425 
L 377.967368 -194.622396 
L 377.86381 -197.354367 
L 377.761034 -200.086339 
L 377.667602 -202.81831 
L 377.591438 -205.550281 
L 377.539278 -208.282252 
L 377.51621 -211.014223 
L 377.525351 -213.746194 
L 377.567711 -216.478165 
L 377.642257 -219.210137 
L 377.746164 -221.942108 
L 377.875223 -224.674079 
L 378.024338 -227.40605 
L 378.188059 -230.138021 
L 378.361071 -232.869992 
L 378.538606 -235.601964 
L 378.716711 -238.333935 
L 378.892381 -241.065906 
L 379.063556 -243.797877 
L 379.228999 -246.529848 
L 379.388099 -249.261819 
L 379.540651 -251.99379 
L 379.686622 -254.725762 
L 379.82598 -257.457733 
L 379.958559 -260.189704 
L 380.084002 -262.921675 
L 380.201763 -265.653646 
L 380.311151 -268.385617 
L 380.411409 -271.117588 
L 380.501799 -273.84956 
L 380.581679 -276.581531 
L 380.650565 -279.313502 
L 380.708167 -282.045473 
L 380.754398 -284.777444 
L 380.789371 -287.509415 
L 380.813377 -290.241387 
L 380.826866 -292.973358 
L 380.830426 -295.705329 
L 380.824778 -298.4373 
L 380.810774 -301.169271 
L 380.789412 -303.901242 
L 380.761845 -306.633213 
L 380.729398 -309.365185 
L 380.693559 -312.097156 
L 380.65597 -314.829127 
L 380.618382 -317.561098 
L 380.582598 -320.293069 
L 380.550388 -323.02504 
L 380.523391 -325.757011 
L 380.503024 -328.488983 
L 380.49038 -331.220954 
L 380.486159 -333.952925 
L 381.508725 -333.952925 
L 381.508725 -333.952925 
L 381.504503 -331.220954 
L 381.491859 -328.488983 
L 381.471492 -325.757011 
L 381.444496 -323.02504 
L 381.412285 -320.293069 
L 381.376502 -317.561098 
L 381.338914 -314.829127 
L 381.301325 -312.097156 
L 381.265486 -309.365185 
L 381.233038 -306.633213 
L 381.205472 -303.901242 
L 381.18411 -301.169271 
L 381.170106 -298.4373 
L 381.164458 -295.705329 
L 381.168018 -292.973358 
L 381.181507 -290.241387 
L 381.205513 -287.509415 
L 381.240486 -284.777444 
L 381.286717 -282.045473 
L 381.344319 -279.313502 
L 381.413205 -276.581531 
L 381.493085 -273.84956 
L 381.583475 -271.117588 
L 381.683733 -268.385617 
L 381.793121 -265.653646 
L 381.910881 -262.921675 
L 382.036325 -260.189704 
L 382.168903 -257.457733 
L 382.308261 -254.725762 
L 382.454233 -251.99379 
L 382.606784 -249.261819 
L 382.765885 -246.529848 
L 382.931328 -243.797877 
L 383.102503 -241.065906 
L 383.278173 -238.333935 
L 383.456278 -235.601964 
L 383.633813 -232.869992 
L 383.806825 -230.138021 
L 383.970545 -227.40605 
L 384.11966 -224.674079 
L 384.24872 -221.942108 
L 384.352627 -219.210137 
L 384.427172 -216.478165 
L 384.469532 -213.746194 
L 384.478673 -211.014223 
L 384.455606 -208.282252 
L 384.403446 -205.550281 
L 384.327281 -202.81831 
L 384.23385 -200.086339 
L 384.131074 -197.354367 
L 384.027516 -194.622396 
L 383.931814 -191.890425 
L 383.852173 -189.158454 
L 383.795961 -186.426483 
L 383.769442 -183.694512 
L 383.777661 -180.962541 
L 383.82446 -178.230569 
L 383.912591 -175.498598 
L 384.043883 -172.766627 
L 384.219403 -170.034656 
L 384.439583 -167.302685 
L 384.704266 -164.570714 
L 385.012675 -161.838742 
L 385.363313 -159.106771 
L 385.753824 -156.3748 
L 386.180864 -153.642829 
L 386.640029 -150.910858 
L 387.125888 -148.178887 
L 387.632161 -145.446916 
L 388.152056 -142.714944 
L 388.67877 -139.982973 
L 389.206119 -137.251002 
L 389.729263 -134.519031 
L 390.245462 -131.78706 
L 390.754785 -129.055089 
L 391.260703 -126.323118 
L 391.770488 -123.591146 
L 392.295346 -120.859175 
L 392.850223 -118.127204 
L 393.453249 -115.395233 
L 394.124783 -112.663262 
L 394.886058 -109.931291 
L 395.75746 -107.199319 
L 396.7565 -104.467348 
L 397.895577 -101.735377 
L 399.179705 -99.003406 
L 400.604367 -96.271435 
L 402.153753 -93.539464 
L 403.799613 -90.807493 
L 405.500964 -88.075521 
L 407.204855 -85.34355 
L 408.848281 -82.611579 
L 410.361267 -79.879608 
L 411.670974 -77.147637 
L 412.706551 -74.415666 
L 413.404327 -71.683695 
L 413.712852 -68.951723 
L 413.597268 -66.219752 
L 413.042521 -63.487781 
z
" style="stroke: #000000; stroke-opacity: 0.4"/>
    </defs>
    <g clip-path="url(#pc227148d69)">
     <use xlink:href="#m83eb11a00e" x="0" y="432" style="fill: #21918c; fill-opacity: 0.4; stroke: #000000; stroke-opacity: 0.4"/>
    </g>
   </g>
   <g id="PolyCollection_4">
    <defs>
     <path id="me2df9f9cb3" d="M 542.894039 -63.487781 
L 480.824124 -63.487781 
L 479.93543 -66.23452 
L 479.375578 -68.981258 
L 479.143672 -71.727997 
L 479.225594 -74.474735 
L 479.595469 -77.221474 
L 480.217868 -79.968212 
L 481.050517 -82.714951 
L 482.047247 -85.46169 
L 483.160932 -88.208428 
L 484.346168 -90.955167 
L 485.561508 -93.701905 
L 486.771136 -96.448644 
L 487.945905 -99.195382 
L 489.063766 -101.942121 
L 490.109643 -104.68886 
L 491.074849 -107.435598 
L 491.95619 -110.182337 
L 492.754871 -112.929075 
L 493.47535 -115.675814 
L 494.124242 -118.422552 
L 494.709357 -121.169291 
L 495.238934 -123.916029 
L 495.72109 -126.662768 
L 496.163481 -129.409507 
L 496.573149 -132.156245 
L 496.956516 -134.902984 
L 497.319465 -137.649722 
L 497.667464 -140.396461 
L 498.005674 -143.143199 
L 498.339013 -145.889938 
L 498.67215 -148.636677 
L 499.009408 -151.383415 
L 499.354612 -154.130154 
L 499.710872 -156.876892 
L 500.080355 -159.623631 
L 500.464068 -162.370369 
L 500.861697 -165.117108 
L 501.27152 -167.863846 
L 501.690435 -170.610585 
L 502.114095 -173.357324 
L 502.537161 -176.104062 
L 502.953654 -178.850801 
L 503.357379 -181.597539 
L 503.742391 -184.344278 
L 504.103462 -187.091016 
L 504.436503 -189.837755 
L 504.73891 -192.584493 
L 505.0098 -195.331232 
L 505.250106 -198.077971 
L 505.462536 -200.824709 
L 505.651378 -203.571448 
L 505.822183 -206.318186 
L 505.981342 -209.064925 
L 506.135603 -211.811663 
L 506.291556 -214.558402 
L 506.455145 -217.305141 
L 506.631245 -220.051879 
L 506.823335 -222.798618 
L 507.033302 -225.545356 
L 507.261373 -228.292095 
L 507.506201 -231.038833 
L 507.765061 -233.785572 
L 508.034155 -236.53231 
L 508.308979 -239.279049 
L 508.584719 -242.025788 
L 508.85663 -244.772526 
L 509.12038 -247.519265 
L 509.372311 -250.266003 
L 509.609615 -253.012742 
L 509.830414 -255.75948 
L 510.033738 -258.506219 
L 510.219435 -261.252958 
L 510.388012 -263.999696 
L 510.540447 -266.746435 
L 510.67798 -269.493173 
L 510.801924 -272.239912 
L 510.913506 -274.98665 
L 511.013739 -277.733389 
L 511.103361 -280.480127 
L 511.182808 -283.226866 
L 511.252243 -285.973605 
L 511.31161 -288.720343 
L 511.36073 -291.467082 
L 511.399395 -294.21382 
L 511.427472 -296.960559 
L 511.445002 -299.707297 
L 511.452279 -302.454036 
L 511.449906 -305.200775 
L 511.438825 -307.947513 
L 511.420324 -310.694252 
L 511.396006 -313.44099 
L 511.36773 -316.187729 
L 511.337537 -318.934467 
L 511.307551 -321.681206 
L 511.279863 -324.427944 
L 511.25642 -327.174683 
L 511.238918 -329.921422 
L 511.228701 -332.66816 
L 511.226696 -335.414899 
L 512.491467 -335.414899 
L 512.491467 -335.414899 
L 512.489462 -332.66816 
L 512.479245 -329.921422 
L 512.461743 -327.174683 
L 512.4383 -324.427944 
L 512.410612 -321.681206 
L 512.380626 -318.934467 
L 512.350433 -316.187729 
L 512.322157 -313.44099 
L 512.297839 -310.694252 
L 512.279338 -307.947513 
L 512.268257 -305.200775 
L 512.265884 -302.454036 
L 512.273161 -299.707297 
L 512.290691 -296.960559 
L 512.318768 -294.21382 
L 512.357433 -291.467082 
L 512.406553 -288.720343 
L 512.465921 -285.973605 
L 512.535355 -283.226866 
L 512.614802 -280.480127 
L 512.704424 -277.733389 
L 512.804657 -274.98665 
L 512.916239 -272.239912 
L 513.040183 -269.493173 
L 513.177716 -266.746435 
L 513.330151 -263.999696 
L 513.498728 -261.252958 
L 513.684425 -258.506219 
L 513.887749 -255.75948 
L 514.108548 -253.012742 
L 514.345852 -250.266003 
L 514.597784 -247.519265 
L 514.861533 -244.772526 
L 515.133444 -242.025788 
L 515.409184 -239.279049 
L 515.684008 -236.53231 
L 515.953102 -233.785572 
L 516.211962 -231.038833 
L 516.45679 -228.292095 
L 516.684861 -225.545356 
L 516.894828 -222.798618 
L 517.086918 -220.051879 
L 517.263018 -217.305141 
L 517.426607 -214.558402 
L 517.58256 -211.811663 
L 517.736821 -209.064925 
L 517.89598 -206.318186 
L 518.066785 -203.571448 
L 518.255627 -200.824709 
L 518.468057 -198.077971 
L 518.708363 -195.331232 
L 518.979253 -192.584493 
L 519.28166 -189.837755 
L 519.614701 -187.091016 
L 519.975772 -184.344278 
L 520.360784 -181.597539 
L 520.764509 -178.850801 
L 521.181002 -176.104062 
L 521.604068 -173.357324 
L 522.027728 -170.610585 
L 522.446643 -167.863846 
L 522.856466 -165.117108 
L 523.254095 -162.370369 
L 523.637808 -159.623631 
L 524.007291 -156.876892 
L 524.363551 -154.130154 
L 524.708755 -151.383415 
L 525.046013 -148.636677 
L 525.37915 -145.889938 
L 525.712489 -143.143199 
L 526.050699 -140.396461 
L 526.398698 -137.649722 
L 526.761647 -134.902984 
L 527.145014 -132.156245 
L 527.554682 -129.409507 
L 527.997073 -126.662768 
L 528.479229 -123.916029 
L 529.008806 -121.169291 
L 529.593921 -118.422552 
L 530.242813 -115.675814 
L 530.963292 -112.929075 
L 531.761973 -110.182337 
L 532.643314 -107.435598 
L 533.60852 -104.68886 
L 534.654397 -101.942121 
L 535.772258 -99.195382 
L 536.947027 -96.448644 
L 538.156655 -93.701905 
L 539.371995 -90.955167 
L 540.557231 -88.208428 
L 541.670916 -85.46169 
L 542.667646 -82.714951 
L 543.500295 -79.968212 
L 544.122694 -77.221474 
L 544.492569 -74.474735 
L 544.574491 -71.727997 
L 544.342585 -68.981258 
L 543.782733 -66.23452 
L 542.894039 -63.487781 
z
" style="stroke: #000000; stroke-opacity: 0.4"/>
    </defs>
    <g clip-path="url(#pc227148d69)">
     <use xlink:href="#me2df9f9cb3" x="0" y="432" style="fill: #5ec962; fill-opacity: 0.4; stroke: #000000; stroke-opacity: 0.4"/>
    </g>
   </g>
   <g id="PolyCollection_5">
    <defs>
     <path id="mdd690e6ea7" d="M 673.765606 -63.487781 
L 611.675836 -63.487781 
L 610.650956 -66.5301 
L 610.100413 -69.57242 
L 610.005311 -72.614739 
L 610.317517 -75.657059 
L 610.965428 -78.699378 
L 611.861917 -81.741697 
L 612.913344 -84.784017 
L 614.028473 -87.826336 
L 615.126247 -90.868655 
L 616.141671 -93.910975 
L 617.029361 -96.953294 
L 617.76473 -99.995613 
L 618.343046 -103.037933 
L 618.776815 -106.080252 
L 619.092056 -109.122571 
L 619.324006 -112.164891 
L 619.512753 -115.20721 
L 619.699142 -118.249529 
L 619.921247 -121.291849 
L 620.211543 -124.334168 
L 620.594881 -127.376487 
L 621.087289 -130.418807 
L 621.695608 -133.461126 
L 622.417901 -136.503446 
L 623.244554 -139.545765 
L 624.159916 -142.588084 
L 625.144292 -145.630404 
L 626.176066 -148.672723 
L 627.233707 -151.715042 
L 628.297449 -154.757362 
L 629.350483 -157.799681 
L 630.37958 -160.842 
L 631.375147 -163.88432 
L 632.330817 -166.926639 
L 633.242717 -169.968958 
L 634.108615 -173.011278 
L 634.927097 -176.053597 
L 635.696948 -179.095916 
L 636.416788 -182.138236 
L 637.085 -185.180555 
L 637.699888 -188.222875 
L 638.259997 -191.265194 
L 638.764472 -194.307513 
L 639.213381 -197.349833 
L 639.607909 -200.392152 
L 639.950406 -203.434471 
L 640.244281 -206.476791 
L 640.493774 -209.51911 
L 640.703665 -212.561429 
L 640.878966 -215.603749 
L 641.024654 -218.646068 
L 641.145457 -221.688387 
L 641.245724 -224.730707 
L 641.329355 -227.773026 
L 641.399773 -230.815345 
L 641.459919 -233.857665 
L 641.512243 -236.899984 
L 641.558697 -239.942303 
L 641.600716 -242.984623 
L 641.63922 -246.026942 
L 641.674648 -249.069262 
L 641.707042 -252.111581 
L 641.736181 -255.1539 
L 641.761775 -258.19622 
L 641.783659 -261.238539 
L 641.801997 -264.280858 
L 641.817411 -267.323178 
L 641.831046 -270.365497 
L 641.844515 -273.407816 
L 641.859754 -276.450136 
L 641.878795 -279.492455 
L 641.903491 -282.534774 
L 641.935253 -285.577094 
L 641.974834 -288.619413 
L 642.022195 -291.661732 
L 642.076477 -294.704052 
L 642.136078 -297.746371 
L 642.198804 -300.788691 
L 642.262091 -303.83101 
L 642.323228 -306.873329 
L 642.379579 -309.915649 
L 642.428751 -312.957968 
L 642.468727 -316.000287 
L 642.497932 -319.042607 
L 642.515272 -322.084926 
L 642.520141 -325.127245 
L 642.512424 -328.169565 
L 642.492502 -331.211884 
L 642.461273 -334.254203 
L 642.420164 -337.296523 
L 642.371144 -340.338842 
L 642.316695 -343.381161 
L 642.259754 -346.423481 
L 642.203575 -349.4658 
L 642.151553 -352.508119 
L 642.106986 -355.550439 
L 642.072815 -358.592758 
L 642.051373 -361.635078 
L 642.044172 -364.677397 
L 643.39727 -364.677397 
L 643.39727 -364.677397 
L 643.39007 -361.635078 
L 643.368628 -358.592758 
L 643.334456 -355.550439 
L 643.289889 -352.508119 
L 643.237868 -349.4658 
L 643.181689 -346.423481 
L 643.124747 -343.381161 
L 643.070299 -340.338842 
L 643.021278 -337.296523 
L 642.980169 -334.254203 
L 642.94894 -331.211884 
L 642.929019 -328.169565 
L 642.921301 -325.127245 
L 642.92617 -322.084926 
L 642.943511 -319.042607 
L 642.972716 -316.000287 
L 643.012691 -312.957968 
L 643.061863 -309.915649 
L 643.118214 -306.873329 
L 643.179352 -303.83101 
L 643.242638 -300.788691 
L 643.305365 -297.746371 
L 643.364965 -294.704052 
L 643.419247 -291.661732 
L 643.466608 -288.619413 
L 643.506189 -285.577094 
L 643.537952 -282.534774 
L 643.562647 -279.492455 
L 643.581688 -276.450136 
L 643.596927 -273.407816 
L 643.610396 -270.365497 
L 643.624031 -267.323178 
L 643.639446 -264.280858 
L 643.657783 -261.238539 
L 643.679668 -258.19622 
L 643.705261 -255.1539 
L 643.734401 -252.111581 
L 643.766794 -249.069262 
L 643.802222 -246.026942 
L 643.840726 -242.984623 
L 643.882745 -239.942303 
L 643.929199 -236.899984 
L 643.981524 -233.857665 
L 644.041669 -230.815345 
L 644.112087 -227.773026 
L 644.195718 -224.730707 
L 644.295985 -221.688387 
L 644.416788 -218.646068 
L 644.562476 -215.603749 
L 644.737778 -212.561429 
L 644.947669 -209.51911 
L 645.197162 -206.476791 
L 645.491036 -203.434471 
L 645.833534 -200.392152 
L 646.228061 -197.349833 
L 646.67697 -194.307513 
L 647.181445 -191.265194 
L 647.741554 -188.222875 
L 648.356442 -185.180555 
L 649.024654 -182.138236 
L 649.744494 -179.095916 
L 650.514345 -176.053597 
L 651.332827 -173.011278 
L 652.198725 -169.968958 
L 653.110626 -166.926639 
L 654.066295 -163.88432 
L 655.061862 -160.842 
L 656.090959 -157.799681 
L 657.143994 -154.757362 
L 658.207736 -151.715042 
L 659.265377 -148.672723 
L 660.297151 -145.630404 
L 661.281527 -142.588084 
L 662.196888 -139.545765 
L 663.023541 -136.503446 
L 663.745835 -133.461126 
L 664.354153 -130.418807 
L 664.846561 -127.376487 
L 665.229899 -124.334168 
L 665.520196 -121.291849 
L 665.742301 -118.249529 
L 665.92869 -115.20721 
L 666.117436 -112.164891 
L 666.349387 -109.122571 
L 666.664627 -106.080252 
L 667.098396 -103.037933 
L 667.676712 -99.995613 
L 668.412082 -96.953294 
L 669.299772 -93.910975 
L 670.315195 -90.868655 
L 671.412969 -87.826336 
L 672.528098 -84.784017 
L 673.579525 -81.741697 
L 674.476015 -78.699378 
L 675.123926 -75.657059 
L 675.436131 -72.614739 
L 675.341029 -69.57242 
L 674.790487 -66.5301 
L 673.765606 -63.487781 
z
" style="stroke: #000000; stroke-opacity: 0.4"/>
    </defs>
    <g clip-path="url(#pc227148d69)">
     <use xlink:href="#mdd690e6ea7" x="0" y="432" style="fill: #fde725; fill-opacity: 0.4; stroke: #000000; stroke-opacity: 0.4"/>
    </g>
   </g>
   <g id="matplotlib.axis_1">
    <g id="xtick_1">
     <g id="line2d_1">
      <defs>
       <path id="mba74388762" d="M 0 0 
L 0 3.5 
" style="stroke: #000000; stroke-width: 0.8"/>
      </defs>
      <g>
       <use xlink:href="#mba74388762" x="119.274163" y="384.626418" style="stroke: #000000; stroke-width: 0.8"/>
      </g>
     </g>
     <g id="text_1">
      <!-- Borda rule -->
      <g transform="translate(93.748979 399.236765) scale(0.11 -0.11)">
       <defs>
        <path id="CMR17-42" d="M 333 4352 
L 333 4186 
C 774 4186 845 4186 845 3900 
L 845 452 
C 845 166 774 166 333 166 
L 333 0 
L 2534 0 
C 3354 0 3885 583 3885 1164 
C 3885 1741 3360 2233 2675 2233 
C 3290 2356 3718 2771 3718 3264 
C 3718 3802 3194 4352 2368 4352 
L 333 4352 
z
M 1248 2304 
L 1248 3937 
C 1248 4155 1261 4186 1517 4186 
L 2336 4186 
C 2970 4186 3251 3674 3251 3277 
C 3251 2791 2861 2304 2170 2304 
L 1248 2304 
z
M 1517 166 
C 1261 166 1248 197 1248 413 
L 1248 2202 
L 2432 2202 
C 3091 2202 3411 1625 3411 1162 
C 3411 699 3046 166 2349 166 
L 1517 166 
z
" transform="scale(0.015625)"/>
        <path id="CMR17-6f" d="M 2758 1356 
C 2758 2176 2163 2816 1466 2816 
C 768 2816 173 2176 173 1356 
C 173 551 768 -64 1466 -64 
C 2163 -64 2758 551 2758 1356 
z
M 1466 51 
C 1165 51 909 230 762 480 
C 602 767 582 1126 582 1408 
C 582 1677 595 2010 762 2298 
C 890 2509 1139 2714 1466 2714 
C 1754 2714 1997 2554 2150 2330 
C 2349 2029 2349 1607 2349 1408 
C 2349 1158 2336 775 2163 467 
C 1984 173 1709 51 1466 51 
z
" transform="scale(0.015625)"/>
        <path id="CMR17-72" d="M 960 1497 
C 960 2112 1222 2688 1702 2688 
C 1747 2688 1792 2682 1837 2662 
C 1837 2662 1696 2617 1696 2452 
C 1696 2298 1818 2234 1914 2234 
C 1990 2234 2131 2279 2131 2458 
C 2131 2663 1926 2790 1709 2790 
C 1222 2790 1011 2317 947 2093 
L 941 2093 
L 941 2790 
L 198 2720 
L 198 2554 
C 576 2554 634 2515 634 2208 
L 634 428 
C 634 184 608 153 198 153 
L 198 -13 
C 352 0 646 0 813 0 
C 998 0 1325 0 1498 -13 
L 1498 153 
C 1037 153 960 153 960 440 
L 960 1497 
z
" transform="scale(0.015625)"/>
        <path id="CMR17-64" d="M 1869 4326 
L 1869 4160 
C 2246 4160 2304 4122 2304 3820 
L 2304 2345 
C 2278 2377 2016 2790 1498 2790 
C 845 2790 211 2208 211 1364 
C 211 525 806 -64 1434 -64 
C 1978 -64 2259 337 2291 380 
L 2291 -63 
L 3066 -63 
L 3066 128 
C 2688 128 2630 166 2630 473 
L 2630 4396 
L 1869 4326 
z
M 2291 755 
C 2291 563 2176 390 2029 262 
C 1811 70 1594 38 1472 38 
C 1286 38 621 134 621 1356 
C 621 2612 1363 2688 1530 2688 
C 1824 2688 2061 2522 2208 2291 
C 2291 2157 2291 2138 2291 2023 
L 2291 755 
z
" transform="scale(0.015625)"/>
        <path id="CMR17-61" d="M 2304 1653 
C 2304 2072 2304 2294 2035 2543 
C 1798 2752 1523 2816 1306 2816 
C 800 2816 435 2407 435 1971 
C 435 1728 627 1728 666 1728 
C 749 1728 896 1778 896 1954 
C 896 2112 774 2181 666 2181 
C 640 2181 608 2174 589 2168 
C 723 2592 1069 2714 1293 2714 
C 1613 2714 1965 2429 1965 1885 
L 1965 1600 
C 1587 1600 1133 1549 774 1357 
C 371 1133 256 813 256 570 
C 256 77 832 -64 1171 -64 
C 1523 -64 1850 139 1990 511 
C 2003 233 2182 -18 2464 -18 
C 2598 -18 2938 70 2938 567 
L 2938 920 
L 2822 920 
L 2822 562 
C 2822 178 2650 128 2566 128 
C 2304 128 2304 458 2304 738 
L 2304 1653 
z
M 1965 870 
C 1965 317 1568 38 1216 38 
C 896 38 646 275 646 570 
C 646 761 730 1100 1101 1305 
C 1408 1478 1760 1504 1965 1504 
L 1965 870 
z
" transform="scale(0.015625)"/>
        <path id="CMR17-75" d="M 1882 2693 
L 1882 2528 
C 2259 2528 2317 2489 2317 2186 
L 2317 1032 
C 2317 500 2029 38 1555 38 
C 1030 38 986 348 986 678 
L 986 2763 
L 211 2693 
L 211 2528 
C 467 2528 640 2528 646 2274 
L 646 1058 
C 646 633 646 361 813 183 
C 896 101 1056 -64 1517 -64 
C 2061 -64 2272 377 2323 506 
L 2330 506 
L 2330 -63 
L 3091 -63 
L 3091 128 
C 2714 128 2656 166 2656 473 
L 2656 2763 
L 1882 2693 
z
" transform="scale(0.015625)"/>
        <path id="CMR17-6c" d="M 979 4396 
L 218 4326 
L 218 4160 
C 595 4160 653 4122 653 3817 
L 653 426 
C 653 184 627 153 218 153 
L 218 -13 
C 371 0 653 0 813 0 
C 979 0 1261 0 1414 -13 
L 1414 153 
C 1005 153 979 178 979 426 
L 979 4396 
z
" transform="scale(0.015625)"/>
        <path id="CMR17-65" d="M 2438 1472 
C 2464 1498 2464 1511 2464 1576 
C 2464 2238 2118 2816 1389 2816 
C 710 2816 173 2169 173 1383 
C 173 551 781 -64 1459 -64 
C 2176 -64 2458 607 2458 740 
C 2458 784 2419 784 2406 784 
C 2362 784 2355 771 2330 696 
C 2189 265 1837 51 1504 51 
C 1229 51 954 203 781 480 
C 582 803 582 1176 582 1472 
L 2438 1472 
z
M 589 1568 
C 634 2505 1126 2714 1382 2714 
C 1818 2714 2112 2297 2118 1568 
L 589 1568 
z
" transform="scale(0.015625)"/>
       </defs>
       <use xlink:href="#CMR17-42" transform="scale(0.996264)"/>
       <use xlink:href="#CMR17-6f" transform="translate(65.188754 0) scale(0.996264)"/>
       <use xlink:href="#CMR17-72" transform="translate(110.879232 0) scale(0.996264)"/>
       <use xlink:href="#CMR17-64" transform="translate(146.159999 0) scale(0.996264)"/>
       <use xlink:href="#CMR17-61" transform="translate(197.055369 0) scale(0.996264)"/>
       <use xlink:href="#CMR17-72" transform="translate(272.821813 0) scale(0.996264)"/>
       <use xlink:href="#CMR17-75" transform="translate(308.10258 0) scale(0.996264)"/>
       <use xlink:href="#CMR17-6c" transform="translate(358.99795 0) scale(0.996264)"/>
       <use xlink:href="#CMR17-65" transform="translate(383.869009 0) scale(0.996264)"/>
      </g>
     </g>
    </g>
    <g id="xtick_2">
     <g id="line2d_2">
      <g>
       <use xlink:href="#mba74388762" x="250.135802" y="384.626418" style="stroke: #000000; stroke-width: 0.8"/>
      </g>
     </g>
     <g id="text_2">
      <!-- Copeland's Rule -->
      <g transform="translate(210.911973 399.236765) scale(0.11 -0.11)">
       <defs>
        <path id="CMR17-43" d="M 3974 4289 
C 3974 4403 3968 4410 3930 4410 
C 3904 4410 3898 4403 3853 4327 
L 3571 3792 
C 3258 4187 2874 4416 2381 4416 
C 1286 4416 294 3456 294 2148 
C 294 826 1286 -128 2387 -128 
C 3366 -128 3974 730 3974 1461 
C 3974 1524 3974 1550 3917 1550 
C 3866 1550 3866 1531 3859 1474 
C 3808 585 3168 38 2477 38 
C 1824 38 781 495 781 2147 
C 781 3805 1843 4250 2464 4250 
C 3187 4250 3712 3628 3834 2745 
C 3846 2668 3846 2655 3904 2655 
C 3974 2655 3974 2668 3974 2783 
L 3974 4289 
z
" transform="scale(0.015625)"/>
        <path id="CMR17-70" d="M 1408 -1063 
C 998 -1063 973 -1037 973 -789 
L 973 402 
C 1158 134 1427 -38 1766 -38 
C 2406 -38 3053 523 3053 1388 
C 3053 2191 2496 2802 1837 2802 
C 1453 2802 1139 2592 960 2338 
L 960 2802 
L 198 2732 
L 198 2567 
C 576 2567 634 2528 634 2223 
L 634 -789 
C 634 -1031 608 -1063 198 -1063 
L 198 -1228 
C 352 -1216 634 -1216 800 -1216 
C 966 -1216 1254 -1216 1408 -1228 
L 1408 -1063 
z
M 973 2012 
C 973 2102 973 2235 1222 2471 
C 1254 2497 1472 2688 1792 2688 
C 2259 2688 2643 2108 2643 1382 
C 2643 656 2234 64 1728 64 
C 1498 64 1248 172 1056 472 
C 973 612 973 650 973 752 
L 973 2012 
z
" transform="scale(0.015625)"/>
        <path id="CMR17-6e" d="M 2656 1933 
C 2656 2259 2592 2790 1837 2790 
C 1331 2790 1069 2400 973 2144 
L 966 2144 
L 966 2790 
L 211 2720 
L 211 2554 
C 589 2554 646 2515 646 2208 
L 646 428 
C 646 184 621 153 211 153 
L 211 -13 
C 365 0 646 0 813 0 
C 979 0 1267 0 1421 -13 
L 1421 153 
C 1011 153 986 178 986 428 
L 986 1658 
C 986 2247 1344 2688 1792 2688 
C 2266 2688 2317 2266 2317 1958 
L 2317 428 
C 2317 184 2291 153 1882 153 
L 1882 -13 
C 2035 0 2317 0 2483 0 
C 2650 0 2938 0 3091 -13 
L 3091 153 
C 2682 153 2656 178 2656 428 
L 2656 1933 
z
" transform="scale(0.015625)"/>
        <path id="CMR17-27" d="M 1024 4025 
C 1037 3955 1043 3929 1043 3820 
C 1043 3415 883 3042 634 2778 
C 608 2752 595 2733 595 2707 
C 595 2681 621 2656 646 2656 
C 691 2656 1146 3105 1146 3811 
C 1146 3952 1133 4426 800 4426 
C 659 4426 538 4331 538 4165 
C 538 3999 659 3904 800 3904 
C 858 3904 966 3923 1024 4025 
z
" transform="scale(0.015625)"/>
        <path id="CMR17-73" d="M 1978 2697 
C 1978 2813 1971 2819 1933 2819 
C 1907 2819 1901 2813 1824 2717 
C 1805 2691 1747 2626 1728 2601 
C 1523 2819 1235 2819 1126 2819 
C 416 2819 160 2447 160 2076 
C 160 1498 813 1365 998 1325 
C 1402 1243 1542 1217 1677 1101 
C 1760 1025 1901 884 1901 654 
C 1901 384 1747 38 1158 38 
C 602 38 403 460 288 1021 
C 269 1110 269 1117 218 1117 
C 166 1117 160 1110 160 983 
L 160 63 
C 160 -51 166 -58 205 -58 
C 237 -58 243 -51 275 0 
C 314 57 410 211 448 276 
C 576 103 800 -64 1158 -64 
C 1792 -64 2131 283 2131 784 
C 2131 1112 1958 1285 1875 1362 
C 1683 1561 1459 1606 1190 1657 
C 838 1735 390 1825 390 2217 
C 390 2383 480 2737 1126 2737 
C 1811 2737 1850 2094 1862 1888 
C 1869 1856 1901 1849 1920 1849 
C 1978 1849 1978 1869 1978 1978 
L 1978 2697 
z
" transform="scale(0.015625)"/>
        <path id="CMR17-52" d="M 2509 2146 
C 3117 2268 3629 2676 3629 3186 
C 3629 3785 2950 4326 2054 4326 
L 333 4326 
L 333 4160 
C 774 4160 845 4160 845 3873 
L 845 415 
C 845 128 774 128 333 128 
L 333 -26 
C 518 -26 851 -26 1050 -26 
C 1248 -26 1581 -26 1766 -26 
L 1766 128 
C 1325 128 1254 128 1254 417 
L 1254 2112 
L 2003 2112 
C 2368 2112 2573 1964 2662 1881 
C 2918 1632 2918 1459 2918 1024 
C 2918 595 2918 377 3110 160 
C 3354 -102 3680 -128 3821 -128 
C 4294 -128 4365 396 4365 503 
C 4365 540 4365 585 4307 585 
C 4256 585 4250 547 4250 522 
C 4218 112 4032 -26 3834 -26 
C 3482 -26 3443 375 3405 764 
C 3386 898 3373 993 3360 1133 
C 3322 1452 3270 1917 2509 2146 
z
M 1984 2214 
L 1254 2214 
L 1254 3913 
C 1254 4129 1267 4160 1523 4160 
L 1990 4160 
C 2522 4160 3142 3977 3142 3190 
C 3142 2372 2464 2214 1984 2214 
z
" transform="scale(0.015625)"/>
       </defs>
       <use xlink:href="#CMR17-43" transform="scale(0.996264)"/>
       <use xlink:href="#CMR17-6f" transform="translate(66.509881 0) scale(0.996264)"/>
       <use xlink:href="#CMR17-70" transform="translate(112.200358 0) scale(0.996264)"/>
       <use xlink:href="#CMR17-65" transform="translate(165.698166 0) scale(0.996264)"/>
       <use xlink:href="#CMR17-6c" transform="translate(206.183827 0) scale(0.996264)"/>
       <use xlink:href="#CMR17-61" transform="translate(231.054885 0) scale(0.996264)"/>
       <use xlink:href="#CMR17-6e" transform="translate(276.745362 0) scale(0.996264)"/>
       <use xlink:href="#CMR17-64" transform="translate(327.640732 0) scale(0.996264)"/>
       <use xlink:href="#CMR17-27" transform="translate(378.536102 0) scale(0.996264)"/>
       <use xlink:href="#CMR17-73" transform="translate(403.40716 0) scale(0.996264)"/>
       <use xlink:href="#CMR17-52" transform="translate(469.284464 0) scale(0.996264)"/>
       <use xlink:href="#CMR17-75" transform="translate(537.075566 0) scale(0.996264)"/>
       <use xlink:href="#CMR17-6c" transform="translate(587.970936 0) scale(0.996264)"/>
       <use xlink:href="#CMR17-65" transform="translate(612.841994 0) scale(0.996264)"/>
      </g>
     </g>
    </g>
    <g id="xtick_3">
     <g id="line2d_3">
      <g>
       <use xlink:href="#mba74388762" x="380.997442" y="384.626418" style="stroke: #000000; stroke-width: 0.8"/>
      </g>
     </g>
     <g id="text_3">
      <!-- Plurality rule -->
      <g transform="translate(348.927359 399.236765) scale(0.11 -0.11)">
       <defs>
        <path id="CMR17-50" d="M 1267 2042 
L 2291 2042 
C 3117 2042 3718 2578 3718 3184 
C 3718 3791 3130 4352 2291 4352 
L 333 4352 
L 333 4186 
C 774 4186 845 4186 845 3899 
L 845 446 
C 845 160 774 160 333 160 
L 333 0 
C 518 0 858 0 1056 0 
C 1254 0 1594 0 1779 0 
L 1779 160 
C 1338 160 1267 160 1267 446 
L 1267 2042 
z
M 1254 2176 
L 1254 3938 
C 1254 4155 1267 4186 1523 4186 
L 2170 4186 
C 2995 4186 3232 3714 3232 3184 
C 3232 2604 2950 2176 2170 2176 
L 1254 2176 
z
" transform="scale(0.015625)"/>
        <path id="CMR17-69" d="M 992 3909 
C 992 4049 877 4170 730 4170 
C 589 4170 467 4056 467 3909 
C 467 3769 582 3648 730 3648 
C 870 3648 992 3763 992 3909 
z
M 243 2706 
L 243 2541 
C 602 2541 653 2502 653 2197 
L 653 427 
C 653 184 627 153 218 153 
L 218 -13 
C 371 0 646 0 806 0 
C 960 0 1222 0 1370 -13 
L 1370 153 
C 992 153 979 191 979 420 
L 979 2776 
L 243 2706 
z
" transform="scale(0.015625)"/>
        <path id="CMR17-74" d="M 966 2560 
L 1862 2560 
L 1862 2725 
L 966 2725 
L 966 3904 
L 851 3904 
C 838 3245 614 2668 70 2668 
L 70 2560 
L 627 2560 
L 627 771 
C 627 650 627 -64 1370 -64 
C 1747 -64 1965 306 1965 777 
L 1965 1140 
L 1850 1140 
L 1850 783 
C 1850 344 1677 51 1408 51 
C 1222 51 966 178 966 758 
L 966 2560 
z
" transform="scale(0.015625)"/>
        <path id="CMR17-79" d="M 2496 2197 
C 2656 2586 2944 2586 3034 2586 
L 3034 2752 
C 2912 2752 2752 2752 2630 2752 
C 2496 2752 2285 2752 2157 2758 
L 2157 2592 
C 2400 2573 2406 2394 2406 2343 
C 2406 2280 2394 2248 2362 2171 
L 1664 449 
L 902 2306 
C 870 2382 870 2426 870 2433 
C 870 2573 1018 2586 1171 2586 
L 1171 2758 
C 1018 2752 742 2752 582 2752 
C 410 2752 205 2752 64 2758 
L 64 2586 
C 410 2586 448 2554 531 2350 
L 1485 15 
C 1197 -738 1030 -1178 627 -1178 
C 557 -1178 397 -1159 282 -1044 
C 429 -1031 493 -942 493 -833 
C 493 -725 416 -629 288 -629 
C 147 -629 77 -725 77 -840 
C 77 -1095 339 -1280 627 -1280 
C 998 -1280 1229 -922 1357 -604 
L 2496 2197 
z
" transform="scale(0.015625)"/>
       </defs>
       <use xlink:href="#CMR17-50" transform="scale(0.996264)"/>
       <use xlink:href="#CMR17-6c" transform="translate(62.586301 0) scale(0.996264)"/>
       <use xlink:href="#CMR17-75" transform="translate(87.457359 0) scale(0.996264)"/>
       <use xlink:href="#CMR17-72" transform="translate(138.352729 0) scale(0.996264)"/>
       <use xlink:href="#CMR17-61" transform="translate(173.633497 0) scale(0.996264)"/>
       <use xlink:href="#CMR17-6c" transform="translate(219.323974 0) scale(0.996264)"/>
       <use xlink:href="#CMR17-69" transform="translate(244.195032 0) scale(0.996264)"/>
       <use xlink:href="#CMR17-74" transform="translate(269.066091 0) scale(0.996264)"/>
       <use xlink:href="#CMR17-79" transform="translate(301.744405 0) scale(0.996264)"/>
       <use xlink:href="#CMR17-72" transform="translate(380.113287 0) scale(0.996264)"/>
       <use xlink:href="#CMR17-75" transform="translate(415.394055 0) scale(0.996264)"/>
       <use xlink:href="#CMR17-6c" transform="translate(466.289424 0) scale(0.996264)"/>
       <use xlink:href="#CMR17-65" transform="translate(491.160483 0) scale(0.996264)"/>
      </g>
     </g>
    </g>
    <g id="xtick_4">
     <g id="line2d_4">
      <g>
       <use xlink:href="#mba74388762" x="511.859082" y="384.626418" style="stroke: #000000; stroke-width: 0.8"/>
      </g>
     </g>
     <g id="text_4">
      <!-- Black's Rule -->
      <g transform="translate(481.996016 399.236765) scale(0.11 -0.11)">
       <defs>
        <path id="CMR17-63" d="M 2234 2240 
C 2112 2240 1933 2240 1933 2017 
C 1933 1838 2080 1787 2163 1787 
C 2208 1787 2394 1807 2394 2024 
C 2394 2467 1958 2803 1466 2803 
C 787 2803 211 2178 211 1363 
C 211 516 813 -64 1466 -64 
C 2259 -64 2458 677 2458 748 
C 2458 774 2451 793 2406 793 
C 2362 793 2355 787 2330 703 
C 2163 180 1798 51 1523 51 
C 1114 51 621 427 621 1369 
C 621 2338 1094 2688 1472 2688 
C 1722 2688 2093 2573 2234 2240 
z
" transform="scale(0.015625)"/>
        <path id="CMR17-6b" d="M 1670 1673 
C 1664 1686 1632 1724 1632 1743 
C 1632 1756 2086 2171 2144 2222 
C 2509 2528 2739 2560 2906 2560 
L 2906 2733 
C 2867 2733 2854 2733 2848 2720 
L 2534 2720 
C 2355 2720 2080 2720 1907 2733 
L 1907 2566 
C 1997 2559 2061 2508 2061 2419 
C 2061 2291 1933 2170 1926 2170 
L 960 1289 
L 960 4396 
L 198 4326 
L 198 4160 
C 576 4160 634 4122 634 3817 
L 634 426 
C 634 184 608 153 198 153 
L 198 -13 
C 352 0 634 0 794 0 
C 954 0 1235 0 1389 -13 
L 1389 153 
C 979 153 954 178 954 428 
L 954 1130 
L 1395 1532 
L 2042 574 
C 2118 459 2182 369 2182 286 
C 2182 172 2067 153 1990 153 
L 1990 -13 
C 2144 0 2419 0 2579 0 
C 2694 0 2931 0 3040 0 
L 3040 153 
C 2739 153 2669 210 2477 491 
L 1670 1673 
z
" transform="scale(0.015625)"/>
       </defs>
       <use xlink:href="#CMR17-42" transform="scale(0.996264)"/>
       <use xlink:href="#CMR17-6c" transform="translate(65.188754 0) scale(0.996264)"/>
       <use xlink:href="#CMR17-61" transform="translate(90.059813 0) scale(0.996264)"/>
       <use xlink:href="#CMR17-63" transform="translate(135.75029 0) scale(0.996264)"/>
       <use xlink:href="#CMR17-6b" transform="translate(173.633497 0) scale(0.996264)"/>
       <use xlink:href="#CMR17-27" transform="translate(221.926412 0) scale(0.996264)"/>
       <use xlink:href="#CMR17-73" transform="translate(246.797471 0) scale(0.996264)"/>
       <use xlink:href="#CMR17-52" transform="translate(312.674775 0) scale(0.996264)"/>
       <use xlink:href="#CMR17-75" transform="translate(380.465877 0) scale(0.996264)"/>
       <use xlink:href="#CMR17-6c" transform="translate(431.361247 0) scale(0.996264)"/>
       <use xlink:href="#CMR17-65" transform="translate(456.232305 0) scale(0.996264)"/>
      </g>
     </g>
    </g>
    <g id="xtick_5">
     <g id="line2d_5">
      <g>
       <use xlink:href="#mba74388762" x="642.720721" y="384.626418" style="stroke: #000000; stroke-width: 0.8"/>
      </g>
     </g>
     <g id="text_5">
      <!-- Instand-runoff voting -->
      <g transform="translate(591.837802 399.236765) scale(0.11 -0.11)">
       <defs>
        <path id="CMR17-49" d="M 1261 3905 
C 1261 4192 1338 4192 1798 4192 
L 1798 4352 
C 1594 4352 1267 4352 1050 4352 
C 832 4352 506 4352 301 4352 
L 301 4192 
C 762 4192 838 4192 838 3905 
L 838 447 
C 838 160 762 160 301 160 
L 301 0 
C 506 0 832 0 1050 0 
C 1267 0 1594 0 1798 0 
L 1798 160 
C 1338 160 1261 160 1261 447 
L 1261 3905 
z
" transform="scale(0.015625)"/>
        <path id="CMR17-2d" d="M 1632 1216 
L 1632 1496 
L 26 1496 
L 26 1216 
L 1632 1216 
z
" transform="scale(0.015625)"/>
        <path id="CMR17-b" d="M 2554 2560 
L 3283 2560 
L 3283 2725 
L 2541 2725 
L 2541 3494 
C 2541 4022 2810 4352 3085 4352 
C 3168 4352 3264 4327 3328 4282 
C 3277 4269 3142 4225 3142 4067 
C 3142 3901 3270 3850 3360 3850 
C 3450 3850 3578 3901 3578 4067 
C 3578 4308 3347 4454 3091 4454 
C 2842 4454 2637 4333 2477 4181 
C 2330 4390 2086 4454 1837 4454 
C 1338 4454 634 4168 634 3469 
L 634 2725 
L 122 2725 
L 122 2560 
L 634 2560 
L 634 427 
C 634 184 608 153 198 153 
L 198 -13 
C 352 0 634 0 794 0 
C 960 0 1242 0 1395 -13 
L 1395 153 
C 986 153 960 178 960 427 
L 960 2560 
L 2227 2560 
L 2227 427 
C 2227 184 2202 153 1792 153 
L 1792 -13 
C 1946 0 2240 0 2406 0 
C 2592 0 2918 0 3091 -13 
L 3091 153 
C 2630 153 2554 153 2554 439 
L 2554 2560 
z
M 947 2725 
L 947 3469 
C 947 4047 1395 4352 1824 4352 
C 1920 4352 2170 4332 2323 4187 
C 2208 4187 2099 4136 2099 3977 
C 2099 3812 2246 3767 2259 3767 
C 2227 3652 2227 3526 2227 3481 
L 2227 2725 
L 947 2725 
z
" transform="scale(0.015625)"/>
        <path id="CMR17-76" d="M 2502 2163 
C 2560 2304 2662 2560 3034 2560 
L 3034 2726 
C 2912 2726 2752 2726 2630 2726 
C 2496 2726 2285 2726 2157 2732 
L 2157 2566 
C 2317 2553 2406 2477 2406 2311 
C 2406 2253 2406 2240 2368 2151 
L 1664 377 
L 902 2286 
C 864 2369 864 2381 864 2407 
C 864 2560 1075 2560 1171 2560 
L 1171 2732 
C 1018 2726 736 2726 576 2726 
C 403 2726 205 2726 64 2732 
L 64 2560 
C 307 2560 442 2560 518 2362 
L 1446 44 
C 1485 -51 1491 -64 1549 -64 
C 1606 -64 1613 -51 1651 44 
L 2502 2163 
z
" transform="scale(0.015625)"/>
        <path id="CMR17-67" d="M 710 1164 
C 832 1068 1043 960 1299 960 
C 1805 960 2240 1357 2240 1888 
C 2240 2054 2189 2310 1997 2509 
C 2176 2692 2438 2752 2586 2752 
C 2611 2752 2650 2752 2682 2734 
C 2656 2728 2598 2703 2598 2605 
C 2598 2527 2656 2471 2739 2471 
C 2835 2471 2886 2533 2886 2614 
C 2886 2731 2790 2854 2586 2854 
C 2330 2854 2106 2738 1926 2580 
C 1734 2753 1504 2816 1299 2816 
C 794 2816 358 2419 358 1888 
C 358 1522 570 1292 634 1228 
C 442 1004 442 743 442 711 
C 442 545 506 302 723 168 
C 390 85 128 -169 128 -486 
C 128 -943 736 -1280 1466 -1280 
C 2170 -1280 2803 -956 2803 -479 
C 2803 384 1856 384 1363 384 
C 1216 384 954 384 922 391 
C 723 423 589 602 589 826 
C 589 883 589 1024 710 1164 
z
M 1299 1068 
C 736 1068 736 1760 736 1889 
C 736 2016 736 2708 1299 2708 
C 1862 2708 1862 2016 1862 1889 
C 1862 1760 1862 1068 1299 1068 
z
M 1466 -1171 
C 826 -1171 384 -835 384 -486 
C 384 -289 493 -105 634 -4 
C 794 104 858 104 1293 104 
C 1818 104 2547 104 2547 -486 
C 2547 -835 2106 -1171 1466 -1171 
z
" transform="scale(0.015625)"/>
       </defs>
       <use xlink:href="#CMR17-49" transform="scale(0.996264)"/>
       <use xlink:href="#CMR17-6e" transform="translate(32.638409 0) scale(0.996264)"/>
       <use xlink:href="#CMR17-73" transform="translate(83.533779 0) scale(0.996264)"/>
       <use xlink:href="#CMR17-74" transform="translate(119.335117 0) scale(0.996264)"/>
       <use xlink:href="#CMR17-61" transform="translate(154.615884 0) scale(0.996264)"/>
       <use xlink:href="#CMR17-6e" transform="translate(200.306362 0) scale(0.996264)"/>
       <use xlink:href="#CMR17-64" transform="translate(251.201731 0) scale(0.996264)"/>
       <use xlink:href="#CMR17-2d" transform="translate(302.097101 0) scale(0.996264)"/>
       <use xlink:href="#CMR17-72" transform="translate(332.173067 0) scale(0.996264)"/>
       <use xlink:href="#CMR17-75" transform="translate(367.453835 0) scale(0.996264)"/>
       <use xlink:href="#CMR17-6e" transform="translate(418.349205 0) scale(0.996264)"/>
       <use xlink:href="#CMR17-6f" transform="translate(469.244575 0) scale(0.996264)"/>
       <use xlink:href="#CMR17-b" transform="translate(514.935052 0) scale(0.996264)"/>
       <use xlink:href="#CMR17-76" transform="translate(597.355696 0) scale(0.996264)"/>
       <use xlink:href="#CMR17-6f" transform="translate(643.046157 0) scale(0.996264)"/>
       <use xlink:href="#CMR17-74" transform="translate(688.736635 0) scale(0.996264)"/>
       <use xlink:href="#CMR17-69" transform="translate(724.017402 0) scale(0.996264)"/>
       <use xlink:href="#CMR17-6e" transform="translate(748.888461 0) scale(0.996264)"/>
       <use xlink:href="#CMR17-67" transform="translate(799.783831 0) scale(0.996264)"/>
      </g>
     </g>
    </g>
    <g id="text_6">
     <!-- Number of voters -->
     <g transform="translate(332.704412 414.361688) scale(0.13 -0.13)">
      <defs>
       <path id="CMR17-4e" d="M 1312 4250 
C 1267 4320 1261 4320 1139 4320 
L 326 4320 
L 326 4160 
L 448 4160 
C 704 4160 819 4129 838 4122 
L 838 610 
C 838 451 838 153 326 153 
L 326 -13 
C 474 0 742 0 902 0 
C 1062 0 1331 0 1478 -13 
L 1478 153 
C 966 153 966 451 966 610 
L 966 4033 
C 1011 3995 1011 3982 1056 3919 
L 3430 76 
C 3475 0 3494 0 3526 0 
C 3590 0 3590 19 3590 139 
L 3590 3705 
C 3590 3863 3590 4160 4102 4160 
L 4102 4326 
C 3955 4320 3686 4320 3526 4320 
C 3366 4320 3098 4320 2950 4326 
L 2950 4160 
C 3462 4160 3462 3862 3462 3703 
L 3462 763 
L 1312 4250 
z
" transform="scale(0.015625)"/>
       <path id="CMR17-6d" d="M 4326 1933 
C 4326 2252 4269 2790 3507 2790 
C 3072 2790 2771 2496 2656 2151 
L 2650 2151 
C 2573 2676 2195 2790 1837 2790 
C 1331 2790 1069 2400 973 2144 
L 966 2144 
L 966 2790 
L 211 2720 
L 211 2554 
C 589 2554 646 2515 646 2208 
L 646 428 
C 646 184 621 153 211 153 
L 211 -13 
C 365 0 646 0 813 0 
C 979 0 1267 0 1421 -13 
L 1421 153 
C 1011 153 986 178 986 428 
L 986 1658 
C 986 2247 1344 2688 1792 2688 
C 2266 2688 2317 2266 2317 1958 
L 2317 428 
C 2317 184 2291 153 1882 153 
L 1882 -13 
C 2035 0 2317 0 2483 0 
C 2650 0 2938 0 3091 -13 
L 3091 153 
C 2682 153 2656 178 2656 428 
L 2656 1658 
C 2656 2247 3014 2688 3462 2688 
C 3936 2688 3987 2266 3987 1958 
L 3987 428 
C 3987 184 3962 153 3552 153 
L 3552 -13 
C 3706 0 3987 0 4154 0 
C 4320 0 4608 0 4762 -13 
L 4762 153 
C 4352 153 4326 178 4326 428 
L 4326 1933 
z
" transform="scale(0.015625)"/>
       <path id="CMR17-62" d="M 960 4396 
L 198 4326 
L 198 4160 
C 576 4160 634 4122 634 3817 
L 634 -13 
L 749 -13 
L 934 441 
C 1120 141 1395 -64 1766 -64 
C 2406 -64 3053 500 3053 1370 
C 3053 2188 2477 2790 1830 2790 
C 1434 2790 1152 2579 960 2330 
L 960 4396 
z
M 973 2004 
C 973 2118 973 2138 1062 2272 
C 1312 2657 1670 2688 1792 2688 
C 1984 2688 2643 2585 2643 1376 
C 2643 108 1888 38 1734 38 
C 1536 38 1248 114 1043 486 
C 973 608 973 621 973 735 
L 973 2004 
z
" transform="scale(0.015625)"/>
       <path id="CMR17-66" d="M 979 2560 
L 1709 2560 
L 1709 2725 
L 966 2725 
L 966 3494 
C 966 4022 1235 4352 1510 4352 
C 1594 4352 1690 4327 1754 4282 
C 1702 4269 1568 4225 1568 4067 
C 1568 3901 1696 3850 1786 3850 
C 1875 3850 2003 3901 2003 4067 
C 2003 4308 1773 4454 1517 4454 
C 1152 4454 653 4156 653 3481 
L 653 2725 
L 141 2725 
L 141 2560 
L 653 2560 
L 653 427 
C 653 184 627 153 218 153 
L 218 -13 
C 371 0 666 0 832 0 
C 1018 0 1344 0 1517 -13 
L 1517 153 
C 1056 153 979 153 979 439 
L 979 2560 
z
" transform="scale(0.015625)"/>
      </defs>
      <use xlink:href="#CMR17-4e" transform="scale(0.996264)"/>
      <use xlink:href="#CMR17-75" transform="translate(69.07243 0) scale(0.996264)"/>
      <use xlink:href="#CMR17-6d" transform="translate(119.9678 0) scale(0.996264)"/>
      <use xlink:href="#CMR17-62" transform="translate(194.284936 0) scale(0.996264)"/>
      <use xlink:href="#CMR17-65" transform="translate(247.782744 0) scale(0.996264)"/>
      <use xlink:href="#CMR17-72" transform="translate(288.268404 0) scale(0.996264)"/>
      <use xlink:href="#CMR17-6f" transform="translate(353.625139 0) scale(0.996264)"/>
      <use xlink:href="#CMR17-66" transform="translate(399.315616 0) scale(0.996264)"/>
      <use xlink:href="#CMR17-76" transform="translate(456.865095 0) scale(0.996264)"/>
      <use xlink:href="#CMR17-6f" transform="translate(502.555556 0) scale(0.996264)"/>
      <use xlink:href="#CMR17-74" transform="translate(548.246034 0) scale(0.996264)"/>
      <use xlink:href="#CMR17-65" transform="translate(583.526801 0) scale(0.996264)"/>
      <use xlink:href="#CMR17-72" transform="translate(624.012462 0) scale(0.996264)"/>
      <use xlink:href="#CMR17-73" transform="translate(659.29323 0) scale(0.996264)"/>
     </g>
    </g>
   </g>
   <g id="matplotlib.axis_2">
    <g id="ytick_1">
     <g id="line2d_6">
      <path d="M 57.114884 368.512219 
L 704.88 368.512219 
" clip-path="url(#pc227148d69)" style="fill: none; stroke: #b0b0b0; stroke-opacity: 0.3; stroke-linecap: square"/>
     </g>
     <g id="line2d_7">
      <defs>
       <path id="m5e21e34242" d="M 0 0 
L -3.5 0 
" style="stroke: #000000; stroke-width: 0.8"/>
      </defs>
      <g>
       <use xlink:href="#m5e21e34242" x="57.114884" y="368.512219" style="stroke: #000000; stroke-width: 0.8"/>
      </g>
     </g>
     <g id="text_7">
      <!-- $\mathdefault{1.00}$ -->
      <g transform="translate(30.63234 372.317392) scale(0.11 -0.11)">
       <defs>
        <path id="CMR17-31" d="M 1702 4058 
C 1702 4192 1696 4192 1606 4192 
C 1357 3916 979 3827 621 3827 
C 602 3827 570 3827 563 3808 
C 557 3795 557 3782 557 3648 
C 755 3648 1088 3686 1344 3839 
L 1344 461 
C 1344 236 1331 160 781 160 
L 589 160 
L 589 0 
C 896 0 1216 0 1523 0 
C 1830 0 2150 0 2458 0 
L 2458 160 
L 2266 160 
C 1715 160 1702 230 1702 458 
L 1702 4058 
z
" transform="scale(0.015625)"/>
        <path id="CMMI12-3a" d="M 1178 307 
C 1178 492 1024 619 870 619 
C 685 619 557 466 557 313 
C 557 128 710 0 864 0 
C 1050 0 1178 153 1178 307 
z
" transform="scale(0.015625)"/>
        <path id="CMR17-30" d="M 2688 2025 
C 2688 2416 2682 3080 2413 3591 
C 2176 4039 1798 4198 1466 4198 
C 1158 4198 768 4058 525 3597 
C 269 3118 243 2524 243 2025 
C 243 1661 250 1106 448 619 
C 723 -39 1216 -128 1466 -128 
C 1760 -128 2208 -7 2470 600 
C 2662 1042 2688 1559 2688 2025 
z
M 1466 -26 
C 1056 -26 813 325 723 812 
C 653 1188 653 1738 653 2096 
C 653 2588 653 2997 736 3387 
C 858 3929 1216 4096 1466 4096 
C 1728 4096 2067 3923 2189 3400 
C 2272 3036 2278 2607 2278 2096 
C 2278 1680 2278 1169 2202 792 
C 2067 95 1690 -26 1466 -26 
z
" transform="scale(0.015625)"/>
       </defs>
       <use xlink:href="#CMR17-31" transform="scale(0.996264)"/>
       <use xlink:href="#CMMI12-3a" transform="translate(45.690477 0) scale(0.996264)"/>
       <use xlink:href="#CMR17-30" transform="translate(72.787654 0) scale(0.996264)"/>
       <use xlink:href="#CMR17-30" transform="translate(118.478131 0) scale(0.996264)"/>
      </g>
     </g>
    </g>
    <g id="ytick_2">
     <g id="line2d_8">
      <path d="M 57.114884 323.191033 
L 704.88 323.191033 
" clip-path="url(#pc227148d69)" style="fill: none; stroke: #b0b0b0; stroke-opacity: 0.3; stroke-linecap: square"/>
     </g>
     <g id="line2d_9">
      <g>
       <use xlink:href="#m5e21e34242" x="57.114884" y="323.191033" style="stroke: #000000; stroke-width: 0.8"/>
      </g>
     </g>
     <g id="text_8">
      <!-- $\mathdefault{1.25}$ -->
      <g transform="translate(30.63234 326.996206) scale(0.11 -0.11)">
       <defs>
        <path id="CMR17-32" d="M 2669 989 
L 2554 989 
C 2490 536 2438 459 2413 420 
C 2381 369 1920 369 1830 369 
L 602 369 
C 832 619 1280 1072 1824 1597 
C 2214 1967 2669 2402 2669 3035 
C 2669 3790 2067 4224 1395 4224 
C 691 4224 262 3604 262 3030 
C 262 2780 448 2748 525 2748 
C 589 2748 781 2787 781 3010 
C 781 3207 614 3264 525 3264 
C 486 3264 448 3258 422 3245 
C 544 3790 915 4058 1306 4058 
C 1862 4058 2227 3617 2227 3035 
C 2227 2479 1901 2000 1536 1584 
L 262 146 
L 262 0 
L 2515 0 
L 2669 989 
z
" transform="scale(0.015625)"/>
        <path id="CMR17-35" d="M 730 3692 
C 794 3666 1056 3584 1325 3584 
C 1920 3584 2246 3911 2432 4100 
C 2432 4157 2432 4192 2394 4192 
C 2387 4192 2374 4192 2323 4163 
C 2099 4058 1837 3973 1517 3973 
C 1325 3973 1037 3999 723 4139 
C 653 4171 640 4171 634 4171 
C 602 4171 595 4164 595 4037 
L 595 2203 
C 595 2089 595 2057 659 2057 
C 691 2057 704 2070 736 2114 
C 941 2401 1222 2522 1542 2522 
C 1766 2522 2246 2382 2246 1289 
C 2246 1085 2246 715 2054 421 
C 1894 159 1645 25 1370 25 
C 947 25 518 320 403 814 
C 429 807 480 795 506 795 
C 589 795 749 840 749 1038 
C 749 1210 627 1280 506 1280 
C 358 1280 262 1190 262 1011 
C 262 454 704 -128 1382 -128 
C 2042 -128 2669 440 2669 1264 
C 2669 2030 2170 2624 1549 2624 
C 1222 2624 947 2503 730 2274 
L 730 3692 
z
" transform="scale(0.015625)"/>
       </defs>
       <use xlink:href="#CMR17-31" transform="scale(0.996264)"/>
       <use xlink:href="#CMMI12-3a" transform="translate(45.690477 0) scale(0.996264)"/>
       <use xlink:href="#CMR17-32" transform="translate(72.787654 0) scale(0.996264)"/>
       <use xlink:href="#CMR17-35" transform="translate(118.478131 0) scale(0.996264)"/>
      </g>
     </g>
    </g>
    <g id="ytick_3">
     <g id="line2d_10">
      <path d="M 57.114884 277.869846 
L 704.88 277.869846 
" clip-path="url(#pc227148d69)" style="fill: none; stroke: #b0b0b0; stroke-opacity: 0.3; stroke-linecap: square"/>
     </g>
     <g id="line2d_11">
      <g>
       <use xlink:href="#m5e21e34242" x="57.114884" y="277.869846" style="stroke: #000000; stroke-width: 0.8"/>
      </g>
     </g>
     <g id="text_9">
      <!-- $\mathdefault{1.50}$ -->
      <g transform="translate(30.63234 281.67502) scale(0.11 -0.11)">
       <use xlink:href="#CMR17-31" transform="scale(0.996264)"/>
       <use xlink:href="#CMMI12-3a" transform="translate(45.690477 0) scale(0.996264)"/>
       <use xlink:href="#CMR17-35" transform="translate(72.787654 0) scale(0.996264)"/>
       <use xlink:href="#CMR17-30" transform="translate(118.478131 0) scale(0.996264)"/>
      </g>
     </g>
    </g>
    <g id="ytick_4">
     <g id="line2d_12">
      <path d="M 57.114884 232.54866 
L 704.88 232.54866 
" clip-path="url(#pc227148d69)" style="fill: none; stroke: #b0b0b0; stroke-opacity: 0.3; stroke-linecap: square"/>
     </g>
     <g id="line2d_13">
      <g>
       <use xlink:href="#m5e21e34242" x="57.114884" y="232.54866" style="stroke: #000000; stroke-width: 0.8"/>
      </g>
     </g>
     <g id="text_10">
      <!-- $\mathdefault{1.75}$ -->
      <g transform="translate(30.63234 236.353833) scale(0.11 -0.11)">
       <defs>
        <path id="CMR17-37" d="M 2886 3941 
L 2886 4081 
L 1382 4081 
C 634 4081 621 4165 595 4288 
L 480 4288 
L 294 3094 
L 410 3094 
C 429 3215 474 3540 550 3661 
C 589 3712 1062 3712 1171 3712 
L 2579 3712 
L 1869 2661 
C 1395 1954 1069 999 1069 165 
C 1069 89 1069 -128 1299 -128 
C 1530 -128 1530 89 1530 171 
L 1530 465 
C 1530 1508 1709 2196 2003 2636 
L 2886 3941 
z
" transform="scale(0.015625)"/>
       </defs>
       <use xlink:href="#CMR17-31" transform="scale(0.996264)"/>
       <use xlink:href="#CMMI12-3a" transform="translate(45.690477 0) scale(0.996264)"/>
       <use xlink:href="#CMR17-37" transform="translate(72.787654 0) scale(0.996264)"/>
       <use xlink:href="#CMR17-35" transform="translate(118.478131 0) scale(0.996264)"/>
      </g>
     </g>
    </g>
    <g id="ytick_5">
     <g id="line2d_14">
      <path d="M 57.114884 187.227474 
L 704.88 187.227474 
" clip-path="url(#pc227148d69)" style="fill: none; stroke: #b0b0b0; stroke-opacity: 0.3; stroke-linecap: square"/>
     </g>
     <g id="line2d_15">
      <g>
       <use xlink:href="#m5e21e34242" x="57.114884" y="187.227474" style="stroke: #000000; stroke-width: 0.8"/>
      </g>
     </g>
     <g id="text_11">
      <!-- $\mathdefault{2.00}$ -->
      <g transform="translate(30.63234 191.032647) scale(0.11 -0.11)">
       <use xlink:href="#CMR17-32" transform="scale(0.996264)"/>
       <use xlink:href="#CMMI12-3a" transform="translate(45.690477 0) scale(0.996264)"/>
       <use xlink:href="#CMR17-30" transform="translate(72.787654 0) scale(0.996264)"/>
       <use xlink:href="#CMR17-30" transform="translate(118.478131 0) scale(0.996264)"/>
      </g>
     </g>
    </g>
    <g id="ytick_6">
     <g id="line2d_16">
      <path d="M 57.114884 141.906288 
L 704.88 141.906288 
" clip-path="url(#pc227148d69)" style="fill: none; stroke: #b0b0b0; stroke-opacity: 0.3; stroke-linecap: square"/>
     </g>
     <g id="line2d_17">
      <g>
       <use xlink:href="#m5e21e34242" x="57.114884" y="141.906288" style="stroke: #000000; stroke-width: 0.8"/>
      </g>
     </g>
     <g id="text_12">
      <!-- $\mathdefault{2.25}$ -->
      <g transform="translate(30.63234 145.711461) scale(0.11 -0.11)">
       <use xlink:href="#CMR17-32" transform="scale(0.996264)"/>
       <use xlink:href="#CMMI12-3a" transform="translate(45.690477 0) scale(0.996264)"/>
       <use xlink:href="#CMR17-32" transform="translate(72.787654 0) scale(0.996264)"/>
       <use xlink:href="#CMR17-35" transform="translate(118.478131 0) scale(0.996264)"/>
      </g>
     </g>
    </g>
    <g id="ytick_7">
     <g id="line2d_18">
      <path d="M 57.114884 96.585101 
L 704.88 96.585101 
" clip-path="url(#pc227148d69)" style="fill: none; stroke: #b0b0b0; stroke-opacity: 0.3; stroke-linecap: square"/>
     </g>
     <g id="line2d_19">
      <g>
       <use xlink:href="#m5e21e34242" x="57.114884" y="96.585101" style="stroke: #000000; stroke-width: 0.8"/>
      </g>
     </g>
     <g id="text_13">
      <!-- $\mathdefault{2.50}$ -->
      <g transform="translate(30.63234 100.390275) scale(0.11 -0.11)">
       <use xlink:href="#CMR17-32" transform="scale(0.996264)"/>
       <use xlink:href="#CMMI12-3a" transform="translate(45.690477 0) scale(0.996264)"/>
       <use xlink:href="#CMR17-35" transform="translate(72.787654 0) scale(0.996264)"/>
       <use xlink:href="#CMR17-30" transform="translate(118.478131 0) scale(0.996264)"/>
      </g>
     </g>
    </g>
    <g id="ytick_8">
     <g id="line2d_20">
      <path d="M 57.114884 51.263915 
L 704.88 51.263915 
" clip-path="url(#pc227148d69)" style="fill: none; stroke: #b0b0b0; stroke-opacity: 0.3; stroke-linecap: square"/>
     </g>
     <g id="line2d_21">
      <g>
       <use xlink:href="#m5e21e34242" x="57.114884" y="51.263915" style="stroke: #000000; stroke-width: 0.8"/>
      </g>
     </g>
     <g id="text_14">
      <!-- $\mathdefault{2.75}$ -->
      <g transform="translate(30.63234 55.069088) scale(0.11 -0.11)">
       <use xlink:href="#CMR17-32" transform="scale(0.996264)"/>
       <use xlink:href="#CMMI12-3a" transform="translate(45.690477 0) scale(0.996264)"/>
       <use xlink:href="#CMR17-37" transform="translate(72.787654 0) scale(0.996264)"/>
       <use xlink:href="#CMR17-35" transform="translate(118.478131 0) scale(0.996264)"/>
      </g>
     </g>
    </g>
    <g id="text_15">
     <!-- Distortion -->
     <g transform="translate(24.114028 235.497321) rotate(-90) scale(0.13 -0.13)">
      <defs>
       <path id="CMR17-44" d="M 333 4352 
L 333 4186 
C 774 4186 845 4186 845 3900 
L 845 452 
C 845 166 774 166 333 166 
L 333 0 
L 2368 0 
C 3398 0 4224 943 4224 2141 
C 4224 3346 3411 4352 2368 4352 
L 333 4352 
z
M 1523 166 
C 1267 166 1254 197 1254 414 
L 1254 3938 
C 1254 4155 1267 4186 1523 4186 
L 2240 4186 
C 2771 4186 3750 3874 3750 2141 
C 3750 1242 3488 879 3366 707 
C 3213 510 2848 166 2240 166 
L 1523 166 
z
" transform="scale(0.015625)"/>
      </defs>
      <use xlink:href="#CMR17-44" transform="scale(0.996264)"/>
      <use xlink:href="#CMR17-69" transform="translate(70.393556 0) scale(0.996264)"/>
      <use xlink:href="#CMR17-73" transform="translate(95.264614 0) scale(0.996264)"/>
      <use xlink:href="#CMR17-74" transform="translate(131.065952 0) scale(0.996264)"/>
      <use xlink:href="#CMR17-6f" transform="translate(166.34672 0) scale(0.996264)"/>
      <use xlink:href="#CMR17-72" transform="translate(212.037197 0) scale(0.996264)"/>
      <use xlink:href="#CMR17-74" transform="translate(247.317965 0) scale(0.996264)"/>
      <use xlink:href="#CMR17-69" transform="translate(282.598733 0) scale(0.996264)"/>
      <use xlink:href="#CMR17-6f" transform="translate(307.469791 0) scale(0.996264)"/>
      <use xlink:href="#CMR17-6e" transform="translate(353.160268 0) scale(0.996264)"/>
     </g>
    </g>
   </g>
   <g id="LineCollection_1">
    <path d="M 102.916458 326.670279 
L 135.631867 326.670279 
" clip-path="url(#pc227148d69)" style="fill: none; stroke: #1f77b4; stroke-width: 1.5"/>
    <path d="M 233.778097 324.634533 
L 266.493507 324.634533 
" clip-path="url(#pc227148d69)" style="fill: none; stroke: #1f77b4; stroke-width: 1.5"/>
    <path d="M 364.639737 334.918088 
L 397.355147 334.918088 
" clip-path="url(#pc227148d69)" style="fill: none; stroke: #1f77b4; stroke-width: 1.5"/>
    <path d="M 495.501377 320.968363 
L 528.216786 320.968363 
" clip-path="url(#pc227148d69)" style="fill: none; stroke: #1f77b4; stroke-width: 1.5"/>
    <path d="M 626.363016 324.403185 
L 659.078426 324.403185 
" clip-path="url(#pc227148d69)" style="fill: none; stroke: #1f77b4; stroke-width: 1.5"/>
   </g>
   <g id="LineCollection_2">
    <path d="M 102.916458 46.228228 
L 135.631867 46.228228 
" clip-path="url(#pc227148d69)" style="fill: none; stroke: #1f77b4; stroke-width: 1.5"/>
    <path d="M 233.778097 87.914961 
L 266.493507 87.914961 
" clip-path="url(#pc227148d69)" style="fill: none; stroke: #1f77b4; stroke-width: 1.5"/>
    <path d="M 364.639737 98.047075 
L 397.355147 98.047075 
" clip-path="url(#pc227148d69)" style="fill: none; stroke: #1f77b4; stroke-width: 1.5"/>
    <path d="M 495.501377 96.585101 
L 528.216786 96.585101 
" clip-path="url(#pc227148d69)" style="fill: none; stroke: #1f77b4; stroke-width: 1.5"/>
    <path d="M 626.363016 67.322603 
L 659.078426 67.322603 
" clip-path="url(#pc227148d69)" style="fill: none; stroke: #1f77b4; stroke-width: 1.5"/>
   </g>
   <g id="LineCollection_3">
    <path d="M 102.916458 368.512219 
L 135.631867 368.512219 
" clip-path="url(#pc227148d69)" style="fill: none; stroke: #1f77b4; stroke-width: 1.5"/>
    <path d="M 233.778097 368.512219 
L 266.493507 368.512219 
" clip-path="url(#pc227148d69)" style="fill: none; stroke: #1f77b4; stroke-width: 1.5"/>
    <path d="M 364.639737 368.512219 
L 397.355147 368.512219 
" clip-path="url(#pc227148d69)" style="fill: none; stroke: #1f77b4; stroke-width: 1.5"/>
    <path d="M 495.501377 368.512219 
L 528.216786 368.512219 
" clip-path="url(#pc227148d69)" style="fill: none; stroke: #1f77b4; stroke-width: 1.5"/>
    <path d="M 626.363016 368.512219 
L 659.078426 368.512219 
" clip-path="url(#pc227148d69)" style="fill: none; stroke: #1f77b4; stroke-width: 1.5"/>
   </g>
   <g id="LineCollection_4">
    <path d="M 119.274163 368.512219 
L 119.274163 46.228228 
" clip-path="url(#pc227148d69)" style="fill: none; stroke: #1f77b4; stroke-width: 1.5"/>
    <path d="M 250.135802 368.512219 
L 250.135802 87.914961 
" clip-path="url(#pc227148d69)" style="fill: none; stroke: #1f77b4; stroke-width: 1.5"/>
    <path d="M 380.997442 368.512219 
L 380.997442 98.047075 
" clip-path="url(#pc227148d69)" style="fill: none; stroke: #1f77b4; stroke-width: 1.5"/>
    <path d="M 511.859082 368.512219 
L 511.859082 96.585101 
" clip-path="url(#pc227148d69)" style="fill: none; stroke: #1f77b4; stroke-width: 1.5"/>
    <path d="M 642.720721 368.512219 
L 642.720721 67.322603 
" clip-path="url(#pc227148d69)" style="fill: none; stroke: #1f77b4; stroke-width: 1.5"/>
   </g>
   <g id="patch_3">
    <path d="M 57.114884 384.626418 
L 57.114884 30.114028 
" style="fill: none; stroke: #000000; stroke-linejoin: miter; stroke-linecap: square"/>
   </g>
   <g id="patch_4">
    <path d="M 704.88 384.626418 
L 704.88 30.114028 
" style="fill: none; stroke: #000000; stroke-linejoin: miter; stroke-linecap: square"/>
   </g>
   <g id="patch_5">
    <path d="M 57.114884 384.626418 
L 704.88 384.626418 
" style="fill: none; stroke: #000000; stroke-linejoin: miter; stroke-linecap: square"/>
   </g>
   <g id="patch_6">
    <path d="M 57.114884 30.114028 
L 704.88 30.114028 
" style="fill: none; stroke: #000000; stroke-linejoin: miter; stroke-linecap: square"/>
   </g>
   <g id="text_16">
    <!-- Distortion Under Nietzschean -->
    <g transform="translate(298.767201 24.114028) scale(0.13 -0.13)">
     <defs>
      <path id="CMR17-55" d="M 3456 1433 
C 3456 579 2899 38 2291 38 
C 1965 38 1670 210 1491 477 
C 1286 783 1261 1178 1261 1401 
L 1261 3874 
C 1261 4160 1331 4160 1773 4160 
L 1773 4320 
C 1587 4320 1248 4320 1050 4320 
C 851 4320 512 4320 326 4320 
L 326 4160 
C 768 4160 838 4160 838 3874 
L 838 1433 
C 838 516 1536 -128 2278 -128 
C 3110 -128 3590 719 3590 1344 
L 3590 3766 
C 3590 4122 3917 4160 4102 4160 
L 4102 4326 
C 3955 4320 3686 4320 3526 4320 
C 3366 4320 3091 4320 2944 4326 
L 2944 4160 
C 3456 4160 3456 3861 3456 3702 
L 3456 1433 
z
" transform="scale(0.015625)"/>
      <path id="CMR17-7a" d="M 2310 2605 
C 2362 2670 2362 2682 2362 2695 
C 2362 2752 2336 2752 2221 2752 
L 275 2752 
L 211 1760 
L 326 1760 
C 371 2381 442 2650 1178 2650 
L 1958 2650 
L 128 96 
C 128 0 134 0 269 0 
L 2291 0 
L 2381 1152 
L 2266 1152 
C 2214 442 2131 115 1350 115 
L 531 115 
L 2310 2605 
z
" transform="scale(0.015625)"/>
      <path id="CMR17-68" d="M 2656 1933 
C 2656 2259 2592 2790 1837 2790 
C 1312 2790 1056 2368 979 2157 
L 973 2157 
L 973 4396 
L 211 4326 
L 211 4160 
C 589 4160 646 4122 646 3817 
L 646 426 
C 646 184 621 153 211 153 
L 211 -13 
C 365 0 646 0 813 0 
C 979 0 1267 0 1421 -13 
L 1421 153 
C 1011 153 986 178 986 428 
L 986 1658 
C 986 2247 1344 2688 1792 2688 
C 2266 2688 2317 2266 2317 1958 
L 2317 428 
C 2317 184 2291 153 1882 153 
L 1882 -13 
C 2035 0 2317 0 2483 0 
C 2650 0 2938 0 3091 -13 
L 3091 153 
C 2682 153 2656 178 2656 428 
L 2656 1933 
z
" transform="scale(0.015625)"/>
     </defs>
     <use xlink:href="#CMR17-44" transform="scale(0.996264)"/>
     <use xlink:href="#CMR17-69" transform="translate(70.393556 0) scale(0.996264)"/>
     <use xlink:href="#CMR17-73" transform="translate(95.264614 0) scale(0.996264)"/>
     <use xlink:href="#CMR17-74" transform="translate(131.065952 0) scale(0.996264)"/>
     <use xlink:href="#CMR17-6f" transform="translate(166.34672 0) scale(0.996264)"/>
     <use xlink:href="#CMR17-72" transform="translate(212.037197 0) scale(0.996264)"/>
     <use xlink:href="#CMR17-74" transform="translate(247.317965 0) scale(0.996264)"/>
     <use xlink:href="#CMR17-69" transform="translate(282.598733 0) scale(0.996264)"/>
     <use xlink:href="#CMR17-6f" transform="translate(307.469791 0) scale(0.996264)"/>
     <use xlink:href="#CMR17-6e" transform="translate(353.160268 0) scale(0.996264)"/>
     <use xlink:href="#CMR17-55" transform="translate(434.131604 0) scale(0.996264)"/>
     <use xlink:href="#CMR17-6e" transform="translate(503.204034 0) scale(0.996264)"/>
     <use xlink:href="#CMR17-64" transform="translate(554.099404 0) scale(0.996264)"/>
     <use xlink:href="#CMR17-65" transform="translate(604.994774 0) scale(0.996264)"/>
     <use xlink:href="#CMR17-72" transform="translate(645.480434 0) scale(0.996264)"/>
     <use xlink:href="#CMR17-4e" transform="translate(710.837168 0) scale(0.996264)"/>
     <use xlink:href="#CMR17-69" transform="translate(779.909598 0) scale(0.996264)"/>
     <use xlink:href="#CMR17-65" transform="translate(804.780657 0) scale(0.996264)"/>
     <use xlink:href="#CMR17-74" transform="translate(845.266317 0) scale(0.996264)"/>
     <use xlink:href="#CMR17-7a" transform="translate(880.547085 0) scale(0.996264)"/>
     <use xlink:href="#CMR17-73" transform="translate(921.032745 0) scale(0.996264)"/>
     <use xlink:href="#CMR17-63" transform="translate(956.834083 0) scale(0.996264)"/>
     <use xlink:href="#CMR17-68" transform="translate(994.717289 0) scale(0.996264)"/>
     <use xlink:href="#CMR17-65" transform="translate(1045.612659 0) scale(0.996264)"/>
     <use xlink:href="#CMR17-61" transform="translate(1086.09832 0) scale(0.996264)"/>
     <use xlink:href="#CMR17-6e" transform="translate(1131.788797 0) scale(0.996264)"/>
    </g>
   </g>
  </g>
 </g>
 <defs>
  <clipPath id="pc227148d69">
   <rect x="57.114884" y="30.114028" width="647.765116" height="354.51239"/>
  </clipPath>
 </defs>
</svg>
