<?xml version="1.0" encoding="utf-8" standalone="no"?>
<!DOCTYPE svg PUBLIC "-//W3C//DTD SVG 1.1//EN"
  "http://www.w3.org/Graphics/SVG/1.1/DTD/svg11.dtd">
<svg xmlns:xlink="http://www.w3.org/1999/xlink" width="720pt" height="432pt" viewBox="0 0 720 432" xmlns="http://www.w3.org/2000/svg" version="1.1">
 <metadata>
  <rdf:RDF xmlns:dc="http://purl.org/dc/elements/1.1/" xmlns:cc="http://creativecommons.org/ns#" xmlns:rdf="http://www.w3.org/1999/02/22-rdf-syntax-ns#">
   <cc:Work>
    <dc:type rdf:resource="http://purl.org/dc/dcmitype/StillImage"/>
    <dc:date>2024-12-08T13:02:52.795657</dc:date>
    <dc:format>image/svg+xml</dc:format>
    <dc:creator>
     <cc:Agent>
      <dc:title>Matplotlib v3.9.2, https://matplotlib.org/</dc:title>
     </cc:Agent>
    </dc:creator>
   </cc:Work>
  </rdf:RDF>
 </metadata>
 <defs>
  <style type="text/css">*{stroke-linejoin: round; stroke-linecap: butt}</style>
 </defs>
 <g id="figure_1">
  <g id="patch_1">
   <path d="M 0 432 
L 720 432 
L 720 0 
L 0 0 
z
" style="fill: #ffffff"/>
  </g>
  <g id="axes_1">
   <g id="patch_2">
    <path d="M 48.591275 384.626418 
L 704.88 384.626418 
L 704.88 30.114028 
L 48.591275 30.114028 
z
" style="fill: #ffffff"/>
   </g>
   <g id="PolyCollection_1">
    <defs>
     <path id="ma0e54cb84d" d="M 136.441508 -63.487781 
L 105.635955 -63.487781 
L 103.529604 -66.462463 
L 101.417465 -69.437145 
L 99.341015 -72.411826 
L 97.336187 -75.386508 
L 95.430599 -78.36119 
L 93.641797 -81.335872 
L 91.976756 -84.310554 
L 90.432691 -87.285235 
L 88.999092 -90.259917 
L 87.66068 -93.234599 
L 86.400901 -96.209281 
L 85.205464 -99.183962 
L 84.065462 -102.158644 
L 82.97967 -105.133326 
L 81.955724 -108.108008 
L 81.010071 -111.082689 
L 80.166721 -114.057371 
L 79.455037 -117.032053 
L 78.90687 -120.006735 
L 78.553475 -122.981417 
L 78.42258 -125.956098 
L 78.535959 -128.93078 
L 78.907704 -131.905462 
L 79.543292 -134.880144 
L 80.439367 -137.854825 
L 81.584098 -140.829507 
L 82.957924 -143.804189 
L 84.534513 -146.778871 
L 86.281825 -149.753553 
L 88.163258 -152.728234 
L 90.138909 -155.702916 
L 92.167025 -158.677598 
L 94.205702 -161.65228 
L 96.214814 -164.626961 
L 98.158083 -167.601643 
L 100.005096 -170.576325 
L 101.733005 -173.551007 
L 103.327667 -176.525688 
L 104.783983 -179.50037 
L 106.105344 -182.475052 
L 107.302214 -185.449734 
L 108.39 -188.424416 
L 109.38653 -191.399097 
L 110.309476 -194.373779 
L 111.174087 -197.348461 
L 111.991546 -200.323143 
L 112.768118 -203.297824 
L 113.50517 -206.272506 
L 114.199947 -209.247188 
L 114.846927 -212.22187 
L 115.439464 -215.196552 
L 115.971423 -218.171233 
L 116.438547 -221.145915 
L 116.83936 -224.120597 
L 117.1755 -227.095279 
L 117.451508 -230.06996 
L 117.674172 -233.044642 
L 117.851601 -236.019324 
L 117.992239 -238.994006 
L 118.10401 -241.968687 
L 118.193742 -244.943369 
L 118.266942 -247.918051 
L 118.327906 -250.892733 
L 118.380094 -253.867415 
L 118.426615 -256.842096 
L 118.470693 -259.816778 
L 118.515967 -262.79146 
L 118.566546 -265.766142 
L 118.626806 -268.740823 
L 118.700959 -271.715505 
L 118.792511 -274.690187 
L 118.903719 -277.664869 
L 119.035161 -280.639551 
L 119.18553 -283.614232 
L 119.351675 -286.588914 
L 119.52889 -289.563596 
L 119.711387 -292.538278 
L 119.892882 -295.512959 
L 120.067174 -298.487641 
L 120.228655 -301.462323 
L 120.372671 -304.437005 
L 120.495719 -307.411686 
L 120.595479 -310.386368 
L 120.670728 -313.36105 
L 120.72118 -316.335732 
L 120.747309 -319.310414 
L 120.750207 -322.285095 
L 120.731501 -325.259777 
L 120.693341 -328.234459 
L 120.638439 -331.209141 
L 120.570122 -334.183822 
L 120.492366 -337.158504 
L 120.409753 -340.133186 
L 120.327337 -343.107868 
L 120.250392 -346.08255 
L 120.184065 -349.057231 
L 120.132977 -352.031913 
L 120.100803 -355.006595 
L 120.089934 -357.981277 
L 121.987529 -357.981277 
L 121.987529 -357.981277 
L 121.976659 -355.006595 
L 121.944486 -352.031913 
L 121.893397 -349.057231 
L 121.827071 -346.08255 
L 121.750126 -343.107868 
L 121.667709 -340.133186 
L 121.585097 -337.158504 
L 121.50734 -334.183822 
L 121.439024 -331.209141 
L 121.384122 -328.234459 
L 121.345962 -325.259777 
L 121.327256 -322.285095 
L 121.330154 -319.310414 
L 121.356283 -316.335732 
L 121.406735 -313.36105 
L 121.481984 -310.386368 
L 121.581744 -307.411686 
L 121.704792 -304.437005 
L 121.848808 -301.462323 
L 122.010289 -298.487641 
L 122.184581 -295.512959 
L 122.366075 -292.538278 
L 122.548573 -289.563596 
L 122.725788 -286.588914 
L 122.891933 -283.614232 
L 123.042302 -280.639551 
L 123.173744 -277.664869 
L 123.284951 -274.690187 
L 123.376504 -271.715505 
L 123.450657 -268.740823 
L 123.510917 -265.766142 
L 123.561496 -262.79146 
L 123.60677 -259.816778 
L 123.650848 -256.842096 
L 123.697369 -253.867415 
L 123.749556 -250.892733 
L 123.810521 -247.918051 
L 123.883721 -244.943369 
L 123.973453 -241.968687 
L 124.085224 -238.994006 
L 124.225861 -236.019324 
L 124.40329 -233.044642 
L 124.625955 -230.06996 
L 124.901963 -227.095279 
L 125.238103 -224.120597 
L 125.638916 -221.145915 
L 126.10604 -218.171233 
L 126.637999 -215.196552 
L 127.230535 -212.22187 
L 127.877516 -209.247188 
L 128.572293 -206.272506 
L 129.309345 -203.297824 
L 130.085917 -200.323143 
L 130.903376 -197.348461 
L 131.767987 -194.373779 
L 132.690933 -191.399097 
L 133.687463 -188.424416 
L 134.775249 -185.449734 
L 135.972118 -182.475052 
L 137.29348 -179.50037 
L 138.749795 -176.525688 
L 140.344457 -173.551007 
L 142.072367 -170.576325 
L 143.91938 -167.601643 
L 145.862649 -164.626961 
L 147.871761 -161.65228 
L 149.910438 -158.677598 
L 151.938554 -155.702916 
L 153.914205 -152.728234 
L 155.795638 -149.753553 
L 157.54295 -146.778871 
L 159.119538 -143.804189 
L 160.493365 -140.829507 
L 161.638096 -137.854825 
L 162.534171 -134.880144 
L 163.169759 -131.905462 
L 163.541504 -128.93078 
L 163.654882 -125.956098 
L 163.523988 -122.981417 
L 163.170593 -120.006735 
L 162.622426 -117.032053 
L 161.910741 -114.057371 
L 161.067392 -111.082689 
L 160.121739 -108.108008 
L 159.097793 -105.133326 
L 158.012001 -102.158644 
L 156.871999 -99.183962 
L 155.676562 -96.209281 
L 154.416783 -93.234599 
L 153.078371 -90.259917 
L 151.644771 -87.285235 
L 150.100706 -84.310554 
L 148.435665 -81.335872 
L 146.646864 -78.36119 
L 144.741275 -75.386508 
L 142.736447 -72.411826 
L 140.659998 -69.437145 
L 138.547859 -66.462463 
L 136.441508 -63.487781 
z
" style="stroke: #000000; stroke-opacity: 0.4"/>
    </defs>
    <g clip-path="url(#p8390460b5f)">
     <use xlink:href="#ma0e54cb84d" x="0" y="432" style="fill: #440154; fill-opacity: 0.4; stroke: #000000; stroke-opacity: 0.4"/>
    </g>
   </g>
   <g id="PolyCollection_2">
    <defs>
     <path id="maa6d303c0d" d="M 314.165923 -63.950537 
L 268.840748 -63.950537 
L 266.438274 -66.709247 
L 264.078881 -69.467957 
L 261.80535 -72.226668 
L 259.656978 -74.985378 
L 257.667707 -77.744088 
L 255.864693 -80.502798 
L 254.267375 -83.261509 
L 252.887144 -86.020219 
L 251.727582 -88.778929 
L 250.785223 -91.537639 
L 250.050756 -94.296349 
L 249.510505 -97.05506 
L 249.148076 -99.81377 
L 248.945991 -102.57248 
L 248.887184 -105.33119 
L 248.956241 -108.0899 
L 249.140293 -110.848611 
L 249.429534 -113.607321 
L 249.817323 -116.366031 
L 250.299937 -119.124741 
L 250.876005 -121.883452 
L 251.545723 -124.642162 
L 252.309955 -127.400872 
L 253.169311 -130.159582 
L 254.123318 -132.918292 
L 255.169753 -135.677003 
L 256.304196 -138.435713 
L 257.519833 -141.194423 
L 258.807506 -143.953133 
L 260.155967 -146.711844 
L 261.552286 -149.470554 
L 262.982357 -152.229264 
L 264.43142 -154.987974 
L 265.88456 -157.746684 
L 267.327131 -160.505395 
L 268.745103 -163.264105 
L 270.125336 -166.022815 
L 271.455783 -168.781525 
L 272.725688 -171.540236 
L 273.925767 -174.298946 
L 275.048413 -177.057656 
L 276.087913 -179.816366 
L 277.040662 -182.575076 
L 277.905333 -185.333787 
L 278.682965 -188.092497 
L 279.376926 -190.851207 
L 279.992734 -193.609917 
L 280.537712 -196.368628 
L 281.020512 -199.127338 
L 281.450553 -201.886048 
L 281.837418 -204.644758 
L 282.190301 -207.403468 
L 282.517543 -210.162179 
L 282.826324 -212.920889 
L 283.122516 -215.679599 
L 283.410694 -218.438309 
L 283.694281 -221.197019 
L 283.975759 -223.95573 
L 284.256905 -226.71444 
L 284.538995 -229.47315 
L 284.822938 -232.23186 
L 285.109319 -234.990571 
L 285.398379 -237.749281 
L 285.689929 -240.507991 
L 285.983264 -243.266701 
L 286.277098 -246.025411 
L 286.569557 -248.784122 
L 286.858261 -251.542832 
L 287.140483 -254.301542 
L 287.413369 -257.060252 
L 287.674203 -259.818963 
L 287.920665 -262.577673 
L 288.151051 -265.336383 
L 288.364423 -268.095093 
L 288.56067 -270.853803 
L 288.740465 -273.612514 
L 288.905135 -276.371224 
L 289.056462 -279.129934 
L 289.196434 -281.888644 
L 289.326991 -284.647355 
L 289.44979 -287.406065 
L 289.566026 -290.164775 
L 289.676313 -292.923485 
L 289.780663 -295.682195 
L 289.878544 -298.440906 
L 289.969013 -301.199616 
L 290.050918 -303.958326 
L 290.123123 -306.717036 
L 290.184749 -309.475747 
L 290.235384 -312.234457 
L 290.275241 -314.993167 
L 290.30525 -317.751877 
L 290.327052 -320.510587 
L 290.342914 -323.269298 
L 290.355564 -326.028008 
L 290.367966 -328.786718 
L 290.38306 -331.545428 
L 290.403506 -334.304138 
L 290.431449 -337.062849 
L 292.575222 -337.062849 
L 292.575222 -337.062849 
L 292.603165 -334.304138 
L 292.62361 -331.545428 
L 292.638705 -328.786718 
L 292.651107 -326.028008 
L 292.663757 -323.269298 
L 292.679619 -320.510587 
L 292.701421 -317.751877 
L 292.731429 -314.993167 
L 292.771287 -312.234457 
L 292.821921 -309.475747 
L 292.883547 -306.717036 
L 292.955753 -303.958326 
L 293.037657 -301.199616 
L 293.128127 -298.440906 
L 293.226008 -295.682195 
L 293.330358 -292.923485 
L 293.440645 -290.164775 
L 293.55688 -287.406065 
L 293.67968 -284.647355 
L 293.810237 -281.888644 
L 293.950208 -279.129934 
L 294.101535 -276.371224 
L 294.266206 -273.612514 
L 294.446001 -270.853803 
L 294.642248 -268.095093 
L 294.85562 -265.336383 
L 295.086006 -262.577673 
L 295.332467 -259.818963 
L 295.593301 -257.060252 
L 295.866187 -254.301542 
L 296.148409 -251.542832 
L 296.437114 -248.784122 
L 296.729573 -246.025411 
L 297.023406 -243.266701 
L 297.316742 -240.507991 
L 297.608292 -237.749281 
L 297.897352 -234.990571 
L 298.183733 -232.23186 
L 298.467675 -229.47315 
L 298.749766 -226.71444 
L 299.030912 -223.95573 
L 299.312389 -221.197019 
L 299.595976 -218.438309 
L 299.884155 -215.679599 
L 300.180346 -212.920889 
L 300.489128 -210.162179 
L 300.81637 -207.403468 
L 301.169252 -204.644758 
L 301.556118 -201.886048 
L 301.986158 -199.127338 
L 302.468959 -196.368628 
L 303.013936 -193.609917 
L 303.629745 -190.851207 
L 304.323706 -188.092497 
L 305.101337 -185.333787 
L 305.966008 -182.575076 
L 306.918758 -179.816366 
L 307.958258 -177.057656 
L 309.080903 -174.298946 
L 310.280982 -171.540236 
L 311.550888 -168.781525 
L 312.881335 -166.022815 
L 314.261567 -163.264105 
L 315.67954 -160.505395 
L 317.122111 -157.746684 
L 318.57525 -154.987974 
L 320.024314 -152.229264 
L 321.454385 -149.470554 
L 322.850704 -146.711844 
L 324.199164 -143.953133 
L 325.486838 -141.194423 
L 326.702475 -138.435713 
L 327.836917 -135.677003 
L 328.883352 -132.918292 
L 329.83736 -130.159582 
L 330.696716 -127.400872 
L 331.460947 -124.642162 
L 332.130666 -121.883452 
L 332.706733 -119.124741 
L 333.189348 -116.366031 
L 333.577137 -113.607321 
L 333.866378 -110.848611 
L 334.05043 -108.0899 
L 334.119486 -105.33119 
L 334.06068 -102.57248 
L 333.858595 -99.81377 
L 333.496166 -97.05506 
L 332.955915 -94.296349 
L 332.221447 -91.537639 
L 331.279089 -88.778929 
L 330.119526 -86.020219 
L 328.739296 -83.261509 
L 327.141978 -80.502798 
L 325.338963 -77.744088 
L 323.349693 -74.985378 
L 321.20132 -72.226668 
L 318.92779 -69.467957 
L 316.568397 -66.709247 
L 314.165923 -63.950537 
z
" style="stroke: #000000; stroke-opacity: 0.4"/>
    </defs>
    <g clip-path="url(#p8390460b5f)">
     <use xlink:href="#maa6d303c0d" x="0" y="432" style="fill: #31688e; fill-opacity: 0.4; stroke: #000000; stroke-opacity: 0.4"/>
    </g>
   </g>
   <g id="PolyCollection_3">
    <defs>
     <path id="me1bea627bc" d="M 484.668201 -66.57307 
L 439.267678 -66.57307 
L 436.587567 -69.457284 
L 434.056449 -72.341498 
L 431.744497 -75.225713 
L 429.704401 -78.109927 
L 427.966376 -80.994141 
L 426.535767 -83.878355 
L 425.393669 -86.762569 
L 424.500557 -89.646783 
L 423.802454 -92.530997 
L 423.238755 -95.415212 
L 422.75059 -98.299426 
L 422.288584 -101.18364 
L 421.818984 -104.067854 
L 421.327478 -106.952068 
L 420.820375 -109.836282 
L 420.323242 -112.720497 
L 419.877373 -115.604711 
L 419.534689 -118.488925 
L 419.351788 -121.373139 
L 419.383797 -124.257353 
L 419.67867 -127.141567 
L 420.272421 -130.025782 
L 421.185642 -132.909996 
L 422.421518 -135.79421 
L 423.965405 -138.678424 
L 425.78587 -141.562638 
L 427.837006 -144.446852 
L 430.061729 -147.331066 
L 432.395704 -150.215281 
L 434.771584 -153.099495 
L 437.123206 -155.983709 
L 439.389482 -158.867923 
L 441.517747 -161.752137 
L 443.466362 -164.636351 
L 445.206437 -167.520566 
L 446.722594 -170.40478 
L 448.012725 -173.288994 
L 449.086813 -176.173208 
L 449.964931 -179.057422 
L 450.674655 -181.941636 
L 451.24815 -184.82585 
L 451.719246 -187.710065 
L 452.120798 -190.594279 
L 452.482568 -193.478493 
L 452.829766 -196.362707 
L 453.182304 -199.246921 
L 453.554662 -202.131135 
L 453.956241 -205.01535 
L 454.391969 -207.899564 
L 454.863014 -210.783778 
L 455.36742 -213.667992 
L 455.900627 -216.552206 
L 456.455881 -219.43642 
L 457.024585 -222.320635 
L 457.596701 -225.204849 
L 458.161259 -228.089063 
L 458.707011 -230.973277 
L 459.223198 -233.857491 
L 459.700338 -236.741705 
L 460.130934 -239.625919 
L 460.509986 -242.510134 
L 460.835235 -245.394348 
L 461.107109 -248.278562 
L 461.328392 -251.162776 
L 461.503698 -254.04699 
L 461.638843 -256.931204 
L 461.740204 -259.815419 
L 461.814153 -262.699633 
L 461.866628 -265.583847 
L 461.902841 -268.468061 
L 461.927141 -271.352275 
L 461.942985 -274.236489 
L 461.953005 -277.120704 
L 461.959118 -280.004918 
L 461.962647 -282.889132 
L 461.964449 -285.773346 
L 461.965011 -288.65756 
L 461.964525 -291.541774 
L 461.962927 -294.425988 
L 461.959914 -297.310203 
L 461.954942 -300.194417 
L 461.947205 -303.078631 
L 461.935628 -305.962845 
L 461.918877 -308.847059 
L 461.895402 -311.731273 
L 461.86354 -314.615488 
L 461.821677 -317.499702 
L 461.768481 -320.383916 
L 461.703175 -323.26813 
L 461.62584 -326.152344 
L 461.537681 -329.036558 
L 461.441205 -331.920772 
L 461.340259 -334.804987 
L 461.239872 -337.689201 
L 461.145907 -340.573415 
L 461.064516 -343.457629 
L 461.001491 -346.341843 
L 460.961585 -349.226057 
L 460.94792 -352.110272 
L 462.987959 -352.110272 
L 462.987959 -352.110272 
L 462.974294 -349.226057 
L 462.934388 -346.341843 
L 462.871362 -343.457629 
L 462.789971 -340.573415 
L 462.696006 -337.689201 
L 462.59562 -334.804987 
L 462.494673 -331.920772 
L 462.398197 -329.036558 
L 462.310038 -326.152344 
L 462.232704 -323.26813 
L 462.167398 -320.383916 
L 462.114201 -317.499702 
L 462.072339 -314.615488 
L 462.040477 -311.731273 
L 462.017002 -308.847059 
L 462.000251 -305.962845 
L 461.988674 -303.078631 
L 461.980937 -300.194417 
L 461.975964 -297.310203 
L 461.972952 -294.425988 
L 461.971354 -291.541774 
L 461.970867 -288.65756 
L 461.97143 -285.773346 
L 461.973231 -282.889132 
L 461.976761 -280.004918 
L 461.982873 -277.120704 
L 461.992894 -274.236489 
L 462.008738 -271.352275 
L 462.033037 -268.468061 
L 462.069251 -265.583847 
L 462.121726 -262.699633 
L 462.195675 -259.815419 
L 462.297035 -256.931204 
L 462.43218 -254.04699 
L 462.607487 -251.162776 
L 462.828769 -248.278562 
L 463.100643 -245.394348 
L 463.425893 -242.510134 
L 463.804945 -239.625919 
L 464.235541 -236.741705 
L 464.712681 -233.857491 
L 465.228868 -230.973277 
L 465.77462 -228.089063 
L 466.339178 -225.204849 
L 466.911294 -222.320635 
L 467.479998 -219.43642 
L 468.035252 -216.552206 
L 468.568459 -213.667992 
L 469.072864 -210.783778 
L 469.543909 -207.899564 
L 469.979638 -205.01535 
L 470.381216 -202.131135 
L 470.753575 -199.246921 
L 471.106113 -196.362707 
L 471.453311 -193.478493 
L 471.81508 -190.594279 
L 472.216633 -187.710065 
L 472.687729 -184.82585 
L 473.261224 -181.941636 
L 473.970948 -179.057422 
L 474.849066 -176.173208 
L 475.923154 -173.288994 
L 477.213285 -170.40478 
L 478.729442 -167.520566 
L 480.469517 -164.636351 
L 482.418131 -161.752137 
L 484.546397 -158.867923 
L 486.812673 -155.983709 
L 489.164294 -153.099495 
L 491.540174 -150.215281 
L 493.87415 -147.331066 
L 496.098872 -144.446852 
L 498.150009 -141.562638 
L 499.970474 -138.678424 
L 501.51436 -135.79421 
L 502.750237 -132.909996 
L 503.663457 -130.025782 
L 504.257209 -127.141567 
L 504.552082 -124.257353 
L 504.58409 -121.373139 
L 504.401189 -118.488925 
L 504.058506 -115.604711 
L 503.612636 -112.720497 
L 503.115504 -109.836282 
L 502.608401 -106.952068 
L 502.116894 -104.067854 
L 501.647295 -101.18364 
L 501.185289 -98.299426 
L 500.697124 -95.415212 
L 500.133425 -92.530997 
L 499.435322 -89.646783 
L 498.54221 -86.762569 
L 497.400112 -83.878355 
L 495.969503 -80.994141 
L 494.231478 -78.109927 
L 492.191382 -75.225713 
L 489.87943 -72.341498 
L 487.348311 -69.457284 
L 484.668201 -66.57307 
z
" style="stroke: #000000; stroke-opacity: 0.4"/>
    </defs>
    <g clip-path="url(#p8390460b5f)">
     <use xlink:href="#me1bea627bc" x="0" y="432" style="fill: #35b779; fill-opacity: 0.4; stroke: #000000; stroke-opacity: 0.4"/>
    </g>
   </g>
   <g id="PolyCollection_4">
    <defs>
     <path id="m73faebda0d" d="M 656.849708 -65.480491 
L 608.015379 -65.480491 
L 605.433132 -68.715756 
L 603.01171 -71.951022 
L 600.801503 -75.186287 
L 598.835654 -78.421553 
L 597.128431 -81.656818 
L 595.675997 -84.892084 
L 594.459437 -88.127349 
L 593.449505 -91.362615 
L 592.612304 -94.59788 
L 591.914972 -97.833145 
L 591.330492 -101.068411 
L 590.840964 -104.303676 
L 590.438935 -107.538942 
L 590.126792 -110.774207 
L 589.91452 -114.009473 
L 589.816392 -117.244738 
L 589.847288 -120.480004 
L 590.019315 -123.715269 
L 590.339299 -126.950535 
L 590.807458 -130.1858 
L 591.41735 -133.421066 
L 592.156909 -136.656331 
L 593.010254 -139.891597 
L 593.959797 -143.126862 
L 594.988242 -146.362128 
L 596.080118 -149.597393 
L 597.222662 -152.832658 
L 598.406002 -156.067924 
L 599.622788 -159.303189 
L 600.867468 -162.538455 
L 602.135467 -165.77372 
L 603.422486 -169.008986 
L 604.724057 -172.244251 
L 606.035368 -175.479517 
L 607.351299 -178.714782 
L 608.666548 -181.950048 
L 609.97572 -185.185313 
L 611.273283 -188.420579 
L 612.553399 -191.655844 
L 613.809677 -194.89111 
L 615.034971 -198.126375 
L 616.22135 -201.361641 
L 617.360331 -204.596906 
L 618.44342 -207.832171 
L 619.462886 -211.067437 
L 620.412676 -214.302702 
L 621.289279 -217.537968 
L 622.092384 -220.773233 
L 622.825189 -224.008499 
L 623.494268 -227.243764 
L 624.109011 -230.47903 
L 624.680689 -233.714295 
L 625.221277 -236.949561 
L 625.742193 -240.184826 
L 626.253126 -243.420092 
L 626.761101 -246.655357 
L 627.269891 -249.890623 
L 627.779837 -253.125888 
L 628.288083 -256.361154 
L 628.789164 -259.596419 
L 629.275859 -262.831684 
L 629.740172 -266.06695 
L 630.174313 -269.302215 
L 630.571561 -272.537481 
L 630.926909 -275.772746 
L 631.237431 -279.008012 
L 631.502385 -282.243277 
L 631.723054 -285.478543 
L 631.902405 -288.713808 
L 632.044631 -291.949074 
L 632.154656 -295.184339 
L 632.237662 -298.419605 
L 632.298698 -301.65487 
L 632.342382 -304.890136 
L 632.372708 -308.125401 
L 632.392946 -311.360667 
L 632.405624 -314.595932 
L 632.412547 -317.831197 
L 632.414857 -321.066463 
L 632.413092 -324.301728 
L 632.40726 -327.536994 
L 632.396904 -330.772259 
L 632.381176 -334.007525 
L 632.358928 -337.24279 
L 632.328824 -340.478056 
L 632.289499 -343.713321 
L 632.239746 -346.948587 
L 632.17874 -350.183852 
L 632.106288 -353.419118 
L 632.023048 -356.654383 
L 631.930712 -359.889649 
L 631.832089 -363.124914 
L 631.731067 -366.360179 
L 631.63242 -369.595445 
L 631.541475 -372.83071 
L 631.463651 -376.065976 
L 631.403935 -379.301241 
L 631.366353 -382.536507 
L 631.353523 -385.771772 
L 633.511564 -385.771772 
L 633.511564 -385.771772 
L 633.498734 -382.536507 
L 633.461152 -379.301241 
L 633.401436 -376.065976 
L 633.323612 -372.83071 
L 633.232667 -369.595445 
L 633.13402 -366.360179 
L 633.032997 -363.124914 
L 632.934374 -359.889649 
L 632.842038 -356.654383 
L 632.758798 -353.419118 
L 632.686346 -350.183852 
L 632.625341 -346.948587 
L 632.575587 -343.713321 
L 632.536262 -340.478056 
L 632.506159 -337.24279 
L 632.48391 -334.007525 
L 632.468183 -330.772259 
L 632.457827 -327.536994 
L 632.451995 -324.301728 
L 632.45023 -321.066463 
L 632.452539 -317.831197 
L 632.459463 -314.595932 
L 632.472141 -311.360667 
L 632.492379 -308.125401 
L 632.522704 -304.890136 
L 632.566388 -301.65487 
L 632.627425 -298.419605 
L 632.710431 -295.184339 
L 632.820456 -291.949074 
L 632.962682 -288.713808 
L 633.142033 -285.478543 
L 633.362701 -282.243277 
L 633.627655 -279.008012 
L 633.938178 -275.772746 
L 634.293525 -272.537481 
L 634.690774 -269.302215 
L 635.124915 -266.06695 
L 635.589227 -262.831684 
L 636.075922 -259.596419 
L 636.577004 -256.361154 
L 637.085249 -253.125888 
L 637.595195 -249.890623 
L 638.103985 -246.655357 
L 638.611961 -243.420092 
L 639.122894 -240.184826 
L 639.64381 -236.949561 
L 640.184397 -233.714295 
L 640.756075 -230.47903 
L 641.370819 -227.243764 
L 642.039898 -224.008499 
L 642.772702 -220.773233 
L 643.575808 -217.537968 
L 644.45241 -214.302702 
L 645.4022 -211.067437 
L 646.421667 -207.832171 
L 647.504755 -204.596906 
L 648.643737 -201.361641 
L 649.830115 -198.126375 
L 651.055409 -194.89111 
L 652.311687 -191.655844 
L 653.591803 -188.420579 
L 654.889367 -185.185313 
L 656.198538 -181.950048 
L 657.513788 -178.714782 
L 658.829719 -175.479517 
L 660.141029 -172.244251 
L 661.442601 -169.008986 
L 662.72962 -165.77372 
L 663.997618 -162.538455 
L 665.242298 -159.303189 
L 666.459085 -156.067924 
L 667.642425 -152.832658 
L 668.784968 -149.597393 
L 669.876845 -146.362128 
L 670.905289 -143.126862 
L 671.854832 -139.891597 
L 672.708178 -136.656331 
L 673.447737 -133.421066 
L 674.057628 -130.1858 
L 674.525788 -126.950535 
L 674.845772 -123.715269 
L 675.017799 -120.480004 
L 675.048694 -117.244738 
L 674.950567 -114.009473 
L 674.738295 -110.774207 
L 674.426152 -107.538942 
L 674.024123 -104.303676 
L 673.534595 -101.068411 
L 672.950115 -97.833145 
L 672.252782 -94.59788 
L 671.415582 -91.362615 
L 670.40565 -88.127349 
L 669.189089 -84.892084 
L 667.736656 -81.656818 
L 666.029433 -78.421553 
L 664.063584 -75.186287 
L 661.853376 -71.951022 
L 659.431955 -68.715756 
L 656.849708 -65.480491 
z
" style="stroke: #000000; stroke-opacity: 0.4"/>
    </defs>
    <g clip-path="url(#p8390460b5f)">
     <use xlink:href="#m73faebda0d" x="0" y="432" style="fill: #fde725; fill-opacity: 0.4; stroke: #000000; stroke-opacity: 0.4"/>
    </g>
   </g>
   <g id="matplotlib.axis_1">
    <g id="xtick_1">
     <g id="line2d_1">
      <defs>
       <path id="md4a539ef2e" d="M 0 0 
L 0 3.5 
" style="stroke: #000000; stroke-width: 0.8"/>
      </defs>
      <g>
       <use xlink:href="#md4a539ef2e" x="121.038731" y="384.626418" style="stroke: #000000; stroke-width: 0.8"/>
      </g>
     </g>
     <g id="text_1">
      <!-- Borda rule -->
      <g transform="translate(95.513548 399.236765) scale(0.11 -0.11)">
       <defs>
        <path id="CMR17-42" d="M 333 4352 
L 333 4186 
C 774 4186 845 4186 845 3900 
L 845 452 
C 845 166 774 166 333 166 
L 333 0 
L 2534 0 
C 3354 0 3885 583 3885 1164 
C 3885 1741 3360 2233 2675 2233 
C 3290 2356 3718 2771 3718 3264 
C 3718 3802 3194 4352 2368 4352 
L 333 4352 
z
M 1248 2304 
L 1248 3937 
C 1248 4155 1261 4186 1517 4186 
L 2336 4186 
C 2970 4186 3251 3674 3251 3277 
C 3251 2791 2861 2304 2170 2304 
L 1248 2304 
z
M 1517 166 
C 1261 166 1248 197 1248 413 
L 1248 2202 
L 2432 2202 
C 3091 2202 3411 1625 3411 1162 
C 3411 699 3046 166 2349 166 
L 1517 166 
z
" transform="scale(0.015625)"/>
        <path id="CMR17-6f" d="M 2758 1356 
C 2758 2176 2163 2816 1466 2816 
C 768 2816 173 2176 173 1356 
C 173 551 768 -64 1466 -64 
C 2163 -64 2758 551 2758 1356 
z
M 1466 51 
C 1165 51 909 230 762 480 
C 602 767 582 1126 582 1408 
C 582 1677 595 2010 762 2298 
C 890 2509 1139 2714 1466 2714 
C 1754 2714 1997 2554 2150 2330 
C 2349 2029 2349 1607 2349 1408 
C 2349 1158 2336 775 2163 467 
C 1984 173 1709 51 1466 51 
z
" transform="scale(0.015625)"/>
        <path id="CMR17-72" d="M 960 1497 
C 960 2112 1222 2688 1702 2688 
C 1747 2688 1792 2682 1837 2662 
C 1837 2662 1696 2617 1696 2452 
C 1696 2298 1818 2234 1914 2234 
C 1990 2234 2131 2279 2131 2458 
C 2131 2663 1926 2790 1709 2790 
C 1222 2790 1011 2317 947 2093 
L 941 2093 
L 941 2790 
L 198 2720 
L 198 2554 
C 576 2554 634 2515 634 2208 
L 634 428 
C 634 184 608 153 198 153 
L 198 -13 
C 352 0 646 0 813 0 
C 998 0 1325 0 1498 -13 
L 1498 153 
C 1037 153 960 153 960 440 
L 960 1497 
z
" transform="scale(0.015625)"/>
        <path id="CMR17-64" d="M 1869 4326 
L 1869 4160 
C 2246 4160 2304 4122 2304 3820 
L 2304 2345 
C 2278 2377 2016 2790 1498 2790 
C 845 2790 211 2208 211 1364 
C 211 525 806 -64 1434 -64 
C 1978 -64 2259 337 2291 380 
L 2291 -63 
L 3066 -63 
L 3066 128 
C 2688 128 2630 166 2630 473 
L 2630 4396 
L 1869 4326 
z
M 2291 755 
C 2291 563 2176 390 2029 262 
C 1811 70 1594 38 1472 38 
C 1286 38 621 134 621 1356 
C 621 2612 1363 2688 1530 2688 
C 1824 2688 2061 2522 2208 2291 
C 2291 2157 2291 2138 2291 2023 
L 2291 755 
z
" transform="scale(0.015625)"/>
        <path id="CMR17-61" d="M 2304 1653 
C 2304 2072 2304 2294 2035 2543 
C 1798 2752 1523 2816 1306 2816 
C 800 2816 435 2407 435 1971 
C 435 1728 627 1728 666 1728 
C 749 1728 896 1778 896 1954 
C 896 2112 774 2181 666 2181 
C 640 2181 608 2174 589 2168 
C 723 2592 1069 2714 1293 2714 
C 1613 2714 1965 2429 1965 1885 
L 1965 1600 
C 1587 1600 1133 1549 774 1357 
C 371 1133 256 813 256 570 
C 256 77 832 -64 1171 -64 
C 1523 -64 1850 139 1990 511 
C 2003 233 2182 -18 2464 -18 
C 2598 -18 2938 70 2938 567 
L 2938 920 
L 2822 920 
L 2822 562 
C 2822 178 2650 128 2566 128 
C 2304 128 2304 458 2304 738 
L 2304 1653 
z
M 1965 870 
C 1965 317 1568 38 1216 38 
C 896 38 646 275 646 570 
C 646 761 730 1100 1101 1305 
C 1408 1478 1760 1504 1965 1504 
L 1965 870 
z
" transform="scale(0.015625)"/>
        <path id="CMR17-75" d="M 1882 2693 
L 1882 2528 
C 2259 2528 2317 2489 2317 2186 
L 2317 1032 
C 2317 500 2029 38 1555 38 
C 1030 38 986 348 986 678 
L 986 2763 
L 211 2693 
L 211 2528 
C 467 2528 640 2528 646 2274 
L 646 1058 
C 646 633 646 361 813 183 
C 896 101 1056 -64 1517 -64 
C 2061 -64 2272 377 2323 506 
L 2330 506 
L 2330 -63 
L 3091 -63 
L 3091 128 
C 2714 128 2656 166 2656 473 
L 2656 2763 
L 1882 2693 
z
" transform="scale(0.015625)"/>
        <path id="CMR17-6c" d="M 979 4396 
L 218 4326 
L 218 4160 
C 595 4160 653 4122 653 3817 
L 653 426 
C 653 184 627 153 218 153 
L 218 -13 
C 371 0 653 0 813 0 
C 979 0 1261 0 1414 -13 
L 1414 153 
C 1005 153 979 178 979 426 
L 979 4396 
z
" transform="scale(0.015625)"/>
        <path id="CMR17-65" d="M 2438 1472 
C 2464 1498 2464 1511 2464 1576 
C 2464 2238 2118 2816 1389 2816 
C 710 2816 173 2169 173 1383 
C 173 551 781 -64 1459 -64 
C 2176 -64 2458 607 2458 740 
C 2458 784 2419 784 2406 784 
C 2362 784 2355 771 2330 696 
C 2189 265 1837 51 1504 51 
C 1229 51 954 203 781 480 
C 582 803 582 1176 582 1472 
L 2438 1472 
z
M 589 1568 
C 634 2505 1126 2714 1382 2714 
C 1818 2714 2112 2297 2118 1568 
L 589 1568 
z
" transform="scale(0.015625)"/>
       </defs>
       <use xlink:href="#CMR17-42" transform="scale(0.996264)"/>
       <use xlink:href="#CMR17-6f" transform="translate(65.188754 0) scale(0.996264)"/>
       <use xlink:href="#CMR17-72" transform="translate(110.879232 0) scale(0.996264)"/>
       <use xlink:href="#CMR17-64" transform="translate(146.159999 0) scale(0.996264)"/>
       <use xlink:href="#CMR17-61" transform="translate(197.055369 0) scale(0.996264)"/>
       <use xlink:href="#CMR17-72" transform="translate(272.821813 0) scale(0.996264)"/>
       <use xlink:href="#CMR17-75" transform="translate(308.10258 0) scale(0.996264)"/>
       <use xlink:href="#CMR17-6c" transform="translate(358.99795 0) scale(0.996264)"/>
       <use xlink:href="#CMR17-65" transform="translate(383.869009 0) scale(0.996264)"/>
      </g>
     </g>
    </g>
    <g id="xtick_2">
     <g id="line2d_2">
      <g>
       <use xlink:href="#md4a539ef2e" x="291.503335" y="384.626418" style="stroke: #000000; stroke-width: 0.8"/>
      </g>
     </g>
     <g id="text_2">
      <!-- Copeland's Rule -->
      <g transform="translate(252.279506 399.236765) scale(0.11 -0.11)">
       <defs>
        <path id="CMR17-43" d="M 3974 4289 
C 3974 4403 3968 4410 3930 4410 
C 3904 4410 3898 4403 3853 4327 
L 3571 3792 
C 3258 4187 2874 4416 2381 4416 
C 1286 4416 294 3456 294 2148 
C 294 826 1286 -128 2387 -128 
C 3366 -128 3974 730 3974 1461 
C 3974 1524 3974 1550 3917 1550 
C 3866 1550 3866 1531 3859 1474 
C 3808 585 3168 38 2477 38 
C 1824 38 781 495 781 2147 
C 781 3805 1843 4250 2464 4250 
C 3187 4250 3712 3628 3834 2745 
C 3846 2668 3846 2655 3904 2655 
C 3974 2655 3974 2668 3974 2783 
L 3974 4289 
z
" transform="scale(0.015625)"/>
        <path id="CMR17-70" d="M 1408 -1063 
C 998 -1063 973 -1037 973 -789 
L 973 402 
C 1158 134 1427 -38 1766 -38 
C 2406 -38 3053 523 3053 1388 
C 3053 2191 2496 2802 1837 2802 
C 1453 2802 1139 2592 960 2338 
L 960 2802 
L 198 2732 
L 198 2567 
C 576 2567 634 2528 634 2223 
L 634 -789 
C 634 -1031 608 -1063 198 -1063 
L 198 -1228 
C 352 -1216 634 -1216 800 -1216 
C 966 -1216 1254 -1216 1408 -1228 
L 1408 -1063 
z
M 973 2012 
C 973 2102 973 2235 1222 2471 
C 1254 2497 1472 2688 1792 2688 
C 2259 2688 2643 2108 2643 1382 
C 2643 656 2234 64 1728 64 
C 1498 64 1248 172 1056 472 
C 973 612 973 650 973 752 
L 973 2012 
z
" transform="scale(0.015625)"/>
        <path id="CMR17-6e" d="M 2656 1933 
C 2656 2259 2592 2790 1837 2790 
C 1331 2790 1069 2400 973 2144 
L 966 2144 
L 966 2790 
L 211 2720 
L 211 2554 
C 589 2554 646 2515 646 2208 
L 646 428 
C 646 184 621 153 211 153 
L 211 -13 
C 365 0 646 0 813 0 
C 979 0 1267 0 1421 -13 
L 1421 153 
C 1011 153 986 178 986 428 
L 986 1658 
C 986 2247 1344 2688 1792 2688 
C 2266 2688 2317 2266 2317 1958 
L 2317 428 
C 2317 184 2291 153 1882 153 
L 1882 -13 
C 2035 0 2317 0 2483 0 
C 2650 0 2938 0 3091 -13 
L 3091 153 
C 2682 153 2656 178 2656 428 
L 2656 1933 
z
" transform="scale(0.015625)"/>
        <path id="CMR17-27" d="M 1024 4025 
C 1037 3955 1043 3929 1043 3820 
C 1043 3415 883 3042 634 2778 
C 608 2752 595 2733 595 2707 
C 595 2681 621 2656 646 2656 
C 691 2656 1146 3105 1146 3811 
C 1146 3952 1133 4426 800 4426 
C 659 4426 538 4331 538 4165 
C 538 3999 659 3904 800 3904 
C 858 3904 966 3923 1024 4025 
z
" transform="scale(0.015625)"/>
        <path id="CMR17-73" d="M 1978 2697 
C 1978 2813 1971 2819 1933 2819 
C 1907 2819 1901 2813 1824 2717 
C 1805 2691 1747 2626 1728 2601 
C 1523 2819 1235 2819 1126 2819 
C 416 2819 160 2447 160 2076 
C 160 1498 813 1365 998 1325 
C 1402 1243 1542 1217 1677 1101 
C 1760 1025 1901 884 1901 654 
C 1901 384 1747 38 1158 38 
C 602 38 403 460 288 1021 
C 269 1110 269 1117 218 1117 
C 166 1117 160 1110 160 983 
L 160 63 
C 160 -51 166 -58 205 -58 
C 237 -58 243 -51 275 0 
C 314 57 410 211 448 276 
C 576 103 800 -64 1158 -64 
C 1792 -64 2131 283 2131 784 
C 2131 1112 1958 1285 1875 1362 
C 1683 1561 1459 1606 1190 1657 
C 838 1735 390 1825 390 2217 
C 390 2383 480 2737 1126 2737 
C 1811 2737 1850 2094 1862 1888 
C 1869 1856 1901 1849 1920 1849 
C 1978 1849 1978 1869 1978 1978 
L 1978 2697 
z
" transform="scale(0.015625)"/>
        <path id="CMR17-52" d="M 2509 2146 
C 3117 2268 3629 2676 3629 3186 
C 3629 3785 2950 4326 2054 4326 
L 333 4326 
L 333 4160 
C 774 4160 845 4160 845 3873 
L 845 415 
C 845 128 774 128 333 128 
L 333 -26 
C 518 -26 851 -26 1050 -26 
C 1248 -26 1581 -26 1766 -26 
L 1766 128 
C 1325 128 1254 128 1254 417 
L 1254 2112 
L 2003 2112 
C 2368 2112 2573 1964 2662 1881 
C 2918 1632 2918 1459 2918 1024 
C 2918 595 2918 377 3110 160 
C 3354 -102 3680 -128 3821 -128 
C 4294 -128 4365 396 4365 503 
C 4365 540 4365 585 4307 585 
C 4256 585 4250 547 4250 522 
C 4218 112 4032 -26 3834 -26 
C 3482 -26 3443 375 3405 764 
C 3386 898 3373 993 3360 1133 
C 3322 1452 3270 1917 2509 2146 
z
M 1984 2214 
L 1254 2214 
L 1254 3913 
C 1254 4129 1267 4160 1523 4160 
L 1990 4160 
C 2522 4160 3142 3977 3142 3190 
C 3142 2372 2464 2214 1984 2214 
z
" transform="scale(0.015625)"/>
       </defs>
       <use xlink:href="#CMR17-43" transform="scale(0.996264)"/>
       <use xlink:href="#CMR17-6f" transform="translate(66.509881 0) scale(0.996264)"/>
       <use xlink:href="#CMR17-70" transform="translate(112.200358 0) scale(0.996264)"/>
       <use xlink:href="#CMR17-65" transform="translate(165.698166 0) scale(0.996264)"/>
       <use xlink:href="#CMR17-6c" transform="translate(206.183827 0) scale(0.996264)"/>
       <use xlink:href="#CMR17-61" transform="translate(231.054885 0) scale(0.996264)"/>
       <use xlink:href="#CMR17-6e" transform="translate(276.745362 0) scale(0.996264)"/>
       <use xlink:href="#CMR17-64" transform="translate(327.640732 0) scale(0.996264)"/>
       <use xlink:href="#CMR17-27" transform="translate(378.536102 0) scale(0.996264)"/>
       <use xlink:href="#CMR17-73" transform="translate(403.40716 0) scale(0.996264)"/>
       <use xlink:href="#CMR17-52" transform="translate(469.284464 0) scale(0.996264)"/>
       <use xlink:href="#CMR17-75" transform="translate(537.075566 0) scale(0.996264)"/>
       <use xlink:href="#CMR17-6c" transform="translate(587.970936 0) scale(0.996264)"/>
       <use xlink:href="#CMR17-65" transform="translate(612.841994 0) scale(0.996264)"/>
      </g>
     </g>
    </g>
    <g id="xtick_3">
     <g id="line2d_3">
      <g>
       <use xlink:href="#md4a539ef2e" x="461.967939" y="384.626418" style="stroke: #000000; stroke-width: 0.8"/>
      </g>
     </g>
     <g id="text_3">
      <!-- Plurality rule -->
      <g transform="translate(429.897856 399.236765) scale(0.11 -0.11)">
       <defs>
        <path id="CMR17-50" d="M 1267 2042 
L 2291 2042 
C 3117 2042 3718 2578 3718 3184 
C 3718 3791 3130 4352 2291 4352 
L 333 4352 
L 333 4186 
C 774 4186 845 4186 845 3899 
L 845 446 
C 845 160 774 160 333 160 
L 333 0 
C 518 0 858 0 1056 0 
C 1254 0 1594 0 1779 0 
L 1779 160 
C 1338 160 1267 160 1267 446 
L 1267 2042 
z
M 1254 2176 
L 1254 3938 
C 1254 4155 1267 4186 1523 4186 
L 2170 4186 
C 2995 4186 3232 3714 3232 3184 
C 3232 2604 2950 2176 2170 2176 
L 1254 2176 
z
" transform="scale(0.015625)"/>
        <path id="CMR17-69" d="M 992 3909 
C 992 4049 877 4170 730 4170 
C 589 4170 467 4056 467 3909 
C 467 3769 582 3648 730 3648 
C 870 3648 992 3763 992 3909 
z
M 243 2706 
L 243 2541 
C 602 2541 653 2502 653 2197 
L 653 427 
C 653 184 627 153 218 153 
L 218 -13 
C 371 0 646 0 806 0 
C 960 0 1222 0 1370 -13 
L 1370 153 
C 992 153 979 191 979 420 
L 979 2776 
L 243 2706 
z
" transform="scale(0.015625)"/>
        <path id="CMR17-74" d="M 966 2560 
L 1862 2560 
L 1862 2725 
L 966 2725 
L 966 3904 
L 851 3904 
C 838 3245 614 2668 70 2668 
L 70 2560 
L 627 2560 
L 627 771 
C 627 650 627 -64 1370 -64 
C 1747 -64 1965 306 1965 777 
L 1965 1140 
L 1850 1140 
L 1850 783 
C 1850 344 1677 51 1408 51 
C 1222 51 966 178 966 758 
L 966 2560 
z
" transform="scale(0.015625)"/>
        <path id="CMR17-79" d="M 2496 2197 
C 2656 2586 2944 2586 3034 2586 
L 3034 2752 
C 2912 2752 2752 2752 2630 2752 
C 2496 2752 2285 2752 2157 2758 
L 2157 2592 
C 2400 2573 2406 2394 2406 2343 
C 2406 2280 2394 2248 2362 2171 
L 1664 449 
L 902 2306 
C 870 2382 870 2426 870 2433 
C 870 2573 1018 2586 1171 2586 
L 1171 2758 
C 1018 2752 742 2752 582 2752 
C 410 2752 205 2752 64 2758 
L 64 2586 
C 410 2586 448 2554 531 2350 
L 1485 15 
C 1197 -738 1030 -1178 627 -1178 
C 557 -1178 397 -1159 282 -1044 
C 429 -1031 493 -942 493 -833 
C 493 -725 416 -629 288 -629 
C 147 -629 77 -725 77 -840 
C 77 -1095 339 -1280 627 -1280 
C 998 -1280 1229 -922 1357 -604 
L 2496 2197 
z
" transform="scale(0.015625)"/>
       </defs>
       <use xlink:href="#CMR17-50" transform="scale(0.996264)"/>
       <use xlink:href="#CMR17-6c" transform="translate(62.586301 0) scale(0.996264)"/>
       <use xlink:href="#CMR17-75" transform="translate(87.457359 0) scale(0.996264)"/>
       <use xlink:href="#CMR17-72" transform="translate(138.352729 0) scale(0.996264)"/>
       <use xlink:href="#CMR17-61" transform="translate(173.633497 0) scale(0.996264)"/>
       <use xlink:href="#CMR17-6c" transform="translate(219.323974 0) scale(0.996264)"/>
       <use xlink:href="#CMR17-69" transform="translate(244.195032 0) scale(0.996264)"/>
       <use xlink:href="#CMR17-74" transform="translate(269.066091 0) scale(0.996264)"/>
       <use xlink:href="#CMR17-79" transform="translate(301.744405 0) scale(0.996264)"/>
       <use xlink:href="#CMR17-72" transform="translate(380.113287 0) scale(0.996264)"/>
       <use xlink:href="#CMR17-75" transform="translate(415.394055 0) scale(0.996264)"/>
       <use xlink:href="#CMR17-6c" transform="translate(466.289424 0) scale(0.996264)"/>
       <use xlink:href="#CMR17-65" transform="translate(491.160483 0) scale(0.996264)"/>
      </g>
     </g>
    </g>
    <g id="xtick_4">
     <g id="line2d_4">
      <g>
       <use xlink:href="#md4a539ef2e" x="632.432543" y="384.626418" style="stroke: #000000; stroke-width: 0.8"/>
      </g>
     </g>
     <g id="text_4">
      <!-- Black's Rule -->
      <g transform="translate(602.569478 399.236765) scale(0.11 -0.11)">
       <defs>
        <path id="CMR17-63" d="M 2234 2240 
C 2112 2240 1933 2240 1933 2017 
C 1933 1838 2080 1787 2163 1787 
C 2208 1787 2394 1807 2394 2024 
C 2394 2467 1958 2803 1466 2803 
C 787 2803 211 2178 211 1363 
C 211 516 813 -64 1466 -64 
C 2259 -64 2458 677 2458 748 
C 2458 774 2451 793 2406 793 
C 2362 793 2355 787 2330 703 
C 2163 180 1798 51 1523 51 
C 1114 51 621 427 621 1369 
C 621 2338 1094 2688 1472 2688 
C 1722 2688 2093 2573 2234 2240 
z
" transform="scale(0.015625)"/>
        <path id="CMR17-6b" d="M 1670 1673 
C 1664 1686 1632 1724 1632 1743 
C 1632 1756 2086 2171 2144 2222 
C 2509 2528 2739 2560 2906 2560 
L 2906 2733 
C 2867 2733 2854 2733 2848 2720 
L 2534 2720 
C 2355 2720 2080 2720 1907 2733 
L 1907 2566 
C 1997 2559 2061 2508 2061 2419 
C 2061 2291 1933 2170 1926 2170 
L 960 1289 
L 960 4396 
L 198 4326 
L 198 4160 
C 576 4160 634 4122 634 3817 
L 634 426 
C 634 184 608 153 198 153 
L 198 -13 
C 352 0 634 0 794 0 
C 954 0 1235 0 1389 -13 
L 1389 153 
C 979 153 954 178 954 428 
L 954 1130 
L 1395 1532 
L 2042 574 
C 2118 459 2182 369 2182 286 
C 2182 172 2067 153 1990 153 
L 1990 -13 
C 2144 0 2419 0 2579 0 
C 2694 0 2931 0 3040 0 
L 3040 153 
C 2739 153 2669 210 2477 491 
L 1670 1673 
z
" transform="scale(0.015625)"/>
       </defs>
       <use xlink:href="#CMR17-42" transform="scale(0.996264)"/>
       <use xlink:href="#CMR17-6c" transform="translate(65.188754 0) scale(0.996264)"/>
       <use xlink:href="#CMR17-61" transform="translate(90.059813 0) scale(0.996264)"/>
       <use xlink:href="#CMR17-63" transform="translate(135.75029 0) scale(0.996264)"/>
       <use xlink:href="#CMR17-6b" transform="translate(173.633497 0) scale(0.996264)"/>
       <use xlink:href="#CMR17-27" transform="translate(221.926412 0) scale(0.996264)"/>
       <use xlink:href="#CMR17-73" transform="translate(246.797471 0) scale(0.996264)"/>
       <use xlink:href="#CMR17-52" transform="translate(312.674775 0) scale(0.996264)"/>
       <use xlink:href="#CMR17-75" transform="translate(380.465877 0) scale(0.996264)"/>
       <use xlink:href="#CMR17-6c" transform="translate(431.361247 0) scale(0.996264)"/>
       <use xlink:href="#CMR17-65" transform="translate(456.232305 0) scale(0.996264)"/>
      </g>
     </g>
    </g>
    <g id="text_5">
     <!-- Number of voters -->
     <g transform="translate(328.442607 414.361688) scale(0.13 -0.13)">
      <defs>
       <path id="CMR17-4e" d="M 1312 4250 
C 1267 4320 1261 4320 1139 4320 
L 326 4320 
L 326 4160 
L 448 4160 
C 704 4160 819 4129 838 4122 
L 838 610 
C 838 451 838 153 326 153 
L 326 -13 
C 474 0 742 0 902 0 
C 1062 0 1331 0 1478 -13 
L 1478 153 
C 966 153 966 451 966 610 
L 966 4033 
C 1011 3995 1011 3982 1056 3919 
L 3430 76 
C 3475 0 3494 0 3526 0 
C 3590 0 3590 19 3590 139 
L 3590 3705 
C 3590 3863 3590 4160 4102 4160 
L 4102 4326 
C 3955 4320 3686 4320 3526 4320 
C 3366 4320 3098 4320 2950 4326 
L 2950 4160 
C 3462 4160 3462 3862 3462 3703 
L 3462 763 
L 1312 4250 
z
" transform="scale(0.015625)"/>
       <path id="CMR17-6d" d="M 4326 1933 
C 4326 2252 4269 2790 3507 2790 
C 3072 2790 2771 2496 2656 2151 
L 2650 2151 
C 2573 2676 2195 2790 1837 2790 
C 1331 2790 1069 2400 973 2144 
L 966 2144 
L 966 2790 
L 211 2720 
L 211 2554 
C 589 2554 646 2515 646 2208 
L 646 428 
C 646 184 621 153 211 153 
L 211 -13 
C 365 0 646 0 813 0 
C 979 0 1267 0 1421 -13 
L 1421 153 
C 1011 153 986 178 986 428 
L 986 1658 
C 986 2247 1344 2688 1792 2688 
C 2266 2688 2317 2266 2317 1958 
L 2317 428 
C 2317 184 2291 153 1882 153 
L 1882 -13 
C 2035 0 2317 0 2483 0 
C 2650 0 2938 0 3091 -13 
L 3091 153 
C 2682 153 2656 178 2656 428 
L 2656 1658 
C 2656 2247 3014 2688 3462 2688 
C 3936 2688 3987 2266 3987 1958 
L 3987 428 
C 3987 184 3962 153 3552 153 
L 3552 -13 
C 3706 0 3987 0 4154 0 
C 4320 0 4608 0 4762 -13 
L 4762 153 
C 4352 153 4326 178 4326 428 
L 4326 1933 
z
" transform="scale(0.015625)"/>
       <path id="CMR17-62" d="M 960 4396 
L 198 4326 
L 198 4160 
C 576 4160 634 4122 634 3817 
L 634 -13 
L 749 -13 
L 934 441 
C 1120 141 1395 -64 1766 -64 
C 2406 -64 3053 500 3053 1370 
C 3053 2188 2477 2790 1830 2790 
C 1434 2790 1152 2579 960 2330 
L 960 4396 
z
M 973 2004 
C 973 2118 973 2138 1062 2272 
C 1312 2657 1670 2688 1792 2688 
C 1984 2688 2643 2585 2643 1376 
C 2643 108 1888 38 1734 38 
C 1536 38 1248 114 1043 486 
C 973 608 973 621 973 735 
L 973 2004 
z
" transform="scale(0.015625)"/>
       <path id="CMR17-66" d="M 979 2560 
L 1709 2560 
L 1709 2725 
L 966 2725 
L 966 3494 
C 966 4022 1235 4352 1510 4352 
C 1594 4352 1690 4327 1754 4282 
C 1702 4269 1568 4225 1568 4067 
C 1568 3901 1696 3850 1786 3850 
C 1875 3850 2003 3901 2003 4067 
C 2003 4308 1773 4454 1517 4454 
C 1152 4454 653 4156 653 3481 
L 653 2725 
L 141 2725 
L 141 2560 
L 653 2560 
L 653 427 
C 653 184 627 153 218 153 
L 218 -13 
C 371 0 666 0 832 0 
C 1018 0 1344 0 1517 -13 
L 1517 153 
C 1056 153 979 153 979 439 
L 979 2560 
z
" transform="scale(0.015625)"/>
       <path id="CMR17-76" d="M 2502 2163 
C 2560 2304 2662 2560 3034 2560 
L 3034 2726 
C 2912 2726 2752 2726 2630 2726 
C 2496 2726 2285 2726 2157 2732 
L 2157 2566 
C 2317 2553 2406 2477 2406 2311 
C 2406 2253 2406 2240 2368 2151 
L 1664 377 
L 902 2286 
C 864 2369 864 2381 864 2407 
C 864 2560 1075 2560 1171 2560 
L 1171 2732 
C 1018 2726 736 2726 576 2726 
C 403 2726 205 2726 64 2732 
L 64 2560 
C 307 2560 442 2560 518 2362 
L 1446 44 
C 1485 -51 1491 -64 1549 -64 
C 1606 -64 1613 -51 1651 44 
L 2502 2163 
z
" transform="scale(0.015625)"/>
      </defs>
      <use xlink:href="#CMR17-4e" transform="scale(0.996264)"/>
      <use xlink:href="#CMR17-75" transform="translate(69.07243 0) scale(0.996264)"/>
      <use xlink:href="#CMR17-6d" transform="translate(119.9678 0) scale(0.996264)"/>
      <use xlink:href="#CMR17-62" transform="translate(194.284936 0) scale(0.996264)"/>
      <use xlink:href="#CMR17-65" transform="translate(247.782744 0) scale(0.996264)"/>
      <use xlink:href="#CMR17-72" transform="translate(288.268404 0) scale(0.996264)"/>
      <use xlink:href="#CMR17-6f" transform="translate(353.625139 0) scale(0.996264)"/>
      <use xlink:href="#CMR17-66" transform="translate(399.315616 0) scale(0.996264)"/>
      <use xlink:href="#CMR17-76" transform="translate(456.865095 0) scale(0.996264)"/>
      <use xlink:href="#CMR17-6f" transform="translate(502.555556 0) scale(0.996264)"/>
      <use xlink:href="#CMR17-74" transform="translate(548.246034 0) scale(0.996264)"/>
      <use xlink:href="#CMR17-65" transform="translate(583.526801 0) scale(0.996264)"/>
      <use xlink:href="#CMR17-72" transform="translate(624.012462 0) scale(0.996264)"/>
      <use xlink:href="#CMR17-73" transform="translate(659.29323 0) scale(0.996264)"/>
     </g>
    </g>
   </g>
   <g id="matplotlib.axis_2">
    <g id="ytick_1">
     <g id="line2d_5">
      <path d="M 48.591275 338.301143 
L 704.88 338.301143 
" clip-path="url(#p8390460b5f)" style="fill: none; stroke: #b0b0b0; stroke-opacity: 0.3; stroke-linecap: square"/>
     </g>
     <g id="line2d_6">
      <defs>
       <path id="m0c7852016a" d="M 0 0 
L -3.5 0 
" style="stroke: #000000; stroke-width: 0.8"/>
      </defs>
      <g>
       <use xlink:href="#m0c7852016a" x="48.591275" y="338.301143" style="stroke: #000000; stroke-width: 0.8"/>
      </g>
     </g>
     <g id="text_6">
      <!-- $\mathdefault{2}$ -->
      <g transform="translate(36.111807 342.106316) scale(0.11 -0.11)">
       <defs>
        <path id="CMR17-32" d="M 2669 989 
L 2554 989 
C 2490 536 2438 459 2413 420 
C 2381 369 1920 369 1830 369 
L 602 369 
C 832 619 1280 1072 1824 1597 
C 2214 1967 2669 2402 2669 3035 
C 2669 3790 2067 4224 1395 4224 
C 691 4224 262 3604 262 3030 
C 262 2780 448 2748 525 2748 
C 589 2748 781 2787 781 3010 
C 781 3207 614 3264 525 3264 
C 486 3264 448 3258 422 3245 
C 544 3790 915 4058 1306 4058 
C 1862 4058 2227 3617 2227 3035 
C 2227 2479 1901 2000 1536 1584 
L 262 146 
L 262 0 
L 2515 0 
L 2669 989 
z
" transform="scale(0.015625)"/>
       </defs>
       <use xlink:href="#CMR17-32" transform="scale(0.996264)"/>
      </g>
     </g>
    </g>
    <g id="ytick_2">
     <g id="line2d_7">
      <path d="M 48.591275 276.045238 
L 704.88 276.045238 
" clip-path="url(#p8390460b5f)" style="fill: none; stroke: #b0b0b0; stroke-opacity: 0.3; stroke-linecap: square"/>
     </g>
     <g id="line2d_8">
      <g>
       <use xlink:href="#m0c7852016a" x="48.591275" y="276.045238" style="stroke: #000000; stroke-width: 0.8"/>
      </g>
     </g>
     <g id="text_7">
      <!-- $\mathdefault{4}$ -->
      <g transform="translate(36.111807 279.850411) scale(0.11 -0.11)">
       <defs>
        <path id="CMR17-34" d="M 2150 4122 
C 2150 4256 2144 4256 2029 4256 
L 128 1254 
L 128 1088 
L 1779 1088 
L 1779 457 
C 1779 224 1766 160 1318 160 
L 1197 160 
L 1197 0 
C 1402 0 1747 0 1965 0 
C 2182 0 2528 0 2733 0 
L 2733 160 
L 2611 160 
C 2163 160 2150 224 2150 457 
L 2150 1088 
L 2803 1088 
L 2803 1254 
L 2150 1254 
L 2150 4122 
z
M 1798 3703 
L 1798 1254 
L 256 1254 
L 1798 3703 
z
" transform="scale(0.015625)"/>
       </defs>
       <use xlink:href="#CMR17-34" transform="scale(0.996264)"/>
      </g>
     </g>
    </g>
    <g id="ytick_3">
     <g id="line2d_9">
      <path d="M 48.591275 213.789333 
L 704.88 213.789333 
" clip-path="url(#p8390460b5f)" style="fill: none; stroke: #b0b0b0; stroke-opacity: 0.3; stroke-linecap: square"/>
     </g>
     <g id="line2d_10">
      <g>
       <use xlink:href="#m0c7852016a" x="48.591275" y="213.789333" style="stroke: #000000; stroke-width: 0.8"/>
      </g>
     </g>
     <g id="text_8">
      <!-- $\mathdefault{6}$ -->
      <g transform="translate(36.111807 217.594507) scale(0.11 -0.11)">
       <defs>
        <path id="CMR17-36" d="M 678 2176 
C 678 3690 1395 4032 1811 4032 
C 1946 4032 2272 4009 2400 3776 
C 2298 3776 2106 3776 2106 3553 
C 2106 3381 2246 3323 2336 3323 
C 2394 3323 2566 3348 2566 3560 
C 2566 3954 2246 4179 1805 4179 
C 1043 4179 243 3390 243 1984 
C 243 253 966 -128 1478 -128 
C 2099 -128 2688 427 2688 1283 
C 2688 2081 2170 2662 1517 2662 
C 1126 2662 838 2407 678 1960 
L 678 2176 
z
M 1478 25 
C 691 25 691 1200 691 1436 
C 691 1896 909 2560 1504 2560 
C 1613 2560 1926 2560 2138 2120 
C 2253 1870 2253 1609 2253 1289 
C 2253 944 2253 690 2118 434 
C 1978 171 1773 25 1478 25 
z
" transform="scale(0.015625)"/>
       </defs>
       <use xlink:href="#CMR17-36" transform="scale(0.996264)"/>
      </g>
     </g>
    </g>
    <g id="ytick_4">
     <g id="line2d_11">
      <path d="M 48.591275 151.533428 
L 704.88 151.533428 
" clip-path="url(#p8390460b5f)" style="fill: none; stroke: #b0b0b0; stroke-opacity: 0.3; stroke-linecap: square"/>
     </g>
     <g id="line2d_12">
      <g>
       <use xlink:href="#m0c7852016a" x="48.591275" y="151.533428" style="stroke: #000000; stroke-width: 0.8"/>
      </g>
     </g>
     <g id="text_9">
      <!-- $\mathdefault{8}$ -->
      <g transform="translate(36.111807 155.338602) scale(0.11 -0.11)">
       <defs>
        <path id="CMR17-38" d="M 1741 2264 
C 2144 2467 2554 2773 2554 3263 
C 2554 3841 1990 4179 1472 4179 
C 890 4179 378 3759 378 3180 
C 378 3021 416 2747 666 2505 
C 730 2442 998 2251 1171 2130 
C 883 1983 211 1634 211 934 
C 211 279 838 -128 1459 -128 
C 2144 -128 2720 362 2720 1010 
C 2720 1590 2330 1857 2074 2029 
L 1741 2264 
z
M 902 2822 
C 851 2854 595 3051 595 3351 
C 595 3739 998 4032 1459 4032 
C 1965 4032 2336 3676 2336 3262 
C 2336 2669 1670 2331 1638 2331 
C 1632 2331 1626 2331 1574 2370 
L 902 2822 
z
M 2080 1519 
C 2176 1449 2483 1240 2483 851 
C 2483 381 2010 25 1472 25 
C 890 25 448 438 448 940 
C 448 1443 838 1862 1280 2060 
L 2080 1519 
z
" transform="scale(0.015625)"/>
       </defs>
       <use xlink:href="#CMR17-38" transform="scale(0.996264)"/>
      </g>
     </g>
    </g>
    <g id="ytick_5">
     <g id="line2d_13">
      <path d="M 48.591275 89.277524 
L 704.88 89.277524 
" clip-path="url(#p8390460b5f)" style="fill: none; stroke: #b0b0b0; stroke-opacity: 0.3; stroke-linecap: square"/>
     </g>
     <g id="line2d_14">
      <g>
       <use xlink:href="#m0c7852016a" x="48.591275" y="89.277524" style="stroke: #000000; stroke-width: 0.8"/>
      </g>
     </g>
     <g id="text_10">
      <!-- $\mathdefault{10}$ -->
      <g transform="translate(30.63234 93.082697) scale(0.11 -0.11)">
       <defs>
        <path id="CMR17-31" d="M 1702 4058 
C 1702 4192 1696 4192 1606 4192 
C 1357 3916 979 3827 621 3827 
C 602 3827 570 3827 563 3808 
C 557 3795 557 3782 557 3648 
C 755 3648 1088 3686 1344 3839 
L 1344 461 
C 1344 236 1331 160 781 160 
L 589 160 
L 589 0 
C 896 0 1216 0 1523 0 
C 1830 0 2150 0 2458 0 
L 2458 160 
L 2266 160 
C 1715 160 1702 230 1702 458 
L 1702 4058 
z
" transform="scale(0.015625)"/>
        <path id="CMR17-30" d="M 2688 2025 
C 2688 2416 2682 3080 2413 3591 
C 2176 4039 1798 4198 1466 4198 
C 1158 4198 768 4058 525 3597 
C 269 3118 243 2524 243 2025 
C 243 1661 250 1106 448 619 
C 723 -39 1216 -128 1466 -128 
C 1760 -128 2208 -7 2470 600 
C 2662 1042 2688 1559 2688 2025 
z
M 1466 -26 
C 1056 -26 813 325 723 812 
C 653 1188 653 1738 653 2096 
C 653 2588 653 2997 736 3387 
C 858 3929 1216 4096 1466 4096 
C 1728 4096 2067 3923 2189 3400 
C 2272 3036 2278 2607 2278 2096 
C 2278 1680 2278 1169 2202 792 
C 2067 95 1690 -26 1466 -26 
z
" transform="scale(0.015625)"/>
       </defs>
       <use xlink:href="#CMR17-31" transform="scale(0.996264)"/>
       <use xlink:href="#CMR17-30" transform="translate(45.690477 0) scale(0.996264)"/>
      </g>
     </g>
    </g>
    <g id="text_11">
     <!-- Distortion -->
     <g transform="translate(24.114028 235.497321) rotate(-90) scale(0.13 -0.13)">
      <defs>
       <path id="CMR17-44" d="M 333 4352 
L 333 4186 
C 774 4186 845 4186 845 3900 
L 845 452 
C 845 166 774 166 333 166 
L 333 0 
L 2368 0 
C 3398 0 4224 943 4224 2141 
C 4224 3346 3411 4352 2368 4352 
L 333 4352 
z
M 1523 166 
C 1267 166 1254 197 1254 414 
L 1254 3938 
C 1254 4155 1267 4186 1523 4186 
L 2240 4186 
C 2771 4186 3750 3874 3750 2141 
C 3750 1242 3488 879 3366 707 
C 3213 510 2848 166 2240 166 
L 1523 166 
z
" transform="scale(0.015625)"/>
      </defs>
      <use xlink:href="#CMR17-44" transform="scale(0.996264)"/>
      <use xlink:href="#CMR17-69" transform="translate(70.393556 0) scale(0.996264)"/>
      <use xlink:href="#CMR17-73" transform="translate(95.264614 0) scale(0.996264)"/>
      <use xlink:href="#CMR17-74" transform="translate(131.065952 0) scale(0.996264)"/>
      <use xlink:href="#CMR17-6f" transform="translate(166.34672 0) scale(0.996264)"/>
      <use xlink:href="#CMR17-72" transform="translate(212.037197 0) scale(0.996264)"/>
      <use xlink:href="#CMR17-74" transform="translate(247.317965 0) scale(0.996264)"/>
      <use xlink:href="#CMR17-69" transform="translate(282.598733 0) scale(0.996264)"/>
      <use xlink:href="#CMR17-6f" transform="translate(307.469791 0) scale(0.996264)"/>
      <use xlink:href="#CMR17-6e" transform="translate(353.160268 0) scale(0.996264)"/>
     </g>
    </g>
   </g>
   <g id="LineCollection_1">
    <path d="M 99.730656 298.879509 
L 142.346807 298.879509 
" clip-path="url(#p8390460b5f)" style="fill: none; stroke: #1f77b4; stroke-width: 1.5"/>
    <path d="M 270.19526 301.008401 
L 312.811411 301.008401 
" clip-path="url(#p8390460b5f)" style="fill: none; stroke: #1f77b4; stroke-width: 1.5"/>
    <path d="M 440.659864 307.903001 
L 483.276015 307.903001 
" clip-path="url(#p8390460b5f)" style="fill: none; stroke: #1f77b4; stroke-width: 1.5"/>
    <path d="M 611.124468 296.933866 
L 653.740619 296.933866 
" clip-path="url(#p8390460b5f)" style="fill: none; stroke: #1f77b4; stroke-width: 1.5"/>
   </g>
   <g id="LineCollection_2">
    <path d="M 99.730656 74.018723 
L 142.346807 74.018723 
" clip-path="url(#p8390460b5f)" style="fill: none; stroke: #1f77b4; stroke-width: 1.5"/>
    <path d="M 270.19526 94.937151 
L 312.811411 94.937151 
" clip-path="url(#p8390460b5f)" style="fill: none; stroke: #1f77b4; stroke-width: 1.5"/>
    <path d="M 440.659864 79.889728 
L 483.276015 79.889728 
" clip-path="url(#p8390460b5f)" style="fill: none; stroke: #1f77b4; stroke-width: 1.5"/>
    <path d="M 611.124468 46.228228 
L 653.740619 46.228228 
" clip-path="url(#p8390460b5f)" style="fill: none; stroke: #1f77b4; stroke-width: 1.5"/>
   </g>
   <g id="LineCollection_3">
    <path d="M 99.730656 368.512219 
L 142.346807 368.512219 
" clip-path="url(#p8390460b5f)" style="fill: none; stroke: #1f77b4; stroke-width: 1.5"/>
    <path d="M 270.19526 368.049463 
L 312.811411 368.049463 
" clip-path="url(#p8390460b5f)" style="fill: none; stroke: #1f77b4; stroke-width: 1.5"/>
    <path d="M 440.659864 365.42693 
L 483.276015 365.42693 
" clip-path="url(#p8390460b5f)" style="fill: none; stroke: #1f77b4; stroke-width: 1.5"/>
    <path d="M 611.124468 366.519509 
L 653.740619 366.519509 
" clip-path="url(#p8390460b5f)" style="fill: none; stroke: #1f77b4; stroke-width: 1.5"/>
   </g>
   <g id="LineCollection_4">
    <path d="M 121.038731 368.512219 
L 121.038731 74.018723 
" clip-path="url(#p8390460b5f)" style="fill: none; stroke: #1f77b4; stroke-width: 1.5"/>
    <path d="M 291.503335 368.049463 
L 291.503335 94.937151 
" clip-path="url(#p8390460b5f)" style="fill: none; stroke: #1f77b4; stroke-width: 1.5"/>
    <path d="M 461.967939 365.42693 
L 461.967939 79.889728 
" clip-path="url(#p8390460b5f)" style="fill: none; stroke: #1f77b4; stroke-width: 1.5"/>
    <path d="M 632.432543 366.519509 
L 632.432543 46.228228 
" clip-path="url(#p8390460b5f)" style="fill: none; stroke: #1f77b4; stroke-width: 1.5"/>
   </g>
   <g id="patch_3">
    <path d="M 48.591275 384.626418 
L 48.591275 30.114028 
" style="fill: none; stroke: #000000; stroke-linejoin: miter; stroke-linecap: square"/>
   </g>
   <g id="patch_4">
    <path d="M 704.88 384.626418 
L 704.88 30.114028 
" style="fill: none; stroke: #000000; stroke-linejoin: miter; stroke-linecap: square"/>
   </g>
   <g id="patch_5">
    <path d="M 48.591275 384.626418 
L 704.88 384.626418 
" style="fill: none; stroke: #000000; stroke-linejoin: miter; stroke-linecap: square"/>
   </g>
   <g id="patch_6">
    <path d="M 48.591275 30.114028 
L 704.88 30.114028 
" style="fill: none; stroke: #000000; stroke-linejoin: miter; stroke-linecap: square"/>
   </g>
   <g id="text_12">
    <!-- Distortion Under Utiliratian -->
    <g transform="translate(298.239379 24.114028) scale(0.13 -0.13)">
     <defs>
      <path id="CMR17-55" d="M 3456 1433 
C 3456 579 2899 38 2291 38 
C 1965 38 1670 210 1491 477 
C 1286 783 1261 1178 1261 1401 
L 1261 3874 
C 1261 4160 1331 4160 1773 4160 
L 1773 4320 
C 1587 4320 1248 4320 1050 4320 
C 851 4320 512 4320 326 4320 
L 326 4160 
C 768 4160 838 4160 838 3874 
L 838 1433 
C 838 516 1536 -128 2278 -128 
C 3110 -128 3590 719 3590 1344 
L 3590 3766 
C 3590 4122 3917 4160 4102 4160 
L 4102 4326 
C 3955 4320 3686 4320 3526 4320 
C 3366 4320 3091 4320 2944 4326 
L 2944 4160 
C 3456 4160 3456 3861 3456 3702 
L 3456 1433 
z
" transform="scale(0.015625)"/>
     </defs>
     <use xlink:href="#CMR17-44" transform="scale(0.996264)"/>
     <use xlink:href="#CMR17-69" transform="translate(70.393556 0) scale(0.996264)"/>
     <use xlink:href="#CMR17-73" transform="translate(95.264614 0) scale(0.996264)"/>
     <use xlink:href="#CMR17-74" transform="translate(131.065952 0) scale(0.996264)"/>
     <use xlink:href="#CMR17-6f" transform="translate(166.34672 0) scale(0.996264)"/>
     <use xlink:href="#CMR17-72" transform="translate(212.037197 0) scale(0.996264)"/>
     <use xlink:href="#CMR17-74" transform="translate(247.317965 0) scale(0.996264)"/>
     <use xlink:href="#CMR17-69" transform="translate(282.598733 0) scale(0.996264)"/>
     <use xlink:href="#CMR17-6f" transform="translate(307.469791 0) scale(0.996264)"/>
     <use xlink:href="#CMR17-6e" transform="translate(353.160268 0) scale(0.996264)"/>
     <use xlink:href="#CMR17-55" transform="translate(434.131604 0) scale(0.996264)"/>
     <use xlink:href="#CMR17-6e" transform="translate(503.204034 0) scale(0.996264)"/>
     <use xlink:href="#CMR17-64" transform="translate(554.099404 0) scale(0.996264)"/>
     <use xlink:href="#CMR17-65" transform="translate(604.994774 0) scale(0.996264)"/>
     <use xlink:href="#CMR17-72" transform="translate(645.480434 0) scale(0.996264)"/>
     <use xlink:href="#CMR17-55" transform="translate(710.837168 0) scale(0.996264)"/>
     <use xlink:href="#CMR17-74" transform="translate(779.909598 0) scale(0.996264)"/>
     <use xlink:href="#CMR17-69" transform="translate(815.190366 0) scale(0.996264)"/>
     <use xlink:href="#CMR17-6c" transform="translate(840.061424 0) scale(0.996264)"/>
     <use xlink:href="#CMR17-69" transform="translate(864.932483 0) scale(0.996264)"/>
     <use xlink:href="#CMR17-72" transform="translate(889.803541 0) scale(0.996264)"/>
     <use xlink:href="#CMR17-61" transform="translate(925.084309 0) scale(0.996264)"/>
     <use xlink:href="#CMR17-74" transform="translate(970.774786 0) scale(0.996264)"/>
     <use xlink:href="#CMR17-69" transform="translate(1006.055554 0) scale(0.996264)"/>
     <use xlink:href="#CMR17-61" transform="translate(1030.926612 0) scale(0.996264)"/>
     <use xlink:href="#CMR17-6e" transform="translate(1076.61709 0) scale(0.996264)"/>
    </g>
   </g>
  </g>
 </g>
 <defs>
  <clipPath id="p8390460b5f">
   <rect x="48.591275" y="30.114028" width="656.288725" height="354.51239"/>
  </clipPath>
 </defs>
</svg>
