<?xml version="1.0" encoding="utf-8" standalone="no"?>
<!DOCTYPE svg PUBLIC "-//W3C//DTD SVG 1.1//EN"
  "http://www.w3.org/Graphics/SVG/1.1/DTD/svg11.dtd">
<svg xmlns:xlink="http://www.w3.org/1999/xlink" width="720pt" height="432pt" viewBox="0 0 720 432" xmlns="http://www.w3.org/2000/svg" version="1.1">
 <metadata>
  <rdf:RDF xmlns:dc="http://purl.org/dc/elements/1.1/" xmlns:cc="http://creativecommons.org/ns#" xmlns:rdf="http://www.w3.org/1999/02/22-rdf-syntax-ns#">
   <cc:Work>
    <dc:type rdf:resource="http://purl.org/dc/dcmitype/StillImage"/>
    <dc:date>2024-12-06T15:46:40.826992</dc:date>
    <dc:format>image/svg+xml</dc:format>
    <dc:creator>
     <cc:Agent>
      <dc:title>Matplotlib v3.9.2, https://matplotlib.org/</dc:title>
     </cc:Agent>
    </dc:creator>
   </cc:Work>
  </rdf:RDF>
 </metadata>
 <defs>
  <style type="text/css">*{stroke-linejoin: round; stroke-linecap: butt}</style>
 </defs>
 <g id="figure_1">
  <g id="patch_1">
   <path d="M 0 432 
L 720 432 
L 720 0 
L 0 0 
z
" style="fill: #ffffff"/>
  </g>
  <g id="axes_1">
   <g id="patch_2">
    <path d="M 51.635416 384.626418 
L 704.88 384.626418 
L 704.88 30.114028 
L 51.635416 30.114028 
z
" style="fill: #ffffff"/>
   </g>
   <g id="PolyCollection_1">
    <defs>
     <path id="m6461e0a49a" d="M 166.165311 -63.487781 
L 81.328352 -63.487781 
L 81.328352 -63.487781 
L 81.328352 -63.487781 
L 81.328352 -63.487781 
L 81.328352 -63.487781 
L 81.328352 -63.487781 
L 81.328352 -63.487781 
L 81.328352 -63.487781 
L 81.328352 -63.487781 
L 81.328352 -63.487781 
L 81.328352 -63.487781 
L 81.328352 -63.487781 
L 81.328352 -63.487781 
L 81.328352 -63.487781 
L 81.328352 -63.487781 
L 81.328352 -63.487781 
L 81.328352 -63.487781 
L 81.328352 -63.487781 
L 81.328352 -63.487781 
L 81.328352 -63.487781 
L 81.328352 -63.487781 
L 81.328352 -63.487781 
L 81.328352 -63.487781 
L 81.328352 -63.487781 
L 81.328352 -63.487781 
L 81.328352 -63.487781 
L 81.328352 -63.487781 
L 81.328352 -63.487781 
L 81.328352 -63.487781 
L 81.328352 -63.487781 
L 81.328352 -63.487781 
L 81.328352 -63.487781 
L 81.328352 -63.487781 
L 81.328352 -63.487781 
L 81.328352 -63.487781 
L 81.328352 -63.487781 
L 81.328352 -63.487781 
L 81.328352 -63.487781 
L 81.328352 -63.487781 
L 81.328352 -63.487781 
L 81.328352 -63.487781 
L 81.328352 -63.487781 
L 81.328352 -63.487781 
L 81.328352 -63.487781 
L 81.328352 -63.487781 
L 81.328352 -63.487781 
L 81.328352 -63.487781 
L 81.328352 -63.487781 
L 81.328352 -63.487781 
L 81.328352 -63.487781 
L 81.328352 -63.487781 
L 81.328352 -63.487781 
L 81.328352 -63.487781 
L 81.328352 -63.487781 
L 81.328352 -63.487781 
L 81.328352 -63.487781 
L 81.328352 -63.487781 
L 81.328352 -63.487781 
L 81.328352 -63.487781 
L 81.328352 -63.487781 
L 81.328352 -63.487781 
L 81.328352 -63.487781 
L 81.328352 -63.487781 
L 81.328352 -63.487781 
L 81.328352 -63.487781 
L 81.328352 -63.487781 
L 81.328352 -63.487781 
L 81.328352 -63.487781 
L 81.328352 -63.487781 
L 81.328352 -63.487781 
L 81.328352 -63.487781 
L 81.328352 -63.487781 
L 81.328352 -63.487781 
L 81.328352 -63.487781 
L 81.328352 -63.487781 
L 81.328352 -63.487781 
L 81.328352 -63.487781 
L 81.328352 -63.487781 
L 81.328352 -63.487781 
L 81.328352 -63.487781 
L 81.328352 -63.487781 
L 81.328352 -63.487781 
L 81.328352 -63.487781 
L 81.328352 -63.487781 
L 81.328352 -63.487781 
L 81.328352 -63.487781 
L 81.328352 -63.487781 
L 81.328352 -63.487781 
L 81.328352 -63.487781 
L 81.328352 -63.487781 
L 81.328352 -63.487781 
L 81.328352 -63.487781 
L 81.328352 -63.487781 
L 81.328352 -63.487781 
L 81.328352 -63.487781 
L 81.328352 -63.487781 
L 81.328352 -63.487781 
L 81.328352 -63.487781 
L 81.328352 -63.487781 
L 81.328352 -63.487781 
L 166.165311 -63.487781 
L 166.165311 -63.487781 
L 166.165311 -63.487781 
L 166.165311 -63.487781 
L 166.165311 -63.487781 
L 166.165311 -63.487781 
L 166.165311 -63.487781 
L 166.165311 -63.487781 
L 166.165311 -63.487781 
L 166.165311 -63.487781 
L 166.165311 -63.487781 
L 166.165311 -63.487781 
L 166.165311 -63.487781 
L 166.165311 -63.487781 
L 166.165311 -63.487781 
L 166.165311 -63.487781 
L 166.165311 -63.487781 
L 166.165311 -63.487781 
L 166.165311 -63.487781 
L 166.165311 -63.487781 
L 166.165311 -63.487781 
L 166.165311 -63.487781 
L 166.165311 -63.487781 
L 166.165311 -63.487781 
L 166.165311 -63.487781 
L 166.165311 -63.487781 
L 166.165311 -63.487781 
L 166.165311 -63.487781 
L 166.165311 -63.487781 
L 166.165311 -63.487781 
L 166.165311 -63.487781 
L 166.165311 -63.487781 
L 166.165311 -63.487781 
L 166.165311 -63.487781 
L 166.165311 -63.487781 
L 166.165311 -63.487781 
L 166.165311 -63.487781 
L 166.165311 -63.487781 
L 166.165311 -63.487781 
L 166.165311 -63.487781 
L 166.165311 -63.487781 
L 166.165311 -63.487781 
L 166.165311 -63.487781 
L 166.165311 -63.487781 
L 166.165311 -63.487781 
L 166.165311 -63.487781 
L 166.165311 -63.487781 
L 166.165311 -63.487781 
L 166.165311 -63.487781 
L 166.165311 -63.487781 
L 166.165311 -63.487781 
L 166.165311 -63.487781 
L 166.165311 -63.487781 
L 166.165311 -63.487781 
L 166.165311 -63.487781 
L 166.165311 -63.487781 
L 166.165311 -63.487781 
L 166.165311 -63.487781 
L 166.165311 -63.487781 
L 166.165311 -63.487781 
L 166.165311 -63.487781 
L 166.165311 -63.487781 
L 166.165311 -63.487781 
L 166.165311 -63.487781 
L 166.165311 -63.487781 
L 166.165311 -63.487781 
L 166.165311 -63.487781 
L 166.165311 -63.487781 
L 166.165311 -63.487781 
L 166.165311 -63.487781 
L 166.165311 -63.487781 
L 166.165311 -63.487781 
L 166.165311 -63.487781 
L 166.165311 -63.487781 
L 166.165311 -63.487781 
L 166.165311 -63.487781 
L 166.165311 -63.487781 
L 166.165311 -63.487781 
L 166.165311 -63.487781 
L 166.165311 -63.487781 
L 166.165311 -63.487781 
L 166.165311 -63.487781 
L 166.165311 -63.487781 
L 166.165311 -63.487781 
L 166.165311 -63.487781 
L 166.165311 -63.487781 
L 166.165311 -63.487781 
L 166.165311 -63.487781 
L 166.165311 -63.487781 
L 166.165311 -63.487781 
L 166.165311 -63.487781 
L 166.165311 -63.487781 
L 166.165311 -63.487781 
L 166.165311 -63.487781 
L 166.165311 -63.487781 
L 166.165311 -63.487781 
L 166.165311 -63.487781 
L 166.165311 -63.487781 
L 166.165311 -63.487781 
L 166.165311 -63.487781 
L 166.165311 -63.487781 
z
" style="stroke: #000000; stroke-opacity: 0.4"/>
    </defs>
    <g clip-path="url(#p39d220e504)">
     <use xlink:href="#m6461e0a49a" x="0" y="432" style="fill: #440154; fill-opacity: 0.4; stroke: #000000; stroke-opacity: 0.4"/>
    </g>
   </g>
   <g id="PolyCollection_2">
    <defs>
     <path id="m294b0ac05d" d="M 335.839229 -63.487781 
L 251.00227 -63.487781 
L 251.028747 -63.645802 
L 251.141452 -63.803823 
L 251.339393 -63.961844 
L 251.621023 -64.119865 
L 251.984263 -64.277886 
L 252.426519 -64.435907 
L 252.944706 -64.593928 
L 253.535283 -64.751949 
L 254.194282 -64.90997 
L 254.917355 -65.067991 
L 255.69981 -65.226012 
L 256.53666 -65.384032 
L 257.42267 -65.542053 
L 258.352408 -65.700074 
L 259.320293 -65.858095 
L 260.320648 -66.016116 
L 261.347751 -66.174137 
L 262.395884 -66.332158 
L 263.459384 -66.490179 
L 264.532685 -66.6482 
L 265.610368 -66.806221 
L 266.687195 -66.964242 
L 267.758157 -67.122263 
L 268.818496 -67.280284 
L 269.863747 -67.438305 
L 270.889755 -67.596326 
L 271.892702 -67.754347 
L 272.869124 -67.912368 
L 273.81592 -68.070389 
L 274.730366 -68.22841 
L 275.610116 -68.38643 
L 276.453203 -68.544451 
L 277.258034 -68.702472 
L 278.023386 -68.860493 
L 278.74839 -69.018514 
L 279.432523 -69.176535 
L 280.075585 -69.334556 
L 280.677685 -69.492577 
L 281.239216 -69.650598 
L 281.760834 -69.808619 
L 282.243431 -69.96664 
L 282.688116 -70.124661 
L 283.096179 -70.282682 
L 283.469075 -70.440703 
L 283.808389 -70.598724 
L 284.115819 -70.756745 
L 284.393142 -70.914766 
L 284.642196 -71.072787 
L 284.864855 -71.230808 
L 285.063005 -71.388828 
L 285.238529 -71.546849 
L 285.393284 -71.70487 
L 285.529086 -71.862891 
L 285.647696 -72.020912 
L 285.750805 -72.178933 
L 285.840027 -72.336954 
L 285.916887 -72.494975 
L 285.982814 -72.652996 
L 286.039139 -72.811017 
L 286.087091 -72.969038 
L 286.127794 -73.127059 
L 286.162268 -73.28508 
L 286.191435 -73.443101 
L 286.216117 -73.601122 
L 286.237041 -73.759143 
L 286.25485 -73.917164 
L 286.270104 -74.075185 
L 286.283289 -74.233206 
L 286.294827 -74.391227 
L 286.30508 -74.549247 
L 286.314362 -74.707268 
L 286.322947 -74.865289 
L 286.331074 -75.02331 
L 286.33896 -75.181331 
L 286.346804 -75.339352 
L 286.354795 -75.497373 
L 286.363119 -75.655394 
L 286.371962 -75.813415 
L 286.38152 -75.971436 
L 286.391997 -76.129457 
L 286.403613 -76.287478 
L 286.416601 -76.445499 
L 286.431213 -76.60352 
L 286.447718 -76.761541 
L 286.466401 -76.919562 
L 286.48756 -77.077583 
L 286.511509 -77.235604 
L 286.538569 -77.393625 
L 286.569067 -77.551645 
L 286.603333 -77.709666 
L 286.641694 -77.867687 
L 286.684468 -78.025708 
L 286.731963 -78.183729 
L 286.784468 -78.34175 
L 286.842251 -78.499771 
L 286.90555 -78.657792 
L 286.974574 -78.815813 
L 287.049496 -78.973834 
L 287.130448 -79.131855 
L 299.71105 -79.131855 
L 299.71105 -79.131855 
L 299.792002 -78.973834 
L 299.866924 -78.815813 
L 299.935949 -78.657792 
L 299.999248 -78.499771 
L 300.05703 -78.34175 
L 300.109535 -78.183729 
L 300.157031 -78.025708 
L 300.199805 -77.867687 
L 300.238166 -77.709666 
L 300.272432 -77.551645 
L 300.30293 -77.393625 
L 300.32999 -77.235604 
L 300.353939 -77.077583 
L 300.375098 -76.919562 
L 300.393781 -76.761541 
L 300.410285 -76.60352 
L 300.424898 -76.445499 
L 300.437886 -76.287478 
L 300.449501 -76.129457 
L 300.459978 -75.971436 
L 300.469536 -75.813415 
L 300.47838 -75.655394 
L 300.486703 -75.497373 
L 300.494694 -75.339352 
L 300.502538 -75.181331 
L 300.510425 -75.02331 
L 300.518552 -74.865289 
L 300.527137 -74.707268 
L 300.536419 -74.549247 
L 300.546672 -74.391227 
L 300.558209 -74.233206 
L 300.571395 -74.075185 
L 300.586648 -73.917164 
L 300.604457 -73.759143 
L 300.625382 -73.601122 
L 300.650063 -73.443101 
L 300.67923 -73.28508 
L 300.713705 -73.127059 
L 300.754408 -72.969038 
L 300.80236 -72.811017 
L 300.858685 -72.652996 
L 300.924612 -72.494975 
L 301.001471 -72.336954 
L 301.090693 -72.178933 
L 301.193803 -72.020912 
L 301.312413 -71.862891 
L 301.448215 -71.70487 
L 301.60297 -71.546849 
L 301.778494 -71.388828 
L 301.976644 -71.230808 
L 302.199302 -71.072787 
L 302.448357 -70.914766 
L 302.72568 -70.756745 
L 303.033109 -70.598724 
L 303.372424 -70.440703 
L 303.74532 -70.282682 
L 304.153383 -70.124661 
L 304.598067 -69.96664 
L 305.080665 -69.808619 
L 305.602283 -69.650598 
L 306.163813 -69.492577 
L 306.765913 -69.334556 
L 307.408976 -69.176535 
L 308.093109 -69.018514 
L 308.818113 -68.860493 
L 309.583465 -68.702472 
L 310.388296 -68.544451 
L 311.231382 -68.38643 
L 312.111132 -68.22841 
L 313.025579 -68.070389 
L 313.972375 -67.912368 
L 314.948796 -67.754347 
L 315.951744 -67.596326 
L 316.977752 -67.438305 
L 318.023002 -67.280284 
L 319.083342 -67.122263 
L 320.154303 -66.964242 
L 321.231131 -66.806221 
L 322.308813 -66.6482 
L 323.382115 -66.490179 
L 324.445614 -66.332158 
L 325.493748 -66.174137 
L 326.520851 -66.016116 
L 327.521206 -65.858095 
L 328.489091 -65.700074 
L 329.418828 -65.542053 
L 330.304839 -65.384032 
L 331.141689 -65.226012 
L 331.924144 -65.067991 
L 332.647216 -64.90997 
L 333.306216 -64.751949 
L 333.896792 -64.593928 
L 334.41498 -64.435907 
L 334.857235 -64.277886 
L 335.220476 -64.119865 
L 335.502106 -63.961844 
L 335.700046 -63.803823 
L 335.812752 -63.645802 
L 335.839229 -63.487781 
z
" style="stroke: #000000; stroke-opacity: 0.4"/>
    </defs>
    <g clip-path="url(#p39d220e504)">
     <use xlink:href="#m294b0ac05d" x="0" y="432" style="fill: #31688e; fill-opacity: 0.4; stroke: #000000; stroke-opacity: 0.4"/>
    </g>
   </g>
   <g id="PolyCollection_3">
    <defs>
     <path id="m6a9e416fdb" d="M 503.779049 -63.487781 
L 422.410285 -63.487781 
L 421.895878 -66.743175 
L 421.469161 -69.998569 
L 421.132447 -73.253963 
L 420.887434 -76.509357 
L 420.735199 -79.76475 
L 420.676188 -83.020144 
L 420.710218 -86.275538 
L 420.836489 -89.530932 
L 421.053597 -92.786326 
L 421.359555 -96.04172 
L 421.751827 -99.297113 
L 422.227357 -102.552507 
L 422.78261 -105.807901 
L 423.413615 -109.063295 
L 424.116014 -112.318689 
L 424.885106 -115.574083 
L 425.715904 -118.829477 
L 426.603184 -122.08487 
L 427.54154 -125.340264 
L 428.525435 -128.595658 
L 429.549255 -131.851052 
L 430.607355 -135.106446 
L 431.694111 -138.36184 
L 432.803963 -141.617234 
L 433.931456 -144.872627 
L 435.07128 -148.128021 
L 436.218304 -151.383415 
L 437.367607 -154.638809 
L 438.514503 -157.894203 
L 439.654565 -161.149597 
L 440.783642 -164.40499 
L 441.897874 -167.660384 
L 442.9937 -170.915778 
L 444.06787 -174.171172 
L 445.117439 -177.426566 
L 446.139775 -180.68196 
L 447.132551 -183.937354 
L 448.093739 -187.192747 
L 449.021602 -190.448141 
L 449.914686 -193.703535 
L 450.771802 -196.958929 
L 451.592016 -200.214323 
L 452.374634 -203.469717 
L 453.119183 -206.725111 
L 453.825399 -209.980504 
L 454.493206 -213.235898 
L 455.122699 -216.491292 
L 455.71413 -219.746686 
L 456.267891 -223.00208 
L 456.784496 -226.257474 
L 457.264566 -229.512867 
L 457.708816 -232.768261 
L 458.118039 -236.023655 
L 458.493097 -239.279049 
L 458.834906 -242.534443 
L 459.144427 -245.789837 
L 459.422657 -249.045231 
L 459.67062 -252.300624 
L 459.889364 -255.556018 
L 460.07995 -258.811412 
L 460.243452 -262.066806 
L 460.380952 -265.3222 
L 460.493537 -268.577594 
L 460.582301 -271.832988 
L 460.648342 -275.088381 
L 460.69276 -278.343775 
L 460.716666 -281.599169 
L 460.721175 -284.854563 
L 460.707413 -288.109957 
L 460.676518 -291.365351 
L 460.62964 -294.620744 
L 460.567947 -297.876138 
L 460.492622 -301.131532 
L 460.404872 -304.386926 
L 460.305919 -307.64232 
L 460.197008 -310.897714 
L 460.079405 -314.153108 
L 459.954395 -317.408501 
L 459.823277 -320.663895 
L 459.687369 -323.919289 
L 459.547996 -327.174683 
L 459.406489 -330.430077 
L 459.264179 -333.685471 
L 459.12239 -336.940865 
L 458.982432 -340.196258 
L 458.845592 -343.451652 
L 458.713127 -346.707046 
L 458.586253 -349.96244 
L 458.466137 -353.217834 
L 458.353887 -356.473228 
L 458.250542 -359.728622 
L 458.157065 -362.984015 
L 458.074332 -366.239409 
L 458.003125 -369.494803 
L 457.944125 -372.750197 
L 457.897906 -376.005591 
L 457.864927 -379.260985 
L 457.845531 -382.516378 
L 457.839943 -385.771772 
L 468.349391 -385.771772 
L 468.349391 -385.771772 
L 468.343803 -382.516378 
L 468.324408 -379.260985 
L 468.291429 -376.005591 
L 468.245209 -372.750197 
L 468.186209 -369.494803 
L 468.115003 -366.239409 
L 468.03227 -362.984015 
L 467.938792 -359.728622 
L 467.835447 -356.473228 
L 467.723197 -353.217834 
L 467.603081 -349.96244 
L 467.476207 -346.707046 
L 467.343742 -343.451652 
L 467.206902 -340.196258 
L 467.066945 -336.940865 
L 466.925156 -333.685471 
L 466.782846 -330.430077 
L 466.641338 -327.174683 
L 466.501965 -323.919289 
L 466.366057 -320.663895 
L 466.234939 -317.408501 
L 466.109929 -314.153108 
L 465.992326 -310.897714 
L 465.883416 -307.64232 
L 465.784462 -304.386926 
L 465.696712 -301.131532 
L 465.621388 -297.876138 
L 465.559694 -294.620744 
L 465.512816 -291.365351 
L 465.481921 -288.109957 
L 465.468159 -284.854563 
L 465.472668 -281.599169 
L 465.496574 -278.343775 
L 465.540993 -275.088381 
L 465.607033 -271.832988 
L 465.695797 -268.577594 
L 465.808382 -265.3222 
L 465.945882 -262.066806 
L 466.109384 -258.811412 
L 466.29997 -255.556018 
L 466.518714 -252.300624 
L 466.766678 -249.045231 
L 467.044907 -245.789837 
L 467.354428 -242.534443 
L 467.696237 -239.279049 
L 468.071295 -236.023655 
L 468.480518 -232.768261 
L 468.924768 -229.512867 
L 469.404838 -226.257474 
L 469.921443 -223.00208 
L 470.475204 -219.746686 
L 471.066636 -216.491292 
L 471.696129 -213.235898 
L 472.363935 -209.980504 
L 473.070151 -206.725111 
L 473.8147 -203.469717 
L 474.597318 -200.214323 
L 475.417533 -196.958929 
L 476.274648 -193.703535 
L 477.167732 -190.448141 
L 478.095596 -187.192747 
L 479.056783 -183.937354 
L 480.049559 -180.68196 
L 481.071895 -177.426566 
L 482.121464 -174.171172 
L 483.195634 -170.915778 
L 484.291461 -167.660384 
L 485.405692 -164.40499 
L 486.534769 -161.149597 
L 487.674831 -157.894203 
L 488.821727 -154.638809 
L 489.97103 -151.383415 
L 491.118054 -148.128021 
L 492.257878 -144.872627 
L 493.385371 -141.617234 
L 494.495223 -138.36184 
L 495.581979 -135.106446 
L 496.640079 -131.851052 
L 497.663899 -128.595658 
L 498.647794 -125.340264 
L 499.58615 -122.08487 
L 500.47343 -118.829477 
L 501.304228 -115.574083 
L 502.07332 -112.318689 
L 502.775719 -109.063295 
L 503.406725 -105.807901 
L 503.961978 -102.552507 
L 504.437507 -99.297113 
L 504.829779 -96.04172 
L 505.135738 -92.786326 
L 505.352845 -89.530932 
L 505.479116 -86.275538 
L 505.513147 -83.020144 
L 505.454135 -79.76475 
L 505.3019 -76.509357 
L 505.056888 -73.253963 
L 504.720173 -69.998569 
L 504.293456 -66.743175 
L 503.779049 -63.487781 
z
" style="stroke: #000000; stroke-opacity: 0.4"/>
    </defs>
    <g clip-path="url(#p39d220e504)">
     <use xlink:href="#m6a9e416fdb" x="0" y="432" style="fill: #35b779; fill-opacity: 0.4; stroke: #000000; stroke-opacity: 0.4"/>
    </g>
   </g>
   <g id="PolyCollection_4">
    <defs>
     <path id="mdc14f5cd4a" d="M 675.187064 -63.487781 
L 590.350105 -63.487781 
L 590.404423 -63.560233 
L 590.566966 -63.632684 
L 590.836489 -63.705135 
L 591.210932 -63.777587 
L 591.68745 -63.850038 
L 592.262447 -63.92249 
L 592.931619 -63.994941 
L 593.690014 -64.067392 
L 594.532084 -64.139844 
L 595.451762 -64.212295 
L 596.442526 -64.284747 
L 597.497483 -64.357198 
L 598.609443 -64.42965 
L 599.771002 -64.502101 
L 600.974624 -64.574552 
L 602.212719 -64.647004 
L 603.477724 -64.719455 
L 604.762174 -64.791907 
L 606.058777 -64.864358 
L 607.360472 -64.93681 
L 608.660498 -65.009261 
L 609.952438 -65.081712 
L 611.230271 -65.154164 
L 612.488404 -65.226615 
L 613.721709 -65.299067 
L 614.925545 -65.371518 
L 616.095771 -65.443969 
L 617.228754 -65.516421 
L 618.321376 -65.588872 
L 619.371023 -65.661324 
L 620.375579 -65.733775 
L 621.333404 -65.806227 
L 622.243319 -65.878678 
L 623.104574 -65.951129 
L 623.916826 -66.023581 
L 624.680101 -66.096032 
L 625.394765 -66.168484 
L 626.061488 -66.240935 
L 626.681205 -66.313386 
L 627.255086 -66.385838 
L 627.784493 -66.458289 
L 628.270955 -66.530741 
L 628.716123 -66.603192 
L 629.12175 -66.675644 
L 629.489653 -66.748095 
L 629.82169 -66.820546 
L 630.119735 -66.892998 
L 630.385653 -66.965449 
L 630.621285 -67.037901 
L 630.828426 -67.110352 
L 631.008816 -67.182804 
L 631.164125 -67.255255 
L 631.295946 -67.327706 
L 631.405787 -67.400158 
L 631.495071 -67.472609 
L 631.565128 -67.545061 
L 631.6172 -67.617512 
L 631.652439 -67.689963 
L 631.671913 -67.762415 
L 631.676611 -67.834866 
L 631.667447 -67.907318 
L 631.645266 -67.979769 
L 631.610855 -68.052221 
L 631.564947 -68.124672 
L 631.508234 -68.197123 
L 631.441371 -68.269575 
L 631.364987 -68.342026 
L 631.279694 -68.414478 
L 631.186092 -68.486929 
L 631.084781 -68.559381 
L 630.976364 -68.631832 
L 630.861457 -68.704283 
L 630.740689 -68.776735 
L 630.614713 -68.849186 
L 630.484206 -68.921638 
L 630.349872 -68.994089 
L 630.212443 -69.06654 
L 630.072679 -69.138992 
L 629.931372 -69.211443 
L 629.789336 -69.283895 
L 629.647412 -69.356346 
L 629.506457 -69.428798 
L 629.367347 -69.501249 
L 629.230964 -69.5737 
L 629.098194 -69.646152 
L 628.969918 -69.718603 
L 628.847004 -69.791055 
L 628.730303 -69.863506 
L 628.620635 -69.935958 
L 628.518784 -70.008409 
L 628.42549 -70.08086 
L 628.341439 -70.153312 
L 628.267259 -70.225763 
L 628.203508 -70.298215 
L 628.15067 -70.370666 
L 628.109152 -70.443117 
L 628.079273 -70.515569 
L 628.061266 -70.58802 
L 628.055273 -70.660472 
L 637.481896 -70.660472 
L 637.481896 -70.660472 
L 637.475903 -70.58802 
L 637.457897 -70.515569 
L 637.428018 -70.443117 
L 637.3865 -70.370666 
L 637.333662 -70.298215 
L 637.269911 -70.225763 
L 637.195731 -70.153312 
L 637.11168 -70.08086 
L 637.018386 -70.008409 
L 636.916535 -69.935958 
L 636.806867 -69.863506 
L 636.690166 -69.791055 
L 636.567252 -69.718603 
L 636.438976 -69.646152 
L 636.306205 -69.5737 
L 636.169823 -69.501249 
L 636.030712 -69.428798 
L 635.889758 -69.356346 
L 635.747834 -69.283895 
L 635.605798 -69.211443 
L 635.464491 -69.138992 
L 635.324727 -69.06654 
L 635.187298 -68.994089 
L 635.052963 -68.921638 
L 634.922457 -68.849186 
L 634.796481 -68.776735 
L 634.675713 -68.704283 
L 634.560805 -68.631832 
L 634.452389 -68.559381 
L 634.351078 -68.486929 
L 634.257476 -68.414478 
L 634.172183 -68.342026 
L 634.095799 -68.269575 
L 634.028936 -68.197123 
L 633.972223 -68.124672 
L 633.926315 -68.052221 
L 633.891904 -67.979769 
L 633.869723 -67.907318 
L 633.860558 -67.834866 
L 633.865257 -67.762415 
L 633.884731 -67.689963 
L 633.91997 -67.617512 
L 633.972041 -67.545061 
L 634.042099 -67.472609 
L 634.131383 -67.400158 
L 634.241224 -67.327706 
L 634.373045 -67.255255 
L 634.528354 -67.182804 
L 634.708744 -67.110352 
L 634.915885 -67.037901 
L 635.151516 -66.965449 
L 635.417435 -66.892998 
L 635.71548 -66.820546 
L 636.047517 -66.748095 
L 636.41542 -66.675644 
L 636.821047 -66.603192 
L 637.266215 -66.530741 
L 637.752676 -66.458289 
L 638.282084 -66.385838 
L 638.855965 -66.313386 
L 639.475682 -66.240935 
L 640.142405 -66.168484 
L 640.857069 -66.096032 
L 641.620344 -66.023581 
L 642.432596 -65.951129 
L 643.293851 -65.878678 
L 644.203766 -65.806227 
L 645.161591 -65.733775 
L 646.166147 -65.661324 
L 647.215794 -65.588872 
L 648.308416 -65.516421 
L 649.441399 -65.443969 
L 650.611624 -65.371518 
L 651.81546 -65.299067 
L 653.048766 -65.226615 
L 654.306899 -65.154164 
L 655.584731 -65.081712 
L 656.876672 -65.009261 
L 658.176698 -64.93681 
L 659.478393 -64.864358 
L 660.774995 -64.791907 
L 662.059446 -64.719455 
L 663.324451 -64.647004 
L 664.562546 -64.574552 
L 665.766168 -64.502101 
L 666.927727 -64.42965 
L 668.039687 -64.357198 
L 669.094644 -64.284747 
L 670.085408 -64.212295 
L 671.005086 -64.139844 
L 671.847156 -64.067392 
L 672.60555 -63.994941 
L 673.274723 -63.92249 
L 673.849719 -63.850038 
L 674.326238 -63.777587 
L 674.700681 -63.705135 
L 674.970204 -63.632684 
L 675.132747 -63.560233 
L 675.187064 -63.487781 
z
" style="stroke: #000000; stroke-opacity: 0.4"/>
    </defs>
    <g clip-path="url(#p39d220e504)">
     <use xlink:href="#mdc14f5cd4a" x="0" y="432" style="fill: #fde725; fill-opacity: 0.4; stroke: #000000; stroke-opacity: 0.4"/>
    </g>
   </g>
   <g id="matplotlib.axis_1">
    <g id="xtick_1">
     <g id="line2d_1">
      <defs>
       <path id="m9bca9b59fa" d="M 0 0 
L 0 3.5 
" style="stroke: #000000; stroke-width: 0.8"/>
      </defs>
      <g>
       <use xlink:href="#m9bca9b59fa" x="123.746832" y="384.626418" style="stroke: #000000; stroke-width: 0.8"/>
      </g>
     </g>
     <g id="text_1">
      <!-- Borda rule -->
      <g transform="translate(98.221648 399.236765) scale(0.11 -0.11)">
       <defs>
        <path id="CMR17-42" d="M 333 4352 
L 333 4186 
C 774 4186 845 4186 845 3900 
L 845 452 
C 845 166 774 166 333 166 
L 333 0 
L 2534 0 
C 3354 0 3885 583 3885 1164 
C 3885 1741 3360 2233 2675 2233 
C 3290 2356 3718 2771 3718 3264 
C 3718 3802 3194 4352 2368 4352 
L 333 4352 
z
M 1248 2304 
L 1248 3937 
C 1248 4155 1261 4186 1517 4186 
L 2336 4186 
C 2970 4186 3251 3674 3251 3277 
C 3251 2791 2861 2304 2170 2304 
L 1248 2304 
z
M 1517 166 
C 1261 166 1248 197 1248 413 
L 1248 2202 
L 2432 2202 
C 3091 2202 3411 1625 3411 1162 
C 3411 699 3046 166 2349 166 
L 1517 166 
z
" transform="scale(0.015625)"/>
        <path id="CMR17-6f" d="M 2758 1356 
C 2758 2176 2163 2816 1466 2816 
C 768 2816 173 2176 173 1356 
C 173 551 768 -64 1466 -64 
C 2163 -64 2758 551 2758 1356 
z
M 1466 51 
C 1165 51 909 230 762 480 
C 602 767 582 1126 582 1408 
C 582 1677 595 2010 762 2298 
C 890 2509 1139 2714 1466 2714 
C 1754 2714 1997 2554 2150 2330 
C 2349 2029 2349 1607 2349 1408 
C 2349 1158 2336 775 2163 467 
C 1984 173 1709 51 1466 51 
z
" transform="scale(0.015625)"/>
        <path id="CMR17-72" d="M 960 1497 
C 960 2112 1222 2688 1702 2688 
C 1747 2688 1792 2682 1837 2662 
C 1837 2662 1696 2617 1696 2452 
C 1696 2298 1818 2234 1914 2234 
C 1990 2234 2131 2279 2131 2458 
C 2131 2663 1926 2790 1709 2790 
C 1222 2790 1011 2317 947 2093 
L 941 2093 
L 941 2790 
L 198 2720 
L 198 2554 
C 576 2554 634 2515 634 2208 
L 634 428 
C 634 184 608 153 198 153 
L 198 -13 
C 352 0 646 0 813 0 
C 998 0 1325 0 1498 -13 
L 1498 153 
C 1037 153 960 153 960 440 
L 960 1497 
z
" transform="scale(0.015625)"/>
        <path id="CMR17-64" d="M 1869 4326 
L 1869 4160 
C 2246 4160 2304 4122 2304 3820 
L 2304 2345 
C 2278 2377 2016 2790 1498 2790 
C 845 2790 211 2208 211 1364 
C 211 525 806 -64 1434 -64 
C 1978 -64 2259 337 2291 380 
L 2291 -63 
L 3066 -63 
L 3066 128 
C 2688 128 2630 166 2630 473 
L 2630 4396 
L 1869 4326 
z
M 2291 755 
C 2291 563 2176 390 2029 262 
C 1811 70 1594 38 1472 38 
C 1286 38 621 134 621 1356 
C 621 2612 1363 2688 1530 2688 
C 1824 2688 2061 2522 2208 2291 
C 2291 2157 2291 2138 2291 2023 
L 2291 755 
z
" transform="scale(0.015625)"/>
        <path id="CMR17-61" d="M 2304 1653 
C 2304 2072 2304 2294 2035 2543 
C 1798 2752 1523 2816 1306 2816 
C 800 2816 435 2407 435 1971 
C 435 1728 627 1728 666 1728 
C 749 1728 896 1778 896 1954 
C 896 2112 774 2181 666 2181 
C 640 2181 608 2174 589 2168 
C 723 2592 1069 2714 1293 2714 
C 1613 2714 1965 2429 1965 1885 
L 1965 1600 
C 1587 1600 1133 1549 774 1357 
C 371 1133 256 813 256 570 
C 256 77 832 -64 1171 -64 
C 1523 -64 1850 139 1990 511 
C 2003 233 2182 -18 2464 -18 
C 2598 -18 2938 70 2938 567 
L 2938 920 
L 2822 920 
L 2822 562 
C 2822 178 2650 128 2566 128 
C 2304 128 2304 458 2304 738 
L 2304 1653 
z
M 1965 870 
C 1965 317 1568 38 1216 38 
C 896 38 646 275 646 570 
C 646 761 730 1100 1101 1305 
C 1408 1478 1760 1504 1965 1504 
L 1965 870 
z
" transform="scale(0.015625)"/>
        <path id="CMR17-75" d="M 1882 2693 
L 1882 2528 
C 2259 2528 2317 2489 2317 2186 
L 2317 1032 
C 2317 500 2029 38 1555 38 
C 1030 38 986 348 986 678 
L 986 2763 
L 211 2693 
L 211 2528 
C 467 2528 640 2528 646 2274 
L 646 1058 
C 646 633 646 361 813 183 
C 896 101 1056 -64 1517 -64 
C 2061 -64 2272 377 2323 506 
L 2330 506 
L 2330 -63 
L 3091 -63 
L 3091 128 
C 2714 128 2656 166 2656 473 
L 2656 2763 
L 1882 2693 
z
" transform="scale(0.015625)"/>
        <path id="CMR17-6c" d="M 979 4396 
L 218 4326 
L 218 4160 
C 595 4160 653 4122 653 3817 
L 653 426 
C 653 184 627 153 218 153 
L 218 -13 
C 371 0 653 0 813 0 
C 979 0 1261 0 1414 -13 
L 1414 153 
C 1005 153 979 178 979 426 
L 979 4396 
z
" transform="scale(0.015625)"/>
        <path id="CMR17-65" d="M 2438 1472 
C 2464 1498 2464 1511 2464 1576 
C 2464 2238 2118 2816 1389 2816 
C 710 2816 173 2169 173 1383 
C 173 551 781 -64 1459 -64 
C 2176 -64 2458 607 2458 740 
C 2458 784 2419 784 2406 784 
C 2362 784 2355 771 2330 696 
C 2189 265 1837 51 1504 51 
C 1229 51 954 203 781 480 
C 582 803 582 1176 582 1472 
L 2438 1472 
z
M 589 1568 
C 634 2505 1126 2714 1382 2714 
C 1818 2714 2112 2297 2118 1568 
L 589 1568 
z
" transform="scale(0.015625)"/>
       </defs>
       <use xlink:href="#CMR17-42" transform="scale(0.996264)"/>
       <use xlink:href="#CMR17-6f" transform="translate(65.188754 0) scale(0.996264)"/>
       <use xlink:href="#CMR17-72" transform="translate(110.879232 0) scale(0.996264)"/>
       <use xlink:href="#CMR17-64" transform="translate(146.159999 0) scale(0.996264)"/>
       <use xlink:href="#CMR17-61" transform="translate(197.055369 0) scale(0.996264)"/>
       <use xlink:href="#CMR17-72" transform="translate(272.821813 0) scale(0.996264)"/>
       <use xlink:href="#CMR17-75" transform="translate(308.10258 0) scale(0.996264)"/>
       <use xlink:href="#CMR17-6c" transform="translate(358.99795 0) scale(0.996264)"/>
       <use xlink:href="#CMR17-65" transform="translate(383.869009 0) scale(0.996264)"/>
      </g>
     </g>
    </g>
    <g id="xtick_2">
     <g id="line2d_2">
      <g>
       <use xlink:href="#m9bca9b59fa" x="293.420749" y="384.626418" style="stroke: #000000; stroke-width: 0.8"/>
      </g>
     </g>
     <g id="text_2">
      <!-- Copeland's Rule -->
      <g transform="translate(254.19692 399.236765) scale(0.11 -0.11)">
       <defs>
        <path id="CMR17-43" d="M 3974 4289 
C 3974 4403 3968 4410 3930 4410 
C 3904 4410 3898 4403 3853 4327 
L 3571 3792 
C 3258 4187 2874 4416 2381 4416 
C 1286 4416 294 3456 294 2148 
C 294 826 1286 -128 2387 -128 
C 3366 -128 3974 730 3974 1461 
C 3974 1524 3974 1550 3917 1550 
C 3866 1550 3866 1531 3859 1474 
C 3808 585 3168 38 2477 38 
C 1824 38 781 495 781 2147 
C 781 3805 1843 4250 2464 4250 
C 3187 4250 3712 3628 3834 2745 
C 3846 2668 3846 2655 3904 2655 
C 3974 2655 3974 2668 3974 2783 
L 3974 4289 
z
" transform="scale(0.015625)"/>
        <path id="CMR17-70" d="M 1408 -1063 
C 998 -1063 973 -1037 973 -789 
L 973 402 
C 1158 134 1427 -38 1766 -38 
C 2406 -38 3053 523 3053 1388 
C 3053 2191 2496 2802 1837 2802 
C 1453 2802 1139 2592 960 2338 
L 960 2802 
L 198 2732 
L 198 2567 
C 576 2567 634 2528 634 2223 
L 634 -789 
C 634 -1031 608 -1063 198 -1063 
L 198 -1228 
C 352 -1216 634 -1216 800 -1216 
C 966 -1216 1254 -1216 1408 -1228 
L 1408 -1063 
z
M 973 2012 
C 973 2102 973 2235 1222 2471 
C 1254 2497 1472 2688 1792 2688 
C 2259 2688 2643 2108 2643 1382 
C 2643 656 2234 64 1728 64 
C 1498 64 1248 172 1056 472 
C 973 612 973 650 973 752 
L 973 2012 
z
" transform="scale(0.015625)"/>
        <path id="CMR17-6e" d="M 2656 1933 
C 2656 2259 2592 2790 1837 2790 
C 1331 2790 1069 2400 973 2144 
L 966 2144 
L 966 2790 
L 211 2720 
L 211 2554 
C 589 2554 646 2515 646 2208 
L 646 428 
C 646 184 621 153 211 153 
L 211 -13 
C 365 0 646 0 813 0 
C 979 0 1267 0 1421 -13 
L 1421 153 
C 1011 153 986 178 986 428 
L 986 1658 
C 986 2247 1344 2688 1792 2688 
C 2266 2688 2317 2266 2317 1958 
L 2317 428 
C 2317 184 2291 153 1882 153 
L 1882 -13 
C 2035 0 2317 0 2483 0 
C 2650 0 2938 0 3091 -13 
L 3091 153 
C 2682 153 2656 178 2656 428 
L 2656 1933 
z
" transform="scale(0.015625)"/>
        <path id="CMR17-27" d="M 1024 4025 
C 1037 3955 1043 3929 1043 3820 
C 1043 3415 883 3042 634 2778 
C 608 2752 595 2733 595 2707 
C 595 2681 621 2656 646 2656 
C 691 2656 1146 3105 1146 3811 
C 1146 3952 1133 4426 800 4426 
C 659 4426 538 4331 538 4165 
C 538 3999 659 3904 800 3904 
C 858 3904 966 3923 1024 4025 
z
" transform="scale(0.015625)"/>
        <path id="CMR17-73" d="M 1978 2697 
C 1978 2813 1971 2819 1933 2819 
C 1907 2819 1901 2813 1824 2717 
C 1805 2691 1747 2626 1728 2601 
C 1523 2819 1235 2819 1126 2819 
C 416 2819 160 2447 160 2076 
C 160 1498 813 1365 998 1325 
C 1402 1243 1542 1217 1677 1101 
C 1760 1025 1901 884 1901 654 
C 1901 384 1747 38 1158 38 
C 602 38 403 460 288 1021 
C 269 1110 269 1117 218 1117 
C 166 1117 160 1110 160 983 
L 160 63 
C 160 -51 166 -58 205 -58 
C 237 -58 243 -51 275 0 
C 314 57 410 211 448 276 
C 576 103 800 -64 1158 -64 
C 1792 -64 2131 283 2131 784 
C 2131 1112 1958 1285 1875 1362 
C 1683 1561 1459 1606 1190 1657 
C 838 1735 390 1825 390 2217 
C 390 2383 480 2737 1126 2737 
C 1811 2737 1850 2094 1862 1888 
C 1869 1856 1901 1849 1920 1849 
C 1978 1849 1978 1869 1978 1978 
L 1978 2697 
z
" transform="scale(0.015625)"/>
        <path id="CMR17-52" d="M 2509 2146 
C 3117 2268 3629 2676 3629 3186 
C 3629 3785 2950 4326 2054 4326 
L 333 4326 
L 333 4160 
C 774 4160 845 4160 845 3873 
L 845 415 
C 845 128 774 128 333 128 
L 333 -26 
C 518 -26 851 -26 1050 -26 
C 1248 -26 1581 -26 1766 -26 
L 1766 128 
C 1325 128 1254 128 1254 417 
L 1254 2112 
L 2003 2112 
C 2368 2112 2573 1964 2662 1881 
C 2918 1632 2918 1459 2918 1024 
C 2918 595 2918 377 3110 160 
C 3354 -102 3680 -128 3821 -128 
C 4294 -128 4365 396 4365 503 
C 4365 540 4365 585 4307 585 
C 4256 585 4250 547 4250 522 
C 4218 112 4032 -26 3834 -26 
C 3482 -26 3443 375 3405 764 
C 3386 898 3373 993 3360 1133 
C 3322 1452 3270 1917 2509 2146 
z
M 1984 2214 
L 1254 2214 
L 1254 3913 
C 1254 4129 1267 4160 1523 4160 
L 1990 4160 
C 2522 4160 3142 3977 3142 3190 
C 3142 2372 2464 2214 1984 2214 
z
" transform="scale(0.015625)"/>
       </defs>
       <use xlink:href="#CMR17-43" transform="scale(0.996264)"/>
       <use xlink:href="#CMR17-6f" transform="translate(66.509881 0) scale(0.996264)"/>
       <use xlink:href="#CMR17-70" transform="translate(112.200358 0) scale(0.996264)"/>
       <use xlink:href="#CMR17-65" transform="translate(165.698166 0) scale(0.996264)"/>
       <use xlink:href="#CMR17-6c" transform="translate(206.183827 0) scale(0.996264)"/>
       <use xlink:href="#CMR17-61" transform="translate(231.054885 0) scale(0.996264)"/>
       <use xlink:href="#CMR17-6e" transform="translate(276.745362 0) scale(0.996264)"/>
       <use xlink:href="#CMR17-64" transform="translate(327.640732 0) scale(0.996264)"/>
       <use xlink:href="#CMR17-27" transform="translate(378.536102 0) scale(0.996264)"/>
       <use xlink:href="#CMR17-73" transform="translate(403.40716 0) scale(0.996264)"/>
       <use xlink:href="#CMR17-52" transform="translate(469.284464 0) scale(0.996264)"/>
       <use xlink:href="#CMR17-75" transform="translate(537.075566 0) scale(0.996264)"/>
       <use xlink:href="#CMR17-6c" transform="translate(587.970936 0) scale(0.996264)"/>
       <use xlink:href="#CMR17-65" transform="translate(612.841994 0) scale(0.996264)"/>
      </g>
     </g>
    </g>
    <g id="xtick_3">
     <g id="line2d_3">
      <g>
       <use xlink:href="#m9bca9b59fa" x="463.094667" y="384.626418" style="stroke: #000000; stroke-width: 0.8"/>
      </g>
     </g>
     <g id="text_3">
      <!-- Plurality rule -->
      <g transform="translate(431.024584 399.236765) scale(0.11 -0.11)">
       <defs>
        <path id="CMR17-50" d="M 1267 2042 
L 2291 2042 
C 3117 2042 3718 2578 3718 3184 
C 3718 3791 3130 4352 2291 4352 
L 333 4352 
L 333 4186 
C 774 4186 845 4186 845 3899 
L 845 446 
C 845 160 774 160 333 160 
L 333 0 
C 518 0 858 0 1056 0 
C 1254 0 1594 0 1779 0 
L 1779 160 
C 1338 160 1267 160 1267 446 
L 1267 2042 
z
M 1254 2176 
L 1254 3938 
C 1254 4155 1267 4186 1523 4186 
L 2170 4186 
C 2995 4186 3232 3714 3232 3184 
C 3232 2604 2950 2176 2170 2176 
L 1254 2176 
z
" transform="scale(0.015625)"/>
        <path id="CMR17-69" d="M 992 3909 
C 992 4049 877 4170 730 4170 
C 589 4170 467 4056 467 3909 
C 467 3769 582 3648 730 3648 
C 870 3648 992 3763 992 3909 
z
M 243 2706 
L 243 2541 
C 602 2541 653 2502 653 2197 
L 653 427 
C 653 184 627 153 218 153 
L 218 -13 
C 371 0 646 0 806 0 
C 960 0 1222 0 1370 -13 
L 1370 153 
C 992 153 979 191 979 420 
L 979 2776 
L 243 2706 
z
" transform="scale(0.015625)"/>
        <path id="CMR17-74" d="M 966 2560 
L 1862 2560 
L 1862 2725 
L 966 2725 
L 966 3904 
L 851 3904 
C 838 3245 614 2668 70 2668 
L 70 2560 
L 627 2560 
L 627 771 
C 627 650 627 -64 1370 -64 
C 1747 -64 1965 306 1965 777 
L 1965 1140 
L 1850 1140 
L 1850 783 
C 1850 344 1677 51 1408 51 
C 1222 51 966 178 966 758 
L 966 2560 
z
" transform="scale(0.015625)"/>
        <path id="CMR17-79" d="M 2496 2197 
C 2656 2586 2944 2586 3034 2586 
L 3034 2752 
C 2912 2752 2752 2752 2630 2752 
C 2496 2752 2285 2752 2157 2758 
L 2157 2592 
C 2400 2573 2406 2394 2406 2343 
C 2406 2280 2394 2248 2362 2171 
L 1664 449 
L 902 2306 
C 870 2382 870 2426 870 2433 
C 870 2573 1018 2586 1171 2586 
L 1171 2758 
C 1018 2752 742 2752 582 2752 
C 410 2752 205 2752 64 2758 
L 64 2586 
C 410 2586 448 2554 531 2350 
L 1485 15 
C 1197 -738 1030 -1178 627 -1178 
C 557 -1178 397 -1159 282 -1044 
C 429 -1031 493 -942 493 -833 
C 493 -725 416 -629 288 -629 
C 147 -629 77 -725 77 -840 
C 77 -1095 339 -1280 627 -1280 
C 998 -1280 1229 -922 1357 -604 
L 2496 2197 
z
" transform="scale(0.015625)"/>
       </defs>
       <use xlink:href="#CMR17-50" transform="scale(0.996264)"/>
       <use xlink:href="#CMR17-6c" transform="translate(62.586301 0) scale(0.996264)"/>
       <use xlink:href="#CMR17-75" transform="translate(87.457359 0) scale(0.996264)"/>
       <use xlink:href="#CMR17-72" transform="translate(138.352729 0) scale(0.996264)"/>
       <use xlink:href="#CMR17-61" transform="translate(173.633497 0) scale(0.996264)"/>
       <use xlink:href="#CMR17-6c" transform="translate(219.323974 0) scale(0.996264)"/>
       <use xlink:href="#CMR17-69" transform="translate(244.195032 0) scale(0.996264)"/>
       <use xlink:href="#CMR17-74" transform="translate(269.066091 0) scale(0.996264)"/>
       <use xlink:href="#CMR17-79" transform="translate(301.744405 0) scale(0.996264)"/>
       <use xlink:href="#CMR17-72" transform="translate(380.113287 0) scale(0.996264)"/>
       <use xlink:href="#CMR17-75" transform="translate(415.394055 0) scale(0.996264)"/>
       <use xlink:href="#CMR17-6c" transform="translate(466.289424 0) scale(0.996264)"/>
       <use xlink:href="#CMR17-65" transform="translate(491.160483 0) scale(0.996264)"/>
      </g>
     </g>
    </g>
    <g id="xtick_4">
     <g id="line2d_4">
      <g>
       <use xlink:href="#m9bca9b59fa" x="632.768585" y="384.626418" style="stroke: #000000; stroke-width: 0.8"/>
      </g>
     </g>
     <g id="text_4">
      <!-- Black's Rule -->
      <g transform="translate(602.90552 399.236765) scale(0.11 -0.11)">
       <defs>
        <path id="CMR17-63" d="M 2234 2240 
C 2112 2240 1933 2240 1933 2017 
C 1933 1838 2080 1787 2163 1787 
C 2208 1787 2394 1807 2394 2024 
C 2394 2467 1958 2803 1466 2803 
C 787 2803 211 2178 211 1363 
C 211 516 813 -64 1466 -64 
C 2259 -64 2458 677 2458 748 
C 2458 774 2451 793 2406 793 
C 2362 793 2355 787 2330 703 
C 2163 180 1798 51 1523 51 
C 1114 51 621 427 621 1369 
C 621 2338 1094 2688 1472 2688 
C 1722 2688 2093 2573 2234 2240 
z
" transform="scale(0.015625)"/>
        <path id="CMR17-6b" d="M 1670 1673 
C 1664 1686 1632 1724 1632 1743 
C 1632 1756 2086 2171 2144 2222 
C 2509 2528 2739 2560 2906 2560 
L 2906 2733 
C 2867 2733 2854 2733 2848 2720 
L 2534 2720 
C 2355 2720 2080 2720 1907 2733 
L 1907 2566 
C 1997 2559 2061 2508 2061 2419 
C 2061 2291 1933 2170 1926 2170 
L 960 1289 
L 960 4396 
L 198 4326 
L 198 4160 
C 576 4160 634 4122 634 3817 
L 634 426 
C 634 184 608 153 198 153 
L 198 -13 
C 352 0 634 0 794 0 
C 954 0 1235 0 1389 -13 
L 1389 153 
C 979 153 954 178 954 428 
L 954 1130 
L 1395 1532 
L 2042 574 
C 2118 459 2182 369 2182 286 
C 2182 172 2067 153 1990 153 
L 1990 -13 
C 2144 0 2419 0 2579 0 
C 2694 0 2931 0 3040 0 
L 3040 153 
C 2739 153 2669 210 2477 491 
L 1670 1673 
z
" transform="scale(0.015625)"/>
       </defs>
       <use xlink:href="#CMR17-42" transform="scale(0.996264)"/>
       <use xlink:href="#CMR17-6c" transform="translate(65.188754 0) scale(0.996264)"/>
       <use xlink:href="#CMR17-61" transform="translate(90.059813 0) scale(0.996264)"/>
       <use xlink:href="#CMR17-63" transform="translate(135.75029 0) scale(0.996264)"/>
       <use xlink:href="#CMR17-6b" transform="translate(173.633497 0) scale(0.996264)"/>
       <use xlink:href="#CMR17-27" transform="translate(221.926412 0) scale(0.996264)"/>
       <use xlink:href="#CMR17-73" transform="translate(246.797471 0) scale(0.996264)"/>
       <use xlink:href="#CMR17-52" transform="translate(312.674775 0) scale(0.996264)"/>
       <use xlink:href="#CMR17-75" transform="translate(380.465877 0) scale(0.996264)"/>
       <use xlink:href="#CMR17-6c" transform="translate(431.361247 0) scale(0.996264)"/>
       <use xlink:href="#CMR17-65" transform="translate(456.232305 0) scale(0.996264)"/>
      </g>
     </g>
    </g>
    <g id="text_5">
     <!-- Number of voters -->
     <g transform="translate(329.964678 414.361688) scale(0.13 -0.13)">
      <defs>
       <path id="CMR17-4e" d="M 1312 4250 
C 1267 4320 1261 4320 1139 4320 
L 326 4320 
L 326 4160 
L 448 4160 
C 704 4160 819 4129 838 4122 
L 838 610 
C 838 451 838 153 326 153 
L 326 -13 
C 474 0 742 0 902 0 
C 1062 0 1331 0 1478 -13 
L 1478 153 
C 966 153 966 451 966 610 
L 966 4033 
C 1011 3995 1011 3982 1056 3919 
L 3430 76 
C 3475 0 3494 0 3526 0 
C 3590 0 3590 19 3590 139 
L 3590 3705 
C 3590 3863 3590 4160 4102 4160 
L 4102 4326 
C 3955 4320 3686 4320 3526 4320 
C 3366 4320 3098 4320 2950 4326 
L 2950 4160 
C 3462 4160 3462 3862 3462 3703 
L 3462 763 
L 1312 4250 
z
" transform="scale(0.015625)"/>
       <path id="CMR17-6d" d="M 4326 1933 
C 4326 2252 4269 2790 3507 2790 
C 3072 2790 2771 2496 2656 2151 
L 2650 2151 
C 2573 2676 2195 2790 1837 2790 
C 1331 2790 1069 2400 973 2144 
L 966 2144 
L 966 2790 
L 211 2720 
L 211 2554 
C 589 2554 646 2515 646 2208 
L 646 428 
C 646 184 621 153 211 153 
L 211 -13 
C 365 0 646 0 813 0 
C 979 0 1267 0 1421 -13 
L 1421 153 
C 1011 153 986 178 986 428 
L 986 1658 
C 986 2247 1344 2688 1792 2688 
C 2266 2688 2317 2266 2317 1958 
L 2317 428 
C 2317 184 2291 153 1882 153 
L 1882 -13 
C 2035 0 2317 0 2483 0 
C 2650 0 2938 0 3091 -13 
L 3091 153 
C 2682 153 2656 178 2656 428 
L 2656 1658 
C 2656 2247 3014 2688 3462 2688 
C 3936 2688 3987 2266 3987 1958 
L 3987 428 
C 3987 184 3962 153 3552 153 
L 3552 -13 
C 3706 0 3987 0 4154 0 
C 4320 0 4608 0 4762 -13 
L 4762 153 
C 4352 153 4326 178 4326 428 
L 4326 1933 
z
" transform="scale(0.015625)"/>
       <path id="CMR17-62" d="M 960 4396 
L 198 4326 
L 198 4160 
C 576 4160 634 4122 634 3817 
L 634 -13 
L 749 -13 
L 934 441 
C 1120 141 1395 -64 1766 -64 
C 2406 -64 3053 500 3053 1370 
C 3053 2188 2477 2790 1830 2790 
C 1434 2790 1152 2579 960 2330 
L 960 4396 
z
M 973 2004 
C 973 2118 973 2138 1062 2272 
C 1312 2657 1670 2688 1792 2688 
C 1984 2688 2643 2585 2643 1376 
C 2643 108 1888 38 1734 38 
C 1536 38 1248 114 1043 486 
C 973 608 973 621 973 735 
L 973 2004 
z
" transform="scale(0.015625)"/>
       <path id="CMR17-66" d="M 979 2560 
L 1709 2560 
L 1709 2725 
L 966 2725 
L 966 3494 
C 966 4022 1235 4352 1510 4352 
C 1594 4352 1690 4327 1754 4282 
C 1702 4269 1568 4225 1568 4067 
C 1568 3901 1696 3850 1786 3850 
C 1875 3850 2003 3901 2003 4067 
C 2003 4308 1773 4454 1517 4454 
C 1152 4454 653 4156 653 3481 
L 653 2725 
L 141 2725 
L 141 2560 
L 653 2560 
L 653 427 
C 653 184 627 153 218 153 
L 218 -13 
C 371 0 666 0 832 0 
C 1018 0 1344 0 1517 -13 
L 1517 153 
C 1056 153 979 153 979 439 
L 979 2560 
z
" transform="scale(0.015625)"/>
       <path id="CMR17-76" d="M 2502 2163 
C 2560 2304 2662 2560 3034 2560 
L 3034 2726 
C 2912 2726 2752 2726 2630 2726 
C 2496 2726 2285 2726 2157 2732 
L 2157 2566 
C 2317 2553 2406 2477 2406 2311 
C 2406 2253 2406 2240 2368 2151 
L 1664 377 
L 902 2286 
C 864 2369 864 2381 864 2407 
C 864 2560 1075 2560 1171 2560 
L 1171 2732 
C 1018 2726 736 2726 576 2726 
C 403 2726 205 2726 64 2732 
L 64 2560 
C 307 2560 442 2560 518 2362 
L 1446 44 
C 1485 -51 1491 -64 1549 -64 
C 1606 -64 1613 -51 1651 44 
L 2502 2163 
z
" transform="scale(0.015625)"/>
      </defs>
      <use xlink:href="#CMR17-4e" transform="scale(0.996264)"/>
      <use xlink:href="#CMR17-75" transform="translate(69.07243 0) scale(0.996264)"/>
      <use xlink:href="#CMR17-6d" transform="translate(119.9678 0) scale(0.996264)"/>
      <use xlink:href="#CMR17-62" transform="translate(194.284936 0) scale(0.996264)"/>
      <use xlink:href="#CMR17-65" transform="translate(247.782744 0) scale(0.996264)"/>
      <use xlink:href="#CMR17-72" transform="translate(288.268404 0) scale(0.996264)"/>
      <use xlink:href="#CMR17-6f" transform="translate(353.625139 0) scale(0.996264)"/>
      <use xlink:href="#CMR17-66" transform="translate(399.315616 0) scale(0.996264)"/>
      <use xlink:href="#CMR17-76" transform="translate(456.865095 0) scale(0.996264)"/>
      <use xlink:href="#CMR17-6f" transform="translate(502.555556 0) scale(0.996264)"/>
      <use xlink:href="#CMR17-74" transform="translate(548.246034 0) scale(0.996264)"/>
      <use xlink:href="#CMR17-65" transform="translate(583.526801 0) scale(0.996264)"/>
      <use xlink:href="#CMR17-72" transform="translate(624.012462 0) scale(0.996264)"/>
      <use xlink:href="#CMR17-73" transform="translate(659.29323 0) scale(0.996264)"/>
     </g>
    </g>
   </g>
   <g id="matplotlib.axis_2">
    <g id="ytick_1">
     <g id="line2d_5">
      <path d="M 51.635416 368.512219 
L 704.88 368.512219 
" clip-path="url(#p39d220e504)" style="fill: none; stroke: #b0b0b0; stroke-opacity: 0.3; stroke-linecap: square"/>
     </g>
     <g id="line2d_6">
      <defs>
       <path id="m3b2121b1d6" d="M 0 0 
L -3.5 0 
" style="stroke: #000000; stroke-width: 0.8"/>
      </defs>
      <g>
       <use xlink:href="#m3b2121b1d6" x="51.635416" y="368.512219" style="stroke: #000000; stroke-width: 0.8"/>
      </g>
     </g>
     <g id="text_6">
      <!-- $\mathdefault{1.0}$ -->
      <g transform="translate(30.63234 372.317392) scale(0.11 -0.11)">
       <defs>
        <path id="CMR17-31" d="M 1702 4058 
C 1702 4192 1696 4192 1606 4192 
C 1357 3916 979 3827 621 3827 
C 602 3827 570 3827 563 3808 
C 557 3795 557 3782 557 3648 
C 755 3648 1088 3686 1344 3839 
L 1344 461 
C 1344 236 1331 160 781 160 
L 589 160 
L 589 0 
C 896 0 1216 0 1523 0 
C 1830 0 2150 0 2458 0 
L 2458 160 
L 2266 160 
C 1715 160 1702 230 1702 458 
L 1702 4058 
z
" transform="scale(0.015625)"/>
        <path id="CMMI12-3a" d="M 1178 307 
C 1178 492 1024 619 870 619 
C 685 619 557 466 557 313 
C 557 128 710 0 864 0 
C 1050 0 1178 153 1178 307 
z
" transform="scale(0.015625)"/>
        <path id="CMR17-30" d="M 2688 2025 
C 2688 2416 2682 3080 2413 3591 
C 2176 4039 1798 4198 1466 4198 
C 1158 4198 768 4058 525 3597 
C 269 3118 243 2524 243 2025 
C 243 1661 250 1106 448 619 
C 723 -39 1216 -128 1466 -128 
C 1760 -128 2208 -7 2470 600 
C 2662 1042 2688 1559 2688 2025 
z
M 1466 -26 
C 1056 -26 813 325 723 812 
C 653 1188 653 1738 653 2096 
C 653 2588 653 2997 736 3387 
C 858 3929 1216 4096 1466 4096 
C 1728 4096 2067 3923 2189 3400 
C 2272 3036 2278 2607 2278 2096 
C 2278 1680 2278 1169 2202 792 
C 2067 95 1690 -26 1466 -26 
z
" transform="scale(0.015625)"/>
       </defs>
       <use xlink:href="#CMR17-31" transform="scale(0.996264)"/>
       <use xlink:href="#CMMI12-3a" transform="translate(45.690477 0) scale(0.996264)"/>
       <use xlink:href="#CMR17-30" transform="translate(72.787654 0) scale(0.996264)"/>
      </g>
     </g>
    </g>
    <g id="ytick_2">
     <g id="line2d_7">
      <path d="M 51.635416 326.31441 
L 704.88 326.31441 
" clip-path="url(#p39d220e504)" style="fill: none; stroke: #b0b0b0; stroke-opacity: 0.3; stroke-linecap: square"/>
     </g>
     <g id="line2d_8">
      <g>
       <use xlink:href="#m3b2121b1d6" x="51.635416" y="326.31441" style="stroke: #000000; stroke-width: 0.8"/>
      </g>
     </g>
     <g id="text_7">
      <!-- $\mathdefault{1.2}$ -->
      <g transform="translate(30.63234 330.119583) scale(0.11 -0.11)">
       <defs>
        <path id="CMR17-32" d="M 2669 989 
L 2554 989 
C 2490 536 2438 459 2413 420 
C 2381 369 1920 369 1830 369 
L 602 369 
C 832 619 1280 1072 1824 1597 
C 2214 1967 2669 2402 2669 3035 
C 2669 3790 2067 4224 1395 4224 
C 691 4224 262 3604 262 3030 
C 262 2780 448 2748 525 2748 
C 589 2748 781 2787 781 3010 
C 781 3207 614 3264 525 3264 
C 486 3264 448 3258 422 3245 
C 544 3790 915 4058 1306 4058 
C 1862 4058 2227 3617 2227 3035 
C 2227 2479 1901 2000 1536 1584 
L 262 146 
L 262 0 
L 2515 0 
L 2669 989 
z
" transform="scale(0.015625)"/>
       </defs>
       <use xlink:href="#CMR17-31" transform="scale(0.996264)"/>
       <use xlink:href="#CMMI12-3a" transform="translate(45.690477 0) scale(0.996264)"/>
       <use xlink:href="#CMR17-32" transform="translate(72.787654 0) scale(0.996264)"/>
      </g>
     </g>
    </g>
    <g id="ytick_3">
     <g id="line2d_9">
      <path d="M 51.635416 284.116601 
L 704.88 284.116601 
" clip-path="url(#p39d220e504)" style="fill: none; stroke: #b0b0b0; stroke-opacity: 0.3; stroke-linecap: square"/>
     </g>
     <g id="line2d_10">
      <g>
       <use xlink:href="#m3b2121b1d6" x="51.635416" y="284.116601" style="stroke: #000000; stroke-width: 0.8"/>
      </g>
     </g>
     <g id="text_8">
      <!-- $\mathdefault{1.4}$ -->
      <g transform="translate(30.63234 287.921774) scale(0.11 -0.11)">
       <defs>
        <path id="CMR17-34" d="M 2150 4122 
C 2150 4256 2144 4256 2029 4256 
L 128 1254 
L 128 1088 
L 1779 1088 
L 1779 457 
C 1779 224 1766 160 1318 160 
L 1197 160 
L 1197 0 
C 1402 0 1747 0 1965 0 
C 2182 0 2528 0 2733 0 
L 2733 160 
L 2611 160 
C 2163 160 2150 224 2150 457 
L 2150 1088 
L 2803 1088 
L 2803 1254 
L 2150 1254 
L 2150 4122 
z
M 1798 3703 
L 1798 1254 
L 256 1254 
L 1798 3703 
z
" transform="scale(0.015625)"/>
       </defs>
       <use xlink:href="#CMR17-31" transform="scale(0.996264)"/>
       <use xlink:href="#CMMI12-3a" transform="translate(45.690477 0) scale(0.996264)"/>
       <use xlink:href="#CMR17-34" transform="translate(72.787654 0) scale(0.996264)"/>
      </g>
     </g>
    </g>
    <g id="ytick_4">
     <g id="line2d_11">
      <path d="M 51.635416 241.918792 
L 704.88 241.918792 
" clip-path="url(#p39d220e504)" style="fill: none; stroke: #b0b0b0; stroke-opacity: 0.3; stroke-linecap: square"/>
     </g>
     <g id="line2d_12">
      <g>
       <use xlink:href="#m3b2121b1d6" x="51.635416" y="241.918792" style="stroke: #000000; stroke-width: 0.8"/>
      </g>
     </g>
     <g id="text_9">
      <!-- $\mathdefault{1.6}$ -->
      <g transform="translate(30.63234 245.723965) scale(0.11 -0.11)">
       <defs>
        <path id="CMR17-36" d="M 678 2176 
C 678 3690 1395 4032 1811 4032 
C 1946 4032 2272 4009 2400 3776 
C 2298 3776 2106 3776 2106 3553 
C 2106 3381 2246 3323 2336 3323 
C 2394 3323 2566 3348 2566 3560 
C 2566 3954 2246 4179 1805 4179 
C 1043 4179 243 3390 243 1984 
C 243 253 966 -128 1478 -128 
C 2099 -128 2688 427 2688 1283 
C 2688 2081 2170 2662 1517 2662 
C 1126 2662 838 2407 678 1960 
L 678 2176 
z
M 1478 25 
C 691 25 691 1200 691 1436 
C 691 1896 909 2560 1504 2560 
C 1613 2560 1926 2560 2138 2120 
C 2253 1870 2253 1609 2253 1289 
C 2253 944 2253 690 2118 434 
C 1978 171 1773 25 1478 25 
z
" transform="scale(0.015625)"/>
       </defs>
       <use xlink:href="#CMR17-31" transform="scale(0.996264)"/>
       <use xlink:href="#CMMI12-3a" transform="translate(45.690477 0) scale(0.996264)"/>
       <use xlink:href="#CMR17-36" transform="translate(72.787654 0) scale(0.996264)"/>
      </g>
     </g>
    </g>
    <g id="ytick_5">
     <g id="line2d_13">
      <path d="M 51.635416 199.720983 
L 704.88 199.720983 
" clip-path="url(#p39d220e504)" style="fill: none; stroke: #b0b0b0; stroke-opacity: 0.3; stroke-linecap: square"/>
     </g>
     <g id="line2d_14">
      <g>
       <use xlink:href="#m3b2121b1d6" x="51.635416" y="199.720983" style="stroke: #000000; stroke-width: 0.8"/>
      </g>
     </g>
     <g id="text_10">
      <!-- $\mathdefault{1.8}$ -->
      <g transform="translate(30.63234 203.526156) scale(0.11 -0.11)">
       <defs>
        <path id="CMR17-38" d="M 1741 2264 
C 2144 2467 2554 2773 2554 3263 
C 2554 3841 1990 4179 1472 4179 
C 890 4179 378 3759 378 3180 
C 378 3021 416 2747 666 2505 
C 730 2442 998 2251 1171 2130 
C 883 1983 211 1634 211 934 
C 211 279 838 -128 1459 -128 
C 2144 -128 2720 362 2720 1010 
C 2720 1590 2330 1857 2074 2029 
L 1741 2264 
z
M 902 2822 
C 851 2854 595 3051 595 3351 
C 595 3739 998 4032 1459 4032 
C 1965 4032 2336 3676 2336 3262 
C 2336 2669 1670 2331 1638 2331 
C 1632 2331 1626 2331 1574 2370 
L 902 2822 
z
M 2080 1519 
C 2176 1449 2483 1240 2483 851 
C 2483 381 2010 25 1472 25 
C 890 25 448 438 448 940 
C 448 1443 838 1862 1280 2060 
L 2080 1519 
z
" transform="scale(0.015625)"/>
       </defs>
       <use xlink:href="#CMR17-31" transform="scale(0.996264)"/>
       <use xlink:href="#CMMI12-3a" transform="translate(45.690477 0) scale(0.996264)"/>
       <use xlink:href="#CMR17-38" transform="translate(72.787654 0) scale(0.996264)"/>
      </g>
     </g>
    </g>
    <g id="ytick_6">
     <g id="line2d_15">
      <path d="M 51.635416 157.523174 
L 704.88 157.523174 
" clip-path="url(#p39d220e504)" style="fill: none; stroke: #b0b0b0; stroke-opacity: 0.3; stroke-linecap: square"/>
     </g>
     <g id="line2d_16">
      <g>
       <use xlink:href="#m3b2121b1d6" x="51.635416" y="157.523174" style="stroke: #000000; stroke-width: 0.8"/>
      </g>
     </g>
     <g id="text_11">
      <!-- $\mathdefault{2.0}$ -->
      <g transform="translate(30.63234 161.328347) scale(0.11 -0.11)">
       <use xlink:href="#CMR17-32" transform="scale(0.996264)"/>
       <use xlink:href="#CMMI12-3a" transform="translate(45.690477 0) scale(0.996264)"/>
       <use xlink:href="#CMR17-30" transform="translate(72.787654 0) scale(0.996264)"/>
      </g>
     </g>
    </g>
    <g id="ytick_7">
     <g id="line2d_17">
      <path d="M 51.635416 115.325365 
L 704.88 115.325365 
" clip-path="url(#p39d220e504)" style="fill: none; stroke: #b0b0b0; stroke-opacity: 0.3; stroke-linecap: square"/>
     </g>
     <g id="line2d_18">
      <g>
       <use xlink:href="#m3b2121b1d6" x="51.635416" y="115.325365" style="stroke: #000000; stroke-width: 0.8"/>
      </g>
     </g>
     <g id="text_12">
      <!-- $\mathdefault{2.2}$ -->
      <g transform="translate(30.63234 119.130538) scale(0.11 -0.11)">
       <use xlink:href="#CMR17-32" transform="scale(0.996264)"/>
       <use xlink:href="#CMMI12-3a" transform="translate(45.690477 0) scale(0.996264)"/>
       <use xlink:href="#CMR17-32" transform="translate(72.787654 0) scale(0.996264)"/>
      </g>
     </g>
    </g>
    <g id="ytick_8">
     <g id="line2d_19">
      <path d="M 51.635416 73.127556 
L 704.88 73.127556 
" clip-path="url(#p39d220e504)" style="fill: none; stroke: #b0b0b0; stroke-opacity: 0.3; stroke-linecap: square"/>
     </g>
     <g id="line2d_20">
      <g>
       <use xlink:href="#m3b2121b1d6" x="51.635416" y="73.127556" style="stroke: #000000; stroke-width: 0.8"/>
      </g>
     </g>
     <g id="text_13">
      <!-- $\mathdefault{2.4}$ -->
      <g transform="translate(30.63234 76.932729) scale(0.11 -0.11)">
       <use xlink:href="#CMR17-32" transform="scale(0.996264)"/>
       <use xlink:href="#CMMI12-3a" transform="translate(45.690477 0) scale(0.996264)"/>
       <use xlink:href="#CMR17-34" transform="translate(72.787654 0) scale(0.996264)"/>
      </g>
     </g>
    </g>
    <g id="ytick_9">
     <g id="line2d_21">
      <path d="M 51.635416 30.929747 
L 704.88 30.929747 
" clip-path="url(#p39d220e504)" style="fill: none; stroke: #b0b0b0; stroke-opacity: 0.3; stroke-linecap: square"/>
     </g>
     <g id="line2d_22">
      <g>
       <use xlink:href="#m3b2121b1d6" x="51.635416" y="30.929747" style="stroke: #000000; stroke-width: 0.8"/>
      </g>
     </g>
     <g id="text_14">
      <!-- $\mathdefault{2.6}$ -->
      <g transform="translate(30.63234 34.73492) scale(0.11 -0.11)">
       <use xlink:href="#CMR17-32" transform="scale(0.996264)"/>
       <use xlink:href="#CMMI12-3a" transform="translate(45.690477 0) scale(0.996264)"/>
       <use xlink:href="#CMR17-36" transform="translate(72.787654 0) scale(0.996264)"/>
      </g>
     </g>
    </g>
    <g id="text_15">
     <!-- Distortion -->
     <g transform="translate(24.114028 235.497321) rotate(-90) scale(0.13 -0.13)">
      <defs>
       <path id="CMR17-44" d="M 333 4352 
L 333 4186 
C 774 4186 845 4186 845 3900 
L 845 452 
C 845 166 774 166 333 166 
L 333 0 
L 2368 0 
C 3398 0 4224 943 4224 2141 
C 4224 3346 3411 4352 2368 4352 
L 333 4352 
z
M 1523 166 
C 1267 166 1254 197 1254 414 
L 1254 3938 
C 1254 4155 1267 4186 1523 4186 
L 2240 4186 
C 2771 4186 3750 3874 3750 2141 
C 3750 1242 3488 879 3366 707 
C 3213 510 2848 166 2240 166 
L 1523 166 
z
" transform="scale(0.015625)"/>
      </defs>
      <use xlink:href="#CMR17-44" transform="scale(0.996264)"/>
      <use xlink:href="#CMR17-69" transform="translate(70.393556 0) scale(0.996264)"/>
      <use xlink:href="#CMR17-73" transform="translate(95.264614 0) scale(0.996264)"/>
      <use xlink:href="#CMR17-74" transform="translate(131.065952 0) scale(0.996264)"/>
      <use xlink:href="#CMR17-6f" transform="translate(166.34672 0) scale(0.996264)"/>
      <use xlink:href="#CMR17-72" transform="translate(212.037197 0) scale(0.996264)"/>
      <use xlink:href="#CMR17-74" transform="translate(247.317965 0) scale(0.996264)"/>
      <use xlink:href="#CMR17-69" transform="translate(282.598733 0) scale(0.996264)"/>
      <use xlink:href="#CMR17-6f" transform="translate(307.469791 0) scale(0.996264)"/>
      <use xlink:href="#CMR17-6e" transform="translate(353.160268 0) scale(0.996264)"/>
     </g>
    </g>
   </g>
   <g id="LineCollection_1">
    <path d="M 102.537592 368.512219 
L 144.956071 368.512219 
" clip-path="url(#p39d220e504)" style="fill: none; stroke: #1f77b4; stroke-width: 1.5"/>
    <path d="M 272.21151 366.012985 
L 314.629989 366.012985 
" clip-path="url(#p39d220e504)" style="fill: none; stroke: #1f77b4; stroke-width: 1.5"/>
    <path d="M 441.885427 314.819553 
L 484.303907 314.819553 
" clip-path="url(#p39d220e504)" style="fill: none; stroke: #1f77b4; stroke-width: 1.5"/>
    <path d="M 611.559345 367.79495 
L 653.977825 367.79495 
" clip-path="url(#p39d220e504)" style="fill: none; stroke: #1f77b4; stroke-width: 1.5"/>
   </g>
   <g id="LineCollection_2">
    <path d="M 102.537592 368.512219 
L 144.956071 368.512219 
" clip-path="url(#p39d220e504)" style="fill: none; stroke: #1f77b4; stroke-width: 1.5"/>
    <path d="M 272.21151 352.868145 
L 314.629989 352.868145 
" clip-path="url(#p39d220e504)" style="fill: none; stroke: #1f77b4; stroke-width: 1.5"/>
    <path d="M 441.885427 46.228228 
L 484.303907 46.228228 
" clip-path="url(#p39d220e504)" style="fill: none; stroke: #1f77b4; stroke-width: 1.5"/>
    <path d="M 611.559345 361.339528 
L 653.977825 361.339528 
" clip-path="url(#p39d220e504)" style="fill: none; stroke: #1f77b4; stroke-width: 1.5"/>
   </g>
   <g id="LineCollection_3">
    <path d="M 102.537592 368.512219 
L 144.956071 368.512219 
" clip-path="url(#p39d220e504)" style="fill: none; stroke: #1f77b4; stroke-width: 1.5"/>
    <path d="M 272.21151 368.512219 
L 314.629989 368.512219 
" clip-path="url(#p39d220e504)" style="fill: none; stroke: #1f77b4; stroke-width: 1.5"/>
    <path d="M 441.885427 368.512219 
L 484.303907 368.512219 
" clip-path="url(#p39d220e504)" style="fill: none; stroke: #1f77b4; stroke-width: 1.5"/>
    <path d="M 611.559345 368.512219 
L 653.977825 368.512219 
" clip-path="url(#p39d220e504)" style="fill: none; stroke: #1f77b4; stroke-width: 1.5"/>
   </g>
   <g id="LineCollection_4">
    <path d="M 123.746832 368.512219 
L 123.746832 368.512219 
" clip-path="url(#p39d220e504)" style="fill: none; stroke: #1f77b4; stroke-width: 1.5"/>
    <path d="M 293.420749 368.512219 
L 293.420749 352.868145 
" clip-path="url(#p39d220e504)" style="fill: none; stroke: #1f77b4; stroke-width: 1.5"/>
    <path d="M 463.094667 368.512219 
L 463.094667 46.228228 
" clip-path="url(#p39d220e504)" style="fill: none; stroke: #1f77b4; stroke-width: 1.5"/>
    <path d="M 632.768585 368.512219 
L 632.768585 361.339528 
" clip-path="url(#p39d220e504)" style="fill: none; stroke: #1f77b4; stroke-width: 1.5"/>
   </g>
   <g id="patch_3">
    <path d="M 51.635416 384.626418 
L 51.635416 30.114028 
" style="fill: none; stroke: #000000; stroke-linejoin: miter; stroke-linecap: square"/>
   </g>
   <g id="patch_4">
    <path d="M 704.88 384.626418 
L 704.88 30.114028 
" style="fill: none; stroke: #000000; stroke-linejoin: miter; stroke-linecap: square"/>
   </g>
   <g id="patch_5">
    <path d="M 51.635416 384.626418 
L 704.88 384.626418 
" style="fill: none; stroke: #000000; stroke-linejoin: miter; stroke-linecap: square"/>
   </g>
   <g id="patch_6">
    <path d="M 51.635416 30.114028 
L 704.88 30.114028 
" style="fill: none; stroke: #000000; stroke-linejoin: miter; stroke-linecap: square"/>
   </g>
   <g id="text_16">
    <!-- Distortion Under Nash -->
    <g transform="translate(314.87355 24.114028) scale(0.13 -0.13)">
     <defs>
      <path id="CMR17-55" d="M 3456 1433 
C 3456 579 2899 38 2291 38 
C 1965 38 1670 210 1491 477 
C 1286 783 1261 1178 1261 1401 
L 1261 3874 
C 1261 4160 1331 4160 1773 4160 
L 1773 4320 
C 1587 4320 1248 4320 1050 4320 
C 851 4320 512 4320 326 4320 
L 326 4160 
C 768 4160 838 4160 838 3874 
L 838 1433 
C 838 516 1536 -128 2278 -128 
C 3110 -128 3590 719 3590 1344 
L 3590 3766 
C 3590 4122 3917 4160 4102 4160 
L 4102 4326 
C 3955 4320 3686 4320 3526 4320 
C 3366 4320 3091 4320 2944 4326 
L 2944 4160 
C 3456 4160 3456 3861 3456 3702 
L 3456 1433 
z
" transform="scale(0.015625)"/>
      <path id="CMR17-68" d="M 2656 1933 
C 2656 2259 2592 2790 1837 2790 
C 1312 2790 1056 2368 979 2157 
L 973 2157 
L 973 4396 
L 211 4326 
L 211 4160 
C 589 4160 646 4122 646 3817 
L 646 426 
C 646 184 621 153 211 153 
L 211 -13 
C 365 0 646 0 813 0 
C 979 0 1267 0 1421 -13 
L 1421 153 
C 1011 153 986 178 986 428 
L 986 1658 
C 986 2247 1344 2688 1792 2688 
C 2266 2688 2317 2266 2317 1958 
L 2317 428 
C 2317 184 2291 153 1882 153 
L 1882 -13 
C 2035 0 2317 0 2483 0 
C 2650 0 2938 0 3091 -13 
L 3091 153 
C 2682 153 2656 178 2656 428 
L 2656 1933 
z
" transform="scale(0.015625)"/>
     </defs>
     <use xlink:href="#CMR17-44" transform="scale(0.996264)"/>
     <use xlink:href="#CMR17-69" transform="translate(70.393556 0) scale(0.996264)"/>
     <use xlink:href="#CMR17-73" transform="translate(95.264614 0) scale(0.996264)"/>
     <use xlink:href="#CMR17-74" transform="translate(131.065952 0) scale(0.996264)"/>
     <use xlink:href="#CMR17-6f" transform="translate(166.34672 0) scale(0.996264)"/>
     <use xlink:href="#CMR17-72" transform="translate(212.037197 0) scale(0.996264)"/>
     <use xlink:href="#CMR17-74" transform="translate(247.317965 0) scale(0.996264)"/>
     <use xlink:href="#CMR17-69" transform="translate(282.598733 0) scale(0.996264)"/>
     <use xlink:href="#CMR17-6f" transform="translate(307.469791 0) scale(0.996264)"/>
     <use xlink:href="#CMR17-6e" transform="translate(353.160268 0) scale(0.996264)"/>
     <use xlink:href="#CMR17-55" transform="translate(434.131604 0) scale(0.996264)"/>
     <use xlink:href="#CMR17-6e" transform="translate(503.204034 0) scale(0.996264)"/>
     <use xlink:href="#CMR17-64" transform="translate(554.099404 0) scale(0.996264)"/>
     <use xlink:href="#CMR17-65" transform="translate(604.994774 0) scale(0.996264)"/>
     <use xlink:href="#CMR17-72" transform="translate(645.480434 0) scale(0.996264)"/>
     <use xlink:href="#CMR17-4e" transform="translate(710.837168 0) scale(0.996264)"/>
     <use xlink:href="#CMR17-61" transform="translate(779.909598 0) scale(0.996264)"/>
     <use xlink:href="#CMR17-73" transform="translate(825.600075 0) scale(0.996264)"/>
     <use xlink:href="#CMR17-68" transform="translate(861.401413 0) scale(0.996264)"/>
    </g>
   </g>
  </g>
 </g>
 <defs>
  <clipPath id="p39d220e504">
   <rect x="51.635416" y="30.114028" width="653.244584" height="354.51239"/>
  </clipPath>
 </defs>
</svg>
