<?xml version="1.0" encoding="utf-8" standalone="no"?>
<!DOCTYPE svg PUBLIC "-//W3C//DTD SVG 1.1//EN"
  "http://www.w3.org/Graphics/SVG/1.1/DTD/svg11.dtd">
<svg xmlns:xlink="http://www.w3.org/1999/xlink" width="720pt" height="432pt" viewBox="0 0 720 432" xmlns="http://www.w3.org/2000/svg" version="1.1">
 <metadata>
  <rdf:RDF xmlns:dc="http://purl.org/dc/elements/1.1/" xmlns:cc="http://creativecommons.org/ns#" xmlns:rdf="http://www.w3.org/1999/02/22-rdf-syntax-ns#">
   <cc:Work>
    <dc:type rdf:resource="http://purl.org/dc/dcmitype/StillImage"/>
    <dc:date>2024-12-09T12:29:55.067325</dc:date>
    <dc:format>image/svg+xml</dc:format>
    <dc:creator>
     <cc:Agent>
      <dc:title>Matplotlib v3.9.2, https://matplotlib.org/</dc:title>
     </cc:Agent>
    </dc:creator>
   </cc:Work>
  </rdf:RDF>
 </metadata>
 <defs>
  <style type="text/css">*{stroke-linejoin: round; stroke-linecap: butt}</style>
 </defs>
 <g id="figure_1">
  <g id="patch_1">
   <path d="M 0 432 
L 720 432 
L 720 0 
L 0 0 
z
" style="fill: #ffffff"/>
  </g>
  <g id="axes_1">
   <g id="patch_2">
    <path d="M 51.635416 384.626418 
L 704.88 384.626418 
L 704.88 30.114028 
L 51.635416 30.114028 
z
" style="fill: #ffffff"/>
   </g>
   <g id="PolyCollection_1">
    <defs>
     <path id="m5e2d50e080" d="M 157.006827 -63.487781 
L 90.486836 -63.487781 
L 90.20911 -66.743175 
L 89.972502 -69.998569 
L 89.776826 -73.253963 
L 89.621622 -76.509357 
L 89.506161 -79.76475 
L 89.429447 -83.020144 
L 89.390221 -86.275538 
L 89.386967 -89.530932 
L 89.417929 -92.786326 
L 89.481115 -96.04172 
L 89.574315 -99.297113 
L 89.695118 -102.552507 
L 89.84093 -105.807901 
L 90.008991 -109.063295 
L 90.196402 -112.318689 
L 90.400141 -115.574083 
L 90.617092 -118.829477 
L 90.844067 -122.08487 
L 91.077835 -125.340264 
L 91.315141 -128.595658 
L 91.552739 -131.851052 
L 91.787412 -135.106446 
L 92.016002 -138.36184 
L 92.235432 -141.617234 
L 92.44273 -144.872627 
L 92.635056 -148.128021 
L 92.809717 -151.383415 
L 92.964195 -154.638809 
L 93.096159 -157.894203 
L 93.203489 -161.149597 
L 93.284284 -164.40499 
L 93.336882 -167.660384 
L 93.359869 -170.915778 
L 93.352087 -174.171172 
L 93.312641 -177.426566 
L 93.240909 -180.68196 
L 93.136539 -183.937354 
L 92.99945 -187.192747 
L 92.829835 -190.448141 
L 92.628155 -193.703535 
L 92.395133 -196.958929 
L 92.131746 -200.214323 
L 91.839218 -203.469717 
L 91.519008 -206.725111 
L 91.172799 -209.980504 
L 90.80248 -213.235898 
L 90.410137 -216.491292 
L 89.998031 -219.746686 
L 89.568586 -223.00208 
L 89.124367 -226.257474 
L 88.668063 -229.512867 
L 88.202466 -232.768261 
L 87.730457 -236.023655 
L 87.254979 -239.279049 
L 86.779021 -242.534443 
L 86.305599 -245.789837 
L 85.837735 -249.045231 
L 85.378438 -252.300624 
L 84.930686 -255.556018 
L 84.497406 -258.811412 
L 84.081462 -262.066806 
L 83.68563 -265.3222 
L 83.312591 -268.577594 
L 82.964911 -271.832988 
L 82.645027 -275.088381 
L 82.355239 -278.343775 
L 82.097693 -281.599169 
L 81.874375 -284.854563 
L 81.687101 -288.109957 
L 81.537505 -291.365351 
L 81.427041 -294.620744 
L 81.356967 -297.876138 
L 81.328352 -301.131532 
L 81.342064 -304.386926 
L 81.398773 -307.64232 
L 81.49895 -310.897714 
L 81.642868 -314.153108 
L 81.830602 -317.408501 
L 82.062036 -320.663895 
L 82.33686 -323.919289 
L 82.654585 -327.174683 
L 83.014538 -330.430077 
L 83.415879 -333.685471 
L 83.857602 -336.940865 
L 84.338544 -340.196258 
L 84.857397 -343.451652 
L 85.412717 -346.707046 
L 86.002931 -349.96244 
L 86.626352 -353.217834 
L 87.281185 -356.473228 
L 87.965546 -359.728622 
L 88.677463 -362.984015 
L 89.414897 -366.239409 
L 90.17575 -369.494803 
L 90.957874 -372.750197 
L 91.759089 -376.005591 
L 92.577189 -379.260985 
L 93.409954 -382.516378 
L 94.255163 -385.771772 
L 153.2385 -385.771772 
L 153.2385 -385.771772 
L 154.083709 -382.516378 
L 154.916474 -379.260985 
L 155.734574 -376.005591 
L 156.535789 -372.750197 
L 157.317913 -369.494803 
L 158.078766 -366.239409 
L 158.8162 -362.984015 
L 159.528117 -359.728622 
L 160.212478 -356.473228 
L 160.867311 -353.217834 
L 161.490732 -349.96244 
L 162.080946 -346.707046 
L 162.636266 -343.451652 
L 163.155119 -340.196258 
L 163.636061 -336.940865 
L 164.077784 -333.685471 
L 164.479125 -330.430077 
L 164.839078 -327.174683 
L 165.156803 -323.919289 
L 165.431627 -320.663895 
L 165.663061 -317.408501 
L 165.850795 -314.153108 
L 165.994713 -310.897714 
L 166.09489 -307.64232 
L 166.151599 -304.386926 
L 166.165311 -301.131532 
L 166.136696 -297.876138 
L 166.066622 -294.620744 
L 165.956158 -291.365351 
L 165.806562 -288.109957 
L 165.619288 -284.854563 
L 165.39597 -281.599169 
L 165.138424 -278.343775 
L 164.848636 -275.088381 
L 164.528752 -271.832988 
L 164.181072 -268.577594 
L 163.808033 -265.3222 
L 163.412201 -262.066806 
L 162.996257 -258.811412 
L 162.562977 -255.556018 
L 162.115225 -252.300624 
L 161.655928 -249.045231 
L 161.188064 -245.789837 
L 160.714642 -242.534443 
L 160.238684 -239.279049 
L 159.763206 -236.023655 
L 159.291197 -232.768261 
L 158.8256 -229.512867 
L 158.369296 -226.257474 
L 157.925077 -223.00208 
L 157.495632 -219.746686 
L 157.083526 -216.491292 
L 156.691183 -213.235898 
L 156.320864 -209.980504 
L 155.974655 -206.725111 
L 155.654445 -203.469717 
L 155.361917 -200.214323 
L 155.09853 -196.958929 
L 154.865508 -193.703535 
L 154.663828 -190.448141 
L 154.494213 -187.192747 
L 154.357124 -183.937354 
L 154.252754 -180.68196 
L 154.181022 -177.426566 
L 154.141576 -174.171172 
L 154.133794 -170.915778 
L 154.156781 -167.660384 
L 154.209379 -164.40499 
L 154.290174 -161.149597 
L 154.397504 -157.894203 
L 154.529468 -154.638809 
L 154.683946 -151.383415 
L 154.858607 -148.128021 
L 155.050933 -144.872627 
L 155.258231 -141.617234 
L 155.477661 -138.36184 
L 155.706251 -135.106446 
L 155.940924 -131.851052 
L 156.178522 -128.595658 
L 156.415828 -125.340264 
L 156.649596 -122.08487 
L 156.876571 -118.829477 
L 157.093522 -115.574083 
L 157.297261 -112.318689 
L 157.484672 -109.063295 
L 157.652733 -105.807901 
L 157.798545 -102.552507 
L 157.919348 -99.297113 
L 158.012548 -96.04172 
L 158.075734 -92.786326 
L 158.106696 -89.530932 
L 158.103442 -86.275538 
L 158.064216 -83.020144 
L 157.987502 -79.76475 
L 157.872041 -76.509357 
L 157.716837 -73.253963 
L 157.521161 -69.998569 
L 157.284553 -66.743175 
L 157.006827 -63.487781 
z
" style="stroke: #000000; stroke-opacity: 0.4"/>
    </defs>
    <g clip-path="url(#pc9a340a1e9)">
     <use xlink:href="#m5e2d50e080" x="0" y="432" style="fill: #440154; fill-opacity: 0.4; stroke: #000000; stroke-opacity: 0.4"/>
    </g>
   </g>
   <g id="PolyCollection_2">
    <defs>
     <path id="md09f70d9cc" d="M 333.976348 -63.487781 
L 252.86515 -63.487781 
L 252.377196 -66.247984 
L 251.961133 -69.008187 
L 251.618648 -71.76839 
L 251.35098 -74.528593 
L 251.158902 -77.288796 
L 251.042719 -80.048999 
L 251.00227 -82.809202 
L 251.036925 -85.569405 
L 251.145603 -88.329608 
L 251.326778 -91.089811 
L 251.578502 -93.850014 
L 251.898426 -96.610217 
L 252.283825 -99.37042 
L 252.731629 -102.130623 
L 253.238454 -104.890826 
L 253.800636 -107.651029 
L 254.414272 -110.411232 
L 255.075252 -113.171434 
L 255.779305 -115.931637 
L 256.522032 -118.69184 
L 257.298952 -121.452043 
L 258.105537 -124.212246 
L 258.937251 -126.972449 
L 259.789588 -129.732652 
L 260.658106 -132.492855 
L 261.538461 -135.253058 
L 262.426436 -138.013261 
L 263.317969 -140.773464 
L 264.209179 -143.533667 
L 265.096387 -146.29387 
L 265.976133 -149.054073 
L 266.845198 -151.814276 
L 267.700605 -154.574479 
L 268.539642 -157.334682 
L 269.359855 -160.094885 
L 270.15906 -162.855088 
L 270.935342 -165.615291 
L 271.687048 -168.375494 
L 272.412789 -171.135697 
L 273.111428 -173.8959 
L 273.782075 -176.656103 
L 274.424074 -179.416306 
L 275.036993 -182.176509 
L 275.620608 -184.936712 
L 276.174892 -187.696915 
L 276.700001 -190.457118 
L 277.196254 -193.217321 
L 277.664121 -195.977523 
L 278.104206 -198.737726 
L 278.517233 -201.497929 
L 278.904027 -204.258132 
L 279.265502 -207.018335 
L 279.602646 -209.778538 
L 279.916506 -212.538741 
L 280.208176 -215.298944 
L 280.478782 -218.059147 
L 280.729477 -220.81935 
L 280.961423 -223.579553 
L 281.175785 -226.339756 
L 281.373724 -229.099959 
L 281.556386 -231.860162 
L 281.724898 -234.620365 
L 281.880364 -237.380568 
L 282.023854 -240.140771 
L 282.156409 -242.900974 
L 282.279033 -245.661177 
L 282.392691 -248.42138 
L 282.49831 -251.181583 
L 282.59678 -253.941786 
L 282.688949 -256.701989 
L 282.775629 -259.462192 
L 282.857593 -262.222395 
L 282.93558 -264.982598 
L 283.010295 -267.742801 
L 283.082412 -270.503004 
L 283.152574 -273.263207 
L 283.221397 -276.023409 
L 283.289472 -278.783612 
L 283.357365 -281.543815 
L 283.425622 -284.304018 
L 283.494766 -287.064221 
L 283.565301 -289.824424 
L 283.637712 -292.584627 
L 283.712466 -295.34483 
L 283.790008 -298.105033 
L 283.870766 -300.865236 
L 283.955146 -303.625439 
L 284.043534 -306.385642 
L 284.136289 -309.145845 
L 284.233748 -311.906048 
L 284.336218 -314.666251 
L 284.443976 -317.426454 
L 284.557267 -320.186657 
L 284.676299 -322.94686 
L 284.801244 -325.707063 
L 284.932233 -328.467266 
L 285.069353 -331.227469 
L 285.212649 -333.987672 
L 285.362118 -336.747875 
L 301.479381 -336.747875 
L 301.479381 -336.747875 
L 301.62885 -333.987672 
L 301.772146 -331.227469 
L 301.909266 -328.467266 
L 302.040255 -325.707063 
L 302.165199 -322.94686 
L 302.284232 -320.186657 
L 302.397522 -317.426454 
L 302.50528 -314.666251 
L 302.60775 -311.906048 
L 302.705209 -309.145845 
L 302.797965 -306.385642 
L 302.886353 -303.625439 
L 302.970733 -300.865236 
L 303.051491 -298.105033 
L 303.129033 -295.34483 
L 303.203786 -292.584627 
L 303.276197 -289.824424 
L 303.346732 -287.064221 
L 303.415876 -284.304018 
L 303.484133 -281.543815 
L 303.552027 -278.783612 
L 303.620102 -276.023409 
L 303.688925 -273.263207 
L 303.759087 -270.503004 
L 303.831203 -267.742801 
L 303.905919 -264.982598 
L 303.983906 -262.222395 
L 304.06587 -259.462192 
L 304.152549 -256.701989 
L 304.244718 -253.941786 
L 304.343188 -251.181583 
L 304.448808 -248.42138 
L 304.562466 -245.661177 
L 304.68509 -242.900974 
L 304.817645 -240.140771 
L 304.961135 -237.380568 
L 305.1166 -234.620365 
L 305.285113 -231.860162 
L 305.467775 -229.099959 
L 305.665713 -226.339756 
L 305.880076 -223.579553 
L 306.112021 -220.81935 
L 306.362716 -218.059147 
L 306.633323 -215.298944 
L 306.924993 -212.538741 
L 307.238852 -209.778538 
L 307.575996 -207.018335 
L 307.937472 -204.258132 
L 308.324265 -201.497929 
L 308.737292 -198.737726 
L 309.177378 -195.977523 
L 309.645245 -193.217321 
L 310.141498 -190.457118 
L 310.666606 -187.696915 
L 311.220891 -184.936712 
L 311.804506 -182.176509 
L 312.417424 -179.416306 
L 313.059423 -176.656103 
L 313.73007 -173.8959 
L 314.42871 -171.135697 
L 315.15445 -168.375494 
L 315.906157 -165.615291 
L 316.682438 -162.855088 
L 317.481644 -160.094885 
L 318.301857 -157.334682 
L 319.140893 -154.574479 
L 319.996301 -151.814276 
L 320.865365 -149.054073 
L 321.745112 -146.29387 
L 322.63232 -143.533667 
L 323.523529 -140.773464 
L 324.415063 -138.013261 
L 325.303037 -135.253058 
L 326.183393 -132.492855 
L 327.051911 -129.732652 
L 327.904248 -126.972449 
L 328.735962 -124.212246 
L 329.542547 -121.452043 
L 330.319467 -118.69184 
L 331.062194 -115.931637 
L 331.766247 -113.171434 
L 332.427227 -110.411232 
L 333.040863 -107.651029 
L 333.603045 -104.890826 
L 334.10987 -102.130623 
L 334.557674 -99.37042 
L 334.943073 -96.610217 
L 335.262997 -93.850014 
L 335.514721 -91.089811 
L 335.695896 -88.329608 
L 335.804573 -85.569405 
L 335.839229 -82.809202 
L 335.798779 -80.048999 
L 335.682597 -77.288796 
L 335.490519 -74.528593 
L 335.222851 -71.76839 
L 334.880366 -69.008187 
L 334.464302 -66.247984 
L 333.976348 -63.487781 
z
" style="stroke: #000000; stroke-opacity: 0.4"/>
    </defs>
    <g clip-path="url(#pc9a340a1e9)">
     <use xlink:href="#md09f70d9cc" x="0" y="432" style="fill: #31688e; fill-opacity: 0.4; stroke: #000000; stroke-opacity: 0.4"/>
    </g>
   </g>
   <g id="PolyCollection_3">
    <defs>
     <path id="maa868d89dd" d="M 503.762378 -63.487781 
L 422.426956 -63.487781 
L 421.974333 -66.252671 
L 421.589022 -69.017561 
L 421.271611 -71.782451 
L 421.022213 -74.547341 
L 420.840469 -77.312231 
L 420.725552 -80.077121 
L 420.676188 -82.84201 
L 420.690668 -85.6069 
L 420.76688 -88.37179 
L 420.902332 -91.13668 
L 421.09419 -93.90157 
L 421.339312 -96.66646 
L 421.634291 -99.43135 
L 421.975497 -102.19624 
L 422.359123 -104.96113 
L 422.781229 -107.72602 
L 423.237793 -110.49091 
L 423.724752 -113.255799 
L 424.238052 -116.020689 
L 424.773693 -118.785579 
L 425.327765 -121.550469 
L 425.896495 -124.315359 
L 426.476279 -127.080249 
L 427.063715 -129.845139 
L 427.655632 -132.610029 
L 428.249114 -135.374919 
L 428.841521 -138.139809 
L 429.430499 -140.904699 
L 430.013997 -143.669589 
L 430.590266 -146.434478 
L 431.157864 -149.199368 
L 431.715648 -151.964258 
L 432.262771 -154.729148 
L 432.798664 -157.494038 
L 433.323023 -160.258928 
L 433.83579 -163.023818 
L 434.337133 -165.788708 
L 434.827416 -168.553598 
L 435.307179 -171.318488 
L 435.777109 -174.083378 
L 436.238009 -176.848267 
L 436.690775 -179.613157 
L 437.136363 -182.378047 
L 437.575764 -185.142937 
L 438.009974 -187.907827 
L 438.439976 -190.672717 
L 438.866708 -193.437607 
L 439.291049 -196.202497 
L 439.713795 -198.967387 
L 440.135645 -201.732277 
L 440.557189 -204.497167 
L 440.978894 -207.262056 
L 441.401097 -210.026946 
L 441.824002 -212.791836 
L 442.247675 -215.556726 
L 442.67205 -218.321616 
L 443.096923 -221.086506 
L 443.521969 -223.851396 
L 443.94674 -226.616286 
L 444.370682 -229.381176 
L 444.793144 -232.146066 
L 445.213394 -234.910956 
L 445.630628 -237.675845 
L 446.043993 -240.440735 
L 446.452598 -243.205625 
L 446.855534 -245.970515 
L 447.25189 -248.735405 
L 447.640766 -251.500295 
L 448.021297 -254.265185 
L 448.392659 -257.030075 
L 448.754091 -259.794965 
L 449.104905 -262.559855 
L 449.444496 -265.324745 
L 449.772356 -268.089635 
L 450.088081 -270.854524 
L 450.391376 -273.619414 
L 450.682064 -276.384304 
L 450.960083 -279.149194 
L 451.225493 -281.914084 
L 451.478473 -284.678974 
L 451.719318 -287.443864 
L 451.948432 -290.208754 
L 452.166328 -292.973644 
L 452.373616 -295.738534 
L 452.570995 -298.503424 
L 452.75924 -301.268313 
L 452.939199 -304.033203 
L 453.11177 -306.798093 
L 453.277896 -309.562983 
L 453.43855 -312.327873 
L 453.594719 -315.092763 
L 453.747395 -317.857653 
L 453.897558 -320.622543 
L 454.046164 -323.387433 
L 454.194136 -326.152323 
L 454.342349 -328.917213 
L 454.491619 -331.682102 
L 454.642699 -334.446992 
L 454.796264 -337.211882 
L 471.39307 -337.211882 
L 471.39307 -337.211882 
L 471.546635 -334.446992 
L 471.697715 -331.682102 
L 471.846985 -328.917213 
L 471.995198 -326.152323 
L 472.14317 -323.387433 
L 472.291776 -320.622543 
L 472.441939 -317.857653 
L 472.594615 -315.092763 
L 472.750784 -312.327873 
L 472.911438 -309.562983 
L 473.077564 -306.798093 
L 473.250135 -304.033203 
L 473.430094 -301.268313 
L 473.61834 -298.503424 
L 473.815718 -295.738534 
L 474.023006 -292.973644 
L 474.240902 -290.208754 
L 474.470017 -287.443864 
L 474.710861 -284.678974 
L 474.963841 -281.914084 
L 475.229252 -279.149194 
L 475.507271 -276.384304 
L 475.797958 -273.619414 
L 476.101253 -270.854524 
L 476.416978 -268.089635 
L 476.744838 -265.324745 
L 477.08443 -262.559855 
L 477.435243 -259.794965 
L 477.796675 -257.030075 
L 478.168038 -254.265185 
L 478.548568 -251.500295 
L 478.937445 -248.735405 
L 479.3338 -245.970515 
L 479.736736 -243.205625 
L 480.145342 -240.440735 
L 480.558707 -237.675845 
L 480.975941 -234.910956 
L 481.39619 -232.146066 
L 481.818652 -229.381176 
L 482.242595 -226.616286 
L 482.667366 -223.851396 
L 483.092411 -221.086506 
L 483.517285 -218.321616 
L 483.941659 -215.556726 
L 484.365333 -212.791836 
L 484.788237 -210.026946 
L 485.21044 -207.262056 
L 485.632145 -204.497167 
L 486.053689 -201.732277 
L 486.475539 -198.967387 
L 486.898285 -196.202497 
L 487.322626 -193.437607 
L 487.749358 -190.672717 
L 488.17936 -187.907827 
L 488.613571 -185.142937 
L 489.052971 -182.378047 
L 489.498559 -179.613157 
L 489.951325 -176.848267 
L 490.412226 -174.083378 
L 490.882155 -171.318488 
L 491.361919 -168.553598 
L 491.852202 -165.788708 
L 492.353544 -163.023818 
L 492.866312 -160.258928 
L 493.39067 -157.494038 
L 493.926563 -154.729148 
L 494.473686 -151.964258 
L 495.03147 -149.199368 
L 495.599068 -146.434478 
L 496.175338 -143.669589 
L 496.758835 -140.904699 
L 497.347814 -138.139809 
L 497.94022 -135.374919 
L 498.533702 -132.610029 
L 499.125619 -129.845139 
L 499.713055 -127.080249 
L 500.292839 -124.315359 
L 500.86157 -121.550469 
L 501.415642 -118.785579 
L 501.951282 -116.020689 
L 502.464582 -113.255799 
L 502.951541 -110.49091 
L 503.408105 -107.72602 
L 503.830212 -104.96113 
L 504.213837 -102.19624 
L 504.555043 -99.43135 
L 504.850022 -96.66646 
L 505.095144 -93.90157 
L 505.287002 -91.13668 
L 505.422454 -88.37179 
L 505.498666 -85.6069 
L 505.513147 -82.84201 
L 505.463782 -80.077121 
L 505.348866 -77.312231 
L 505.167121 -74.547341 
L 504.917723 -71.782451 
L 504.600312 -69.017561 
L 504.215001 -66.252671 
L 503.762378 -63.487781 
z
" style="stroke: #000000; stroke-opacity: 0.4"/>
    </defs>
    <g clip-path="url(#pc9a340a1e9)">
     <use xlink:href="#maa868d89dd" x="0" y="432" style="fill: #35b779; fill-opacity: 0.4; stroke: #000000; stroke-opacity: 0.4"/>
    </g>
   </g>
   <g id="PolyCollection_4">
    <defs>
     <path id="mb5d921f723" d="M 670.355992 -63.487781 
L 595.181178 -63.487781 
L 594.464026 -66.111199 
L 593.798625 -68.734617 
L 593.187256 -71.358035 
L 592.631933 -73.981453 
L 592.134396 -76.604872 
L 591.696104 -79.22829 
L 591.318232 -81.851708 
L 591.001671 -84.475126 
L 590.74703 -87.098544 
L 590.554637 -89.721962 
L 590.424541 -92.34538 
L 590.356524 -94.968798 
L 590.350105 -97.592216 
L 590.404548 -100.215634 
L 590.51887 -102.839052 
L 590.691856 -105.462471 
L 590.922066 -108.085889 
L 591.207847 -110.709307 
L 591.547347 -113.332725 
L 591.938524 -115.956143 
L 592.379164 -118.579561 
L 592.86689 -121.202979 
L 593.399179 -123.826397 
L 593.973375 -126.449815 
L 594.586703 -129.073233 
L 595.236287 -131.696651 
L 595.919164 -134.32007 
L 596.632297 -136.943488 
L 597.3726 -139.566906 
L 598.136946 -142.190324 
L 598.922189 -144.813742 
L 599.725182 -147.43716 
L 600.542791 -150.060578 
L 601.371915 -152.683996 
L 602.209504 -155.307414 
L 603.052574 -157.930832 
L 603.898224 -160.55425 
L 604.743653 -163.177669 
L 605.586171 -165.801087 
L 606.423219 -168.424505 
L 607.252375 -171.047923 
L 608.071368 -173.671341 
L 608.878087 -176.294759 
L 609.670587 -178.918177 
L 610.447095 -181.541595 
L 611.206018 -184.165013 
L 611.945935 -186.788431 
L 612.665607 -189.411849 
L 613.363969 -192.035267 
L 614.040128 -194.658686 
L 614.693354 -197.282104 
L 615.32308 -199.905522 
L 615.928887 -202.52894 
L 616.510497 -205.152358 
L 617.067762 -207.775776 
L 617.600655 -210.399194 
L 618.109255 -213.022612 
L 618.593739 -215.64603 
L 619.054369 -218.269448 
L 619.491481 -220.892866 
L 619.905474 -223.516285 
L 620.296803 -226.139703 
L 620.665969 -228.763121 
L 621.013509 -231.386539 
L 621.339995 -234.009957 
L 621.646023 -236.633375 
L 621.932214 -239.256793 
L 622.199206 -241.880211 
L 622.447659 -244.503629 
L 622.678248 -247.127047 
L 622.891667 -249.750465 
L 623.088629 -252.373884 
L 623.269868 -254.997302 
L 623.436139 -257.62072 
L 623.588225 -260.244138 
L 623.726932 -262.867556 
L 623.853099 -265.490974 
L 623.96759 -268.114392 
L 624.071306 -270.73781 
L 624.165176 -273.361228 
L 624.250161 -275.984646 
L 624.327249 -278.608064 
L 624.397459 -281.231483 
L 624.461829 -283.854901 
L 624.521416 -286.478319 
L 624.577292 -289.101737 
L 624.630532 -291.725155 
L 624.682211 -294.348573 
L 624.733392 -296.971991 
L 624.785122 -299.595409 
L 624.838418 -302.218827 
L 624.89426 -304.842245 
L 624.953582 -307.465663 
L 625.017258 -310.089082 
L 625.086102 -312.7125 
L 625.160849 -315.335918 
L 625.242154 -317.959336 
L 625.330586 -320.582754 
L 625.426615 -323.206172 
L 640.110554 -323.206172 
L 640.110554 -323.206172 
L 640.206584 -320.582754 
L 640.295015 -317.959336 
L 640.376321 -315.335918 
L 640.451068 -312.7125 
L 640.519911 -310.089082 
L 640.583588 -307.465663 
L 640.642909 -304.842245 
L 640.698752 -302.218827 
L 640.752048 -299.595409 
L 640.803778 -296.971991 
L 640.854959 -294.348573 
L 640.906638 -291.725155 
L 640.959878 -289.101737 
L 641.015754 -286.478319 
L 641.075341 -283.854901 
L 641.139711 -281.231483 
L 641.209921 -278.608064 
L 641.287009 -275.984646 
L 641.371994 -273.361228 
L 641.465863 -270.73781 
L 641.569579 -268.114392 
L 641.684071 -265.490974 
L 641.810238 -262.867556 
L 641.948945 -260.244138 
L 642.101031 -257.62072 
L 642.267302 -254.997302 
L 642.448541 -252.373884 
L 642.645503 -249.750465 
L 642.858922 -247.127047 
L 643.089511 -244.503629 
L 643.337963 -241.880211 
L 643.604956 -239.256793 
L 643.891146 -236.633375 
L 644.197175 -234.009957 
L 644.523661 -231.386539 
L 644.871201 -228.763121 
L 645.240367 -226.139703 
L 645.631696 -223.516285 
L 646.045689 -220.892866 
L 646.482801 -218.269448 
L 646.94343 -215.64603 
L 647.427914 -213.022612 
L 647.936515 -210.399194 
L 648.469407 -207.775776 
L 649.026673 -205.152358 
L 649.608283 -202.52894 
L 650.21409 -199.905522 
L 650.843816 -197.282104 
L 651.497042 -194.658686 
L 652.173201 -192.035267 
L 652.871563 -189.411849 
L 653.591235 -186.788431 
L 654.331152 -184.165013 
L 655.090074 -181.541595 
L 655.866583 -178.918177 
L 656.659083 -176.294759 
L 657.465802 -173.671341 
L 658.284795 -171.047923 
L 659.113951 -168.424505 
L 659.950999 -165.801087 
L 660.793517 -163.177669 
L 661.638946 -160.55425 
L 662.484596 -157.930832 
L 663.327666 -155.307414 
L 664.165255 -152.683996 
L 664.994379 -150.060578 
L 665.811988 -147.43716 
L 666.614981 -144.813742 
L 667.400224 -142.190324 
L 668.16457 -139.566906 
L 668.904873 -136.943488 
L 669.618006 -134.32007 
L 670.300882 -131.696651 
L 670.950466 -129.073233 
L 671.563795 -126.449815 
L 672.137991 -123.826397 
L 672.67028 -121.202979 
L 673.158006 -118.579561 
L 673.598646 -115.956143 
L 673.989823 -113.332725 
L 674.329323 -110.709307 
L 674.615104 -108.085889 
L 674.845313 -105.462471 
L 675.0183 -102.839052 
L 675.132622 -100.215634 
L 675.187064 -97.592216 
L 675.180645 -94.968798 
L 675.112629 -92.34538 
L 674.982533 -89.721962 
L 674.790139 -87.098544 
L 674.535499 -84.475126 
L 674.218938 -81.851708 
L 673.841066 -79.22829 
L 673.402774 -76.604872 
L 672.905236 -73.981453 
L 672.349914 -71.358035 
L 671.738545 -68.734617 
L 671.073144 -66.111199 
L 670.355992 -63.487781 
z
" style="stroke: #000000; stroke-opacity: 0.4"/>
    </defs>
    <g clip-path="url(#pc9a340a1e9)">
     <use xlink:href="#mb5d921f723" x="0" y="432" style="fill: #fde725; fill-opacity: 0.4; stroke: #000000; stroke-opacity: 0.4"/>
    </g>
   </g>
   <g id="matplotlib.axis_1">
    <g id="xtick_1">
     <g id="line2d_1">
      <defs>
       <path id="mf1356c691b" d="M 0 0 
L 0 3.5 
" style="stroke: #000000; stroke-width: 0.8"/>
      </defs>
      <g>
       <use xlink:href="#mf1356c691b" x="123.746832" y="384.626418" style="stroke: #000000; stroke-width: 0.8"/>
      </g>
     </g>
     <g id="text_1">
      <!-- Borda rule -->
      <g transform="translate(98.221648 399.236765) scale(0.11 -0.11)">
       <defs>
        <path id="CMR17-42" d="M 333 4352 
L 333 4186 
C 774 4186 845 4186 845 3900 
L 845 452 
C 845 166 774 166 333 166 
L 333 0 
L 2534 0 
C 3354 0 3885 583 3885 1164 
C 3885 1741 3360 2233 2675 2233 
C 3290 2356 3718 2771 3718 3264 
C 3718 3802 3194 4352 2368 4352 
L 333 4352 
z
M 1248 2304 
L 1248 3937 
C 1248 4155 1261 4186 1517 4186 
L 2336 4186 
C 2970 4186 3251 3674 3251 3277 
C 3251 2791 2861 2304 2170 2304 
L 1248 2304 
z
M 1517 166 
C 1261 166 1248 197 1248 413 
L 1248 2202 
L 2432 2202 
C 3091 2202 3411 1625 3411 1162 
C 3411 699 3046 166 2349 166 
L 1517 166 
z
" transform="scale(0.015625)"/>
        <path id="CMR17-6f" d="M 2758 1356 
C 2758 2176 2163 2816 1466 2816 
C 768 2816 173 2176 173 1356 
C 173 551 768 -64 1466 -64 
C 2163 -64 2758 551 2758 1356 
z
M 1466 51 
C 1165 51 909 230 762 480 
C 602 767 582 1126 582 1408 
C 582 1677 595 2010 762 2298 
C 890 2509 1139 2714 1466 2714 
C 1754 2714 1997 2554 2150 2330 
C 2349 2029 2349 1607 2349 1408 
C 2349 1158 2336 775 2163 467 
C 1984 173 1709 51 1466 51 
z
" transform="scale(0.015625)"/>
        <path id="CMR17-72" d="M 960 1497 
C 960 2112 1222 2688 1702 2688 
C 1747 2688 1792 2682 1837 2662 
C 1837 2662 1696 2617 1696 2452 
C 1696 2298 1818 2234 1914 2234 
C 1990 2234 2131 2279 2131 2458 
C 2131 2663 1926 2790 1709 2790 
C 1222 2790 1011 2317 947 2093 
L 941 2093 
L 941 2790 
L 198 2720 
L 198 2554 
C 576 2554 634 2515 634 2208 
L 634 428 
C 634 184 608 153 198 153 
L 198 -13 
C 352 0 646 0 813 0 
C 998 0 1325 0 1498 -13 
L 1498 153 
C 1037 153 960 153 960 440 
L 960 1497 
z
" transform="scale(0.015625)"/>
        <path id="CMR17-64" d="M 1869 4326 
L 1869 4160 
C 2246 4160 2304 4122 2304 3820 
L 2304 2345 
C 2278 2377 2016 2790 1498 2790 
C 845 2790 211 2208 211 1364 
C 211 525 806 -64 1434 -64 
C 1978 -64 2259 337 2291 380 
L 2291 -63 
L 3066 -63 
L 3066 128 
C 2688 128 2630 166 2630 473 
L 2630 4396 
L 1869 4326 
z
M 2291 755 
C 2291 563 2176 390 2029 262 
C 1811 70 1594 38 1472 38 
C 1286 38 621 134 621 1356 
C 621 2612 1363 2688 1530 2688 
C 1824 2688 2061 2522 2208 2291 
C 2291 2157 2291 2138 2291 2023 
L 2291 755 
z
" transform="scale(0.015625)"/>
        <path id="CMR17-61" d="M 2304 1653 
C 2304 2072 2304 2294 2035 2543 
C 1798 2752 1523 2816 1306 2816 
C 800 2816 435 2407 435 1971 
C 435 1728 627 1728 666 1728 
C 749 1728 896 1778 896 1954 
C 896 2112 774 2181 666 2181 
C 640 2181 608 2174 589 2168 
C 723 2592 1069 2714 1293 2714 
C 1613 2714 1965 2429 1965 1885 
L 1965 1600 
C 1587 1600 1133 1549 774 1357 
C 371 1133 256 813 256 570 
C 256 77 832 -64 1171 -64 
C 1523 -64 1850 139 1990 511 
C 2003 233 2182 -18 2464 -18 
C 2598 -18 2938 70 2938 567 
L 2938 920 
L 2822 920 
L 2822 562 
C 2822 178 2650 128 2566 128 
C 2304 128 2304 458 2304 738 
L 2304 1653 
z
M 1965 870 
C 1965 317 1568 38 1216 38 
C 896 38 646 275 646 570 
C 646 761 730 1100 1101 1305 
C 1408 1478 1760 1504 1965 1504 
L 1965 870 
z
" transform="scale(0.015625)"/>
        <path id="CMR17-75" d="M 1882 2693 
L 1882 2528 
C 2259 2528 2317 2489 2317 2186 
L 2317 1032 
C 2317 500 2029 38 1555 38 
C 1030 38 986 348 986 678 
L 986 2763 
L 211 2693 
L 211 2528 
C 467 2528 640 2528 646 2274 
L 646 1058 
C 646 633 646 361 813 183 
C 896 101 1056 -64 1517 -64 
C 2061 -64 2272 377 2323 506 
L 2330 506 
L 2330 -63 
L 3091 -63 
L 3091 128 
C 2714 128 2656 166 2656 473 
L 2656 2763 
L 1882 2693 
z
" transform="scale(0.015625)"/>
        <path id="CMR17-6c" d="M 979 4396 
L 218 4326 
L 218 4160 
C 595 4160 653 4122 653 3817 
L 653 426 
C 653 184 627 153 218 153 
L 218 -13 
C 371 0 653 0 813 0 
C 979 0 1261 0 1414 -13 
L 1414 153 
C 1005 153 979 178 979 426 
L 979 4396 
z
" transform="scale(0.015625)"/>
        <path id="CMR17-65" d="M 2438 1472 
C 2464 1498 2464 1511 2464 1576 
C 2464 2238 2118 2816 1389 2816 
C 710 2816 173 2169 173 1383 
C 173 551 781 -64 1459 -64 
C 2176 -64 2458 607 2458 740 
C 2458 784 2419 784 2406 784 
C 2362 784 2355 771 2330 696 
C 2189 265 1837 51 1504 51 
C 1229 51 954 203 781 480 
C 582 803 582 1176 582 1472 
L 2438 1472 
z
M 589 1568 
C 634 2505 1126 2714 1382 2714 
C 1818 2714 2112 2297 2118 1568 
L 589 1568 
z
" transform="scale(0.015625)"/>
       </defs>
       <use xlink:href="#CMR17-42" transform="scale(0.996264)"/>
       <use xlink:href="#CMR17-6f" transform="translate(65.188754 0) scale(0.996264)"/>
       <use xlink:href="#CMR17-72" transform="translate(110.879232 0) scale(0.996264)"/>
       <use xlink:href="#CMR17-64" transform="translate(146.159999 0) scale(0.996264)"/>
       <use xlink:href="#CMR17-61" transform="translate(197.055369 0) scale(0.996264)"/>
       <use xlink:href="#CMR17-72" transform="translate(272.821813 0) scale(0.996264)"/>
       <use xlink:href="#CMR17-75" transform="translate(308.10258 0) scale(0.996264)"/>
       <use xlink:href="#CMR17-6c" transform="translate(358.99795 0) scale(0.996264)"/>
       <use xlink:href="#CMR17-65" transform="translate(383.869009 0) scale(0.996264)"/>
      </g>
     </g>
    </g>
    <g id="xtick_2">
     <g id="line2d_2">
      <g>
       <use xlink:href="#mf1356c691b" x="293.420749" y="384.626418" style="stroke: #000000; stroke-width: 0.8"/>
      </g>
     </g>
     <g id="text_2">
      <!-- Copeland's Rule -->
      <g transform="translate(254.19692 399.236765) scale(0.11 -0.11)">
       <defs>
        <path id="CMR17-43" d="M 3974 4289 
C 3974 4403 3968 4410 3930 4410 
C 3904 4410 3898 4403 3853 4327 
L 3571 3792 
C 3258 4187 2874 4416 2381 4416 
C 1286 4416 294 3456 294 2148 
C 294 826 1286 -128 2387 -128 
C 3366 -128 3974 730 3974 1461 
C 3974 1524 3974 1550 3917 1550 
C 3866 1550 3866 1531 3859 1474 
C 3808 585 3168 38 2477 38 
C 1824 38 781 495 781 2147 
C 781 3805 1843 4250 2464 4250 
C 3187 4250 3712 3628 3834 2745 
C 3846 2668 3846 2655 3904 2655 
C 3974 2655 3974 2668 3974 2783 
L 3974 4289 
z
" transform="scale(0.015625)"/>
        <path id="CMR17-70" d="M 1408 -1063 
C 998 -1063 973 -1037 973 -789 
L 973 402 
C 1158 134 1427 -38 1766 -38 
C 2406 -38 3053 523 3053 1388 
C 3053 2191 2496 2802 1837 2802 
C 1453 2802 1139 2592 960 2338 
L 960 2802 
L 198 2732 
L 198 2567 
C 576 2567 634 2528 634 2223 
L 634 -789 
C 634 -1031 608 -1063 198 -1063 
L 198 -1228 
C 352 -1216 634 -1216 800 -1216 
C 966 -1216 1254 -1216 1408 -1228 
L 1408 -1063 
z
M 973 2012 
C 973 2102 973 2235 1222 2471 
C 1254 2497 1472 2688 1792 2688 
C 2259 2688 2643 2108 2643 1382 
C 2643 656 2234 64 1728 64 
C 1498 64 1248 172 1056 472 
C 973 612 973 650 973 752 
L 973 2012 
z
" transform="scale(0.015625)"/>
        <path id="CMR17-6e" d="M 2656 1933 
C 2656 2259 2592 2790 1837 2790 
C 1331 2790 1069 2400 973 2144 
L 966 2144 
L 966 2790 
L 211 2720 
L 211 2554 
C 589 2554 646 2515 646 2208 
L 646 428 
C 646 184 621 153 211 153 
L 211 -13 
C 365 0 646 0 813 0 
C 979 0 1267 0 1421 -13 
L 1421 153 
C 1011 153 986 178 986 428 
L 986 1658 
C 986 2247 1344 2688 1792 2688 
C 2266 2688 2317 2266 2317 1958 
L 2317 428 
C 2317 184 2291 153 1882 153 
L 1882 -13 
C 2035 0 2317 0 2483 0 
C 2650 0 2938 0 3091 -13 
L 3091 153 
C 2682 153 2656 178 2656 428 
L 2656 1933 
z
" transform="scale(0.015625)"/>
        <path id="CMR17-27" d="M 1024 4025 
C 1037 3955 1043 3929 1043 3820 
C 1043 3415 883 3042 634 2778 
C 608 2752 595 2733 595 2707 
C 595 2681 621 2656 646 2656 
C 691 2656 1146 3105 1146 3811 
C 1146 3952 1133 4426 800 4426 
C 659 4426 538 4331 538 4165 
C 538 3999 659 3904 800 3904 
C 858 3904 966 3923 1024 4025 
z
" transform="scale(0.015625)"/>
        <path id="CMR17-73" d="M 1978 2697 
C 1978 2813 1971 2819 1933 2819 
C 1907 2819 1901 2813 1824 2717 
C 1805 2691 1747 2626 1728 2601 
C 1523 2819 1235 2819 1126 2819 
C 416 2819 160 2447 160 2076 
C 160 1498 813 1365 998 1325 
C 1402 1243 1542 1217 1677 1101 
C 1760 1025 1901 884 1901 654 
C 1901 384 1747 38 1158 38 
C 602 38 403 460 288 1021 
C 269 1110 269 1117 218 1117 
C 166 1117 160 1110 160 983 
L 160 63 
C 160 -51 166 -58 205 -58 
C 237 -58 243 -51 275 0 
C 314 57 410 211 448 276 
C 576 103 800 -64 1158 -64 
C 1792 -64 2131 283 2131 784 
C 2131 1112 1958 1285 1875 1362 
C 1683 1561 1459 1606 1190 1657 
C 838 1735 390 1825 390 2217 
C 390 2383 480 2737 1126 2737 
C 1811 2737 1850 2094 1862 1888 
C 1869 1856 1901 1849 1920 1849 
C 1978 1849 1978 1869 1978 1978 
L 1978 2697 
z
" transform="scale(0.015625)"/>
        <path id="CMR17-52" d="M 2509 2146 
C 3117 2268 3629 2676 3629 3186 
C 3629 3785 2950 4326 2054 4326 
L 333 4326 
L 333 4160 
C 774 4160 845 4160 845 3873 
L 845 415 
C 845 128 774 128 333 128 
L 333 -26 
C 518 -26 851 -26 1050 -26 
C 1248 -26 1581 -26 1766 -26 
L 1766 128 
C 1325 128 1254 128 1254 417 
L 1254 2112 
L 2003 2112 
C 2368 2112 2573 1964 2662 1881 
C 2918 1632 2918 1459 2918 1024 
C 2918 595 2918 377 3110 160 
C 3354 -102 3680 -128 3821 -128 
C 4294 -128 4365 396 4365 503 
C 4365 540 4365 585 4307 585 
C 4256 585 4250 547 4250 522 
C 4218 112 4032 -26 3834 -26 
C 3482 -26 3443 375 3405 764 
C 3386 898 3373 993 3360 1133 
C 3322 1452 3270 1917 2509 2146 
z
M 1984 2214 
L 1254 2214 
L 1254 3913 
C 1254 4129 1267 4160 1523 4160 
L 1990 4160 
C 2522 4160 3142 3977 3142 3190 
C 3142 2372 2464 2214 1984 2214 
z
" transform="scale(0.015625)"/>
       </defs>
       <use xlink:href="#CMR17-43" transform="scale(0.996264)"/>
       <use xlink:href="#CMR17-6f" transform="translate(66.509881 0) scale(0.996264)"/>
       <use xlink:href="#CMR17-70" transform="translate(112.200358 0) scale(0.996264)"/>
       <use xlink:href="#CMR17-65" transform="translate(165.698166 0) scale(0.996264)"/>
       <use xlink:href="#CMR17-6c" transform="translate(206.183827 0) scale(0.996264)"/>
       <use xlink:href="#CMR17-61" transform="translate(231.054885 0) scale(0.996264)"/>
       <use xlink:href="#CMR17-6e" transform="translate(276.745362 0) scale(0.996264)"/>
       <use xlink:href="#CMR17-64" transform="translate(327.640732 0) scale(0.996264)"/>
       <use xlink:href="#CMR17-27" transform="translate(378.536102 0) scale(0.996264)"/>
       <use xlink:href="#CMR17-73" transform="translate(403.40716 0) scale(0.996264)"/>
       <use xlink:href="#CMR17-52" transform="translate(469.284464 0) scale(0.996264)"/>
       <use xlink:href="#CMR17-75" transform="translate(537.075566 0) scale(0.996264)"/>
       <use xlink:href="#CMR17-6c" transform="translate(587.970936 0) scale(0.996264)"/>
       <use xlink:href="#CMR17-65" transform="translate(612.841994 0) scale(0.996264)"/>
      </g>
     </g>
    </g>
    <g id="xtick_3">
     <g id="line2d_3">
      <g>
       <use xlink:href="#mf1356c691b" x="463.094667" y="384.626418" style="stroke: #000000; stroke-width: 0.8"/>
      </g>
     </g>
     <g id="text_3">
      <!-- Plurality rule -->
      <g transform="translate(431.024584 399.236765) scale(0.11 -0.11)">
       <defs>
        <path id="CMR17-50" d="M 1267 2042 
L 2291 2042 
C 3117 2042 3718 2578 3718 3184 
C 3718 3791 3130 4352 2291 4352 
L 333 4352 
L 333 4186 
C 774 4186 845 4186 845 3899 
L 845 446 
C 845 160 774 160 333 160 
L 333 0 
C 518 0 858 0 1056 0 
C 1254 0 1594 0 1779 0 
L 1779 160 
C 1338 160 1267 160 1267 446 
L 1267 2042 
z
M 1254 2176 
L 1254 3938 
C 1254 4155 1267 4186 1523 4186 
L 2170 4186 
C 2995 4186 3232 3714 3232 3184 
C 3232 2604 2950 2176 2170 2176 
L 1254 2176 
z
" transform="scale(0.015625)"/>
        <path id="CMR17-69" d="M 992 3909 
C 992 4049 877 4170 730 4170 
C 589 4170 467 4056 467 3909 
C 467 3769 582 3648 730 3648 
C 870 3648 992 3763 992 3909 
z
M 243 2706 
L 243 2541 
C 602 2541 653 2502 653 2197 
L 653 427 
C 653 184 627 153 218 153 
L 218 -13 
C 371 0 646 0 806 0 
C 960 0 1222 0 1370 -13 
L 1370 153 
C 992 153 979 191 979 420 
L 979 2776 
L 243 2706 
z
" transform="scale(0.015625)"/>
        <path id="CMR17-74" d="M 966 2560 
L 1862 2560 
L 1862 2725 
L 966 2725 
L 966 3904 
L 851 3904 
C 838 3245 614 2668 70 2668 
L 70 2560 
L 627 2560 
L 627 771 
C 627 650 627 -64 1370 -64 
C 1747 -64 1965 306 1965 777 
L 1965 1140 
L 1850 1140 
L 1850 783 
C 1850 344 1677 51 1408 51 
C 1222 51 966 178 966 758 
L 966 2560 
z
" transform="scale(0.015625)"/>
        <path id="CMR17-79" d="M 2496 2197 
C 2656 2586 2944 2586 3034 2586 
L 3034 2752 
C 2912 2752 2752 2752 2630 2752 
C 2496 2752 2285 2752 2157 2758 
L 2157 2592 
C 2400 2573 2406 2394 2406 2343 
C 2406 2280 2394 2248 2362 2171 
L 1664 449 
L 902 2306 
C 870 2382 870 2426 870 2433 
C 870 2573 1018 2586 1171 2586 
L 1171 2758 
C 1018 2752 742 2752 582 2752 
C 410 2752 205 2752 64 2758 
L 64 2586 
C 410 2586 448 2554 531 2350 
L 1485 15 
C 1197 -738 1030 -1178 627 -1178 
C 557 -1178 397 -1159 282 -1044 
C 429 -1031 493 -942 493 -833 
C 493 -725 416 -629 288 -629 
C 147 -629 77 -725 77 -840 
C 77 -1095 339 -1280 627 -1280 
C 998 -1280 1229 -922 1357 -604 
L 2496 2197 
z
" transform="scale(0.015625)"/>
       </defs>
       <use xlink:href="#CMR17-50" transform="scale(0.996264)"/>
       <use xlink:href="#CMR17-6c" transform="translate(62.586301 0) scale(0.996264)"/>
       <use xlink:href="#CMR17-75" transform="translate(87.457359 0) scale(0.996264)"/>
       <use xlink:href="#CMR17-72" transform="translate(138.352729 0) scale(0.996264)"/>
       <use xlink:href="#CMR17-61" transform="translate(173.633497 0) scale(0.996264)"/>
       <use xlink:href="#CMR17-6c" transform="translate(219.323974 0) scale(0.996264)"/>
       <use xlink:href="#CMR17-69" transform="translate(244.195032 0) scale(0.996264)"/>
       <use xlink:href="#CMR17-74" transform="translate(269.066091 0) scale(0.996264)"/>
       <use xlink:href="#CMR17-79" transform="translate(301.744405 0) scale(0.996264)"/>
       <use xlink:href="#CMR17-72" transform="translate(380.113287 0) scale(0.996264)"/>
       <use xlink:href="#CMR17-75" transform="translate(415.394055 0) scale(0.996264)"/>
       <use xlink:href="#CMR17-6c" transform="translate(466.289424 0) scale(0.996264)"/>
       <use xlink:href="#CMR17-65" transform="translate(491.160483 0) scale(0.996264)"/>
      </g>
     </g>
    </g>
    <g id="xtick_4">
     <g id="line2d_4">
      <g>
       <use xlink:href="#mf1356c691b" x="632.768585" y="384.626418" style="stroke: #000000; stroke-width: 0.8"/>
      </g>
     </g>
     <g id="text_4">
      <!-- Black's Rule -->
      <g transform="translate(602.90552 399.236765) scale(0.11 -0.11)">
       <defs>
        <path id="CMR17-63" d="M 2234 2240 
C 2112 2240 1933 2240 1933 2017 
C 1933 1838 2080 1787 2163 1787 
C 2208 1787 2394 1807 2394 2024 
C 2394 2467 1958 2803 1466 2803 
C 787 2803 211 2178 211 1363 
C 211 516 813 -64 1466 -64 
C 2259 -64 2458 677 2458 748 
C 2458 774 2451 793 2406 793 
C 2362 793 2355 787 2330 703 
C 2163 180 1798 51 1523 51 
C 1114 51 621 427 621 1369 
C 621 2338 1094 2688 1472 2688 
C 1722 2688 2093 2573 2234 2240 
z
" transform="scale(0.015625)"/>
        <path id="CMR17-6b" d="M 1670 1673 
C 1664 1686 1632 1724 1632 1743 
C 1632 1756 2086 2171 2144 2222 
C 2509 2528 2739 2560 2906 2560 
L 2906 2733 
C 2867 2733 2854 2733 2848 2720 
L 2534 2720 
C 2355 2720 2080 2720 1907 2733 
L 1907 2566 
C 1997 2559 2061 2508 2061 2419 
C 2061 2291 1933 2170 1926 2170 
L 960 1289 
L 960 4396 
L 198 4326 
L 198 4160 
C 576 4160 634 4122 634 3817 
L 634 426 
C 634 184 608 153 198 153 
L 198 -13 
C 352 0 634 0 794 0 
C 954 0 1235 0 1389 -13 
L 1389 153 
C 979 153 954 178 954 428 
L 954 1130 
L 1395 1532 
L 2042 574 
C 2118 459 2182 369 2182 286 
C 2182 172 2067 153 1990 153 
L 1990 -13 
C 2144 0 2419 0 2579 0 
C 2694 0 2931 0 3040 0 
L 3040 153 
C 2739 153 2669 210 2477 491 
L 1670 1673 
z
" transform="scale(0.015625)"/>
       </defs>
       <use xlink:href="#CMR17-42" transform="scale(0.996264)"/>
       <use xlink:href="#CMR17-6c" transform="translate(65.188754 0) scale(0.996264)"/>
       <use xlink:href="#CMR17-61" transform="translate(90.059813 0) scale(0.996264)"/>
       <use xlink:href="#CMR17-63" transform="translate(135.75029 0) scale(0.996264)"/>
       <use xlink:href="#CMR17-6b" transform="translate(173.633497 0) scale(0.996264)"/>
       <use xlink:href="#CMR17-27" transform="translate(221.926412 0) scale(0.996264)"/>
       <use xlink:href="#CMR17-73" transform="translate(246.797471 0) scale(0.996264)"/>
       <use xlink:href="#CMR17-52" transform="translate(312.674775 0) scale(0.996264)"/>
       <use xlink:href="#CMR17-75" transform="translate(380.465877 0) scale(0.996264)"/>
       <use xlink:href="#CMR17-6c" transform="translate(431.361247 0) scale(0.996264)"/>
       <use xlink:href="#CMR17-65" transform="translate(456.232305 0) scale(0.996264)"/>
      </g>
     </g>
    </g>
    <g id="text_5">
     <!-- Number of voters -->
     <g transform="translate(329.964678 414.361688) scale(0.13 -0.13)">
      <defs>
       <path id="CMR17-4e" d="M 1312 4250 
C 1267 4320 1261 4320 1139 4320 
L 326 4320 
L 326 4160 
L 448 4160 
C 704 4160 819 4129 838 4122 
L 838 610 
C 838 451 838 153 326 153 
L 326 -13 
C 474 0 742 0 902 0 
C 1062 0 1331 0 1478 -13 
L 1478 153 
C 966 153 966 451 966 610 
L 966 4033 
C 1011 3995 1011 3982 1056 3919 
L 3430 76 
C 3475 0 3494 0 3526 0 
C 3590 0 3590 19 3590 139 
L 3590 3705 
C 3590 3863 3590 4160 4102 4160 
L 4102 4326 
C 3955 4320 3686 4320 3526 4320 
C 3366 4320 3098 4320 2950 4326 
L 2950 4160 
C 3462 4160 3462 3862 3462 3703 
L 3462 763 
L 1312 4250 
z
" transform="scale(0.015625)"/>
       <path id="CMR17-6d" d="M 4326 1933 
C 4326 2252 4269 2790 3507 2790 
C 3072 2790 2771 2496 2656 2151 
L 2650 2151 
C 2573 2676 2195 2790 1837 2790 
C 1331 2790 1069 2400 973 2144 
L 966 2144 
L 966 2790 
L 211 2720 
L 211 2554 
C 589 2554 646 2515 646 2208 
L 646 428 
C 646 184 621 153 211 153 
L 211 -13 
C 365 0 646 0 813 0 
C 979 0 1267 0 1421 -13 
L 1421 153 
C 1011 153 986 178 986 428 
L 986 1658 
C 986 2247 1344 2688 1792 2688 
C 2266 2688 2317 2266 2317 1958 
L 2317 428 
C 2317 184 2291 153 1882 153 
L 1882 -13 
C 2035 0 2317 0 2483 0 
C 2650 0 2938 0 3091 -13 
L 3091 153 
C 2682 153 2656 178 2656 428 
L 2656 1658 
C 2656 2247 3014 2688 3462 2688 
C 3936 2688 3987 2266 3987 1958 
L 3987 428 
C 3987 184 3962 153 3552 153 
L 3552 -13 
C 3706 0 3987 0 4154 0 
C 4320 0 4608 0 4762 -13 
L 4762 153 
C 4352 153 4326 178 4326 428 
L 4326 1933 
z
" transform="scale(0.015625)"/>
       <path id="CMR17-62" d="M 960 4396 
L 198 4326 
L 198 4160 
C 576 4160 634 4122 634 3817 
L 634 -13 
L 749 -13 
L 934 441 
C 1120 141 1395 -64 1766 -64 
C 2406 -64 3053 500 3053 1370 
C 3053 2188 2477 2790 1830 2790 
C 1434 2790 1152 2579 960 2330 
L 960 4396 
z
M 973 2004 
C 973 2118 973 2138 1062 2272 
C 1312 2657 1670 2688 1792 2688 
C 1984 2688 2643 2585 2643 1376 
C 2643 108 1888 38 1734 38 
C 1536 38 1248 114 1043 486 
C 973 608 973 621 973 735 
L 973 2004 
z
" transform="scale(0.015625)"/>
       <path id="CMR17-66" d="M 979 2560 
L 1709 2560 
L 1709 2725 
L 966 2725 
L 966 3494 
C 966 4022 1235 4352 1510 4352 
C 1594 4352 1690 4327 1754 4282 
C 1702 4269 1568 4225 1568 4067 
C 1568 3901 1696 3850 1786 3850 
C 1875 3850 2003 3901 2003 4067 
C 2003 4308 1773 4454 1517 4454 
C 1152 4454 653 4156 653 3481 
L 653 2725 
L 141 2725 
L 141 2560 
L 653 2560 
L 653 427 
C 653 184 627 153 218 153 
L 218 -13 
C 371 0 666 0 832 0 
C 1018 0 1344 0 1517 -13 
L 1517 153 
C 1056 153 979 153 979 439 
L 979 2560 
z
" transform="scale(0.015625)"/>
       <path id="CMR17-76" d="M 2502 2163 
C 2560 2304 2662 2560 3034 2560 
L 3034 2726 
C 2912 2726 2752 2726 2630 2726 
C 2496 2726 2285 2726 2157 2732 
L 2157 2566 
C 2317 2553 2406 2477 2406 2311 
C 2406 2253 2406 2240 2368 2151 
L 1664 377 
L 902 2286 
C 864 2369 864 2381 864 2407 
C 864 2560 1075 2560 1171 2560 
L 1171 2732 
C 1018 2726 736 2726 576 2726 
C 403 2726 205 2726 64 2732 
L 64 2560 
C 307 2560 442 2560 518 2362 
L 1446 44 
C 1485 -51 1491 -64 1549 -64 
C 1606 -64 1613 -51 1651 44 
L 2502 2163 
z
" transform="scale(0.015625)"/>
      </defs>
      <use xlink:href="#CMR17-4e" transform="scale(0.996264)"/>
      <use xlink:href="#CMR17-75" transform="translate(69.07243 0) scale(0.996264)"/>
      <use xlink:href="#CMR17-6d" transform="translate(119.9678 0) scale(0.996264)"/>
      <use xlink:href="#CMR17-62" transform="translate(194.284936 0) scale(0.996264)"/>
      <use xlink:href="#CMR17-65" transform="translate(247.782744 0) scale(0.996264)"/>
      <use xlink:href="#CMR17-72" transform="translate(288.268404 0) scale(0.996264)"/>
      <use xlink:href="#CMR17-6f" transform="translate(353.625139 0) scale(0.996264)"/>
      <use xlink:href="#CMR17-66" transform="translate(399.315616 0) scale(0.996264)"/>
      <use xlink:href="#CMR17-76" transform="translate(456.865095 0) scale(0.996264)"/>
      <use xlink:href="#CMR17-6f" transform="translate(502.555556 0) scale(0.996264)"/>
      <use xlink:href="#CMR17-74" transform="translate(548.246034 0) scale(0.996264)"/>
      <use xlink:href="#CMR17-65" transform="translate(583.526801 0) scale(0.996264)"/>
      <use xlink:href="#CMR17-72" transform="translate(624.012462 0) scale(0.996264)"/>
      <use xlink:href="#CMR17-73" transform="translate(659.29323 0) scale(0.996264)"/>
     </g>
    </g>
   </g>
   <g id="matplotlib.axis_2">
    <g id="ytick_1">
     <g id="line2d_5">
      <path d="M 51.635416 368.512219 
L 704.88 368.512219 
" clip-path="url(#pc9a340a1e9)" style="fill: none; stroke: #b0b0b0; stroke-opacity: 0.3; stroke-linecap: square"/>
     </g>
     <g id="line2d_6">
      <defs>
       <path id="m0efdcd23db" d="M 0 0 
L -3.5 0 
" style="stroke: #000000; stroke-width: 0.8"/>
      </defs>
      <g>
       <use xlink:href="#m0efdcd23db" x="51.635416" y="368.512219" style="stroke: #000000; stroke-width: 0.8"/>
      </g>
     </g>
     <g id="text_6">
      <!-- $\mathdefault{1.0}$ -->
      <g transform="translate(30.63234 372.317392) scale(0.11 -0.11)">
       <defs>
        <path id="CMR17-31" d="M 1702 4058 
C 1702 4192 1696 4192 1606 4192 
C 1357 3916 979 3827 621 3827 
C 602 3827 570 3827 563 3808 
C 557 3795 557 3782 557 3648 
C 755 3648 1088 3686 1344 3839 
L 1344 461 
C 1344 236 1331 160 781 160 
L 589 160 
L 589 0 
C 896 0 1216 0 1523 0 
C 1830 0 2150 0 2458 0 
L 2458 160 
L 2266 160 
C 1715 160 1702 230 1702 458 
L 1702 4058 
z
" transform="scale(0.015625)"/>
        <path id="CMMI12-3a" d="M 1178 307 
C 1178 492 1024 619 870 619 
C 685 619 557 466 557 313 
C 557 128 710 0 864 0 
C 1050 0 1178 153 1178 307 
z
" transform="scale(0.015625)"/>
        <path id="CMR17-30" d="M 2688 2025 
C 2688 2416 2682 3080 2413 3591 
C 2176 4039 1798 4198 1466 4198 
C 1158 4198 768 4058 525 3597 
C 269 3118 243 2524 243 2025 
C 243 1661 250 1106 448 619 
C 723 -39 1216 -128 1466 -128 
C 1760 -128 2208 -7 2470 600 
C 2662 1042 2688 1559 2688 2025 
z
M 1466 -26 
C 1056 -26 813 325 723 812 
C 653 1188 653 1738 653 2096 
C 653 2588 653 2997 736 3387 
C 858 3929 1216 4096 1466 4096 
C 1728 4096 2067 3923 2189 3400 
C 2272 3036 2278 2607 2278 2096 
C 2278 1680 2278 1169 2202 792 
C 2067 95 1690 -26 1466 -26 
z
" transform="scale(0.015625)"/>
       </defs>
       <use xlink:href="#CMR17-31" transform="scale(0.996264)"/>
       <use xlink:href="#CMMI12-3a" transform="translate(45.690477 0) scale(0.996264)"/>
       <use xlink:href="#CMR17-30" transform="translate(72.787654 0) scale(0.996264)"/>
      </g>
     </g>
    </g>
    <g id="ytick_2">
     <g id="line2d_7">
      <path d="M 51.635416 301.888806 
L 704.88 301.888806 
" clip-path="url(#pc9a340a1e9)" style="fill: none; stroke: #b0b0b0; stroke-opacity: 0.3; stroke-linecap: square"/>
     </g>
     <g id="line2d_8">
      <g>
       <use xlink:href="#m0efdcd23db" x="51.635416" y="301.888806" style="stroke: #000000; stroke-width: 0.8"/>
      </g>
     </g>
     <g id="text_7">
      <!-- $\mathdefault{1.2}$ -->
      <g transform="translate(30.63234 305.693979) scale(0.11 -0.11)">
       <defs>
        <path id="CMR17-32" d="M 2669 989 
L 2554 989 
C 2490 536 2438 459 2413 420 
C 2381 369 1920 369 1830 369 
L 602 369 
C 832 619 1280 1072 1824 1597 
C 2214 1967 2669 2402 2669 3035 
C 2669 3790 2067 4224 1395 4224 
C 691 4224 262 3604 262 3030 
C 262 2780 448 2748 525 2748 
C 589 2748 781 2787 781 3010 
C 781 3207 614 3264 525 3264 
C 486 3264 448 3258 422 3245 
C 544 3790 915 4058 1306 4058 
C 1862 4058 2227 3617 2227 3035 
C 2227 2479 1901 2000 1536 1584 
L 262 146 
L 262 0 
L 2515 0 
L 2669 989 
z
" transform="scale(0.015625)"/>
       </defs>
       <use xlink:href="#CMR17-31" transform="scale(0.996264)"/>
       <use xlink:href="#CMMI12-3a" transform="translate(45.690477 0) scale(0.996264)"/>
       <use xlink:href="#CMR17-32" transform="translate(72.787654 0) scale(0.996264)"/>
      </g>
     </g>
    </g>
    <g id="ytick_3">
     <g id="line2d_9">
      <path d="M 51.635416 235.265392 
L 704.88 235.265392 
" clip-path="url(#pc9a340a1e9)" style="fill: none; stroke: #b0b0b0; stroke-opacity: 0.3; stroke-linecap: square"/>
     </g>
     <g id="line2d_10">
      <g>
       <use xlink:href="#m0efdcd23db" x="51.635416" y="235.265392" style="stroke: #000000; stroke-width: 0.8"/>
      </g>
     </g>
     <g id="text_8">
      <!-- $\mathdefault{1.4}$ -->
      <g transform="translate(30.63234 239.070566) scale(0.11 -0.11)">
       <defs>
        <path id="CMR17-34" d="M 2150 4122 
C 2150 4256 2144 4256 2029 4256 
L 128 1254 
L 128 1088 
L 1779 1088 
L 1779 457 
C 1779 224 1766 160 1318 160 
L 1197 160 
L 1197 0 
C 1402 0 1747 0 1965 0 
C 2182 0 2528 0 2733 0 
L 2733 160 
L 2611 160 
C 2163 160 2150 224 2150 457 
L 2150 1088 
L 2803 1088 
L 2803 1254 
L 2150 1254 
L 2150 4122 
z
M 1798 3703 
L 1798 1254 
L 256 1254 
L 1798 3703 
z
" transform="scale(0.015625)"/>
       </defs>
       <use xlink:href="#CMR17-31" transform="scale(0.996264)"/>
       <use xlink:href="#CMMI12-3a" transform="translate(45.690477 0) scale(0.996264)"/>
       <use xlink:href="#CMR17-34" transform="translate(72.787654 0) scale(0.996264)"/>
      </g>
     </g>
    </g>
    <g id="ytick_4">
     <g id="line2d_11">
      <path d="M 51.635416 168.641979 
L 704.88 168.641979 
" clip-path="url(#pc9a340a1e9)" style="fill: none; stroke: #b0b0b0; stroke-opacity: 0.3; stroke-linecap: square"/>
     </g>
     <g id="line2d_12">
      <g>
       <use xlink:href="#m0efdcd23db" x="51.635416" y="168.641979" style="stroke: #000000; stroke-width: 0.8"/>
      </g>
     </g>
     <g id="text_9">
      <!-- $\mathdefault{1.6}$ -->
      <g transform="translate(30.63234 172.447152) scale(0.11 -0.11)">
       <defs>
        <path id="CMR17-36" d="M 678 2176 
C 678 3690 1395 4032 1811 4032 
C 1946 4032 2272 4009 2400 3776 
C 2298 3776 2106 3776 2106 3553 
C 2106 3381 2246 3323 2336 3323 
C 2394 3323 2566 3348 2566 3560 
C 2566 3954 2246 4179 1805 4179 
C 1043 4179 243 3390 243 1984 
C 243 253 966 -128 1478 -128 
C 2099 -128 2688 427 2688 1283 
C 2688 2081 2170 2662 1517 2662 
C 1126 2662 838 2407 678 1960 
L 678 2176 
z
M 1478 25 
C 691 25 691 1200 691 1436 
C 691 1896 909 2560 1504 2560 
C 1613 2560 1926 2560 2138 2120 
C 2253 1870 2253 1609 2253 1289 
C 2253 944 2253 690 2118 434 
C 1978 171 1773 25 1478 25 
z
" transform="scale(0.015625)"/>
       </defs>
       <use xlink:href="#CMR17-31" transform="scale(0.996264)"/>
       <use xlink:href="#CMMI12-3a" transform="translate(45.690477 0) scale(0.996264)"/>
       <use xlink:href="#CMR17-36" transform="translate(72.787654 0) scale(0.996264)"/>
      </g>
     </g>
    </g>
    <g id="ytick_5">
     <g id="line2d_13">
      <path d="M 51.635416 102.018566 
L 704.88 102.018566 
" clip-path="url(#pc9a340a1e9)" style="fill: none; stroke: #b0b0b0; stroke-opacity: 0.3; stroke-linecap: square"/>
     </g>
     <g id="line2d_14">
      <g>
       <use xlink:href="#m0efdcd23db" x="51.635416" y="102.018566" style="stroke: #000000; stroke-width: 0.8"/>
      </g>
     </g>
     <g id="text_10">
      <!-- $\mathdefault{1.8}$ -->
      <g transform="translate(30.63234 105.823739) scale(0.11 -0.11)">
       <defs>
        <path id="CMR17-38" d="M 1741 2264 
C 2144 2467 2554 2773 2554 3263 
C 2554 3841 1990 4179 1472 4179 
C 890 4179 378 3759 378 3180 
C 378 3021 416 2747 666 2505 
C 730 2442 998 2251 1171 2130 
C 883 1983 211 1634 211 934 
C 211 279 838 -128 1459 -128 
C 2144 -128 2720 362 2720 1010 
C 2720 1590 2330 1857 2074 2029 
L 1741 2264 
z
M 902 2822 
C 851 2854 595 3051 595 3351 
C 595 3739 998 4032 1459 4032 
C 1965 4032 2336 3676 2336 3262 
C 2336 2669 1670 2331 1638 2331 
C 1632 2331 1626 2331 1574 2370 
L 902 2822 
z
M 2080 1519 
C 2176 1449 2483 1240 2483 851 
C 2483 381 2010 25 1472 25 
C 890 25 448 438 448 940 
C 448 1443 838 1862 1280 2060 
L 2080 1519 
z
" transform="scale(0.015625)"/>
       </defs>
       <use xlink:href="#CMR17-31" transform="scale(0.996264)"/>
       <use xlink:href="#CMMI12-3a" transform="translate(45.690477 0) scale(0.996264)"/>
       <use xlink:href="#CMR17-38" transform="translate(72.787654 0) scale(0.996264)"/>
      </g>
     </g>
    </g>
    <g id="ytick_6">
     <g id="line2d_15">
      <path d="M 51.635416 35.395152 
L 704.88 35.395152 
" clip-path="url(#pc9a340a1e9)" style="fill: none; stroke: #b0b0b0; stroke-opacity: 0.3; stroke-linecap: square"/>
     </g>
     <g id="line2d_16">
      <g>
       <use xlink:href="#m0efdcd23db" x="51.635416" y="35.395152" style="stroke: #000000; stroke-width: 0.8"/>
      </g>
     </g>
     <g id="text_11">
      <!-- $\mathdefault{2.0}$ -->
      <g transform="translate(30.63234 39.200326) scale(0.11 -0.11)">
       <use xlink:href="#CMR17-32" transform="scale(0.996264)"/>
       <use xlink:href="#CMMI12-3a" transform="translate(45.690477 0) scale(0.996264)"/>
       <use xlink:href="#CMR17-30" transform="translate(72.787654 0) scale(0.996264)"/>
      </g>
     </g>
    </g>
    <g id="text_12">
     <!-- Distortion -->
     <g transform="translate(24.114028 235.497321) rotate(-90) scale(0.13 -0.13)">
      <defs>
       <path id="CMR17-44" d="M 333 4352 
L 333 4186 
C 774 4186 845 4186 845 3900 
L 845 452 
C 845 166 774 166 333 166 
L 333 0 
L 2368 0 
C 3398 0 4224 943 4224 2141 
C 4224 3346 3411 4352 2368 4352 
L 333 4352 
z
M 1523 166 
C 1267 166 1254 197 1254 414 
L 1254 3938 
C 1254 4155 1267 4186 1523 4186 
L 2240 4186 
C 2771 4186 3750 3874 3750 2141 
C 3750 1242 3488 879 3366 707 
C 3213 510 2848 166 2240 166 
L 1523 166 
z
" transform="scale(0.015625)"/>
      </defs>
      <use xlink:href="#CMR17-44" transform="scale(0.996264)"/>
      <use xlink:href="#CMR17-69" transform="translate(70.393556 0) scale(0.996264)"/>
      <use xlink:href="#CMR17-73" transform="translate(95.264614 0) scale(0.996264)"/>
      <use xlink:href="#CMR17-74" transform="translate(131.065952 0) scale(0.996264)"/>
      <use xlink:href="#CMR17-6f" transform="translate(166.34672 0) scale(0.996264)"/>
      <use xlink:href="#CMR17-72" transform="translate(212.037197 0) scale(0.996264)"/>
      <use xlink:href="#CMR17-74" transform="translate(247.317965 0) scale(0.996264)"/>
      <use xlink:href="#CMR17-69" transform="translate(282.598733 0) scale(0.996264)"/>
      <use xlink:href="#CMR17-6f" transform="translate(307.469791 0) scale(0.996264)"/>
      <use xlink:href="#CMR17-6e" transform="translate(353.160268 0) scale(0.996264)"/>
     </g>
    </g>
   </g>
   <g id="LineCollection_1">
    <path d="M 102.537592 217.465001 
L 144.956071 217.465001 
" clip-path="url(#pc9a340a1e9)" style="fill: none; stroke: #1f77b4; stroke-width: 1.5"/>
    <path d="M 272.21151 301.995937 
L 314.629989 301.995937 
" clip-path="url(#pc9a340a1e9)" style="fill: none; stroke: #1f77b4; stroke-width: 1.5"/>
    <path d="M 441.885427 295.006849 
L 484.303907 295.006849 
" clip-path="url(#pc9a340a1e9)" style="fill: none; stroke: #1f77b4; stroke-width: 1.5"/>
    <path d="M 611.559345 300.527282 
L 653.977825 300.527282 
" clip-path="url(#pc9a340a1e9)" style="fill: none; stroke: #1f77b4; stroke-width: 1.5"/>
   </g>
   <g id="LineCollection_2">
    <path d="M 102.537592 46.228228 
L 144.956071 46.228228 
" clip-path="url(#pc9a340a1e9)" style="fill: none; stroke: #1f77b4; stroke-width: 1.5"/>
    <path d="M 272.21151 95.252125 
L 314.629989 95.252125 
" clip-path="url(#pc9a340a1e9)" style="fill: none; stroke: #1f77b4; stroke-width: 1.5"/>
    <path d="M 441.885427 94.788118 
L 484.303907 94.788118 
" clip-path="url(#pc9a340a1e9)" style="fill: none; stroke: #1f77b4; stroke-width: 1.5"/>
    <path d="M 611.559345 108.793828 
L 653.977825 108.793828 
" clip-path="url(#pc9a340a1e9)" style="fill: none; stroke: #1f77b4; stroke-width: 1.5"/>
   </g>
   <g id="LineCollection_3">
    <path d="M 102.537592 368.512219 
L 144.956071 368.512219 
" clip-path="url(#pc9a340a1e9)" style="fill: none; stroke: #1f77b4; stroke-width: 1.5"/>
    <path d="M 272.21151 368.512219 
L 314.629989 368.512219 
" clip-path="url(#pc9a340a1e9)" style="fill: none; stroke: #1f77b4; stroke-width: 1.5"/>
    <path d="M 441.885427 368.512219 
L 484.303907 368.512219 
" clip-path="url(#pc9a340a1e9)" style="fill: none; stroke: #1f77b4; stroke-width: 1.5"/>
    <path d="M 611.559345 368.512219 
L 653.977825 368.512219 
" clip-path="url(#pc9a340a1e9)" style="fill: none; stroke: #1f77b4; stroke-width: 1.5"/>
   </g>
   <g id="LineCollection_4">
    <path d="M 123.746832 368.512219 
L 123.746832 46.228228 
" clip-path="url(#pc9a340a1e9)" style="fill: none; stroke: #1f77b4; stroke-width: 1.5"/>
    <path d="M 293.420749 368.512219 
L 293.420749 95.252125 
" clip-path="url(#pc9a340a1e9)" style="fill: none; stroke: #1f77b4; stroke-width: 1.5"/>
    <path d="M 463.094667 368.512219 
L 463.094667 94.788118 
" clip-path="url(#pc9a340a1e9)" style="fill: none; stroke: #1f77b4; stroke-width: 1.5"/>
    <path d="M 632.768585 368.512219 
L 632.768585 108.793828 
" clip-path="url(#pc9a340a1e9)" style="fill: none; stroke: #1f77b4; stroke-width: 1.5"/>
   </g>
   <g id="patch_3">
    <path d="M 51.635416 384.626418 
L 51.635416 30.114028 
" style="fill: none; stroke: #000000; stroke-linejoin: miter; stroke-linecap: square"/>
   </g>
   <g id="patch_4">
    <path d="M 704.88 384.626418 
L 704.88 30.114028 
" style="fill: none; stroke: #000000; stroke-linejoin: miter; stroke-linecap: square"/>
   </g>
   <g id="patch_5">
    <path d="M 51.635416 384.626418 
L 704.88 384.626418 
" style="fill: none; stroke: #000000; stroke-linejoin: miter; stroke-linecap: square"/>
   </g>
   <g id="patch_6">
    <path d="M 51.635416 30.114028 
L 704.88 30.114028 
" style="fill: none; stroke: #000000; stroke-linejoin: miter; stroke-linecap: square"/>
   </g>
   <g id="text_13">
    <!-- Distortion Under Nietzschean -->
    <g transform="translate(296.027467 24.114028) scale(0.13 -0.13)">
     <defs>
      <path id="CMR17-55" d="M 3456 1433 
C 3456 579 2899 38 2291 38 
C 1965 38 1670 210 1491 477 
C 1286 783 1261 1178 1261 1401 
L 1261 3874 
C 1261 4160 1331 4160 1773 4160 
L 1773 4320 
C 1587 4320 1248 4320 1050 4320 
C 851 4320 512 4320 326 4320 
L 326 4160 
C 768 4160 838 4160 838 3874 
L 838 1433 
C 838 516 1536 -128 2278 -128 
C 3110 -128 3590 719 3590 1344 
L 3590 3766 
C 3590 4122 3917 4160 4102 4160 
L 4102 4326 
C 3955 4320 3686 4320 3526 4320 
C 3366 4320 3091 4320 2944 4326 
L 2944 4160 
C 3456 4160 3456 3861 3456 3702 
L 3456 1433 
z
" transform="scale(0.015625)"/>
      <path id="CMR17-7a" d="M 2310 2605 
C 2362 2670 2362 2682 2362 2695 
C 2362 2752 2336 2752 2221 2752 
L 275 2752 
L 211 1760 
L 326 1760 
C 371 2381 442 2650 1178 2650 
L 1958 2650 
L 128 96 
C 128 0 134 0 269 0 
L 2291 0 
L 2381 1152 
L 2266 1152 
C 2214 442 2131 115 1350 115 
L 531 115 
L 2310 2605 
z
" transform="scale(0.015625)"/>
      <path id="CMR17-68" d="M 2656 1933 
C 2656 2259 2592 2790 1837 2790 
C 1312 2790 1056 2368 979 2157 
L 973 2157 
L 973 4396 
L 211 4326 
L 211 4160 
C 589 4160 646 4122 646 3817 
L 646 426 
C 646 184 621 153 211 153 
L 211 -13 
C 365 0 646 0 813 0 
C 979 0 1267 0 1421 -13 
L 1421 153 
C 1011 153 986 178 986 428 
L 986 1658 
C 986 2247 1344 2688 1792 2688 
C 2266 2688 2317 2266 2317 1958 
L 2317 428 
C 2317 184 2291 153 1882 153 
L 1882 -13 
C 2035 0 2317 0 2483 0 
C 2650 0 2938 0 3091 -13 
L 3091 153 
C 2682 153 2656 178 2656 428 
L 2656 1933 
z
" transform="scale(0.015625)"/>
     </defs>
     <use xlink:href="#CMR17-44" transform="scale(0.996264)"/>
     <use xlink:href="#CMR17-69" transform="translate(70.393556 0) scale(0.996264)"/>
     <use xlink:href="#CMR17-73" transform="translate(95.264614 0) scale(0.996264)"/>
     <use xlink:href="#CMR17-74" transform="translate(131.065952 0) scale(0.996264)"/>
     <use xlink:href="#CMR17-6f" transform="translate(166.34672 0) scale(0.996264)"/>
     <use xlink:href="#CMR17-72" transform="translate(212.037197 0) scale(0.996264)"/>
     <use xlink:href="#CMR17-74" transform="translate(247.317965 0) scale(0.996264)"/>
     <use xlink:href="#CMR17-69" transform="translate(282.598733 0) scale(0.996264)"/>
     <use xlink:href="#CMR17-6f" transform="translate(307.469791 0) scale(0.996264)"/>
     <use xlink:href="#CMR17-6e" transform="translate(353.160268 0) scale(0.996264)"/>
     <use xlink:href="#CMR17-55" transform="translate(434.131604 0) scale(0.996264)"/>
     <use xlink:href="#CMR17-6e" transform="translate(503.204034 0) scale(0.996264)"/>
     <use xlink:href="#CMR17-64" transform="translate(554.099404 0) scale(0.996264)"/>
     <use xlink:href="#CMR17-65" transform="translate(604.994774 0) scale(0.996264)"/>
     <use xlink:href="#CMR17-72" transform="translate(645.480434 0) scale(0.996264)"/>
     <use xlink:href="#CMR17-4e" transform="translate(710.837168 0) scale(0.996264)"/>
     <use xlink:href="#CMR17-69" transform="translate(779.909598 0) scale(0.996264)"/>
     <use xlink:href="#CMR17-65" transform="translate(804.780657 0) scale(0.996264)"/>
     <use xlink:href="#CMR17-74" transform="translate(845.266317 0) scale(0.996264)"/>
     <use xlink:href="#CMR17-7a" transform="translate(880.547085 0) scale(0.996264)"/>
     <use xlink:href="#CMR17-73" transform="translate(921.032745 0) scale(0.996264)"/>
     <use xlink:href="#CMR17-63" transform="translate(956.834083 0) scale(0.996264)"/>
     <use xlink:href="#CMR17-68" transform="translate(994.717289 0) scale(0.996264)"/>
     <use xlink:href="#CMR17-65" transform="translate(1045.612659 0) scale(0.996264)"/>
     <use xlink:href="#CMR17-61" transform="translate(1086.09832 0) scale(0.996264)"/>
     <use xlink:href="#CMR17-6e" transform="translate(1131.788797 0) scale(0.996264)"/>
    </g>
   </g>
  </g>
 </g>
 <defs>
  <clipPath id="pc9a340a1e9">
   <rect x="51.635416" y="30.114028" width="653.244584" height="354.51239"/>
  </clipPath>
 </defs>
</svg>
