<?xml version="1.0" encoding="utf-8" standalone="no"?>
<!DOCTYPE svg PUBLIC "-//W3C//DTD SVG 1.1//EN"
  "http://www.w3.org/Graphics/SVG/1.1/DTD/svg11.dtd">
<svg xmlns:xlink="http://www.w3.org/1999/xlink" width="720pt" height="432pt" viewBox="0 0 720 432" xmlns="http://www.w3.org/2000/svg" version="1.1">
 <metadata>
  <rdf:RDF xmlns:dc="http://purl.org/dc/elements/1.1/" xmlns:cc="http://creativecommons.org/ns#" xmlns:rdf="http://www.w3.org/1999/02/22-rdf-syntax-ns#">
   <cc:Work>
    <dc:type rdf:resource="http://purl.org/dc/dcmitype/StillImage"/>
    <dc:date>2024-12-13T17:49:40.559622</dc:date>
    <dc:format>image/svg+xml</dc:format>
    <dc:creator>
     <cc:Agent>
      <dc:title>Matplotlib v3.9.2, https://matplotlib.org/</dc:title>
     </cc:Agent>
    </dc:creator>
   </cc:Work>
  </rdf:RDF>
 </metadata>
 <defs>
  <style type="text/css">*{stroke-linejoin: round; stroke-linecap: butt}</style>
 </defs>
 <g id="figure_1">
  <g id="patch_1">
   <path d="M 0 432 
L 720 432 
L 720 0 
L 0 0 
z
" style="fill: #ffffff"/>
  </g>
  <g id="axes_1">
   <g id="patch_2">
    <path d="M 48.591275 384.626418 
L 704.88 384.626418 
L 704.88 30.114028 
L 48.591275 30.114028 
z
" style="fill: #ffffff"/>
   </g>
   <g id="PolyCollection_1">
    <defs>
     <path id="madef26d344" d="M 144.343882 -63.487781 
L 78.79307 -63.487781 
L 78.42258 -65.629488 
L 78.836723 -67.771194 
L 79.990677 -69.912901 
L 81.78853 -72.054607 
L 84.095735 -74.196314 
L 86.755176 -76.33802 
L 89.604205 -78.479726 
L 92.490125 -80.621433 
L 95.282229 -82.763139 
L 97.879324 -84.904846 
L 100.212616 -87.046552 
L 102.244537 -89.188259 
L 103.964636 -91.329965 
L 105.383746 -93.471672 
L 106.5276 -95.613378 
L 107.430788 -97.755085 
L 108.131609 -99.896791 
L 108.668085 -102.038498 
L 109.075179 -104.180204 
L 109.383095 -106.321911 
L 109.616493 -108.463617 
L 109.794415 -110.605324 
L 109.930733 -112.74703 
L 110.034961 -114.888737 
L 110.113251 -117.030443 
L 110.16947 -119.17215 
L 110.206214 -121.313856 
L 110.225687 -123.455563 
L 110.230363 -125.597269 
L 110.2234 -127.738976 
L 110.208791 -129.880682 
L 110.191269 -132.022388 
L 110.176001 -134.164095 
L 110.168135 -136.305801 
L 110.172272 -138.447508 
L 110.191938 -140.589214 
L 110.229144 -142.730921 
L 110.284091 -144.872627 
L 110.355076 -147.014334 
L 110.43861 -149.15604 
L 110.529741 -151.297747 
L 110.622541 -153.439453 
L 110.710703 -155.58116 
L 110.788176 -157.722866 
L 110.849773 -159.864573 
L 110.891679 -162.006279 
L 110.911818 -164.147986 
L 110.910048 -166.289692 
L 110.88814 -168.431399 
L 110.849584 -170.573105 
L 110.799209 -172.714812 
L 110.742674 -174.856518 
L 110.6859 -176.998225 
L 110.634494 -179.139931 
L 110.59325 -181.281638 
L 110.565786 -183.423344 
L 110.554349 -185.56505 
L 110.559799 -187.706757 
L 110.581751 -189.848463 
L 110.618819 -191.99017 
L 110.668921 -194.131876 
L 110.729563 -196.273583 
L 110.798094 -198.415289 
L 110.871879 -200.556996 
L 110.948416 -202.698702 
L 111.0254 -204.840409 
L 111.100763 -206.982115 
L 111.1727 -209.123822 
L 111.239708 -211.265528 
L 111.300618 -213.407235 
L 111.354628 -215.548941 
L 111.401317 -217.690648 
L 111.440638 -219.832354 
L 111.47287 -221.974061 
L 111.498559 -224.115767 
L 111.518427 -226.257474 
L 111.533281 -228.39918 
L 111.543922 -230.540887 
L 111.551067 -232.682593 
L 111.555291 -234.8243 
L 111.556979 -236.966006 
L 111.556308 -239.107713 
L 111.553243 -241.249419 
L 111.547549 -243.391125 
L 111.538827 -245.532832 
L 111.526573 -247.674538 
L 111.510258 -249.816245 
L 111.489431 -251.957951 
L 111.463838 -254.099658 
L 111.433546 -256.241364 
L 111.399048 -258.383071 
L 111.361339 -260.524777 
L 111.321927 -262.666484 
L 111.282772 -264.80819 
L 111.246152 -266.949897 
L 111.214454 -269.091603 
L 111.189922 -271.23331 
L 111.174394 -273.375016 
L 111.169077 -275.516723 
L 111.967874 -275.516723 
L 111.967874 -275.516723 
L 111.962557 -273.375016 
L 111.947029 -271.23331 
L 111.922497 -269.091603 
L 111.890799 -266.949897 
L 111.85418 -264.80819 
L 111.815025 -262.666484 
L 111.775612 -260.524777 
L 111.737903 -258.383071 
L 111.703405 -256.241364 
L 111.673113 -254.099658 
L 111.64752 -251.957951 
L 111.626693 -249.816245 
L 111.610378 -247.674538 
L 111.598124 -245.532832 
L 111.589402 -243.391125 
L 111.583708 -241.249419 
L 111.580643 -239.107713 
L 111.579973 -236.966006 
L 111.581661 -234.8243 
L 111.585884 -232.682593 
L 111.59303 -230.540887 
L 111.60367 -228.39918 
L 111.618524 -226.257474 
L 111.638392 -224.115767 
L 111.664081 -221.974061 
L 111.696313 -219.832354 
L 111.735634 -217.690648 
L 111.782324 -215.548941 
L 111.836333 -213.407235 
L 111.897243 -211.265528 
L 111.964251 -209.123822 
L 112.036188 -206.982115 
L 112.111551 -204.840409 
L 112.188536 -202.698702 
L 112.265073 -200.556996 
L 112.338857 -198.415289 
L 112.407388 -196.273583 
L 112.468031 -194.131876 
L 112.518132 -191.99017 
L 112.555201 -189.848463 
L 112.577152 -187.706757 
L 112.582603 -185.56505 
L 112.571165 -183.423344 
L 112.543701 -181.281638 
L 112.502457 -179.139931 
L 112.451051 -176.998225 
L 112.394277 -174.856518 
L 112.337743 -172.714812 
L 112.287367 -170.573105 
L 112.248811 -168.431399 
L 112.226904 -166.289692 
L 112.225133 -164.147986 
L 112.245273 -162.006279 
L 112.287178 -159.864573 
L 112.348775 -157.722866 
L 112.426249 -155.58116 
L 112.51441 -153.439453 
L 112.60721 -151.297747 
L 112.698341 -149.15604 
L 112.781875 -147.014334 
L 112.85286 -144.872627 
L 112.907807 -142.730921 
L 112.945013 -140.589214 
L 112.964679 -138.447508 
L 112.968816 -136.305801 
L 112.960951 -134.164095 
L 112.945682 -132.022388 
L 112.92816 -129.880682 
L 112.913551 -127.738976 
L 112.906588 -125.597269 
L 112.911264 -123.455563 
L 112.930738 -121.313856 
L 112.967482 -119.17215 
L 113.0237 -117.030443 
L 113.10199 -114.888737 
L 113.206218 -112.74703 
L 113.342536 -110.605324 
L 113.520458 -108.463617 
L 113.753856 -106.321911 
L 114.061772 -104.180204 
L 114.468866 -102.038498 
L 115.005342 -99.896791 
L 115.706163 -97.755085 
L 116.609352 -95.613378 
L 117.753206 -93.471672 
L 119.172315 -91.329965 
L 120.892414 -89.188259 
L 122.924336 -87.046552 
L 125.257627 -84.904846 
L 127.854723 -82.763139 
L 130.646826 -80.621433 
L 133.532746 -78.479726 
L 136.381775 -76.33802 
L 139.041217 -74.196314 
L 141.348421 -72.054607 
L 143.146274 -69.912901 
L 144.300228 -67.771194 
L 144.714371 -65.629488 
L 144.343882 -63.487781 
z
" style="stroke: #000000; stroke-opacity: 0.4"/>
    </defs>
    <g clip-path="url(#p41e8e72f59)">
     <use xlink:href="#madef26d344" x="0" y="432" style="fill: #440154; fill-opacity: 0.4; stroke: #000000; stroke-opacity: 0.4"/>
    </g>
   </g>
   <g id="PolyCollection_2">
    <defs>
     <path id="m7ad9ed5fa8" d="M 276.684498 -63.487781 
L 211.619615 -63.487781 
L 211.006161 -65.201146 
L 211.040258 -66.914511 
L 211.700569 -68.627877 
L 212.928052 -70.341242 
L 214.633319 -72.054607 
L 216.706662 -73.767972 
L 219.029226 -75.481337 
L 221.483794 -77.194703 
L 223.963841 -78.908068 
L 226.380006 -80.621433 
L 228.66359 -82.334798 
L 230.767242 -84.048163 
L 232.663351 -85.761528 
L 234.34089 -87.474894 
L 235.801517 -89.188259 
L 237.055628 -90.901624 
L 238.118885 -92.614989 
L 239.009494 -94.328354 
L 239.746311 -96.04172 
L 240.347706 -97.755085 
L 240.831004 -99.46845 
L 241.212314 -101.181815 
L 241.506561 -102.89518 
L 241.727597 -104.608546 
L 241.888298 -106.321911 
L 242.000625 -108.035276 
L 242.075617 -109.748641 
L 242.123344 -111.462006 
L 242.152815 -113.175371 
L 242.171851 -114.888737 
L 242.186948 -116.602102 
L 242.203145 -118.315467 
L 242.223917 -120.028832 
L 242.251129 -121.742197 
L 242.285077 -123.455563 
L 242.324638 -125.168928 
L 242.367529 -126.882293 
L 242.410676 -128.595658 
L 242.450645 -130.309023 
L 242.484105 -132.022388 
L 242.508276 -133.735754 
L 242.521298 -135.449119 
L 242.522494 -137.162484 
L 242.512491 -138.875849 
L 242.493199 -140.589214 
L 242.46764 -142.30258 
L 242.439657 -144.015945 
L 242.413541 -145.72931 
L 242.393606 -147.442675 
L 242.38377 -149.15604 
L 242.387185 -150.869406 
L 242.405958 -152.582771 
L 242.440988 -154.296136 
L 242.491944 -156.009501 
L 242.557384 -157.722866 
L 242.634981 -159.436231 
L 242.721843 -161.149597 
L 242.814859 -162.862962 
L 242.911041 -164.576327 
L 243.007798 -166.289692 
L 243.103112 -168.003057 
L 243.195613 -169.716423 
L 243.284537 -171.429788 
L 243.369598 -173.143153 
L 243.450815 -174.856518 
L 243.528326 -176.569883 
L 243.602229 -178.283248 
L 243.672475 -179.996614 
L 243.738831 -181.709979 
L 243.800895 -183.423344 
L 243.85817 -185.136709 
L 243.910151 -186.850074 
L 243.956418 -188.56344 
L 243.996706 -190.276805 
L 244.030949 -191.99017 
L 244.059277 -193.703535 
L 244.08199 -195.4169 
L 244.099502 -197.130265 
L 244.11227 -198.843631 
L 244.120728 -200.556996 
L 244.125222 -202.270361 
L 244.125966 -203.983726 
L 244.123022 -205.697091 
L 244.1163 -207.410457 
L 244.105592 -209.123822 
L 244.090625 -210.837187 
L 244.071139 -212.550552 
L 244.046985 -214.263917 
L 244.018225 -215.977283 
L 243.985221 -217.690648 
L 243.948713 -219.404013 
L 243.909851 -221.117378 
L 243.870176 -222.830743 
L 243.831552 -224.544108 
L 243.796038 -226.257474 
L 243.765714 -227.970839 
L 243.742484 -229.684204 
L 243.72788 -231.397569 
L 243.722897 -233.110934 
L 244.581215 -233.110934 
L 244.581215 -233.110934 
L 244.576233 -231.397569 
L 244.561629 -229.684204 
L 244.538399 -227.970839 
L 244.508075 -226.257474 
L 244.472561 -224.544108 
L 244.433937 -222.830743 
L 244.394262 -221.117378 
L 244.355399 -219.404013 
L 244.318892 -217.690648 
L 244.285888 -215.977283 
L 244.257128 -214.263917 
L 244.232974 -212.550552 
L 244.213488 -210.837187 
L 244.198521 -209.123822 
L 244.187813 -207.410457 
L 244.181091 -205.697091 
L 244.178147 -203.983726 
L 244.178891 -202.270361 
L 244.183385 -200.556996 
L 244.191843 -198.843631 
L 244.204611 -197.130265 
L 244.222123 -195.4169 
L 244.244836 -193.703535 
L 244.273164 -191.99017 
L 244.307407 -190.276805 
L 244.347695 -188.56344 
L 244.393962 -186.850074 
L 244.445943 -185.136709 
L 244.503218 -183.423344 
L 244.565282 -181.709979 
L 244.631638 -179.996614 
L 244.701884 -178.283248 
L 244.775787 -176.569883 
L 244.853298 -174.856518 
L 244.934515 -173.143153 
L 245.019576 -171.429788 
L 245.1085 -169.716423 
L 245.201001 -168.003057 
L 245.296315 -166.289692 
L 245.393072 -164.576327 
L 245.489254 -162.862962 
L 245.58227 -161.149597 
L 245.669132 -159.436231 
L 245.746729 -157.722866 
L 245.812169 -156.009501 
L 245.863125 -154.296136 
L 245.898155 -152.582771 
L 245.916928 -150.869406 
L 245.920343 -149.15604 
L 245.910507 -147.442675 
L 245.890572 -145.72931 
L 245.864456 -144.015945 
L 245.836473 -142.30258 
L 245.810914 -140.589214 
L 245.791622 -138.875849 
L 245.781619 -137.162484 
L 245.782815 -135.449119 
L 245.795837 -133.735754 
L 245.820008 -132.022388 
L 245.853468 -130.309023 
L 245.893437 -128.595658 
L 245.936584 -126.882293 
L 245.979475 -125.168928 
L 246.019036 -123.455563 
L 246.052984 -121.742197 
L 246.080196 -120.028832 
L 246.100968 -118.315467 
L 246.117165 -116.602102 
L 246.132262 -114.888737 
L 246.151298 -113.175371 
L 246.180768 -111.462006 
L 246.228496 -109.748641 
L 246.303488 -108.035276 
L 246.415815 -106.321911 
L 246.576516 -104.608546 
L 246.797552 -102.89518 
L 247.091799 -101.181815 
L 247.473109 -99.46845 
L 247.956407 -97.755085 
L 248.557801 -96.04172 
L 249.294618 -94.328354 
L 250.185228 -92.614989 
L 251.248485 -90.901624 
L 252.502596 -89.188259 
L 253.963223 -87.474894 
L 255.640762 -85.761528 
L 257.536871 -84.048163 
L 259.640523 -82.334798 
L 261.924107 -80.621433 
L 264.340272 -78.908068 
L 266.820319 -77.194703 
L 269.274887 -75.481337 
L 271.597451 -73.767972 
L 273.670794 -72.054607 
L 275.376061 -70.341242 
L 276.603544 -68.627877 
L 277.263855 -66.914511 
L 277.297952 -65.201146 
L 276.684498 -63.487781 
z
" style="stroke: #000000; stroke-opacity: 0.4"/>
    </defs>
    <g clip-path="url(#p41e8e72f59)">
     <use xlink:href="#m7ad9ed5fa8" x="0" y="432" style="fill: #3b528b; fill-opacity: 0.4; stroke: #000000; stroke-opacity: 0.4"/>
    </g>
   </g>
   <g id="PolyCollection_3">
    <defs>
     <path id="m9bfbc7c58f" d="M 408.876251 -63.487781 
L 344.595024 -63.487781 
L 343.815865 -66.057829 
L 343.589742 -68.627877 
L 343.916427 -71.197924 
L 344.766183 -73.767972 
L 346.082925 -76.33802 
L 347.78956 -78.908068 
L 349.794809 -81.478116 
L 352.000678 -84.048163 
L 354.309757 -86.618211 
L 356.631619 -89.188259 
L 358.887794 -91.758307 
L 361.015038 -94.328354 
L 362.966857 -96.898402 
L 364.71345 -99.46845 
L 366.240391 -102.038498 
L 367.546422 -104.608546 
L 368.640767 -107.178593 
L 369.540309 -109.748641 
L 370.2669 -112.318689 
L 370.845007 -114.888737 
L 371.299769 -117.458784 
L 371.655514 -120.028832 
L 371.934713 -122.59888 
L 372.157304 -125.168928 
L 372.340338 -127.738976 
L 372.497874 -130.309023 
L 372.641052 -132.879071 
L 372.778297 -135.449119 
L 372.915607 -138.019167 
L 373.056887 -140.589214 
L 373.204299 -143.159262 
L 373.358609 -145.72931 
L 373.519515 -148.299358 
L 373.685941 -150.869406 
L 373.856298 -153.439453 
L 374.0287 -156.009501 
L 374.201142 -158.579549 
L 374.371633 -161.149597 
L 374.538306 -163.719644 
L 374.699481 -166.289692 
L 374.853721 -168.85974 
L 374.999865 -171.429788 
L 375.13705 -173.999836 
L 375.26473 -176.569883 
L 375.382685 -179.139931 
L 375.491027 -181.709979 
L 375.590187 -184.280027 
L 375.680884 -186.850074 
L 375.764076 -189.420122 
L 375.84088 -191.99017 
L 375.912481 -194.560218 
L 375.98002 -197.130265 
L 376.044493 -199.700313 
L 376.106653 -202.270361 
L 376.166948 -204.840409 
L 376.225487 -207.410457 
L 376.28204 -209.980504 
L 376.336084 -212.550552 
L 376.386867 -215.1206 
L 376.433486 -217.690648 
L 376.474985 -220.260695 
L 376.510427 -222.830743 
L 376.538971 -225.400791 
L 376.559926 -227.970839 
L 376.572785 -230.540887 
L 376.577256 -233.110934 
L 376.573273 -235.680982 
L 376.56101 -238.25103 
L 376.540884 -240.821078 
L 376.513554 -243.391125 
L 376.479912 -245.961173 
L 376.441059 -248.531221 
L 376.39827 -251.101269 
L 376.352934 -253.671317 
L 376.30649 -256.241364 
L 376.26034 -258.811412 
L 376.215774 -261.38146 
L 376.173895 -263.951508 
L 376.135562 -266.521555 
L 376.101364 -269.091603 
L 376.071614 -271.661651 
L 376.046375 -274.231699 
L 376.025508 -276.801747 
L 376.008728 -279.371794 
L 375.995674 -281.941842 
L 375.985962 -284.51189 
L 375.979242 -287.081938 
L 375.975235 -289.651985 
L 375.973759 -292.222033 
L 375.974742 -294.792081 
L 375.978234 -297.362129 
L 375.984395 -299.932177 
L 375.993489 -302.502224 
L 376.005856 -305.072272 
L 376.02188 -307.64232 
L 376.04194 -310.212368 
L 376.06635 -312.782415 
L 376.095303 -315.352463 
L 376.128804 -317.922511 
L 377.34247 -317.922511 
L 377.34247 -317.922511 
L 377.375972 -315.352463 
L 377.404924 -312.782415 
L 377.429335 -310.212368 
L 377.449395 -307.64232 
L 377.465419 -305.072272 
L 377.477786 -302.502224 
L 377.48688 -299.932177 
L 377.493041 -297.362129 
L 377.496532 -294.792081 
L 377.497516 -292.222033 
L 377.49604 -289.651985 
L 377.492033 -287.081938 
L 377.485313 -284.51189 
L 377.475601 -281.941842 
L 377.462546 -279.371794 
L 377.445767 -276.801747 
L 377.4249 -274.231699 
L 377.399661 -271.661651 
L 377.36991 -269.091603 
L 377.335712 -266.521555 
L 377.29738 -263.951508 
L 377.2555 -261.38146 
L 377.210935 -258.811412 
L 377.164785 -256.241364 
L 377.11834 -253.671317 
L 377.073005 -251.101269 
L 377.030216 -248.531221 
L 376.991363 -245.961173 
L 376.957721 -243.391125 
L 376.930391 -240.821078 
L 376.910265 -238.25103 
L 376.898002 -235.680982 
L 376.894019 -233.110934 
L 376.898489 -230.540887 
L 376.911349 -227.970839 
L 376.932303 -225.400791 
L 376.960848 -222.830743 
L 376.99629 -220.260695 
L 377.037788 -217.690648 
L 377.084408 -215.1206 
L 377.13519 -212.550552 
L 377.189235 -209.980504 
L 377.245788 -207.410457 
L 377.304326 -204.840409 
L 377.364622 -202.270361 
L 377.426782 -199.700313 
L 377.491255 -197.130265 
L 377.558794 -194.560218 
L 377.630394 -191.99017 
L 377.707199 -189.420122 
L 377.79039 -186.850074 
L 377.881088 -184.280027 
L 377.980247 -181.709979 
L 378.08859 -179.139931 
L 378.206545 -176.569883 
L 378.334225 -173.999836 
L 378.47141 -171.429788 
L 378.617554 -168.85974 
L 378.771794 -166.289692 
L 378.932969 -163.719644 
L 379.099641 -161.149597 
L 379.270133 -158.579549 
L 379.442575 -156.009501 
L 379.614977 -153.439453 
L 379.785334 -150.869406 
L 379.95176 -148.299358 
L 380.112666 -145.72931 
L 380.266976 -143.159262 
L 380.414387 -140.589214 
L 380.555667 -138.019167 
L 380.692978 -135.449119 
L 380.830223 -132.879071 
L 380.973401 -130.309023 
L 381.130937 -127.738976 
L 381.313971 -125.168928 
L 381.536561 -122.59888 
L 381.81576 -120.028832 
L 382.171506 -117.458784 
L 382.626268 -114.888737 
L 383.204374 -112.318689 
L 383.930966 -109.748641 
L 384.830508 -107.178593 
L 385.924853 -104.608546 
L 387.230884 -102.038498 
L 388.757824 -99.46845 
L 390.504418 -96.898402 
L 392.456236 -94.328354 
L 394.58348 -91.758307 
L 396.839656 -89.188259 
L 399.161518 -86.618211 
L 401.470597 -84.048163 
L 403.676465 -81.478116 
L 405.681714 -78.908068 
L 407.38835 -76.33802 
L 408.705092 -73.767972 
L 409.554848 -71.197924 
L 409.881533 -68.627877 
L 409.655409 -66.057829 
L 408.876251 -63.487781 
z
" style="stroke: #000000; stroke-opacity: 0.4"/>
    </defs>
    <g clip-path="url(#p41e8e72f59)">
     <use xlink:href="#m9bfbc7c58f" x="0" y="432" style="fill: #21918c; fill-opacity: 0.4; stroke: #000000; stroke-opacity: 0.4"/>
    </g>
   </g>
   <g id="PolyCollection_4">
    <defs>
     <path id="me345000cb7" d="M 541.815213 -63.487781 
L 476.823223 -63.487781 
L 476.173323 -64.230239 
L 476.231881 -64.972698 
L 476.957209 -65.715156 
L 478.261591 -66.457614 
L 480.023641 -67.200072 
L 482.103728 -67.942531 
L 484.35988 -68.684989 
L 486.661762 -69.427447 
L 488.900989 -70.169905 
L 490.996925 -70.912364 
L 492.898018 -71.654822 
L 494.57946 -72.39728 
L 496.038351 -73.139738 
L 497.287704 -73.882197 
L 498.35041 -74.624655 
L 499.253999 -75.367113 
L 500.026632 -76.109571 
L 500.694445 -76.85203 
L 501.280094 -77.594488 
L 501.80224 -78.336946 
L 502.275663 -79.079404 
L 502.711713 -79.821863 
L 503.118898 -80.564321 
L 503.503438 -81.306779 
L 503.869728 -82.049237 
L 504.220677 -82.791696 
L 504.557933 -83.534154 
L 504.882051 -84.276612 
L 505.192641 -85.01907 
L 505.488547 -85.761528 
L 505.768091 -86.503987 
L 506.029379 -87.246445 
L 506.270667 -87.988903 
L 506.490723 -88.731361 
L 506.68915 -89.47382 
L 506.866595 -90.216278 
L 507.024834 -90.958736 
L 507.166681 -91.701194 
L 507.295754 -92.443653 
L 507.416128 -93.186111 
L 507.531905 -93.928569 
L 507.646792 -94.671027 
L 507.763715 -95.413486 
L 507.884537 -96.155944 
L 508.009907 -96.898402 
L 508.139252 -97.64086 
L 508.27091 -98.383319 
L 508.40237 -99.125777 
L 508.530598 -99.868235 
L 508.652372 -100.610693 
L 508.76461 -101.353152 
L 508.864625 -102.09561 
L 508.950305 -102.838068 
L 509.020197 -103.580526 
L 509.073515 -104.322985 
L 509.110099 -105.065443 
L 509.130347 -105.807901 
L 509.135162 -106.550359 
L 509.125915 -107.292818 
L 509.104439 -108.035276 
L 509.073037 -108.777734 
L 509.034467 -109.520192 
L 508.991896 -110.262651 
L 508.948778 -111.005109 
L 508.908662 -111.747567 
L 508.874932 -112.490025 
L 508.850511 -113.232484 
L 508.83758 -113.974942 
L 508.837352 -114.7174 
L 508.849957 -115.459858 
L 508.874451 -116.202317 
L 508.908962 -116.944775 
L 508.950938 -117.687233 
L 508.99747 -118.429691 
L 509.045617 -119.17215 
L 509.0927 -119.914608 
L 509.136511 -120.657066 
L 509.175435 -121.399524 
L 509.208451 -122.141983 
L 509.235067 -122.884441 
L 509.255183 -123.626899 
L 509.268932 -124.369357 
L 509.276525 -125.111816 
L 509.278126 -125.854274 
L 509.273773 -126.596732 
L 509.263364 -127.33919 
L 509.246701 -128.081649 
L 509.223591 -128.824107 
L 509.193989 -129.566565 
L 509.158156 -130.309023 
L 509.116816 -131.051482 
L 509.071258 -131.79394 
L 509.023381 -132.536398 
L 508.975631 -133.278856 
L 508.930845 -134.021315 
L 508.891996 -134.763773 
L 508.861884 -135.506231 
L 508.842805 -136.248689 
L 508.83627 -136.991148 
L 509.802166 -136.991148 
L 509.802166 -136.991148 
L 509.795632 -136.248689 
L 509.776553 -135.506231 
L 509.74644 -134.763773 
L 509.707591 -134.021315 
L 509.662805 -133.278856 
L 509.615056 -132.536398 
L 509.567179 -131.79394 
L 509.521621 -131.051482 
L 509.48028 -130.309023 
L 509.444447 -129.566565 
L 509.414845 -128.824107 
L 509.391735 -128.081649 
L 509.375073 -127.33919 
L 509.364663 -126.596732 
L 509.36031 -125.854274 
L 509.361911 -125.111816 
L 509.369504 -124.369357 
L 509.383254 -123.626899 
L 509.40337 -122.884441 
L 509.429986 -122.141983 
L 509.463002 -121.399524 
L 509.501925 -120.657066 
L 509.545737 -119.914608 
L 509.592819 -119.17215 
L 509.640966 -118.429691 
L 509.687498 -117.687233 
L 509.729475 -116.944775 
L 509.763985 -116.202317 
L 509.788479 -115.459858 
L 509.801084 -114.7174 
L 509.800856 -113.974942 
L 509.787925 -113.232484 
L 509.763505 -112.490025 
L 509.729775 -111.747567 
L 509.689659 -111.005109 
L 509.646541 -110.262651 
L 509.603969 -109.520192 
L 509.565399 -108.777734 
L 509.533997 -108.035276 
L 509.512522 -107.292818 
L 509.503275 -106.550359 
L 509.50809 -105.807901 
L 509.528338 -105.065443 
L 509.564921 -104.322985 
L 509.618239 -103.580526 
L 509.688131 -102.838068 
L 509.773811 -102.09561 
L 509.873826 -101.353152 
L 509.986064 -100.610693 
L 510.107839 -99.868235 
L 510.236066 -99.125777 
L 510.367527 -98.383319 
L 510.499184 -97.64086 
L 510.628529 -96.898402 
L 510.7539 -96.155944 
L 510.874722 -95.413486 
L 510.991644 -94.671027 
L 511.106531 -93.928569 
L 511.222308 -93.186111 
L 511.342682 -92.443653 
L 511.471756 -91.701194 
L 511.613602 -90.958736 
L 511.771841 -90.216278 
L 511.949287 -89.47382 
L 512.147713 -88.731361 
L 512.36777 -87.988903 
L 512.609058 -87.246445 
L 512.870346 -86.503987 
L 513.149889 -85.761528 
L 513.445795 -85.01907 
L 513.756386 -84.276612 
L 514.080504 -83.534154 
L 514.417759 -82.791696 
L 514.768708 -82.049237 
L 515.134999 -81.306779 
L 515.519539 -80.564321 
L 515.926724 -79.821863 
L 516.362774 -79.079404 
L 516.836196 -78.336946 
L 517.358342 -77.594488 
L 517.943991 -76.85203 
L 518.611804 -76.109571 
L 519.384437 -75.367113 
L 520.288026 -74.624655 
L 521.350733 -73.882197 
L 522.600086 -73.139738 
L 524.058977 -72.39728 
L 525.740418 -71.654822 
L 527.641512 -70.912364 
L 529.737447 -70.169905 
L 531.976674 -69.427447 
L 534.278557 -68.684989 
L 536.534709 -67.942531 
L 538.614796 -67.200072 
L 540.376845 -66.457614 
L 541.681228 -65.715156 
L 542.406556 -64.972698 
L 542.465113 -64.230239 
L 541.815213 -63.487781 
z
" style="stroke: #000000; stroke-opacity: 0.4"/>
    </defs>
    <g clip-path="url(#p41e8e72f59)">
     <use xlink:href="#me345000cb7" x="0" y="432" style="fill: #5ec962; fill-opacity: 0.4; stroke: #000000; stroke-opacity: 0.4"/>
    </g>
   </g>
   <g id="PolyCollection_5">
    <defs>
     <path id="maa677ec937" d="M 674.403013 -63.487781 
L 609.402586 -63.487781 
L 608.756904 -66.743175 
L 609.307742 -69.998569 
L 610.949346 -73.253963 
L 613.462551 -76.509357 
L 616.559062 -79.76475 
L 619.9332 -83.020144 
L 623.308572 -86.275538 
L 626.470381 -89.530932 
L 629.279478 -92.786326 
L 631.669714 -96.04172 
L 633.633797 -99.297113 
L 635.204128 -102.552507 
L 636.434224 -105.807901 
L 637.384165 -109.063295 
L 638.111289 -112.318689 
L 638.665599 -115.574083 
L 639.088503 -118.829477 
L 639.413388 -122.08487 
L 639.666875 -125.340264 
L 639.870063 -128.595658 
L 640.039476 -131.851052 
L 640.187713 -135.106446 
L 640.323863 -138.36184 
L 640.453824 -141.617234 
L 640.580593 -144.872627 
L 640.704621 -148.128021 
L 640.824283 -151.383415 
L 640.936503 -154.638809 
L 641.037532 -157.894203 
L 641.123813 -161.149597 
L 641.192801 -164.40499 
L 641.24357 -167.660384 
L 641.277057 -170.915778 
L 641.295863 -174.171172 
L 641.303688 -177.426566 
L 641.304579 -180.68196 
L 641.302238 -183.937354 
L 641.299604 -187.192747 
L 641.298804 -190.448141 
L 641.301406 -193.703535 
L 641.308784 -196.958929 
L 641.322364 -200.214323 
L 641.34361 -203.469717 
L 641.373726 -206.725111 
L 641.413209 -209.980504 
L 641.46146 -213.235898 
L 641.516638 -216.491292 
L 641.575842 -219.746686 
L 641.635588 -223.00208 
L 641.692417 -226.257474 
L 641.743467 -229.512867 
L 641.786855 -232.768261 
L 641.8218 -236.023655 
L 641.848507 -239.279049 
L 641.8679 -242.534443 
L 641.881292 -245.789837 
L 641.890095 -249.045231 
L 641.895608 -252.300624 
L 641.898899 -255.556018 
L 641.900772 -258.811412 
L 641.90179 -262.066806 
L 641.902318 -265.3222 
L 641.902579 -268.577594 
L 641.902703 -271.832988 
L 641.902759 -275.088381 
L 641.902783 -278.343775 
L 641.902793 -281.599169 
L 641.902797 -284.854563 
L 641.902798 -288.109957 
L 641.902799 -291.365351 
L 641.902799 -294.620744 
L 641.902799 -297.876138 
L 641.902799 -301.131532 
L 641.902798 -304.386926 
L 641.902797 -307.64232 
L 641.902794 -310.897714 
L 641.902787 -314.153108 
L 641.902768 -317.408501 
L 641.902724 -320.663895 
L 641.902625 -323.919289 
L 641.902414 -327.174683 
L 641.901982 -330.430077 
L 641.901137 -333.685471 
L 641.899563 -336.940865 
L 641.896763 -340.196258 
L 641.892014 -343.451652 
L 641.884339 -346.707046 
L 641.872533 -349.96244 
L 641.855264 -353.217834 
L 641.831283 -356.473228 
L 641.799732 -359.728622 
L 641.760513 -362.984015 
L 641.714636 -366.239409 
L 641.66444 -369.494803 
L 641.61356 -372.750197 
L 641.566589 -376.005591 
L 641.528437 -379.260985 
L 641.503498 -382.516378 
L 641.494821 -385.771772 
L 642.310777 -385.771772 
L 642.310777 -385.771772 
L 642.3021 -382.516378 
L 642.277161 -379.260985 
L 642.239009 -376.005591 
L 642.192039 -372.750197 
L 642.141158 -369.494803 
L 642.090962 -366.239409 
L 642.045085 -362.984015 
L 642.005866 -359.728622 
L 641.974315 -356.473228 
L 641.950335 -353.217834 
L 641.933065 -349.96244 
L 641.921259 -346.707046 
L 641.913584 -343.451652 
L 641.908835 -340.196258 
L 641.906035 -336.940865 
L 641.904461 -333.685471 
L 641.903617 -330.430077 
L 641.903184 -327.174683 
L 641.902973 -323.919289 
L 641.902874 -320.663895 
L 641.90283 -317.408501 
L 641.902811 -314.153108 
L 641.902804 -310.897714 
L 641.902801 -307.64232 
L 641.9028 -304.386926 
L 641.902799 -301.131532 
L 641.902799 -297.876138 
L 641.902799 -294.620744 
L 641.902799 -291.365351 
L 641.9028 -288.109957 
L 641.902801 -284.854563 
L 641.902805 -281.599169 
L 641.902815 -278.343775 
L 641.902839 -275.088381 
L 641.902895 -271.832988 
L 641.903019 -268.577594 
L 641.903281 -265.3222 
L 641.903808 -262.066806 
L 641.904826 -258.811412 
L 641.9067 -255.556018 
L 641.90999 -252.300624 
L 641.915503 -249.045231 
L 641.924306 -245.789837 
L 641.937698 -242.534443 
L 641.957091 -239.279049 
L 641.983798 -236.023655 
L 642.018743 -232.768261 
L 642.062132 -229.512867 
L 642.113181 -226.257474 
L 642.17001 -223.00208 
L 642.229756 -219.746686 
L 642.28896 -216.491292 
L 642.344138 -213.235898 
L 642.392389 -209.980504 
L 642.431872 -206.725111 
L 642.461988 -203.469717 
L 642.483234 -200.214323 
L 642.496814 -196.958929 
L 642.504192 -193.703535 
L 642.506794 -190.448141 
L 642.505994 -187.192747 
L 642.50336 -183.937354 
L 642.501019 -180.68196 
L 642.501911 -177.426566 
L 642.509735 -174.171172 
L 642.528541 -170.915778 
L 642.562028 -167.660384 
L 642.612798 -164.40499 
L 642.681785 -161.149597 
L 642.768066 -157.894203 
L 642.869095 -154.638809 
L 642.981315 -151.383415 
L 643.100977 -148.128021 
L 643.225005 -144.872627 
L 643.351774 -141.617234 
L 643.481735 -138.36184 
L 643.617886 -135.106446 
L 643.766122 -131.851052 
L 643.935535 -128.595658 
L 644.138723 -125.340264 
L 644.39221 -122.08487 
L 644.717095 -118.829477 
L 645.139999 -115.574083 
L 645.694309 -112.318689 
L 646.421434 -109.063295 
L 647.371374 -105.807901 
L 648.60147 -102.552507 
L 650.171801 -99.297113 
L 652.135884 -96.04172 
L 654.526121 -92.786326 
L 657.335217 -89.530932 
L 660.497026 -86.275538 
L 663.872399 -83.020144 
L 667.246536 -79.76475 
L 670.343047 -76.509357 
L 672.856252 -73.253963 
L 674.497856 -69.998569 
L 675.048694 -66.743175 
L 674.403013 -63.487781 
z
" style="stroke: #000000; stroke-opacity: 0.4"/>
    </defs>
    <g clip-path="url(#p41e8e72f59)">
     <use xlink:href="#maa677ec937" x="0" y="432" style="fill: #fde725; fill-opacity: 0.4; stroke: #000000; stroke-opacity: 0.4"/>
    </g>
   </g>
   <g id="matplotlib.axis_1">
    <g id="xtick_1">
     <g id="line2d_1">
      <defs>
       <path id="mcfcfd38d86" d="M 0 0 
L 0 3.5 
" style="stroke: #000000; stroke-width: 0.8"/>
      </defs>
      <g>
       <use xlink:href="#mcfcfd38d86" x="111.568476" y="384.626418" style="stroke: #000000; stroke-width: 0.8"/>
      </g>
     </g>
     <g id="text_1">
      <!-- Borda rule -->
      <g transform="translate(86.043292 399.236765) scale(0.11 -0.11)">
       <defs>
        <path id="CMR17-42" d="M 333 4352 
L 333 4186 
C 774 4186 845 4186 845 3900 
L 845 452 
C 845 166 774 166 333 166 
L 333 0 
L 2534 0 
C 3354 0 3885 583 3885 1164 
C 3885 1741 3360 2233 2675 2233 
C 3290 2356 3718 2771 3718 3264 
C 3718 3802 3194 4352 2368 4352 
L 333 4352 
z
M 1248 2304 
L 1248 3937 
C 1248 4155 1261 4186 1517 4186 
L 2336 4186 
C 2970 4186 3251 3674 3251 3277 
C 3251 2791 2861 2304 2170 2304 
L 1248 2304 
z
M 1517 166 
C 1261 166 1248 197 1248 413 
L 1248 2202 
L 2432 2202 
C 3091 2202 3411 1625 3411 1162 
C 3411 699 3046 166 2349 166 
L 1517 166 
z
" transform="scale(0.015625)"/>
        <path id="CMR17-6f" d="M 2758 1356 
C 2758 2176 2163 2816 1466 2816 
C 768 2816 173 2176 173 1356 
C 173 551 768 -64 1466 -64 
C 2163 -64 2758 551 2758 1356 
z
M 1466 51 
C 1165 51 909 230 762 480 
C 602 767 582 1126 582 1408 
C 582 1677 595 2010 762 2298 
C 890 2509 1139 2714 1466 2714 
C 1754 2714 1997 2554 2150 2330 
C 2349 2029 2349 1607 2349 1408 
C 2349 1158 2336 775 2163 467 
C 1984 173 1709 51 1466 51 
z
" transform="scale(0.015625)"/>
        <path id="CMR17-72" d="M 960 1497 
C 960 2112 1222 2688 1702 2688 
C 1747 2688 1792 2682 1837 2662 
C 1837 2662 1696 2617 1696 2452 
C 1696 2298 1818 2234 1914 2234 
C 1990 2234 2131 2279 2131 2458 
C 2131 2663 1926 2790 1709 2790 
C 1222 2790 1011 2317 947 2093 
L 941 2093 
L 941 2790 
L 198 2720 
L 198 2554 
C 576 2554 634 2515 634 2208 
L 634 428 
C 634 184 608 153 198 153 
L 198 -13 
C 352 0 646 0 813 0 
C 998 0 1325 0 1498 -13 
L 1498 153 
C 1037 153 960 153 960 440 
L 960 1497 
z
" transform="scale(0.015625)"/>
        <path id="CMR17-64" d="M 1869 4326 
L 1869 4160 
C 2246 4160 2304 4122 2304 3820 
L 2304 2345 
C 2278 2377 2016 2790 1498 2790 
C 845 2790 211 2208 211 1364 
C 211 525 806 -64 1434 -64 
C 1978 -64 2259 337 2291 380 
L 2291 -63 
L 3066 -63 
L 3066 128 
C 2688 128 2630 166 2630 473 
L 2630 4396 
L 1869 4326 
z
M 2291 755 
C 2291 563 2176 390 2029 262 
C 1811 70 1594 38 1472 38 
C 1286 38 621 134 621 1356 
C 621 2612 1363 2688 1530 2688 
C 1824 2688 2061 2522 2208 2291 
C 2291 2157 2291 2138 2291 2023 
L 2291 755 
z
" transform="scale(0.015625)"/>
        <path id="CMR17-61" d="M 2304 1653 
C 2304 2072 2304 2294 2035 2543 
C 1798 2752 1523 2816 1306 2816 
C 800 2816 435 2407 435 1971 
C 435 1728 627 1728 666 1728 
C 749 1728 896 1778 896 1954 
C 896 2112 774 2181 666 2181 
C 640 2181 608 2174 589 2168 
C 723 2592 1069 2714 1293 2714 
C 1613 2714 1965 2429 1965 1885 
L 1965 1600 
C 1587 1600 1133 1549 774 1357 
C 371 1133 256 813 256 570 
C 256 77 832 -64 1171 -64 
C 1523 -64 1850 139 1990 511 
C 2003 233 2182 -18 2464 -18 
C 2598 -18 2938 70 2938 567 
L 2938 920 
L 2822 920 
L 2822 562 
C 2822 178 2650 128 2566 128 
C 2304 128 2304 458 2304 738 
L 2304 1653 
z
M 1965 870 
C 1965 317 1568 38 1216 38 
C 896 38 646 275 646 570 
C 646 761 730 1100 1101 1305 
C 1408 1478 1760 1504 1965 1504 
L 1965 870 
z
" transform="scale(0.015625)"/>
        <path id="CMR17-75" d="M 1882 2693 
L 1882 2528 
C 2259 2528 2317 2489 2317 2186 
L 2317 1032 
C 2317 500 2029 38 1555 38 
C 1030 38 986 348 986 678 
L 986 2763 
L 211 2693 
L 211 2528 
C 467 2528 640 2528 646 2274 
L 646 1058 
C 646 633 646 361 813 183 
C 896 101 1056 -64 1517 -64 
C 2061 -64 2272 377 2323 506 
L 2330 506 
L 2330 -63 
L 3091 -63 
L 3091 128 
C 2714 128 2656 166 2656 473 
L 2656 2763 
L 1882 2693 
z
" transform="scale(0.015625)"/>
        <path id="CMR17-6c" d="M 979 4396 
L 218 4326 
L 218 4160 
C 595 4160 653 4122 653 3817 
L 653 426 
C 653 184 627 153 218 153 
L 218 -13 
C 371 0 653 0 813 0 
C 979 0 1261 0 1414 -13 
L 1414 153 
C 1005 153 979 178 979 426 
L 979 4396 
z
" transform="scale(0.015625)"/>
        <path id="CMR17-65" d="M 2438 1472 
C 2464 1498 2464 1511 2464 1576 
C 2464 2238 2118 2816 1389 2816 
C 710 2816 173 2169 173 1383 
C 173 551 781 -64 1459 -64 
C 2176 -64 2458 607 2458 740 
C 2458 784 2419 784 2406 784 
C 2362 784 2355 771 2330 696 
C 2189 265 1837 51 1504 51 
C 1229 51 954 203 781 480 
C 582 803 582 1176 582 1472 
L 2438 1472 
z
M 589 1568 
C 634 2505 1126 2714 1382 2714 
C 1818 2714 2112 2297 2118 1568 
L 589 1568 
z
" transform="scale(0.015625)"/>
       </defs>
       <use xlink:href="#CMR17-42" transform="scale(0.996264)"/>
       <use xlink:href="#CMR17-6f" transform="translate(65.188754 0) scale(0.996264)"/>
       <use xlink:href="#CMR17-72" transform="translate(110.879232 0) scale(0.996264)"/>
       <use xlink:href="#CMR17-64" transform="translate(146.159999 0) scale(0.996264)"/>
       <use xlink:href="#CMR17-61" transform="translate(197.055369 0) scale(0.996264)"/>
       <use xlink:href="#CMR17-72" transform="translate(272.821813 0) scale(0.996264)"/>
       <use xlink:href="#CMR17-75" transform="translate(308.10258 0) scale(0.996264)"/>
       <use xlink:href="#CMR17-6c" transform="translate(358.99795 0) scale(0.996264)"/>
       <use xlink:href="#CMR17-65" transform="translate(383.869009 0) scale(0.996264)"/>
      </g>
     </g>
    </g>
    <g id="xtick_2">
     <g id="line2d_2">
      <g>
       <use xlink:href="#mcfcfd38d86" x="244.152056" y="384.626418" style="stroke: #000000; stroke-width: 0.8"/>
      </g>
     </g>
     <g id="text_2">
      <!-- Copeland's Rule -->
      <g transform="translate(204.928228 399.236765) scale(0.11 -0.11)">
       <defs>
        <path id="CMR17-43" d="M 3974 4289 
C 3974 4403 3968 4410 3930 4410 
C 3904 4410 3898 4403 3853 4327 
L 3571 3792 
C 3258 4187 2874 4416 2381 4416 
C 1286 4416 294 3456 294 2148 
C 294 826 1286 -128 2387 -128 
C 3366 -128 3974 730 3974 1461 
C 3974 1524 3974 1550 3917 1550 
C 3866 1550 3866 1531 3859 1474 
C 3808 585 3168 38 2477 38 
C 1824 38 781 495 781 2147 
C 781 3805 1843 4250 2464 4250 
C 3187 4250 3712 3628 3834 2745 
C 3846 2668 3846 2655 3904 2655 
C 3974 2655 3974 2668 3974 2783 
L 3974 4289 
z
" transform="scale(0.015625)"/>
        <path id="CMR17-70" d="M 1408 -1063 
C 998 -1063 973 -1037 973 -789 
L 973 402 
C 1158 134 1427 -38 1766 -38 
C 2406 -38 3053 523 3053 1388 
C 3053 2191 2496 2802 1837 2802 
C 1453 2802 1139 2592 960 2338 
L 960 2802 
L 198 2732 
L 198 2567 
C 576 2567 634 2528 634 2223 
L 634 -789 
C 634 -1031 608 -1063 198 -1063 
L 198 -1228 
C 352 -1216 634 -1216 800 -1216 
C 966 -1216 1254 -1216 1408 -1228 
L 1408 -1063 
z
M 973 2012 
C 973 2102 973 2235 1222 2471 
C 1254 2497 1472 2688 1792 2688 
C 2259 2688 2643 2108 2643 1382 
C 2643 656 2234 64 1728 64 
C 1498 64 1248 172 1056 472 
C 973 612 973 650 973 752 
L 973 2012 
z
" transform="scale(0.015625)"/>
        <path id="CMR17-6e" d="M 2656 1933 
C 2656 2259 2592 2790 1837 2790 
C 1331 2790 1069 2400 973 2144 
L 966 2144 
L 966 2790 
L 211 2720 
L 211 2554 
C 589 2554 646 2515 646 2208 
L 646 428 
C 646 184 621 153 211 153 
L 211 -13 
C 365 0 646 0 813 0 
C 979 0 1267 0 1421 -13 
L 1421 153 
C 1011 153 986 178 986 428 
L 986 1658 
C 986 2247 1344 2688 1792 2688 
C 2266 2688 2317 2266 2317 1958 
L 2317 428 
C 2317 184 2291 153 1882 153 
L 1882 -13 
C 2035 0 2317 0 2483 0 
C 2650 0 2938 0 3091 -13 
L 3091 153 
C 2682 153 2656 178 2656 428 
L 2656 1933 
z
" transform="scale(0.015625)"/>
        <path id="CMR17-27" d="M 1024 4025 
C 1037 3955 1043 3929 1043 3820 
C 1043 3415 883 3042 634 2778 
C 608 2752 595 2733 595 2707 
C 595 2681 621 2656 646 2656 
C 691 2656 1146 3105 1146 3811 
C 1146 3952 1133 4426 800 4426 
C 659 4426 538 4331 538 4165 
C 538 3999 659 3904 800 3904 
C 858 3904 966 3923 1024 4025 
z
" transform="scale(0.015625)"/>
        <path id="CMR17-73" d="M 1978 2697 
C 1978 2813 1971 2819 1933 2819 
C 1907 2819 1901 2813 1824 2717 
C 1805 2691 1747 2626 1728 2601 
C 1523 2819 1235 2819 1126 2819 
C 416 2819 160 2447 160 2076 
C 160 1498 813 1365 998 1325 
C 1402 1243 1542 1217 1677 1101 
C 1760 1025 1901 884 1901 654 
C 1901 384 1747 38 1158 38 
C 602 38 403 460 288 1021 
C 269 1110 269 1117 218 1117 
C 166 1117 160 1110 160 983 
L 160 63 
C 160 -51 166 -58 205 -58 
C 237 -58 243 -51 275 0 
C 314 57 410 211 448 276 
C 576 103 800 -64 1158 -64 
C 1792 -64 2131 283 2131 784 
C 2131 1112 1958 1285 1875 1362 
C 1683 1561 1459 1606 1190 1657 
C 838 1735 390 1825 390 2217 
C 390 2383 480 2737 1126 2737 
C 1811 2737 1850 2094 1862 1888 
C 1869 1856 1901 1849 1920 1849 
C 1978 1849 1978 1869 1978 1978 
L 1978 2697 
z
" transform="scale(0.015625)"/>
        <path id="CMR17-52" d="M 2509 2146 
C 3117 2268 3629 2676 3629 3186 
C 3629 3785 2950 4326 2054 4326 
L 333 4326 
L 333 4160 
C 774 4160 845 4160 845 3873 
L 845 415 
C 845 128 774 128 333 128 
L 333 -26 
C 518 -26 851 -26 1050 -26 
C 1248 -26 1581 -26 1766 -26 
L 1766 128 
C 1325 128 1254 128 1254 417 
L 1254 2112 
L 2003 2112 
C 2368 2112 2573 1964 2662 1881 
C 2918 1632 2918 1459 2918 1024 
C 2918 595 2918 377 3110 160 
C 3354 -102 3680 -128 3821 -128 
C 4294 -128 4365 396 4365 503 
C 4365 540 4365 585 4307 585 
C 4256 585 4250 547 4250 522 
C 4218 112 4032 -26 3834 -26 
C 3482 -26 3443 375 3405 764 
C 3386 898 3373 993 3360 1133 
C 3322 1452 3270 1917 2509 2146 
z
M 1984 2214 
L 1254 2214 
L 1254 3913 
C 1254 4129 1267 4160 1523 4160 
L 1990 4160 
C 2522 4160 3142 3977 3142 3190 
C 3142 2372 2464 2214 1984 2214 
z
" transform="scale(0.015625)"/>
       </defs>
       <use xlink:href="#CMR17-43" transform="scale(0.996264)"/>
       <use xlink:href="#CMR17-6f" transform="translate(66.509881 0) scale(0.996264)"/>
       <use xlink:href="#CMR17-70" transform="translate(112.200358 0) scale(0.996264)"/>
       <use xlink:href="#CMR17-65" transform="translate(165.698166 0) scale(0.996264)"/>
       <use xlink:href="#CMR17-6c" transform="translate(206.183827 0) scale(0.996264)"/>
       <use xlink:href="#CMR17-61" transform="translate(231.054885 0) scale(0.996264)"/>
       <use xlink:href="#CMR17-6e" transform="translate(276.745362 0) scale(0.996264)"/>
       <use xlink:href="#CMR17-64" transform="translate(327.640732 0) scale(0.996264)"/>
       <use xlink:href="#CMR17-27" transform="translate(378.536102 0) scale(0.996264)"/>
       <use xlink:href="#CMR17-73" transform="translate(403.40716 0) scale(0.996264)"/>
       <use xlink:href="#CMR17-52" transform="translate(469.284464 0) scale(0.996264)"/>
       <use xlink:href="#CMR17-75" transform="translate(537.075566 0) scale(0.996264)"/>
       <use xlink:href="#CMR17-6c" transform="translate(587.970936 0) scale(0.996264)"/>
       <use xlink:href="#CMR17-65" transform="translate(612.841994 0) scale(0.996264)"/>
      </g>
     </g>
    </g>
    <g id="xtick_3">
     <g id="line2d_3">
      <g>
       <use xlink:href="#mcfcfd38d86" x="376.735637" y="384.626418" style="stroke: #000000; stroke-width: 0.8"/>
      </g>
     </g>
     <g id="text_3">
      <!-- Plurality rule -->
      <g transform="translate(344.665554 399.236765) scale(0.11 -0.11)">
       <defs>
        <path id="CMR17-50" d="M 1267 2042 
L 2291 2042 
C 3117 2042 3718 2578 3718 3184 
C 3718 3791 3130 4352 2291 4352 
L 333 4352 
L 333 4186 
C 774 4186 845 4186 845 3899 
L 845 446 
C 845 160 774 160 333 160 
L 333 0 
C 518 0 858 0 1056 0 
C 1254 0 1594 0 1779 0 
L 1779 160 
C 1338 160 1267 160 1267 446 
L 1267 2042 
z
M 1254 2176 
L 1254 3938 
C 1254 4155 1267 4186 1523 4186 
L 2170 4186 
C 2995 4186 3232 3714 3232 3184 
C 3232 2604 2950 2176 2170 2176 
L 1254 2176 
z
" transform="scale(0.015625)"/>
        <path id="CMR17-69" d="M 992 3909 
C 992 4049 877 4170 730 4170 
C 589 4170 467 4056 467 3909 
C 467 3769 582 3648 730 3648 
C 870 3648 992 3763 992 3909 
z
M 243 2706 
L 243 2541 
C 602 2541 653 2502 653 2197 
L 653 427 
C 653 184 627 153 218 153 
L 218 -13 
C 371 0 646 0 806 0 
C 960 0 1222 0 1370 -13 
L 1370 153 
C 992 153 979 191 979 420 
L 979 2776 
L 243 2706 
z
" transform="scale(0.015625)"/>
        <path id="CMR17-74" d="M 966 2560 
L 1862 2560 
L 1862 2725 
L 966 2725 
L 966 3904 
L 851 3904 
C 838 3245 614 2668 70 2668 
L 70 2560 
L 627 2560 
L 627 771 
C 627 650 627 -64 1370 -64 
C 1747 -64 1965 306 1965 777 
L 1965 1140 
L 1850 1140 
L 1850 783 
C 1850 344 1677 51 1408 51 
C 1222 51 966 178 966 758 
L 966 2560 
z
" transform="scale(0.015625)"/>
        <path id="CMR17-79" d="M 2496 2197 
C 2656 2586 2944 2586 3034 2586 
L 3034 2752 
C 2912 2752 2752 2752 2630 2752 
C 2496 2752 2285 2752 2157 2758 
L 2157 2592 
C 2400 2573 2406 2394 2406 2343 
C 2406 2280 2394 2248 2362 2171 
L 1664 449 
L 902 2306 
C 870 2382 870 2426 870 2433 
C 870 2573 1018 2586 1171 2586 
L 1171 2758 
C 1018 2752 742 2752 582 2752 
C 410 2752 205 2752 64 2758 
L 64 2586 
C 410 2586 448 2554 531 2350 
L 1485 15 
C 1197 -738 1030 -1178 627 -1178 
C 557 -1178 397 -1159 282 -1044 
C 429 -1031 493 -942 493 -833 
C 493 -725 416 -629 288 -629 
C 147 -629 77 -725 77 -840 
C 77 -1095 339 -1280 627 -1280 
C 998 -1280 1229 -922 1357 -604 
L 2496 2197 
z
" transform="scale(0.015625)"/>
       </defs>
       <use xlink:href="#CMR17-50" transform="scale(0.996264)"/>
       <use xlink:href="#CMR17-6c" transform="translate(62.586301 0) scale(0.996264)"/>
       <use xlink:href="#CMR17-75" transform="translate(87.457359 0) scale(0.996264)"/>
       <use xlink:href="#CMR17-72" transform="translate(138.352729 0) scale(0.996264)"/>
       <use xlink:href="#CMR17-61" transform="translate(173.633497 0) scale(0.996264)"/>
       <use xlink:href="#CMR17-6c" transform="translate(219.323974 0) scale(0.996264)"/>
       <use xlink:href="#CMR17-69" transform="translate(244.195032 0) scale(0.996264)"/>
       <use xlink:href="#CMR17-74" transform="translate(269.066091 0) scale(0.996264)"/>
       <use xlink:href="#CMR17-79" transform="translate(301.744405 0) scale(0.996264)"/>
       <use xlink:href="#CMR17-72" transform="translate(380.113287 0) scale(0.996264)"/>
       <use xlink:href="#CMR17-75" transform="translate(415.394055 0) scale(0.996264)"/>
       <use xlink:href="#CMR17-6c" transform="translate(466.289424 0) scale(0.996264)"/>
       <use xlink:href="#CMR17-65" transform="translate(491.160483 0) scale(0.996264)"/>
      </g>
     </g>
    </g>
    <g id="xtick_4">
     <g id="line2d_4">
      <g>
       <use xlink:href="#mcfcfd38d86" x="509.319218" y="384.626418" style="stroke: #000000; stroke-width: 0.8"/>
      </g>
     </g>
     <g id="text_4">
      <!-- Black's Rule -->
      <g transform="translate(479.456153 399.236765) scale(0.11 -0.11)">
       <defs>
        <path id="CMR17-63" d="M 2234 2240 
C 2112 2240 1933 2240 1933 2017 
C 1933 1838 2080 1787 2163 1787 
C 2208 1787 2394 1807 2394 2024 
C 2394 2467 1958 2803 1466 2803 
C 787 2803 211 2178 211 1363 
C 211 516 813 -64 1466 -64 
C 2259 -64 2458 677 2458 748 
C 2458 774 2451 793 2406 793 
C 2362 793 2355 787 2330 703 
C 2163 180 1798 51 1523 51 
C 1114 51 621 427 621 1369 
C 621 2338 1094 2688 1472 2688 
C 1722 2688 2093 2573 2234 2240 
z
" transform="scale(0.015625)"/>
        <path id="CMR17-6b" d="M 1670 1673 
C 1664 1686 1632 1724 1632 1743 
C 1632 1756 2086 2171 2144 2222 
C 2509 2528 2739 2560 2906 2560 
L 2906 2733 
C 2867 2733 2854 2733 2848 2720 
L 2534 2720 
C 2355 2720 2080 2720 1907 2733 
L 1907 2566 
C 1997 2559 2061 2508 2061 2419 
C 2061 2291 1933 2170 1926 2170 
L 960 1289 
L 960 4396 
L 198 4326 
L 198 4160 
C 576 4160 634 4122 634 3817 
L 634 426 
C 634 184 608 153 198 153 
L 198 -13 
C 352 0 634 0 794 0 
C 954 0 1235 0 1389 -13 
L 1389 153 
C 979 153 954 178 954 428 
L 954 1130 
L 1395 1532 
L 2042 574 
C 2118 459 2182 369 2182 286 
C 2182 172 2067 153 1990 153 
L 1990 -13 
C 2144 0 2419 0 2579 0 
C 2694 0 2931 0 3040 0 
L 3040 153 
C 2739 153 2669 210 2477 491 
L 1670 1673 
z
" transform="scale(0.015625)"/>
       </defs>
       <use xlink:href="#CMR17-42" transform="scale(0.996264)"/>
       <use xlink:href="#CMR17-6c" transform="translate(65.188754 0) scale(0.996264)"/>
       <use xlink:href="#CMR17-61" transform="translate(90.059813 0) scale(0.996264)"/>
       <use xlink:href="#CMR17-63" transform="translate(135.75029 0) scale(0.996264)"/>
       <use xlink:href="#CMR17-6b" transform="translate(173.633497 0) scale(0.996264)"/>
       <use xlink:href="#CMR17-27" transform="translate(221.926412 0) scale(0.996264)"/>
       <use xlink:href="#CMR17-73" transform="translate(246.797471 0) scale(0.996264)"/>
       <use xlink:href="#CMR17-52" transform="translate(312.674775 0) scale(0.996264)"/>
       <use xlink:href="#CMR17-75" transform="translate(380.465877 0) scale(0.996264)"/>
       <use xlink:href="#CMR17-6c" transform="translate(431.361247 0) scale(0.996264)"/>
       <use xlink:href="#CMR17-65" transform="translate(456.232305 0) scale(0.996264)"/>
      </g>
     </g>
    </g>
    <g id="xtick_5">
     <g id="line2d_5">
      <g>
       <use xlink:href="#mcfcfd38d86" x="641.902799" y="384.626418" style="stroke: #000000; stroke-width: 0.8"/>
      </g>
     </g>
     <g id="text_5">
      <!-- Instand-runoff voting -->
      <g transform="translate(591.01988 399.236765) scale(0.11 -0.11)">
       <defs>
        <path id="CMR17-49" d="M 1261 3905 
C 1261 4192 1338 4192 1798 4192 
L 1798 4352 
C 1594 4352 1267 4352 1050 4352 
C 832 4352 506 4352 301 4352 
L 301 4192 
C 762 4192 838 4192 838 3905 
L 838 447 
C 838 160 762 160 301 160 
L 301 0 
C 506 0 832 0 1050 0 
C 1267 0 1594 0 1798 0 
L 1798 160 
C 1338 160 1261 160 1261 447 
L 1261 3905 
z
" transform="scale(0.015625)"/>
        <path id="CMR17-2d" d="M 1632 1216 
L 1632 1496 
L 26 1496 
L 26 1216 
L 1632 1216 
z
" transform="scale(0.015625)"/>
        <path id="CMR17-b" d="M 2554 2560 
L 3283 2560 
L 3283 2725 
L 2541 2725 
L 2541 3494 
C 2541 4022 2810 4352 3085 4352 
C 3168 4352 3264 4327 3328 4282 
C 3277 4269 3142 4225 3142 4067 
C 3142 3901 3270 3850 3360 3850 
C 3450 3850 3578 3901 3578 4067 
C 3578 4308 3347 4454 3091 4454 
C 2842 4454 2637 4333 2477 4181 
C 2330 4390 2086 4454 1837 4454 
C 1338 4454 634 4168 634 3469 
L 634 2725 
L 122 2725 
L 122 2560 
L 634 2560 
L 634 427 
C 634 184 608 153 198 153 
L 198 -13 
C 352 0 634 0 794 0 
C 960 0 1242 0 1395 -13 
L 1395 153 
C 986 153 960 178 960 427 
L 960 2560 
L 2227 2560 
L 2227 427 
C 2227 184 2202 153 1792 153 
L 1792 -13 
C 1946 0 2240 0 2406 0 
C 2592 0 2918 0 3091 -13 
L 3091 153 
C 2630 153 2554 153 2554 439 
L 2554 2560 
z
M 947 2725 
L 947 3469 
C 947 4047 1395 4352 1824 4352 
C 1920 4352 2170 4332 2323 4187 
C 2208 4187 2099 4136 2099 3977 
C 2099 3812 2246 3767 2259 3767 
C 2227 3652 2227 3526 2227 3481 
L 2227 2725 
L 947 2725 
z
" transform="scale(0.015625)"/>
        <path id="CMR17-76" d="M 2502 2163 
C 2560 2304 2662 2560 3034 2560 
L 3034 2726 
C 2912 2726 2752 2726 2630 2726 
C 2496 2726 2285 2726 2157 2732 
L 2157 2566 
C 2317 2553 2406 2477 2406 2311 
C 2406 2253 2406 2240 2368 2151 
L 1664 377 
L 902 2286 
C 864 2369 864 2381 864 2407 
C 864 2560 1075 2560 1171 2560 
L 1171 2732 
C 1018 2726 736 2726 576 2726 
C 403 2726 205 2726 64 2732 
L 64 2560 
C 307 2560 442 2560 518 2362 
L 1446 44 
C 1485 -51 1491 -64 1549 -64 
C 1606 -64 1613 -51 1651 44 
L 2502 2163 
z
" transform="scale(0.015625)"/>
        <path id="CMR17-67" d="M 710 1164 
C 832 1068 1043 960 1299 960 
C 1805 960 2240 1357 2240 1888 
C 2240 2054 2189 2310 1997 2509 
C 2176 2692 2438 2752 2586 2752 
C 2611 2752 2650 2752 2682 2734 
C 2656 2728 2598 2703 2598 2605 
C 2598 2527 2656 2471 2739 2471 
C 2835 2471 2886 2533 2886 2614 
C 2886 2731 2790 2854 2586 2854 
C 2330 2854 2106 2738 1926 2580 
C 1734 2753 1504 2816 1299 2816 
C 794 2816 358 2419 358 1888 
C 358 1522 570 1292 634 1228 
C 442 1004 442 743 442 711 
C 442 545 506 302 723 168 
C 390 85 128 -169 128 -486 
C 128 -943 736 -1280 1466 -1280 
C 2170 -1280 2803 -956 2803 -479 
C 2803 384 1856 384 1363 384 
C 1216 384 954 384 922 391 
C 723 423 589 602 589 826 
C 589 883 589 1024 710 1164 
z
M 1299 1068 
C 736 1068 736 1760 736 1889 
C 736 2016 736 2708 1299 2708 
C 1862 2708 1862 2016 1862 1889 
C 1862 1760 1862 1068 1299 1068 
z
M 1466 -1171 
C 826 -1171 384 -835 384 -486 
C 384 -289 493 -105 634 -4 
C 794 104 858 104 1293 104 
C 1818 104 2547 104 2547 -486 
C 2547 -835 2106 -1171 1466 -1171 
z
" transform="scale(0.015625)"/>
       </defs>
       <use xlink:href="#CMR17-49" transform="scale(0.996264)"/>
       <use xlink:href="#CMR17-6e" transform="translate(32.638409 0) scale(0.996264)"/>
       <use xlink:href="#CMR17-73" transform="translate(83.533779 0) scale(0.996264)"/>
       <use xlink:href="#CMR17-74" transform="translate(119.335117 0) scale(0.996264)"/>
       <use xlink:href="#CMR17-61" transform="translate(154.615884 0) scale(0.996264)"/>
       <use xlink:href="#CMR17-6e" transform="translate(200.306362 0) scale(0.996264)"/>
       <use xlink:href="#CMR17-64" transform="translate(251.201731 0) scale(0.996264)"/>
       <use xlink:href="#CMR17-2d" transform="translate(302.097101 0) scale(0.996264)"/>
       <use xlink:href="#CMR17-72" transform="translate(332.173067 0) scale(0.996264)"/>
       <use xlink:href="#CMR17-75" transform="translate(367.453835 0) scale(0.996264)"/>
       <use xlink:href="#CMR17-6e" transform="translate(418.349205 0) scale(0.996264)"/>
       <use xlink:href="#CMR17-6f" transform="translate(469.244575 0) scale(0.996264)"/>
       <use xlink:href="#CMR17-b" transform="translate(514.935052 0) scale(0.996264)"/>
       <use xlink:href="#CMR17-76" transform="translate(597.355696 0) scale(0.996264)"/>
       <use xlink:href="#CMR17-6f" transform="translate(643.046157 0) scale(0.996264)"/>
       <use xlink:href="#CMR17-74" transform="translate(688.736635 0) scale(0.996264)"/>
       <use xlink:href="#CMR17-69" transform="translate(724.017402 0) scale(0.996264)"/>
       <use xlink:href="#CMR17-6e" transform="translate(748.888461 0) scale(0.996264)"/>
       <use xlink:href="#CMR17-67" transform="translate(799.783831 0) scale(0.996264)"/>
      </g>
     </g>
    </g>
    <g id="text_6">
     <!-- Number of voters -->
     <g transform="translate(328.442607 414.361688) scale(0.13 -0.13)">
      <defs>
       <path id="CMR17-4e" d="M 1312 4250 
C 1267 4320 1261 4320 1139 4320 
L 326 4320 
L 326 4160 
L 448 4160 
C 704 4160 819 4129 838 4122 
L 838 610 
C 838 451 838 153 326 153 
L 326 -13 
C 474 0 742 0 902 0 
C 1062 0 1331 0 1478 -13 
L 1478 153 
C 966 153 966 451 966 610 
L 966 4033 
C 1011 3995 1011 3982 1056 3919 
L 3430 76 
C 3475 0 3494 0 3526 0 
C 3590 0 3590 19 3590 139 
L 3590 3705 
C 3590 3863 3590 4160 4102 4160 
L 4102 4326 
C 3955 4320 3686 4320 3526 4320 
C 3366 4320 3098 4320 2950 4326 
L 2950 4160 
C 3462 4160 3462 3862 3462 3703 
L 3462 763 
L 1312 4250 
z
" transform="scale(0.015625)"/>
       <path id="CMR17-6d" d="M 4326 1933 
C 4326 2252 4269 2790 3507 2790 
C 3072 2790 2771 2496 2656 2151 
L 2650 2151 
C 2573 2676 2195 2790 1837 2790 
C 1331 2790 1069 2400 973 2144 
L 966 2144 
L 966 2790 
L 211 2720 
L 211 2554 
C 589 2554 646 2515 646 2208 
L 646 428 
C 646 184 621 153 211 153 
L 211 -13 
C 365 0 646 0 813 0 
C 979 0 1267 0 1421 -13 
L 1421 153 
C 1011 153 986 178 986 428 
L 986 1658 
C 986 2247 1344 2688 1792 2688 
C 2266 2688 2317 2266 2317 1958 
L 2317 428 
C 2317 184 2291 153 1882 153 
L 1882 -13 
C 2035 0 2317 0 2483 0 
C 2650 0 2938 0 3091 -13 
L 3091 153 
C 2682 153 2656 178 2656 428 
L 2656 1658 
C 2656 2247 3014 2688 3462 2688 
C 3936 2688 3987 2266 3987 1958 
L 3987 428 
C 3987 184 3962 153 3552 153 
L 3552 -13 
C 3706 0 3987 0 4154 0 
C 4320 0 4608 0 4762 -13 
L 4762 153 
C 4352 153 4326 178 4326 428 
L 4326 1933 
z
" transform="scale(0.015625)"/>
       <path id="CMR17-62" d="M 960 4396 
L 198 4326 
L 198 4160 
C 576 4160 634 4122 634 3817 
L 634 -13 
L 749 -13 
L 934 441 
C 1120 141 1395 -64 1766 -64 
C 2406 -64 3053 500 3053 1370 
C 3053 2188 2477 2790 1830 2790 
C 1434 2790 1152 2579 960 2330 
L 960 4396 
z
M 973 2004 
C 973 2118 973 2138 1062 2272 
C 1312 2657 1670 2688 1792 2688 
C 1984 2688 2643 2585 2643 1376 
C 2643 108 1888 38 1734 38 
C 1536 38 1248 114 1043 486 
C 973 608 973 621 973 735 
L 973 2004 
z
" transform="scale(0.015625)"/>
       <path id="CMR17-66" d="M 979 2560 
L 1709 2560 
L 1709 2725 
L 966 2725 
L 966 3494 
C 966 4022 1235 4352 1510 4352 
C 1594 4352 1690 4327 1754 4282 
C 1702 4269 1568 4225 1568 4067 
C 1568 3901 1696 3850 1786 3850 
C 1875 3850 2003 3901 2003 4067 
C 2003 4308 1773 4454 1517 4454 
C 1152 4454 653 4156 653 3481 
L 653 2725 
L 141 2725 
L 141 2560 
L 653 2560 
L 653 427 
C 653 184 627 153 218 153 
L 218 -13 
C 371 0 666 0 832 0 
C 1018 0 1344 0 1517 -13 
L 1517 153 
C 1056 153 979 153 979 439 
L 979 2560 
z
" transform="scale(0.015625)"/>
      </defs>
      <use xlink:href="#CMR17-4e" transform="scale(0.996264)"/>
      <use xlink:href="#CMR17-75" transform="translate(69.07243 0) scale(0.996264)"/>
      <use xlink:href="#CMR17-6d" transform="translate(119.9678 0) scale(0.996264)"/>
      <use xlink:href="#CMR17-62" transform="translate(194.284936 0) scale(0.996264)"/>
      <use xlink:href="#CMR17-65" transform="translate(247.782744 0) scale(0.996264)"/>
      <use xlink:href="#CMR17-72" transform="translate(288.268404 0) scale(0.996264)"/>
      <use xlink:href="#CMR17-6f" transform="translate(353.625139 0) scale(0.996264)"/>
      <use xlink:href="#CMR17-66" transform="translate(399.315616 0) scale(0.996264)"/>
      <use xlink:href="#CMR17-76" transform="translate(456.865095 0) scale(0.996264)"/>
      <use xlink:href="#CMR17-6f" transform="translate(502.555556 0) scale(0.996264)"/>
      <use xlink:href="#CMR17-74" transform="translate(548.246034 0) scale(0.996264)"/>
      <use xlink:href="#CMR17-65" transform="translate(583.526801 0) scale(0.996264)"/>
      <use xlink:href="#CMR17-72" transform="translate(624.012462 0) scale(0.996264)"/>
      <use xlink:href="#CMR17-73" transform="translate(659.29323 0) scale(0.996264)"/>
     </g>
    </g>
   </g>
   <g id="matplotlib.axis_2">
    <g id="ytick_1">
     <g id="line2d_6">
      <path d="M 48.591275 376.993377 
L 704.88 376.993377 
" clip-path="url(#p41e8e72f59)" style="fill: none; stroke: #b0b0b0; stroke-opacity: 0.3; stroke-linecap: square"/>
     </g>
     <g id="line2d_7">
      <defs>
       <path id="m02a9a98b2c" d="M 0 0 
L -3.5 0 
" style="stroke: #000000; stroke-width: 0.8"/>
      </defs>
      <g>
       <use xlink:href="#m02a9a98b2c" x="48.591275" y="376.993377" style="stroke: #000000; stroke-width: 0.8"/>
      </g>
     </g>
     <g id="text_7">
      <!-- $\mathdefault{0}$ -->
      <g transform="translate(36.111807 380.79855) scale(0.11 -0.11)">
       <defs>
        <path id="CMR17-30" d="M 2688 2025 
C 2688 2416 2682 3080 2413 3591 
C 2176 4039 1798 4198 1466 4198 
C 1158 4198 768 4058 525 3597 
C 269 3118 243 2524 243 2025 
C 243 1661 250 1106 448 619 
C 723 -39 1216 -128 1466 -128 
C 1760 -128 2208 -7 2470 600 
C 2662 1042 2688 1559 2688 2025 
z
M 1466 -26 
C 1056 -26 813 325 723 812 
C 653 1188 653 1738 653 2096 
C 653 2588 653 2997 736 3387 
C 858 3929 1216 4096 1466 4096 
C 1728 4096 2067 3923 2189 3400 
C 2272 3036 2278 2607 2278 2096 
C 2278 1680 2278 1169 2202 792 
C 2067 95 1690 -26 1466 -26 
z
" transform="scale(0.015625)"/>
       </defs>
       <use xlink:href="#CMR17-30" transform="scale(0.996264)"/>
      </g>
     </g>
    </g>
    <g id="ytick_2">
     <g id="line2d_8">
      <path d="M 48.591275 334.587588 
L 704.88 334.587588 
" clip-path="url(#p41e8e72f59)" style="fill: none; stroke: #b0b0b0; stroke-opacity: 0.3; stroke-linecap: square"/>
     </g>
     <g id="line2d_9">
      <g>
       <use xlink:href="#m02a9a98b2c" x="48.591275" y="334.587588" style="stroke: #000000; stroke-width: 0.8"/>
      </g>
     </g>
     <g id="text_8">
      <!-- $\mathdefault{5}$ -->
      <g transform="translate(36.111807 338.392762) scale(0.11 -0.11)">
       <defs>
        <path id="CMR17-35" d="M 730 3692 
C 794 3666 1056 3584 1325 3584 
C 1920 3584 2246 3911 2432 4100 
C 2432 4157 2432 4192 2394 4192 
C 2387 4192 2374 4192 2323 4163 
C 2099 4058 1837 3973 1517 3973 
C 1325 3973 1037 3999 723 4139 
C 653 4171 640 4171 634 4171 
C 602 4171 595 4164 595 4037 
L 595 2203 
C 595 2089 595 2057 659 2057 
C 691 2057 704 2070 736 2114 
C 941 2401 1222 2522 1542 2522 
C 1766 2522 2246 2382 2246 1289 
C 2246 1085 2246 715 2054 421 
C 1894 159 1645 25 1370 25 
C 947 25 518 320 403 814 
C 429 807 480 795 506 795 
C 589 795 749 840 749 1038 
C 749 1210 627 1280 506 1280 
C 358 1280 262 1190 262 1011 
C 262 454 704 -128 1382 -128 
C 2042 -128 2669 440 2669 1264 
C 2669 2030 2170 2624 1549 2624 
C 1222 2624 947 2503 730 2274 
L 730 3692 
z
" transform="scale(0.015625)"/>
       </defs>
       <use xlink:href="#CMR17-35" transform="scale(0.996264)"/>
      </g>
     </g>
    </g>
    <g id="ytick_3">
     <g id="line2d_10">
      <path d="M 48.591275 292.1818 
L 704.88 292.1818 
" clip-path="url(#p41e8e72f59)" style="fill: none; stroke: #b0b0b0; stroke-opacity: 0.3; stroke-linecap: square"/>
     </g>
     <g id="line2d_11">
      <g>
       <use xlink:href="#m02a9a98b2c" x="48.591275" y="292.1818" style="stroke: #000000; stroke-width: 0.8"/>
      </g>
     </g>
     <g id="text_9">
      <!-- $\mathdefault{10}$ -->
      <g transform="translate(30.63234 295.986973) scale(0.11 -0.11)">
       <defs>
        <path id="CMR17-31" d="M 1702 4058 
C 1702 4192 1696 4192 1606 4192 
C 1357 3916 979 3827 621 3827 
C 602 3827 570 3827 563 3808 
C 557 3795 557 3782 557 3648 
C 755 3648 1088 3686 1344 3839 
L 1344 461 
C 1344 236 1331 160 781 160 
L 589 160 
L 589 0 
C 896 0 1216 0 1523 0 
C 1830 0 2150 0 2458 0 
L 2458 160 
L 2266 160 
C 1715 160 1702 230 1702 458 
L 1702 4058 
z
" transform="scale(0.015625)"/>
       </defs>
       <use xlink:href="#CMR17-31" transform="scale(0.996264)"/>
       <use xlink:href="#CMR17-30" transform="translate(45.690477 0) scale(0.996264)"/>
      </g>
     </g>
    </g>
    <g id="ytick_4">
     <g id="line2d_12">
      <path d="M 48.591275 249.776012 
L 704.88 249.776012 
" clip-path="url(#p41e8e72f59)" style="fill: none; stroke: #b0b0b0; stroke-opacity: 0.3; stroke-linecap: square"/>
     </g>
     <g id="line2d_13">
      <g>
       <use xlink:href="#m02a9a98b2c" x="48.591275" y="249.776012" style="stroke: #000000; stroke-width: 0.8"/>
      </g>
     </g>
     <g id="text_10">
      <!-- $\mathdefault{15}$ -->
      <g transform="translate(30.63234 253.581185) scale(0.11 -0.11)">
       <use xlink:href="#CMR17-31" transform="scale(0.996264)"/>
       <use xlink:href="#CMR17-35" transform="translate(45.690477 0) scale(0.996264)"/>
      </g>
     </g>
    </g>
    <g id="ytick_5">
     <g id="line2d_14">
      <path d="M 48.591275 207.370223 
L 704.88 207.370223 
" clip-path="url(#p41e8e72f59)" style="fill: none; stroke: #b0b0b0; stroke-opacity: 0.3; stroke-linecap: square"/>
     </g>
     <g id="line2d_15">
      <g>
       <use xlink:href="#m02a9a98b2c" x="48.591275" y="207.370223" style="stroke: #000000; stroke-width: 0.8"/>
      </g>
     </g>
     <g id="text_11">
      <!-- $\mathdefault{20}$ -->
      <g transform="translate(30.63234 211.175397) scale(0.11 -0.11)">
       <defs>
        <path id="CMR17-32" d="M 2669 989 
L 2554 989 
C 2490 536 2438 459 2413 420 
C 2381 369 1920 369 1830 369 
L 602 369 
C 832 619 1280 1072 1824 1597 
C 2214 1967 2669 2402 2669 3035 
C 2669 3790 2067 4224 1395 4224 
C 691 4224 262 3604 262 3030 
C 262 2780 448 2748 525 2748 
C 589 2748 781 2787 781 3010 
C 781 3207 614 3264 525 3264 
C 486 3264 448 3258 422 3245 
C 544 3790 915 4058 1306 4058 
C 1862 4058 2227 3617 2227 3035 
C 2227 2479 1901 2000 1536 1584 
L 262 146 
L 262 0 
L 2515 0 
L 2669 989 
z
" transform="scale(0.015625)"/>
       </defs>
       <use xlink:href="#CMR17-32" transform="scale(0.996264)"/>
       <use xlink:href="#CMR17-30" transform="translate(45.690477 0) scale(0.996264)"/>
      </g>
     </g>
    </g>
    <g id="ytick_6">
     <g id="line2d_16">
      <path d="M 48.591275 164.964435 
L 704.88 164.964435 
" clip-path="url(#p41e8e72f59)" style="fill: none; stroke: #b0b0b0; stroke-opacity: 0.3; stroke-linecap: square"/>
     </g>
     <g id="line2d_17">
      <g>
       <use xlink:href="#m02a9a98b2c" x="48.591275" y="164.964435" style="stroke: #000000; stroke-width: 0.8"/>
      </g>
     </g>
     <g id="text_12">
      <!-- $\mathdefault{25}$ -->
      <g transform="translate(30.63234 168.769608) scale(0.11 -0.11)">
       <use xlink:href="#CMR17-32" transform="scale(0.996264)"/>
       <use xlink:href="#CMR17-35" transform="translate(45.690477 0) scale(0.996264)"/>
      </g>
     </g>
    </g>
    <g id="ytick_7">
     <g id="line2d_18">
      <path d="M 48.591275 122.558647 
L 704.88 122.558647 
" clip-path="url(#p41e8e72f59)" style="fill: none; stroke: #b0b0b0; stroke-opacity: 0.3; stroke-linecap: square"/>
     </g>
     <g id="line2d_19">
      <g>
       <use xlink:href="#m02a9a98b2c" x="48.591275" y="122.558647" style="stroke: #000000; stroke-width: 0.8"/>
      </g>
     </g>
     <g id="text_13">
      <!-- $\mathdefault{30}$ -->
      <g transform="translate(30.63234 126.36382) scale(0.11 -0.11)">
       <defs>
        <path id="CMR17-33" d="M 1414 2157 
C 1984 2157 2234 1662 2234 1090 
C 2234 320 1824 25 1453 25 
C 1114 25 563 194 390 693 
C 422 680 454 680 486 680 
C 640 680 755 782 755 948 
C 755 1133 614 1216 486 1216 
C 378 1216 211 1165 211 926 
C 211 335 787 -128 1466 -128 
C 2176 -128 2720 430 2720 1085 
C 2720 1707 2208 2157 1600 2227 
C 2086 2328 2554 2756 2554 3329 
C 2554 3820 2048 4179 1472 4179 
C 890 4179 378 3829 378 3329 
C 378 3110 544 3072 627 3072 
C 762 3072 877 3155 877 3321 
C 877 3486 762 3569 627 3569 
C 602 3569 570 3569 544 3557 
C 730 3959 1235 4032 1459 4032 
C 1683 4032 2106 3925 2106 3320 
C 2106 3143 2080 2828 1862 2550 
C 1670 2304 1453 2304 1242 2284 
C 1210 2284 1062 2269 1037 2269 
C 992 2263 966 2257 966 2208 
C 966 2163 973 2157 1101 2157 
L 1414 2157 
z
" transform="scale(0.015625)"/>
       </defs>
       <use xlink:href="#CMR17-33" transform="scale(0.996264)"/>
       <use xlink:href="#CMR17-30" transform="translate(45.690477 0) scale(0.996264)"/>
      </g>
     </g>
    </g>
    <g id="ytick_8">
     <g id="line2d_20">
      <path d="M 48.591275 80.152858 
L 704.88 80.152858 
" clip-path="url(#p41e8e72f59)" style="fill: none; stroke: #b0b0b0; stroke-opacity: 0.3; stroke-linecap: square"/>
     </g>
     <g id="line2d_21">
      <g>
       <use xlink:href="#m02a9a98b2c" x="48.591275" y="80.152858" style="stroke: #000000; stroke-width: 0.8"/>
      </g>
     </g>
     <g id="text_14">
      <!-- $\mathdefault{35}$ -->
      <g transform="translate(30.63234 83.958032) scale(0.11 -0.11)">
       <use xlink:href="#CMR17-33" transform="scale(0.996264)"/>
       <use xlink:href="#CMR17-35" transform="translate(45.690477 0) scale(0.996264)"/>
      </g>
     </g>
    </g>
    <g id="ytick_9">
     <g id="line2d_22">
      <path d="M 48.591275 37.74707 
L 704.88 37.74707 
" clip-path="url(#p41e8e72f59)" style="fill: none; stroke: #b0b0b0; stroke-opacity: 0.3; stroke-linecap: square"/>
     </g>
     <g id="line2d_23">
      <g>
       <use xlink:href="#m02a9a98b2c" x="48.591275" y="37.74707" style="stroke: #000000; stroke-width: 0.8"/>
      </g>
     </g>
     <g id="text_15">
      <!-- $\mathdefault{40}$ -->
      <g transform="translate(30.63234 41.552243) scale(0.11 -0.11)">
       <defs>
        <path id="CMR17-34" d="M 2150 4122 
C 2150 4256 2144 4256 2029 4256 
L 128 1254 
L 128 1088 
L 1779 1088 
L 1779 457 
C 1779 224 1766 160 1318 160 
L 1197 160 
L 1197 0 
C 1402 0 1747 0 1965 0 
C 2182 0 2528 0 2733 0 
L 2733 160 
L 2611 160 
C 2163 160 2150 224 2150 457 
L 2150 1088 
L 2803 1088 
L 2803 1254 
L 2150 1254 
L 2150 4122 
z
M 1798 3703 
L 1798 1254 
L 256 1254 
L 1798 3703 
z
" transform="scale(0.015625)"/>
       </defs>
       <use xlink:href="#CMR17-34" transform="scale(0.996264)"/>
       <use xlink:href="#CMR17-30" transform="translate(45.690477 0) scale(0.996264)"/>
      </g>
     </g>
    </g>
    <g id="text_16">
     <!-- Distortion -->
     <g transform="translate(24.114028 235.497321) rotate(-90) scale(0.13 -0.13)">
      <defs>
       <path id="CMR17-44" d="M 333 4352 
L 333 4186 
C 774 4186 845 4186 845 3900 
L 845 452 
C 845 166 774 166 333 166 
L 333 0 
L 2368 0 
C 3398 0 4224 943 4224 2141 
C 4224 3346 3411 4352 2368 4352 
L 333 4352 
z
M 1523 166 
C 1267 166 1254 197 1254 414 
L 1254 3938 
C 1254 4155 1267 4186 1523 4186 
L 2240 4186 
C 2771 4186 3750 3874 3750 2141 
C 3750 1242 3488 879 3366 707 
C 3213 510 2848 166 2240 166 
L 1523 166 
z
" transform="scale(0.015625)"/>
      </defs>
      <use xlink:href="#CMR17-44" transform="scale(0.996264)"/>
      <use xlink:href="#CMR17-69" transform="translate(70.393556 0) scale(0.996264)"/>
      <use xlink:href="#CMR17-73" transform="translate(95.264614 0) scale(0.996264)"/>
      <use xlink:href="#CMR17-74" transform="translate(131.065952 0) scale(0.996264)"/>
      <use xlink:href="#CMR17-6f" transform="translate(166.34672 0) scale(0.996264)"/>
      <use xlink:href="#CMR17-72" transform="translate(212.037197 0) scale(0.996264)"/>
      <use xlink:href="#CMR17-74" transform="translate(247.317965 0) scale(0.996264)"/>
      <use xlink:href="#CMR17-69" transform="translate(282.598733 0) scale(0.996264)"/>
      <use xlink:href="#CMR17-6f" transform="translate(307.469791 0) scale(0.996264)"/>
      <use xlink:href="#CMR17-6e" transform="translate(353.160268 0) scale(0.996264)"/>
     </g>
    </g>
   </g>
   <g id="LineCollection_1">
    <path d="M 94.995528 355.80068 
L 128.141423 355.80068 
" clip-path="url(#p41e8e72f59)" style="fill: none; stroke: #1f77b4; stroke-width: 1.5"/>
    <path d="M 227.579109 355.254673 
L 260.725004 355.254673 
" clip-path="url(#p41e8e72f59)" style="fill: none; stroke: #1f77b4; stroke-width: 1.5"/>
    <path d="M 360.16269 345.915722 
L 393.308585 345.915722 
" clip-path="url(#p41e8e72f59)" style="fill: none; stroke: #1f77b4; stroke-width: 1.5"/>
    <path d="M 492.746271 362.333257 
L 525.892166 362.333257 
" clip-path="url(#p41e8e72f59)" style="fill: none; stroke: #1f77b4; stroke-width: 1.5"/>
    <path d="M 625.329851 353.840891 
L 658.475747 353.840891 
" clip-path="url(#p41e8e72f59)" style="fill: none; stroke: #1f77b4; stroke-width: 1.5"/>
   </g>
   <g id="LineCollection_2">
    <path d="M 94.995528 156.483277 
L 128.141423 156.483277 
" clip-path="url(#p41e8e72f59)" style="fill: none; stroke: #1f77b4; stroke-width: 1.5"/>
    <path d="M 227.579109 198.889066 
L 260.725004 198.889066 
" clip-path="url(#p41e8e72f59)" style="fill: none; stroke: #1f77b4; stroke-width: 1.5"/>
    <path d="M 360.16269 114.077489 
L 393.308585 114.077489 
" clip-path="url(#p41e8e72f59)" style="fill: none; stroke: #1f77b4; stroke-width: 1.5"/>
    <path d="M 492.746271 295.008852 
L 525.892166 295.008852 
" clip-path="url(#p41e8e72f59)" style="fill: none; stroke: #1f77b4; stroke-width: 1.5"/>
    <path d="M 625.329851 46.228228 
L 658.475747 46.228228 
" clip-path="url(#p41e8e72f59)" style="fill: none; stroke: #1f77b4; stroke-width: 1.5"/>
   </g>
   <g id="LineCollection_3">
    <path d="M 94.995528 368.512219 
L 128.141423 368.512219 
" clip-path="url(#p41e8e72f59)" style="fill: none; stroke: #1f77b4; stroke-width: 1.5"/>
    <path d="M 227.579109 368.512219 
L 260.725004 368.512219 
" clip-path="url(#p41e8e72f59)" style="fill: none; stroke: #1f77b4; stroke-width: 1.5"/>
    <path d="M 360.16269 368.512219 
L 393.308585 368.512219 
" clip-path="url(#p41e8e72f59)" style="fill: none; stroke: #1f77b4; stroke-width: 1.5"/>
    <path d="M 492.746271 368.512219 
L 525.892166 368.512219 
" clip-path="url(#p41e8e72f59)" style="fill: none; stroke: #1f77b4; stroke-width: 1.5"/>
    <path d="M 625.329851 368.512219 
L 658.475747 368.512219 
" clip-path="url(#p41e8e72f59)" style="fill: none; stroke: #1f77b4; stroke-width: 1.5"/>
   </g>
   <g id="LineCollection_4">
    <path d="M 111.568476 368.512219 
L 111.568476 156.483277 
" clip-path="url(#p41e8e72f59)" style="fill: none; stroke: #1f77b4; stroke-width: 1.5"/>
    <path d="M 244.152056 368.512219 
L 244.152056 198.889066 
" clip-path="url(#p41e8e72f59)" style="fill: none; stroke: #1f77b4; stroke-width: 1.5"/>
    <path d="M 376.735637 368.512219 
L 376.735637 114.077489 
" clip-path="url(#p41e8e72f59)" style="fill: none; stroke: #1f77b4; stroke-width: 1.5"/>
    <path d="M 509.319218 368.512219 
L 509.319218 295.008852 
" clip-path="url(#p41e8e72f59)" style="fill: none; stroke: #1f77b4; stroke-width: 1.5"/>
    <path d="M 641.902799 368.512219 
L 641.902799 46.228228 
" clip-path="url(#p41e8e72f59)" style="fill: none; stroke: #1f77b4; stroke-width: 1.5"/>
   </g>
   <g id="patch_3">
    <path d="M 48.591275 384.626418 
L 48.591275 30.114028 
" style="fill: none; stroke: #000000; stroke-linejoin: miter; stroke-linecap: square"/>
   </g>
   <g id="patch_4">
    <path d="M 704.88 384.626418 
L 704.88 30.114028 
" style="fill: none; stroke: #000000; stroke-linejoin: miter; stroke-linecap: square"/>
   </g>
   <g id="patch_5">
    <path d="M 48.591275 384.626418 
L 704.88 384.626418 
" style="fill: none; stroke: #000000; stroke-linejoin: miter; stroke-linecap: square"/>
   </g>
   <g id="patch_6">
    <path d="M 48.591275 30.114028 
L 704.88 30.114028 
" style="fill: none; stroke: #000000; stroke-linejoin: miter; stroke-linecap: square"/>
   </g>
   <g id="text_17">
    <!-- Distortion Under Rawlsian -->
    <g transform="translate(302.342128 24.114028) scale(0.13 -0.13)">
     <defs>
      <path id="CMR17-55" d="M 3456 1433 
C 3456 579 2899 38 2291 38 
C 1965 38 1670 210 1491 477 
C 1286 783 1261 1178 1261 1401 
L 1261 3874 
C 1261 4160 1331 4160 1773 4160 
L 1773 4320 
C 1587 4320 1248 4320 1050 4320 
C 851 4320 512 4320 326 4320 
L 326 4160 
C 768 4160 838 4160 838 3874 
L 838 1433 
C 838 516 1536 -128 2278 -128 
C 3110 -128 3590 719 3590 1344 
L 3590 3766 
C 3590 4122 3917 4160 4102 4160 
L 4102 4326 
C 3955 4320 3686 4320 3526 4320 
C 3366 4320 3091 4320 2944 4326 
L 2944 4160 
C 3456 4160 3456 3861 3456 3702 
L 3456 1433 
z
" transform="scale(0.015625)"/>
      <path id="CMR17-77" d="M 3725 2183 
C 3853 2560 4109 2560 4205 2560 
L 4205 2732 
C 4077 2732 3949 2732 3821 2732 
C 3699 2732 3424 2732 3315 2738 
L 3315 2560 
C 3514 2560 3622 2445 3622 2286 
C 3622 2241 3610 2184 3597 2140 
L 2995 407 
L 2342 2275 
C 2330 2319 2310 2370 2310 2395 
C 2310 2560 2528 2560 2630 2560 
L 2630 2738 
C 2483 2732 2214 2732 2061 2732 
C 1901 2732 1734 2732 1587 2738 
L 1587 2560 
C 1939 2560 1939 2547 2074 2149 
L 1485 451 
L 851 2281 
C 819 2363 819 2376 819 2395 
C 819 2560 1037 2560 1139 2560 
L 1139 2738 
C 986 2732 717 2732 557 2732 
C 416 2732 198 2732 64 2738 
L 64 2560 
C 346 2560 416 2541 486 2331 
L 1274 49 
C 1299 -33 1318 -52 1370 -52 
C 1414 -52 1440 -39 1472 56 
L 2131 1980 
L 2797 56 
C 2829 -39 2854 -52 2899 -52 
C 2950 -52 2970 -33 2995 50 
L 3725 2183 
z
" transform="scale(0.015625)"/>
     </defs>
     <use xlink:href="#CMR17-44" transform="scale(0.996264)"/>
     <use xlink:href="#CMR17-69" transform="translate(70.393556 0) scale(0.996264)"/>
     <use xlink:href="#CMR17-73" transform="translate(95.264614 0) scale(0.996264)"/>
     <use xlink:href="#CMR17-74" transform="translate(131.065952 0) scale(0.996264)"/>
     <use xlink:href="#CMR17-6f" transform="translate(166.34672 0) scale(0.996264)"/>
     <use xlink:href="#CMR17-72" transform="translate(212.037197 0) scale(0.996264)"/>
     <use xlink:href="#CMR17-74" transform="translate(247.317965 0) scale(0.996264)"/>
     <use xlink:href="#CMR17-69" transform="translate(282.598733 0) scale(0.996264)"/>
     <use xlink:href="#CMR17-6f" transform="translate(307.469791 0) scale(0.996264)"/>
     <use xlink:href="#CMR17-6e" transform="translate(353.160268 0) scale(0.996264)"/>
     <use xlink:href="#CMR17-55" transform="translate(434.131604 0) scale(0.996264)"/>
     <use xlink:href="#CMR17-6e" transform="translate(503.204034 0) scale(0.996264)"/>
     <use xlink:href="#CMR17-64" transform="translate(554.099404 0) scale(0.996264)"/>
     <use xlink:href="#CMR17-65" transform="translate(604.994774 0) scale(0.996264)"/>
     <use xlink:href="#CMR17-72" transform="translate(645.480434 0) scale(0.996264)"/>
     <use xlink:href="#CMR17-52" transform="translate(710.837168 0) scale(0.996264)"/>
     <use xlink:href="#CMR17-61" transform="translate(778.62827 0) scale(0.996264)"/>
     <use xlink:href="#CMR17-77" transform="translate(821.716293 0) scale(0.996264)"/>
     <use xlink:href="#CMR17-6c" transform="translate(888.226174 0) scale(0.996264)"/>
     <use xlink:href="#CMR17-73" transform="translate(913.097232 0) scale(0.996264)"/>
     <use xlink:href="#CMR17-69" transform="translate(948.89857 0) scale(0.996264)"/>
     <use xlink:href="#CMR17-61" transform="translate(973.769629 0) scale(0.996264)"/>
     <use xlink:href="#CMR17-6e" transform="translate(1019.460106 0) scale(0.996264)"/>
    </g>
   </g>
  </g>
 </g>
 <defs>
  <clipPath id="p41e8e72f59">
   <rect x="48.591275" y="30.114028" width="656.288725" height="354.51239"/>
  </clipPath>
 </defs>
</svg>
