<?xml version="1.0" encoding="utf-8" standalone="no"?>
<!DOCTYPE svg PUBLIC "-//W3C//DTD SVG 1.1//EN"
  "http://www.w3.org/Graphics/SVG/1.1/DTD/svg11.dtd">
<svg xmlns:xlink="http://www.w3.org/1999/xlink" width="720pt" height="432pt" viewBox="0 0 720 432" xmlns="http://www.w3.org/2000/svg" version="1.1">
 <metadata>
  <rdf:RDF xmlns:dc="http://purl.org/dc/elements/1.1/" xmlns:cc="http://creativecommons.org/ns#" xmlns:rdf="http://www.w3.org/1999/02/22-rdf-syntax-ns#">
   <cc:Work>
    <dc:type rdf:resource="http://purl.org/dc/dcmitype/StillImage"/>
    <dc:date>2024-12-13T17:49:38.673307</dc:date>
    <dc:format>image/svg+xml</dc:format>
    <dc:creator>
     <cc:Agent>
      <dc:title>Matplotlib v3.9.2, https://matplotlib.org/</dc:title>
     </cc:Agent>
    </dc:creator>
   </cc:Work>
  </rdf:RDF>
 </metadata>
 <defs>
  <style type="text/css">*{stroke-linejoin: round; stroke-linecap: butt}</style>
 </defs>
 <g id="figure_1">
  <g id="patch_1">
   <path d="M 0 432 
L 720 432 
L 720 0 
L 0 0 
z
" style="fill: #ffffff"/>
  </g>
  <g id="axes_1">
   <g id="patch_2">
    <path d="M 51.635416 384.626418 
L 704.88 384.626418 
L 704.88 30.114028 
L 51.635416 30.114028 
z
" style="fill: #ffffff"/>
   </g>
   <g id="PolyCollection_1">
    <defs>
     <path id="m4fda62a86d" d="M 147.312653 -63.487781 
L 81.328352 -63.487781 
L 81.815394 -65.777006 
L 83.718687 -68.06623 
L 86.749767 -70.355455 
L 90.493263 -72.644679 
L 94.494627 -74.933904 
L 98.34486 -77.223129 
L 101.741312 -79.512353 
L 104.514182 -81.801578 
L 106.620165 -84.090802 
L 108.113251 -86.380027 
L 109.105883 -88.669251 
L 109.731995 -90.958476 
L 110.118989 -93.247701 
L 110.37105 -95.536925 
L 110.562682 -97.82615 
L 110.739746 -100.115374 
L 110.924907 -102.404599 
L 111.124897 -104.693823 
L 111.337637 -106.983048 
L 111.557965 -109.272273 
L 111.781295 -111.561497 
L 112.005147 -113.850722 
L 112.22897 -116.139946 
L 112.452995 -118.429171 
L 112.676917 -120.718395 
L 112.899001 -123.00762 
L 113.115875 -125.296845 
L 113.322965 -127.586069 
L 113.515294 -129.875294 
L 113.688362 -132.164518 
L 113.838845 -134.453743 
L 113.96502 -136.742967 
L 114.066859 -139.032192 
L 114.145855 -141.321417 
L 114.204658 -143.610641 
L 114.2466 -145.899866 
L 114.275226 -148.18909 
L 114.293899 -150.478315 
L 114.305528 -152.767539 
L 114.312436 -155.056764 
L 114.316348 -157.345989 
L 114.318458 -159.635213 
L 114.319542 -161.924438 
L 114.320072 -164.213662 
L 114.320318 -166.502887 
L 114.320427 -168.792111 
L 114.320473 -171.081336 
L 114.320492 -173.370561 
L 114.320499 -175.659785 
L 114.320501 -177.94901 
L 114.320502 -180.238234 
L 114.320503 -182.527459 
L 114.320503 -184.816684 
L 114.320503 -187.105908 
L 114.320503 -189.395133 
L 114.320503 -191.684357 
L 114.320503 -193.973582 
L 114.320503 -196.262806 
L 114.320503 -198.552031 
L 114.320503 -200.841256 
L 114.320503 -203.13048 
L 114.320503 -205.419705 
L 114.320503 -207.708929 
L 114.320503 -209.998154 
L 114.320503 -212.287378 
L 114.320503 -214.576603 
L 114.320503 -216.865828 
L 114.320503 -219.155052 
L 114.320503 -221.444277 
L 114.320503 -223.733501 
L 114.320503 -226.022726 
L 114.320503 -228.31195 
L 114.320503 -230.601175 
L 114.320503 -232.8904 
L 114.320502 -235.179624 
L 114.320502 -237.468849 
L 114.3205 -239.758073 
L 114.320494 -242.047298 
L 114.32048 -244.336522 
L 114.320443 -246.625747 
L 114.320356 -248.914972 
L 114.32016 -251.204196 
L 114.319736 -253.493421 
L 114.31887 -255.782645 
L 114.317192 -258.07187 
L 114.314109 -260.361094 
L 114.308743 -262.650319 
L 114.299903 -264.939544 
L 114.286134 -267.228768 
L 114.265892 -269.517993 
L 114.237855 -271.807217 
L 114.201376 -274.096442 
L 114.156964 -276.385666 
L 114.106678 -278.674891 
L 114.05423 -280.964116 
L 114.004695 -283.25334 
L 113.963764 -285.542565 
L 113.936702 -287.831789 
L 113.927233 -290.121014 
L 114.713773 -290.121014 
L 114.713773 -290.121014 
L 114.704303 -287.831789 
L 114.677241 -285.542565 
L 114.636311 -283.25334 
L 114.586775 -280.964116 
L 114.534328 -278.674891 
L 114.484041 -276.385666 
L 114.43963 -274.096442 
L 114.403151 -271.807217 
L 114.375114 -269.517993 
L 114.354871 -267.228768 
L 114.341103 -264.939544 
L 114.332263 -262.650319 
L 114.326897 -260.361094 
L 114.323814 -258.07187 
L 114.322136 -255.782645 
L 114.32127 -253.493421 
L 114.320846 -251.204196 
L 114.320649 -248.914972 
L 114.320562 -246.625747 
L 114.320526 -244.336522 
L 114.320511 -242.047298 
L 114.320506 -239.758073 
L 114.320504 -237.468849 
L 114.320503 -235.179624 
L 114.320503 -232.8904 
L 114.320503 -230.601175 
L 114.320503 -228.31195 
L 114.320503 -226.022726 
L 114.320503 -223.733501 
L 114.320503 -221.444277 
L 114.320503 -219.155052 
L 114.320503 -216.865828 
L 114.320503 -214.576603 
L 114.320503 -212.287378 
L 114.320503 -209.998154 
L 114.320503 -207.708929 
L 114.320503 -205.419705 
L 114.320503 -203.13048 
L 114.320503 -200.841256 
L 114.320503 -198.552031 
L 114.320503 -196.262806 
L 114.320503 -193.973582 
L 114.320503 -191.684357 
L 114.320503 -189.395133 
L 114.320503 -187.105908 
L 114.320503 -184.816684 
L 114.320503 -182.527459 
L 114.320503 -180.238234 
L 114.320504 -177.94901 
L 114.320507 -175.659785 
L 114.320514 -173.370561 
L 114.320532 -171.081336 
L 114.320578 -168.792111 
L 114.320687 -166.502887 
L 114.320934 -164.213662 
L 114.321464 -161.924438 
L 114.322547 -159.635213 
L 114.324658 -157.345989 
L 114.328569 -155.056764 
L 114.335477 -152.767539 
L 114.347107 -150.478315 
L 114.36578 -148.18909 
L 114.394406 -145.899866 
L 114.436347 -143.610641 
L 114.49515 -141.321417 
L 114.574147 -139.032192 
L 114.675985 -136.742967 
L 114.80216 -134.453743 
L 114.952644 -132.164518 
L 115.125711 -129.875294 
L 115.318041 -127.586069 
L 115.525131 -125.296845 
L 115.742005 -123.00762 
L 115.964089 -120.718395 
L 116.188011 -118.429171 
L 116.412036 -116.139946 
L 116.635858 -113.850722 
L 116.85971 -111.561497 
L 117.08304 -109.272273 
L 117.303368 -106.983048 
L 117.516109 -104.693823 
L 117.716098 -102.404599 
L 117.90126 -100.115374 
L 118.078324 -97.82615 
L 118.269956 -95.536925 
L 118.522016 -93.247701 
L 118.909011 -90.958476 
L 119.535122 -88.669251 
L 120.527755 -86.380027 
L 122.020841 -84.090802 
L 124.126824 -81.801578 
L 126.899694 -79.512353 
L 130.296145 -77.223129 
L 134.146379 -74.933904 
L 138.147743 -72.644679 
L 141.891238 -70.355455 
L 144.922318 -68.06623 
L 146.825612 -65.777006 
L 147.312653 -63.487781 
z
" style="stroke: #000000; stroke-opacity: 0.4"/>
    </defs>
    <g clip-path="url(#p822ce8aadd)">
     <use xlink:href="#m4fda62a86d" x="0" y="432" style="fill: #440154; fill-opacity: 0.4; stroke: #000000; stroke-opacity: 0.4"/>
    </g>
   </g>
   <g id="PolyCollection_2">
    <defs>
     <path id="mfb9d252938" d="M 279.281256 -63.487781 
L 213.296955 -63.487781 
L 213.432836 -64.453882 
L 214.021625 -65.419982 
L 215.036203 -66.386083 
L 216.432308 -67.352183 
L 218.15162 -68.318283 
L 220.125691 -69.284384 
L 222.280345 -70.250484 
L 224.540161 -71.216585 
L 226.832662 -72.182685 
L 229.091897 -73.148786 
L 231.261196 -74.114886 
L 233.294964 -75.080987 
L 235.159503 -76.047087 
L 236.832937 -77.013188 
L 238.304379 -77.979288 
L 239.572545 -78.945389 
L 240.644013 -79.911489 
L 241.531329 -80.87759 
L 242.251152 -81.84369 
L 242.822545 -82.80979 
L 243.265535 -83.775891 
L 243.599959 -84.741991 
L 243.844625 -85.708092 
L 244.016751 -86.674192 
L 244.131656 -87.640293 
L 244.202647 -88.606393 
L 244.241044 -89.572494 
L 244.256313 -90.538594 
L 244.256243 -91.504695 
L 244.247166 -92.470795 
L 244.234167 -93.436896 
L 244.22129 -94.402996 
L 244.211723 -95.369097 
L 244.207952 -96.335197 
L 244.211894 -97.301297 
L 244.224995 -98.267398 
L 244.248302 -99.233498 
L 244.282512 -100.199599 
L 244.327999 -101.165699 
L 244.384826 -102.1318 
L 244.452747 -103.0979 
L 244.531204 -104.064001 
L 244.619338 -105.030101 
L 244.715992 -105.996202 
L 244.819741 -106.962302 
L 244.928933 -107.928403 
L 245.041736 -108.894503 
L 245.156212 -109.860604 
L 245.270388 -110.826704 
L 245.382327 -111.792804 
L 245.490208 -112.758905 
L 245.592381 -113.725005 
L 245.687419 -114.691106 
L 245.774142 -115.657206 
L 245.851633 -116.623307 
L 245.919223 -117.589407 
L 245.976471 -118.555508 
L 246.023125 -119.521608 
L 246.059078 -120.487709 
L 246.084328 -121.453809 
L 246.098935 -122.41991 
L 246.102999 -123.38601 
L 246.096645 -124.352111 
L 246.080023 -125.318211 
L 246.053332 -126.284312 
L 246.016854 -127.250412 
L 245.970996 -128.216512 
L 245.916343 -129.182613 
L 245.853704 -130.148713 
L 245.784153 -131.114814 
L 245.70905 -132.080914 
L 245.630036 -133.047015 
L 245.54901 -134.013115 
L 245.468065 -134.979216 
L 245.389404 -135.945316 
L 245.315232 -136.911417 
L 245.247627 -137.877517 
L 245.188416 -138.843618 
L 245.139052 -139.809718 
L 245.100513 -140.775819 
L 245.073238 -141.741919 
L 245.057097 -142.708019 
L 245.051414 -143.67412 
L 245.055031 -144.64022 
L 245.066417 -145.606321 
L 245.083811 -146.572421 
L 245.105378 -147.538522 
L 245.129373 -148.504622 
L 245.154292 -149.470723 
L 245.17899 -150.436823 
L 245.202766 -151.402924 
L 245.225391 -152.369024 
L 245.247096 -153.335125 
L 245.268507 -154.301225 
L 245.290542 -155.267326 
L 245.314284 -156.233426 
L 245.340841 -157.199526 
L 245.371212 -158.165627 
L 245.40617 -159.131727 
L 247.172041 -159.131727 
L 247.172041 -159.131727 
L 247.206999 -158.165627 
L 247.23737 -157.199526 
L 247.263927 -156.233426 
L 247.287669 -155.267326 
L 247.309704 -154.301225 
L 247.331115 -153.335125 
L 247.35282 -152.369024 
L 247.375445 -151.402924 
L 247.399221 -150.436823 
L 247.423919 -149.470723 
L 247.448838 -148.504622 
L 247.472833 -147.538522 
L 247.4944 -146.572421 
L 247.511794 -145.606321 
L 247.52318 -144.64022 
L 247.526797 -143.67412 
L 247.521114 -142.708019 
L 247.504973 -141.741919 
L 247.477698 -140.775819 
L 247.439159 -139.809718 
L 247.389795 -138.843618 
L 247.330584 -137.877517 
L 247.262979 -136.911417 
L 247.188806 -135.945316 
L 247.110146 -134.979216 
L 247.029201 -134.013115 
L 246.948175 -133.047015 
L 246.869161 -132.080914 
L 246.794058 -131.114814 
L 246.724507 -130.148713 
L 246.661868 -129.182613 
L 246.607215 -128.216512 
L 246.561357 -127.250412 
L 246.524879 -126.284312 
L 246.498188 -125.318211 
L 246.481566 -124.352111 
L 246.475212 -123.38601 
L 246.479276 -122.41991 
L 246.493883 -121.453809 
L 246.519133 -120.487709 
L 246.555086 -119.521608 
L 246.60174 -118.555508 
L 246.658988 -117.589407 
L 246.726578 -116.623307 
L 246.804069 -115.657206 
L 246.890792 -114.691106 
L 246.985829 -113.725005 
L 247.088003 -112.758905 
L 247.195884 -111.792804 
L 247.307823 -110.826704 
L 247.421999 -109.860604 
L 247.536475 -108.894503 
L 247.649278 -107.928403 
L 247.758469 -106.962302 
L 247.862219 -105.996202 
L 247.958873 -105.030101 
L 248.047006 -104.064001 
L 248.125464 -103.0979 
L 248.193384 -102.1318 
L 248.250211 -101.165699 
L 248.295699 -100.199599 
L 248.329909 -99.233498 
L 248.353216 -98.267398 
L 248.366317 -97.301297 
L 248.370259 -96.335197 
L 248.366488 -95.369097 
L 248.356921 -94.402996 
L 248.344044 -93.436896 
L 248.331045 -92.470795 
L 248.321968 -91.504695 
L 248.321898 -90.538594 
L 248.337167 -89.572494 
L 248.375564 -88.606393 
L 248.446555 -87.640293 
L 248.56146 -86.674192 
L 248.733586 -85.708092 
L 248.978252 -84.741991 
L 249.312676 -83.775891 
L 249.755666 -82.80979 
L 250.327059 -81.84369 
L 251.046881 -80.87759 
L 251.934198 -79.911489 
L 253.005666 -78.945389 
L 254.273832 -77.979288 
L 255.745274 -77.013188 
L 257.418708 -76.047087 
L 259.283247 -75.080987 
L 261.317015 -74.114886 
L 263.486314 -73.148786 
L 265.745549 -72.182685 
L 268.038049 -71.216585 
L 270.297866 -70.250484 
L 272.45252 -69.284384 
L 274.426591 -68.318283 
L 276.145903 -67.352183 
L 277.542007 -66.386083 
L 278.556586 -65.419982 
L 279.145375 -64.453882 
L 279.281256 -63.487781 
z
" style="stroke: #000000; stroke-opacity: 0.4"/>
    </defs>
    <g clip-path="url(#p822ce8aadd)">
     <use xlink:href="#mfb9d252938" x="0" y="432" style="fill: #3b528b; fill-opacity: 0.4; stroke: #000000; stroke-opacity: 0.4"/>
    </g>
   </g>
   <g id="PolyCollection_3">
    <defs>
     <path id="m9acb7068a4" d="M 411.249859 -63.487781 
L 345.265558 -63.487781 
L 345.279239 -66.285829 
L 345.785692 -69.083876 
L 346.752753 -71.881924 
L 348.126891 -74.679971 
L 349.837327 -77.478018 
L 351.801328 -80.276066 
L 353.930088 -83.074113 
L 356.134666 -85.872161 
L 358.331428 -88.670208 
L 360.446569 -91.468256 
L 362.419438 -94.266303 
L 364.204523 -97.064351 
L 365.772129 -99.862398 
L 367.107866 -102.660446 
L 368.211191 -105.458493 
L 369.093276 -108.256541 
L 369.774457 -111.054588 
L 370.281548 -113.852636 
L 370.645213 -116.650683 
L 370.897564 -119.448731 
L 371.070107 -122.246778 
L 371.192076 -125.044826 
L 371.289208 -127.842873 
L 371.382937 -130.640921 
L 371.489981 -133.438968 
L 371.622281 -136.237015 
L 371.787239 -139.035063 
L 371.988172 -141.83311 
L 372.224934 -144.631158 
L 372.494622 -147.429205 
L 372.792298 -150.227253 
L 373.111691 -153.0253 
L 373.44581 -155.823348 
L 373.787469 -158.621395 
L 374.129691 -161.419443 
L 374.466013 -164.21749 
L 374.790687 -167.015538 
L 375.09882 -169.813585 
L 375.386453 -172.611633 
L 375.650603 -175.40968 
L 375.889293 -178.207728 
L 376.10155 -181.005775 
L 376.287389 -183.803823 
L 376.447765 -186.60187 
L 376.584495 -189.399918 
L 376.700127 -192.197965 
L 376.797774 -194.996012 
L 376.880908 -197.79406 
L 376.953119 -200.592107 
L 377.01787 -203.390155 
L 377.078262 -206.188202 
L 377.136827 -208.98625 
L 377.195372 -211.784297 
L 377.25489 -214.582345 
L 377.315543 -217.380392 
L 377.376713 -220.17844 
L 377.437121 -222.976487 
L 377.494996 -225.774535 
L 377.548274 -228.572582 
L 377.594813 -231.37063 
L 377.632605 -234.168677 
L 377.659954 -236.966725 
L 377.675639 -239.764772 
L 377.67901 -242.56282 
L 377.670051 -245.360867 
L 377.649386 -248.158915 
L 377.61824 -250.956962 
L 377.578356 -253.755009 
L 377.531884 -256.553057 
L 377.481236 -259.351104 
L 377.428941 -262.149152 
L 377.377488 -264.947199 
L 377.329184 -267.745247 
L 377.28603 -270.543294 
L 377.249626 -273.341342 
L 377.221109 -276.139389 
L 377.201131 -278.937437 
L 377.189867 -281.735484 
L 377.18706 -284.533532 
L 377.192087 -287.331579 
L 377.204041 -290.129627 
L 377.221822 -292.927674 
L 377.244228 -295.725722 
L 377.270036 -298.523769 
L 377.298075 -301.321817 
L 377.327279 -304.119864 
L 377.356742 -306.917912 
L 377.385739 -309.715959 
L 377.413759 -312.514006 
L 377.440506 -315.312054 
L 377.465909 -318.110101 
L 377.490107 -320.908149 
L 377.51343 -323.706196 
L 377.536364 -326.504244 
L 377.559502 -329.302291 
L 377.583491 -332.100339 
L 377.608964 -334.898386 
L 377.636475 -337.696434 
L 377.66644 -340.494481 
L 378.848977 -340.494481 
L 378.848977 -340.494481 
L 378.878942 -337.696434 
L 378.906453 -334.898386 
L 378.931925 -332.100339 
L 378.955914 -329.302291 
L 378.979053 -326.504244 
L 379.001986 -323.706196 
L 379.025309 -320.908149 
L 379.049508 -318.110101 
L 379.074911 -315.312054 
L 379.101658 -312.514006 
L 379.129677 -309.715959 
L 379.158675 -306.917912 
L 379.188137 -304.119864 
L 379.217342 -301.321817 
L 379.24538 -298.523769 
L 379.271188 -295.725722 
L 379.293595 -292.927674 
L 379.311376 -290.129627 
L 379.323329 -287.331579 
L 379.328356 -284.533532 
L 379.325549 -281.735484 
L 379.314286 -278.937437 
L 379.294307 -276.139389 
L 379.265791 -273.341342 
L 379.229387 -270.543294 
L 379.186233 -267.745247 
L 379.137929 -264.947199 
L 379.086476 -262.149152 
L 379.034181 -259.351104 
L 378.983533 -256.553057 
L 378.93706 -253.755009 
L 378.897177 -250.956962 
L 378.86603 -248.158915 
L 378.845366 -245.360867 
L 378.836406 -242.56282 
L 378.839777 -239.764772 
L 378.855462 -236.966725 
L 378.882812 -234.168677 
L 378.920603 -231.37063 
L 378.967143 -228.572582 
L 379.020421 -225.774535 
L 379.078295 -222.976487 
L 379.138704 -220.17844 
L 379.199873 -217.380392 
L 379.260526 -214.582345 
L 379.320044 -211.784297 
L 379.378589 -208.98625 
L 379.437154 -206.188202 
L 379.497546 -203.390155 
L 379.562298 -200.592107 
L 379.634508 -197.79406 
L 379.717642 -194.996012 
L 379.81529 -192.197965 
L 379.930921 -189.399918 
L 380.067651 -186.60187 
L 380.228027 -183.803823 
L 380.413866 -181.005775 
L 380.626123 -178.207728 
L 380.864813 -175.40968 
L 381.128964 -172.611633 
L 381.416596 -169.813585 
L 381.72473 -167.015538 
L 382.049404 -164.21749 
L 382.385725 -161.419443 
L 382.727948 -158.621395 
L 383.069606 -155.823348 
L 383.403725 -153.0253 
L 383.723118 -150.227253 
L 384.020795 -147.429205 
L 384.290482 -144.631158 
L 384.527245 -141.83311 
L 384.728178 -139.035063 
L 384.893135 -136.237015 
L 385.025436 -133.438968 
L 385.132479 -130.640921 
L 385.226208 -127.842873 
L 385.323341 -125.044826 
L 385.44531 -122.246778 
L 385.617852 -119.448731 
L 385.870204 -116.650683 
L 386.233868 -113.852636 
L 386.740959 -111.054588 
L 387.422141 -108.256541 
L 388.304225 -105.458493 
L 389.407551 -102.660446 
L 390.743287 -99.862398 
L 392.310893 -97.064351 
L 394.095979 -94.266303 
L 396.068847 -91.468256 
L 398.183988 -88.670208 
L 400.38075 -85.872161 
L 402.585329 -83.074113 
L 404.714089 -80.276066 
L 406.678089 -77.478018 
L 408.388526 -74.679971 
L 409.762663 -71.881924 
L 410.729725 -69.083876 
L 411.236178 -66.285829 
L 411.249859 -63.487781 
z
" style="stroke: #000000; stroke-opacity: 0.4"/>
    </defs>
    <g clip-path="url(#p822ce8aadd)">
     <use xlink:href="#m9acb7068a4" x="0" y="432" style="fill: #21918c; fill-opacity: 0.4; stroke: #000000; stroke-opacity: 0.4"/>
    </g>
   </g>
   <g id="PolyCollection_4">
    <defs>
     <path id="mf94e0a3abf" d="M 543.218462 -63.487781 
L 477.23416 -63.487781 
L 477.581354 -64.944831 
L 478.743441 -66.401881 
L 480.628233 -67.85893 
L 483.094097 -69.31598 
L 485.967408 -70.77303 
L 489.062606 -72.23008 
L 492.201658 -73.68713 
L 495.230162 -75.144179 
L 498.028201 -76.601229 
L 500.515244 -78.058279 
L 502.64946 -79.515329 
L 504.422669 -80.972378 
L 505.852613 -82.429428 
L 506.974259 -83.886478 
L 507.83158 -85.343528 
L 508.470802 -86.800577 
L 508.935581 -88.257627 
L 509.264145 -89.714677 
L 509.488115 -91.171727 
L 509.632561 -92.628777 
L 509.716823 -94.085826 
L 509.755672 -95.542876 
L 509.760515 -96.999926 
L 509.740428 -98.456976 
L 509.702944 -99.914025 
L 509.654548 -101.371075 
L 509.600935 -102.828125 
L 509.547077 -104.285175 
L 509.497167 -105.742225 
L 509.454521 -107.199274 
L 509.421493 -108.656324 
L 509.39944 -110.113374 
L 509.388768 -111.570424 
L 509.389047 -113.027473 
L 509.39919 -114.484523 
L 509.417645 -115.941573 
L 509.442602 -117.398623 
L 509.472154 -118.855673 
L 509.504435 -120.312722 
L 509.537712 -121.769772 
L 509.570459 -123.226822 
L 509.601415 -124.683872 
L 509.629655 -126.140921 
L 509.654649 -127.597971 
L 509.67632 -129.055021 
L 509.695066 -130.512071 
L 509.711732 -131.969121 
L 509.727525 -133.42617 
L 509.743854 -134.88322 
L 509.762139 -136.34027 
L 509.78359 -137.79732 
L 509.809027 -139.254369 
L 509.838743 -140.711419 
L 509.872462 -142.168469 
L 509.909382 -143.625519 
L 509.948293 -145.082568 
L 509.987756 -146.539618 
L 510.026291 -147.996668 
L 510.062558 -149.453718 
L 510.095489 -150.910768 
L 510.124371 -152.367817 
L 510.148857 -153.824867 
L 510.168944 -155.281917 
L 510.1849 -156.738967 
L 510.197179 -158.196016 
L 510.206338 -159.653066 
L 510.21296 -161.110116 
L 510.217598 -162.567166 
L 510.220735 -164.024216 
L 510.222763 -165.481265 
L 510.22398 -166.938315 
L 510.224582 -168.395365 
L 510.224676 -169.852415 
L 510.224273 -171.309464 
L 510.22329 -172.766514 
L 510.221542 -174.223564 
L 510.218735 -175.680614 
L 510.214451 -177.137664 
L 510.20814 -178.594713 
L 510.199126 -180.051763 
L 510.186623 -181.508813 
L 510.169772 -182.965863 
L 510.147712 -184.422912 
L 510.119666 -185.879962 
L 510.085063 -187.337012 
L 510.04366 -188.794062 
L 509.995672 -190.251111 
L 509.941867 -191.708161 
L 509.883634 -193.165211 
L 509.822969 -194.622261 
L 509.762404 -196.079311 
L 509.704852 -197.53636 
L 509.653386 -198.99341 
L 509.610979 -200.45046 
L 509.580219 -201.90751 
L 509.563061 -203.364559 
L 509.560619 -204.821609 
L 509.573055 -206.278659 
L 509.599555 -207.735709 
L 510.853067 -207.735709 
L 510.853067 -207.735709 
L 510.879567 -206.278659 
L 510.892003 -204.821609 
L 510.889561 -203.364559 
L 510.872403 -201.90751 
L 510.841643 -200.45046 
L 510.799236 -198.99341 
L 510.74777 -197.53636 
L 510.690218 -196.079311 
L 510.629653 -194.622261 
L 510.568988 -193.165211 
L 510.510754 -191.708161 
L 510.45695 -190.251111 
L 510.408962 -188.794062 
L 510.367559 -187.337012 
L 510.332956 -185.879962 
L 510.30491 -184.422912 
L 510.282849 -182.965863 
L 510.265999 -181.508813 
L 510.253496 -180.051763 
L 510.244482 -178.594713 
L 510.238171 -177.137664 
L 510.233886 -175.680614 
L 510.23108 -174.223564 
L 510.229332 -172.766514 
L 510.228349 -171.309464 
L 510.227946 -169.852415 
L 510.228039 -168.395365 
L 510.228642 -166.938315 
L 510.229858 -165.481265 
L 510.231887 -164.024216 
L 510.235023 -162.567166 
L 510.239661 -161.110116 
L 510.246284 -159.653066 
L 510.255443 -158.196016 
L 510.267722 -156.738967 
L 510.283677 -155.281917 
L 510.303765 -153.824867 
L 510.328251 -152.367817 
L 510.357133 -150.910768 
L 510.390064 -149.453718 
L 510.426331 -147.996668 
L 510.464866 -146.539618 
L 510.504329 -145.082568 
L 510.54324 -143.625519 
L 510.58016 -142.168469 
L 510.613879 -140.711419 
L 510.643595 -139.254369 
L 510.669032 -137.79732 
L 510.690483 -136.34027 
L 510.708768 -134.88322 
L 510.725097 -133.42617 
L 510.74089 -131.969121 
L 510.757556 -130.512071 
L 510.776302 -129.055021 
L 510.797973 -127.597971 
L 510.822967 -126.140921 
L 510.851207 -124.683872 
L 510.882163 -123.226822 
L 510.91491 -121.769772 
L 510.948187 -120.312722 
L 510.980468 -118.855673 
L 511.01002 -117.398623 
L 511.034977 -115.941573 
L 511.053432 -114.484523 
L 511.063575 -113.027473 
L 511.063854 -111.570424 
L 511.053182 -110.113374 
L 511.031129 -108.656324 
L 510.998101 -107.199274 
L 510.955455 -105.742225 
L 510.905544 -104.285175 
L 510.851687 -102.828125 
L 510.798074 -101.371075 
L 510.749678 -99.914025 
L 510.712194 -98.456976 
L 510.692107 -96.999926 
L 510.696949 -95.542876 
L 510.735799 -94.085826 
L 510.820061 -92.628777 
L 510.964507 -91.171727 
L 511.188477 -89.714677 
L 511.517041 -88.257627 
L 511.98182 -86.800577 
L 512.621041 -85.343528 
L 513.478363 -83.886478 
L 514.600009 -82.429428 
L 516.029953 -80.972378 
L 517.803162 -79.515329 
L 519.937378 -78.058279 
L 522.424421 -76.601229 
L 525.22246 -75.144179 
L 528.250964 -73.68713 
L 531.390016 -72.23008 
L 534.485214 -70.77303 
L 537.358525 -69.31598 
L 539.824389 -67.85893 
L 541.709181 -66.401881 
L 542.871268 -64.944831 
L 543.218462 -63.487781 
z
" style="stroke: #000000; stroke-opacity: 0.4"/>
    </defs>
    <g clip-path="url(#p822ce8aadd)">
     <use xlink:href="#mf94e0a3abf" x="0" y="432" style="fill: #5ec962; fill-opacity: 0.4; stroke: #000000; stroke-opacity: 0.4"/>
    </g>
   </g>
   <g id="PolyCollection_5">
    <defs>
     <path id="m5748116544" d="M 675.172531 -63.487781 
L 609.217296 -63.487781 
L 609.202763 -66.743175 
L 609.939838 -69.998569 
L 611.351495 -73.253963 
L 613.314169 -76.509357 
L 615.67339 -79.76475 
L 618.262173 -83.020144 
L 620.919256 -86.275538 
L 623.504523 -89.530932 
L 625.909706 -92.786326 
L 628.06349 -96.04172 
L 629.931162 -99.297113 
L 631.509839 -102.552507 
L 632.820777 -105.807901 
L 633.900488 -109.063295 
L 634.792165 -112.318689 
L 635.538569 -115.574083 
L 636.177016 -118.829477 
L 636.736621 -122.08487 
L 637.23759 -125.340264 
L 637.692066 -128.595658 
L 638.105949 -131.851052 
L 638.481107 -135.106446 
L 638.817498 -138.36184 
L 639.114872 -141.617234 
L 639.373883 -144.872627 
L 639.596592 -148.128021 
L 639.786442 -151.383415 
L 639.947878 -154.638809 
L 640.085778 -157.894203 
L 640.204876 -161.149597 
L 640.309294 -164.40499 
L 640.402271 -167.660384 
L 640.486097 -170.915778 
L 640.562241 -174.171172 
L 640.631606 -177.426566 
L 640.694853 -180.68196 
L 640.752704 -183.937354 
L 640.806177 -187.192747 
L 640.856699 -190.448141 
L 640.906079 -193.703535 
L 640.95635 -196.958929 
L 641.009511 -200.214323 
L 641.067205 -203.469717 
L 641.130408 -206.725111 
L 641.199174 -209.980504 
L 641.27249 -213.235898 
L 641.348262 -216.491292 
L 641.423462 -219.746686 
L 641.494395 -223.00208 
L 641.55708 -226.257474 
L 641.60769 -229.512867 
L 641.642999 -232.768261 
L 641.660796 -236.023655 
L 641.660212 -239.279049 
L 641.641918 -242.534443 
L 641.608181 -245.789837 
L 641.562743 -249.045231 
L 641.510535 -252.300624 
L 641.457245 -255.556018 
L 641.408774 -258.811412 
L 641.370652 -262.066806 
L 641.347473 -265.3222 
L 641.342435 -268.577594 
L 641.357039 -271.832988 
L 641.391004 -275.088381 
L 641.442382 -278.343775 
L 641.507882 -281.599169 
L 641.583315 -284.854563 
L 641.66411 -288.109957 
L 641.745815 -291.365351 
L 641.824514 -294.620744 
L 641.897121 -297.876138 
L 641.961519 -301.131532 
L 642.016568 -304.386926 
L 642.061992 -307.64232 
L 642.098189 -310.897714 
L 642.12602 -314.153108 
L 642.146578 -317.408501 
L 642.161005 -320.663895 
L 642.170334 -323.919289 
L 642.17539 -327.174683 
L 642.176732 -330.430077 
L 642.174628 -333.685471 
L 642.169081 -336.940865 
L 642.159868 -340.196258 
L 642.146617 -343.451652 
L 642.128903 -346.707046 
L 642.106368 -349.96244 
L 642.07885 -353.217834 
L 642.046507 -356.473228 
L 642.009929 -359.728622 
L 641.970203 -362.984015 
L 641.92892 -366.239409 
L 641.888112 -369.494803 
L 641.850105 -372.750197 
L 641.817316 -376.005591 
L 641.792003 -379.260985 
L 641.776008 -382.516378 
L 641.770537 -385.771772 
L 642.619291 -385.771772 
L 642.619291 -385.771772 
L 642.613819 -382.516378 
L 642.597824 -379.260985 
L 642.572511 -376.005591 
L 642.539723 -372.750197 
L 642.501716 -369.494803 
L 642.460907 -366.239409 
L 642.419624 -362.984015 
L 642.379898 -359.728622 
L 642.343321 -356.473228 
L 642.310978 -353.217834 
L 642.283459 -349.96244 
L 642.260924 -346.707046 
L 642.24321 -343.451652 
L 642.229959 -340.196258 
L 642.220746 -336.940865 
L 642.215199 -333.685471 
L 642.213096 -330.430077 
L 642.214437 -327.174683 
L 642.219494 -323.919289 
L 642.228822 -320.663895 
L 642.243249 -317.408501 
L 642.263807 -314.153108 
L 642.291638 -310.897714 
L 642.327836 -307.64232 
L 642.373259 -304.386926 
L 642.428308 -301.131532 
L 642.492706 -297.876138 
L 642.565313 -294.620744 
L 642.644012 -291.365351 
L 642.725717 -288.109957 
L 642.806512 -284.854563 
L 642.881945 -281.599169 
L 642.947445 -278.343775 
L 642.998824 -275.088381 
L 643.032788 -271.832988 
L 643.047393 -268.577594 
L 643.042354 -265.3222 
L 643.019175 -262.066806 
L 642.981053 -258.811412 
L 642.932582 -255.556018 
L 642.879292 -252.300624 
L 642.827084 -249.045231 
L 642.781646 -245.789837 
L 642.74791 -242.534443 
L 642.729616 -239.279049 
L 642.729031 -236.023655 
L 642.746829 -232.768261 
L 642.782138 -229.512867 
L 642.832747 -226.257474 
L 642.895432 -223.00208 
L 642.966365 -219.746686 
L 643.041565 -216.491292 
L 643.117338 -213.235898 
L 643.190653 -209.980504 
L 643.25942 -206.725111 
L 643.322623 -203.469717 
L 643.380316 -200.214323 
L 643.433477 -196.958929 
L 643.483749 -193.703535 
L 643.533129 -190.448141 
L 643.583651 -187.192747 
L 643.637124 -183.937354 
L 643.694975 -180.68196 
L 643.758221 -177.426566 
L 643.827587 -174.171172 
L 643.90373 -170.915778 
L 643.987557 -167.660384 
L 644.080534 -164.40499 
L 644.184952 -161.149597 
L 644.304049 -157.894203 
L 644.441949 -154.638809 
L 644.603385 -151.383415 
L 644.793235 -148.128021 
L 645.015944 -144.872627 
L 645.274956 -141.617234 
L 645.57233 -138.36184 
L 645.908721 -135.106446 
L 646.283878 -131.851052 
L 646.697761 -128.595658 
L 647.152237 -125.340264 
L 647.653206 -122.08487 
L 648.212812 -118.829477 
L 648.851258 -115.574083 
L 649.597663 -112.318689 
L 650.489339 -109.063295 
L 651.56905 -105.807901 
L 652.879988 -102.552507 
L 654.458665 -99.297113 
L 656.326338 -96.04172 
L 658.480121 -92.786326 
L 660.885304 -89.530932 
L 663.470571 -86.275538 
L 666.127654 -83.020144 
L 668.716437 -79.76475 
L 671.075658 -76.509357 
L 673.038333 -73.253963 
L 674.449989 -69.998569 
L 675.187064 -66.743175 
L 675.172531 -63.487781 
z
" style="stroke: #000000; stroke-opacity: 0.4"/>
    </defs>
    <g clip-path="url(#p822ce8aadd)">
     <use xlink:href="#m5748116544" x="0" y="432" style="fill: #fde725; fill-opacity: 0.4; stroke: #000000; stroke-opacity: 0.4"/>
    </g>
   </g>
   <g id="matplotlib.axis_1">
    <g id="xtick_1">
     <g id="line2d_1">
      <defs>
       <path id="mb6f277dfdd" d="M 0 0 
L 0 3.5 
" style="stroke: #000000; stroke-width: 0.8"/>
      </defs>
      <g>
       <use xlink:href="#mb6f277dfdd" x="114.320503" y="384.626418" style="stroke: #000000; stroke-width: 0.8"/>
      </g>
     </g>
     <g id="text_1">
      <!-- Borda rule -->
      <g transform="translate(88.795319 399.236765) scale(0.11 -0.11)">
       <defs>
        <path id="CMR17-42" d="M 333 4352 
L 333 4186 
C 774 4186 845 4186 845 3900 
L 845 452 
C 845 166 774 166 333 166 
L 333 0 
L 2534 0 
C 3354 0 3885 583 3885 1164 
C 3885 1741 3360 2233 2675 2233 
C 3290 2356 3718 2771 3718 3264 
C 3718 3802 3194 4352 2368 4352 
L 333 4352 
z
M 1248 2304 
L 1248 3937 
C 1248 4155 1261 4186 1517 4186 
L 2336 4186 
C 2970 4186 3251 3674 3251 3277 
C 3251 2791 2861 2304 2170 2304 
L 1248 2304 
z
M 1517 166 
C 1261 166 1248 197 1248 413 
L 1248 2202 
L 2432 2202 
C 3091 2202 3411 1625 3411 1162 
C 3411 699 3046 166 2349 166 
L 1517 166 
z
" transform="scale(0.015625)"/>
        <path id="CMR17-6f" d="M 2758 1356 
C 2758 2176 2163 2816 1466 2816 
C 768 2816 173 2176 173 1356 
C 173 551 768 -64 1466 -64 
C 2163 -64 2758 551 2758 1356 
z
M 1466 51 
C 1165 51 909 230 762 480 
C 602 767 582 1126 582 1408 
C 582 1677 595 2010 762 2298 
C 890 2509 1139 2714 1466 2714 
C 1754 2714 1997 2554 2150 2330 
C 2349 2029 2349 1607 2349 1408 
C 2349 1158 2336 775 2163 467 
C 1984 173 1709 51 1466 51 
z
" transform="scale(0.015625)"/>
        <path id="CMR17-72" d="M 960 1497 
C 960 2112 1222 2688 1702 2688 
C 1747 2688 1792 2682 1837 2662 
C 1837 2662 1696 2617 1696 2452 
C 1696 2298 1818 2234 1914 2234 
C 1990 2234 2131 2279 2131 2458 
C 2131 2663 1926 2790 1709 2790 
C 1222 2790 1011 2317 947 2093 
L 941 2093 
L 941 2790 
L 198 2720 
L 198 2554 
C 576 2554 634 2515 634 2208 
L 634 428 
C 634 184 608 153 198 153 
L 198 -13 
C 352 0 646 0 813 0 
C 998 0 1325 0 1498 -13 
L 1498 153 
C 1037 153 960 153 960 440 
L 960 1497 
z
" transform="scale(0.015625)"/>
        <path id="CMR17-64" d="M 1869 4326 
L 1869 4160 
C 2246 4160 2304 4122 2304 3820 
L 2304 2345 
C 2278 2377 2016 2790 1498 2790 
C 845 2790 211 2208 211 1364 
C 211 525 806 -64 1434 -64 
C 1978 -64 2259 337 2291 380 
L 2291 -63 
L 3066 -63 
L 3066 128 
C 2688 128 2630 166 2630 473 
L 2630 4396 
L 1869 4326 
z
M 2291 755 
C 2291 563 2176 390 2029 262 
C 1811 70 1594 38 1472 38 
C 1286 38 621 134 621 1356 
C 621 2612 1363 2688 1530 2688 
C 1824 2688 2061 2522 2208 2291 
C 2291 2157 2291 2138 2291 2023 
L 2291 755 
z
" transform="scale(0.015625)"/>
        <path id="CMR17-61" d="M 2304 1653 
C 2304 2072 2304 2294 2035 2543 
C 1798 2752 1523 2816 1306 2816 
C 800 2816 435 2407 435 1971 
C 435 1728 627 1728 666 1728 
C 749 1728 896 1778 896 1954 
C 896 2112 774 2181 666 2181 
C 640 2181 608 2174 589 2168 
C 723 2592 1069 2714 1293 2714 
C 1613 2714 1965 2429 1965 1885 
L 1965 1600 
C 1587 1600 1133 1549 774 1357 
C 371 1133 256 813 256 570 
C 256 77 832 -64 1171 -64 
C 1523 -64 1850 139 1990 511 
C 2003 233 2182 -18 2464 -18 
C 2598 -18 2938 70 2938 567 
L 2938 920 
L 2822 920 
L 2822 562 
C 2822 178 2650 128 2566 128 
C 2304 128 2304 458 2304 738 
L 2304 1653 
z
M 1965 870 
C 1965 317 1568 38 1216 38 
C 896 38 646 275 646 570 
C 646 761 730 1100 1101 1305 
C 1408 1478 1760 1504 1965 1504 
L 1965 870 
z
" transform="scale(0.015625)"/>
        <path id="CMR17-75" d="M 1882 2693 
L 1882 2528 
C 2259 2528 2317 2489 2317 2186 
L 2317 1032 
C 2317 500 2029 38 1555 38 
C 1030 38 986 348 986 678 
L 986 2763 
L 211 2693 
L 211 2528 
C 467 2528 640 2528 646 2274 
L 646 1058 
C 646 633 646 361 813 183 
C 896 101 1056 -64 1517 -64 
C 2061 -64 2272 377 2323 506 
L 2330 506 
L 2330 -63 
L 3091 -63 
L 3091 128 
C 2714 128 2656 166 2656 473 
L 2656 2763 
L 1882 2693 
z
" transform="scale(0.015625)"/>
        <path id="CMR17-6c" d="M 979 4396 
L 218 4326 
L 218 4160 
C 595 4160 653 4122 653 3817 
L 653 426 
C 653 184 627 153 218 153 
L 218 -13 
C 371 0 653 0 813 0 
C 979 0 1261 0 1414 -13 
L 1414 153 
C 1005 153 979 178 979 426 
L 979 4396 
z
" transform="scale(0.015625)"/>
        <path id="CMR17-65" d="M 2438 1472 
C 2464 1498 2464 1511 2464 1576 
C 2464 2238 2118 2816 1389 2816 
C 710 2816 173 2169 173 1383 
C 173 551 781 -64 1459 -64 
C 2176 -64 2458 607 2458 740 
C 2458 784 2419 784 2406 784 
C 2362 784 2355 771 2330 696 
C 2189 265 1837 51 1504 51 
C 1229 51 954 203 781 480 
C 582 803 582 1176 582 1472 
L 2438 1472 
z
M 589 1568 
C 634 2505 1126 2714 1382 2714 
C 1818 2714 2112 2297 2118 1568 
L 589 1568 
z
" transform="scale(0.015625)"/>
       </defs>
       <use xlink:href="#CMR17-42" transform="scale(0.996264)"/>
       <use xlink:href="#CMR17-6f" transform="translate(65.188754 0) scale(0.996264)"/>
       <use xlink:href="#CMR17-72" transform="translate(110.879232 0) scale(0.996264)"/>
       <use xlink:href="#CMR17-64" transform="translate(146.159999 0) scale(0.996264)"/>
       <use xlink:href="#CMR17-61" transform="translate(197.055369 0) scale(0.996264)"/>
       <use xlink:href="#CMR17-72" transform="translate(272.821813 0) scale(0.996264)"/>
       <use xlink:href="#CMR17-75" transform="translate(308.10258 0) scale(0.996264)"/>
       <use xlink:href="#CMR17-6c" transform="translate(358.99795 0) scale(0.996264)"/>
       <use xlink:href="#CMR17-65" transform="translate(383.869009 0) scale(0.996264)"/>
      </g>
     </g>
    </g>
    <g id="xtick_2">
     <g id="line2d_2">
      <g>
       <use xlink:href="#mb6f277dfdd" x="246.289105" y="384.626418" style="stroke: #000000; stroke-width: 0.8"/>
      </g>
     </g>
     <g id="text_2">
      <!-- Copeland's Rule -->
      <g transform="translate(207.065277 399.236765) scale(0.11 -0.11)">
       <defs>
        <path id="CMR17-43" d="M 3974 4289 
C 3974 4403 3968 4410 3930 4410 
C 3904 4410 3898 4403 3853 4327 
L 3571 3792 
C 3258 4187 2874 4416 2381 4416 
C 1286 4416 294 3456 294 2148 
C 294 826 1286 -128 2387 -128 
C 3366 -128 3974 730 3974 1461 
C 3974 1524 3974 1550 3917 1550 
C 3866 1550 3866 1531 3859 1474 
C 3808 585 3168 38 2477 38 
C 1824 38 781 495 781 2147 
C 781 3805 1843 4250 2464 4250 
C 3187 4250 3712 3628 3834 2745 
C 3846 2668 3846 2655 3904 2655 
C 3974 2655 3974 2668 3974 2783 
L 3974 4289 
z
" transform="scale(0.015625)"/>
        <path id="CMR17-70" d="M 1408 -1063 
C 998 -1063 973 -1037 973 -789 
L 973 402 
C 1158 134 1427 -38 1766 -38 
C 2406 -38 3053 523 3053 1388 
C 3053 2191 2496 2802 1837 2802 
C 1453 2802 1139 2592 960 2338 
L 960 2802 
L 198 2732 
L 198 2567 
C 576 2567 634 2528 634 2223 
L 634 -789 
C 634 -1031 608 -1063 198 -1063 
L 198 -1228 
C 352 -1216 634 -1216 800 -1216 
C 966 -1216 1254 -1216 1408 -1228 
L 1408 -1063 
z
M 973 2012 
C 973 2102 973 2235 1222 2471 
C 1254 2497 1472 2688 1792 2688 
C 2259 2688 2643 2108 2643 1382 
C 2643 656 2234 64 1728 64 
C 1498 64 1248 172 1056 472 
C 973 612 973 650 973 752 
L 973 2012 
z
" transform="scale(0.015625)"/>
        <path id="CMR17-6e" d="M 2656 1933 
C 2656 2259 2592 2790 1837 2790 
C 1331 2790 1069 2400 973 2144 
L 966 2144 
L 966 2790 
L 211 2720 
L 211 2554 
C 589 2554 646 2515 646 2208 
L 646 428 
C 646 184 621 153 211 153 
L 211 -13 
C 365 0 646 0 813 0 
C 979 0 1267 0 1421 -13 
L 1421 153 
C 1011 153 986 178 986 428 
L 986 1658 
C 986 2247 1344 2688 1792 2688 
C 2266 2688 2317 2266 2317 1958 
L 2317 428 
C 2317 184 2291 153 1882 153 
L 1882 -13 
C 2035 0 2317 0 2483 0 
C 2650 0 2938 0 3091 -13 
L 3091 153 
C 2682 153 2656 178 2656 428 
L 2656 1933 
z
" transform="scale(0.015625)"/>
        <path id="CMR17-27" d="M 1024 4025 
C 1037 3955 1043 3929 1043 3820 
C 1043 3415 883 3042 634 2778 
C 608 2752 595 2733 595 2707 
C 595 2681 621 2656 646 2656 
C 691 2656 1146 3105 1146 3811 
C 1146 3952 1133 4426 800 4426 
C 659 4426 538 4331 538 4165 
C 538 3999 659 3904 800 3904 
C 858 3904 966 3923 1024 4025 
z
" transform="scale(0.015625)"/>
        <path id="CMR17-73" d="M 1978 2697 
C 1978 2813 1971 2819 1933 2819 
C 1907 2819 1901 2813 1824 2717 
C 1805 2691 1747 2626 1728 2601 
C 1523 2819 1235 2819 1126 2819 
C 416 2819 160 2447 160 2076 
C 160 1498 813 1365 998 1325 
C 1402 1243 1542 1217 1677 1101 
C 1760 1025 1901 884 1901 654 
C 1901 384 1747 38 1158 38 
C 602 38 403 460 288 1021 
C 269 1110 269 1117 218 1117 
C 166 1117 160 1110 160 983 
L 160 63 
C 160 -51 166 -58 205 -58 
C 237 -58 243 -51 275 0 
C 314 57 410 211 448 276 
C 576 103 800 -64 1158 -64 
C 1792 -64 2131 283 2131 784 
C 2131 1112 1958 1285 1875 1362 
C 1683 1561 1459 1606 1190 1657 
C 838 1735 390 1825 390 2217 
C 390 2383 480 2737 1126 2737 
C 1811 2737 1850 2094 1862 1888 
C 1869 1856 1901 1849 1920 1849 
C 1978 1849 1978 1869 1978 1978 
L 1978 2697 
z
" transform="scale(0.015625)"/>
        <path id="CMR17-52" d="M 2509 2146 
C 3117 2268 3629 2676 3629 3186 
C 3629 3785 2950 4326 2054 4326 
L 333 4326 
L 333 4160 
C 774 4160 845 4160 845 3873 
L 845 415 
C 845 128 774 128 333 128 
L 333 -26 
C 518 -26 851 -26 1050 -26 
C 1248 -26 1581 -26 1766 -26 
L 1766 128 
C 1325 128 1254 128 1254 417 
L 1254 2112 
L 2003 2112 
C 2368 2112 2573 1964 2662 1881 
C 2918 1632 2918 1459 2918 1024 
C 2918 595 2918 377 3110 160 
C 3354 -102 3680 -128 3821 -128 
C 4294 -128 4365 396 4365 503 
C 4365 540 4365 585 4307 585 
C 4256 585 4250 547 4250 522 
C 4218 112 4032 -26 3834 -26 
C 3482 -26 3443 375 3405 764 
C 3386 898 3373 993 3360 1133 
C 3322 1452 3270 1917 2509 2146 
z
M 1984 2214 
L 1254 2214 
L 1254 3913 
C 1254 4129 1267 4160 1523 4160 
L 1990 4160 
C 2522 4160 3142 3977 3142 3190 
C 3142 2372 2464 2214 1984 2214 
z
" transform="scale(0.015625)"/>
       </defs>
       <use xlink:href="#CMR17-43" transform="scale(0.996264)"/>
       <use xlink:href="#CMR17-6f" transform="translate(66.509881 0) scale(0.996264)"/>
       <use xlink:href="#CMR17-70" transform="translate(112.200358 0) scale(0.996264)"/>
       <use xlink:href="#CMR17-65" transform="translate(165.698166 0) scale(0.996264)"/>
       <use xlink:href="#CMR17-6c" transform="translate(206.183827 0) scale(0.996264)"/>
       <use xlink:href="#CMR17-61" transform="translate(231.054885 0) scale(0.996264)"/>
       <use xlink:href="#CMR17-6e" transform="translate(276.745362 0) scale(0.996264)"/>
       <use xlink:href="#CMR17-64" transform="translate(327.640732 0) scale(0.996264)"/>
       <use xlink:href="#CMR17-27" transform="translate(378.536102 0) scale(0.996264)"/>
       <use xlink:href="#CMR17-73" transform="translate(403.40716 0) scale(0.996264)"/>
       <use xlink:href="#CMR17-52" transform="translate(469.284464 0) scale(0.996264)"/>
       <use xlink:href="#CMR17-75" transform="translate(537.075566 0) scale(0.996264)"/>
       <use xlink:href="#CMR17-6c" transform="translate(587.970936 0) scale(0.996264)"/>
       <use xlink:href="#CMR17-65" transform="translate(612.841994 0) scale(0.996264)"/>
      </g>
     </g>
    </g>
    <g id="xtick_3">
     <g id="line2d_3">
      <g>
       <use xlink:href="#mb6f277dfdd" x="378.257708" y="384.626418" style="stroke: #000000; stroke-width: 0.8"/>
      </g>
     </g>
     <g id="text_3">
      <!-- Plurality rule -->
      <g transform="translate(346.187625 399.236765) scale(0.11 -0.11)">
       <defs>
        <path id="CMR17-50" d="M 1267 2042 
L 2291 2042 
C 3117 2042 3718 2578 3718 3184 
C 3718 3791 3130 4352 2291 4352 
L 333 4352 
L 333 4186 
C 774 4186 845 4186 845 3899 
L 845 446 
C 845 160 774 160 333 160 
L 333 0 
C 518 0 858 0 1056 0 
C 1254 0 1594 0 1779 0 
L 1779 160 
C 1338 160 1267 160 1267 446 
L 1267 2042 
z
M 1254 2176 
L 1254 3938 
C 1254 4155 1267 4186 1523 4186 
L 2170 4186 
C 2995 4186 3232 3714 3232 3184 
C 3232 2604 2950 2176 2170 2176 
L 1254 2176 
z
" transform="scale(0.015625)"/>
        <path id="CMR17-69" d="M 992 3909 
C 992 4049 877 4170 730 4170 
C 589 4170 467 4056 467 3909 
C 467 3769 582 3648 730 3648 
C 870 3648 992 3763 992 3909 
z
M 243 2706 
L 243 2541 
C 602 2541 653 2502 653 2197 
L 653 427 
C 653 184 627 153 218 153 
L 218 -13 
C 371 0 646 0 806 0 
C 960 0 1222 0 1370 -13 
L 1370 153 
C 992 153 979 191 979 420 
L 979 2776 
L 243 2706 
z
" transform="scale(0.015625)"/>
        <path id="CMR17-74" d="M 966 2560 
L 1862 2560 
L 1862 2725 
L 966 2725 
L 966 3904 
L 851 3904 
C 838 3245 614 2668 70 2668 
L 70 2560 
L 627 2560 
L 627 771 
C 627 650 627 -64 1370 -64 
C 1747 -64 1965 306 1965 777 
L 1965 1140 
L 1850 1140 
L 1850 783 
C 1850 344 1677 51 1408 51 
C 1222 51 966 178 966 758 
L 966 2560 
z
" transform="scale(0.015625)"/>
        <path id="CMR17-79" d="M 2496 2197 
C 2656 2586 2944 2586 3034 2586 
L 3034 2752 
C 2912 2752 2752 2752 2630 2752 
C 2496 2752 2285 2752 2157 2758 
L 2157 2592 
C 2400 2573 2406 2394 2406 2343 
C 2406 2280 2394 2248 2362 2171 
L 1664 449 
L 902 2306 
C 870 2382 870 2426 870 2433 
C 870 2573 1018 2586 1171 2586 
L 1171 2758 
C 1018 2752 742 2752 582 2752 
C 410 2752 205 2752 64 2758 
L 64 2586 
C 410 2586 448 2554 531 2350 
L 1485 15 
C 1197 -738 1030 -1178 627 -1178 
C 557 -1178 397 -1159 282 -1044 
C 429 -1031 493 -942 493 -833 
C 493 -725 416 -629 288 -629 
C 147 -629 77 -725 77 -840 
C 77 -1095 339 -1280 627 -1280 
C 998 -1280 1229 -922 1357 -604 
L 2496 2197 
z
" transform="scale(0.015625)"/>
       </defs>
       <use xlink:href="#CMR17-50" transform="scale(0.996264)"/>
       <use xlink:href="#CMR17-6c" transform="translate(62.586301 0) scale(0.996264)"/>
       <use xlink:href="#CMR17-75" transform="translate(87.457359 0) scale(0.996264)"/>
       <use xlink:href="#CMR17-72" transform="translate(138.352729 0) scale(0.996264)"/>
       <use xlink:href="#CMR17-61" transform="translate(173.633497 0) scale(0.996264)"/>
       <use xlink:href="#CMR17-6c" transform="translate(219.323974 0) scale(0.996264)"/>
       <use xlink:href="#CMR17-69" transform="translate(244.195032 0) scale(0.996264)"/>
       <use xlink:href="#CMR17-74" transform="translate(269.066091 0) scale(0.996264)"/>
       <use xlink:href="#CMR17-79" transform="translate(301.744405 0) scale(0.996264)"/>
       <use xlink:href="#CMR17-72" transform="translate(380.113287 0) scale(0.996264)"/>
       <use xlink:href="#CMR17-75" transform="translate(415.394055 0) scale(0.996264)"/>
       <use xlink:href="#CMR17-6c" transform="translate(466.289424 0) scale(0.996264)"/>
       <use xlink:href="#CMR17-65" transform="translate(491.160483 0) scale(0.996264)"/>
      </g>
     </g>
    </g>
    <g id="xtick_4">
     <g id="line2d_4">
      <g>
       <use xlink:href="#mb6f277dfdd" x="510.226311" y="384.626418" style="stroke: #000000; stroke-width: 0.8"/>
      </g>
     </g>
     <g id="text_4">
      <!-- Black's Rule -->
      <g transform="translate(480.363246 399.236765) scale(0.11 -0.11)">
       <defs>
        <path id="CMR17-63" d="M 2234 2240 
C 2112 2240 1933 2240 1933 2017 
C 1933 1838 2080 1787 2163 1787 
C 2208 1787 2394 1807 2394 2024 
C 2394 2467 1958 2803 1466 2803 
C 787 2803 211 2178 211 1363 
C 211 516 813 -64 1466 -64 
C 2259 -64 2458 677 2458 748 
C 2458 774 2451 793 2406 793 
C 2362 793 2355 787 2330 703 
C 2163 180 1798 51 1523 51 
C 1114 51 621 427 621 1369 
C 621 2338 1094 2688 1472 2688 
C 1722 2688 2093 2573 2234 2240 
z
" transform="scale(0.015625)"/>
        <path id="CMR17-6b" d="M 1670 1673 
C 1664 1686 1632 1724 1632 1743 
C 1632 1756 2086 2171 2144 2222 
C 2509 2528 2739 2560 2906 2560 
L 2906 2733 
C 2867 2733 2854 2733 2848 2720 
L 2534 2720 
C 2355 2720 2080 2720 1907 2733 
L 1907 2566 
C 1997 2559 2061 2508 2061 2419 
C 2061 2291 1933 2170 1926 2170 
L 960 1289 
L 960 4396 
L 198 4326 
L 198 4160 
C 576 4160 634 4122 634 3817 
L 634 426 
C 634 184 608 153 198 153 
L 198 -13 
C 352 0 634 0 794 0 
C 954 0 1235 0 1389 -13 
L 1389 153 
C 979 153 954 178 954 428 
L 954 1130 
L 1395 1532 
L 2042 574 
C 2118 459 2182 369 2182 286 
C 2182 172 2067 153 1990 153 
L 1990 -13 
C 2144 0 2419 0 2579 0 
C 2694 0 2931 0 3040 0 
L 3040 153 
C 2739 153 2669 210 2477 491 
L 1670 1673 
z
" transform="scale(0.015625)"/>
       </defs>
       <use xlink:href="#CMR17-42" transform="scale(0.996264)"/>
       <use xlink:href="#CMR17-6c" transform="translate(65.188754 0) scale(0.996264)"/>
       <use xlink:href="#CMR17-61" transform="translate(90.059813 0) scale(0.996264)"/>
       <use xlink:href="#CMR17-63" transform="translate(135.75029 0) scale(0.996264)"/>
       <use xlink:href="#CMR17-6b" transform="translate(173.633497 0) scale(0.996264)"/>
       <use xlink:href="#CMR17-27" transform="translate(221.926412 0) scale(0.996264)"/>
       <use xlink:href="#CMR17-73" transform="translate(246.797471 0) scale(0.996264)"/>
       <use xlink:href="#CMR17-52" transform="translate(312.674775 0) scale(0.996264)"/>
       <use xlink:href="#CMR17-75" transform="translate(380.465877 0) scale(0.996264)"/>
       <use xlink:href="#CMR17-6c" transform="translate(431.361247 0) scale(0.996264)"/>
       <use xlink:href="#CMR17-65" transform="translate(456.232305 0) scale(0.996264)"/>
      </g>
     </g>
    </g>
    <g id="xtick_5">
     <g id="line2d_5">
      <g>
       <use xlink:href="#mb6f277dfdd" x="642.194914" y="384.626418" style="stroke: #000000; stroke-width: 0.8"/>
      </g>
     </g>
     <g id="text_5">
      <!-- Instand-runoff voting -->
      <g transform="translate(591.311994 399.236765) scale(0.11 -0.11)">
       <defs>
        <path id="CMR17-49" d="M 1261 3905 
C 1261 4192 1338 4192 1798 4192 
L 1798 4352 
C 1594 4352 1267 4352 1050 4352 
C 832 4352 506 4352 301 4352 
L 301 4192 
C 762 4192 838 4192 838 3905 
L 838 447 
C 838 160 762 160 301 160 
L 301 0 
C 506 0 832 0 1050 0 
C 1267 0 1594 0 1798 0 
L 1798 160 
C 1338 160 1261 160 1261 447 
L 1261 3905 
z
" transform="scale(0.015625)"/>
        <path id="CMR17-2d" d="M 1632 1216 
L 1632 1496 
L 26 1496 
L 26 1216 
L 1632 1216 
z
" transform="scale(0.015625)"/>
        <path id="CMR17-b" d="M 2554 2560 
L 3283 2560 
L 3283 2725 
L 2541 2725 
L 2541 3494 
C 2541 4022 2810 4352 3085 4352 
C 3168 4352 3264 4327 3328 4282 
C 3277 4269 3142 4225 3142 4067 
C 3142 3901 3270 3850 3360 3850 
C 3450 3850 3578 3901 3578 4067 
C 3578 4308 3347 4454 3091 4454 
C 2842 4454 2637 4333 2477 4181 
C 2330 4390 2086 4454 1837 4454 
C 1338 4454 634 4168 634 3469 
L 634 2725 
L 122 2725 
L 122 2560 
L 634 2560 
L 634 427 
C 634 184 608 153 198 153 
L 198 -13 
C 352 0 634 0 794 0 
C 960 0 1242 0 1395 -13 
L 1395 153 
C 986 153 960 178 960 427 
L 960 2560 
L 2227 2560 
L 2227 427 
C 2227 184 2202 153 1792 153 
L 1792 -13 
C 1946 0 2240 0 2406 0 
C 2592 0 2918 0 3091 -13 
L 3091 153 
C 2630 153 2554 153 2554 439 
L 2554 2560 
z
M 947 2725 
L 947 3469 
C 947 4047 1395 4352 1824 4352 
C 1920 4352 2170 4332 2323 4187 
C 2208 4187 2099 4136 2099 3977 
C 2099 3812 2246 3767 2259 3767 
C 2227 3652 2227 3526 2227 3481 
L 2227 2725 
L 947 2725 
z
" transform="scale(0.015625)"/>
        <path id="CMR17-76" d="M 2502 2163 
C 2560 2304 2662 2560 3034 2560 
L 3034 2726 
C 2912 2726 2752 2726 2630 2726 
C 2496 2726 2285 2726 2157 2732 
L 2157 2566 
C 2317 2553 2406 2477 2406 2311 
C 2406 2253 2406 2240 2368 2151 
L 1664 377 
L 902 2286 
C 864 2369 864 2381 864 2407 
C 864 2560 1075 2560 1171 2560 
L 1171 2732 
C 1018 2726 736 2726 576 2726 
C 403 2726 205 2726 64 2732 
L 64 2560 
C 307 2560 442 2560 518 2362 
L 1446 44 
C 1485 -51 1491 -64 1549 -64 
C 1606 -64 1613 -51 1651 44 
L 2502 2163 
z
" transform="scale(0.015625)"/>
        <path id="CMR17-67" d="M 710 1164 
C 832 1068 1043 960 1299 960 
C 1805 960 2240 1357 2240 1888 
C 2240 2054 2189 2310 1997 2509 
C 2176 2692 2438 2752 2586 2752 
C 2611 2752 2650 2752 2682 2734 
C 2656 2728 2598 2703 2598 2605 
C 2598 2527 2656 2471 2739 2471 
C 2835 2471 2886 2533 2886 2614 
C 2886 2731 2790 2854 2586 2854 
C 2330 2854 2106 2738 1926 2580 
C 1734 2753 1504 2816 1299 2816 
C 794 2816 358 2419 358 1888 
C 358 1522 570 1292 634 1228 
C 442 1004 442 743 442 711 
C 442 545 506 302 723 168 
C 390 85 128 -169 128 -486 
C 128 -943 736 -1280 1466 -1280 
C 2170 -1280 2803 -956 2803 -479 
C 2803 384 1856 384 1363 384 
C 1216 384 954 384 922 391 
C 723 423 589 602 589 826 
C 589 883 589 1024 710 1164 
z
M 1299 1068 
C 736 1068 736 1760 736 1889 
C 736 2016 736 2708 1299 2708 
C 1862 2708 1862 2016 1862 1889 
C 1862 1760 1862 1068 1299 1068 
z
M 1466 -1171 
C 826 -1171 384 -835 384 -486 
C 384 -289 493 -105 634 -4 
C 794 104 858 104 1293 104 
C 1818 104 2547 104 2547 -486 
C 2547 -835 2106 -1171 1466 -1171 
z
" transform="scale(0.015625)"/>
       </defs>
       <use xlink:href="#CMR17-49" transform="scale(0.996264)"/>
       <use xlink:href="#CMR17-6e" transform="translate(32.638409 0) scale(0.996264)"/>
       <use xlink:href="#CMR17-73" transform="translate(83.533779 0) scale(0.996264)"/>
       <use xlink:href="#CMR17-74" transform="translate(119.335117 0) scale(0.996264)"/>
       <use xlink:href="#CMR17-61" transform="translate(154.615884 0) scale(0.996264)"/>
       <use xlink:href="#CMR17-6e" transform="translate(200.306362 0) scale(0.996264)"/>
       <use xlink:href="#CMR17-64" transform="translate(251.201731 0) scale(0.996264)"/>
       <use xlink:href="#CMR17-2d" transform="translate(302.097101 0) scale(0.996264)"/>
       <use xlink:href="#CMR17-72" transform="translate(332.173067 0) scale(0.996264)"/>
       <use xlink:href="#CMR17-75" transform="translate(367.453835 0) scale(0.996264)"/>
       <use xlink:href="#CMR17-6e" transform="translate(418.349205 0) scale(0.996264)"/>
       <use xlink:href="#CMR17-6f" transform="translate(469.244575 0) scale(0.996264)"/>
       <use xlink:href="#CMR17-b" transform="translate(514.935052 0) scale(0.996264)"/>
       <use xlink:href="#CMR17-76" transform="translate(597.355696 0) scale(0.996264)"/>
       <use xlink:href="#CMR17-6f" transform="translate(643.046157 0) scale(0.996264)"/>
       <use xlink:href="#CMR17-74" transform="translate(688.736635 0) scale(0.996264)"/>
       <use xlink:href="#CMR17-69" transform="translate(724.017402 0) scale(0.996264)"/>
       <use xlink:href="#CMR17-6e" transform="translate(748.888461 0) scale(0.996264)"/>
       <use xlink:href="#CMR17-67" transform="translate(799.783831 0) scale(0.996264)"/>
      </g>
     </g>
    </g>
    <g id="text_6">
     <!-- Number of voters -->
     <g transform="translate(329.964678 414.361688) scale(0.13 -0.13)">
      <defs>
       <path id="CMR17-4e" d="M 1312 4250 
C 1267 4320 1261 4320 1139 4320 
L 326 4320 
L 326 4160 
L 448 4160 
C 704 4160 819 4129 838 4122 
L 838 610 
C 838 451 838 153 326 153 
L 326 -13 
C 474 0 742 0 902 0 
C 1062 0 1331 0 1478 -13 
L 1478 153 
C 966 153 966 451 966 610 
L 966 4033 
C 1011 3995 1011 3982 1056 3919 
L 3430 76 
C 3475 0 3494 0 3526 0 
C 3590 0 3590 19 3590 139 
L 3590 3705 
C 3590 3863 3590 4160 4102 4160 
L 4102 4326 
C 3955 4320 3686 4320 3526 4320 
C 3366 4320 3098 4320 2950 4326 
L 2950 4160 
C 3462 4160 3462 3862 3462 3703 
L 3462 763 
L 1312 4250 
z
" transform="scale(0.015625)"/>
       <path id="CMR17-6d" d="M 4326 1933 
C 4326 2252 4269 2790 3507 2790 
C 3072 2790 2771 2496 2656 2151 
L 2650 2151 
C 2573 2676 2195 2790 1837 2790 
C 1331 2790 1069 2400 973 2144 
L 966 2144 
L 966 2790 
L 211 2720 
L 211 2554 
C 589 2554 646 2515 646 2208 
L 646 428 
C 646 184 621 153 211 153 
L 211 -13 
C 365 0 646 0 813 0 
C 979 0 1267 0 1421 -13 
L 1421 153 
C 1011 153 986 178 986 428 
L 986 1658 
C 986 2247 1344 2688 1792 2688 
C 2266 2688 2317 2266 2317 1958 
L 2317 428 
C 2317 184 2291 153 1882 153 
L 1882 -13 
C 2035 0 2317 0 2483 0 
C 2650 0 2938 0 3091 -13 
L 3091 153 
C 2682 153 2656 178 2656 428 
L 2656 1658 
C 2656 2247 3014 2688 3462 2688 
C 3936 2688 3987 2266 3987 1958 
L 3987 428 
C 3987 184 3962 153 3552 153 
L 3552 -13 
C 3706 0 3987 0 4154 0 
C 4320 0 4608 0 4762 -13 
L 4762 153 
C 4352 153 4326 178 4326 428 
L 4326 1933 
z
" transform="scale(0.015625)"/>
       <path id="CMR17-62" d="M 960 4396 
L 198 4326 
L 198 4160 
C 576 4160 634 4122 634 3817 
L 634 -13 
L 749 -13 
L 934 441 
C 1120 141 1395 -64 1766 -64 
C 2406 -64 3053 500 3053 1370 
C 3053 2188 2477 2790 1830 2790 
C 1434 2790 1152 2579 960 2330 
L 960 4396 
z
M 973 2004 
C 973 2118 973 2138 1062 2272 
C 1312 2657 1670 2688 1792 2688 
C 1984 2688 2643 2585 2643 1376 
C 2643 108 1888 38 1734 38 
C 1536 38 1248 114 1043 486 
C 973 608 973 621 973 735 
L 973 2004 
z
" transform="scale(0.015625)"/>
       <path id="CMR17-66" d="M 979 2560 
L 1709 2560 
L 1709 2725 
L 966 2725 
L 966 3494 
C 966 4022 1235 4352 1510 4352 
C 1594 4352 1690 4327 1754 4282 
C 1702 4269 1568 4225 1568 4067 
C 1568 3901 1696 3850 1786 3850 
C 1875 3850 2003 3901 2003 4067 
C 2003 4308 1773 4454 1517 4454 
C 1152 4454 653 4156 653 3481 
L 653 2725 
L 141 2725 
L 141 2560 
L 653 2560 
L 653 427 
C 653 184 627 153 218 153 
L 218 -13 
C 371 0 666 0 832 0 
C 1018 0 1344 0 1517 -13 
L 1517 153 
C 1056 153 979 153 979 439 
L 979 2560 
z
" transform="scale(0.015625)"/>
      </defs>
      <use xlink:href="#CMR17-4e" transform="scale(0.996264)"/>
      <use xlink:href="#CMR17-75" transform="translate(69.07243 0) scale(0.996264)"/>
      <use xlink:href="#CMR17-6d" transform="translate(119.9678 0) scale(0.996264)"/>
      <use xlink:href="#CMR17-62" transform="translate(194.284936 0) scale(0.996264)"/>
      <use xlink:href="#CMR17-65" transform="translate(247.782744 0) scale(0.996264)"/>
      <use xlink:href="#CMR17-72" transform="translate(288.268404 0) scale(0.996264)"/>
      <use xlink:href="#CMR17-6f" transform="translate(353.625139 0) scale(0.996264)"/>
      <use xlink:href="#CMR17-66" transform="translate(399.315616 0) scale(0.996264)"/>
      <use xlink:href="#CMR17-76" transform="translate(456.865095 0) scale(0.996264)"/>
      <use xlink:href="#CMR17-6f" transform="translate(502.555556 0) scale(0.996264)"/>
      <use xlink:href="#CMR17-74" transform="translate(548.246034 0) scale(0.996264)"/>
      <use xlink:href="#CMR17-65" transform="translate(583.526801 0) scale(0.996264)"/>
      <use xlink:href="#CMR17-72" transform="translate(624.012462 0) scale(0.996264)"/>
      <use xlink:href="#CMR17-73" transform="translate(659.29323 0) scale(0.996264)"/>
     </g>
    </g>
   </g>
   <g id="matplotlib.axis_2">
    <g id="ytick_1">
     <g id="line2d_6">
      <path d="M 51.635416 368.512219 
L 704.88 368.512219 
" clip-path="url(#p822ce8aadd)" style="fill: none; stroke: #b0b0b0; stroke-opacity: 0.3; stroke-linecap: square"/>
     </g>
     <g id="line2d_7">
      <defs>
       <path id="me39f46283c" d="M 0 0 
L -3.5 0 
" style="stroke: #000000; stroke-width: 0.8"/>
      </defs>
      <g>
       <use xlink:href="#me39f46283c" x="51.635416" y="368.512219" style="stroke: #000000; stroke-width: 0.8"/>
      </g>
     </g>
     <g id="text_7">
      <!-- $\mathdefault{1.0}$ -->
      <g transform="translate(30.63234 372.317392) scale(0.11 -0.11)">
       <defs>
        <path id="CMR17-31" d="M 1702 4058 
C 1702 4192 1696 4192 1606 4192 
C 1357 3916 979 3827 621 3827 
C 602 3827 570 3827 563 3808 
C 557 3795 557 3782 557 3648 
C 755 3648 1088 3686 1344 3839 
L 1344 461 
C 1344 236 1331 160 781 160 
L 589 160 
L 589 0 
C 896 0 1216 0 1523 0 
C 1830 0 2150 0 2458 0 
L 2458 160 
L 2266 160 
C 1715 160 1702 230 1702 458 
L 1702 4058 
z
" transform="scale(0.015625)"/>
        <path id="CMMI12-3a" d="M 1178 307 
C 1178 492 1024 619 870 619 
C 685 619 557 466 557 313 
C 557 128 710 0 864 0 
C 1050 0 1178 153 1178 307 
z
" transform="scale(0.015625)"/>
        <path id="CMR17-30" d="M 2688 2025 
C 2688 2416 2682 3080 2413 3591 
C 2176 4039 1798 4198 1466 4198 
C 1158 4198 768 4058 525 3597 
C 269 3118 243 2524 243 2025 
C 243 1661 250 1106 448 619 
C 723 -39 1216 -128 1466 -128 
C 1760 -128 2208 -7 2470 600 
C 2662 1042 2688 1559 2688 2025 
z
M 1466 -26 
C 1056 -26 813 325 723 812 
C 653 1188 653 1738 653 2096 
C 653 2588 653 2997 736 3387 
C 858 3929 1216 4096 1466 4096 
C 1728 4096 2067 3923 2189 3400 
C 2272 3036 2278 2607 2278 2096 
C 2278 1680 2278 1169 2202 792 
C 2067 95 1690 -26 1466 -26 
z
" transform="scale(0.015625)"/>
       </defs>
       <use xlink:href="#CMR17-31" transform="scale(0.996264)"/>
       <use xlink:href="#CMMI12-3a" transform="translate(45.690477 0) scale(0.996264)"/>
       <use xlink:href="#CMR17-30" transform="translate(72.787654 0) scale(0.996264)"/>
      </g>
     </g>
    </g>
    <g id="ytick_2">
     <g id="line2d_8">
      <path d="M 51.635416 304.374514 
L 704.88 304.374514 
" clip-path="url(#p822ce8aadd)" style="fill: none; stroke: #b0b0b0; stroke-opacity: 0.3; stroke-linecap: square"/>
     </g>
     <g id="line2d_9">
      <g>
       <use xlink:href="#me39f46283c" x="51.635416" y="304.374514" style="stroke: #000000; stroke-width: 0.8"/>
      </g>
     </g>
     <g id="text_8">
      <!-- $\mathdefault{1.2}$ -->
      <g transform="translate(30.63234 308.179687) scale(0.11 -0.11)">
       <defs>
        <path id="CMR17-32" d="M 2669 989 
L 2554 989 
C 2490 536 2438 459 2413 420 
C 2381 369 1920 369 1830 369 
L 602 369 
C 832 619 1280 1072 1824 1597 
C 2214 1967 2669 2402 2669 3035 
C 2669 3790 2067 4224 1395 4224 
C 691 4224 262 3604 262 3030 
C 262 2780 448 2748 525 2748 
C 589 2748 781 2787 781 3010 
C 781 3207 614 3264 525 3264 
C 486 3264 448 3258 422 3245 
C 544 3790 915 4058 1306 4058 
C 1862 4058 2227 3617 2227 3035 
C 2227 2479 1901 2000 1536 1584 
L 262 146 
L 262 0 
L 2515 0 
L 2669 989 
z
" transform="scale(0.015625)"/>
       </defs>
       <use xlink:href="#CMR17-31" transform="scale(0.996264)"/>
       <use xlink:href="#CMMI12-3a" transform="translate(45.690477 0) scale(0.996264)"/>
       <use xlink:href="#CMR17-32" transform="translate(72.787654 0) scale(0.996264)"/>
      </g>
     </g>
    </g>
    <g id="ytick_3">
     <g id="line2d_10">
      <path d="M 51.635416 240.236809 
L 704.88 240.236809 
" clip-path="url(#p822ce8aadd)" style="fill: none; stroke: #b0b0b0; stroke-opacity: 0.3; stroke-linecap: square"/>
     </g>
     <g id="line2d_11">
      <g>
       <use xlink:href="#me39f46283c" x="51.635416" y="240.236809" style="stroke: #000000; stroke-width: 0.8"/>
      </g>
     </g>
     <g id="text_9">
      <!-- $\mathdefault{1.4}$ -->
      <g transform="translate(30.63234 244.041982) scale(0.11 -0.11)">
       <defs>
        <path id="CMR17-34" d="M 2150 4122 
C 2150 4256 2144 4256 2029 4256 
L 128 1254 
L 128 1088 
L 1779 1088 
L 1779 457 
C 1779 224 1766 160 1318 160 
L 1197 160 
L 1197 0 
C 1402 0 1747 0 1965 0 
C 2182 0 2528 0 2733 0 
L 2733 160 
L 2611 160 
C 2163 160 2150 224 2150 457 
L 2150 1088 
L 2803 1088 
L 2803 1254 
L 2150 1254 
L 2150 4122 
z
M 1798 3703 
L 1798 1254 
L 256 1254 
L 1798 3703 
z
" transform="scale(0.015625)"/>
       </defs>
       <use xlink:href="#CMR17-31" transform="scale(0.996264)"/>
       <use xlink:href="#CMMI12-3a" transform="translate(45.690477 0) scale(0.996264)"/>
       <use xlink:href="#CMR17-34" transform="translate(72.787654 0) scale(0.996264)"/>
      </g>
     </g>
    </g>
    <g id="ytick_4">
     <g id="line2d_12">
      <path d="M 51.635416 176.099103 
L 704.88 176.099103 
" clip-path="url(#p822ce8aadd)" style="fill: none; stroke: #b0b0b0; stroke-opacity: 0.3; stroke-linecap: square"/>
     </g>
     <g id="line2d_13">
      <g>
       <use xlink:href="#me39f46283c" x="51.635416" y="176.099103" style="stroke: #000000; stroke-width: 0.8"/>
      </g>
     </g>
     <g id="text_10">
      <!-- $\mathdefault{1.6}$ -->
      <g transform="translate(30.63234 179.904277) scale(0.11 -0.11)">
       <defs>
        <path id="CMR17-36" d="M 678 2176 
C 678 3690 1395 4032 1811 4032 
C 1946 4032 2272 4009 2400 3776 
C 2298 3776 2106 3776 2106 3553 
C 2106 3381 2246 3323 2336 3323 
C 2394 3323 2566 3348 2566 3560 
C 2566 3954 2246 4179 1805 4179 
C 1043 4179 243 3390 243 1984 
C 243 253 966 -128 1478 -128 
C 2099 -128 2688 427 2688 1283 
C 2688 2081 2170 2662 1517 2662 
C 1126 2662 838 2407 678 1960 
L 678 2176 
z
M 1478 25 
C 691 25 691 1200 691 1436 
C 691 1896 909 2560 1504 2560 
C 1613 2560 1926 2560 2138 2120 
C 2253 1870 2253 1609 2253 1289 
C 2253 944 2253 690 2118 434 
C 1978 171 1773 25 1478 25 
z
" transform="scale(0.015625)"/>
       </defs>
       <use xlink:href="#CMR17-31" transform="scale(0.996264)"/>
       <use xlink:href="#CMMI12-3a" transform="translate(45.690477 0) scale(0.996264)"/>
       <use xlink:href="#CMR17-36" transform="translate(72.787654 0) scale(0.996264)"/>
      </g>
     </g>
    </g>
    <g id="ytick_5">
     <g id="line2d_14">
      <path d="M 51.635416 111.961398 
L 704.88 111.961398 
" clip-path="url(#p822ce8aadd)" style="fill: none; stroke: #b0b0b0; stroke-opacity: 0.3; stroke-linecap: square"/>
     </g>
     <g id="line2d_15">
      <g>
       <use xlink:href="#me39f46283c" x="51.635416" y="111.961398" style="stroke: #000000; stroke-width: 0.8"/>
      </g>
     </g>
     <g id="text_11">
      <!-- $\mathdefault{1.8}$ -->
      <g transform="translate(30.63234 115.766572) scale(0.11 -0.11)">
       <defs>
        <path id="CMR17-38" d="M 1741 2264 
C 2144 2467 2554 2773 2554 3263 
C 2554 3841 1990 4179 1472 4179 
C 890 4179 378 3759 378 3180 
C 378 3021 416 2747 666 2505 
C 730 2442 998 2251 1171 2130 
C 883 1983 211 1634 211 934 
C 211 279 838 -128 1459 -128 
C 2144 -128 2720 362 2720 1010 
C 2720 1590 2330 1857 2074 2029 
L 1741 2264 
z
M 902 2822 
C 851 2854 595 3051 595 3351 
C 595 3739 998 4032 1459 4032 
C 1965 4032 2336 3676 2336 3262 
C 2336 2669 1670 2331 1638 2331 
C 1632 2331 1626 2331 1574 2370 
L 902 2822 
z
M 2080 1519 
C 2176 1449 2483 1240 2483 851 
C 2483 381 2010 25 1472 25 
C 890 25 448 438 448 940 
C 448 1443 838 1862 1280 2060 
L 2080 1519 
z
" transform="scale(0.015625)"/>
       </defs>
       <use xlink:href="#CMR17-31" transform="scale(0.996264)"/>
       <use xlink:href="#CMMI12-3a" transform="translate(45.690477 0) scale(0.996264)"/>
       <use xlink:href="#CMR17-38" transform="translate(72.787654 0) scale(0.996264)"/>
      </g>
     </g>
    </g>
    <g id="ytick_6">
     <g id="line2d_16">
      <path d="M 51.635416 47.823693 
L 704.88 47.823693 
" clip-path="url(#p822ce8aadd)" style="fill: none; stroke: #b0b0b0; stroke-opacity: 0.3; stroke-linecap: square"/>
     </g>
     <g id="line2d_17">
      <g>
       <use xlink:href="#me39f46283c" x="51.635416" y="47.823693" style="stroke: #000000; stroke-width: 0.8"/>
      </g>
     </g>
     <g id="text_12">
      <!-- $\mathdefault{2.0}$ -->
      <g transform="translate(30.63234 51.628866) scale(0.11 -0.11)">
       <use xlink:href="#CMR17-32" transform="scale(0.996264)"/>
       <use xlink:href="#CMMI12-3a" transform="translate(45.690477 0) scale(0.996264)"/>
       <use xlink:href="#CMR17-30" transform="translate(72.787654 0) scale(0.996264)"/>
      </g>
     </g>
    </g>
    <g id="text_13">
     <!-- Distortion -->
     <g transform="translate(24.114028 235.497321) rotate(-90) scale(0.13 -0.13)">
      <defs>
       <path id="CMR17-44" d="M 333 4352 
L 333 4186 
C 774 4186 845 4186 845 3900 
L 845 452 
C 845 166 774 166 333 166 
L 333 0 
L 2368 0 
C 3398 0 4224 943 4224 2141 
C 4224 3346 3411 4352 2368 4352 
L 333 4352 
z
M 1523 166 
C 1267 166 1254 197 1254 414 
L 1254 3938 
C 1254 4155 1267 4186 1523 4186 
L 2240 4186 
C 2771 4186 3750 3874 3750 2141 
C 3750 1242 3488 879 3366 707 
C 3213 510 2848 166 2240 166 
L 1523 166 
z
" transform="scale(0.015625)"/>
      </defs>
      <use xlink:href="#CMR17-44" transform="scale(0.996264)"/>
      <use xlink:href="#CMR17-69" transform="translate(70.393556 0) scale(0.996264)"/>
      <use xlink:href="#CMR17-73" transform="translate(95.264614 0) scale(0.996264)"/>
      <use xlink:href="#CMR17-74" transform="translate(131.065952 0) scale(0.996264)"/>
      <use xlink:href="#CMR17-6f" transform="translate(166.34672 0) scale(0.996264)"/>
      <use xlink:href="#CMR17-72" transform="translate(212.037197 0) scale(0.996264)"/>
      <use xlink:href="#CMR17-74" transform="translate(247.317965 0) scale(0.996264)"/>
      <use xlink:href="#CMR17-69" transform="translate(282.598733 0) scale(0.996264)"/>
      <use xlink:href="#CMR17-6f" transform="translate(307.469791 0) scale(0.996264)"/>
      <use xlink:href="#CMR17-6e" transform="translate(353.160268 0) scale(0.996264)"/>
     </g>
    </g>
   </g>
   <g id="LineCollection_1">
    <path d="M 97.824427 360.615377 
L 130.816578 360.615377 
" clip-path="url(#p822ce8aadd)" style="fill: none; stroke: #1f77b4; stroke-width: 1.5"/>
    <path d="M 229.79303 361.405407 
L 262.785181 361.405407 
" clip-path="url(#p822ce8aadd)" style="fill: none; stroke: #1f77b4; stroke-width: 1.5"/>
    <path d="M 361.761633 341.851457 
L 394.753784 341.851457 
" clip-path="url(#p822ce8aadd)" style="fill: none; stroke: #1f77b4; stroke-width: 1.5"/>
    <path d="M 493.730236 363.065349 
L 526.722386 363.065349 
" clip-path="url(#p822ce8aadd)" style="fill: none; stroke: #1f77b4; stroke-width: 1.5"/>
    <path d="M 625.698838 347.196325 
L 658.690989 347.196325 
" clip-path="url(#p822ce8aadd)" style="fill: none; stroke: #1f77b4; stroke-width: 1.5"/>
   </g>
   <g id="LineCollection_2">
    <path d="M 97.824427 141.878986 
L 130.816578 141.878986 
" clip-path="url(#p822ce8aadd)" style="fill: none; stroke: #1f77b4; stroke-width: 1.5"/>
    <path d="M 229.79303 272.868273 
L 262.785181 272.868273 
" clip-path="url(#p822ce8aadd)" style="fill: none; stroke: #1f77b4; stroke-width: 1.5"/>
    <path d="M 361.761633 91.505519 
L 394.753784 91.505519 
" clip-path="url(#p822ce8aadd)" style="fill: none; stroke: #1f77b4; stroke-width: 1.5"/>
    <path d="M 493.730236 224.264291 
L 526.722386 224.264291 
" clip-path="url(#p822ce8aadd)" style="fill: none; stroke: #1f77b4; stroke-width: 1.5"/>
    <path d="M 625.698838 46.228228 
L 658.690989 46.228228 
" clip-path="url(#p822ce8aadd)" style="fill: none; stroke: #1f77b4; stroke-width: 1.5"/>
   </g>
   <g id="LineCollection_3">
    <path d="M 97.824427 368.512219 
L 130.816578 368.512219 
" clip-path="url(#p822ce8aadd)" style="fill: none; stroke: #1f77b4; stroke-width: 1.5"/>
    <path d="M 229.79303 368.512219 
L 262.785181 368.512219 
" clip-path="url(#p822ce8aadd)" style="fill: none; stroke: #1f77b4; stroke-width: 1.5"/>
    <path d="M 361.761633 368.512219 
L 394.753784 368.512219 
" clip-path="url(#p822ce8aadd)" style="fill: none; stroke: #1f77b4; stroke-width: 1.5"/>
    <path d="M 493.730236 368.512219 
L 526.722386 368.512219 
" clip-path="url(#p822ce8aadd)" style="fill: none; stroke: #1f77b4; stroke-width: 1.5"/>
    <path d="M 625.698838 368.512219 
L 658.690989 368.512219 
" clip-path="url(#p822ce8aadd)" style="fill: none; stroke: #1f77b4; stroke-width: 1.5"/>
   </g>
   <g id="LineCollection_4">
    <path d="M 114.320503 368.512219 
L 114.320503 141.878986 
" clip-path="url(#p822ce8aadd)" style="fill: none; stroke: #1f77b4; stroke-width: 1.5"/>
    <path d="M 246.289105 368.512219 
L 246.289105 272.868273 
" clip-path="url(#p822ce8aadd)" style="fill: none; stroke: #1f77b4; stroke-width: 1.5"/>
    <path d="M 378.257708 368.512219 
L 378.257708 91.505519 
" clip-path="url(#p822ce8aadd)" style="fill: none; stroke: #1f77b4; stroke-width: 1.5"/>
    <path d="M 510.226311 368.512219 
L 510.226311 224.264291 
" clip-path="url(#p822ce8aadd)" style="fill: none; stroke: #1f77b4; stroke-width: 1.5"/>
    <path d="M 642.194914 368.512219 
L 642.194914 46.228228 
" clip-path="url(#p822ce8aadd)" style="fill: none; stroke: #1f77b4; stroke-width: 1.5"/>
   </g>
   <g id="patch_3">
    <path d="M 51.635416 384.626418 
L 51.635416 30.114028 
" style="fill: none; stroke: #000000; stroke-linejoin: miter; stroke-linecap: square"/>
   </g>
   <g id="patch_4">
    <path d="M 704.88 384.626418 
L 704.88 30.114028 
" style="fill: none; stroke: #000000; stroke-linejoin: miter; stroke-linecap: square"/>
   </g>
   <g id="patch_5">
    <path d="M 51.635416 384.626418 
L 704.88 384.626418 
" style="fill: none; stroke: #000000; stroke-linejoin: miter; stroke-linecap: square"/>
   </g>
   <g id="patch_6">
    <path d="M 51.635416 30.114028 
L 704.88 30.114028 
" style="fill: none; stroke: #000000; stroke-linejoin: miter; stroke-linecap: square"/>
   </g>
   <g id="text_14">
    <!-- Distortion Under Utiliratian -->
    <g transform="translate(299.76145 24.114028) scale(0.13 -0.13)">
     <defs>
      <path id="CMR17-55" d="M 3456 1433 
C 3456 579 2899 38 2291 38 
C 1965 38 1670 210 1491 477 
C 1286 783 1261 1178 1261 1401 
L 1261 3874 
C 1261 4160 1331 4160 1773 4160 
L 1773 4320 
C 1587 4320 1248 4320 1050 4320 
C 851 4320 512 4320 326 4320 
L 326 4160 
C 768 4160 838 4160 838 3874 
L 838 1433 
C 838 516 1536 -128 2278 -128 
C 3110 -128 3590 719 3590 1344 
L 3590 3766 
C 3590 4122 3917 4160 4102 4160 
L 4102 4326 
C 3955 4320 3686 4320 3526 4320 
C 3366 4320 3091 4320 2944 4326 
L 2944 4160 
C 3456 4160 3456 3861 3456 3702 
L 3456 1433 
z
" transform="scale(0.015625)"/>
     </defs>
     <use xlink:href="#CMR17-44" transform="scale(0.996264)"/>
     <use xlink:href="#CMR17-69" transform="translate(70.393556 0) scale(0.996264)"/>
     <use xlink:href="#CMR17-73" transform="translate(95.264614 0) scale(0.996264)"/>
     <use xlink:href="#CMR17-74" transform="translate(131.065952 0) scale(0.996264)"/>
     <use xlink:href="#CMR17-6f" transform="translate(166.34672 0) scale(0.996264)"/>
     <use xlink:href="#CMR17-72" transform="translate(212.037197 0) scale(0.996264)"/>
     <use xlink:href="#CMR17-74" transform="translate(247.317965 0) scale(0.996264)"/>
     <use xlink:href="#CMR17-69" transform="translate(282.598733 0) scale(0.996264)"/>
     <use xlink:href="#CMR17-6f" transform="translate(307.469791 0) scale(0.996264)"/>
     <use xlink:href="#CMR17-6e" transform="translate(353.160268 0) scale(0.996264)"/>
     <use xlink:href="#CMR17-55" transform="translate(434.131604 0) scale(0.996264)"/>
     <use xlink:href="#CMR17-6e" transform="translate(503.204034 0) scale(0.996264)"/>
     <use xlink:href="#CMR17-64" transform="translate(554.099404 0) scale(0.996264)"/>
     <use xlink:href="#CMR17-65" transform="translate(604.994774 0) scale(0.996264)"/>
     <use xlink:href="#CMR17-72" transform="translate(645.480434 0) scale(0.996264)"/>
     <use xlink:href="#CMR17-55" transform="translate(710.837168 0) scale(0.996264)"/>
     <use xlink:href="#CMR17-74" transform="translate(779.909598 0) scale(0.996264)"/>
     <use xlink:href="#CMR17-69" transform="translate(815.190366 0) scale(0.996264)"/>
     <use xlink:href="#CMR17-6c" transform="translate(840.061424 0) scale(0.996264)"/>
     <use xlink:href="#CMR17-69" transform="translate(864.932483 0) scale(0.996264)"/>
     <use xlink:href="#CMR17-72" transform="translate(889.803541 0) scale(0.996264)"/>
     <use xlink:href="#CMR17-61" transform="translate(925.084309 0) scale(0.996264)"/>
     <use xlink:href="#CMR17-74" transform="translate(970.774786 0) scale(0.996264)"/>
     <use xlink:href="#CMR17-69" transform="translate(1006.055554 0) scale(0.996264)"/>
     <use xlink:href="#CMR17-61" transform="translate(1030.926612 0) scale(0.996264)"/>
     <use xlink:href="#CMR17-6e" transform="translate(1076.61709 0) scale(0.996264)"/>
    </g>
   </g>
  </g>
 </g>
 <defs>
  <clipPath id="p822ce8aadd">
   <rect x="51.635416" y="30.114028" width="653.244584" height="354.51239"/>
  </clipPath>
 </defs>
</svg>
