<?xml version="1.0" encoding="utf-8" standalone="no"?>
<!DOCTYPE svg PUBLIC "-//W3C//DTD SVG 1.1//EN"
  "http://www.w3.org/Graphics/SVG/1.1/DTD/svg11.dtd">
<svg xmlns:xlink="http://www.w3.org/1999/xlink" width="720pt" height="432pt" viewBox="0 0 720 432" xmlns="http://www.w3.org/2000/svg" version="1.1">
 <metadata>
  <rdf:RDF xmlns:dc="http://purl.org/dc/elements/1.1/" xmlns:cc="http://creativecommons.org/ns#" xmlns:rdf="http://www.w3.org/1999/02/22-rdf-syntax-ns#">
   <cc:Work>
    <dc:type rdf:resource="http://purl.org/dc/dcmitype/StillImage"/>
    <dc:date>2024-12-09T17:37:57.369605</dc:date>
    <dc:format>image/svg+xml</dc:format>
    <dc:creator>
     <cc:Agent>
      <dc:title>Matplotlib v3.9.2, https://matplotlib.org/</dc:title>
     </cc:Agent>
    </dc:creator>
   </cc:Work>
  </rdf:RDF>
 </metadata>
 <defs>
  <style type="text/css">*{stroke-linejoin: round; stroke-linecap: butt}</style>
 </defs>
 <g id="figure_1">
  <g id="patch_1">
   <path d="M 0 432 
L 720 432 
L 720 0 
L 0 0 
z
" style="fill: #ffffff"/>
  </g>
  <g id="axes_1">
   <g id="patch_2">
    <path d="M 51.635416 384.626418 
L 704.88 384.626418 
L 704.88 30.114028 
L 51.635416 30.114028 
z
" style="fill: #ffffff"/>
   </g>
   <g id="PolyCollection_1">
    <defs>
     <path id="m76f31b172a" d="M 147.312653 -63.487781 
L 81.328352 -63.487781 
L 81.685757 -63.906149 
L 82.843011 -64.324517 
L 84.710403 -64.742885 
L 87.1501 -65.161253 
L 89.992604 -65.579622 
L 93.055829 -65.99799 
L 96.163825 -66.416358 
L 99.162561 -66.834726 
L 101.930931 -67.253094 
L 104.386213 -67.671462 
L 106.484196 -68.08983 
L 108.214989 -68.508198 
L 109.595972 -68.926566 
L 110.663477 -69.344934 
L 111.464547 -69.763302 
L 112.049783 -70.18167 
L 112.467839 -70.600038 
L 112.761731 -71.018407 
L 112.966829 -71.436775 
L 113.110249 -71.855143 
L 113.211263 -72.273511 
L 113.282386 -72.691879 
L 113.330818 -73.110247 
L 113.360019 -73.528615 
L 113.371211 -73.946983 
L 113.364694 -74.365351 
L 113.340886 -74.783719 
L 113.30103 -75.202087 
L 113.247559 -75.620455 
L 113.184148 -76.038824 
L 113.115486 -76.457192 
L 113.046862 -76.87556 
L 112.983644 -77.293928 
L 112.930747 -77.712296 
L 112.892169 -78.130664 
L 112.870661 -78.549032 
L 112.867556 -78.9674 
L 112.882778 -79.385768 
L 112.914995 -79.804136 
L 112.96188 -80.222504 
L 113.020437 -80.640872 
L 113.087335 -81.05924 
L 113.159213 -81.477609 
L 113.232924 -81.895977 
L 113.305728 -82.314345 
L 113.375403 -82.732713 
L 113.440322 -83.151081 
L 113.499476 -83.569449 
L 113.552473 -83.987817 
L 113.5995 -84.406185 
L 113.641249 -84.824553 
L 113.678803 -85.242921 
L 113.713481 -85.661289 
L 113.746644 -86.079657 
L 113.779489 -86.498026 
L 113.812854 -86.916394 
L 113.847064 -87.334762 
L 113.881848 -87.75313 
L 113.916348 -88.171498 
L 113.949222 -88.589866 
L 113.978826 -89.008234 
L 114.003457 -89.426602 
L 114.021615 -89.84497 
L 114.032253 -90.263338 
L 114.034971 -90.681706 
L 114.030133 -91.100074 
L 114.018879 -91.518442 
L 114.003045 -91.936811 
L 113.984981 -92.355179 
L 113.967304 -92.773547 
L 113.95261 -93.191915 
L 113.943189 -93.610283 
L 113.940772 -94.028651 
L 113.946359 -94.447019 
L 113.960136 -94.865387 
L 113.981493 -95.283755 
L 114.009138 -95.702123 
L 114.041275 -96.120491 
L 114.075825 -96.538859 
L 114.110641 -96.957228 
L 114.143696 -97.375596 
L 114.173221 -97.793964 
L 114.197782 -98.212332 
L 114.216303 -98.6307 
L 114.228044 -99.049068 
L 114.232576 -99.467436 
L 114.229741 -99.885804 
L 114.219638 -100.304172 
L 114.202637 -100.72254 
L 114.179408 -101.140908 
L 114.150956 -101.559276 
L 114.118651 -101.977644 
L 114.084218 -102.396013 
L 114.049679 -102.814381 
L 114.01724 -103.232749 
L 113.989121 -103.651117 
L 113.96736 -104.069485 
L 113.953601 -104.487853 
L 113.948921 -104.906221 
L 114.692084 -104.906221 
L 114.692084 -104.906221 
L 114.687404 -104.487853 
L 114.673646 -104.069485 
L 114.651885 -103.651117 
L 114.623766 -103.232749 
L 114.591326 -102.814381 
L 114.556787 -102.396013 
L 114.522354 -101.977644 
L 114.49005 -101.559276 
L 114.461598 -101.140908 
L 114.438368 -100.72254 
L 114.421368 -100.304172 
L 114.411265 -99.885804 
L 114.408429 -99.467436 
L 114.412961 -99.049068 
L 114.424703 -98.6307 
L 114.443223 -98.212332 
L 114.467784 -97.793964 
L 114.49731 -97.375596 
L 114.530365 -96.957228 
L 114.56518 -96.538859 
L 114.59973 -96.120491 
L 114.631868 -95.702123 
L 114.659513 -95.283755 
L 114.68087 -94.865387 
L 114.694647 -94.447019 
L 114.700234 -94.028651 
L 114.697817 -93.610283 
L 114.688395 -93.191915 
L 114.673701 -92.773547 
L 114.656024 -92.355179 
L 114.63796 -91.936811 
L 114.622126 -91.518442 
L 114.610872 -91.100074 
L 114.606034 -90.681706 
L 114.608753 -90.263338 
L 114.619391 -89.84497 
L 114.637549 -89.426602 
L 114.662179 -89.008234 
L 114.691783 -88.589866 
L 114.724657 -88.171498 
L 114.759158 -87.75313 
L 114.793941 -87.334762 
L 114.828151 -86.916394 
L 114.861516 -86.498026 
L 114.894362 -86.079657 
L 114.927525 -85.661289 
L 114.962203 -85.242921 
L 114.999757 -84.824553 
L 115.041506 -84.406185 
L 115.088533 -83.987817 
L 115.14153 -83.569449 
L 115.200684 -83.151081 
L 115.265603 -82.732713 
L 115.335278 -82.314345 
L 115.408081 -81.895977 
L 115.481793 -81.477609 
L 115.55367 -81.05924 
L 115.620568 -80.640872 
L 115.679126 -80.222504 
L 115.72601 -79.804136 
L 115.758227 -79.385768 
L 115.77345 -78.9674 
L 115.770345 -78.549032 
L 115.748836 -78.130664 
L 115.710259 -77.712296 
L 115.657362 -77.293928 
L 115.594144 -76.87556 
L 115.52552 -76.457192 
L 115.456857 -76.038824 
L 115.393446 -75.620455 
L 115.339976 -75.202087 
L 115.300119 -74.783719 
L 115.276312 -74.365351 
L 115.269795 -73.946983 
L 115.280986 -73.528615 
L 115.310187 -73.110247 
L 115.35862 -72.691879 
L 115.429742 -72.273511 
L 115.530756 -71.855143 
L 115.674176 -71.436775 
L 115.879274 -71.018407 
L 116.173166 -70.600038 
L 116.591223 -70.18167 
L 117.176459 -69.763302 
L 117.977528 -69.344934 
L 119.045033 -68.926566 
L 120.426017 -68.508198 
L 122.156809 -68.08983 
L 124.254793 -67.671462 
L 126.710075 -67.253094 
L 129.478444 -66.834726 
L 132.47718 -66.416358 
L 135.585177 -65.99799 
L 138.648401 -65.579622 
L 141.490906 -65.161253 
L 143.930602 -64.742885 
L 145.797995 -64.324517 
L 146.955249 -63.906149 
L 147.312653 -63.487781 
z
" style="stroke: #000000; stroke-opacity: 0.4"/>
    </defs>
    <g clip-path="url(#p64c61ef990)">
     <use xlink:href="#m76f31b172a" x="0" y="432" style="fill: #440154; fill-opacity: 0.4; stroke: #000000; stroke-opacity: 0.4"/>
    </g>
   </g>
   <g id="PolyCollection_2">
    <defs>
     <path id="mf98ea49b3f" d="M 279.281256 -63.487781 
L 213.296955 -63.487781 
L 213.512135 -64.293554 
L 214.449562 -65.099326 
L 216.031392 -65.905099 
L 218.138543 -66.710872 
L 220.6245 -67.516644 
L 223.33136 -68.322417 
L 226.105746 -69.12819 
L 228.812395 -69.933962 
L 231.343878 -70.739735 
L 233.625646 -71.545508 
L 235.616478 -72.35128 
L 237.305058 -73.157053 
L 238.703892 -73.962825 
L 239.841935 -74.768598 
L 240.757176 -75.574371 
L 241.490184 -76.380143 
L 242.079218 -77.185916 
L 242.557111 -77.991689 
L 242.949854 -78.797461 
L 243.276541 -79.603234 
L 243.550279 -80.409007 
L 243.77961 -81.214779 
L 243.97008 -82.020552 
L 244.125685 -82.826325 
L 244.249994 -83.632097 
L 244.346897 -84.43787 
L 244.420957 -85.243642 
L 244.477425 -86.049415 
L 244.521989 -86.855188 
L 244.560366 -87.66096 
L 244.597813 -88.466733 
L 244.638665 -89.272506 
L 244.685952 -90.078278 
L 244.741168 -90.884051 
L 244.804226 -91.689824 
L 244.873586 -92.495596 
L 244.94657 -93.301369 
L 245.01981 -94.107142 
L 245.089762 -94.912914 
L 245.153244 -95.718687 
L 245.2079 -96.524459 
L 245.252538 -97.330232 
L 245.287304 -98.136005 
L 245.313652 -98.941777 
L 245.334139 -99.74755 
L 245.352059 -100.553323 
L 245.370993 -101.359095 
L 245.394327 -102.164868 
L 245.424821 -102.970641 
L 245.464277 -103.776413 
L 245.513363 -104.582186 
L 245.571595 -105.387959 
L 245.637466 -106.193731 
L 245.708702 -106.999504 
L 245.78258 -107.805277 
L 245.856266 -108.611049 
L 245.927124 -109.416822 
L 245.992953 -110.222594 
L 246.052136 -111.028367 
L 246.103698 -111.83414 
L 246.147279 -112.639912 
L 246.183044 -113.445685 
L 246.21156 -114.251458 
L 246.233651 -115.05723 
L 246.250272 -115.863003 
L 246.262388 -116.668776 
L 246.270892 -117.474548 
L 246.276543 -118.280321 
L 246.279933 -119.086094 
L 246.281467 -119.891866 
L 246.281361 -120.697639 
L 246.279649 -121.503411 
L 246.276191 -122.309184 
L 246.270692 -123.114957 
L 246.262728 -123.920729 
L 246.251776 -124.726502 
L 246.237269 -125.532275 
L 246.218649 -126.338047 
L 246.195443 -127.14382 
L 246.167342 -127.949593 
L 246.134273 -128.755365 
L 246.096465 -129.561138 
L 246.05448 -130.366911 
L 246.009221 -131.172683 
L 245.961885 -131.978456 
L 245.913893 -132.784228 
L 245.866784 -133.590001 
L 245.822097 -134.395774 
L 245.781261 -135.201546 
L 245.745513 -136.007319 
L 245.715841 -136.813092 
L 245.692975 -137.618864 
L 245.677408 -138.424637 
L 245.669436 -139.23041 
L 245.669195 -140.036182 
L 245.676689 -140.841955 
L 245.69179 -141.647728 
L 245.714214 -142.4535 
L 245.743482 -143.259273 
L 246.834729 -143.259273 
L 246.834729 -143.259273 
L 246.863997 -142.4535 
L 246.886421 -141.647728 
L 246.901522 -140.841955 
L 246.909016 -140.036182 
L 246.908775 -139.23041 
L 246.900803 -138.424637 
L 246.885236 -137.618864 
L 246.86237 -136.813092 
L 246.832698 -136.007319 
L 246.79695 -135.201546 
L 246.756114 -134.395774 
L 246.711427 -133.590001 
L 246.664317 -132.784228 
L 246.616326 -131.978456 
L 246.56899 -131.172683 
L 246.523731 -130.366911 
L 246.481746 -129.561138 
L 246.443938 -128.755365 
L 246.410869 -127.949593 
L 246.382768 -127.14382 
L 246.359562 -126.338047 
L 246.340942 -125.532275 
L 246.326435 -124.726502 
L 246.315483 -123.920729 
L 246.307519 -123.114957 
L 246.30202 -122.309184 
L 246.298562 -121.503411 
L 246.29685 -120.697639 
L 246.296744 -119.891866 
L 246.298278 -119.086094 
L 246.301668 -118.280321 
L 246.307319 -117.474548 
L 246.315823 -116.668776 
L 246.327939 -115.863003 
L 246.34456 -115.05723 
L 246.366651 -114.251458 
L 246.395166 -113.445685 
L 246.430932 -112.639912 
L 246.474513 -111.83414 
L 246.526075 -111.028367 
L 246.585258 -110.222594 
L 246.651087 -109.416822 
L 246.721945 -108.611049 
L 246.795631 -107.805277 
L 246.869509 -106.999504 
L 246.940745 -106.193731 
L 247.006616 -105.387959 
L 247.064848 -104.582186 
L 247.113934 -103.776413 
L 247.15339 -102.970641 
L 247.183884 -102.164868 
L 247.207218 -101.359095 
L 247.226152 -100.553323 
L 247.244072 -99.74755 
L 247.264559 -98.941777 
L 247.290907 -98.136005 
L 247.325673 -97.330232 
L 247.370311 -96.524459 
L 247.424967 -95.718687 
L 247.488449 -94.912914 
L 247.558401 -94.107142 
L 247.631641 -93.301369 
L 247.704625 -92.495596 
L 247.773985 -91.689824 
L 247.837043 -90.884051 
L 247.892259 -90.078278 
L 247.939546 -89.272506 
L 247.980397 -88.466733 
L 248.017845 -87.66096 
L 248.056222 -86.855188 
L 248.100786 -86.049415 
L 248.157254 -85.243642 
L 248.231314 -84.43787 
L 248.328217 -83.632097 
L 248.452526 -82.826325 
L 248.608131 -82.020552 
L 248.798601 -81.214779 
L 249.027932 -80.409007 
L 249.30167 -79.603234 
L 249.628357 -78.797461 
L 250.0211 -77.991689 
L 250.498993 -77.185916 
L 251.088027 -76.380143 
L 251.821035 -75.574371 
L 252.736276 -74.768598 
L 253.874319 -73.962825 
L 255.273153 -73.157053 
L 256.961733 -72.35128 
L 258.952565 -71.545508 
L 261.234333 -70.739735 
L 263.765816 -69.933962 
L 266.472465 -69.12819 
L 269.24685 -68.322417 
L 271.953711 -67.516644 
L 274.439667 -66.710872 
L 276.546819 -65.905099 
L 278.128649 -65.099326 
L 279.066076 -64.293554 
L 279.281256 -63.487781 
z
" style="stroke: #000000; stroke-opacity: 0.4"/>
    </defs>
    <g clip-path="url(#p64c61ef990)">
     <use xlink:href="#mf98ea49b3f" x="0" y="432" style="fill: #3b528b; fill-opacity: 0.4; stroke: #000000; stroke-opacity: 0.4"/>
    </g>
   </g>
   <g id="PolyCollection_3">
    <defs>
     <path id="m736d1a2d44" d="M 411.113522 -63.487781 
L 345.401894 -63.487781 
L 345.265558 -66.743175 
L 345.637883 -69.998569 
L 346.48365 -73.253963 
L 347.744119 -76.509357 
L 349.342264 -79.76475 
L 351.189298 -83.020144 
L 353.19177 -86.275538 
L 355.258444 -89.530932 
L 357.306324 -92.786326 
L 359.265312 -96.04172 
L 361.081221 -99.297113 
L 362.717065 -102.552507 
L 364.152788 -105.807901 
L 365.383676 -109.063295 
L 366.417853 -112.318689 
L 367.273233 -115.574083 
L 367.974314 -118.829477 
L 368.549115 -122.08487 
L 369.026486 -125.340264 
L 369.43393 -128.595658 
L 369.796009 -131.851052 
L 370.133317 -135.106446 
L 370.461977 -138.36184 
L 370.793579 -141.617234 
L 371.135457 -144.872627 
L 371.491202 -148.128021 
L 371.861317 -151.383415 
L 372.243929 -154.638809 
L 372.635481 -157.894203 
L 373.031361 -161.149597 
L 373.426442 -164.40499 
L 373.815502 -167.660384 
L 374.193544 -170.915778 
L 374.556018 -174.171172 
L 374.898971 -177.426566 
L 375.219133 -180.68196 
L 375.513975 -183.937354 
L 375.781742 -187.192747 
L 376.021469 -190.448141 
L 376.232984 -193.703535 
L 376.416895 -196.958929 
L 376.574554 -200.214323 
L 376.707987 -203.469717 
L 376.819792 -206.725111 
L 376.913007 -209.980504 
L 376.990937 -213.235898 
L 377.05697 -216.491292 
L 377.114378 -219.746686 
L 377.166127 -223.00208 
L 377.214706 -226.257474 
L 377.261995 -229.512867 
L 377.309178 -232.768261 
L 377.356711 -236.023655 
L 377.404341 -239.279049 
L 377.451188 -242.534443 
L 377.495859 -245.789837 
L 377.536607 -249.045231 
L 377.571509 -252.300624 
L 377.598649 -255.556018 
L 377.616294 -258.811412 
L 377.62305 -262.066806 
L 377.617993 -265.3222 
L 377.600756 -268.577594 
L 377.571581 -271.832988 
L 377.531336 -275.088381 
L 377.481483 -278.343775 
L 377.424025 -281.599169 
L 377.36142 -284.854563 
L 377.296473 -288.109957 
L 377.232209 -291.365351 
L 377.171736 -294.620744 
L 377.11809 -297.876138 
L 377.074084 -301.131532 
L 377.042156 -304.386926 
L 377.024219 -307.64232 
L 377.021538 -310.897714 
L 377.034636 -314.153108 
L 377.063235 -317.408501 
L 377.106249 -320.663895 
L 377.161834 -323.919289 
L 377.227491 -327.174683 
L 377.300217 -330.430077 
L 377.3767 -333.685471 
L 377.453536 -336.940865 
L 377.527455 -340.196258 
L 377.595539 -343.451652 
L 377.655399 -346.707046 
L 377.705325 -349.96244 
L 377.744371 -353.217834 
L 377.772381 -356.473228 
L 377.789962 -359.728622 
L 377.798396 -362.984015 
L 377.79951 -366.239409 
L 377.795505 -369.494803 
L 377.788774 -372.750197 
L 377.781709 -376.005591 
L 377.776516 -379.260985 
L 377.775068 -382.516378 
L 377.778777 -385.771772 
L 378.73664 -385.771772 
L 378.73664 -385.771772 
L 378.740349 -382.516378 
L 378.7389 -379.260985 
L 378.733708 -376.005591 
L 378.726642 -372.750197 
L 378.719911 -369.494803 
L 378.715907 -366.239409 
L 378.71702 -362.984015 
L 378.725455 -359.728622 
L 378.743036 -356.473228 
L 378.771046 -353.217834 
L 378.810091 -349.96244 
L 378.860018 -346.707046 
L 378.919878 -343.451652 
L 378.987961 -340.196258 
L 379.061881 -336.940865 
L 379.138716 -333.685471 
L 379.215199 -330.430077 
L 379.287925 -327.174683 
L 379.353582 -323.919289 
L 379.409168 -320.663895 
L 379.452182 -317.408501 
L 379.48078 -314.153108 
L 379.493878 -310.897714 
L 379.491198 -307.64232 
L 379.47326 -304.386926 
L 379.441332 -301.131532 
L 379.397327 -297.876138 
L 379.343681 -294.620744 
L 379.283207 -291.365351 
L 379.218943 -288.109957 
L 379.153996 -284.854563 
L 379.091392 -281.599169 
L 379.033934 -278.343775 
L 378.98408 -275.088381 
L 378.943835 -271.832988 
L 378.914661 -268.577594 
L 378.897423 -265.3222 
L 378.892366 -262.066806 
L 378.899122 -258.811412 
L 378.916767 -255.556018 
L 378.943907 -252.300624 
L 378.97881 -249.045231 
L 379.019558 -245.789837 
L 379.064228 -242.534443 
L 379.111075 -239.279049 
L 379.158706 -236.023655 
L 379.206239 -232.768261 
L 379.253422 -229.512867 
L 379.300711 -226.257474 
L 379.34929 -223.00208 
L 379.401038 -219.746686 
L 379.458446 -216.491292 
L 379.524479 -213.235898 
L 379.602409 -209.980504 
L 379.695624 -206.725111 
L 379.80743 -203.469717 
L 379.940862 -200.214323 
L 380.098521 -196.958929 
L 380.282433 -193.703535 
L 380.493948 -190.448141 
L 380.733674 -187.192747 
L 381.001441 -183.937354 
L 381.296284 -180.68196 
L 381.616445 -177.426566 
L 381.959398 -174.171172 
L 382.321873 -170.915778 
L 382.699915 -167.660384 
L 383.088974 -164.40499 
L 383.484055 -161.149597 
L 383.879936 -157.894203 
L 384.271487 -154.638809 
L 384.654099 -151.383415 
L 385.024215 -148.128021 
L 385.37996 -144.872627 
L 385.721837 -141.617234 
L 386.05344 -138.36184 
L 386.3821 -135.106446 
L 386.719408 -131.851052 
L 387.081487 -128.595658 
L 387.488931 -125.340264 
L 387.966301 -122.08487 
L 388.541103 -118.829477 
L 389.242184 -115.574083 
L 390.097564 -112.318689 
L 391.131741 -109.063295 
L 392.362629 -105.807901 
L 393.798351 -102.552507 
L 395.434196 -99.297113 
L 397.250104 -96.04172 
L 399.209093 -92.786326 
L 401.256973 -89.530932 
L 403.323646 -86.275538 
L 405.326118 -83.020144 
L 407.173153 -79.76475 
L 408.771297 -76.509357 
L 410.031767 -73.253963 
L 410.877534 -69.998569 
L 411.249859 -66.743175 
L 411.113522 -63.487781 
z
" style="stroke: #000000; stroke-opacity: 0.4"/>
    </defs>
    <g clip-path="url(#p64c61ef990)">
     <use xlink:href="#m736d1a2d44" x="0" y="432" style="fill: #21918c; fill-opacity: 0.4; stroke: #000000; stroke-opacity: 0.4"/>
    </g>
   </g>
   <g id="PolyCollection_4">
    <defs>
     <path id="m816b4e43d4" d="M 543.218462 -63.487781 
L 477.23416 -63.487781 
L 477.56116 -63.990958 
L 478.885039 -64.494135 
L 481.075212 -64.997312 
L 483.930438 -65.500488 
L 487.209151 -66.003665 
L 490.662896 -66.506842 
L 494.066504 -67.010019 
L 497.240131 -67.513196 
L 500.060689 -68.016373 
L 502.4628 -68.519549 
L 504.431437 -69.022726 
L 505.989581 -69.525903 
L 507.18429 -70.02908 
L 508.073927 -70.532257 
L 508.718241 -71.035434 
L 509.171873 -71.53861 
L 509.481052 -72.041787 
L 509.68274 -72.544964 
L 509.805347 -73.048141 
L 509.870224 -73.551318 
L 509.893349 -74.054495 
L 509.886858 -74.557671 
L 509.860245 -75.060848 
L 509.821196 -75.564025 
L 509.776117 -76.067202 
L 509.730403 -76.570379 
L 509.688556 -77.073556 
L 509.654209 -77.576732 
L 509.630119 -78.079909 
L 509.61815 -78.583086 
L 509.619275 -79.086263 
L 509.633599 -79.58944 
L 509.660406 -80.092617 
L 509.69823 -80.595793 
L 509.744981 -81.09897 
L 509.7981 -81.602147 
L 509.854776 -82.105324 
L 509.912176 -82.608501 
L 509.96769 -83.111678 
L 510.019137 -83.614854 
L 510.064912 -84.118031 
L 510.10404 -84.621208 
L 510.13615 -85.124385 
L 510.161363 -85.627562 
L 510.180125 -86.130739 
L 510.193015 -86.633915 
L 510.200561 -87.137092 
L 510.203067 -87.640269 
L 510.200502 -88.143446 
L 510.192434 -88.646623 
L 510.178041 -89.149799 
L 510.156205 -89.652976 
L 510.125691 -90.156153 
L 510.085415 -90.65933 
L 510.034774 -91.162507 
L 509.973994 -91.665684 
L 509.904444 -92.16886 
L 509.828812 -92.672037 
L 509.751103 -93.175214 
L 509.676385 -93.678391 
L 509.610295 -94.181568 
L 509.558359 -94.684745 
L 509.525238 -95.187921 
L 509.514039 -95.691098 
L 509.525835 -96.194275 
L 509.559497 -96.697452 
L 509.611869 -97.200629 
L 509.678259 -97.703806 
L 509.753131 -98.206982 
L 509.830858 -98.710159 
L 509.906401 -99.213336 
L 509.9758 -99.716513 
L 510.036424 -100.21969 
L 510.086981 -100.722867 
L 510.127339 -101.226043 
L 510.158229 -101.72922 
L 510.180919 -102.232397 
L 510.196895 -102.735574 
L 510.207622 -103.238751 
L 510.214373 -103.741928 
L 510.21813 -104.245104 
L 510.219543 -104.748281 
L 510.21893 -105.251458 
L 510.216292 -105.754635 
L 510.211353 -106.257812 
L 510.203605 -106.760989 
L 510.192392 -107.264165 
L 510.177004 -107.767342 
L 510.156823 -108.270519 
L 510.131485 -108.773696 
L 510.101054 -109.276873 
L 510.066179 -109.78005 
L 510.028188 -110.283226 
L 509.989081 -110.786403 
L 509.951407 -111.28958 
L 509.918015 -111.792757 
L 509.891708 -112.295934 
L 509.874858 -112.799111 
L 509.869055 -113.302287 
L 510.583567 -113.302287 
L 510.583567 -113.302287 
L 510.577764 -112.799111 
L 510.560914 -112.295934 
L 510.534607 -111.792757 
L 510.501215 -111.28958 
L 510.463541 -110.786403 
L 510.424434 -110.283226 
L 510.386443 -109.78005 
L 510.351568 -109.276873 
L 510.321137 -108.773696 
L 510.295799 -108.270519 
L 510.275618 -107.767342 
L 510.26023 -107.264165 
L 510.249016 -106.760989 
L 510.241269 -106.257812 
L 510.23633 -105.754635 
L 510.233692 -105.251458 
L 510.233079 -104.748281 
L 510.234492 -104.245104 
L 510.238249 -103.741928 
L 510.244999 -103.238751 
L 510.255727 -102.735574 
L 510.271703 -102.232397 
L 510.294393 -101.72922 
L 510.325283 -101.226043 
L 510.365641 -100.722867 
L 510.416198 -100.21969 
L 510.476822 -99.716513 
L 510.546221 -99.213336 
L 510.621764 -98.710159 
L 510.69949 -98.206982 
L 510.774362 -97.703806 
L 510.840753 -97.200629 
L 510.893125 -96.697452 
L 510.926787 -96.194275 
L 510.938583 -95.691098 
L 510.927384 -95.187921 
L 510.894263 -94.684745 
L 510.842327 -94.181568 
L 510.776237 -93.678391 
L 510.701519 -93.175214 
L 510.62381 -92.672037 
L 510.548178 -92.16886 
L 510.478627 -91.665684 
L 510.417848 -91.162507 
L 510.367207 -90.65933 
L 510.326931 -90.156153 
L 510.296417 -89.652976 
L 510.274581 -89.149799 
L 510.260188 -88.646623 
L 510.25212 -88.143446 
L 510.249555 -87.640269 
L 510.252061 -87.137092 
L 510.259606 -86.633915 
L 510.272497 -86.130739 
L 510.291259 -85.627562 
L 510.316472 -85.124385 
L 510.348582 -84.621208 
L 510.38771 -84.118031 
L 510.433485 -83.614854 
L 510.484932 -83.111678 
L 510.540446 -82.608501 
L 510.597846 -82.105324 
L 510.654521 -81.602147 
L 510.707641 -81.09897 
L 510.754392 -80.595793 
L 510.792216 -80.092617 
L 510.819023 -79.58944 
L 510.833347 -79.086263 
L 510.834472 -78.583086 
L 510.822503 -78.079909 
L 510.798412 -77.576732 
L 510.764066 -77.073556 
L 510.722219 -76.570379 
L 510.676505 -76.067202 
L 510.631426 -75.564025 
L 510.592377 -75.060848 
L 510.565764 -74.557671 
L 510.559273 -74.054495 
L 510.582398 -73.551318 
L 510.647275 -73.048141 
L 510.769882 -72.544964 
L 510.97157 -72.041787 
L 511.280749 -71.53861 
L 511.734381 -71.035434 
L 512.378695 -70.532257 
L 513.268332 -70.02908 
L 514.463041 -69.525903 
L 516.021185 -69.022726 
L 517.989822 -68.519549 
L 520.391932 -68.016373 
L 523.212491 -67.513196 
L 526.386118 -67.010019 
L 529.789726 -66.506842 
L 533.243471 -66.003665 
L 536.522184 -65.500488 
L 539.37741 -64.997312 
L 541.567583 -64.494135 
L 542.891462 -63.990958 
L 543.218462 -63.487781 
z
" style="stroke: #000000; stroke-opacity: 0.4"/>
    </defs>
    <g clip-path="url(#p64c61ef990)">
     <use xlink:href="#m816b4e43d4" x="0" y="432" style="fill: #5ec962; fill-opacity: 0.4; stroke: #000000; stroke-opacity: 0.4"/>
    </g>
   </g>
   <g id="PolyCollection_5">
    <defs>
     <path id="m15c6fe23cf" d="M 675.187064 -63.487781 
L 609.202763 -63.487781 
L 609.304002 -65.176265 
L 609.936553 -66.864749 
L 611.062348 -68.553233 
L 612.619074 -70.241717 
L 614.525183 -71.9302 
L 616.686289 -73.618684 
L 619.002235 -75.307168 
L 621.374146 -76.995652 
L 623.710777 -78.684136 
L 625.933648 -80.37262 
L 627.980613 -82.061104 
L 629.807735 -83.749588 
L 631.389528 -85.438071 
L 632.71777 -87.126555 
L 633.799226 -88.815039 
L 634.652652 -90.503523 
L 635.30546 -92.192007 
L 635.790369 -93.880491 
L 636.142328 -95.568975 
L 636.395874 -97.257459 
L 636.58305 -98.945942 
L 636.731903 -100.634426 
L 636.865553 -102.32291 
L 637.00176 -104.011394 
L 637.152922 -105.699878 
L 637.326406 -107.388362 
L 637.525111 -109.076846 
L 637.748202 -110.76533 
L 637.991915 -112.453813 
L 638.250389 -114.142297 
L 638.51646 -115.830781 
L 638.7824 -117.519265 
L 639.040551 -119.207749 
L 639.283857 -120.896233 
L 639.506279 -122.584717 
L 639.703097 -124.273201 
L 639.871101 -125.961684 
L 640.008681 -127.650168 
L 640.115829 -129.338652 
L 640.194049 -131.027136 
L 640.246206 -132.71562 
L 640.276295 -134.404104 
L 640.289166 -136.092588 
L 640.290202 -137.781072 
L 640.284964 -139.469555 
L 640.278842 -141.158039 
L 640.27671 -142.846523 
L 640.282628 -144.535007 
L 640.299606 -146.223491 
L 640.329457 -147.911975 
L 640.372739 -149.600459 
L 640.428812 -151.288943 
L 640.495972 -152.977426 
L 640.57168 -154.66591 
L 640.652836 -156.354394 
L 640.736076 -158.042878 
L 640.818077 -159.731362 
L 640.895807 -161.419846 
L 640.966744 -163.10833 
L 641.02901 -164.796814 
L 641.081439 -166.485297 
L 641.123579 -168.173781 
L 641.155637 -169.862265 
L 641.178381 -171.550749 
L 641.193019 -173.239233 
L 641.201075 -174.927717 
L 641.204264 -176.616201 
L 641.204385 -178.304685 
L 641.203231 -179.993168 
L 641.202515 -181.681652 
L 641.203811 -183.370136 
L 641.208504 -185.05862 
L 641.217753 -186.747104 
L 641.232448 -188.435588 
L 641.25318 -190.124072 
L 641.280209 -191.812556 
L 641.313441 -193.501039 
L 641.352426 -195.189523 
L 641.39636 -196.878007 
L 641.444115 -198.566491 
L 641.494292 -200.254975 
L 641.545291 -201.943459 
L 641.595401 -203.631943 
L 641.642907 -205.320427 
L 641.686198 -207.00891 
L 641.723879 -208.697394 
L 641.754867 -210.385878 
L 641.778475 -212.074362 
L 641.794466 -213.762846 
L 641.803073 -215.45133 
L 641.804992 -217.139814 
L 641.801337 -218.828298 
L 641.793557 -220.516781 
L 641.783337 -222.205265 
L 641.772472 -223.893749 
L 641.762737 -225.582233 
L 641.755758 -227.270717 
L 641.752898 -228.959201 
L 641.755166 -230.647685 
L 642.634661 -230.647685 
L 642.634661 -230.647685 
L 642.636929 -228.959201 
L 642.634069 -227.270717 
L 642.62709 -225.582233 
L 642.617355 -223.893749 
L 642.606491 -222.205265 
L 642.596271 -220.516781 
L 642.588491 -218.828298 
L 642.584835 -217.139814 
L 642.586755 -215.45133 
L 642.595362 -213.762846 
L 642.611352 -212.074362 
L 642.634961 -210.385878 
L 642.665949 -208.697394 
L 642.703629 -207.00891 
L 642.74692 -205.320427 
L 642.794426 -203.631943 
L 642.844536 -201.943459 
L 642.895535 -200.254975 
L 642.945712 -198.566491 
L 642.993467 -196.878007 
L 643.037401 -195.189523 
L 643.076386 -193.501039 
L 643.109619 -191.812556 
L 643.136647 -190.124072 
L 643.157379 -188.435588 
L 643.172075 -186.747104 
L 643.181324 -185.05862 
L 643.186017 -183.370136 
L 643.187312 -181.681652 
L 643.186596 -179.993168 
L 643.185442 -178.304685 
L 643.185564 -176.616201 
L 643.188753 -174.927717 
L 643.196808 -173.239233 
L 643.211446 -171.550749 
L 643.23419 -169.862265 
L 643.266248 -168.173781 
L 643.308389 -166.485297 
L 643.360817 -164.796814 
L 643.423083 -163.10833 
L 643.49402 -161.419846 
L 643.571751 -159.731362 
L 643.653751 -158.042878 
L 643.736992 -156.354394 
L 643.818147 -154.66591 
L 643.893855 -152.977426 
L 643.961015 -151.288943 
L 644.017088 -149.600459 
L 644.060371 -147.911975 
L 644.090221 -146.223491 
L 644.1072 -144.535007 
L 644.113118 -142.846523 
L 644.110986 -141.158039 
L 644.104864 -139.469555 
L 644.099626 -137.781072 
L 644.100661 -136.092588 
L 644.113532 -134.404104 
L 644.143622 -132.71562 
L 644.195778 -131.027136 
L 644.273999 -129.338652 
L 644.381146 -127.650168 
L 644.518727 -125.961684 
L 644.68673 -124.273201 
L 644.883548 -122.584717 
L 645.10597 -120.896233 
L 645.349276 -119.207749 
L 645.607427 -117.519265 
L 645.873367 -115.830781 
L 646.139439 -114.142297 
L 646.397912 -112.453813 
L 646.641626 -110.76533 
L 646.864717 -109.076846 
L 647.063422 -107.388362 
L 647.236905 -105.699878 
L 647.388067 -104.011394 
L 647.524274 -102.32291 
L 647.657924 -100.634426 
L 647.806778 -98.945942 
L 647.993953 -97.257459 
L 648.247499 -95.568975 
L 648.599458 -93.880491 
L 649.084367 -92.192007 
L 649.737175 -90.503523 
L 650.590602 -88.815039 
L 651.672057 -87.126555 
L 653.000299 -85.438071 
L 654.582092 -83.749588 
L 656.409215 -82.061104 
L 658.456179 -80.37262 
L 660.67905 -78.684136 
L 663.015682 -76.995652 
L 665.387593 -75.307168 
L 667.703539 -73.618684 
L 669.864644 -71.9302 
L 671.770754 -70.241717 
L 673.327479 -68.553233 
L 674.453275 -66.864749 
L 675.085826 -65.176265 
L 675.187064 -63.487781 
z
" style="stroke: #000000; stroke-opacity: 0.4"/>
    </defs>
    <g clip-path="url(#p64c61ef990)">
     <use xlink:href="#m15c6fe23cf" x="0" y="432" style="fill: #fde725; fill-opacity: 0.4; stroke: #000000; stroke-opacity: 0.4"/>
    </g>
   </g>
   <g id="matplotlib.axis_1">
    <g id="xtick_1">
     <g id="line2d_1">
      <defs>
       <path id="mfb321a5552" d="M 0 0 
L 0 3.5 
" style="stroke: #000000; stroke-width: 0.8"/>
      </defs>
      <g>
       <use xlink:href="#mfb321a5552" x="114.320503" y="384.626418" style="stroke: #000000; stroke-width: 0.8"/>
      </g>
     </g>
     <g id="text_1">
      <!-- Borda rule -->
      <g transform="translate(88.795319 399.236765) scale(0.11 -0.11)">
       <defs>
        <path id="CMR17-42" d="M 333 4352 
L 333 4186 
C 774 4186 845 4186 845 3900 
L 845 452 
C 845 166 774 166 333 166 
L 333 0 
L 2534 0 
C 3354 0 3885 583 3885 1164 
C 3885 1741 3360 2233 2675 2233 
C 3290 2356 3718 2771 3718 3264 
C 3718 3802 3194 4352 2368 4352 
L 333 4352 
z
M 1248 2304 
L 1248 3937 
C 1248 4155 1261 4186 1517 4186 
L 2336 4186 
C 2970 4186 3251 3674 3251 3277 
C 3251 2791 2861 2304 2170 2304 
L 1248 2304 
z
M 1517 166 
C 1261 166 1248 197 1248 413 
L 1248 2202 
L 2432 2202 
C 3091 2202 3411 1625 3411 1162 
C 3411 699 3046 166 2349 166 
L 1517 166 
z
" transform="scale(0.015625)"/>
        <path id="CMR17-6f" d="M 2758 1356 
C 2758 2176 2163 2816 1466 2816 
C 768 2816 173 2176 173 1356 
C 173 551 768 -64 1466 -64 
C 2163 -64 2758 551 2758 1356 
z
M 1466 51 
C 1165 51 909 230 762 480 
C 602 767 582 1126 582 1408 
C 582 1677 595 2010 762 2298 
C 890 2509 1139 2714 1466 2714 
C 1754 2714 1997 2554 2150 2330 
C 2349 2029 2349 1607 2349 1408 
C 2349 1158 2336 775 2163 467 
C 1984 173 1709 51 1466 51 
z
" transform="scale(0.015625)"/>
        <path id="CMR17-72" d="M 960 1497 
C 960 2112 1222 2688 1702 2688 
C 1747 2688 1792 2682 1837 2662 
C 1837 2662 1696 2617 1696 2452 
C 1696 2298 1818 2234 1914 2234 
C 1990 2234 2131 2279 2131 2458 
C 2131 2663 1926 2790 1709 2790 
C 1222 2790 1011 2317 947 2093 
L 941 2093 
L 941 2790 
L 198 2720 
L 198 2554 
C 576 2554 634 2515 634 2208 
L 634 428 
C 634 184 608 153 198 153 
L 198 -13 
C 352 0 646 0 813 0 
C 998 0 1325 0 1498 -13 
L 1498 153 
C 1037 153 960 153 960 440 
L 960 1497 
z
" transform="scale(0.015625)"/>
        <path id="CMR17-64" d="M 1869 4326 
L 1869 4160 
C 2246 4160 2304 4122 2304 3820 
L 2304 2345 
C 2278 2377 2016 2790 1498 2790 
C 845 2790 211 2208 211 1364 
C 211 525 806 -64 1434 -64 
C 1978 -64 2259 337 2291 380 
L 2291 -63 
L 3066 -63 
L 3066 128 
C 2688 128 2630 166 2630 473 
L 2630 4396 
L 1869 4326 
z
M 2291 755 
C 2291 563 2176 390 2029 262 
C 1811 70 1594 38 1472 38 
C 1286 38 621 134 621 1356 
C 621 2612 1363 2688 1530 2688 
C 1824 2688 2061 2522 2208 2291 
C 2291 2157 2291 2138 2291 2023 
L 2291 755 
z
" transform="scale(0.015625)"/>
        <path id="CMR17-61" d="M 2304 1653 
C 2304 2072 2304 2294 2035 2543 
C 1798 2752 1523 2816 1306 2816 
C 800 2816 435 2407 435 1971 
C 435 1728 627 1728 666 1728 
C 749 1728 896 1778 896 1954 
C 896 2112 774 2181 666 2181 
C 640 2181 608 2174 589 2168 
C 723 2592 1069 2714 1293 2714 
C 1613 2714 1965 2429 1965 1885 
L 1965 1600 
C 1587 1600 1133 1549 774 1357 
C 371 1133 256 813 256 570 
C 256 77 832 -64 1171 -64 
C 1523 -64 1850 139 1990 511 
C 2003 233 2182 -18 2464 -18 
C 2598 -18 2938 70 2938 567 
L 2938 920 
L 2822 920 
L 2822 562 
C 2822 178 2650 128 2566 128 
C 2304 128 2304 458 2304 738 
L 2304 1653 
z
M 1965 870 
C 1965 317 1568 38 1216 38 
C 896 38 646 275 646 570 
C 646 761 730 1100 1101 1305 
C 1408 1478 1760 1504 1965 1504 
L 1965 870 
z
" transform="scale(0.015625)"/>
        <path id="CMR17-75" d="M 1882 2693 
L 1882 2528 
C 2259 2528 2317 2489 2317 2186 
L 2317 1032 
C 2317 500 2029 38 1555 38 
C 1030 38 986 348 986 678 
L 986 2763 
L 211 2693 
L 211 2528 
C 467 2528 640 2528 646 2274 
L 646 1058 
C 646 633 646 361 813 183 
C 896 101 1056 -64 1517 -64 
C 2061 -64 2272 377 2323 506 
L 2330 506 
L 2330 -63 
L 3091 -63 
L 3091 128 
C 2714 128 2656 166 2656 473 
L 2656 2763 
L 1882 2693 
z
" transform="scale(0.015625)"/>
        <path id="CMR17-6c" d="M 979 4396 
L 218 4326 
L 218 4160 
C 595 4160 653 4122 653 3817 
L 653 426 
C 653 184 627 153 218 153 
L 218 -13 
C 371 0 653 0 813 0 
C 979 0 1261 0 1414 -13 
L 1414 153 
C 1005 153 979 178 979 426 
L 979 4396 
z
" transform="scale(0.015625)"/>
        <path id="CMR17-65" d="M 2438 1472 
C 2464 1498 2464 1511 2464 1576 
C 2464 2238 2118 2816 1389 2816 
C 710 2816 173 2169 173 1383 
C 173 551 781 -64 1459 -64 
C 2176 -64 2458 607 2458 740 
C 2458 784 2419 784 2406 784 
C 2362 784 2355 771 2330 696 
C 2189 265 1837 51 1504 51 
C 1229 51 954 203 781 480 
C 582 803 582 1176 582 1472 
L 2438 1472 
z
M 589 1568 
C 634 2505 1126 2714 1382 2714 
C 1818 2714 2112 2297 2118 1568 
L 589 1568 
z
" transform="scale(0.015625)"/>
       </defs>
       <use xlink:href="#CMR17-42" transform="scale(0.996264)"/>
       <use xlink:href="#CMR17-6f" transform="translate(65.188754 0) scale(0.996264)"/>
       <use xlink:href="#CMR17-72" transform="translate(110.879232 0) scale(0.996264)"/>
       <use xlink:href="#CMR17-64" transform="translate(146.159999 0) scale(0.996264)"/>
       <use xlink:href="#CMR17-61" transform="translate(197.055369 0) scale(0.996264)"/>
       <use xlink:href="#CMR17-72" transform="translate(272.821813 0) scale(0.996264)"/>
       <use xlink:href="#CMR17-75" transform="translate(308.10258 0) scale(0.996264)"/>
       <use xlink:href="#CMR17-6c" transform="translate(358.99795 0) scale(0.996264)"/>
       <use xlink:href="#CMR17-65" transform="translate(383.869009 0) scale(0.996264)"/>
      </g>
     </g>
    </g>
    <g id="xtick_2">
     <g id="line2d_2">
      <g>
       <use xlink:href="#mfb321a5552" x="246.289105" y="384.626418" style="stroke: #000000; stroke-width: 0.8"/>
      </g>
     </g>
     <g id="text_2">
      <!-- Copeland's Rule -->
      <g transform="translate(207.065277 399.236765) scale(0.11 -0.11)">
       <defs>
        <path id="CMR17-43" d="M 3974 4289 
C 3974 4403 3968 4410 3930 4410 
C 3904 4410 3898 4403 3853 4327 
L 3571 3792 
C 3258 4187 2874 4416 2381 4416 
C 1286 4416 294 3456 294 2148 
C 294 826 1286 -128 2387 -128 
C 3366 -128 3974 730 3974 1461 
C 3974 1524 3974 1550 3917 1550 
C 3866 1550 3866 1531 3859 1474 
C 3808 585 3168 38 2477 38 
C 1824 38 781 495 781 2147 
C 781 3805 1843 4250 2464 4250 
C 3187 4250 3712 3628 3834 2745 
C 3846 2668 3846 2655 3904 2655 
C 3974 2655 3974 2668 3974 2783 
L 3974 4289 
z
" transform="scale(0.015625)"/>
        <path id="CMR17-70" d="M 1408 -1063 
C 998 -1063 973 -1037 973 -789 
L 973 402 
C 1158 134 1427 -38 1766 -38 
C 2406 -38 3053 523 3053 1388 
C 3053 2191 2496 2802 1837 2802 
C 1453 2802 1139 2592 960 2338 
L 960 2802 
L 198 2732 
L 198 2567 
C 576 2567 634 2528 634 2223 
L 634 -789 
C 634 -1031 608 -1063 198 -1063 
L 198 -1228 
C 352 -1216 634 -1216 800 -1216 
C 966 -1216 1254 -1216 1408 -1228 
L 1408 -1063 
z
M 973 2012 
C 973 2102 973 2235 1222 2471 
C 1254 2497 1472 2688 1792 2688 
C 2259 2688 2643 2108 2643 1382 
C 2643 656 2234 64 1728 64 
C 1498 64 1248 172 1056 472 
C 973 612 973 650 973 752 
L 973 2012 
z
" transform="scale(0.015625)"/>
        <path id="CMR17-6e" d="M 2656 1933 
C 2656 2259 2592 2790 1837 2790 
C 1331 2790 1069 2400 973 2144 
L 966 2144 
L 966 2790 
L 211 2720 
L 211 2554 
C 589 2554 646 2515 646 2208 
L 646 428 
C 646 184 621 153 211 153 
L 211 -13 
C 365 0 646 0 813 0 
C 979 0 1267 0 1421 -13 
L 1421 153 
C 1011 153 986 178 986 428 
L 986 1658 
C 986 2247 1344 2688 1792 2688 
C 2266 2688 2317 2266 2317 1958 
L 2317 428 
C 2317 184 2291 153 1882 153 
L 1882 -13 
C 2035 0 2317 0 2483 0 
C 2650 0 2938 0 3091 -13 
L 3091 153 
C 2682 153 2656 178 2656 428 
L 2656 1933 
z
" transform="scale(0.015625)"/>
        <path id="CMR17-27" d="M 1024 4025 
C 1037 3955 1043 3929 1043 3820 
C 1043 3415 883 3042 634 2778 
C 608 2752 595 2733 595 2707 
C 595 2681 621 2656 646 2656 
C 691 2656 1146 3105 1146 3811 
C 1146 3952 1133 4426 800 4426 
C 659 4426 538 4331 538 4165 
C 538 3999 659 3904 800 3904 
C 858 3904 966 3923 1024 4025 
z
" transform="scale(0.015625)"/>
        <path id="CMR17-73" d="M 1978 2697 
C 1978 2813 1971 2819 1933 2819 
C 1907 2819 1901 2813 1824 2717 
C 1805 2691 1747 2626 1728 2601 
C 1523 2819 1235 2819 1126 2819 
C 416 2819 160 2447 160 2076 
C 160 1498 813 1365 998 1325 
C 1402 1243 1542 1217 1677 1101 
C 1760 1025 1901 884 1901 654 
C 1901 384 1747 38 1158 38 
C 602 38 403 460 288 1021 
C 269 1110 269 1117 218 1117 
C 166 1117 160 1110 160 983 
L 160 63 
C 160 -51 166 -58 205 -58 
C 237 -58 243 -51 275 0 
C 314 57 410 211 448 276 
C 576 103 800 -64 1158 -64 
C 1792 -64 2131 283 2131 784 
C 2131 1112 1958 1285 1875 1362 
C 1683 1561 1459 1606 1190 1657 
C 838 1735 390 1825 390 2217 
C 390 2383 480 2737 1126 2737 
C 1811 2737 1850 2094 1862 1888 
C 1869 1856 1901 1849 1920 1849 
C 1978 1849 1978 1869 1978 1978 
L 1978 2697 
z
" transform="scale(0.015625)"/>
        <path id="CMR17-52" d="M 2509 2146 
C 3117 2268 3629 2676 3629 3186 
C 3629 3785 2950 4326 2054 4326 
L 333 4326 
L 333 4160 
C 774 4160 845 4160 845 3873 
L 845 415 
C 845 128 774 128 333 128 
L 333 -26 
C 518 -26 851 -26 1050 -26 
C 1248 -26 1581 -26 1766 -26 
L 1766 128 
C 1325 128 1254 128 1254 417 
L 1254 2112 
L 2003 2112 
C 2368 2112 2573 1964 2662 1881 
C 2918 1632 2918 1459 2918 1024 
C 2918 595 2918 377 3110 160 
C 3354 -102 3680 -128 3821 -128 
C 4294 -128 4365 396 4365 503 
C 4365 540 4365 585 4307 585 
C 4256 585 4250 547 4250 522 
C 4218 112 4032 -26 3834 -26 
C 3482 -26 3443 375 3405 764 
C 3386 898 3373 993 3360 1133 
C 3322 1452 3270 1917 2509 2146 
z
M 1984 2214 
L 1254 2214 
L 1254 3913 
C 1254 4129 1267 4160 1523 4160 
L 1990 4160 
C 2522 4160 3142 3977 3142 3190 
C 3142 2372 2464 2214 1984 2214 
z
" transform="scale(0.015625)"/>
       </defs>
       <use xlink:href="#CMR17-43" transform="scale(0.996264)"/>
       <use xlink:href="#CMR17-6f" transform="translate(66.509881 0) scale(0.996264)"/>
       <use xlink:href="#CMR17-70" transform="translate(112.200358 0) scale(0.996264)"/>
       <use xlink:href="#CMR17-65" transform="translate(165.698166 0) scale(0.996264)"/>
       <use xlink:href="#CMR17-6c" transform="translate(206.183827 0) scale(0.996264)"/>
       <use xlink:href="#CMR17-61" transform="translate(231.054885 0) scale(0.996264)"/>
       <use xlink:href="#CMR17-6e" transform="translate(276.745362 0) scale(0.996264)"/>
       <use xlink:href="#CMR17-64" transform="translate(327.640732 0) scale(0.996264)"/>
       <use xlink:href="#CMR17-27" transform="translate(378.536102 0) scale(0.996264)"/>
       <use xlink:href="#CMR17-73" transform="translate(403.40716 0) scale(0.996264)"/>
       <use xlink:href="#CMR17-52" transform="translate(469.284464 0) scale(0.996264)"/>
       <use xlink:href="#CMR17-75" transform="translate(537.075566 0) scale(0.996264)"/>
       <use xlink:href="#CMR17-6c" transform="translate(587.970936 0) scale(0.996264)"/>
       <use xlink:href="#CMR17-65" transform="translate(612.841994 0) scale(0.996264)"/>
      </g>
     </g>
    </g>
    <g id="xtick_3">
     <g id="line2d_3">
      <g>
       <use xlink:href="#mfb321a5552" x="378.257708" y="384.626418" style="stroke: #000000; stroke-width: 0.8"/>
      </g>
     </g>
     <g id="text_3">
      <!-- Plurality rule -->
      <g transform="translate(346.187625 399.236765) scale(0.11 -0.11)">
       <defs>
        <path id="CMR17-50" d="M 1267 2042 
L 2291 2042 
C 3117 2042 3718 2578 3718 3184 
C 3718 3791 3130 4352 2291 4352 
L 333 4352 
L 333 4186 
C 774 4186 845 4186 845 3899 
L 845 446 
C 845 160 774 160 333 160 
L 333 0 
C 518 0 858 0 1056 0 
C 1254 0 1594 0 1779 0 
L 1779 160 
C 1338 160 1267 160 1267 446 
L 1267 2042 
z
M 1254 2176 
L 1254 3938 
C 1254 4155 1267 4186 1523 4186 
L 2170 4186 
C 2995 4186 3232 3714 3232 3184 
C 3232 2604 2950 2176 2170 2176 
L 1254 2176 
z
" transform="scale(0.015625)"/>
        <path id="CMR17-69" d="M 992 3909 
C 992 4049 877 4170 730 4170 
C 589 4170 467 4056 467 3909 
C 467 3769 582 3648 730 3648 
C 870 3648 992 3763 992 3909 
z
M 243 2706 
L 243 2541 
C 602 2541 653 2502 653 2197 
L 653 427 
C 653 184 627 153 218 153 
L 218 -13 
C 371 0 646 0 806 0 
C 960 0 1222 0 1370 -13 
L 1370 153 
C 992 153 979 191 979 420 
L 979 2776 
L 243 2706 
z
" transform="scale(0.015625)"/>
        <path id="CMR17-74" d="M 966 2560 
L 1862 2560 
L 1862 2725 
L 966 2725 
L 966 3904 
L 851 3904 
C 838 3245 614 2668 70 2668 
L 70 2560 
L 627 2560 
L 627 771 
C 627 650 627 -64 1370 -64 
C 1747 -64 1965 306 1965 777 
L 1965 1140 
L 1850 1140 
L 1850 783 
C 1850 344 1677 51 1408 51 
C 1222 51 966 178 966 758 
L 966 2560 
z
" transform="scale(0.015625)"/>
        <path id="CMR17-79" d="M 2496 2197 
C 2656 2586 2944 2586 3034 2586 
L 3034 2752 
C 2912 2752 2752 2752 2630 2752 
C 2496 2752 2285 2752 2157 2758 
L 2157 2592 
C 2400 2573 2406 2394 2406 2343 
C 2406 2280 2394 2248 2362 2171 
L 1664 449 
L 902 2306 
C 870 2382 870 2426 870 2433 
C 870 2573 1018 2586 1171 2586 
L 1171 2758 
C 1018 2752 742 2752 582 2752 
C 410 2752 205 2752 64 2758 
L 64 2586 
C 410 2586 448 2554 531 2350 
L 1485 15 
C 1197 -738 1030 -1178 627 -1178 
C 557 -1178 397 -1159 282 -1044 
C 429 -1031 493 -942 493 -833 
C 493 -725 416 -629 288 -629 
C 147 -629 77 -725 77 -840 
C 77 -1095 339 -1280 627 -1280 
C 998 -1280 1229 -922 1357 -604 
L 2496 2197 
z
" transform="scale(0.015625)"/>
       </defs>
       <use xlink:href="#CMR17-50" transform="scale(0.996264)"/>
       <use xlink:href="#CMR17-6c" transform="translate(62.586301 0) scale(0.996264)"/>
       <use xlink:href="#CMR17-75" transform="translate(87.457359 0) scale(0.996264)"/>
       <use xlink:href="#CMR17-72" transform="translate(138.352729 0) scale(0.996264)"/>
       <use xlink:href="#CMR17-61" transform="translate(173.633497 0) scale(0.996264)"/>
       <use xlink:href="#CMR17-6c" transform="translate(219.323974 0) scale(0.996264)"/>
       <use xlink:href="#CMR17-69" transform="translate(244.195032 0) scale(0.996264)"/>
       <use xlink:href="#CMR17-74" transform="translate(269.066091 0) scale(0.996264)"/>
       <use xlink:href="#CMR17-79" transform="translate(301.744405 0) scale(0.996264)"/>
       <use xlink:href="#CMR17-72" transform="translate(380.113287 0) scale(0.996264)"/>
       <use xlink:href="#CMR17-75" transform="translate(415.394055 0) scale(0.996264)"/>
       <use xlink:href="#CMR17-6c" transform="translate(466.289424 0) scale(0.996264)"/>
       <use xlink:href="#CMR17-65" transform="translate(491.160483 0) scale(0.996264)"/>
      </g>
     </g>
    </g>
    <g id="xtick_4">
     <g id="line2d_4">
      <g>
       <use xlink:href="#mfb321a5552" x="510.226311" y="384.626418" style="stroke: #000000; stroke-width: 0.8"/>
      </g>
     </g>
     <g id="text_4">
      <!-- Black's Rule -->
      <g transform="translate(480.363246 399.236765) scale(0.11 -0.11)">
       <defs>
        <path id="CMR17-63" d="M 2234 2240 
C 2112 2240 1933 2240 1933 2017 
C 1933 1838 2080 1787 2163 1787 
C 2208 1787 2394 1807 2394 2024 
C 2394 2467 1958 2803 1466 2803 
C 787 2803 211 2178 211 1363 
C 211 516 813 -64 1466 -64 
C 2259 -64 2458 677 2458 748 
C 2458 774 2451 793 2406 793 
C 2362 793 2355 787 2330 703 
C 2163 180 1798 51 1523 51 
C 1114 51 621 427 621 1369 
C 621 2338 1094 2688 1472 2688 
C 1722 2688 2093 2573 2234 2240 
z
" transform="scale(0.015625)"/>
        <path id="CMR17-6b" d="M 1670 1673 
C 1664 1686 1632 1724 1632 1743 
C 1632 1756 2086 2171 2144 2222 
C 2509 2528 2739 2560 2906 2560 
L 2906 2733 
C 2867 2733 2854 2733 2848 2720 
L 2534 2720 
C 2355 2720 2080 2720 1907 2733 
L 1907 2566 
C 1997 2559 2061 2508 2061 2419 
C 2061 2291 1933 2170 1926 2170 
L 960 1289 
L 960 4396 
L 198 4326 
L 198 4160 
C 576 4160 634 4122 634 3817 
L 634 426 
C 634 184 608 153 198 153 
L 198 -13 
C 352 0 634 0 794 0 
C 954 0 1235 0 1389 -13 
L 1389 153 
C 979 153 954 178 954 428 
L 954 1130 
L 1395 1532 
L 2042 574 
C 2118 459 2182 369 2182 286 
C 2182 172 2067 153 1990 153 
L 1990 -13 
C 2144 0 2419 0 2579 0 
C 2694 0 2931 0 3040 0 
L 3040 153 
C 2739 153 2669 210 2477 491 
L 1670 1673 
z
" transform="scale(0.015625)"/>
       </defs>
       <use xlink:href="#CMR17-42" transform="scale(0.996264)"/>
       <use xlink:href="#CMR17-6c" transform="translate(65.188754 0) scale(0.996264)"/>
       <use xlink:href="#CMR17-61" transform="translate(90.059813 0) scale(0.996264)"/>
       <use xlink:href="#CMR17-63" transform="translate(135.75029 0) scale(0.996264)"/>
       <use xlink:href="#CMR17-6b" transform="translate(173.633497 0) scale(0.996264)"/>
       <use xlink:href="#CMR17-27" transform="translate(221.926412 0) scale(0.996264)"/>
       <use xlink:href="#CMR17-73" transform="translate(246.797471 0) scale(0.996264)"/>
       <use xlink:href="#CMR17-52" transform="translate(312.674775 0) scale(0.996264)"/>
       <use xlink:href="#CMR17-75" transform="translate(380.465877 0) scale(0.996264)"/>
       <use xlink:href="#CMR17-6c" transform="translate(431.361247 0) scale(0.996264)"/>
       <use xlink:href="#CMR17-65" transform="translate(456.232305 0) scale(0.996264)"/>
      </g>
     </g>
    </g>
    <g id="xtick_5">
     <g id="line2d_5">
      <g>
       <use xlink:href="#mfb321a5552" x="642.194914" y="384.626418" style="stroke: #000000; stroke-width: 0.8"/>
      </g>
     </g>
     <g id="text_5">
      <!-- Instand-runoff voting -->
      <g transform="translate(591.311994 399.236765) scale(0.11 -0.11)">
       <defs>
        <path id="CMR17-49" d="M 1261 3905 
C 1261 4192 1338 4192 1798 4192 
L 1798 4352 
C 1594 4352 1267 4352 1050 4352 
C 832 4352 506 4352 301 4352 
L 301 4192 
C 762 4192 838 4192 838 3905 
L 838 447 
C 838 160 762 160 301 160 
L 301 0 
C 506 0 832 0 1050 0 
C 1267 0 1594 0 1798 0 
L 1798 160 
C 1338 160 1261 160 1261 447 
L 1261 3905 
z
" transform="scale(0.015625)"/>
        <path id="CMR17-2d" d="M 1632 1216 
L 1632 1496 
L 26 1496 
L 26 1216 
L 1632 1216 
z
" transform="scale(0.015625)"/>
        <path id="CMR17-b" d="M 2554 2560 
L 3283 2560 
L 3283 2725 
L 2541 2725 
L 2541 3494 
C 2541 4022 2810 4352 3085 4352 
C 3168 4352 3264 4327 3328 4282 
C 3277 4269 3142 4225 3142 4067 
C 3142 3901 3270 3850 3360 3850 
C 3450 3850 3578 3901 3578 4067 
C 3578 4308 3347 4454 3091 4454 
C 2842 4454 2637 4333 2477 4181 
C 2330 4390 2086 4454 1837 4454 
C 1338 4454 634 4168 634 3469 
L 634 2725 
L 122 2725 
L 122 2560 
L 634 2560 
L 634 427 
C 634 184 608 153 198 153 
L 198 -13 
C 352 0 634 0 794 0 
C 960 0 1242 0 1395 -13 
L 1395 153 
C 986 153 960 178 960 427 
L 960 2560 
L 2227 2560 
L 2227 427 
C 2227 184 2202 153 1792 153 
L 1792 -13 
C 1946 0 2240 0 2406 0 
C 2592 0 2918 0 3091 -13 
L 3091 153 
C 2630 153 2554 153 2554 439 
L 2554 2560 
z
M 947 2725 
L 947 3469 
C 947 4047 1395 4352 1824 4352 
C 1920 4352 2170 4332 2323 4187 
C 2208 4187 2099 4136 2099 3977 
C 2099 3812 2246 3767 2259 3767 
C 2227 3652 2227 3526 2227 3481 
L 2227 2725 
L 947 2725 
z
" transform="scale(0.015625)"/>
        <path id="CMR17-76" d="M 2502 2163 
C 2560 2304 2662 2560 3034 2560 
L 3034 2726 
C 2912 2726 2752 2726 2630 2726 
C 2496 2726 2285 2726 2157 2732 
L 2157 2566 
C 2317 2553 2406 2477 2406 2311 
C 2406 2253 2406 2240 2368 2151 
L 1664 377 
L 902 2286 
C 864 2369 864 2381 864 2407 
C 864 2560 1075 2560 1171 2560 
L 1171 2732 
C 1018 2726 736 2726 576 2726 
C 403 2726 205 2726 64 2732 
L 64 2560 
C 307 2560 442 2560 518 2362 
L 1446 44 
C 1485 -51 1491 -64 1549 -64 
C 1606 -64 1613 -51 1651 44 
L 2502 2163 
z
" transform="scale(0.015625)"/>
        <path id="CMR17-67" d="M 710 1164 
C 832 1068 1043 960 1299 960 
C 1805 960 2240 1357 2240 1888 
C 2240 2054 2189 2310 1997 2509 
C 2176 2692 2438 2752 2586 2752 
C 2611 2752 2650 2752 2682 2734 
C 2656 2728 2598 2703 2598 2605 
C 2598 2527 2656 2471 2739 2471 
C 2835 2471 2886 2533 2886 2614 
C 2886 2731 2790 2854 2586 2854 
C 2330 2854 2106 2738 1926 2580 
C 1734 2753 1504 2816 1299 2816 
C 794 2816 358 2419 358 1888 
C 358 1522 570 1292 634 1228 
C 442 1004 442 743 442 711 
C 442 545 506 302 723 168 
C 390 85 128 -169 128 -486 
C 128 -943 736 -1280 1466 -1280 
C 2170 -1280 2803 -956 2803 -479 
C 2803 384 1856 384 1363 384 
C 1216 384 954 384 922 391 
C 723 423 589 602 589 826 
C 589 883 589 1024 710 1164 
z
M 1299 1068 
C 736 1068 736 1760 736 1889 
C 736 2016 736 2708 1299 2708 
C 1862 2708 1862 2016 1862 1889 
C 1862 1760 1862 1068 1299 1068 
z
M 1466 -1171 
C 826 -1171 384 -835 384 -486 
C 384 -289 493 -105 634 -4 
C 794 104 858 104 1293 104 
C 1818 104 2547 104 2547 -486 
C 2547 -835 2106 -1171 1466 -1171 
z
" transform="scale(0.015625)"/>
       </defs>
       <use xlink:href="#CMR17-49" transform="scale(0.996264)"/>
       <use xlink:href="#CMR17-6e" transform="translate(32.638409 0) scale(0.996264)"/>
       <use xlink:href="#CMR17-73" transform="translate(83.533779 0) scale(0.996264)"/>
       <use xlink:href="#CMR17-74" transform="translate(119.335117 0) scale(0.996264)"/>
       <use xlink:href="#CMR17-61" transform="translate(154.615884 0) scale(0.996264)"/>
       <use xlink:href="#CMR17-6e" transform="translate(200.306362 0) scale(0.996264)"/>
       <use xlink:href="#CMR17-64" transform="translate(251.201731 0) scale(0.996264)"/>
       <use xlink:href="#CMR17-2d" transform="translate(302.097101 0) scale(0.996264)"/>
       <use xlink:href="#CMR17-72" transform="translate(332.173067 0) scale(0.996264)"/>
       <use xlink:href="#CMR17-75" transform="translate(367.453835 0) scale(0.996264)"/>
       <use xlink:href="#CMR17-6e" transform="translate(418.349205 0) scale(0.996264)"/>
       <use xlink:href="#CMR17-6f" transform="translate(469.244575 0) scale(0.996264)"/>
       <use xlink:href="#CMR17-b" transform="translate(514.935052 0) scale(0.996264)"/>
       <use xlink:href="#CMR17-76" transform="translate(597.355696 0) scale(0.996264)"/>
       <use xlink:href="#CMR17-6f" transform="translate(643.046157 0) scale(0.996264)"/>
       <use xlink:href="#CMR17-74" transform="translate(688.736635 0) scale(0.996264)"/>
       <use xlink:href="#CMR17-69" transform="translate(724.017402 0) scale(0.996264)"/>
       <use xlink:href="#CMR17-6e" transform="translate(748.888461 0) scale(0.996264)"/>
       <use xlink:href="#CMR17-67" transform="translate(799.783831 0) scale(0.996264)"/>
      </g>
     </g>
    </g>
    <g id="text_6">
     <!-- Number of voters -->
     <g transform="translate(329.964678 414.361688) scale(0.13 -0.13)">
      <defs>
       <path id="CMR17-4e" d="M 1312 4250 
C 1267 4320 1261 4320 1139 4320 
L 326 4320 
L 326 4160 
L 448 4160 
C 704 4160 819 4129 838 4122 
L 838 610 
C 838 451 838 153 326 153 
L 326 -13 
C 474 0 742 0 902 0 
C 1062 0 1331 0 1478 -13 
L 1478 153 
C 966 153 966 451 966 610 
L 966 4033 
C 1011 3995 1011 3982 1056 3919 
L 3430 76 
C 3475 0 3494 0 3526 0 
C 3590 0 3590 19 3590 139 
L 3590 3705 
C 3590 3863 3590 4160 4102 4160 
L 4102 4326 
C 3955 4320 3686 4320 3526 4320 
C 3366 4320 3098 4320 2950 4326 
L 2950 4160 
C 3462 4160 3462 3862 3462 3703 
L 3462 763 
L 1312 4250 
z
" transform="scale(0.015625)"/>
       <path id="CMR17-6d" d="M 4326 1933 
C 4326 2252 4269 2790 3507 2790 
C 3072 2790 2771 2496 2656 2151 
L 2650 2151 
C 2573 2676 2195 2790 1837 2790 
C 1331 2790 1069 2400 973 2144 
L 966 2144 
L 966 2790 
L 211 2720 
L 211 2554 
C 589 2554 646 2515 646 2208 
L 646 428 
C 646 184 621 153 211 153 
L 211 -13 
C 365 0 646 0 813 0 
C 979 0 1267 0 1421 -13 
L 1421 153 
C 1011 153 986 178 986 428 
L 986 1658 
C 986 2247 1344 2688 1792 2688 
C 2266 2688 2317 2266 2317 1958 
L 2317 428 
C 2317 184 2291 153 1882 153 
L 1882 -13 
C 2035 0 2317 0 2483 0 
C 2650 0 2938 0 3091 -13 
L 3091 153 
C 2682 153 2656 178 2656 428 
L 2656 1658 
C 2656 2247 3014 2688 3462 2688 
C 3936 2688 3987 2266 3987 1958 
L 3987 428 
C 3987 184 3962 153 3552 153 
L 3552 -13 
C 3706 0 3987 0 4154 0 
C 4320 0 4608 0 4762 -13 
L 4762 153 
C 4352 153 4326 178 4326 428 
L 4326 1933 
z
" transform="scale(0.015625)"/>
       <path id="CMR17-62" d="M 960 4396 
L 198 4326 
L 198 4160 
C 576 4160 634 4122 634 3817 
L 634 -13 
L 749 -13 
L 934 441 
C 1120 141 1395 -64 1766 -64 
C 2406 -64 3053 500 3053 1370 
C 3053 2188 2477 2790 1830 2790 
C 1434 2790 1152 2579 960 2330 
L 960 4396 
z
M 973 2004 
C 973 2118 973 2138 1062 2272 
C 1312 2657 1670 2688 1792 2688 
C 1984 2688 2643 2585 2643 1376 
C 2643 108 1888 38 1734 38 
C 1536 38 1248 114 1043 486 
C 973 608 973 621 973 735 
L 973 2004 
z
" transform="scale(0.015625)"/>
       <path id="CMR17-66" d="M 979 2560 
L 1709 2560 
L 1709 2725 
L 966 2725 
L 966 3494 
C 966 4022 1235 4352 1510 4352 
C 1594 4352 1690 4327 1754 4282 
C 1702 4269 1568 4225 1568 4067 
C 1568 3901 1696 3850 1786 3850 
C 1875 3850 2003 3901 2003 4067 
C 2003 4308 1773 4454 1517 4454 
C 1152 4454 653 4156 653 3481 
L 653 2725 
L 141 2725 
L 141 2560 
L 653 2560 
L 653 427 
C 653 184 627 153 218 153 
L 218 -13 
C 371 0 666 0 832 0 
C 1018 0 1344 0 1517 -13 
L 1517 153 
C 1056 153 979 153 979 439 
L 979 2560 
z
" transform="scale(0.015625)"/>
      </defs>
      <use xlink:href="#CMR17-4e" transform="scale(0.996264)"/>
      <use xlink:href="#CMR17-75" transform="translate(69.07243 0) scale(0.996264)"/>
      <use xlink:href="#CMR17-6d" transform="translate(119.9678 0) scale(0.996264)"/>
      <use xlink:href="#CMR17-62" transform="translate(194.284936 0) scale(0.996264)"/>
      <use xlink:href="#CMR17-65" transform="translate(247.782744 0) scale(0.996264)"/>
      <use xlink:href="#CMR17-72" transform="translate(288.268404 0) scale(0.996264)"/>
      <use xlink:href="#CMR17-6f" transform="translate(353.625139 0) scale(0.996264)"/>
      <use xlink:href="#CMR17-66" transform="translate(399.315616 0) scale(0.996264)"/>
      <use xlink:href="#CMR17-76" transform="translate(456.865095 0) scale(0.996264)"/>
      <use xlink:href="#CMR17-6f" transform="translate(502.555556 0) scale(0.996264)"/>
      <use xlink:href="#CMR17-74" transform="translate(548.246034 0) scale(0.996264)"/>
      <use xlink:href="#CMR17-65" transform="translate(583.526801 0) scale(0.996264)"/>
      <use xlink:href="#CMR17-72" transform="translate(624.012462 0) scale(0.996264)"/>
      <use xlink:href="#CMR17-73" transform="translate(659.29323 0) scale(0.996264)"/>
     </g>
    </g>
   </g>
   <g id="matplotlib.axis_2">
    <g id="ytick_1">
     <g id="line2d_6">
      <path d="M 51.635416 368.512219 
L 704.88 368.512219 
" clip-path="url(#p64c61ef990)" style="fill: none; stroke: #b0b0b0; stroke-opacity: 0.3; stroke-linecap: square"/>
     </g>
     <g id="line2d_7">
      <defs>
       <path id="mb22b98163b" d="M 0 0 
L -3.5 0 
" style="stroke: #000000; stroke-width: 0.8"/>
      </defs>
      <g>
       <use xlink:href="#mb22b98163b" x="51.635416" y="368.512219" style="stroke: #000000; stroke-width: 0.8"/>
      </g>
     </g>
     <g id="text_7">
      <!-- $\mathdefault{1.0}$ -->
      <g transform="translate(30.63234 372.317392) scale(0.11 -0.11)">
       <defs>
        <path id="CMR17-31" d="M 1702 4058 
C 1702 4192 1696 4192 1606 4192 
C 1357 3916 979 3827 621 3827 
C 602 3827 570 3827 563 3808 
C 557 3795 557 3782 557 3648 
C 755 3648 1088 3686 1344 3839 
L 1344 461 
C 1344 236 1331 160 781 160 
L 589 160 
L 589 0 
C 896 0 1216 0 1523 0 
C 1830 0 2150 0 2458 0 
L 2458 160 
L 2266 160 
C 1715 160 1702 230 1702 458 
L 1702 4058 
z
" transform="scale(0.015625)"/>
        <path id="CMMI12-3a" d="M 1178 307 
C 1178 492 1024 619 870 619 
C 685 619 557 466 557 313 
C 557 128 710 0 864 0 
C 1050 0 1178 153 1178 307 
z
" transform="scale(0.015625)"/>
        <path id="CMR17-30" d="M 2688 2025 
C 2688 2416 2682 3080 2413 3591 
C 2176 4039 1798 4198 1466 4198 
C 1158 4198 768 4058 525 3597 
C 269 3118 243 2524 243 2025 
C 243 1661 250 1106 448 619 
C 723 -39 1216 -128 1466 -128 
C 1760 -128 2208 -7 2470 600 
C 2662 1042 2688 1559 2688 2025 
z
M 1466 -26 
C 1056 -26 813 325 723 812 
C 653 1188 653 1738 653 2096 
C 653 2588 653 2997 736 3387 
C 858 3929 1216 4096 1466 4096 
C 1728 4096 2067 3923 2189 3400 
C 2272 3036 2278 2607 2278 2096 
C 2278 1680 2278 1169 2202 792 
C 2067 95 1690 -26 1466 -26 
z
" transform="scale(0.015625)"/>
       </defs>
       <use xlink:href="#CMR17-31" transform="scale(0.996264)"/>
       <use xlink:href="#CMMI12-3a" transform="translate(45.690477 0) scale(0.996264)"/>
       <use xlink:href="#CMR17-30" transform="translate(72.787654 0) scale(0.996264)"/>
      </g>
     </g>
    </g>
    <g id="ytick_2">
     <g id="line2d_8">
      <path d="M 51.635416 315.904514 
L 704.88 315.904514 
" clip-path="url(#p64c61ef990)" style="fill: none; stroke: #b0b0b0; stroke-opacity: 0.3; stroke-linecap: square"/>
     </g>
     <g id="line2d_9">
      <g>
       <use xlink:href="#mb22b98163b" x="51.635416" y="315.904514" style="stroke: #000000; stroke-width: 0.8"/>
      </g>
     </g>
     <g id="text_8">
      <!-- $\mathdefault{1.5}$ -->
      <g transform="translate(30.63234 319.709687) scale(0.11 -0.11)">
       <defs>
        <path id="CMR17-35" d="M 730 3692 
C 794 3666 1056 3584 1325 3584 
C 1920 3584 2246 3911 2432 4100 
C 2432 4157 2432 4192 2394 4192 
C 2387 4192 2374 4192 2323 4163 
C 2099 4058 1837 3973 1517 3973 
C 1325 3973 1037 3999 723 4139 
C 653 4171 640 4171 634 4171 
C 602 4171 595 4164 595 4037 
L 595 2203 
C 595 2089 595 2057 659 2057 
C 691 2057 704 2070 736 2114 
C 941 2401 1222 2522 1542 2522 
C 1766 2522 2246 2382 2246 1289 
C 2246 1085 2246 715 2054 421 
C 1894 159 1645 25 1370 25 
C 947 25 518 320 403 814 
C 429 807 480 795 506 795 
C 589 795 749 840 749 1038 
C 749 1210 627 1280 506 1280 
C 358 1280 262 1190 262 1011 
C 262 454 704 -128 1382 -128 
C 2042 -128 2669 440 2669 1264 
C 2669 2030 2170 2624 1549 2624 
C 1222 2624 947 2503 730 2274 
L 730 3692 
z
" transform="scale(0.015625)"/>
       </defs>
       <use xlink:href="#CMR17-31" transform="scale(0.996264)"/>
       <use xlink:href="#CMMI12-3a" transform="translate(45.690477 0) scale(0.996264)"/>
       <use xlink:href="#CMR17-35" transform="translate(72.787654 0) scale(0.996264)"/>
      </g>
     </g>
    </g>
    <g id="ytick_3">
     <g id="line2d_10">
      <path d="M 51.635416 263.296808 
L 704.88 263.296808 
" clip-path="url(#p64c61ef990)" style="fill: none; stroke: #b0b0b0; stroke-opacity: 0.3; stroke-linecap: square"/>
     </g>
     <g id="line2d_11">
      <g>
       <use xlink:href="#mb22b98163b" x="51.635416" y="263.296808" style="stroke: #000000; stroke-width: 0.8"/>
      </g>
     </g>
     <g id="text_9">
      <!-- $\mathdefault{2.0}$ -->
      <g transform="translate(30.63234 267.101982) scale(0.11 -0.11)">
       <defs>
        <path id="CMR17-32" d="M 2669 989 
L 2554 989 
C 2490 536 2438 459 2413 420 
C 2381 369 1920 369 1830 369 
L 602 369 
C 832 619 1280 1072 1824 1597 
C 2214 1967 2669 2402 2669 3035 
C 2669 3790 2067 4224 1395 4224 
C 691 4224 262 3604 262 3030 
C 262 2780 448 2748 525 2748 
C 589 2748 781 2787 781 3010 
C 781 3207 614 3264 525 3264 
C 486 3264 448 3258 422 3245 
C 544 3790 915 4058 1306 4058 
C 1862 4058 2227 3617 2227 3035 
C 2227 2479 1901 2000 1536 1584 
L 262 146 
L 262 0 
L 2515 0 
L 2669 989 
z
" transform="scale(0.015625)"/>
       </defs>
       <use xlink:href="#CMR17-32" transform="scale(0.996264)"/>
       <use xlink:href="#CMMI12-3a" transform="translate(45.690477 0) scale(0.996264)"/>
       <use xlink:href="#CMR17-30" transform="translate(72.787654 0) scale(0.996264)"/>
      </g>
     </g>
    </g>
    <g id="ytick_4">
     <g id="line2d_12">
      <path d="M 51.635416 210.689103 
L 704.88 210.689103 
" clip-path="url(#p64c61ef990)" style="fill: none; stroke: #b0b0b0; stroke-opacity: 0.3; stroke-linecap: square"/>
     </g>
     <g id="line2d_13">
      <g>
       <use xlink:href="#mb22b98163b" x="51.635416" y="210.689103" style="stroke: #000000; stroke-width: 0.8"/>
      </g>
     </g>
     <g id="text_10">
      <!-- $\mathdefault{2.5}$ -->
      <g transform="translate(30.63234 214.494277) scale(0.11 -0.11)">
       <use xlink:href="#CMR17-32" transform="scale(0.996264)"/>
       <use xlink:href="#CMMI12-3a" transform="translate(45.690477 0) scale(0.996264)"/>
       <use xlink:href="#CMR17-35" transform="translate(72.787654 0) scale(0.996264)"/>
      </g>
     </g>
    </g>
    <g id="ytick_5">
     <g id="line2d_14">
      <path d="M 51.635416 158.081398 
L 704.88 158.081398 
" clip-path="url(#p64c61ef990)" style="fill: none; stroke: #b0b0b0; stroke-opacity: 0.3; stroke-linecap: square"/>
     </g>
     <g id="line2d_15">
      <g>
       <use xlink:href="#mb22b98163b" x="51.635416" y="158.081398" style="stroke: #000000; stroke-width: 0.8"/>
      </g>
     </g>
     <g id="text_11">
      <!-- $\mathdefault{3.0}$ -->
      <g transform="translate(30.63234 161.886571) scale(0.11 -0.11)">
       <defs>
        <path id="CMR17-33" d="M 1414 2157 
C 1984 2157 2234 1662 2234 1090 
C 2234 320 1824 25 1453 25 
C 1114 25 563 194 390 693 
C 422 680 454 680 486 680 
C 640 680 755 782 755 948 
C 755 1133 614 1216 486 1216 
C 378 1216 211 1165 211 926 
C 211 335 787 -128 1466 -128 
C 2176 -128 2720 430 2720 1085 
C 2720 1707 2208 2157 1600 2227 
C 2086 2328 2554 2756 2554 3329 
C 2554 3820 2048 4179 1472 4179 
C 890 4179 378 3829 378 3329 
C 378 3110 544 3072 627 3072 
C 762 3072 877 3155 877 3321 
C 877 3486 762 3569 627 3569 
C 602 3569 570 3569 544 3557 
C 730 3959 1235 4032 1459 4032 
C 1683 4032 2106 3925 2106 3320 
C 2106 3143 2080 2828 1862 2550 
C 1670 2304 1453 2304 1242 2284 
C 1210 2284 1062 2269 1037 2269 
C 992 2263 966 2257 966 2208 
C 966 2163 973 2157 1101 2157 
L 1414 2157 
z
" transform="scale(0.015625)"/>
       </defs>
       <use xlink:href="#CMR17-33" transform="scale(0.996264)"/>
       <use xlink:href="#CMMI12-3a" transform="translate(45.690477 0) scale(0.996264)"/>
       <use xlink:href="#CMR17-30" transform="translate(72.787654 0) scale(0.996264)"/>
      </g>
     </g>
    </g>
    <g id="ytick_6">
     <g id="line2d_16">
      <path d="M 51.635416 105.473693 
L 704.88 105.473693 
" clip-path="url(#p64c61ef990)" style="fill: none; stroke: #b0b0b0; stroke-opacity: 0.3; stroke-linecap: square"/>
     </g>
     <g id="line2d_17">
      <g>
       <use xlink:href="#mb22b98163b" x="51.635416" y="105.473693" style="stroke: #000000; stroke-width: 0.8"/>
      </g>
     </g>
     <g id="text_12">
      <!-- $\mathdefault{3.5}$ -->
      <g transform="translate(30.63234 109.278866) scale(0.11 -0.11)">
       <use xlink:href="#CMR17-33" transform="scale(0.996264)"/>
       <use xlink:href="#CMMI12-3a" transform="translate(45.690477 0) scale(0.996264)"/>
       <use xlink:href="#CMR17-35" transform="translate(72.787654 0) scale(0.996264)"/>
      </g>
     </g>
    </g>
    <g id="ytick_7">
     <g id="line2d_18">
      <path d="M 51.635416 52.865988 
L 704.88 52.865988 
" clip-path="url(#p64c61ef990)" style="fill: none; stroke: #b0b0b0; stroke-opacity: 0.3; stroke-linecap: square"/>
     </g>
     <g id="line2d_19">
      <g>
       <use xlink:href="#mb22b98163b" x="51.635416" y="52.865988" style="stroke: #000000; stroke-width: 0.8"/>
      </g>
     </g>
     <g id="text_13">
      <!-- $\mathdefault{4.0}$ -->
      <g transform="translate(30.63234 56.671161) scale(0.11 -0.11)">
       <defs>
        <path id="CMR17-34" d="M 2150 4122 
C 2150 4256 2144 4256 2029 4256 
L 128 1254 
L 128 1088 
L 1779 1088 
L 1779 457 
C 1779 224 1766 160 1318 160 
L 1197 160 
L 1197 0 
C 1402 0 1747 0 1965 0 
C 2182 0 2528 0 2733 0 
L 2733 160 
L 2611 160 
C 2163 160 2150 224 2150 457 
L 2150 1088 
L 2803 1088 
L 2803 1254 
L 2150 1254 
L 2150 4122 
z
M 1798 3703 
L 1798 1254 
L 256 1254 
L 1798 3703 
z
" transform="scale(0.015625)"/>
       </defs>
       <use xlink:href="#CMR17-34" transform="scale(0.996264)"/>
       <use xlink:href="#CMMI12-3a" transform="translate(45.690477 0) scale(0.996264)"/>
       <use xlink:href="#CMR17-30" transform="translate(72.787654 0) scale(0.996264)"/>
      </g>
     </g>
    </g>
    <g id="text_14">
     <!-- Distortion -->
     <g transform="translate(24.114028 235.497321) rotate(-90) scale(0.13 -0.13)">
      <defs>
       <path id="CMR17-44" d="M 333 4352 
L 333 4186 
C 774 4186 845 4186 845 3900 
L 845 452 
C 845 166 774 166 333 166 
L 333 0 
L 2368 0 
C 3398 0 4224 943 4224 2141 
C 4224 3346 3411 4352 2368 4352 
L 333 4352 
z
M 1523 166 
C 1267 166 1254 197 1254 414 
L 1254 3938 
C 1254 4155 1267 4186 1523 4186 
L 2240 4186 
C 2771 4186 3750 3874 3750 2141 
C 3750 1242 3488 879 3366 707 
C 3213 510 2848 166 2240 166 
L 1523 166 
z
" transform="scale(0.015625)"/>
      </defs>
      <use xlink:href="#CMR17-44" transform="scale(0.996264)"/>
      <use xlink:href="#CMR17-69" transform="translate(70.393556 0) scale(0.996264)"/>
      <use xlink:href="#CMR17-73" transform="translate(95.264614 0) scale(0.996264)"/>
      <use xlink:href="#CMR17-74" transform="translate(131.065952 0) scale(0.996264)"/>
      <use xlink:href="#CMR17-6f" transform="translate(166.34672 0) scale(0.996264)"/>
      <use xlink:href="#CMR17-72" transform="translate(212.037197 0) scale(0.996264)"/>
      <use xlink:href="#CMR17-74" transform="translate(247.317965 0) scale(0.996264)"/>
      <use xlink:href="#CMR17-69" transform="translate(282.598733 0) scale(0.996264)"/>
      <use xlink:href="#CMR17-6f" transform="translate(307.469791 0) scale(0.996264)"/>
      <use xlink:href="#CMR17-6e" transform="translate(353.160268 0) scale(0.996264)"/>
     </g>
    </g>
   </g>
   <g id="LineCollection_1">
    <path d="M 97.824427 366.526388 
L 130.816578 366.526388 
" clip-path="url(#p64c61ef990)" style="fill: none; stroke: #1f77b4; stroke-width: 1.5"/>
    <path d="M 229.79303 364.024601 
L 262.785181 364.024601 
" clip-path="url(#p64c61ef990)" style="fill: none; stroke: #1f77b4; stroke-width: 1.5"/>
    <path d="M 361.761633 337.55122 
L 394.753784 337.55122 
" clip-path="url(#p64c61ef990)" style="fill: none; stroke: #1f77b4; stroke-width: 1.5"/>
    <path d="M 493.730236 366.878751 
L 526.722386 366.878751 
" clip-path="url(#p64c61ef990)" style="fill: none; stroke: #1f77b4; stroke-width: 1.5"/>
    <path d="M 625.698838 353.763198 
L 658.690989 353.763198 
" clip-path="url(#p64c61ef990)" style="fill: none; stroke: #1f77b4; stroke-width: 1.5"/>
   </g>
   <g id="LineCollection_2">
    <path d="M 97.824427 327.093779 
L 130.816578 327.093779 
" clip-path="url(#p64c61ef990)" style="fill: none; stroke: #1f77b4; stroke-width: 1.5"/>
    <path d="M 229.79303 288.740727 
L 262.785181 288.740727 
" clip-path="url(#p64c61ef990)" style="fill: none; stroke: #1f77b4; stroke-width: 1.5"/>
    <path d="M 361.761633 46.228228 
L 394.753784 46.228228 
" clip-path="url(#p64c61ef990)" style="fill: none; stroke: #1f77b4; stroke-width: 1.5"/>
    <path d="M 493.730236 318.697713 
L 526.722386 318.697713 
" clip-path="url(#p64c61ef990)" style="fill: none; stroke: #1f77b4; stroke-width: 1.5"/>
    <path d="M 625.698838 201.352315 
L 658.690989 201.352315 
" clip-path="url(#p64c61ef990)" style="fill: none; stroke: #1f77b4; stroke-width: 1.5"/>
   </g>
   <g id="LineCollection_3">
    <path d="M 97.824427 368.512219 
L 130.816578 368.512219 
" clip-path="url(#p64c61ef990)" style="fill: none; stroke: #1f77b4; stroke-width: 1.5"/>
    <path d="M 229.79303 368.512219 
L 262.785181 368.512219 
" clip-path="url(#p64c61ef990)" style="fill: none; stroke: #1f77b4; stroke-width: 1.5"/>
    <path d="M 361.761633 368.512219 
L 394.753784 368.512219 
" clip-path="url(#p64c61ef990)" style="fill: none; stroke: #1f77b4; stroke-width: 1.5"/>
    <path d="M 493.730236 368.512219 
L 526.722386 368.512219 
" clip-path="url(#p64c61ef990)" style="fill: none; stroke: #1f77b4; stroke-width: 1.5"/>
    <path d="M 625.698838 368.512219 
L 658.690989 368.512219 
" clip-path="url(#p64c61ef990)" style="fill: none; stroke: #1f77b4; stroke-width: 1.5"/>
   </g>
   <g id="LineCollection_4">
    <path d="M 114.320503 368.512219 
L 114.320503 327.093779 
" clip-path="url(#p64c61ef990)" style="fill: none; stroke: #1f77b4; stroke-width: 1.5"/>
    <path d="M 246.289105 368.512219 
L 246.289105 288.740727 
" clip-path="url(#p64c61ef990)" style="fill: none; stroke: #1f77b4; stroke-width: 1.5"/>
    <path d="M 378.257708 368.512219 
L 378.257708 46.228228 
" clip-path="url(#p64c61ef990)" style="fill: none; stroke: #1f77b4; stroke-width: 1.5"/>
    <path d="M 510.226311 368.512219 
L 510.226311 318.697713 
" clip-path="url(#p64c61ef990)" style="fill: none; stroke: #1f77b4; stroke-width: 1.5"/>
    <path d="M 642.194914 368.512219 
L 642.194914 201.352315 
" clip-path="url(#p64c61ef990)" style="fill: none; stroke: #1f77b4; stroke-width: 1.5"/>
   </g>
   <g id="patch_3">
    <path d="M 51.635416 384.626418 
L 51.635416 30.114028 
" style="fill: none; stroke: #000000; stroke-linejoin: miter; stroke-linecap: square"/>
   </g>
   <g id="patch_4">
    <path d="M 704.88 384.626418 
L 704.88 30.114028 
" style="fill: none; stroke: #000000; stroke-linejoin: miter; stroke-linecap: square"/>
   </g>
   <g id="patch_5">
    <path d="M 51.635416 384.626418 
L 704.88 384.626418 
" style="fill: none; stroke: #000000; stroke-linejoin: miter; stroke-linecap: square"/>
   </g>
   <g id="patch_6">
    <path d="M 51.635416 30.114028 
L 704.88 30.114028 
" style="fill: none; stroke: #000000; stroke-linejoin: miter; stroke-linecap: square"/>
   </g>
   <g id="text_15">
    <!-- Distortion Under Nash -->
    <g transform="translate(314.87355 24.114028) scale(0.13 -0.13)">
     <defs>
      <path id="CMR17-55" d="M 3456 1433 
C 3456 579 2899 38 2291 38 
C 1965 38 1670 210 1491 477 
C 1286 783 1261 1178 1261 1401 
L 1261 3874 
C 1261 4160 1331 4160 1773 4160 
L 1773 4320 
C 1587 4320 1248 4320 1050 4320 
C 851 4320 512 4320 326 4320 
L 326 4160 
C 768 4160 838 4160 838 3874 
L 838 1433 
C 838 516 1536 -128 2278 -128 
C 3110 -128 3590 719 3590 1344 
L 3590 3766 
C 3590 4122 3917 4160 4102 4160 
L 4102 4326 
C 3955 4320 3686 4320 3526 4320 
C 3366 4320 3091 4320 2944 4326 
L 2944 4160 
C 3456 4160 3456 3861 3456 3702 
L 3456 1433 
z
" transform="scale(0.015625)"/>
      <path id="CMR17-68" d="M 2656 1933 
C 2656 2259 2592 2790 1837 2790 
C 1312 2790 1056 2368 979 2157 
L 973 2157 
L 973 4396 
L 211 4326 
L 211 4160 
C 589 4160 646 4122 646 3817 
L 646 426 
C 646 184 621 153 211 153 
L 211 -13 
C 365 0 646 0 813 0 
C 979 0 1267 0 1421 -13 
L 1421 153 
C 1011 153 986 178 986 428 
L 986 1658 
C 986 2247 1344 2688 1792 2688 
C 2266 2688 2317 2266 2317 1958 
L 2317 428 
C 2317 184 2291 153 1882 153 
L 1882 -13 
C 2035 0 2317 0 2483 0 
C 2650 0 2938 0 3091 -13 
L 3091 153 
C 2682 153 2656 178 2656 428 
L 2656 1933 
z
" transform="scale(0.015625)"/>
     </defs>
     <use xlink:href="#CMR17-44" transform="scale(0.996264)"/>
     <use xlink:href="#CMR17-69" transform="translate(70.393556 0) scale(0.996264)"/>
     <use xlink:href="#CMR17-73" transform="translate(95.264614 0) scale(0.996264)"/>
     <use xlink:href="#CMR17-74" transform="translate(131.065952 0) scale(0.996264)"/>
     <use xlink:href="#CMR17-6f" transform="translate(166.34672 0) scale(0.996264)"/>
     <use xlink:href="#CMR17-72" transform="translate(212.037197 0) scale(0.996264)"/>
     <use xlink:href="#CMR17-74" transform="translate(247.317965 0) scale(0.996264)"/>
     <use xlink:href="#CMR17-69" transform="translate(282.598733 0) scale(0.996264)"/>
     <use xlink:href="#CMR17-6f" transform="translate(307.469791 0) scale(0.996264)"/>
     <use xlink:href="#CMR17-6e" transform="translate(353.160268 0) scale(0.996264)"/>
     <use xlink:href="#CMR17-55" transform="translate(434.131604 0) scale(0.996264)"/>
     <use xlink:href="#CMR17-6e" transform="translate(503.204034 0) scale(0.996264)"/>
     <use xlink:href="#CMR17-64" transform="translate(554.099404 0) scale(0.996264)"/>
     <use xlink:href="#CMR17-65" transform="translate(604.994774 0) scale(0.996264)"/>
     <use xlink:href="#CMR17-72" transform="translate(645.480434 0) scale(0.996264)"/>
     <use xlink:href="#CMR17-4e" transform="translate(710.837168 0) scale(0.996264)"/>
     <use xlink:href="#CMR17-61" transform="translate(779.909598 0) scale(0.996264)"/>
     <use xlink:href="#CMR17-73" transform="translate(825.600075 0) scale(0.996264)"/>
     <use xlink:href="#CMR17-68" transform="translate(861.401413 0) scale(0.996264)"/>
    </g>
   </g>
  </g>
 </g>
 <defs>
  <clipPath id="p64c61ef990">
   <rect x="51.635416" y="30.114028" width="653.244584" height="354.51239"/>
  </clipPath>
 </defs>
</svg>
