<?xml version="1.0" encoding="utf-8" standalone="no"?>
<!DOCTYPE svg PUBLIC "-//W3C//DTD SVG 1.1//EN"
  "http://www.w3.org/Graphics/SVG/1.1/DTD/svg11.dtd">
<svg xmlns:xlink="http://www.w3.org/1999/xlink" width="720pt" height="432pt" viewBox="0 0 720 432" xmlns="http://www.w3.org/2000/svg" version="1.1">
 <metadata>
  <rdf:RDF xmlns:dc="http://purl.org/dc/elements/1.1/" xmlns:cc="http://creativecommons.org/ns#" xmlns:rdf="http://www.w3.org/1999/02/22-rdf-syntax-ns#">
   <cc:Work>
    <dc:type rdf:resource="http://purl.org/dc/dcmitype/StillImage"/>
    <dc:date>2024-12-08T13:02:53.321305</dc:date>
    <dc:format>image/svg+xml</dc:format>
    <dc:creator>
     <cc:Agent>
      <dc:title>Matplotlib v3.9.2, https://matplotlib.org/</dc:title>
     </cc:Agent>
    </dc:creator>
   </cc:Work>
  </rdf:RDF>
 </metadata>
 <defs>
  <style type="text/css">*{stroke-linejoin: round; stroke-linecap: butt}</style>
 </defs>
 <g id="figure_1">
  <g id="patch_1">
   <path d="M 0 432 
L 720 432 
L 720 0 
L 0 0 
z
" style="fill: #ffffff"/>
  </g>
  <g id="axes_1">
   <g id="patch_2">
    <path d="M 48.591275 384.626418 
L 704.88 384.626418 
L 704.88 30.114028 
L 48.591275 30.114028 
z
" style="fill: #ffffff"/>
   </g>
   <g id="PolyCollection_1">
    <defs>
     <path id="m35cb05fe77" d="M 135.374581 -64.67497 
L 106.702882 -64.67497 
L 104.200168 -67.704326 
L 101.543116 -70.733682 
L 98.778601 -73.763038 
L 95.962759 -76.792393 
L 93.159376 -79.821749 
L 90.437439 -82.851105 
L 87.867766 -85.880461 
L 85.518794 -88.909817 
L 83.451759 -91.939172 
L 81.715752 -94.968528 
L 80.343244 -97.997884 
L 79.346779 -101.02724 
L 78.71742 -104.056595 
L 78.425337 -107.085951 
L 78.42258 -110.115307 
L 78.647752 -113.144663 
L 79.031956 -116.174019 
L 79.505268 -119.203374 
L 80.002936 -122.23273 
L 80.470664 -125.262086 
L 80.868589 -128.291442 
L 81.1738 -131.320797 
L 81.381433 -134.350153 
L 81.504473 -137.379509 
L 81.572386 -140.408865 
L 81.628631 -143.438221 
L 81.727055 -146.467576 
L 81.92724 -149.496932 
L 82.288947 -152.526288 
L 82.866075 -155.555644 
L 83.700718 -158.584999 
L 84.818084 -161.614355 
L 86.223013 -164.643711 
L 87.898694 -167.673067 
L 89.807832 -170.702423 
L 91.896159 -173.731778 
L 94.097785 -176.761134 
L 96.341623 -179.79049 
L 98.558017 -182.819846 
L 100.684728 -185.849202 
L 102.671649 -188.878557 
L 104.483837 -191.907913 
L 106.102742 -194.937269 
L 107.525724 -197.966625 
L 108.764095 -200.99598 
L 109.840059 -204.025336 
L 110.782925 -207.054692 
L 111.625035 -210.084048 
L 112.397813 -213.113404 
L 113.128331 -216.142759 
L 113.836738 -219.172115 
L 114.534787 -222.201471 
L 115.225557 -225.230827 
L 115.904335 -228.260182 
L 116.560441 -231.289538 
L 117.17967 -234.318894 
L 117.746972 -237.34825 
L 118.248963 -240.377606 
L 118.675953 -243.406961 
L 119.023272 -246.436317 
L 119.291796 -249.465673 
L 119.487701 -252.495029 
L 119.621572 -255.524384 
L 119.707045 -258.55374 
L 119.759222 -261.583096 
L 119.793048 -264.612452 
L 119.821878 -267.641808 
L 119.856368 -270.671163 
L 119.903797 -273.700519 
L 119.967856 -276.729875 
L 120.048886 -279.759231 
L 120.144464 -282.788587 
L 120.250236 -285.817942 
L 120.360822 -288.847298 
L 120.470693 -291.876654 
L 120.574865 -294.90601 
L 120.669377 -297.935365 
L 120.751499 -300.964721 
L 120.819718 -303.994077 
L 120.873531 -307.023433 
L 120.913136 -310.052789 
L 120.93908 -313.082144 
L 120.951932 -316.1115 
L 120.952048 -319.140856 
L 120.939432 -322.170212 
L 120.913741 -325.199567 
L 120.874414 -328.228923 
L 120.820919 -331.258279 
L 120.753082 -334.287635 
L 120.671448 -337.316991 
L 120.577617 -340.346346 
L 120.474484 -343.375702 
L 120.366309 -346.405058 
L 120.25858 -349.434414 
L 120.157652 -352.463769 
L 120.07018 -355.493125 
L 120.002421 -358.522481 
L 119.959508 -361.551837 
L 119.944813 -364.581193 
L 122.13265 -364.581193 
L 122.13265 -364.581193 
L 122.117955 -361.551837 
L 122.075042 -358.522481 
L 122.007283 -355.493125 
L 121.919811 -352.463769 
L 121.818883 -349.434414 
L 121.711154 -346.405058 
L 121.602979 -343.375702 
L 121.499846 -340.346346 
L 121.406015 -337.316991 
L 121.324381 -334.287635 
L 121.256543 -331.258279 
L 121.203049 -328.228923 
L 121.163722 -325.199567 
L 121.138031 -322.170212 
L 121.125415 -319.140856 
L 121.125531 -316.1115 
L 121.138383 -313.082144 
L 121.164326 -310.052789 
L 121.203932 -307.023433 
L 121.257745 -303.994077 
L 121.325964 -300.964721 
L 121.408086 -297.935365 
L 121.502597 -294.90601 
L 121.60677 -291.876654 
L 121.71664 -288.847298 
L 121.827227 -285.817942 
L 121.932998 -282.788587 
L 122.028577 -279.759231 
L 122.109607 -276.729875 
L 122.173666 -273.700519 
L 122.221095 -270.671163 
L 122.255585 -267.641808 
L 122.284415 -264.612452 
L 122.318241 -261.583096 
L 122.370417 -258.55374 
L 122.455891 -255.524384 
L 122.589761 -252.495029 
L 122.785667 -249.465673 
L 123.054191 -246.436317 
L 123.40151 -243.406961 
L 123.8285 -240.377606 
L 124.33049 -237.34825 
L 124.897793 -234.318894 
L 125.517022 -231.289538 
L 126.173127 -228.260182 
L 126.851905 -225.230827 
L 127.542675 -222.201471 
L 128.240724 -219.172115 
L 128.949132 -216.142759 
L 129.67965 -213.113404 
L 130.452427 -210.084048 
L 131.294538 -207.054692 
L 132.237404 -204.025336 
L 133.313367 -200.99598 
L 134.551739 -197.966625 
L 135.974721 -194.937269 
L 137.593626 -191.907913 
L 139.405814 -188.878557 
L 141.392735 -185.849202 
L 143.519446 -182.819846 
L 145.735839 -179.79049 
L 147.979678 -176.761134 
L 150.181304 -173.731778 
L 152.269631 -170.702423 
L 154.178769 -167.673067 
L 155.854449 -164.643711 
L 157.259379 -161.614355 
L 158.376745 -158.584999 
L 159.211388 -155.555644 
L 159.788516 -152.526288 
L 160.150223 -149.496932 
L 160.350407 -146.467576 
L 160.448832 -143.438221 
L 160.505076 -140.408865 
L 160.57299 -137.379509 
L 160.69603 -134.350153 
L 160.903663 -131.320797 
L 161.208874 -128.291442 
L 161.606799 -125.262086 
L 162.074527 -122.23273 
L 162.572195 -119.203374 
L 163.045507 -116.174019 
L 163.429711 -113.144663 
L 163.654882 -110.115307 
L 163.652126 -107.085951 
L 163.360043 -104.056595 
L 162.730684 -101.02724 
L 161.734218 -97.997884 
L 160.36171 -94.968528 
L 158.625703 -91.939172 
L 156.558669 -88.909817 
L 154.209697 -85.880461 
L 151.640024 -82.851105 
L 148.918087 -79.821749 
L 146.114704 -76.792393 
L 143.298862 -73.763038 
L 140.534347 -70.733682 
L 137.877295 -67.704326 
L 135.374581 -64.67497 
z
" style="stroke: #000000; stroke-opacity: 0.4"/>
    </defs>
    <g clip-path="url(#pbf9919d123)">
     <use xlink:href="#m35cb05fe77" x="0" y="432" style="fill: #440154; fill-opacity: 0.4; stroke: #000000; stroke-opacity: 0.4"/>
    </g>
   </g>
   <g id="PolyCollection_2">
    <defs>
     <path id="m706d44656b" d="M 312.08826 -63.487781 
L 270.918411 -63.487781 
L 268.496003 -66.743175 
L 266.078861 -69.998569 
L 263.70909 -73.253963 
L 261.426705 -76.509357 
L 259.268062 -79.76475 
L 257.264747 -83.020144 
L 255.442942 -86.275538 
L 253.823273 -89.530932 
L 252.421039 -92.786326 
L 251.246701 -96.04172 
L 250.306466 -99.297113 
L 249.602826 -102.552507 
L 249.134935 -105.807901 
L 248.898786 -109.063295 
L 248.887184 -112.318689 
L 249.089598 -115.574083 
L 249.492008 -118.829477 
L 250.076873 -122.08487 
L 250.823347 -125.340264 
L 251.707797 -128.595658 
L 252.704674 -131.851052 
L 253.787645 -135.106446 
L 254.93091 -138.36184 
L 256.110533 -141.617234 
L 257.305631 -144.872627 
L 258.499264 -148.128021 
L 259.678924 -151.383415 
L 260.83656 -154.638809 
L 261.968164 -157.894203 
L 263.072973 -161.149597 
L 264.15242 -164.40499 
L 265.208991 -167.660384 
L 266.245116 -170.915778 
L 267.262271 -174.171172 
L 268.260366 -177.426566 
L 269.237502 -180.68196 
L 270.190091 -183.937354 
L 271.113305 -187.192747 
L 272.001762 -190.448141 
L 272.850336 -193.703535 
L 273.654967 -196.958929 
L 274.413332 -200.214323 
L 275.125304 -203.469717 
L 275.79311 -206.725111 
L 276.421189 -209.980504 
L 277.015777 -213.235898 
L 277.584273 -216.491292 
L 278.134496 -219.746686 
L 278.673937 -223.00208 
L 279.209092 -226.257474 
L 279.744971 -229.512867 
L 280.284819 -232.768261 
L 280.83006 -236.023655 
L 281.380445 -239.279049 
L 281.934345 -242.534443 
L 282.489141 -245.789837 
L 283.041619 -249.045231 
L 283.588346 -252.300624 
L 284.12596 -255.556018 
L 284.651378 -258.811412 
L 285.161912 -262.066806 
L 285.655314 -265.3222 
L 286.129777 -268.577594 
L 286.583907 -271.832988 
L 287.016691 -275.088381 
L 287.427465 -278.343775 
L 287.815879 -281.599169 
L 288.181869 -284.854563 
L 288.525602 -288.109957 
L 288.847422 -291.365351 
L 289.147774 -294.620744 
L 289.427125 -297.876138 
L 289.68589 -301.131532 
L 289.924373 -304.386926 
L 290.142737 -307.64232 
L 290.341001 -310.897714 
L 290.519067 -314.153108 
L 290.676766 -317.408501 
L 290.813916 -320.663895 
L 290.930378 -323.919289 
L 291.026105 -327.174683 
L 291.101179 -330.430077 
L 291.155835 -333.685471 
L 291.190482 -336.940865 
L 291.205733 -340.196258 
L 291.202436 -343.451652 
L 291.18173 -346.707046 
L 291.145106 -349.96244 
L 291.094479 -353.217834 
L 291.03224 -356.473228 
L 290.961289 -359.728622 
L 290.885011 -362.984015 
L 290.8072 -366.239409 
L 290.731907 -369.494803 
L 290.663236 -372.750197 
L 290.605086 -376.005591 
L 290.560878 -379.260985 
L 290.533292 -382.516378 
L 290.524053 -385.771772 
L 292.482618 -385.771772 
L 292.482618 -385.771772 
L 292.473379 -382.516378 
L 292.445793 -379.260985 
L 292.401585 -376.005591 
L 292.343435 -372.750197 
L 292.274764 -369.494803 
L 292.199471 -366.239409 
L 292.12166 -362.984015 
L 292.045382 -359.728622 
L 291.974431 -356.473228 
L 291.912192 -353.217834 
L 291.861565 -349.96244 
L 291.824941 -346.707046 
L 291.804235 -343.451652 
L 291.800938 -340.196258 
L 291.816189 -336.940865 
L 291.850836 -333.685471 
L 291.905492 -330.430077 
L 291.980566 -327.174683 
L 292.076293 -323.919289 
L 292.192755 -320.663895 
L 292.329905 -317.408501 
L 292.487604 -314.153108 
L 292.66567 -310.897714 
L 292.863934 -307.64232 
L 293.082298 -304.386926 
L 293.320781 -301.131532 
L 293.579545 -297.876138 
L 293.858896 -294.620744 
L 294.159248 -291.365351 
L 294.481069 -288.109957 
L 294.824802 -284.854563 
L 295.190791 -281.599169 
L 295.579206 -278.343775 
L 295.989979 -275.088381 
L 296.422764 -271.832988 
L 296.876894 -268.577594 
L 297.351357 -265.3222 
L 297.844759 -262.066806 
L 298.355293 -258.811412 
L 298.880711 -255.556018 
L 299.418325 -252.300624 
L 299.965052 -249.045231 
L 300.51753 -245.789837 
L 301.072325 -242.534443 
L 301.626226 -239.279049 
L 302.176611 -236.023655 
L 302.721852 -232.768261 
L 303.261699 -229.512867 
L 303.797579 -226.257474 
L 304.332733 -223.00208 
L 304.872174 -219.746686 
L 305.422398 -216.491292 
L 305.990893 -213.235898 
L 306.585481 -209.980504 
L 307.213561 -206.725111 
L 307.881367 -203.469717 
L 308.593338 -200.214323 
L 309.351704 -196.958929 
L 310.156334 -193.703535 
L 311.004909 -190.448141 
L 311.893366 -187.192747 
L 312.816579 -183.937354 
L 313.769168 -180.68196 
L 314.746304 -177.426566 
L 315.7444 -174.171172 
L 316.761555 -170.915778 
L 317.79768 -167.660384 
L 318.85425 -164.40499 
L 319.933698 -161.149597 
L 321.038506 -157.894203 
L 322.17011 -154.638809 
L 323.327747 -151.383415 
L 324.507407 -148.128021 
L 325.70104 -144.872627 
L 326.896137 -141.617234 
L 328.075761 -138.36184 
L 329.219026 -135.106446 
L 330.301997 -131.851052 
L 331.298873 -128.595658 
L 332.183324 -125.340264 
L 332.929797 -122.08487 
L 333.514663 -118.829477 
L 333.917073 -115.574083 
L 334.119486 -112.318689 
L 334.107884 -109.063295 
L 333.871736 -105.807901 
L 333.403845 -102.552507 
L 332.700205 -99.297113 
L 331.75997 -96.04172 
L 330.585632 -92.786326 
L 329.183398 -89.530932 
L 327.563729 -86.275538 
L 325.741924 -83.020144 
L 323.738609 -79.76475 
L 321.579966 -76.509357 
L 319.29758 -73.253963 
L 316.92781 -69.998569 
L 314.510668 -66.743175 
L 312.08826 -63.487781 
z
" style="stroke: #000000; stroke-opacity: 0.4"/>
    </defs>
    <g clip-path="url(#pbf9919d123)">
     <use xlink:href="#m706d44656b" x="0" y="432" style="fill: #31688e; fill-opacity: 0.4; stroke: #000000; stroke-opacity: 0.4"/>
    </g>
   </g>
   <g id="PolyCollection_3">
    <defs>
     <path id="m2505b49974" d="M 478.993253 -63.487781 
L 444.942626 -63.487781 
L 442.904334 -66.0762 
L 440.817435 -68.664618 
L 438.706683 -71.253037 
L 436.597146 -73.841456 
L 434.513552 -76.429874 
L 432.479825 -79.018293 
L 430.518856 -81.606711 
L 428.652474 -84.19513 
L 426.90159 -86.783549 
L 425.286426 -89.371967 
L 423.826727 -91.960386 
L 422.541849 -94.548805 
L 421.450641 -97.137223 
L 420.571049 -99.725642 
L 419.919434 -102.31406 
L 419.509624 -104.902479 
L 419.351788 -107.490898 
L 419.451257 -110.079316 
L 419.807418 -112.667735 
L 420.412863 -115.256154 
L 421.252903 -117.844572 
L 422.305563 -120.432991 
L 423.542112 -123.021409 
L 424.928111 -125.609828 
L 426.424928 -128.198247 
L 427.991609 -130.786665 
L 429.58693 -133.375084 
L 431.171494 -135.963503 
L 432.709662 -138.551921 
L 434.171196 -141.14034 
L 435.532473 -143.728758 
L 436.777195 -146.317177 
L 437.896574 -148.905596 
L 438.889008 -151.494014 
L 439.759308 -154.082433 
L 440.517586 -156.670852 
L 441.17792 -159.25927 
L 441.756917 -161.847689 
L 442.272322 -164.436107 
L 442.74175 -167.024526 
L 443.181654 -169.612945 
L 443.606557 -172.201363 
L 444.028582 -174.789782 
L 444.457253 -177.378201 
L 444.899536 -179.966619 
L 445.360062 -182.555038 
L 445.841461 -185.143456 
L 446.344742 -187.731875 
L 446.869672 -190.320294 
L 447.415099 -192.908712 
L 447.979204 -195.497131 
L 448.559674 -198.08555 
L 449.153809 -200.673968 
L 449.758579 -203.262387 
L 450.370656 -205.850805 
L 450.986456 -208.439224 
L 451.602185 -211.027643 
L 452.213924 -213.616061 
L 452.817739 -216.20448 
L 453.409803 -218.792899 
L 453.986532 -221.381317 
L 454.544705 -223.969736 
L 455.081563 -226.558154 
L 455.594875 -229.146573 
L 456.08296 -231.734992 
L 456.544687 -234.32341 
L 456.979425 -236.911829 
L 457.386987 -239.500248 
L 457.767548 -242.088666 
L 458.121557 -244.677085 
L 458.449646 -247.265503 
L 458.752545 -249.853922 
L 459.030993 -252.442341 
L 459.28567 -255.030759 
L 459.517128 -257.619178 
L 459.725752 -260.207597 
L 459.91174 -262.796015 
L 460.075111 -265.384434 
L 460.215756 -267.972852 
L 460.333515 -270.561271 
L 460.428286 -273.14969 
L 460.500159 -275.738108 
L 460.549558 -278.326527 
L 460.577371 -280.914946 
L 460.585063 -283.503364 
L 460.574739 -286.091783 
L 460.549165 -288.680201 
L 460.51172 -291.26862 
L 460.466297 -293.857039 
L 460.417141 -296.445457 
L 460.368655 -299.033876 
L 460.325173 -301.622295 
L 460.29073 -304.210713 
L 460.268847 -306.799132 
L 460.262339 -309.38755 
L 460.273175 -311.975969 
L 460.302391 -314.564388 
L 460.350065 -317.152806 
L 460.415352 -319.741225 
L 463.520527 -319.741225 
L 463.520527 -319.741225 
L 463.585814 -317.152806 
L 463.633488 -314.564388 
L 463.662704 -311.975969 
L 463.673539 -309.38755 
L 463.667031 -306.799132 
L 463.645148 -304.210713 
L 463.610706 -301.622295 
L 463.567224 -299.033876 
L 463.518738 -296.445457 
L 463.469582 -293.857039 
L 463.424158 -291.26862 
L 463.386714 -288.680201 
L 463.36114 -286.091783 
L 463.350816 -283.503364 
L 463.358508 -280.914946 
L 463.386321 -278.326527 
L 463.43572 -275.738108 
L 463.507593 -273.14969 
L 463.602364 -270.561271 
L 463.720122 -267.972852 
L 463.860768 -265.384434 
L 464.024139 -262.796015 
L 464.210126 -260.207597 
L 464.41875 -257.619178 
L 464.650208 -255.030759 
L 464.904885 -252.442341 
L 465.183334 -249.853922 
L 465.486232 -247.265503 
L 465.814322 -244.677085 
L 466.16833 -242.088666 
L 466.548892 -239.500248 
L 466.956454 -236.911829 
L 467.391192 -234.32341 
L 467.852918 -231.734992 
L 468.341004 -229.146573 
L 468.854315 -226.558154 
L 469.391174 -223.969736 
L 469.949347 -221.381317 
L 470.526076 -218.792899 
L 471.11814 -216.20448 
L 471.721955 -213.616061 
L 472.333694 -211.027643 
L 472.949423 -208.439224 
L 473.565222 -205.850805 
L 474.1773 -203.262387 
L 474.78207 -200.673968 
L 475.376205 -198.08555 
L 475.956675 -195.497131 
L 476.52078 -192.908712 
L 477.066207 -190.320294 
L 477.591137 -187.731875 
L 478.094418 -185.143456 
L 478.575816 -182.555038 
L 479.036342 -179.966619 
L 479.478626 -177.378201 
L 479.907297 -174.789782 
L 480.329322 -172.201363 
L 480.754225 -169.612945 
L 481.194129 -167.024526 
L 481.663557 -164.436107 
L 482.178961 -161.847689 
L 482.757959 -159.25927 
L 483.418292 -156.670852 
L 484.176571 -154.082433 
L 485.04687 -151.494014 
L 486.039304 -148.905596 
L 487.158684 -146.317177 
L 488.403406 -143.728758 
L 489.764683 -141.14034 
L 491.226217 -138.551921 
L 492.764385 -135.963503 
L 494.348948 -133.375084 
L 495.94427 -130.786665 
L 497.51095 -128.198247 
L 499.007768 -125.609828 
L 500.393766 -123.021409 
L 501.630315 -120.432991 
L 502.682976 -117.844572 
L 503.523016 -115.256154 
L 504.128461 -112.667735 
L 504.484622 -110.079316 
L 504.58409 -107.490898 
L 504.426255 -104.902479 
L 504.016445 -102.31406 
L 503.36483 -99.725642 
L 502.485238 -97.137223 
L 501.394029 -94.548805 
L 500.109151 -91.960386 
L 498.649452 -89.371967 
L 497.034289 -86.783549 
L 495.283405 -84.19513 
L 493.417022 -81.606711 
L 491.456053 -79.018293 
L 489.422327 -76.429874 
L 487.338733 -73.841456 
L 485.229196 -71.253037 
L 483.118444 -68.664618 
L 481.031545 -66.0762 
L 478.993253 -63.487781 
z
" style="stroke: #000000; stroke-opacity: 0.4"/>
    </defs>
    <g clip-path="url(#pbf9919d123)">
     <use xlink:href="#m2505b49974" x="0" y="432" style="fill: #35b779; fill-opacity: 0.4; stroke: #000000; stroke-opacity: 0.4"/>
    </g>
   </g>
   <g id="PolyCollection_4">
    <defs>
     <path id="m5789985ec5" d="M 644.222693 -64.544866 
L 620.642394 -64.544866 
L 618.698158 -67.372069 
L 616.595474 -70.199272 
L 614.353753 -73.026475 
L 611.999177 -75.853678 
L 609.564524 -78.680881 
L 607.088613 -81.508084 
L 604.615341 -84.335287 
L 602.192321 -87.16249 
L 599.869149 -89.989693 
L 597.695371 -92.816896 
L 595.718261 -95.644098 
L 593.980541 -98.471301 
L 592.518218 -101.298504 
L 591.358702 -104.125707 
L 590.519376 -106.95291 
L 590.006764 -109.780113 
L 589.816392 -112.607316 
L 589.933389 -115.434519 
L 590.333782 -118.261722 
L 590.986403 -121.088925 
L 591.855218 -123.916128 
L 592.901864 -126.743331 
L 594.088152 -129.570534 
L 595.378299 -132.397737 
L 596.740671 -135.224939 
L 598.148907 -138.052142 
L 599.582349 -140.879345 
L 601.02582 -143.706548 
L 602.468832 -146.533751 
L 603.904416 -149.360954 
L 605.327775 -152.188157 
L 606.734985 -155.01536 
L 608.121929 -157.842563 
L 609.483617 -160.669766 
L 610.813958 -163.496969 
L 612.105976 -166.324172 
L 613.352398 -169.151375 
L 614.546466 -171.978578 
L 615.682821 -174.80578 
L 616.758272 -177.632983 
L 617.772321 -180.460186 
L 618.727334 -183.287389 
L 619.628325 -186.114592 
L 620.48238 -188.941795 
L 621.297811 -191.768998 
L 622.083151 -194.596201 
L 622.846136 -197.423404 
L 623.592819 -200.250607 
L 624.326902 -203.07781 
L 625.049389 -205.905013 
L 625.75856 -208.732216 
L 626.450252 -211.559419 
L 627.118401 -214.386621 
L 627.755745 -217.213824 
L 628.354607 -220.041027 
L 628.907663 -222.86823 
L 629.40862 -225.695433 
L 629.852741 -228.522636 
L 630.237194 -231.349839 
L 630.56121 -234.177042 
L 630.826057 -237.004245 
L 631.034863 -239.831448 
L 631.192304 -242.658651 
L 631.304217 -245.485854 
L 631.377149 -248.313057 
L 631.417903 -251.14026 
L 631.433095 -253.967462 
L 631.428768 -256.794665 
L 631.41008 -259.621868 
L 631.381093 -262.449071 
L 631.344678 -265.276274 
L 631.302541 -268.103477 
L 631.25537 -270.93068 
L 631.203069 -273.757883 
L 631.145077 -276.585086 
L 631.080709 -279.412289 
L 631.009483 -282.239492 
L 630.931392 -285.066695 
L 630.847087 -287.893898 
L 630.757937 -290.721101 
L 630.665968 -293.548304 
L 630.573702 -296.375506 
L 630.483912 -299.202709 
L 630.399349 -302.029912 
L 630.322481 -304.857115 
L 630.255297 -307.684318 
L 630.1992 -310.511521 
L 630.155008 -313.338724 
L 630.123051 -316.165927 
L 630.103347 -318.99313 
L 630.095807 -321.820333 
L 630.100425 -324.647536 
L 630.11742 -327.474739 
L 630.147288 -330.301942 
L 630.19075 -333.129145 
L 630.248619 -335.956347 
L 630.321592 -338.78355 
L 630.410017 -341.610753 
L 630.513681 -344.437956 
L 634.351405 -344.437956 
L 634.351405 -344.437956 
L 634.45507 -341.610753 
L 634.543495 -338.78355 
L 634.616467 -335.956347 
L 634.674336 -333.129145 
L 634.717799 -330.301942 
L 634.747666 -327.474739 
L 634.764662 -324.647536 
L 634.76928 -321.820333 
L 634.761739 -318.99313 
L 634.742036 -316.165927 
L 634.710079 -313.338724 
L 634.665887 -310.511521 
L 634.60979 -307.684318 
L 634.542606 -304.857115 
L 634.465738 -302.029912 
L 634.381175 -299.202709 
L 634.291385 -296.375506 
L 634.199119 -293.548304 
L 634.10715 -290.721101 
L 634.017999 -287.893898 
L 633.933695 -285.066695 
L 633.855604 -282.239492 
L 633.784377 -279.412289 
L 633.720009 -276.585086 
L 633.662018 -273.757883 
L 633.609717 -270.93068 
L 633.562545 -268.103477 
L 633.520409 -265.276274 
L 633.483994 -262.449071 
L 633.455007 -259.621868 
L 633.436319 -256.794665 
L 633.431992 -253.967462 
L 633.447184 -251.14026 
L 633.487938 -248.313057 
L 633.56087 -245.485854 
L 633.672783 -242.658651 
L 633.830224 -239.831448 
L 634.039029 -237.004245 
L 634.303877 -234.177042 
L 634.627893 -231.349839 
L 635.012346 -228.522636 
L 635.456467 -225.695433 
L 635.957424 -222.86823 
L 636.51048 -220.041027 
L 637.109342 -217.213824 
L 637.746685 -214.386621 
L 638.414835 -211.559419 
L 639.106527 -208.732216 
L 639.815698 -205.905013 
L 640.538185 -203.07781 
L 641.272268 -200.250607 
L 642.01895 -197.423404 
L 642.781936 -194.596201 
L 643.567275 -191.768998 
L 644.382707 -188.941795 
L 645.236762 -186.114592 
L 646.137752 -183.287389 
L 647.092765 -180.460186 
L 648.106815 -177.632983 
L 649.182266 -174.80578 
L 650.31862 -171.978578 
L 651.512688 -169.151375 
L 652.75911 -166.324172 
L 654.051129 -163.496969 
L 655.38147 -160.669766 
L 656.743158 -157.842563 
L 658.130102 -155.01536 
L 659.537311 -152.188157 
L 660.960671 -149.360954 
L 662.396255 -146.533751 
L 663.839267 -143.706548 
L 665.282738 -140.879345 
L 666.71618 -138.052142 
L 668.124415 -135.224939 
L 669.486787 -132.397737 
L 670.776935 -129.570534 
L 671.963223 -126.743331 
L 673.009868 -123.916128 
L 673.878683 -121.088925 
L 674.531305 -118.261722 
L 674.931698 -115.434519 
L 675.048694 -112.607316 
L 674.858323 -109.780113 
L 674.345711 -106.95291 
L 673.506385 -104.125707 
L 672.346869 -101.298504 
L 670.884546 -98.471301 
L 669.146826 -95.644098 
L 667.169715 -92.816896 
L 664.995938 -89.989693 
L 662.672766 -87.16249 
L 660.249746 -84.335287 
L 657.776474 -81.508084 
L 655.300562 -78.680881 
L 652.86591 -75.853678 
L 650.511334 -73.026475 
L 648.269613 -70.199272 
L 646.166929 -67.372069 
L 644.222693 -64.544866 
z
" style="stroke: #000000; stroke-opacity: 0.4"/>
    </defs>
    <g clip-path="url(#pbf9919d123)">
     <use xlink:href="#m5789985ec5" x="0" y="432" style="fill: #fde725; fill-opacity: 0.4; stroke: #000000; stroke-opacity: 0.4"/>
    </g>
   </g>
   <g id="matplotlib.axis_1">
    <g id="xtick_1">
     <g id="line2d_1">
      <defs>
       <path id="m3fc3a4c965" d="M 0 0 
L 0 3.5 
" style="stroke: #000000; stroke-width: 0.8"/>
      </defs>
      <g>
       <use xlink:href="#m3fc3a4c965" x="121.038731" y="384.626418" style="stroke: #000000; stroke-width: 0.8"/>
      </g>
     </g>
     <g id="text_1">
      <!-- Borda rule -->
      <g transform="translate(95.513548 399.236765) scale(0.11 -0.11)">
       <defs>
        <path id="CMR17-42" d="M 333 4352 
L 333 4186 
C 774 4186 845 4186 845 3900 
L 845 452 
C 845 166 774 166 333 166 
L 333 0 
L 2534 0 
C 3354 0 3885 583 3885 1164 
C 3885 1741 3360 2233 2675 2233 
C 3290 2356 3718 2771 3718 3264 
C 3718 3802 3194 4352 2368 4352 
L 333 4352 
z
M 1248 2304 
L 1248 3937 
C 1248 4155 1261 4186 1517 4186 
L 2336 4186 
C 2970 4186 3251 3674 3251 3277 
C 3251 2791 2861 2304 2170 2304 
L 1248 2304 
z
M 1517 166 
C 1261 166 1248 197 1248 413 
L 1248 2202 
L 2432 2202 
C 3091 2202 3411 1625 3411 1162 
C 3411 699 3046 166 2349 166 
L 1517 166 
z
" transform="scale(0.015625)"/>
        <path id="CMR17-6f" d="M 2758 1356 
C 2758 2176 2163 2816 1466 2816 
C 768 2816 173 2176 173 1356 
C 173 551 768 -64 1466 -64 
C 2163 -64 2758 551 2758 1356 
z
M 1466 51 
C 1165 51 909 230 762 480 
C 602 767 582 1126 582 1408 
C 582 1677 595 2010 762 2298 
C 890 2509 1139 2714 1466 2714 
C 1754 2714 1997 2554 2150 2330 
C 2349 2029 2349 1607 2349 1408 
C 2349 1158 2336 775 2163 467 
C 1984 173 1709 51 1466 51 
z
" transform="scale(0.015625)"/>
        <path id="CMR17-72" d="M 960 1497 
C 960 2112 1222 2688 1702 2688 
C 1747 2688 1792 2682 1837 2662 
C 1837 2662 1696 2617 1696 2452 
C 1696 2298 1818 2234 1914 2234 
C 1990 2234 2131 2279 2131 2458 
C 2131 2663 1926 2790 1709 2790 
C 1222 2790 1011 2317 947 2093 
L 941 2093 
L 941 2790 
L 198 2720 
L 198 2554 
C 576 2554 634 2515 634 2208 
L 634 428 
C 634 184 608 153 198 153 
L 198 -13 
C 352 0 646 0 813 0 
C 998 0 1325 0 1498 -13 
L 1498 153 
C 1037 153 960 153 960 440 
L 960 1497 
z
" transform="scale(0.015625)"/>
        <path id="CMR17-64" d="M 1869 4326 
L 1869 4160 
C 2246 4160 2304 4122 2304 3820 
L 2304 2345 
C 2278 2377 2016 2790 1498 2790 
C 845 2790 211 2208 211 1364 
C 211 525 806 -64 1434 -64 
C 1978 -64 2259 337 2291 380 
L 2291 -63 
L 3066 -63 
L 3066 128 
C 2688 128 2630 166 2630 473 
L 2630 4396 
L 1869 4326 
z
M 2291 755 
C 2291 563 2176 390 2029 262 
C 1811 70 1594 38 1472 38 
C 1286 38 621 134 621 1356 
C 621 2612 1363 2688 1530 2688 
C 1824 2688 2061 2522 2208 2291 
C 2291 2157 2291 2138 2291 2023 
L 2291 755 
z
" transform="scale(0.015625)"/>
        <path id="CMR17-61" d="M 2304 1653 
C 2304 2072 2304 2294 2035 2543 
C 1798 2752 1523 2816 1306 2816 
C 800 2816 435 2407 435 1971 
C 435 1728 627 1728 666 1728 
C 749 1728 896 1778 896 1954 
C 896 2112 774 2181 666 2181 
C 640 2181 608 2174 589 2168 
C 723 2592 1069 2714 1293 2714 
C 1613 2714 1965 2429 1965 1885 
L 1965 1600 
C 1587 1600 1133 1549 774 1357 
C 371 1133 256 813 256 570 
C 256 77 832 -64 1171 -64 
C 1523 -64 1850 139 1990 511 
C 2003 233 2182 -18 2464 -18 
C 2598 -18 2938 70 2938 567 
L 2938 920 
L 2822 920 
L 2822 562 
C 2822 178 2650 128 2566 128 
C 2304 128 2304 458 2304 738 
L 2304 1653 
z
M 1965 870 
C 1965 317 1568 38 1216 38 
C 896 38 646 275 646 570 
C 646 761 730 1100 1101 1305 
C 1408 1478 1760 1504 1965 1504 
L 1965 870 
z
" transform="scale(0.015625)"/>
        <path id="CMR17-75" d="M 1882 2693 
L 1882 2528 
C 2259 2528 2317 2489 2317 2186 
L 2317 1032 
C 2317 500 2029 38 1555 38 
C 1030 38 986 348 986 678 
L 986 2763 
L 211 2693 
L 211 2528 
C 467 2528 640 2528 646 2274 
L 646 1058 
C 646 633 646 361 813 183 
C 896 101 1056 -64 1517 -64 
C 2061 -64 2272 377 2323 506 
L 2330 506 
L 2330 -63 
L 3091 -63 
L 3091 128 
C 2714 128 2656 166 2656 473 
L 2656 2763 
L 1882 2693 
z
" transform="scale(0.015625)"/>
        <path id="CMR17-6c" d="M 979 4396 
L 218 4326 
L 218 4160 
C 595 4160 653 4122 653 3817 
L 653 426 
C 653 184 627 153 218 153 
L 218 -13 
C 371 0 653 0 813 0 
C 979 0 1261 0 1414 -13 
L 1414 153 
C 1005 153 979 178 979 426 
L 979 4396 
z
" transform="scale(0.015625)"/>
        <path id="CMR17-65" d="M 2438 1472 
C 2464 1498 2464 1511 2464 1576 
C 2464 2238 2118 2816 1389 2816 
C 710 2816 173 2169 173 1383 
C 173 551 781 -64 1459 -64 
C 2176 -64 2458 607 2458 740 
C 2458 784 2419 784 2406 784 
C 2362 784 2355 771 2330 696 
C 2189 265 1837 51 1504 51 
C 1229 51 954 203 781 480 
C 582 803 582 1176 582 1472 
L 2438 1472 
z
M 589 1568 
C 634 2505 1126 2714 1382 2714 
C 1818 2714 2112 2297 2118 1568 
L 589 1568 
z
" transform="scale(0.015625)"/>
       </defs>
       <use xlink:href="#CMR17-42" transform="scale(0.996264)"/>
       <use xlink:href="#CMR17-6f" transform="translate(65.188754 0) scale(0.996264)"/>
       <use xlink:href="#CMR17-72" transform="translate(110.879232 0) scale(0.996264)"/>
       <use xlink:href="#CMR17-64" transform="translate(146.159999 0) scale(0.996264)"/>
       <use xlink:href="#CMR17-61" transform="translate(197.055369 0) scale(0.996264)"/>
       <use xlink:href="#CMR17-72" transform="translate(272.821813 0) scale(0.996264)"/>
       <use xlink:href="#CMR17-75" transform="translate(308.10258 0) scale(0.996264)"/>
       <use xlink:href="#CMR17-6c" transform="translate(358.99795 0) scale(0.996264)"/>
       <use xlink:href="#CMR17-65" transform="translate(383.869009 0) scale(0.996264)"/>
      </g>
     </g>
    </g>
    <g id="xtick_2">
     <g id="line2d_2">
      <g>
       <use xlink:href="#m3fc3a4c965" x="291.503335" y="384.626418" style="stroke: #000000; stroke-width: 0.8"/>
      </g>
     </g>
     <g id="text_2">
      <!-- Copeland's Rule -->
      <g transform="translate(252.279506 399.236765) scale(0.11 -0.11)">
       <defs>
        <path id="CMR17-43" d="M 3974 4289 
C 3974 4403 3968 4410 3930 4410 
C 3904 4410 3898 4403 3853 4327 
L 3571 3792 
C 3258 4187 2874 4416 2381 4416 
C 1286 4416 294 3456 294 2148 
C 294 826 1286 -128 2387 -128 
C 3366 -128 3974 730 3974 1461 
C 3974 1524 3974 1550 3917 1550 
C 3866 1550 3866 1531 3859 1474 
C 3808 585 3168 38 2477 38 
C 1824 38 781 495 781 2147 
C 781 3805 1843 4250 2464 4250 
C 3187 4250 3712 3628 3834 2745 
C 3846 2668 3846 2655 3904 2655 
C 3974 2655 3974 2668 3974 2783 
L 3974 4289 
z
" transform="scale(0.015625)"/>
        <path id="CMR17-70" d="M 1408 -1063 
C 998 -1063 973 -1037 973 -789 
L 973 402 
C 1158 134 1427 -38 1766 -38 
C 2406 -38 3053 523 3053 1388 
C 3053 2191 2496 2802 1837 2802 
C 1453 2802 1139 2592 960 2338 
L 960 2802 
L 198 2732 
L 198 2567 
C 576 2567 634 2528 634 2223 
L 634 -789 
C 634 -1031 608 -1063 198 -1063 
L 198 -1228 
C 352 -1216 634 -1216 800 -1216 
C 966 -1216 1254 -1216 1408 -1228 
L 1408 -1063 
z
M 973 2012 
C 973 2102 973 2235 1222 2471 
C 1254 2497 1472 2688 1792 2688 
C 2259 2688 2643 2108 2643 1382 
C 2643 656 2234 64 1728 64 
C 1498 64 1248 172 1056 472 
C 973 612 973 650 973 752 
L 973 2012 
z
" transform="scale(0.015625)"/>
        <path id="CMR17-6e" d="M 2656 1933 
C 2656 2259 2592 2790 1837 2790 
C 1331 2790 1069 2400 973 2144 
L 966 2144 
L 966 2790 
L 211 2720 
L 211 2554 
C 589 2554 646 2515 646 2208 
L 646 428 
C 646 184 621 153 211 153 
L 211 -13 
C 365 0 646 0 813 0 
C 979 0 1267 0 1421 -13 
L 1421 153 
C 1011 153 986 178 986 428 
L 986 1658 
C 986 2247 1344 2688 1792 2688 
C 2266 2688 2317 2266 2317 1958 
L 2317 428 
C 2317 184 2291 153 1882 153 
L 1882 -13 
C 2035 0 2317 0 2483 0 
C 2650 0 2938 0 3091 -13 
L 3091 153 
C 2682 153 2656 178 2656 428 
L 2656 1933 
z
" transform="scale(0.015625)"/>
        <path id="CMR17-27" d="M 1024 4025 
C 1037 3955 1043 3929 1043 3820 
C 1043 3415 883 3042 634 2778 
C 608 2752 595 2733 595 2707 
C 595 2681 621 2656 646 2656 
C 691 2656 1146 3105 1146 3811 
C 1146 3952 1133 4426 800 4426 
C 659 4426 538 4331 538 4165 
C 538 3999 659 3904 800 3904 
C 858 3904 966 3923 1024 4025 
z
" transform="scale(0.015625)"/>
        <path id="CMR17-73" d="M 1978 2697 
C 1978 2813 1971 2819 1933 2819 
C 1907 2819 1901 2813 1824 2717 
C 1805 2691 1747 2626 1728 2601 
C 1523 2819 1235 2819 1126 2819 
C 416 2819 160 2447 160 2076 
C 160 1498 813 1365 998 1325 
C 1402 1243 1542 1217 1677 1101 
C 1760 1025 1901 884 1901 654 
C 1901 384 1747 38 1158 38 
C 602 38 403 460 288 1021 
C 269 1110 269 1117 218 1117 
C 166 1117 160 1110 160 983 
L 160 63 
C 160 -51 166 -58 205 -58 
C 237 -58 243 -51 275 0 
C 314 57 410 211 448 276 
C 576 103 800 -64 1158 -64 
C 1792 -64 2131 283 2131 784 
C 2131 1112 1958 1285 1875 1362 
C 1683 1561 1459 1606 1190 1657 
C 838 1735 390 1825 390 2217 
C 390 2383 480 2737 1126 2737 
C 1811 2737 1850 2094 1862 1888 
C 1869 1856 1901 1849 1920 1849 
C 1978 1849 1978 1869 1978 1978 
L 1978 2697 
z
" transform="scale(0.015625)"/>
        <path id="CMR17-52" d="M 2509 2146 
C 3117 2268 3629 2676 3629 3186 
C 3629 3785 2950 4326 2054 4326 
L 333 4326 
L 333 4160 
C 774 4160 845 4160 845 3873 
L 845 415 
C 845 128 774 128 333 128 
L 333 -26 
C 518 -26 851 -26 1050 -26 
C 1248 -26 1581 -26 1766 -26 
L 1766 128 
C 1325 128 1254 128 1254 417 
L 1254 2112 
L 2003 2112 
C 2368 2112 2573 1964 2662 1881 
C 2918 1632 2918 1459 2918 1024 
C 2918 595 2918 377 3110 160 
C 3354 -102 3680 -128 3821 -128 
C 4294 -128 4365 396 4365 503 
C 4365 540 4365 585 4307 585 
C 4256 585 4250 547 4250 522 
C 4218 112 4032 -26 3834 -26 
C 3482 -26 3443 375 3405 764 
C 3386 898 3373 993 3360 1133 
C 3322 1452 3270 1917 2509 2146 
z
M 1984 2214 
L 1254 2214 
L 1254 3913 
C 1254 4129 1267 4160 1523 4160 
L 1990 4160 
C 2522 4160 3142 3977 3142 3190 
C 3142 2372 2464 2214 1984 2214 
z
" transform="scale(0.015625)"/>
       </defs>
       <use xlink:href="#CMR17-43" transform="scale(0.996264)"/>
       <use xlink:href="#CMR17-6f" transform="translate(66.509881 0) scale(0.996264)"/>
       <use xlink:href="#CMR17-70" transform="translate(112.200358 0) scale(0.996264)"/>
       <use xlink:href="#CMR17-65" transform="translate(165.698166 0) scale(0.996264)"/>
       <use xlink:href="#CMR17-6c" transform="translate(206.183827 0) scale(0.996264)"/>
       <use xlink:href="#CMR17-61" transform="translate(231.054885 0) scale(0.996264)"/>
       <use xlink:href="#CMR17-6e" transform="translate(276.745362 0) scale(0.996264)"/>
       <use xlink:href="#CMR17-64" transform="translate(327.640732 0) scale(0.996264)"/>
       <use xlink:href="#CMR17-27" transform="translate(378.536102 0) scale(0.996264)"/>
       <use xlink:href="#CMR17-73" transform="translate(403.40716 0) scale(0.996264)"/>
       <use xlink:href="#CMR17-52" transform="translate(469.284464 0) scale(0.996264)"/>
       <use xlink:href="#CMR17-75" transform="translate(537.075566 0) scale(0.996264)"/>
       <use xlink:href="#CMR17-6c" transform="translate(587.970936 0) scale(0.996264)"/>
       <use xlink:href="#CMR17-65" transform="translate(612.841994 0) scale(0.996264)"/>
      </g>
     </g>
    </g>
    <g id="xtick_3">
     <g id="line2d_3">
      <g>
       <use xlink:href="#m3fc3a4c965" x="461.967939" y="384.626418" style="stroke: #000000; stroke-width: 0.8"/>
      </g>
     </g>
     <g id="text_3">
      <!-- Plurality rule -->
      <g transform="translate(429.897856 399.236765) scale(0.11 -0.11)">
       <defs>
        <path id="CMR17-50" d="M 1267 2042 
L 2291 2042 
C 3117 2042 3718 2578 3718 3184 
C 3718 3791 3130 4352 2291 4352 
L 333 4352 
L 333 4186 
C 774 4186 845 4186 845 3899 
L 845 446 
C 845 160 774 160 333 160 
L 333 0 
C 518 0 858 0 1056 0 
C 1254 0 1594 0 1779 0 
L 1779 160 
C 1338 160 1267 160 1267 446 
L 1267 2042 
z
M 1254 2176 
L 1254 3938 
C 1254 4155 1267 4186 1523 4186 
L 2170 4186 
C 2995 4186 3232 3714 3232 3184 
C 3232 2604 2950 2176 2170 2176 
L 1254 2176 
z
" transform="scale(0.015625)"/>
        <path id="CMR17-69" d="M 992 3909 
C 992 4049 877 4170 730 4170 
C 589 4170 467 4056 467 3909 
C 467 3769 582 3648 730 3648 
C 870 3648 992 3763 992 3909 
z
M 243 2706 
L 243 2541 
C 602 2541 653 2502 653 2197 
L 653 427 
C 653 184 627 153 218 153 
L 218 -13 
C 371 0 646 0 806 0 
C 960 0 1222 0 1370 -13 
L 1370 153 
C 992 153 979 191 979 420 
L 979 2776 
L 243 2706 
z
" transform="scale(0.015625)"/>
        <path id="CMR17-74" d="M 966 2560 
L 1862 2560 
L 1862 2725 
L 966 2725 
L 966 3904 
L 851 3904 
C 838 3245 614 2668 70 2668 
L 70 2560 
L 627 2560 
L 627 771 
C 627 650 627 -64 1370 -64 
C 1747 -64 1965 306 1965 777 
L 1965 1140 
L 1850 1140 
L 1850 783 
C 1850 344 1677 51 1408 51 
C 1222 51 966 178 966 758 
L 966 2560 
z
" transform="scale(0.015625)"/>
        <path id="CMR17-79" d="M 2496 2197 
C 2656 2586 2944 2586 3034 2586 
L 3034 2752 
C 2912 2752 2752 2752 2630 2752 
C 2496 2752 2285 2752 2157 2758 
L 2157 2592 
C 2400 2573 2406 2394 2406 2343 
C 2406 2280 2394 2248 2362 2171 
L 1664 449 
L 902 2306 
C 870 2382 870 2426 870 2433 
C 870 2573 1018 2586 1171 2586 
L 1171 2758 
C 1018 2752 742 2752 582 2752 
C 410 2752 205 2752 64 2758 
L 64 2586 
C 410 2586 448 2554 531 2350 
L 1485 15 
C 1197 -738 1030 -1178 627 -1178 
C 557 -1178 397 -1159 282 -1044 
C 429 -1031 493 -942 493 -833 
C 493 -725 416 -629 288 -629 
C 147 -629 77 -725 77 -840 
C 77 -1095 339 -1280 627 -1280 
C 998 -1280 1229 -922 1357 -604 
L 2496 2197 
z
" transform="scale(0.015625)"/>
       </defs>
       <use xlink:href="#CMR17-50" transform="scale(0.996264)"/>
       <use xlink:href="#CMR17-6c" transform="translate(62.586301 0) scale(0.996264)"/>
       <use xlink:href="#CMR17-75" transform="translate(87.457359 0) scale(0.996264)"/>
       <use xlink:href="#CMR17-72" transform="translate(138.352729 0) scale(0.996264)"/>
       <use xlink:href="#CMR17-61" transform="translate(173.633497 0) scale(0.996264)"/>
       <use xlink:href="#CMR17-6c" transform="translate(219.323974 0) scale(0.996264)"/>
       <use xlink:href="#CMR17-69" transform="translate(244.195032 0) scale(0.996264)"/>
       <use xlink:href="#CMR17-74" transform="translate(269.066091 0) scale(0.996264)"/>
       <use xlink:href="#CMR17-79" transform="translate(301.744405 0) scale(0.996264)"/>
       <use xlink:href="#CMR17-72" transform="translate(380.113287 0) scale(0.996264)"/>
       <use xlink:href="#CMR17-75" transform="translate(415.394055 0) scale(0.996264)"/>
       <use xlink:href="#CMR17-6c" transform="translate(466.289424 0) scale(0.996264)"/>
       <use xlink:href="#CMR17-65" transform="translate(491.160483 0) scale(0.996264)"/>
      </g>
     </g>
    </g>
    <g id="xtick_4">
     <g id="line2d_4">
      <g>
       <use xlink:href="#m3fc3a4c965" x="632.432543" y="384.626418" style="stroke: #000000; stroke-width: 0.8"/>
      </g>
     </g>
     <g id="text_4">
      <!-- Black's Rule -->
      <g transform="translate(602.569478 399.236765) scale(0.11 -0.11)">
       <defs>
        <path id="CMR17-63" d="M 2234 2240 
C 2112 2240 1933 2240 1933 2017 
C 1933 1838 2080 1787 2163 1787 
C 2208 1787 2394 1807 2394 2024 
C 2394 2467 1958 2803 1466 2803 
C 787 2803 211 2178 211 1363 
C 211 516 813 -64 1466 -64 
C 2259 -64 2458 677 2458 748 
C 2458 774 2451 793 2406 793 
C 2362 793 2355 787 2330 703 
C 2163 180 1798 51 1523 51 
C 1114 51 621 427 621 1369 
C 621 2338 1094 2688 1472 2688 
C 1722 2688 2093 2573 2234 2240 
z
" transform="scale(0.015625)"/>
        <path id="CMR17-6b" d="M 1670 1673 
C 1664 1686 1632 1724 1632 1743 
C 1632 1756 2086 2171 2144 2222 
C 2509 2528 2739 2560 2906 2560 
L 2906 2733 
C 2867 2733 2854 2733 2848 2720 
L 2534 2720 
C 2355 2720 2080 2720 1907 2733 
L 1907 2566 
C 1997 2559 2061 2508 2061 2419 
C 2061 2291 1933 2170 1926 2170 
L 960 1289 
L 960 4396 
L 198 4326 
L 198 4160 
C 576 4160 634 4122 634 3817 
L 634 426 
C 634 184 608 153 198 153 
L 198 -13 
C 352 0 634 0 794 0 
C 954 0 1235 0 1389 -13 
L 1389 153 
C 979 153 954 178 954 428 
L 954 1130 
L 1395 1532 
L 2042 574 
C 2118 459 2182 369 2182 286 
C 2182 172 2067 153 1990 153 
L 1990 -13 
C 2144 0 2419 0 2579 0 
C 2694 0 2931 0 3040 0 
L 3040 153 
C 2739 153 2669 210 2477 491 
L 1670 1673 
z
" transform="scale(0.015625)"/>
       </defs>
       <use xlink:href="#CMR17-42" transform="scale(0.996264)"/>
       <use xlink:href="#CMR17-6c" transform="translate(65.188754 0) scale(0.996264)"/>
       <use xlink:href="#CMR17-61" transform="translate(90.059813 0) scale(0.996264)"/>
       <use xlink:href="#CMR17-63" transform="translate(135.75029 0) scale(0.996264)"/>
       <use xlink:href="#CMR17-6b" transform="translate(173.633497 0) scale(0.996264)"/>
       <use xlink:href="#CMR17-27" transform="translate(221.926412 0) scale(0.996264)"/>
       <use xlink:href="#CMR17-73" transform="translate(246.797471 0) scale(0.996264)"/>
       <use xlink:href="#CMR17-52" transform="translate(312.674775 0) scale(0.996264)"/>
       <use xlink:href="#CMR17-75" transform="translate(380.465877 0) scale(0.996264)"/>
       <use xlink:href="#CMR17-6c" transform="translate(431.361247 0) scale(0.996264)"/>
       <use xlink:href="#CMR17-65" transform="translate(456.232305 0) scale(0.996264)"/>
      </g>
     </g>
    </g>
    <g id="text_5">
     <!-- Number of voters -->
     <g transform="translate(328.442607 414.361688) scale(0.13 -0.13)">
      <defs>
       <path id="CMR17-4e" d="M 1312 4250 
C 1267 4320 1261 4320 1139 4320 
L 326 4320 
L 326 4160 
L 448 4160 
C 704 4160 819 4129 838 4122 
L 838 610 
C 838 451 838 153 326 153 
L 326 -13 
C 474 0 742 0 902 0 
C 1062 0 1331 0 1478 -13 
L 1478 153 
C 966 153 966 451 966 610 
L 966 4033 
C 1011 3995 1011 3982 1056 3919 
L 3430 76 
C 3475 0 3494 0 3526 0 
C 3590 0 3590 19 3590 139 
L 3590 3705 
C 3590 3863 3590 4160 4102 4160 
L 4102 4326 
C 3955 4320 3686 4320 3526 4320 
C 3366 4320 3098 4320 2950 4326 
L 2950 4160 
C 3462 4160 3462 3862 3462 3703 
L 3462 763 
L 1312 4250 
z
" transform="scale(0.015625)"/>
       <path id="CMR17-6d" d="M 4326 1933 
C 4326 2252 4269 2790 3507 2790 
C 3072 2790 2771 2496 2656 2151 
L 2650 2151 
C 2573 2676 2195 2790 1837 2790 
C 1331 2790 1069 2400 973 2144 
L 966 2144 
L 966 2790 
L 211 2720 
L 211 2554 
C 589 2554 646 2515 646 2208 
L 646 428 
C 646 184 621 153 211 153 
L 211 -13 
C 365 0 646 0 813 0 
C 979 0 1267 0 1421 -13 
L 1421 153 
C 1011 153 986 178 986 428 
L 986 1658 
C 986 2247 1344 2688 1792 2688 
C 2266 2688 2317 2266 2317 1958 
L 2317 428 
C 2317 184 2291 153 1882 153 
L 1882 -13 
C 2035 0 2317 0 2483 0 
C 2650 0 2938 0 3091 -13 
L 3091 153 
C 2682 153 2656 178 2656 428 
L 2656 1658 
C 2656 2247 3014 2688 3462 2688 
C 3936 2688 3987 2266 3987 1958 
L 3987 428 
C 3987 184 3962 153 3552 153 
L 3552 -13 
C 3706 0 3987 0 4154 0 
C 4320 0 4608 0 4762 -13 
L 4762 153 
C 4352 153 4326 178 4326 428 
L 4326 1933 
z
" transform="scale(0.015625)"/>
       <path id="CMR17-62" d="M 960 4396 
L 198 4326 
L 198 4160 
C 576 4160 634 4122 634 3817 
L 634 -13 
L 749 -13 
L 934 441 
C 1120 141 1395 -64 1766 -64 
C 2406 -64 3053 500 3053 1370 
C 3053 2188 2477 2790 1830 2790 
C 1434 2790 1152 2579 960 2330 
L 960 4396 
z
M 973 2004 
C 973 2118 973 2138 1062 2272 
C 1312 2657 1670 2688 1792 2688 
C 1984 2688 2643 2585 2643 1376 
C 2643 108 1888 38 1734 38 
C 1536 38 1248 114 1043 486 
C 973 608 973 621 973 735 
L 973 2004 
z
" transform="scale(0.015625)"/>
       <path id="CMR17-66" d="M 979 2560 
L 1709 2560 
L 1709 2725 
L 966 2725 
L 966 3494 
C 966 4022 1235 4352 1510 4352 
C 1594 4352 1690 4327 1754 4282 
C 1702 4269 1568 4225 1568 4067 
C 1568 3901 1696 3850 1786 3850 
C 1875 3850 2003 3901 2003 4067 
C 2003 4308 1773 4454 1517 4454 
C 1152 4454 653 4156 653 3481 
L 653 2725 
L 141 2725 
L 141 2560 
L 653 2560 
L 653 427 
C 653 184 627 153 218 153 
L 218 -13 
C 371 0 666 0 832 0 
C 1018 0 1344 0 1517 -13 
L 1517 153 
C 1056 153 979 153 979 439 
L 979 2560 
z
" transform="scale(0.015625)"/>
       <path id="CMR17-76" d="M 2502 2163 
C 2560 2304 2662 2560 3034 2560 
L 3034 2726 
C 2912 2726 2752 2726 2630 2726 
C 2496 2726 2285 2726 2157 2732 
L 2157 2566 
C 2317 2553 2406 2477 2406 2311 
C 2406 2253 2406 2240 2368 2151 
L 1664 377 
L 902 2286 
C 864 2369 864 2381 864 2407 
C 864 2560 1075 2560 1171 2560 
L 1171 2732 
C 1018 2726 736 2726 576 2726 
C 403 2726 205 2726 64 2732 
L 64 2560 
C 307 2560 442 2560 518 2362 
L 1446 44 
C 1485 -51 1491 -64 1549 -64 
C 1606 -64 1613 -51 1651 44 
L 2502 2163 
z
" transform="scale(0.015625)"/>
      </defs>
      <use xlink:href="#CMR17-4e" transform="scale(0.996264)"/>
      <use xlink:href="#CMR17-75" transform="translate(69.07243 0) scale(0.996264)"/>
      <use xlink:href="#CMR17-6d" transform="translate(119.9678 0) scale(0.996264)"/>
      <use xlink:href="#CMR17-62" transform="translate(194.284936 0) scale(0.996264)"/>
      <use xlink:href="#CMR17-65" transform="translate(247.782744 0) scale(0.996264)"/>
      <use xlink:href="#CMR17-72" transform="translate(288.268404 0) scale(0.996264)"/>
      <use xlink:href="#CMR17-6f" transform="translate(353.625139 0) scale(0.996264)"/>
      <use xlink:href="#CMR17-66" transform="translate(399.315616 0) scale(0.996264)"/>
      <use xlink:href="#CMR17-76" transform="translate(456.865095 0) scale(0.996264)"/>
      <use xlink:href="#CMR17-6f" transform="translate(502.555556 0) scale(0.996264)"/>
      <use xlink:href="#CMR17-74" transform="translate(548.246034 0) scale(0.996264)"/>
      <use xlink:href="#CMR17-65" transform="translate(583.526801 0) scale(0.996264)"/>
      <use xlink:href="#CMR17-72" transform="translate(624.012462 0) scale(0.996264)"/>
      <use xlink:href="#CMR17-73" transform="translate(659.29323 0) scale(0.996264)"/>
     </g>
    </g>
   </g>
   <g id="matplotlib.axis_2">
    <g id="ytick_1">
     <g id="line2d_5">
      <path d="M 48.591275 342.602155 
L 704.88 342.602155 
" clip-path="url(#pbf9919d123)" style="fill: none; stroke: #b0b0b0; stroke-opacity: 0.3; stroke-linecap: square"/>
     </g>
     <g id="line2d_6">
      <defs>
       <path id="m83282c0d27" d="M 0 0 
L -3.5 0 
" style="stroke: #000000; stroke-width: 0.8"/>
      </defs>
      <g>
       <use xlink:href="#m83282c0d27" x="48.591275" y="342.602155" style="stroke: #000000; stroke-width: 0.8"/>
      </g>
     </g>
     <g id="text_6">
      <!-- $\mathdefault{2}$ -->
      <g transform="translate(36.111807 346.407329) scale(0.11 -0.11)">
       <defs>
        <path id="CMR17-32" d="M 2669 989 
L 2554 989 
C 2490 536 2438 459 2413 420 
C 2381 369 1920 369 1830 369 
L 602 369 
C 832 619 1280 1072 1824 1597 
C 2214 1967 2669 2402 2669 3035 
C 2669 3790 2067 4224 1395 4224 
C 691 4224 262 3604 262 3030 
C 262 2780 448 2748 525 2748 
C 589 2748 781 2787 781 3010 
C 781 3207 614 3264 525 3264 
C 486 3264 448 3258 422 3245 
C 544 3790 915 4058 1306 4058 
C 1862 4058 2227 3617 2227 3035 
C 2227 2479 1901 2000 1536 1584 
L 262 146 
L 262 0 
L 2515 0 
L 2669 989 
z
" transform="scale(0.015625)"/>
       </defs>
       <use xlink:href="#CMR17-32" transform="scale(0.996264)"/>
      </g>
     </g>
    </g>
    <g id="ytick_2">
     <g id="line2d_7">
      <path d="M 48.591275 290.782028 
L 704.88 290.782028 
" clip-path="url(#pbf9919d123)" style="fill: none; stroke: #b0b0b0; stroke-opacity: 0.3; stroke-linecap: square"/>
     </g>
     <g id="line2d_8">
      <g>
       <use xlink:href="#m83282c0d27" x="48.591275" y="290.782028" style="stroke: #000000; stroke-width: 0.8"/>
      </g>
     </g>
     <g id="text_7">
      <!-- $\mathdefault{4}$ -->
      <g transform="translate(36.111807 294.587201) scale(0.11 -0.11)">
       <defs>
        <path id="CMR17-34" d="M 2150 4122 
C 2150 4256 2144 4256 2029 4256 
L 128 1254 
L 128 1088 
L 1779 1088 
L 1779 457 
C 1779 224 1766 160 1318 160 
L 1197 160 
L 1197 0 
C 1402 0 1747 0 1965 0 
C 2182 0 2528 0 2733 0 
L 2733 160 
L 2611 160 
C 2163 160 2150 224 2150 457 
L 2150 1088 
L 2803 1088 
L 2803 1254 
L 2150 1254 
L 2150 4122 
z
M 1798 3703 
L 1798 1254 
L 256 1254 
L 1798 3703 
z
" transform="scale(0.015625)"/>
       </defs>
       <use xlink:href="#CMR17-34" transform="scale(0.996264)"/>
      </g>
     </g>
    </g>
    <g id="ytick_3">
     <g id="line2d_9">
      <path d="M 48.591275 238.9619 
L 704.88 238.9619 
" clip-path="url(#pbf9919d123)" style="fill: none; stroke: #b0b0b0; stroke-opacity: 0.3; stroke-linecap: square"/>
     </g>
     <g id="line2d_10">
      <g>
       <use xlink:href="#m83282c0d27" x="48.591275" y="238.9619" style="stroke: #000000; stroke-width: 0.8"/>
      </g>
     </g>
     <g id="text_8">
      <!-- $\mathdefault{6}$ -->
      <g transform="translate(36.111807 242.767074) scale(0.11 -0.11)">
       <defs>
        <path id="CMR17-36" d="M 678 2176 
C 678 3690 1395 4032 1811 4032 
C 1946 4032 2272 4009 2400 3776 
C 2298 3776 2106 3776 2106 3553 
C 2106 3381 2246 3323 2336 3323 
C 2394 3323 2566 3348 2566 3560 
C 2566 3954 2246 4179 1805 4179 
C 1043 4179 243 3390 243 1984 
C 243 253 966 -128 1478 -128 
C 2099 -128 2688 427 2688 1283 
C 2688 2081 2170 2662 1517 2662 
C 1126 2662 838 2407 678 1960 
L 678 2176 
z
M 1478 25 
C 691 25 691 1200 691 1436 
C 691 1896 909 2560 1504 2560 
C 1613 2560 1926 2560 2138 2120 
C 2253 1870 2253 1609 2253 1289 
C 2253 944 2253 690 2118 434 
C 1978 171 1773 25 1478 25 
z
" transform="scale(0.015625)"/>
       </defs>
       <use xlink:href="#CMR17-36" transform="scale(0.996264)"/>
      </g>
     </g>
    </g>
    <g id="ytick_4">
     <g id="line2d_11">
      <path d="M 48.591275 187.141773 
L 704.88 187.141773 
" clip-path="url(#pbf9919d123)" style="fill: none; stroke: #b0b0b0; stroke-opacity: 0.3; stroke-linecap: square"/>
     </g>
     <g id="line2d_12">
      <g>
       <use xlink:href="#m83282c0d27" x="48.591275" y="187.141773" style="stroke: #000000; stroke-width: 0.8"/>
      </g>
     </g>
     <g id="text_9">
      <!-- $\mathdefault{8}$ -->
      <g transform="translate(36.111807 190.946946) scale(0.11 -0.11)">
       <defs>
        <path id="CMR17-38" d="M 1741 2264 
C 2144 2467 2554 2773 2554 3263 
C 2554 3841 1990 4179 1472 4179 
C 890 4179 378 3759 378 3180 
C 378 3021 416 2747 666 2505 
C 730 2442 998 2251 1171 2130 
C 883 1983 211 1634 211 934 
C 211 279 838 -128 1459 -128 
C 2144 -128 2720 362 2720 1010 
C 2720 1590 2330 1857 2074 2029 
L 1741 2264 
z
M 902 2822 
C 851 2854 595 3051 595 3351 
C 595 3739 998 4032 1459 4032 
C 1965 4032 2336 3676 2336 3262 
C 2336 2669 1670 2331 1638 2331 
C 1632 2331 1626 2331 1574 2370 
L 902 2822 
z
M 2080 1519 
C 2176 1449 2483 1240 2483 851 
C 2483 381 2010 25 1472 25 
C 890 25 448 438 448 940 
C 448 1443 838 1862 1280 2060 
L 2080 1519 
z
" transform="scale(0.015625)"/>
       </defs>
       <use xlink:href="#CMR17-38" transform="scale(0.996264)"/>
      </g>
     </g>
    </g>
    <g id="ytick_5">
     <g id="line2d_13">
      <path d="M 48.591275 135.321646 
L 704.88 135.321646 
" clip-path="url(#pbf9919d123)" style="fill: none; stroke: #b0b0b0; stroke-opacity: 0.3; stroke-linecap: square"/>
     </g>
     <g id="line2d_14">
      <g>
       <use xlink:href="#m83282c0d27" x="48.591275" y="135.321646" style="stroke: #000000; stroke-width: 0.8"/>
      </g>
     </g>
     <g id="text_10">
      <!-- $\mathdefault{10}$ -->
      <g transform="translate(30.63234 139.126819) scale(0.11 -0.11)">
       <defs>
        <path id="CMR17-31" d="M 1702 4058 
C 1702 4192 1696 4192 1606 4192 
C 1357 3916 979 3827 621 3827 
C 602 3827 570 3827 563 3808 
C 557 3795 557 3782 557 3648 
C 755 3648 1088 3686 1344 3839 
L 1344 461 
C 1344 236 1331 160 781 160 
L 589 160 
L 589 0 
C 896 0 1216 0 1523 0 
C 1830 0 2150 0 2458 0 
L 2458 160 
L 2266 160 
C 1715 160 1702 230 1702 458 
L 1702 4058 
z
" transform="scale(0.015625)"/>
        <path id="CMR17-30" d="M 2688 2025 
C 2688 2416 2682 3080 2413 3591 
C 2176 4039 1798 4198 1466 4198 
C 1158 4198 768 4058 525 3597 
C 269 3118 243 2524 243 2025 
C 243 1661 250 1106 448 619 
C 723 -39 1216 -128 1466 -128 
C 1760 -128 2208 -7 2470 600 
C 2662 1042 2688 1559 2688 2025 
z
M 1466 -26 
C 1056 -26 813 325 723 812 
C 653 1188 653 1738 653 2096 
C 653 2588 653 2997 736 3387 
C 858 3929 1216 4096 1466 4096 
C 1728 4096 2067 3923 2189 3400 
C 2272 3036 2278 2607 2278 2096 
C 2278 1680 2278 1169 2202 792 
C 2067 95 1690 -26 1466 -26 
z
" transform="scale(0.015625)"/>
       </defs>
       <use xlink:href="#CMR17-31" transform="scale(0.996264)"/>
       <use xlink:href="#CMR17-30" transform="translate(45.690477 0) scale(0.996264)"/>
      </g>
     </g>
    </g>
    <g id="ytick_6">
     <g id="line2d_15">
      <path d="M 48.591275 83.501518 
L 704.88 83.501518 
" clip-path="url(#pbf9919d123)" style="fill: none; stroke: #b0b0b0; stroke-opacity: 0.3; stroke-linecap: square"/>
     </g>
     <g id="line2d_16">
      <g>
       <use xlink:href="#m83282c0d27" x="48.591275" y="83.501518" style="stroke: #000000; stroke-width: 0.8"/>
      </g>
     </g>
     <g id="text_11">
      <!-- $\mathdefault{12}$ -->
      <g transform="translate(30.63234 87.306692) scale(0.11 -0.11)">
       <use xlink:href="#CMR17-31" transform="scale(0.996264)"/>
       <use xlink:href="#CMR17-32" transform="translate(45.690477 0) scale(0.996264)"/>
      </g>
     </g>
    </g>
    <g id="ytick_7">
     <g id="line2d_17">
      <path d="M 48.591275 31.681391 
L 704.88 31.681391 
" clip-path="url(#pbf9919d123)" style="fill: none; stroke: #b0b0b0; stroke-opacity: 0.3; stroke-linecap: square"/>
     </g>
     <g id="line2d_18">
      <g>
       <use xlink:href="#m83282c0d27" x="48.591275" y="31.681391" style="stroke: #000000; stroke-width: 0.8"/>
      </g>
     </g>
     <g id="text_12">
      <!-- $\mathdefault{14}$ -->
      <g transform="translate(30.63234 35.486564) scale(0.11 -0.11)">
       <use xlink:href="#CMR17-31" transform="scale(0.996264)"/>
       <use xlink:href="#CMR17-34" transform="translate(45.690477 0) scale(0.996264)"/>
      </g>
     </g>
    </g>
    <g id="text_13">
     <!-- Distortion -->
     <g transform="translate(24.114028 235.497321) rotate(-90) scale(0.13 -0.13)">
      <defs>
       <path id="CMR17-44" d="M 333 4352 
L 333 4186 
C 774 4186 845 4186 845 3900 
L 845 452 
C 845 166 774 166 333 166 
L 333 0 
L 2368 0 
C 3398 0 4224 943 4224 2141 
C 4224 3346 3411 4352 2368 4352 
L 333 4352 
z
M 1523 166 
C 1267 166 1254 197 1254 414 
L 1254 3938 
C 1254 4155 1267 4186 1523 4186 
L 2240 4186 
C 2771 4186 3750 3874 3750 2141 
C 3750 1242 3488 879 3366 707 
C 3213 510 2848 166 2240 166 
L 1523 166 
z
" transform="scale(0.015625)"/>
      </defs>
      <use xlink:href="#CMR17-44" transform="scale(0.996264)"/>
      <use xlink:href="#CMR17-69" transform="translate(70.393556 0) scale(0.996264)"/>
      <use xlink:href="#CMR17-73" transform="translate(95.264614 0) scale(0.996264)"/>
      <use xlink:href="#CMR17-74" transform="translate(131.065952 0) scale(0.996264)"/>
      <use xlink:href="#CMR17-6f" transform="translate(166.34672 0) scale(0.996264)"/>
      <use xlink:href="#CMR17-72" transform="translate(212.037197 0) scale(0.996264)"/>
      <use xlink:href="#CMR17-74" transform="translate(247.317965 0) scale(0.996264)"/>
      <use xlink:href="#CMR17-69" transform="translate(282.598733 0) scale(0.996264)"/>
      <use xlink:href="#CMR17-6f" transform="translate(307.469791 0) scale(0.996264)"/>
      <use xlink:href="#CMR17-6e" transform="translate(353.160268 0) scale(0.996264)"/>
     </g>
    </g>
   </g>
   <g id="LineCollection_1">
    <path d="M 99.730656 296.058464 
L 142.346807 296.058464 
" clip-path="url(#pbf9919d123)" style="fill: none; stroke: #1f77b4; stroke-width: 1.5"/>
    <path d="M 270.19526 290.584289 
L 312.811411 290.584289 
" clip-path="url(#pbf9919d123)" style="fill: none; stroke: #1f77b4; stroke-width: 1.5"/>
    <path d="M 440.659864 299.354239 
L 483.276015 299.354239 
" clip-path="url(#pbf9919d123)" style="fill: none; stroke: #1f77b4; stroke-width: 1.5"/>
    <path d="M 611.124468 296.417716 
L 653.740619 296.417716 
" clip-path="url(#pbf9919d123)" style="fill: none; stroke: #1f77b4; stroke-width: 1.5"/>
   </g>
   <g id="LineCollection_2">
    <path d="M 99.730656 67.418807 
L 142.346807 67.418807 
" clip-path="url(#pbf9919d123)" style="fill: none; stroke: #1f77b4; stroke-width: 1.5"/>
    <path d="M 270.19526 46.228228 
L 312.811411 46.228228 
" clip-path="url(#pbf9919d123)" style="fill: none; stroke: #1f77b4; stroke-width: 1.5"/>
    <path d="M 440.659864 112.258775 
L 483.276015 112.258775 
" clip-path="url(#pbf9919d123)" style="fill: none; stroke: #1f77b4; stroke-width: 1.5"/>
    <path d="M 611.124468 87.562044 
L 653.740619 87.562044 
" clip-path="url(#pbf9919d123)" style="fill: none; stroke: #1f77b4; stroke-width: 1.5"/>
   </g>
   <g id="LineCollection_3">
    <path d="M 99.730656 367.32503 
L 142.346807 367.32503 
" clip-path="url(#pbf9919d123)" style="fill: none; stroke: #1f77b4; stroke-width: 1.5"/>
    <path d="M 270.19526 368.512219 
L 312.811411 368.512219 
" clip-path="url(#pbf9919d123)" style="fill: none; stroke: #1f77b4; stroke-width: 1.5"/>
    <path d="M 440.659864 368.512219 
L 483.276015 368.512219 
" clip-path="url(#pbf9919d123)" style="fill: none; stroke: #1f77b4; stroke-width: 1.5"/>
    <path d="M 611.124468 367.455134 
L 653.740619 367.455134 
" clip-path="url(#pbf9919d123)" style="fill: none; stroke: #1f77b4; stroke-width: 1.5"/>
   </g>
   <g id="LineCollection_4">
    <path d="M 121.038731 367.32503 
L 121.038731 67.418807 
" clip-path="url(#pbf9919d123)" style="fill: none; stroke: #1f77b4; stroke-width: 1.5"/>
    <path d="M 291.503335 368.512219 
L 291.503335 46.228228 
" clip-path="url(#pbf9919d123)" style="fill: none; stroke: #1f77b4; stroke-width: 1.5"/>
    <path d="M 461.967939 368.512219 
L 461.967939 112.258775 
" clip-path="url(#pbf9919d123)" style="fill: none; stroke: #1f77b4; stroke-width: 1.5"/>
    <path d="M 632.432543 367.455134 
L 632.432543 87.562044 
" clip-path="url(#pbf9919d123)" style="fill: none; stroke: #1f77b4; stroke-width: 1.5"/>
   </g>
   <g id="patch_3">
    <path d="M 48.591275 384.626418 
L 48.591275 30.114028 
" style="fill: none; stroke: #000000; stroke-linejoin: miter; stroke-linecap: square"/>
   </g>
   <g id="patch_4">
    <path d="M 704.88 384.626418 
L 704.88 30.114028 
" style="fill: none; stroke: #000000; stroke-linejoin: miter; stroke-linecap: square"/>
   </g>
   <g id="patch_5">
    <path d="M 48.591275 384.626418 
L 704.88 384.626418 
" style="fill: none; stroke: #000000; stroke-linejoin: miter; stroke-linecap: square"/>
   </g>
   <g id="patch_6">
    <path d="M 48.591275 30.114028 
L 704.88 30.114028 
" style="fill: none; stroke: #000000; stroke-linejoin: miter; stroke-linecap: square"/>
   </g>
   <g id="text_14">
    <!-- Distortion Under Nash -->
    <g transform="translate(313.351479 24.114028) scale(0.13 -0.13)">
     <defs>
      <path id="CMR17-55" d="M 3456 1433 
C 3456 579 2899 38 2291 38 
C 1965 38 1670 210 1491 477 
C 1286 783 1261 1178 1261 1401 
L 1261 3874 
C 1261 4160 1331 4160 1773 4160 
L 1773 4320 
C 1587 4320 1248 4320 1050 4320 
C 851 4320 512 4320 326 4320 
L 326 4160 
C 768 4160 838 4160 838 3874 
L 838 1433 
C 838 516 1536 -128 2278 -128 
C 3110 -128 3590 719 3590 1344 
L 3590 3766 
C 3590 4122 3917 4160 4102 4160 
L 4102 4326 
C 3955 4320 3686 4320 3526 4320 
C 3366 4320 3091 4320 2944 4326 
L 2944 4160 
C 3456 4160 3456 3861 3456 3702 
L 3456 1433 
z
" transform="scale(0.015625)"/>
      <path id="CMR17-68" d="M 2656 1933 
C 2656 2259 2592 2790 1837 2790 
C 1312 2790 1056 2368 979 2157 
L 973 2157 
L 973 4396 
L 211 4326 
L 211 4160 
C 589 4160 646 4122 646 3817 
L 646 426 
C 646 184 621 153 211 153 
L 211 -13 
C 365 0 646 0 813 0 
C 979 0 1267 0 1421 -13 
L 1421 153 
C 1011 153 986 178 986 428 
L 986 1658 
C 986 2247 1344 2688 1792 2688 
C 2266 2688 2317 2266 2317 1958 
L 2317 428 
C 2317 184 2291 153 1882 153 
L 1882 -13 
C 2035 0 2317 0 2483 0 
C 2650 0 2938 0 3091 -13 
L 3091 153 
C 2682 153 2656 178 2656 428 
L 2656 1933 
z
" transform="scale(0.015625)"/>
     </defs>
     <use xlink:href="#CMR17-44" transform="scale(0.996264)"/>
     <use xlink:href="#CMR17-69" transform="translate(70.393556 0) scale(0.996264)"/>
     <use xlink:href="#CMR17-73" transform="translate(95.264614 0) scale(0.996264)"/>
     <use xlink:href="#CMR17-74" transform="translate(131.065952 0) scale(0.996264)"/>
     <use xlink:href="#CMR17-6f" transform="translate(166.34672 0) scale(0.996264)"/>
     <use xlink:href="#CMR17-72" transform="translate(212.037197 0) scale(0.996264)"/>
     <use xlink:href="#CMR17-74" transform="translate(247.317965 0) scale(0.996264)"/>
     <use xlink:href="#CMR17-69" transform="translate(282.598733 0) scale(0.996264)"/>
     <use xlink:href="#CMR17-6f" transform="translate(307.469791 0) scale(0.996264)"/>
     <use xlink:href="#CMR17-6e" transform="translate(353.160268 0) scale(0.996264)"/>
     <use xlink:href="#CMR17-55" transform="translate(434.131604 0) scale(0.996264)"/>
     <use xlink:href="#CMR17-6e" transform="translate(503.204034 0) scale(0.996264)"/>
     <use xlink:href="#CMR17-64" transform="translate(554.099404 0) scale(0.996264)"/>
     <use xlink:href="#CMR17-65" transform="translate(604.994774 0) scale(0.996264)"/>
     <use xlink:href="#CMR17-72" transform="translate(645.480434 0) scale(0.996264)"/>
     <use xlink:href="#CMR17-4e" transform="translate(710.837168 0) scale(0.996264)"/>
     <use xlink:href="#CMR17-61" transform="translate(779.909598 0) scale(0.996264)"/>
     <use xlink:href="#CMR17-73" transform="translate(825.600075 0) scale(0.996264)"/>
     <use xlink:href="#CMR17-68" transform="translate(861.401413 0) scale(0.996264)"/>
    </g>
   </g>
  </g>
 </g>
 <defs>
  <clipPath id="pbf9919d123">
   <rect x="48.591275" y="30.114028" width="656.288725" height="354.51239"/>
  </clipPath>
 </defs>
</svg>
