<?xml version="1.0" encoding="utf-8" standalone="no"?>
<!DOCTYPE svg PUBLIC "-//W3C//DTD SVG 1.1//EN"
  "http://www.w3.org/Graphics/SVG/1.1/DTD/svg11.dtd">
<svg xmlns:xlink="http://www.w3.org/1999/xlink" width="720pt" height="432pt" viewBox="0 0 720 432" xmlns="http://www.w3.org/2000/svg" version="1.1">
 <metadata>
  <rdf:RDF xmlns:dc="http://purl.org/dc/elements/1.1/" xmlns:cc="http://creativecommons.org/ns#" xmlns:rdf="http://www.w3.org/1999/02/22-rdf-syntax-ns#">
   <cc:Work>
    <dc:type rdf:resource="http://purl.org/dc/dcmitype/StillImage"/>
    <dc:date>2024-12-09T15:09:14.818922</dc:date>
    <dc:format>image/svg+xml</dc:format>
    <dc:creator>
     <cc:Agent>
      <dc:title>Matplotlib v3.9.2, https://matplotlib.org/</dc:title>
     </cc:Agent>
    </dc:creator>
   </cc:Work>
  </rdf:RDF>
 </metadata>
 <defs>
  <style type="text/css">*{stroke-linejoin: round; stroke-linecap: butt}</style>
 </defs>
 <g id="figure_1">
  <g id="patch_1">
   <path d="M 0 432 
L 720 432 
L 720 0 
L 0 0 
z
" style="fill: #ffffff"/>
  </g>
  <g id="axes_1">
   <g id="patch_2">
    <path d="M 51.635416 384.626418 
L 704.88 384.626418 
L 704.88 30.114028 
L 51.635416 30.114028 
z
" style="fill: #ffffff"/>
   </g>
   <g id="PolyCollection_1">
    <defs>
     <path id="m75161b8f8e" d="M 147.312653 -63.487781 
L 81.328352 -63.487781 
L 81.568772 -66.193205 
L 82.527476 -68.898628 
L 84.13739 -71.604052 
L 86.291129 -74.309475 
L 88.852497 -77.014899 
L 91.670341 -79.720323 
L 94.592804 -82.425746 
L 97.480149 -85.13117 
L 100.214686 -87.836593 
L 102.707 -90.542017 
L 104.898279 -93.247441 
L 106.759158 -95.952864 
L 108.285895 -98.658288 
L 109.494902 -101.363711 
L 110.416651 -104.069135 
L 111.08981 -106.774559 
L 111.556224 -109.479982 
L 111.857048 -112.185406 
L 112.030118 -114.890829 
L 112.108448 -117.596253 
L 112.119633 -120.301677 
L 112.0859 -123.0071 
L 112.024578 -125.712524 
L 111.948775 -128.417947 
L 111.868138 -131.123371 
L 111.789591 -133.828795 
L 111.718008 -136.534218 
L 111.656793 -139.239642 
L 111.60836 -141.945065 
L 111.574502 -144.650489 
L 111.556657 -147.355913 
L 111.556059 -150.061336 
L 111.573806 -152.76676 
L 111.610824 -155.472183 
L 111.667776 -158.177607 
L 111.744922 -160.883031 
L 111.841956 -163.588454 
L 111.957868 -166.293878 
L 112.090834 -168.999301 
L 112.238179 -171.704725 
L 112.396423 -174.410149 
L 112.56141 -177.115572 
L 112.728534 -179.820996 
L 112.893024 -182.526419 
L 113.050283 -185.231843 
L 113.196223 -187.937267 
L 113.327583 -190.64269 
L 113.442169 -193.348114 
L 113.538997 -196.053537 
L 113.618321 -198.758961 
L 113.681533 -201.464385 
L 113.730955 -204.169808 
L 113.769547 -206.875232 
L 113.800559 -209.580655 
L 113.827182 -212.286079 
L 113.852233 -214.991503 
L 113.877908 -217.696926 
L 113.905631 -220.40235 
L 113.935997 -223.107773 
L 113.968822 -225.813197 
L 114.003261 -228.51862 
L 114.037984 -231.224044 
L 114.071375 -233.929468 
L 114.10173 -236.634891 
L 114.127428 -239.340315 
L 114.147074 -242.045738 
L 114.159602 -244.751162 
L 114.164349 -247.456586 
L 114.161093 -250.162009 
L 114.150074 -252.867433 
L 114.131998 -255.572856 
L 114.108012 -258.27828 
L 114.079663 -260.983704 
L 114.048821 -263.689127 
L 114.017571 -266.394551 
L 113.988069 -269.099974 
L 113.962373 -271.805398 
L 113.942264 -274.510822 
L 113.92907 -277.216245 
L 113.923526 -279.921669 
L 113.925686 -282.627092 
L 113.934896 -285.332516 
L 113.949849 -288.03794 
L 113.968707 -290.743363 
L 113.989284 -293.448787 
L 114.009264 -296.15421 
L 114.026439 -298.859634 
L 114.038933 -301.565058 
L 114.045389 -304.270481 
L 114.045112 -306.975905 
L 114.03813 -309.681328 
L 114.0252 -312.386752 
L 114.007729 -315.092176 
L 113.987629 -317.797599 
L 113.967134 -320.503023 
L 113.948566 -323.208446 
L 113.934109 -325.91387 
L 113.925589 -328.619294 
L 113.924307 -331.324717 
L 114.716699 -331.324717 
L 114.716699 -331.324717 
L 114.715416 -328.619294 
L 114.706897 -325.91387 
L 114.692439 -323.208446 
L 114.673871 -320.503023 
L 114.653376 -317.797599 
L 114.633277 -315.092176 
L 114.615805 -312.386752 
L 114.602876 -309.681328 
L 114.595894 -306.975905 
L 114.595616 -304.270481 
L 114.602073 -301.565058 
L 114.614566 -298.859634 
L 114.631741 -296.15421 
L 114.651721 -293.448787 
L 114.672298 -290.743363 
L 114.691157 -288.03794 
L 114.70611 -285.332516 
L 114.71532 -282.627092 
L 114.717479 -279.921669 
L 114.711936 -277.216245 
L 114.698741 -274.510822 
L 114.678632 -271.805398 
L 114.652937 -269.099974 
L 114.623435 -266.394551 
L 114.592185 -263.689127 
L 114.561343 -260.983704 
L 114.532993 -258.27828 
L 114.509007 -255.572856 
L 114.490931 -252.867433 
L 114.479913 -250.162009 
L 114.476657 -247.456586 
L 114.481404 -244.751162 
L 114.493932 -242.045738 
L 114.513577 -239.340315 
L 114.539275 -236.634891 
L 114.56963 -233.929468 
L 114.603022 -231.224044 
L 114.637745 -228.51862 
L 114.672183 -225.813197 
L 114.705008 -223.107773 
L 114.735375 -220.40235 
L 114.763097 -217.696926 
L 114.788773 -214.991503 
L 114.813824 -212.286079 
L 114.840447 -209.580655 
L 114.871458 -206.875232 
L 114.91005 -204.169808 
L 114.959473 -201.464385 
L 115.022684 -198.758961 
L 115.102008 -196.053537 
L 115.198836 -193.348114 
L 115.313422 -190.64269 
L 115.444782 -187.937267 
L 115.590723 -185.231843 
L 115.747981 -182.526419 
L 115.912472 -179.820996 
L 116.079596 -177.115572 
L 116.244583 -174.410149 
L 116.402826 -171.704725 
L 116.550171 -168.999301 
L 116.683137 -166.293878 
L 116.799049 -163.588454 
L 116.896084 -160.883031 
L 116.973229 -158.177607 
L 117.030182 -155.472183 
L 117.0672 -152.76676 
L 117.084946 -150.061336 
L 117.084349 -147.355913 
L 117.066503 -144.650489 
L 117.032646 -141.945065 
L 116.984213 -139.239642 
L 116.922998 -136.534218 
L 116.851414 -133.828795 
L 116.772867 -131.123371 
L 116.692231 -128.417947 
L 116.616428 -125.712524 
L 116.555105 -123.0071 
L 116.521372 -120.301677 
L 116.532557 -117.596253 
L 116.610888 -114.890829 
L 116.783958 -112.185406 
L 117.084781 -109.479982 
L 117.551195 -106.774559 
L 118.224355 -104.069135 
L 119.146103 -101.363711 
L 120.355111 -98.658288 
L 121.881848 -95.952864 
L 123.742727 -93.247441 
L 125.934005 -90.542017 
L 128.426319 -87.836593 
L 131.160856 -85.13117 
L 134.048201 -82.425746 
L 136.970665 -79.720323 
L 139.788508 -77.014899 
L 142.349877 -74.309475 
L 144.503616 -71.604052 
L 146.113529 -68.898628 
L 147.072233 -66.193205 
L 147.312653 -63.487781 
z
" style="stroke: #000000; stroke-opacity: 0.4"/>
    </defs>
    <g clip-path="url(#p042e6ddb9e)">
     <use xlink:href="#m75161b8f8e" x="0" y="432" style="fill: #440154; fill-opacity: 0.4; stroke: #000000; stroke-opacity: 0.4"/>
    </g>
   </g>
   <g id="PolyCollection_2">
    <defs>
     <path id="m69e6dbfdff" d="M 279.281256 -63.487781 
L 213.296955 -63.487781 
L 213.366063 -64.811822 
L 213.855427 -66.135863 
L 214.739756 -67.459904 
L 215.978425 -68.783946 
L 217.51826 -70.107987 
L 219.297064 -71.432028 
L 221.247562 -72.756069 
L 223.301417 -74.08011 
L 225.393002 -75.404151 
L 227.462645 -76.728192 
L 229.459139 -78.052233 
L 231.341404 -79.376275 
L 233.079271 -80.700316 
L 234.653438 -82.024357 
L 236.054728 -83.348398 
L 237.282806 -84.672439 
L 238.34454 -85.99648 
L 239.252201 -87.320521 
L 240.021653 -88.644562 
L 240.670689 -89.968603 
L 241.217589 -91.292645 
L 241.679967 -92.616686 
L 242.073933 -93.940727 
L 242.413549 -95.264768 
L 242.710551 -96.588809 
L 242.974302 -97.91285 
L 243.211906 -99.236891 
L 243.428449 -100.560932 
L 243.627306 -101.884974 
L 243.810483 -103.209015 
L 243.978959 -104.533056 
L 244.133012 -105.857097 
L 244.272499 -107.181138 
L 244.397097 -108.505179 
L 244.506499 -109.82922 
L 244.600561 -111.153261 
L 244.679405 -112.477302 
L 244.743483 -113.801344 
L 244.793614 -115.125385 
L 244.83098 -116.449426 
L 244.857113 -117.773467 
L 244.873847 -119.097508 
L 244.883262 -120.421549 
L 244.887613 -121.74559 
L 244.889247 -123.069631 
L 244.89051 -124.393673 
L 244.893657 -125.717714 
L 244.900759 -127.041755 
L 244.913618 -128.365796 
L 244.933691 -129.689837 
L 244.962031 -131.013878 
L 244.999251 -132.337919 
L 245.045504 -133.66196 
L 245.100492 -134.986001 
L 245.163503 -136.310043 
L 245.233459 -137.634084 
L 245.308991 -138.958125 
L 245.388524 -140.282166 
L 245.470365 -141.606207 
L 245.552797 -142.930248 
L 245.634158 -144.254289 
L 245.71292 -145.57833 
L 245.787738 -146.902372 
L 245.857491 -148.226413 
L 245.921299 -149.550454 
L 245.978522 -150.874495 
L 246.02874 -152.198536 
L 246.071726 -153.522577 
L 246.107398 -154.846618 
L 246.135776 -156.170659 
L 246.156934 -157.4947 
L 246.170955 -158.818742 
L 246.177889 -160.142783 
L 246.177729 -161.466824 
L 246.170389 -162.790865 
L 246.155707 -164.114906 
L 246.133445 -165.438947 
L 246.103323 -166.762988 
L 246.06505 -168.087029 
L 246.018372 -169.411071 
L 245.963132 -170.735112 
L 245.899329 -172.059153 
L 245.827179 -173.383194 
L 245.747178 -174.707235 
L 245.660145 -176.031276 
L 245.56726 -177.355317 
L 245.47008 -178.679358 
L 245.370525 -180.0034 
L 245.270847 -181.327441 
L 245.173566 -182.651482 
L 245.081379 -183.975523 
L 244.997051 -185.299564 
L 244.92328 -186.623605 
L 244.862568 -187.947646 
L 244.817076 -189.271687 
L 244.788503 -190.595728 
L 244.777979 -191.91977 
L 244.785994 -193.243811 
L 244.812358 -194.567852 
L 247.765853 -194.567852 
L 247.765853 -194.567852 
L 247.792217 -193.243811 
L 247.800232 -191.91977 
L 247.789708 -190.595728 
L 247.761135 -189.271687 
L 247.715643 -187.947646 
L 247.654931 -186.623605 
L 247.58116 -185.299564 
L 247.496832 -183.975523 
L 247.404645 -182.651482 
L 247.307364 -181.327441 
L 247.207686 -180.0034 
L 247.108131 -178.679358 
L 247.010951 -177.355317 
L 246.918066 -176.031276 
L 246.831033 -174.707235 
L 246.751032 -173.383194 
L 246.678882 -172.059153 
L 246.615079 -170.735112 
L 246.559839 -169.411071 
L 246.513161 -168.087029 
L 246.474888 -166.762988 
L 246.444766 -165.438947 
L 246.422504 -164.114906 
L 246.407821 -162.790865 
L 246.400482 -161.466824 
L 246.400322 -160.142783 
L 246.407256 -158.818742 
L 246.421276 -157.4947 
L 246.442435 -156.170659 
L 246.470813 -154.846618 
L 246.506485 -153.522577 
L 246.549471 -152.198536 
L 246.599689 -150.874495 
L 246.656912 -149.550454 
L 246.72072 -148.226413 
L 246.790473 -146.902372 
L 246.865291 -145.57833 
L 246.944053 -144.254289 
L 247.025414 -142.930248 
L 247.107846 -141.606207 
L 247.189687 -140.282166 
L 247.26922 -138.958125 
L 247.344752 -137.634084 
L 247.414708 -136.310043 
L 247.477719 -134.986001 
L 247.532707 -133.66196 
L 247.57896 -132.337919 
L 247.61618 -131.013878 
L 247.64452 -129.689837 
L 247.664593 -128.365796 
L 247.677452 -127.041755 
L 247.684554 -125.717714 
L 247.687701 -124.393673 
L 247.688964 -123.069631 
L 247.690598 -121.74559 
L 247.694949 -120.421549 
L 247.704364 -119.097508 
L 247.721098 -117.773467 
L 247.747231 -116.449426 
L 247.784597 -115.125385 
L 247.834728 -113.801344 
L 247.898806 -112.477302 
L 247.97765 -111.153261 
L 248.071712 -109.82922 
L 248.181114 -108.505179 
L 248.305712 -107.181138 
L 248.445199 -105.857097 
L 248.599252 -104.533056 
L 248.767728 -103.209015 
L 248.950905 -101.884974 
L 249.149762 -100.560932 
L 249.366305 -99.236891 
L 249.603909 -97.91285 
L 249.86766 -96.588809 
L 250.164662 -95.264768 
L 250.504278 -93.940727 
L 250.898244 -92.616686 
L 251.360622 -91.292645 
L 251.907522 -89.968603 
L 252.556558 -88.644562 
L 253.32601 -87.320521 
L 254.233671 -85.99648 
L 255.295405 -84.672439 
L 256.523483 -83.348398 
L 257.924773 -82.024357 
L 259.49894 -80.700316 
L 261.236807 -79.376275 
L 263.119072 -78.052233 
L 265.115566 -76.728192 
L 267.185209 -75.404151 
L 269.276794 -74.08011 
L 271.330648 -72.756069 
L 273.281147 -71.432028 
L 275.059951 -70.107987 
L 276.599786 -68.783946 
L 277.838455 -67.459904 
L 278.722784 -66.135863 
L 279.212148 -64.811822 
L 279.281256 -63.487781 
z
" style="stroke: #000000; stroke-opacity: 0.4"/>
    </defs>
    <g clip-path="url(#p042e6ddb9e)">
     <use xlink:href="#m69e6dbfdff" x="0" y="432" style="fill: #3b528b; fill-opacity: 0.4; stroke: #000000; stroke-opacity: 0.4"/>
    </g>
   </g>
   <g id="PolyCollection_3">
    <defs>
     <path id="mc8e9dc1185" d="M 411.249859 -63.487781 
L 345.265558 -63.487781 
L 345.411534 -66.555629 
L 345.968572 -69.623477 
L 346.913009 -72.691325 
L 348.20671 -75.759173 
L 349.799433 -78.827021 
L 351.631887 -81.894869 
L 353.639205 -84.962717 
L 355.754576 -88.030565 
L 357.912733 -91.098413 
L 360.053067 -94.166261 
L 362.122166 -97.234109 
L 364.07565 -100.301957 
L 365.879246 -103.369805 
L 367.509117 -106.437652 
L 368.951518 -109.5055 
L 370.201901 -112.573348 
L 371.263613 -115.641196 
L 372.146339 -118.709044 
L 372.864459 -121.776892 
L 373.435425 -124.84474 
L 373.878293 -127.912588 
L 374.212465 -130.980436 
L 374.456688 -134.048284 
L 374.628324 -137.116132 
L 374.742891 -140.18398 
L 374.813818 -143.251828 
L 374.85241 -146.319676 
L 374.86794 -149.387524 
L 374.867858 -152.455372 
L 374.858033 -155.52322 
L 374.843038 -158.591068 
L 374.826403 -161.658916 
L 374.810857 -164.726764 
L 374.798513 -167.794612 
L 374.791017 -170.86246 
L 374.789644 -173.930307 
L 374.79536 -176.998155 
L 374.808847 -180.066003 
L 374.83051 -183.133851 
L 374.860471 -186.201699 
L 374.898559 -189.269547 
L 374.944313 -192.337395 
L 374.99699 -195.405243 
L 375.05559 -198.473091 
L 375.118905 -201.540939 
L 375.185571 -204.608787 
L 375.254145 -207.676635 
L 375.323179 -210.744483 
L 375.391299 -213.812331 
L 375.457284 -216.880179 
L 375.520123 -219.948027 
L 375.579074 -223.015875 
L 375.633688 -226.083723 
L 375.68383 -229.151571 
L 375.729674 -232.219419 
L 375.771684 -235.287267 
L 375.81058 -238.355114 
L 375.847303 -241.422962 
L 375.882959 -244.49081 
L 375.918771 -247.558658 
L 375.956024 -250.626506 
L 375.996004 -253.694354 
L 376.039946 -256.762202 
L 376.088973 -259.83005 
L 376.144041 -262.897898 
L 376.205882 -265.965746 
L 376.274955 -269.033594 
L 376.351402 -272.101442 
L 376.435015 -275.16929 
L 376.525217 -278.237138 
L 376.621064 -281.304986 
L 376.721262 -284.372834 
L 376.824208 -287.440682 
L 376.928053 -290.50853 
L 377.030778 -293.576378 
L 377.130283 -296.644226 
L 377.224496 -299.712074 
L 377.311462 -302.779922 
L 377.389452 -305.847769 
L 377.457038 -308.915617 
L 377.513174 -311.983465 
L 377.557239 -315.051313 
L 377.589069 -318.119161 
L 377.608966 -321.187009 
L 377.617677 -324.254857 
L 377.61636 -327.322705 
L 377.606523 -330.390553 
L 377.589958 -333.458401 
L 377.568653 -336.526249 
L 377.544704 -339.594097 
L 377.520218 -342.661945 
L 377.497225 -345.729793 
L 377.477588 -348.797641 
L 377.462926 -351.865489 
L 377.454558 -354.933337 
L 377.453449 -358.001185 
L 377.46019 -361.069033 
L 377.474989 -364.136881 
L 377.497682 -367.204729 
L 379.017735 -367.204729 
L 379.017735 -367.204729 
L 379.040428 -364.136881 
L 379.055226 -361.069033 
L 379.061967 -358.001185 
L 379.060859 -354.933337 
L 379.05249 -351.865489 
L 379.037829 -348.797641 
L 379.018191 -345.729793 
L 378.995198 -342.661945 
L 378.970713 -339.594097 
L 378.946764 -336.526249 
L 378.925459 -333.458401 
L 378.908894 -330.390553 
L 378.899057 -327.322705 
L 378.897739 -324.254857 
L 378.90645 -321.187009 
L 378.926347 -318.119161 
L 378.958178 -315.051313 
L 379.002242 -311.983465 
L 379.058378 -308.915617 
L 379.125965 -305.847769 
L 379.203954 -302.779922 
L 379.290921 -299.712074 
L 379.385133 -296.644226 
L 379.484639 -293.576378 
L 379.587363 -290.50853 
L 379.691208 -287.440682 
L 379.794155 -284.372834 
L 379.894353 -281.304986 
L 379.990199 -278.237138 
L 380.080402 -275.16929 
L 380.164014 -272.101442 
L 380.240461 -269.033594 
L 380.309534 -265.965746 
L 380.371375 -262.897898 
L 380.426443 -259.83005 
L 380.47547 -256.762202 
L 380.519412 -253.694354 
L 380.559393 -250.626506 
L 380.596645 -247.558658 
L 380.632458 -244.49081 
L 380.668114 -241.422962 
L 380.704836 -238.355114 
L 380.743733 -235.287267 
L 380.785742 -232.219419 
L 380.831586 -229.151571 
L 380.881728 -226.083723 
L 380.936342 -223.015875 
L 380.995293 -219.948027 
L 381.058133 -216.880179 
L 381.124117 -213.812331 
L 381.192238 -210.744483 
L 381.261271 -207.676635 
L 381.329845 -204.608787 
L 381.396512 -201.540939 
L 381.459826 -198.473091 
L 381.518427 -195.405243 
L 381.571103 -192.337395 
L 381.616857 -189.269547 
L 381.654946 -186.201699 
L 381.684906 -183.133851 
L 381.706569 -180.066003 
L 381.720056 -176.998155 
L 381.725772 -173.930307 
L 381.724399 -170.86246 
L 381.716903 -167.794612 
L 381.704559 -164.726764 
L 381.689013 -161.658916 
L 381.672379 -158.591068 
L 381.657383 -155.52322 
L 381.647559 -152.455372 
L 381.647476 -149.387524 
L 381.663007 -146.319676 
L 381.701598 -143.251828 
L 381.772526 -140.18398 
L 381.887092 -137.116132 
L 382.058729 -134.048284 
L 382.302951 -130.980436 
L 382.637123 -127.912588 
L 383.079992 -124.84474 
L 383.650958 -121.776892 
L 384.369077 -118.709044 
L 385.251804 -115.641196 
L 386.313515 -112.573348 
L 387.563899 -109.5055 
L 389.0063 -106.437652 
L 390.63617 -103.369805 
L 392.439766 -100.301957 
L 394.39325 -97.234109 
L 396.46235 -94.166261 
L 398.602683 -91.098413 
L 400.76084 -88.030565 
L 402.876211 -84.962717 
L 404.88353 -81.894869 
L 406.715983 -78.827021 
L 408.308707 -75.759173 
L 409.602407 -72.691325 
L 410.546845 -69.623477 
L 411.103883 -66.555629 
L 411.249859 -63.487781 
z
" style="stroke: #000000; stroke-opacity: 0.4"/>
    </defs>
    <g clip-path="url(#p042e6ddb9e)">
     <use xlink:href="#mc8e9dc1185" x="0" y="432" style="fill: #21918c; fill-opacity: 0.4; stroke: #000000; stroke-opacity: 0.4"/>
    </g>
   </g>
   <g id="PolyCollection_4">
    <defs>
     <path id="me66a2a201a" d="M 543.218462 -63.487781 
L 477.23416 -63.487781 
L 477.290038 -65.01428 
L 477.97857 -66.54078 
L 479.25165 -68.067279 
L 481.028374 -69.593779 
L 483.203004 -71.120278 
L 485.654865 -72.646777 
L 488.2589 -74.173277 
L 490.895619 -75.699776 
L 493.459398 -77.226276 
L 495.864412 -78.752775 
L 498.047887 -80.279274 
L 499.970755 -81.805774 
L 501.616087 -83.332273 
L 502.985894 -84.858773 
L 504.096962 -86.385272 
L 504.97635 -87.911771 
L 505.657074 -89.438271 
L 506.174357 -90.96477 
L 506.562652 -92.49127 
L 506.853507 -94.017769 
L 507.074254 -95.544268 
L 507.247375 -97.070768 
L 507.390441 -98.597267 
L 507.516434 -100.123767 
L 507.634328 -101.650266 
L 507.749805 -103.176765 
L 507.865992 -104.703265 
L 507.984178 -106.229764 
L 508.10443 -107.756264 
L 508.226113 -109.282763 
L 508.348272 -110.809262 
L 508.469901 -112.335762 
L 508.59009 -113.862261 
L 508.708092 -115.38876 
L 508.823299 -116.91526 
L 508.935183 -118.441759 
L 509.043214 -119.968259 
L 509.146782 -121.494758 
L 509.245133 -123.021257 
L 509.337354 -124.547757 
L 509.422392 -126.074256 
L 509.499122 -127.600756 
L 509.566448 -129.127255 
L 509.623417 -130.653754 
L 509.669346 -132.180254 
L 509.703919 -133.706753 
L 509.727253 -135.233253 
L 509.739917 -136.759752 
L 509.742888 -138.286251 
L 509.73747 -139.812751 
L 509.725157 -141.33925 
L 509.707487 -142.86575 
L 509.685887 -144.392249 
L 509.66155 -145.918748 
L 509.635343 -147.445248 
L 509.607774 -148.971747 
L 509.579019 -150.498247 
L 509.548993 -152.024746 
L 509.517476 -153.551245 
L 509.484241 -155.077745 
L 509.449201 -156.604244 
L 509.412525 -158.130744 
L 509.374728 -159.657243 
L 509.336706 -161.183742 
L 509.299731 -162.710242 
L 509.265395 -164.236741 
L 509.235508 -165.76324 
L 509.211975 -167.28974 
L 509.196643 -168.816239 
L 509.191149 -170.342739 
L 509.196774 -171.869238 
L 509.21432 -173.395737 
L 509.244012 -174.922237 
L 509.285452 -176.448736 
L 509.337616 -177.975236 
L 509.398902 -179.501735 
L 509.46722 -181.028234 
L 509.540127 -182.554734 
L 509.614975 -184.081233 
L 509.68908 -185.607733 
L 509.759874 -187.134232 
L 509.82504 -188.660731 
L 509.882623 -190.187231 
L 509.9311 -191.71373 
L 509.969421 -193.24023 
L 509.997026 -194.766729 
L 510.013835 -196.293228 
L 510.02023 -197.819728 
L 510.017021 -199.346227 
L 510.005413 -200.872727 
L 509.986953 -202.399226 
L 509.963478 -203.925725 
L 509.937033 -205.452225 
L 509.909779 -206.978724 
L 509.883874 -208.505224 
L 509.861353 -210.031723 
L 509.843992 -211.558222 
L 509.833188 -213.084722 
L 509.829868 -214.611221 
L 510.622754 -214.611221 
L 510.622754 -214.611221 
L 510.619434 -213.084722 
L 510.60863 -211.558222 
L 510.591269 -210.031723 
L 510.568748 -208.505224 
L 510.542843 -206.978724 
L 510.515589 -205.452225 
L 510.489144 -203.925725 
L 510.465669 -202.399226 
L 510.447209 -200.872727 
L 510.435601 -199.346227 
L 510.432392 -197.819728 
L 510.438787 -196.293228 
L 510.455596 -194.766729 
L 510.483201 -193.24023 
L 510.521522 -191.71373 
L 510.569999 -190.187231 
L 510.627581 -188.660731 
L 510.692748 -187.134232 
L 510.763541 -185.607733 
L 510.837647 -184.081233 
L 510.912495 -182.554734 
L 510.985402 -181.028234 
L 511.05372 -179.501735 
L 511.115006 -177.975236 
L 511.16717 -176.448736 
L 511.20861 -174.922237 
L 511.238302 -173.395737 
L 511.255847 -171.869238 
L 511.261473 -170.342739 
L 511.255979 -168.816239 
L 511.240647 -167.28974 
L 511.217114 -165.76324 
L 511.187227 -164.236741 
L 511.152891 -162.710242 
L 511.115916 -161.183742 
L 511.077894 -159.657243 
L 511.040096 -158.130744 
L 511.003421 -156.604244 
L 510.968381 -155.077745 
L 510.935146 -153.551245 
L 510.903628 -152.024746 
L 510.873603 -150.498247 
L 510.844848 -148.971747 
L 510.817279 -147.445248 
L 510.791072 -145.918748 
L 510.766735 -144.392249 
L 510.745135 -142.86575 
L 510.727465 -141.33925 
L 510.715152 -139.812751 
L 510.709734 -138.286251 
L 510.712705 -136.759752 
L 510.725369 -135.233253 
L 510.748703 -133.706753 
L 510.783276 -132.180254 
L 510.829205 -130.653754 
L 510.886174 -129.127255 
L 510.9535 -127.600756 
L 511.03023 -126.074256 
L 511.115268 -124.547757 
L 511.207489 -123.021257 
L 511.30584 -121.494758 
L 511.409407 -119.968259 
L 511.517439 -118.441759 
L 511.629323 -116.91526 
L 511.74453 -115.38876 
L 511.862531 -113.862261 
L 511.982721 -112.335762 
L 512.104349 -110.809262 
L 512.226509 -109.282763 
L 512.348192 -107.756264 
L 512.468444 -106.229764 
L 512.58663 -104.703265 
L 512.702817 -103.176765 
L 512.818294 -101.650266 
L 512.936188 -100.123767 
L 513.062181 -98.597267 
L 513.205247 -97.070768 
L 513.378368 -95.544268 
L 513.599114 -94.017769 
L 513.88997 -92.49127 
L 514.278264 -90.96477 
L 514.795548 -89.438271 
L 515.476272 -87.911771 
L 516.35566 -86.385272 
L 517.466728 -84.858773 
L 518.836535 -83.332273 
L 520.481867 -81.805774 
L 522.404735 -80.279274 
L 524.58821 -78.752775 
L 526.993223 -77.226276 
L 529.557002 -75.699776 
L 532.193722 -74.173277 
L 534.797757 -72.646777 
L 537.249618 -71.120278 
L 539.424248 -69.593779 
L 541.200972 -68.067279 
L 542.474052 -66.54078 
L 543.162584 -65.01428 
L 543.218462 -63.487781 
z
" style="stroke: #000000; stroke-opacity: 0.4"/>
    </defs>
    <g clip-path="url(#p042e6ddb9e)">
     <use xlink:href="#me66a2a201a" x="0" y="432" style="fill: #5ec962; fill-opacity: 0.4; stroke: #000000; stroke-opacity: 0.4"/>
    </g>
   </g>
   <g id="PolyCollection_5">
    <defs>
     <path id="ma8f4b4aa33" d="M 675.187064 -63.487781 
L 609.202763 -63.487781 
L 609.291658 -66.743175 
L 610.137542 -69.998569 
L 611.663577 -73.253963 
L 613.747355 -76.509357 
L 616.235821 -79.76475 
L 618.962735 -83.020144 
L 621.765942 -86.275538 
L 624.502024 -89.530932 
L 627.056618 -92.786326 
L 629.349663 -96.04172 
L 631.335753 -99.297113 
L 633.000529 -102.552507 
L 634.354484 -105.807901 
L 635.425653 -109.063295 
L 636.252436 -112.318689 
L 636.877494 -115.574083 
L 637.343163 -118.829477 
L 637.688484 -122.08487 
L 637.947642 -125.340264 
L 638.149434 -128.595658 
L 638.31738 -131.851052 
L 638.470118 -135.106446 
L 638.621842 -138.36184 
L 638.782661 -141.617234 
L 638.95886 -144.872627 
L 639.153116 -148.128021 
L 639.364752 -151.383415 
L 639.590104 -154.638809 
L 639.823062 -157.894203 
L 640.055772 -161.149597 
L 640.279466 -164.40499 
L 640.485356 -167.660384 
L 640.665484 -170.915778 
L 640.813458 -174.171172 
L 640.925008 -177.426566 
L 640.998316 -180.68196 
L 641.034116 -183.937354 
L 641.035593 -187.192747 
L 641.008093 -190.448141 
L 640.958703 -193.703535 
L 640.895728 -196.958929 
L 640.828093 -200.214323 
L 640.764715 -203.469717 
L 640.713862 -206.725111 
L 640.682545 -209.980504 
L 640.675998 -213.235898 
L 640.697284 -216.491292 
L 640.74709 -219.746686 
L 640.823735 -223.00208 
L 640.923406 -226.257474 
L 641.040592 -229.512867 
L 641.168669 -232.768261 
L 641.300556 -236.023655 
L 641.429366 -239.279049 
L 641.548963 -242.534443 
L 641.654392 -245.789837 
L 641.742134 -249.045231 
L 641.810206 -252.300624 
L 641.858117 -255.556018 
L 641.886726 -258.811412 
L 641.898032 -262.066806 
L 641.894927 -265.3222 
L 641.880937 -268.577594 
L 641.85995 -271.832988 
L 641.835943 -275.088381 
L 641.812715 -278.343775 
L 641.793626 -281.599169 
L 641.781374 -284.854563 
L 641.777816 -288.109957 
L 641.783873 -291.365351 
L 641.799517 -294.620744 
L 641.823858 -297.876138 
L 641.855309 -301.131532 
L 641.891814 -304.386926 
L 641.931103 -307.64232 
L 641.970933 -310.897714 
L 642.009292 -314.153108 
L 642.044535 -317.408501 
L 642.075445 -320.663895 
L 642.101229 -323.919289 
L 642.121453 -327.174683 
L 642.135941 -330.430077 
L 642.144671 -333.685471 
L 642.147674 -336.940865 
L 642.144969 -340.196258 
L 642.136538 -343.451652 
L 642.12235 -346.707046 
L 642.102424 -349.96244 
L 642.076923 -353.217834 
L 642.046268 -356.473228 
L 642.011234 -359.728622 
L 641.973018 -362.984015 
L 641.933253 -366.239409 
L 641.893951 -369.494803 
L 641.857377 -372.750197 
L 641.825854 -376.005591 
L 641.801539 -379.260985 
L 641.786184 -382.516378 
L 641.780936 -385.771772 
L 642.608892 -385.771772 
L 642.608892 -385.771772 
L 642.603643 -382.516378 
L 642.588289 -379.260985 
L 642.563973 -376.005591 
L 642.532451 -372.750197 
L 642.495876 -369.494803 
L 642.456575 -366.239409 
L 642.41681 -362.984015 
L 642.378594 -359.728622 
L 642.343559 -356.473228 
L 642.312904 -353.217834 
L 642.287404 -349.96244 
L 642.267477 -346.707046 
L 642.253289 -343.451652 
L 642.244859 -340.196258 
L 642.242153 -336.940865 
L 642.245156 -333.685471 
L 642.253886 -330.430077 
L 642.268375 -327.174683 
L 642.288598 -323.919289 
L 642.314383 -320.663895 
L 642.345293 -317.408501 
L 642.380535 -314.153108 
L 642.418894 -310.897714 
L 642.458725 -307.64232 
L 642.498013 -304.386926 
L 642.534519 -301.131532 
L 642.565969 -297.876138 
L 642.59031 -294.620744 
L 642.605955 -291.365351 
L 642.612012 -288.109957 
L 642.608454 -284.854563 
L 642.596201 -281.599169 
L 642.577112 -278.343775 
L 642.553884 -275.088381 
L 642.529878 -271.832988 
L 642.50889 -268.577594 
L 642.4949 -265.3222 
L 642.491796 -262.066806 
L 642.503102 -258.811412 
L 642.531711 -255.556018 
L 642.579622 -252.300624 
L 642.647694 -249.045231 
L 642.735436 -245.789837 
L 642.840864 -242.534443 
L 642.960462 -239.279049 
L 643.089271 -236.023655 
L 643.221159 -232.768261 
L 643.349235 -229.512867 
L 643.466421 -226.257474 
L 643.566092 -223.00208 
L 643.642738 -219.746686 
L 643.692543 -216.491292 
L 643.713829 -213.235898 
L 643.707282 -209.980504 
L 643.675965 -206.725111 
L 643.625112 -203.469717 
L 643.561734 -200.214323 
L 643.4941 -196.958929 
L 643.431124 -193.703535 
L 643.381735 -190.448141 
L 643.354234 -187.192747 
L 643.355711 -183.937354 
L 643.391512 -180.68196 
L 643.464819 -177.426566 
L 643.57637 -174.171172 
L 643.724344 -170.915778 
L 643.904471 -167.660384 
L 644.110361 -164.40499 
L 644.334055 -161.149597 
L 644.566765 -157.894203 
L 644.799723 -154.638809 
L 645.025076 -151.383415 
L 645.236711 -148.128021 
L 645.430967 -144.872627 
L 645.607166 -141.617234 
L 645.767985 -138.36184 
L 645.919709 -135.106446 
L 646.072448 -131.851052 
L 646.240394 -128.595658 
L 646.442186 -125.340264 
L 646.701343 -122.08487 
L 647.046665 -118.829477 
L 647.512333 -115.574083 
L 648.137391 -112.318689 
L 648.964174 -109.063295 
L 650.035343 -105.807901 
L 651.389299 -102.552507 
L 653.054074 -99.297113 
L 655.040164 -96.04172 
L 657.33321 -92.786326 
L 659.887803 -89.530932 
L 662.623885 -86.275538 
L 665.427093 -83.020144 
L 668.154007 -79.76475 
L 670.642473 -76.509357 
L 672.726251 -73.253963 
L 674.252286 -69.998569 
L 675.09817 -66.743175 
L 675.187064 -63.487781 
z
" style="stroke: #000000; stroke-opacity: 0.4"/>
    </defs>
    <g clip-path="url(#p042e6ddb9e)">
     <use xlink:href="#ma8f4b4aa33" x="0" y="432" style="fill: #fde725; fill-opacity: 0.4; stroke: #000000; stroke-opacity: 0.4"/>
    </g>
   </g>
   <g id="matplotlib.axis_1">
    <g id="xtick_1">
     <g id="line2d_1">
      <defs>
       <path id="m59ccc0f290" d="M 0 0 
L 0 3.5 
" style="stroke: #000000; stroke-width: 0.8"/>
      </defs>
      <g>
       <use xlink:href="#m59ccc0f290" x="114.320503" y="384.626418" style="stroke: #000000; stroke-width: 0.8"/>
      </g>
     </g>
     <g id="text_1">
      <!-- Borda rule -->
      <g transform="translate(88.795319 399.236765) scale(0.11 -0.11)">
       <defs>
        <path id="CMR17-42" d="M 333 4352 
L 333 4186 
C 774 4186 845 4186 845 3900 
L 845 452 
C 845 166 774 166 333 166 
L 333 0 
L 2534 0 
C 3354 0 3885 583 3885 1164 
C 3885 1741 3360 2233 2675 2233 
C 3290 2356 3718 2771 3718 3264 
C 3718 3802 3194 4352 2368 4352 
L 333 4352 
z
M 1248 2304 
L 1248 3937 
C 1248 4155 1261 4186 1517 4186 
L 2336 4186 
C 2970 4186 3251 3674 3251 3277 
C 3251 2791 2861 2304 2170 2304 
L 1248 2304 
z
M 1517 166 
C 1261 166 1248 197 1248 413 
L 1248 2202 
L 2432 2202 
C 3091 2202 3411 1625 3411 1162 
C 3411 699 3046 166 2349 166 
L 1517 166 
z
" transform="scale(0.015625)"/>
        <path id="CMR17-6f" d="M 2758 1356 
C 2758 2176 2163 2816 1466 2816 
C 768 2816 173 2176 173 1356 
C 173 551 768 -64 1466 -64 
C 2163 -64 2758 551 2758 1356 
z
M 1466 51 
C 1165 51 909 230 762 480 
C 602 767 582 1126 582 1408 
C 582 1677 595 2010 762 2298 
C 890 2509 1139 2714 1466 2714 
C 1754 2714 1997 2554 2150 2330 
C 2349 2029 2349 1607 2349 1408 
C 2349 1158 2336 775 2163 467 
C 1984 173 1709 51 1466 51 
z
" transform="scale(0.015625)"/>
        <path id="CMR17-72" d="M 960 1497 
C 960 2112 1222 2688 1702 2688 
C 1747 2688 1792 2682 1837 2662 
C 1837 2662 1696 2617 1696 2452 
C 1696 2298 1818 2234 1914 2234 
C 1990 2234 2131 2279 2131 2458 
C 2131 2663 1926 2790 1709 2790 
C 1222 2790 1011 2317 947 2093 
L 941 2093 
L 941 2790 
L 198 2720 
L 198 2554 
C 576 2554 634 2515 634 2208 
L 634 428 
C 634 184 608 153 198 153 
L 198 -13 
C 352 0 646 0 813 0 
C 998 0 1325 0 1498 -13 
L 1498 153 
C 1037 153 960 153 960 440 
L 960 1497 
z
" transform="scale(0.015625)"/>
        <path id="CMR17-64" d="M 1869 4326 
L 1869 4160 
C 2246 4160 2304 4122 2304 3820 
L 2304 2345 
C 2278 2377 2016 2790 1498 2790 
C 845 2790 211 2208 211 1364 
C 211 525 806 -64 1434 -64 
C 1978 -64 2259 337 2291 380 
L 2291 -63 
L 3066 -63 
L 3066 128 
C 2688 128 2630 166 2630 473 
L 2630 4396 
L 1869 4326 
z
M 2291 755 
C 2291 563 2176 390 2029 262 
C 1811 70 1594 38 1472 38 
C 1286 38 621 134 621 1356 
C 621 2612 1363 2688 1530 2688 
C 1824 2688 2061 2522 2208 2291 
C 2291 2157 2291 2138 2291 2023 
L 2291 755 
z
" transform="scale(0.015625)"/>
        <path id="CMR17-61" d="M 2304 1653 
C 2304 2072 2304 2294 2035 2543 
C 1798 2752 1523 2816 1306 2816 
C 800 2816 435 2407 435 1971 
C 435 1728 627 1728 666 1728 
C 749 1728 896 1778 896 1954 
C 896 2112 774 2181 666 2181 
C 640 2181 608 2174 589 2168 
C 723 2592 1069 2714 1293 2714 
C 1613 2714 1965 2429 1965 1885 
L 1965 1600 
C 1587 1600 1133 1549 774 1357 
C 371 1133 256 813 256 570 
C 256 77 832 -64 1171 -64 
C 1523 -64 1850 139 1990 511 
C 2003 233 2182 -18 2464 -18 
C 2598 -18 2938 70 2938 567 
L 2938 920 
L 2822 920 
L 2822 562 
C 2822 178 2650 128 2566 128 
C 2304 128 2304 458 2304 738 
L 2304 1653 
z
M 1965 870 
C 1965 317 1568 38 1216 38 
C 896 38 646 275 646 570 
C 646 761 730 1100 1101 1305 
C 1408 1478 1760 1504 1965 1504 
L 1965 870 
z
" transform="scale(0.015625)"/>
        <path id="CMR17-75" d="M 1882 2693 
L 1882 2528 
C 2259 2528 2317 2489 2317 2186 
L 2317 1032 
C 2317 500 2029 38 1555 38 
C 1030 38 986 348 986 678 
L 986 2763 
L 211 2693 
L 211 2528 
C 467 2528 640 2528 646 2274 
L 646 1058 
C 646 633 646 361 813 183 
C 896 101 1056 -64 1517 -64 
C 2061 -64 2272 377 2323 506 
L 2330 506 
L 2330 -63 
L 3091 -63 
L 3091 128 
C 2714 128 2656 166 2656 473 
L 2656 2763 
L 1882 2693 
z
" transform="scale(0.015625)"/>
        <path id="CMR17-6c" d="M 979 4396 
L 218 4326 
L 218 4160 
C 595 4160 653 4122 653 3817 
L 653 426 
C 653 184 627 153 218 153 
L 218 -13 
C 371 0 653 0 813 0 
C 979 0 1261 0 1414 -13 
L 1414 153 
C 1005 153 979 178 979 426 
L 979 4396 
z
" transform="scale(0.015625)"/>
        <path id="CMR17-65" d="M 2438 1472 
C 2464 1498 2464 1511 2464 1576 
C 2464 2238 2118 2816 1389 2816 
C 710 2816 173 2169 173 1383 
C 173 551 781 -64 1459 -64 
C 2176 -64 2458 607 2458 740 
C 2458 784 2419 784 2406 784 
C 2362 784 2355 771 2330 696 
C 2189 265 1837 51 1504 51 
C 1229 51 954 203 781 480 
C 582 803 582 1176 582 1472 
L 2438 1472 
z
M 589 1568 
C 634 2505 1126 2714 1382 2714 
C 1818 2714 2112 2297 2118 1568 
L 589 1568 
z
" transform="scale(0.015625)"/>
       </defs>
       <use xlink:href="#CMR17-42" transform="scale(0.996264)"/>
       <use xlink:href="#CMR17-6f" transform="translate(65.188754 0) scale(0.996264)"/>
       <use xlink:href="#CMR17-72" transform="translate(110.879232 0) scale(0.996264)"/>
       <use xlink:href="#CMR17-64" transform="translate(146.159999 0) scale(0.996264)"/>
       <use xlink:href="#CMR17-61" transform="translate(197.055369 0) scale(0.996264)"/>
       <use xlink:href="#CMR17-72" transform="translate(272.821813 0) scale(0.996264)"/>
       <use xlink:href="#CMR17-75" transform="translate(308.10258 0) scale(0.996264)"/>
       <use xlink:href="#CMR17-6c" transform="translate(358.99795 0) scale(0.996264)"/>
       <use xlink:href="#CMR17-65" transform="translate(383.869009 0) scale(0.996264)"/>
      </g>
     </g>
    </g>
    <g id="xtick_2">
     <g id="line2d_2">
      <g>
       <use xlink:href="#m59ccc0f290" x="246.289105" y="384.626418" style="stroke: #000000; stroke-width: 0.8"/>
      </g>
     </g>
     <g id="text_2">
      <!-- Copeland's Rule -->
      <g transform="translate(207.065277 399.236765) scale(0.11 -0.11)">
       <defs>
        <path id="CMR17-43" d="M 3974 4289 
C 3974 4403 3968 4410 3930 4410 
C 3904 4410 3898 4403 3853 4327 
L 3571 3792 
C 3258 4187 2874 4416 2381 4416 
C 1286 4416 294 3456 294 2148 
C 294 826 1286 -128 2387 -128 
C 3366 -128 3974 730 3974 1461 
C 3974 1524 3974 1550 3917 1550 
C 3866 1550 3866 1531 3859 1474 
C 3808 585 3168 38 2477 38 
C 1824 38 781 495 781 2147 
C 781 3805 1843 4250 2464 4250 
C 3187 4250 3712 3628 3834 2745 
C 3846 2668 3846 2655 3904 2655 
C 3974 2655 3974 2668 3974 2783 
L 3974 4289 
z
" transform="scale(0.015625)"/>
        <path id="CMR17-70" d="M 1408 -1063 
C 998 -1063 973 -1037 973 -789 
L 973 402 
C 1158 134 1427 -38 1766 -38 
C 2406 -38 3053 523 3053 1388 
C 3053 2191 2496 2802 1837 2802 
C 1453 2802 1139 2592 960 2338 
L 960 2802 
L 198 2732 
L 198 2567 
C 576 2567 634 2528 634 2223 
L 634 -789 
C 634 -1031 608 -1063 198 -1063 
L 198 -1228 
C 352 -1216 634 -1216 800 -1216 
C 966 -1216 1254 -1216 1408 -1228 
L 1408 -1063 
z
M 973 2012 
C 973 2102 973 2235 1222 2471 
C 1254 2497 1472 2688 1792 2688 
C 2259 2688 2643 2108 2643 1382 
C 2643 656 2234 64 1728 64 
C 1498 64 1248 172 1056 472 
C 973 612 973 650 973 752 
L 973 2012 
z
" transform="scale(0.015625)"/>
        <path id="CMR17-6e" d="M 2656 1933 
C 2656 2259 2592 2790 1837 2790 
C 1331 2790 1069 2400 973 2144 
L 966 2144 
L 966 2790 
L 211 2720 
L 211 2554 
C 589 2554 646 2515 646 2208 
L 646 428 
C 646 184 621 153 211 153 
L 211 -13 
C 365 0 646 0 813 0 
C 979 0 1267 0 1421 -13 
L 1421 153 
C 1011 153 986 178 986 428 
L 986 1658 
C 986 2247 1344 2688 1792 2688 
C 2266 2688 2317 2266 2317 1958 
L 2317 428 
C 2317 184 2291 153 1882 153 
L 1882 -13 
C 2035 0 2317 0 2483 0 
C 2650 0 2938 0 3091 -13 
L 3091 153 
C 2682 153 2656 178 2656 428 
L 2656 1933 
z
" transform="scale(0.015625)"/>
        <path id="CMR17-27" d="M 1024 4025 
C 1037 3955 1043 3929 1043 3820 
C 1043 3415 883 3042 634 2778 
C 608 2752 595 2733 595 2707 
C 595 2681 621 2656 646 2656 
C 691 2656 1146 3105 1146 3811 
C 1146 3952 1133 4426 800 4426 
C 659 4426 538 4331 538 4165 
C 538 3999 659 3904 800 3904 
C 858 3904 966 3923 1024 4025 
z
" transform="scale(0.015625)"/>
        <path id="CMR17-73" d="M 1978 2697 
C 1978 2813 1971 2819 1933 2819 
C 1907 2819 1901 2813 1824 2717 
C 1805 2691 1747 2626 1728 2601 
C 1523 2819 1235 2819 1126 2819 
C 416 2819 160 2447 160 2076 
C 160 1498 813 1365 998 1325 
C 1402 1243 1542 1217 1677 1101 
C 1760 1025 1901 884 1901 654 
C 1901 384 1747 38 1158 38 
C 602 38 403 460 288 1021 
C 269 1110 269 1117 218 1117 
C 166 1117 160 1110 160 983 
L 160 63 
C 160 -51 166 -58 205 -58 
C 237 -58 243 -51 275 0 
C 314 57 410 211 448 276 
C 576 103 800 -64 1158 -64 
C 1792 -64 2131 283 2131 784 
C 2131 1112 1958 1285 1875 1362 
C 1683 1561 1459 1606 1190 1657 
C 838 1735 390 1825 390 2217 
C 390 2383 480 2737 1126 2737 
C 1811 2737 1850 2094 1862 1888 
C 1869 1856 1901 1849 1920 1849 
C 1978 1849 1978 1869 1978 1978 
L 1978 2697 
z
" transform="scale(0.015625)"/>
        <path id="CMR17-52" d="M 2509 2146 
C 3117 2268 3629 2676 3629 3186 
C 3629 3785 2950 4326 2054 4326 
L 333 4326 
L 333 4160 
C 774 4160 845 4160 845 3873 
L 845 415 
C 845 128 774 128 333 128 
L 333 -26 
C 518 -26 851 -26 1050 -26 
C 1248 -26 1581 -26 1766 -26 
L 1766 128 
C 1325 128 1254 128 1254 417 
L 1254 2112 
L 2003 2112 
C 2368 2112 2573 1964 2662 1881 
C 2918 1632 2918 1459 2918 1024 
C 2918 595 2918 377 3110 160 
C 3354 -102 3680 -128 3821 -128 
C 4294 -128 4365 396 4365 503 
C 4365 540 4365 585 4307 585 
C 4256 585 4250 547 4250 522 
C 4218 112 4032 -26 3834 -26 
C 3482 -26 3443 375 3405 764 
C 3386 898 3373 993 3360 1133 
C 3322 1452 3270 1917 2509 2146 
z
M 1984 2214 
L 1254 2214 
L 1254 3913 
C 1254 4129 1267 4160 1523 4160 
L 1990 4160 
C 2522 4160 3142 3977 3142 3190 
C 3142 2372 2464 2214 1984 2214 
z
" transform="scale(0.015625)"/>
       </defs>
       <use xlink:href="#CMR17-43" transform="scale(0.996264)"/>
       <use xlink:href="#CMR17-6f" transform="translate(66.509881 0) scale(0.996264)"/>
       <use xlink:href="#CMR17-70" transform="translate(112.200358 0) scale(0.996264)"/>
       <use xlink:href="#CMR17-65" transform="translate(165.698166 0) scale(0.996264)"/>
       <use xlink:href="#CMR17-6c" transform="translate(206.183827 0) scale(0.996264)"/>
       <use xlink:href="#CMR17-61" transform="translate(231.054885 0) scale(0.996264)"/>
       <use xlink:href="#CMR17-6e" transform="translate(276.745362 0) scale(0.996264)"/>
       <use xlink:href="#CMR17-64" transform="translate(327.640732 0) scale(0.996264)"/>
       <use xlink:href="#CMR17-27" transform="translate(378.536102 0) scale(0.996264)"/>
       <use xlink:href="#CMR17-73" transform="translate(403.40716 0) scale(0.996264)"/>
       <use xlink:href="#CMR17-52" transform="translate(469.284464 0) scale(0.996264)"/>
       <use xlink:href="#CMR17-75" transform="translate(537.075566 0) scale(0.996264)"/>
       <use xlink:href="#CMR17-6c" transform="translate(587.970936 0) scale(0.996264)"/>
       <use xlink:href="#CMR17-65" transform="translate(612.841994 0) scale(0.996264)"/>
      </g>
     </g>
    </g>
    <g id="xtick_3">
     <g id="line2d_3">
      <g>
       <use xlink:href="#m59ccc0f290" x="378.257708" y="384.626418" style="stroke: #000000; stroke-width: 0.8"/>
      </g>
     </g>
     <g id="text_3">
      <!-- Plurality rule -->
      <g transform="translate(346.187625 399.236765) scale(0.11 -0.11)">
       <defs>
        <path id="CMR17-50" d="M 1267 2042 
L 2291 2042 
C 3117 2042 3718 2578 3718 3184 
C 3718 3791 3130 4352 2291 4352 
L 333 4352 
L 333 4186 
C 774 4186 845 4186 845 3899 
L 845 446 
C 845 160 774 160 333 160 
L 333 0 
C 518 0 858 0 1056 0 
C 1254 0 1594 0 1779 0 
L 1779 160 
C 1338 160 1267 160 1267 446 
L 1267 2042 
z
M 1254 2176 
L 1254 3938 
C 1254 4155 1267 4186 1523 4186 
L 2170 4186 
C 2995 4186 3232 3714 3232 3184 
C 3232 2604 2950 2176 2170 2176 
L 1254 2176 
z
" transform="scale(0.015625)"/>
        <path id="CMR17-69" d="M 992 3909 
C 992 4049 877 4170 730 4170 
C 589 4170 467 4056 467 3909 
C 467 3769 582 3648 730 3648 
C 870 3648 992 3763 992 3909 
z
M 243 2706 
L 243 2541 
C 602 2541 653 2502 653 2197 
L 653 427 
C 653 184 627 153 218 153 
L 218 -13 
C 371 0 646 0 806 0 
C 960 0 1222 0 1370 -13 
L 1370 153 
C 992 153 979 191 979 420 
L 979 2776 
L 243 2706 
z
" transform="scale(0.015625)"/>
        <path id="CMR17-74" d="M 966 2560 
L 1862 2560 
L 1862 2725 
L 966 2725 
L 966 3904 
L 851 3904 
C 838 3245 614 2668 70 2668 
L 70 2560 
L 627 2560 
L 627 771 
C 627 650 627 -64 1370 -64 
C 1747 -64 1965 306 1965 777 
L 1965 1140 
L 1850 1140 
L 1850 783 
C 1850 344 1677 51 1408 51 
C 1222 51 966 178 966 758 
L 966 2560 
z
" transform="scale(0.015625)"/>
        <path id="CMR17-79" d="M 2496 2197 
C 2656 2586 2944 2586 3034 2586 
L 3034 2752 
C 2912 2752 2752 2752 2630 2752 
C 2496 2752 2285 2752 2157 2758 
L 2157 2592 
C 2400 2573 2406 2394 2406 2343 
C 2406 2280 2394 2248 2362 2171 
L 1664 449 
L 902 2306 
C 870 2382 870 2426 870 2433 
C 870 2573 1018 2586 1171 2586 
L 1171 2758 
C 1018 2752 742 2752 582 2752 
C 410 2752 205 2752 64 2758 
L 64 2586 
C 410 2586 448 2554 531 2350 
L 1485 15 
C 1197 -738 1030 -1178 627 -1178 
C 557 -1178 397 -1159 282 -1044 
C 429 -1031 493 -942 493 -833 
C 493 -725 416 -629 288 -629 
C 147 -629 77 -725 77 -840 
C 77 -1095 339 -1280 627 -1280 
C 998 -1280 1229 -922 1357 -604 
L 2496 2197 
z
" transform="scale(0.015625)"/>
       </defs>
       <use xlink:href="#CMR17-50" transform="scale(0.996264)"/>
       <use xlink:href="#CMR17-6c" transform="translate(62.586301 0) scale(0.996264)"/>
       <use xlink:href="#CMR17-75" transform="translate(87.457359 0) scale(0.996264)"/>
       <use xlink:href="#CMR17-72" transform="translate(138.352729 0) scale(0.996264)"/>
       <use xlink:href="#CMR17-61" transform="translate(173.633497 0) scale(0.996264)"/>
       <use xlink:href="#CMR17-6c" transform="translate(219.323974 0) scale(0.996264)"/>
       <use xlink:href="#CMR17-69" transform="translate(244.195032 0) scale(0.996264)"/>
       <use xlink:href="#CMR17-74" transform="translate(269.066091 0) scale(0.996264)"/>
       <use xlink:href="#CMR17-79" transform="translate(301.744405 0) scale(0.996264)"/>
       <use xlink:href="#CMR17-72" transform="translate(380.113287 0) scale(0.996264)"/>
       <use xlink:href="#CMR17-75" transform="translate(415.394055 0) scale(0.996264)"/>
       <use xlink:href="#CMR17-6c" transform="translate(466.289424 0) scale(0.996264)"/>
       <use xlink:href="#CMR17-65" transform="translate(491.160483 0) scale(0.996264)"/>
      </g>
     </g>
    </g>
    <g id="xtick_4">
     <g id="line2d_4">
      <g>
       <use xlink:href="#m59ccc0f290" x="510.226311" y="384.626418" style="stroke: #000000; stroke-width: 0.8"/>
      </g>
     </g>
     <g id="text_4">
      <!-- Black's Rule -->
      <g transform="translate(480.363246 399.236765) scale(0.11 -0.11)">
       <defs>
        <path id="CMR17-63" d="M 2234 2240 
C 2112 2240 1933 2240 1933 2017 
C 1933 1838 2080 1787 2163 1787 
C 2208 1787 2394 1807 2394 2024 
C 2394 2467 1958 2803 1466 2803 
C 787 2803 211 2178 211 1363 
C 211 516 813 -64 1466 -64 
C 2259 -64 2458 677 2458 748 
C 2458 774 2451 793 2406 793 
C 2362 793 2355 787 2330 703 
C 2163 180 1798 51 1523 51 
C 1114 51 621 427 621 1369 
C 621 2338 1094 2688 1472 2688 
C 1722 2688 2093 2573 2234 2240 
z
" transform="scale(0.015625)"/>
        <path id="CMR17-6b" d="M 1670 1673 
C 1664 1686 1632 1724 1632 1743 
C 1632 1756 2086 2171 2144 2222 
C 2509 2528 2739 2560 2906 2560 
L 2906 2733 
C 2867 2733 2854 2733 2848 2720 
L 2534 2720 
C 2355 2720 2080 2720 1907 2733 
L 1907 2566 
C 1997 2559 2061 2508 2061 2419 
C 2061 2291 1933 2170 1926 2170 
L 960 1289 
L 960 4396 
L 198 4326 
L 198 4160 
C 576 4160 634 4122 634 3817 
L 634 426 
C 634 184 608 153 198 153 
L 198 -13 
C 352 0 634 0 794 0 
C 954 0 1235 0 1389 -13 
L 1389 153 
C 979 153 954 178 954 428 
L 954 1130 
L 1395 1532 
L 2042 574 
C 2118 459 2182 369 2182 286 
C 2182 172 2067 153 1990 153 
L 1990 -13 
C 2144 0 2419 0 2579 0 
C 2694 0 2931 0 3040 0 
L 3040 153 
C 2739 153 2669 210 2477 491 
L 1670 1673 
z
" transform="scale(0.015625)"/>
       </defs>
       <use xlink:href="#CMR17-42" transform="scale(0.996264)"/>
       <use xlink:href="#CMR17-6c" transform="translate(65.188754 0) scale(0.996264)"/>
       <use xlink:href="#CMR17-61" transform="translate(90.059813 0) scale(0.996264)"/>
       <use xlink:href="#CMR17-63" transform="translate(135.75029 0) scale(0.996264)"/>
       <use xlink:href="#CMR17-6b" transform="translate(173.633497 0) scale(0.996264)"/>
       <use xlink:href="#CMR17-27" transform="translate(221.926412 0) scale(0.996264)"/>
       <use xlink:href="#CMR17-73" transform="translate(246.797471 0) scale(0.996264)"/>
       <use xlink:href="#CMR17-52" transform="translate(312.674775 0) scale(0.996264)"/>
       <use xlink:href="#CMR17-75" transform="translate(380.465877 0) scale(0.996264)"/>
       <use xlink:href="#CMR17-6c" transform="translate(431.361247 0) scale(0.996264)"/>
       <use xlink:href="#CMR17-65" transform="translate(456.232305 0) scale(0.996264)"/>
      </g>
     </g>
    </g>
    <g id="xtick_5">
     <g id="line2d_5">
      <g>
       <use xlink:href="#m59ccc0f290" x="642.194914" y="384.626418" style="stroke: #000000; stroke-width: 0.8"/>
      </g>
     </g>
     <g id="text_5">
      <!-- Instand-runoff voting -->
      <g transform="translate(591.311994 399.236765) scale(0.11 -0.11)">
       <defs>
        <path id="CMR17-49" d="M 1261 3905 
C 1261 4192 1338 4192 1798 4192 
L 1798 4352 
C 1594 4352 1267 4352 1050 4352 
C 832 4352 506 4352 301 4352 
L 301 4192 
C 762 4192 838 4192 838 3905 
L 838 447 
C 838 160 762 160 301 160 
L 301 0 
C 506 0 832 0 1050 0 
C 1267 0 1594 0 1798 0 
L 1798 160 
C 1338 160 1261 160 1261 447 
L 1261 3905 
z
" transform="scale(0.015625)"/>
        <path id="CMR17-2d" d="M 1632 1216 
L 1632 1496 
L 26 1496 
L 26 1216 
L 1632 1216 
z
" transform="scale(0.015625)"/>
        <path id="CMR17-b" d="M 2554 2560 
L 3283 2560 
L 3283 2725 
L 2541 2725 
L 2541 3494 
C 2541 4022 2810 4352 3085 4352 
C 3168 4352 3264 4327 3328 4282 
C 3277 4269 3142 4225 3142 4067 
C 3142 3901 3270 3850 3360 3850 
C 3450 3850 3578 3901 3578 4067 
C 3578 4308 3347 4454 3091 4454 
C 2842 4454 2637 4333 2477 4181 
C 2330 4390 2086 4454 1837 4454 
C 1338 4454 634 4168 634 3469 
L 634 2725 
L 122 2725 
L 122 2560 
L 634 2560 
L 634 427 
C 634 184 608 153 198 153 
L 198 -13 
C 352 0 634 0 794 0 
C 960 0 1242 0 1395 -13 
L 1395 153 
C 986 153 960 178 960 427 
L 960 2560 
L 2227 2560 
L 2227 427 
C 2227 184 2202 153 1792 153 
L 1792 -13 
C 1946 0 2240 0 2406 0 
C 2592 0 2918 0 3091 -13 
L 3091 153 
C 2630 153 2554 153 2554 439 
L 2554 2560 
z
M 947 2725 
L 947 3469 
C 947 4047 1395 4352 1824 4352 
C 1920 4352 2170 4332 2323 4187 
C 2208 4187 2099 4136 2099 3977 
C 2099 3812 2246 3767 2259 3767 
C 2227 3652 2227 3526 2227 3481 
L 2227 2725 
L 947 2725 
z
" transform="scale(0.015625)"/>
        <path id="CMR17-76" d="M 2502 2163 
C 2560 2304 2662 2560 3034 2560 
L 3034 2726 
C 2912 2726 2752 2726 2630 2726 
C 2496 2726 2285 2726 2157 2732 
L 2157 2566 
C 2317 2553 2406 2477 2406 2311 
C 2406 2253 2406 2240 2368 2151 
L 1664 377 
L 902 2286 
C 864 2369 864 2381 864 2407 
C 864 2560 1075 2560 1171 2560 
L 1171 2732 
C 1018 2726 736 2726 576 2726 
C 403 2726 205 2726 64 2732 
L 64 2560 
C 307 2560 442 2560 518 2362 
L 1446 44 
C 1485 -51 1491 -64 1549 -64 
C 1606 -64 1613 -51 1651 44 
L 2502 2163 
z
" transform="scale(0.015625)"/>
        <path id="CMR17-67" d="M 710 1164 
C 832 1068 1043 960 1299 960 
C 1805 960 2240 1357 2240 1888 
C 2240 2054 2189 2310 1997 2509 
C 2176 2692 2438 2752 2586 2752 
C 2611 2752 2650 2752 2682 2734 
C 2656 2728 2598 2703 2598 2605 
C 2598 2527 2656 2471 2739 2471 
C 2835 2471 2886 2533 2886 2614 
C 2886 2731 2790 2854 2586 2854 
C 2330 2854 2106 2738 1926 2580 
C 1734 2753 1504 2816 1299 2816 
C 794 2816 358 2419 358 1888 
C 358 1522 570 1292 634 1228 
C 442 1004 442 743 442 711 
C 442 545 506 302 723 168 
C 390 85 128 -169 128 -486 
C 128 -943 736 -1280 1466 -1280 
C 2170 -1280 2803 -956 2803 -479 
C 2803 384 1856 384 1363 384 
C 1216 384 954 384 922 391 
C 723 423 589 602 589 826 
C 589 883 589 1024 710 1164 
z
M 1299 1068 
C 736 1068 736 1760 736 1889 
C 736 2016 736 2708 1299 2708 
C 1862 2708 1862 2016 1862 1889 
C 1862 1760 1862 1068 1299 1068 
z
M 1466 -1171 
C 826 -1171 384 -835 384 -486 
C 384 -289 493 -105 634 -4 
C 794 104 858 104 1293 104 
C 1818 104 2547 104 2547 -486 
C 2547 -835 2106 -1171 1466 -1171 
z
" transform="scale(0.015625)"/>
       </defs>
       <use xlink:href="#CMR17-49" transform="scale(0.996264)"/>
       <use xlink:href="#CMR17-6e" transform="translate(32.638409 0) scale(0.996264)"/>
       <use xlink:href="#CMR17-73" transform="translate(83.533779 0) scale(0.996264)"/>
       <use xlink:href="#CMR17-74" transform="translate(119.335117 0) scale(0.996264)"/>
       <use xlink:href="#CMR17-61" transform="translate(154.615884 0) scale(0.996264)"/>
       <use xlink:href="#CMR17-6e" transform="translate(200.306362 0) scale(0.996264)"/>
       <use xlink:href="#CMR17-64" transform="translate(251.201731 0) scale(0.996264)"/>
       <use xlink:href="#CMR17-2d" transform="translate(302.097101 0) scale(0.996264)"/>
       <use xlink:href="#CMR17-72" transform="translate(332.173067 0) scale(0.996264)"/>
       <use xlink:href="#CMR17-75" transform="translate(367.453835 0) scale(0.996264)"/>
       <use xlink:href="#CMR17-6e" transform="translate(418.349205 0) scale(0.996264)"/>
       <use xlink:href="#CMR17-6f" transform="translate(469.244575 0) scale(0.996264)"/>
       <use xlink:href="#CMR17-b" transform="translate(514.935052 0) scale(0.996264)"/>
       <use xlink:href="#CMR17-76" transform="translate(597.355696 0) scale(0.996264)"/>
       <use xlink:href="#CMR17-6f" transform="translate(643.046157 0) scale(0.996264)"/>
       <use xlink:href="#CMR17-74" transform="translate(688.736635 0) scale(0.996264)"/>
       <use xlink:href="#CMR17-69" transform="translate(724.017402 0) scale(0.996264)"/>
       <use xlink:href="#CMR17-6e" transform="translate(748.888461 0) scale(0.996264)"/>
       <use xlink:href="#CMR17-67" transform="translate(799.783831 0) scale(0.996264)"/>
      </g>
     </g>
    </g>
    <g id="text_6">
     <!-- Number of voters -->
     <g transform="translate(329.964678 414.361688) scale(0.13 -0.13)">
      <defs>
       <path id="CMR17-4e" d="M 1312 4250 
C 1267 4320 1261 4320 1139 4320 
L 326 4320 
L 326 4160 
L 448 4160 
C 704 4160 819 4129 838 4122 
L 838 610 
C 838 451 838 153 326 153 
L 326 -13 
C 474 0 742 0 902 0 
C 1062 0 1331 0 1478 -13 
L 1478 153 
C 966 153 966 451 966 610 
L 966 4033 
C 1011 3995 1011 3982 1056 3919 
L 3430 76 
C 3475 0 3494 0 3526 0 
C 3590 0 3590 19 3590 139 
L 3590 3705 
C 3590 3863 3590 4160 4102 4160 
L 4102 4326 
C 3955 4320 3686 4320 3526 4320 
C 3366 4320 3098 4320 2950 4326 
L 2950 4160 
C 3462 4160 3462 3862 3462 3703 
L 3462 763 
L 1312 4250 
z
" transform="scale(0.015625)"/>
       <path id="CMR17-6d" d="M 4326 1933 
C 4326 2252 4269 2790 3507 2790 
C 3072 2790 2771 2496 2656 2151 
L 2650 2151 
C 2573 2676 2195 2790 1837 2790 
C 1331 2790 1069 2400 973 2144 
L 966 2144 
L 966 2790 
L 211 2720 
L 211 2554 
C 589 2554 646 2515 646 2208 
L 646 428 
C 646 184 621 153 211 153 
L 211 -13 
C 365 0 646 0 813 0 
C 979 0 1267 0 1421 -13 
L 1421 153 
C 1011 153 986 178 986 428 
L 986 1658 
C 986 2247 1344 2688 1792 2688 
C 2266 2688 2317 2266 2317 1958 
L 2317 428 
C 2317 184 2291 153 1882 153 
L 1882 -13 
C 2035 0 2317 0 2483 0 
C 2650 0 2938 0 3091 -13 
L 3091 153 
C 2682 153 2656 178 2656 428 
L 2656 1658 
C 2656 2247 3014 2688 3462 2688 
C 3936 2688 3987 2266 3987 1958 
L 3987 428 
C 3987 184 3962 153 3552 153 
L 3552 -13 
C 3706 0 3987 0 4154 0 
C 4320 0 4608 0 4762 -13 
L 4762 153 
C 4352 153 4326 178 4326 428 
L 4326 1933 
z
" transform="scale(0.015625)"/>
       <path id="CMR17-62" d="M 960 4396 
L 198 4326 
L 198 4160 
C 576 4160 634 4122 634 3817 
L 634 -13 
L 749 -13 
L 934 441 
C 1120 141 1395 -64 1766 -64 
C 2406 -64 3053 500 3053 1370 
C 3053 2188 2477 2790 1830 2790 
C 1434 2790 1152 2579 960 2330 
L 960 4396 
z
M 973 2004 
C 973 2118 973 2138 1062 2272 
C 1312 2657 1670 2688 1792 2688 
C 1984 2688 2643 2585 2643 1376 
C 2643 108 1888 38 1734 38 
C 1536 38 1248 114 1043 486 
C 973 608 973 621 973 735 
L 973 2004 
z
" transform="scale(0.015625)"/>
       <path id="CMR17-66" d="M 979 2560 
L 1709 2560 
L 1709 2725 
L 966 2725 
L 966 3494 
C 966 4022 1235 4352 1510 4352 
C 1594 4352 1690 4327 1754 4282 
C 1702 4269 1568 4225 1568 4067 
C 1568 3901 1696 3850 1786 3850 
C 1875 3850 2003 3901 2003 4067 
C 2003 4308 1773 4454 1517 4454 
C 1152 4454 653 4156 653 3481 
L 653 2725 
L 141 2725 
L 141 2560 
L 653 2560 
L 653 427 
C 653 184 627 153 218 153 
L 218 -13 
C 371 0 666 0 832 0 
C 1018 0 1344 0 1517 -13 
L 1517 153 
C 1056 153 979 153 979 439 
L 979 2560 
z
" transform="scale(0.015625)"/>
      </defs>
      <use xlink:href="#CMR17-4e" transform="scale(0.996264)"/>
      <use xlink:href="#CMR17-75" transform="translate(69.07243 0) scale(0.996264)"/>
      <use xlink:href="#CMR17-6d" transform="translate(119.9678 0) scale(0.996264)"/>
      <use xlink:href="#CMR17-62" transform="translate(194.284936 0) scale(0.996264)"/>
      <use xlink:href="#CMR17-65" transform="translate(247.782744 0) scale(0.996264)"/>
      <use xlink:href="#CMR17-72" transform="translate(288.268404 0) scale(0.996264)"/>
      <use xlink:href="#CMR17-6f" transform="translate(353.625139 0) scale(0.996264)"/>
      <use xlink:href="#CMR17-66" transform="translate(399.315616 0) scale(0.996264)"/>
      <use xlink:href="#CMR17-76" transform="translate(456.865095 0) scale(0.996264)"/>
      <use xlink:href="#CMR17-6f" transform="translate(502.555556 0) scale(0.996264)"/>
      <use xlink:href="#CMR17-74" transform="translate(548.246034 0) scale(0.996264)"/>
      <use xlink:href="#CMR17-65" transform="translate(583.526801 0) scale(0.996264)"/>
      <use xlink:href="#CMR17-72" transform="translate(624.012462 0) scale(0.996264)"/>
      <use xlink:href="#CMR17-73" transform="translate(659.29323 0) scale(0.996264)"/>
     </g>
    </g>
   </g>
   <g id="matplotlib.axis_2">
    <g id="ytick_1">
     <g id="line2d_6">
      <path d="M 51.635416 368.512219 
L 704.88 368.512219 
" clip-path="url(#p042e6ddb9e)" style="fill: none; stroke: #b0b0b0; stroke-opacity: 0.3; stroke-linecap: square"/>
     </g>
     <g id="line2d_7">
      <defs>
       <path id="m47cc3eb81c" d="M 0 0 
L -3.5 0 
" style="stroke: #000000; stroke-width: 0.8"/>
      </defs>
      <g>
       <use xlink:href="#m47cc3eb81c" x="51.635416" y="368.512219" style="stroke: #000000; stroke-width: 0.8"/>
      </g>
     </g>
     <g id="text_7">
      <!-- $\mathdefault{1.0}$ -->
      <g transform="translate(30.63234 372.317392) scale(0.11 -0.11)">
       <defs>
        <path id="CMR17-31" d="M 1702 4058 
C 1702 4192 1696 4192 1606 4192 
C 1357 3916 979 3827 621 3827 
C 602 3827 570 3827 563 3808 
C 557 3795 557 3782 557 3648 
C 755 3648 1088 3686 1344 3839 
L 1344 461 
C 1344 236 1331 160 781 160 
L 589 160 
L 589 0 
C 896 0 1216 0 1523 0 
C 1830 0 2150 0 2458 0 
L 2458 160 
L 2266 160 
C 1715 160 1702 230 1702 458 
L 1702 4058 
z
" transform="scale(0.015625)"/>
        <path id="CMMI12-3a" d="M 1178 307 
C 1178 492 1024 619 870 619 
C 685 619 557 466 557 313 
C 557 128 710 0 864 0 
C 1050 0 1178 153 1178 307 
z
" transform="scale(0.015625)"/>
        <path id="CMR17-30" d="M 2688 2025 
C 2688 2416 2682 3080 2413 3591 
C 2176 4039 1798 4198 1466 4198 
C 1158 4198 768 4058 525 3597 
C 269 3118 243 2524 243 2025 
C 243 1661 250 1106 448 619 
C 723 -39 1216 -128 1466 -128 
C 1760 -128 2208 -7 2470 600 
C 2662 1042 2688 1559 2688 2025 
z
M 1466 -26 
C 1056 -26 813 325 723 812 
C 653 1188 653 1738 653 2096 
C 653 2588 653 2997 736 3387 
C 858 3929 1216 4096 1466 4096 
C 1728 4096 2067 3923 2189 3400 
C 2272 3036 2278 2607 2278 2096 
C 2278 1680 2278 1169 2202 792 
C 2067 95 1690 -26 1466 -26 
z
" transform="scale(0.015625)"/>
       </defs>
       <use xlink:href="#CMR17-31" transform="scale(0.996264)"/>
       <use xlink:href="#CMMI12-3a" transform="translate(45.690477 0) scale(0.996264)"/>
       <use xlink:href="#CMR17-30" transform="translate(72.787654 0) scale(0.996264)"/>
      </g>
     </g>
    </g>
    <g id="ytick_2">
     <g id="line2d_8">
      <path d="M 51.635416 320.209213 
L 704.88 320.209213 
" clip-path="url(#p042e6ddb9e)" style="fill: none; stroke: #b0b0b0; stroke-opacity: 0.3; stroke-linecap: square"/>
     </g>
     <g id="line2d_9">
      <g>
       <use xlink:href="#m47cc3eb81c" x="51.635416" y="320.209213" style="stroke: #000000; stroke-width: 0.8"/>
      </g>
     </g>
     <g id="text_8">
      <!-- $\mathdefault{1.1}$ -->
      <g transform="translate(30.63234 324.014386) scale(0.11 -0.11)">
       <use xlink:href="#CMR17-31" transform="scale(0.996264)"/>
       <use xlink:href="#CMMI12-3a" transform="translate(45.690477 0) scale(0.996264)"/>
       <use xlink:href="#CMR17-31" transform="translate(72.787654 0) scale(0.996264)"/>
      </g>
     </g>
    </g>
    <g id="ytick_3">
     <g id="line2d_10">
      <path d="M 51.635416 271.906207 
L 704.88 271.906207 
" clip-path="url(#p042e6ddb9e)" style="fill: none; stroke: #b0b0b0; stroke-opacity: 0.3; stroke-linecap: square"/>
     </g>
     <g id="line2d_11">
      <g>
       <use xlink:href="#m47cc3eb81c" x="51.635416" y="271.906207" style="stroke: #000000; stroke-width: 0.8"/>
      </g>
     </g>
     <g id="text_9">
      <!-- $\mathdefault{1.2}$ -->
      <g transform="translate(30.63234 275.71138) scale(0.11 -0.11)">
       <defs>
        <path id="CMR17-32" d="M 2669 989 
L 2554 989 
C 2490 536 2438 459 2413 420 
C 2381 369 1920 369 1830 369 
L 602 369 
C 832 619 1280 1072 1824 1597 
C 2214 1967 2669 2402 2669 3035 
C 2669 3790 2067 4224 1395 4224 
C 691 4224 262 3604 262 3030 
C 262 2780 448 2748 525 2748 
C 589 2748 781 2787 781 3010 
C 781 3207 614 3264 525 3264 
C 486 3264 448 3258 422 3245 
C 544 3790 915 4058 1306 4058 
C 1862 4058 2227 3617 2227 3035 
C 2227 2479 1901 2000 1536 1584 
L 262 146 
L 262 0 
L 2515 0 
L 2669 989 
z
" transform="scale(0.015625)"/>
       </defs>
       <use xlink:href="#CMR17-31" transform="scale(0.996264)"/>
       <use xlink:href="#CMMI12-3a" transform="translate(45.690477 0) scale(0.996264)"/>
       <use xlink:href="#CMR17-32" transform="translate(72.787654 0) scale(0.996264)"/>
      </g>
     </g>
    </g>
    <g id="ytick_4">
     <g id="line2d_12">
      <path d="M 51.635416 223.603201 
L 704.88 223.603201 
" clip-path="url(#p042e6ddb9e)" style="fill: none; stroke: #b0b0b0; stroke-opacity: 0.3; stroke-linecap: square"/>
     </g>
     <g id="line2d_13">
      <g>
       <use xlink:href="#m47cc3eb81c" x="51.635416" y="223.603201" style="stroke: #000000; stroke-width: 0.8"/>
      </g>
     </g>
     <g id="text_10">
      <!-- $\mathdefault{1.3}$ -->
      <g transform="translate(30.63234 227.408374) scale(0.11 -0.11)">
       <defs>
        <path id="CMR17-33" d="M 1414 2157 
C 1984 2157 2234 1662 2234 1090 
C 2234 320 1824 25 1453 25 
C 1114 25 563 194 390 693 
C 422 680 454 680 486 680 
C 640 680 755 782 755 948 
C 755 1133 614 1216 486 1216 
C 378 1216 211 1165 211 926 
C 211 335 787 -128 1466 -128 
C 2176 -128 2720 430 2720 1085 
C 2720 1707 2208 2157 1600 2227 
C 2086 2328 2554 2756 2554 3329 
C 2554 3820 2048 4179 1472 4179 
C 890 4179 378 3829 378 3329 
C 378 3110 544 3072 627 3072 
C 762 3072 877 3155 877 3321 
C 877 3486 762 3569 627 3569 
C 602 3569 570 3569 544 3557 
C 730 3959 1235 4032 1459 4032 
C 1683 4032 2106 3925 2106 3320 
C 2106 3143 2080 2828 1862 2550 
C 1670 2304 1453 2304 1242 2284 
C 1210 2284 1062 2269 1037 2269 
C 992 2263 966 2257 966 2208 
C 966 2163 973 2157 1101 2157 
L 1414 2157 
z
" transform="scale(0.015625)"/>
       </defs>
       <use xlink:href="#CMR17-31" transform="scale(0.996264)"/>
       <use xlink:href="#CMMI12-3a" transform="translate(45.690477 0) scale(0.996264)"/>
       <use xlink:href="#CMR17-33" transform="translate(72.787654 0) scale(0.996264)"/>
      </g>
     </g>
    </g>
    <g id="ytick_5">
     <g id="line2d_14">
      <path d="M 51.635416 175.300195 
L 704.88 175.300195 
" clip-path="url(#p042e6ddb9e)" style="fill: none; stroke: #b0b0b0; stroke-opacity: 0.3; stroke-linecap: square"/>
     </g>
     <g id="line2d_15">
      <g>
       <use xlink:href="#m47cc3eb81c" x="51.635416" y="175.300195" style="stroke: #000000; stroke-width: 0.8"/>
      </g>
     </g>
     <g id="text_11">
      <!-- $\mathdefault{1.4}$ -->
      <g transform="translate(30.63234 179.105368) scale(0.11 -0.11)">
       <defs>
        <path id="CMR17-34" d="M 2150 4122 
C 2150 4256 2144 4256 2029 4256 
L 128 1254 
L 128 1088 
L 1779 1088 
L 1779 457 
C 1779 224 1766 160 1318 160 
L 1197 160 
L 1197 0 
C 1402 0 1747 0 1965 0 
C 2182 0 2528 0 2733 0 
L 2733 160 
L 2611 160 
C 2163 160 2150 224 2150 457 
L 2150 1088 
L 2803 1088 
L 2803 1254 
L 2150 1254 
L 2150 4122 
z
M 1798 3703 
L 1798 1254 
L 256 1254 
L 1798 3703 
z
" transform="scale(0.015625)"/>
       </defs>
       <use xlink:href="#CMR17-31" transform="scale(0.996264)"/>
       <use xlink:href="#CMMI12-3a" transform="translate(45.690477 0) scale(0.996264)"/>
       <use xlink:href="#CMR17-34" transform="translate(72.787654 0) scale(0.996264)"/>
      </g>
     </g>
    </g>
    <g id="ytick_6">
     <g id="line2d_16">
      <path d="M 51.635416 126.997189 
L 704.88 126.997189 
" clip-path="url(#p042e6ddb9e)" style="fill: none; stroke: #b0b0b0; stroke-opacity: 0.3; stroke-linecap: square"/>
     </g>
     <g id="line2d_17">
      <g>
       <use xlink:href="#m47cc3eb81c" x="51.635416" y="126.997189" style="stroke: #000000; stroke-width: 0.8"/>
      </g>
     </g>
     <g id="text_12">
      <!-- $\mathdefault{1.5}$ -->
      <g transform="translate(30.63234 130.802362) scale(0.11 -0.11)">
       <defs>
        <path id="CMR17-35" d="M 730 3692 
C 794 3666 1056 3584 1325 3584 
C 1920 3584 2246 3911 2432 4100 
C 2432 4157 2432 4192 2394 4192 
C 2387 4192 2374 4192 2323 4163 
C 2099 4058 1837 3973 1517 3973 
C 1325 3973 1037 3999 723 4139 
C 653 4171 640 4171 634 4171 
C 602 4171 595 4164 595 4037 
L 595 2203 
C 595 2089 595 2057 659 2057 
C 691 2057 704 2070 736 2114 
C 941 2401 1222 2522 1542 2522 
C 1766 2522 2246 2382 2246 1289 
C 2246 1085 2246 715 2054 421 
C 1894 159 1645 25 1370 25 
C 947 25 518 320 403 814 
C 429 807 480 795 506 795 
C 589 795 749 840 749 1038 
C 749 1210 627 1280 506 1280 
C 358 1280 262 1190 262 1011 
C 262 454 704 -128 1382 -128 
C 2042 -128 2669 440 2669 1264 
C 2669 2030 2170 2624 1549 2624 
C 1222 2624 947 2503 730 2274 
L 730 3692 
z
" transform="scale(0.015625)"/>
       </defs>
       <use xlink:href="#CMR17-31" transform="scale(0.996264)"/>
       <use xlink:href="#CMMI12-3a" transform="translate(45.690477 0) scale(0.996264)"/>
       <use xlink:href="#CMR17-35" transform="translate(72.787654 0) scale(0.996264)"/>
      </g>
     </g>
    </g>
    <g id="ytick_7">
     <g id="line2d_18">
      <path d="M 51.635416 78.694183 
L 704.88 78.694183 
" clip-path="url(#p042e6ddb9e)" style="fill: none; stroke: #b0b0b0; stroke-opacity: 0.3; stroke-linecap: square"/>
     </g>
     <g id="line2d_19">
      <g>
       <use xlink:href="#m47cc3eb81c" x="51.635416" y="78.694183" style="stroke: #000000; stroke-width: 0.8"/>
      </g>
     </g>
     <g id="text_13">
      <!-- $\mathdefault{1.6}$ -->
      <g transform="translate(30.63234 82.499356) scale(0.11 -0.11)">
       <defs>
        <path id="CMR17-36" d="M 678 2176 
C 678 3690 1395 4032 1811 4032 
C 1946 4032 2272 4009 2400 3776 
C 2298 3776 2106 3776 2106 3553 
C 2106 3381 2246 3323 2336 3323 
C 2394 3323 2566 3348 2566 3560 
C 2566 3954 2246 4179 1805 4179 
C 1043 4179 243 3390 243 1984 
C 243 253 966 -128 1478 -128 
C 2099 -128 2688 427 2688 1283 
C 2688 2081 2170 2662 1517 2662 
C 1126 2662 838 2407 678 1960 
L 678 2176 
z
M 1478 25 
C 691 25 691 1200 691 1436 
C 691 1896 909 2560 1504 2560 
C 1613 2560 1926 2560 2138 2120 
C 2253 1870 2253 1609 2253 1289 
C 2253 944 2253 690 2118 434 
C 1978 171 1773 25 1478 25 
z
" transform="scale(0.015625)"/>
       </defs>
       <use xlink:href="#CMR17-31" transform="scale(0.996264)"/>
       <use xlink:href="#CMMI12-3a" transform="translate(45.690477 0) scale(0.996264)"/>
       <use xlink:href="#CMR17-36" transform="translate(72.787654 0) scale(0.996264)"/>
      </g>
     </g>
    </g>
    <g id="ytick_8">
     <g id="line2d_20">
      <path d="M 51.635416 30.391177 
L 704.88 30.391177 
" clip-path="url(#p042e6ddb9e)" style="fill: none; stroke: #b0b0b0; stroke-opacity: 0.3; stroke-linecap: square"/>
     </g>
     <g id="line2d_21">
      <g>
       <use xlink:href="#m47cc3eb81c" x="51.635416" y="30.391177" style="stroke: #000000; stroke-width: 0.8"/>
      </g>
     </g>
     <g id="text_14">
      <!-- $\mathdefault{1.7}$ -->
      <g transform="translate(30.63234 34.19635) scale(0.11 -0.11)">
       <defs>
        <path id="CMR17-37" d="M 2886 3941 
L 2886 4081 
L 1382 4081 
C 634 4081 621 4165 595 4288 
L 480 4288 
L 294 3094 
L 410 3094 
C 429 3215 474 3540 550 3661 
C 589 3712 1062 3712 1171 3712 
L 2579 3712 
L 1869 2661 
C 1395 1954 1069 999 1069 165 
C 1069 89 1069 -128 1299 -128 
C 1530 -128 1530 89 1530 171 
L 1530 465 
C 1530 1508 1709 2196 2003 2636 
L 2886 3941 
z
" transform="scale(0.015625)"/>
       </defs>
       <use xlink:href="#CMR17-31" transform="scale(0.996264)"/>
       <use xlink:href="#CMMI12-3a" transform="translate(45.690477 0) scale(0.996264)"/>
       <use xlink:href="#CMR17-37" transform="translate(72.787654 0) scale(0.996264)"/>
      </g>
     </g>
    </g>
    <g id="text_15">
     <!-- Distortion -->
     <g transform="translate(24.114028 235.497321) rotate(-90) scale(0.13 -0.13)">
      <defs>
       <path id="CMR17-44" d="M 333 4352 
L 333 4186 
C 774 4186 845 4186 845 3900 
L 845 452 
C 845 166 774 166 333 166 
L 333 0 
L 2368 0 
C 3398 0 4224 943 4224 2141 
C 4224 3346 3411 4352 2368 4352 
L 333 4352 
z
M 1523 166 
C 1267 166 1254 197 1254 414 
L 1254 3938 
C 1254 4155 1267 4186 1523 4186 
L 2240 4186 
C 2771 4186 3750 3874 3750 2141 
C 3750 1242 3488 879 3366 707 
C 3213 510 2848 166 2240 166 
L 1523 166 
z
" transform="scale(0.015625)"/>
      </defs>
      <use xlink:href="#CMR17-44" transform="scale(0.996264)"/>
      <use xlink:href="#CMR17-69" transform="translate(70.393556 0) scale(0.996264)"/>
      <use xlink:href="#CMR17-73" transform="translate(95.264614 0) scale(0.996264)"/>
      <use xlink:href="#CMR17-74" transform="translate(131.065952 0) scale(0.996264)"/>
      <use xlink:href="#CMR17-6f" transform="translate(166.34672 0) scale(0.996264)"/>
      <use xlink:href="#CMR17-72" transform="translate(212.037197 0) scale(0.996264)"/>
      <use xlink:href="#CMR17-74" transform="translate(247.317965 0) scale(0.996264)"/>
      <use xlink:href="#CMR17-69" transform="translate(282.598733 0) scale(0.996264)"/>
      <use xlink:href="#CMR17-6f" transform="translate(307.469791 0) scale(0.996264)"/>
      <use xlink:href="#CMR17-6e" transform="translate(353.160268 0) scale(0.996264)"/>
     </g>
    </g>
   </g>
   <g id="LineCollection_1">
    <path d="M 97.824427 352.075504 
L 130.816578 352.075504 
" clip-path="url(#p042e6ddb9e)" style="fill: none; stroke: #1f77b4; stroke-width: 1.5"/>
    <path d="M 229.79303 357.933924 
L 262.785181 357.933924 
" clip-path="url(#p042e6ddb9e)" style="fill: none; stroke: #1f77b4; stroke-width: 1.5"/>
    <path d="M 361.761633 337.418462 
L 394.753784 337.418462 
" clip-path="url(#p042e6ddb9e)" style="fill: none; stroke: #1f77b4; stroke-width: 1.5"/>
    <path d="M 493.730236 358.712242 
L 526.722386 358.712242 
" clip-path="url(#p042e6ddb9e)" style="fill: none; stroke: #1f77b4; stroke-width: 1.5"/>
    <path d="M 625.698838 347.771042 
L 658.690989 347.771042 
" clip-path="url(#p042e6ddb9e)" style="fill: none; stroke: #1f77b4; stroke-width: 1.5"/>
   </g>
   <g id="LineCollection_2">
    <path d="M 97.824427 100.675283 
L 130.816578 100.675283 
" clip-path="url(#p042e6ddb9e)" style="fill: none; stroke: #1f77b4; stroke-width: 1.5"/>
    <path d="M 229.79303 237.432148 
L 262.785181 237.432148 
" clip-path="url(#p042e6ddb9e)" style="fill: none; stroke: #1f77b4; stroke-width: 1.5"/>
    <path d="M 361.761633 64.795271 
L 394.753784 64.795271 
" clip-path="url(#p042e6ddb9e)" style="fill: none; stroke: #1f77b4; stroke-width: 1.5"/>
    <path d="M 493.730236 217.388779 
L 526.722386 217.388779 
" clip-path="url(#p042e6ddb9e)" style="fill: none; stroke: #1f77b4; stroke-width: 1.5"/>
    <path d="M 625.698838 46.228228 
L 658.690989 46.228228 
" clip-path="url(#p042e6ddb9e)" style="fill: none; stroke: #1f77b4; stroke-width: 1.5"/>
   </g>
   <g id="LineCollection_3">
    <path d="M 97.824427 368.512219 
L 130.816578 368.512219 
" clip-path="url(#p042e6ddb9e)" style="fill: none; stroke: #1f77b4; stroke-width: 1.5"/>
    <path d="M 229.79303 368.512219 
L 262.785181 368.512219 
" clip-path="url(#p042e6ddb9e)" style="fill: none; stroke: #1f77b4; stroke-width: 1.5"/>
    <path d="M 361.761633 368.512219 
L 394.753784 368.512219 
" clip-path="url(#p042e6ddb9e)" style="fill: none; stroke: #1f77b4; stroke-width: 1.5"/>
    <path d="M 493.730236 368.512219 
L 526.722386 368.512219 
" clip-path="url(#p042e6ddb9e)" style="fill: none; stroke: #1f77b4; stroke-width: 1.5"/>
    <path d="M 625.698838 368.512219 
L 658.690989 368.512219 
" clip-path="url(#p042e6ddb9e)" style="fill: none; stroke: #1f77b4; stroke-width: 1.5"/>
   </g>
   <g id="LineCollection_4">
    <path d="M 114.320503 368.512219 
L 114.320503 100.675283 
" clip-path="url(#p042e6ddb9e)" style="fill: none; stroke: #1f77b4; stroke-width: 1.5"/>
    <path d="M 246.289105 368.512219 
L 246.289105 237.432148 
" clip-path="url(#p042e6ddb9e)" style="fill: none; stroke: #1f77b4; stroke-width: 1.5"/>
    <path d="M 378.257708 368.512219 
L 378.257708 64.795271 
" clip-path="url(#p042e6ddb9e)" style="fill: none; stroke: #1f77b4; stroke-width: 1.5"/>
    <path d="M 510.226311 368.512219 
L 510.226311 217.388779 
" clip-path="url(#p042e6ddb9e)" style="fill: none; stroke: #1f77b4; stroke-width: 1.5"/>
    <path d="M 642.194914 368.512219 
L 642.194914 46.228228 
" clip-path="url(#p042e6ddb9e)" style="fill: none; stroke: #1f77b4; stroke-width: 1.5"/>
   </g>
   <g id="patch_3">
    <path d="M 51.635416 384.626418 
L 51.635416 30.114028 
" style="fill: none; stroke: #000000; stroke-linejoin: miter; stroke-linecap: square"/>
   </g>
   <g id="patch_4">
    <path d="M 704.88 384.626418 
L 704.88 30.114028 
" style="fill: none; stroke: #000000; stroke-linejoin: miter; stroke-linecap: square"/>
   </g>
   <g id="patch_5">
    <path d="M 51.635416 384.626418 
L 704.88 384.626418 
" style="fill: none; stroke: #000000; stroke-linejoin: miter; stroke-linecap: square"/>
   </g>
   <g id="patch_6">
    <path d="M 51.635416 30.114028 
L 704.88 30.114028 
" style="fill: none; stroke: #000000; stroke-linejoin: miter; stroke-linecap: square"/>
   </g>
   <g id="text_16">
    <!-- Distortion Under Utiliratian -->
    <g transform="translate(299.76145 24.114028) scale(0.13 -0.13)">
     <defs>
      <path id="CMR17-55" d="M 3456 1433 
C 3456 579 2899 38 2291 38 
C 1965 38 1670 210 1491 477 
C 1286 783 1261 1178 1261 1401 
L 1261 3874 
C 1261 4160 1331 4160 1773 4160 
L 1773 4320 
C 1587 4320 1248 4320 1050 4320 
C 851 4320 512 4320 326 4320 
L 326 4160 
C 768 4160 838 4160 838 3874 
L 838 1433 
C 838 516 1536 -128 2278 -128 
C 3110 -128 3590 719 3590 1344 
L 3590 3766 
C 3590 4122 3917 4160 4102 4160 
L 4102 4326 
C 3955 4320 3686 4320 3526 4320 
C 3366 4320 3091 4320 2944 4326 
L 2944 4160 
C 3456 4160 3456 3861 3456 3702 
L 3456 1433 
z
" transform="scale(0.015625)"/>
     </defs>
     <use xlink:href="#CMR17-44" transform="scale(0.996264)"/>
     <use xlink:href="#CMR17-69" transform="translate(70.393556 0) scale(0.996264)"/>
     <use xlink:href="#CMR17-73" transform="translate(95.264614 0) scale(0.996264)"/>
     <use xlink:href="#CMR17-74" transform="translate(131.065952 0) scale(0.996264)"/>
     <use xlink:href="#CMR17-6f" transform="translate(166.34672 0) scale(0.996264)"/>
     <use xlink:href="#CMR17-72" transform="translate(212.037197 0) scale(0.996264)"/>
     <use xlink:href="#CMR17-74" transform="translate(247.317965 0) scale(0.996264)"/>
     <use xlink:href="#CMR17-69" transform="translate(282.598733 0) scale(0.996264)"/>
     <use xlink:href="#CMR17-6f" transform="translate(307.469791 0) scale(0.996264)"/>
     <use xlink:href="#CMR17-6e" transform="translate(353.160268 0) scale(0.996264)"/>
     <use xlink:href="#CMR17-55" transform="translate(434.131604 0) scale(0.996264)"/>
     <use xlink:href="#CMR17-6e" transform="translate(503.204034 0) scale(0.996264)"/>
     <use xlink:href="#CMR17-64" transform="translate(554.099404 0) scale(0.996264)"/>
     <use xlink:href="#CMR17-65" transform="translate(604.994774 0) scale(0.996264)"/>
     <use xlink:href="#CMR17-72" transform="translate(645.480434 0) scale(0.996264)"/>
     <use xlink:href="#CMR17-55" transform="translate(710.837168 0) scale(0.996264)"/>
     <use xlink:href="#CMR17-74" transform="translate(779.909598 0) scale(0.996264)"/>
     <use xlink:href="#CMR17-69" transform="translate(815.190366 0) scale(0.996264)"/>
     <use xlink:href="#CMR17-6c" transform="translate(840.061424 0) scale(0.996264)"/>
     <use xlink:href="#CMR17-69" transform="translate(864.932483 0) scale(0.996264)"/>
     <use xlink:href="#CMR17-72" transform="translate(889.803541 0) scale(0.996264)"/>
     <use xlink:href="#CMR17-61" transform="translate(925.084309 0) scale(0.996264)"/>
     <use xlink:href="#CMR17-74" transform="translate(970.774786 0) scale(0.996264)"/>
     <use xlink:href="#CMR17-69" transform="translate(1006.055554 0) scale(0.996264)"/>
     <use xlink:href="#CMR17-61" transform="translate(1030.926612 0) scale(0.996264)"/>
     <use xlink:href="#CMR17-6e" transform="translate(1076.61709 0) scale(0.996264)"/>
    </g>
   </g>
  </g>
 </g>
 <defs>
  <clipPath id="p042e6ddb9e">
   <rect x="51.635416" y="30.114028" width="653.244584" height="354.51239"/>
  </clipPath>
 </defs>
</svg>
