<?xml version="1.0" encoding="utf-8" standalone="no"?>
<!DOCTYPE svg PUBLIC "-//W3C//DTD SVG 1.1//EN"
  "http://www.w3.org/Graphics/SVG/1.1/DTD/svg11.dtd">
<svg xmlns:xlink="http://www.w3.org/1999/xlink" width="720pt" height="432pt" viewBox="0 0 720 432" xmlns="http://www.w3.org/2000/svg" version="1.1">
 <metadata>
  <rdf:RDF xmlns:dc="http://purl.org/dc/elements/1.1/" xmlns:cc="http://creativecommons.org/ns#" xmlns:rdf="http://www.w3.org/1999/02/22-rdf-syntax-ns#">
   <cc:Work>
    <dc:type rdf:resource="http://purl.org/dc/dcmitype/StillImage"/>
    <dc:date>2024-12-05T20:29:47.579098</dc:date>
    <dc:format>image/svg+xml</dc:format>
    <dc:creator>
     <cc:Agent>
      <dc:title>Matplotlib v3.9.2, https://matplotlib.org/</dc:title>
     </cc:Agent>
    </dc:creator>
   </cc:Work>
  </rdf:RDF>
 </metadata>
 <defs>
  <style type="text/css">*{stroke-linejoin: round; stroke-linecap: butt}</style>
 </defs>
 <g id="figure_1">
  <g id="patch_1">
   <path d="M 0 432 
L 720 432 
L 720 0 
L 0 0 
z
" style="fill: #ffffff"/>
  </g>
  <g id="axes_1">
   <g id="patch_2">
    <path d="M 51.635416 384.626418 
L 704.88 384.626418 
L 704.88 30.114028 
L 51.635416 30.114028 
z
" style="fill: #ffffff"/>
   </g>
   <g id="PolyCollection_1">
    <defs>
     <path id="m5ee050649b" d="M 163.849264 -63.487781 
L 83.644399 -63.487781 
L 82.446578 -65.557546 
L 81.677593 -67.62731 
L 81.328352 -69.697075 
L 81.371336 -71.76684 
L 81.763614 -73.836604 
L 82.450878 -75.906369 
L 83.372053 -77.976133 
L 84.463977 -80.045898 
L 85.665718 -82.115663 
L 86.922145 -84.185427 
L 88.186527 -86.255192 
L 89.422044 -88.324956 
L 90.60224 -90.394721 
L 91.710555 -92.464486 
L 92.739143 -94.53425 
L 93.687227 -96.604015 
L 94.559222 -98.673779 
L 95.362864 -100.743544 
L 96.107497 -102.813309 
L 96.80264 -104.883073 
L 97.456896 -106.952838 
L 98.077206 -109.022602 
L 98.668441 -111.092367 
L 99.233283 -113.162132 
L 99.772334 -115.231896 
L 100.284411 -117.301661 
L 100.766972 -119.371425 
L 101.216622 -121.44119 
L 101.629668 -123.510955 
L 102.002677 -125.580719 
L 102.333026 -127.650484 
L 102.619392 -129.720248 
L 102.862166 -131.790013 
L 103.06376 -133.859778 
L 103.228793 -135.929542 
L 103.36412 -137.999307 
L 103.47871 -140.069071 
L 103.583362 -142.138836 
L 103.690271 -144.208601 
L 103.812465 -146.278365 
L 103.963134 -148.34813 
L 104.15491 -150.417894 
L 104.399127 -152.487659 
L 104.705132 -154.557424 
L 105.079686 -156.627188 
L 105.526518 -158.696953 
L 106.046066 -160.766717 
L 106.635438 -162.836482 
L 107.288592 -164.906247 
L 107.996736 -166.976011 
L 108.748905 -169.045776 
L 109.532674 -171.11554 
L 110.334928 -173.185305 
L 111.142635 -175.25507 
L 111.943546 -177.324834 
L 112.72677 -179.394599 
L 113.48317 -181.464363 
L 114.20559 -183.534128 
L 114.888882 -185.603893 
L 115.529791 -187.673657 
L 116.126712 -189.743422 
L 116.679388 -191.813187 
L 117.188573 -193.882951 
L 117.655732 -195.952716 
L 118.08278 -198.02248 
L 118.471893 -200.092245 
L 118.825389 -202.16201 
L 119.145671 -204.231774 
L 119.435203 -206.301539 
L 119.696521 -208.371303 
L 119.93223 -210.441068 
L 120.144993 -212.510833 
L 120.337493 -214.580597 
L 120.512366 -216.650362 
L 120.672118 -218.720126 
L 120.819019 -220.789891 
L 120.955007 -222.859656 
L 121.081604 -224.92942 
L 121.199856 -226.999185 
L 121.310318 -229.068949 
L 121.413082 -231.138714 
L 121.507847 -233.208479 
L 121.594042 -235.278243 
L 121.670976 -237.348008 
L 121.738013 -239.417772 
L 121.794754 -241.487537 
L 121.841201 -243.557302 
L 121.877887 -245.627066 
L 121.905957 -247.696831 
L 121.927185 -249.766595 
L 121.943915 -251.83636 
L 121.958944 -253.906125 
L 121.975331 -255.975889 
L 121.996178 -258.045654 
L 122.024386 -260.115418 
L 122.062417 -262.185183 
L 122.112091 -264.254948 
L 122.174438 -266.324712 
L 122.249621 -268.394477 
L 125.244042 -268.394477 
L 125.244042 -268.394477 
L 125.319225 -266.324712 
L 125.381572 -264.254948 
L 125.431246 -262.185183 
L 125.469277 -260.115418 
L 125.497485 -258.045654 
L 125.518332 -255.975889 
L 125.534719 -253.906125 
L 125.549748 -251.83636 
L 125.566478 -249.766595 
L 125.587706 -247.696831 
L 125.615776 -245.627066 
L 125.652462 -243.557302 
L 125.698909 -241.487537 
L 125.75565 -239.417772 
L 125.822687 -237.348008 
L 125.899621 -235.278243 
L 125.985816 -233.208479 
L 126.080581 -231.138714 
L 126.183345 -229.068949 
L 126.293807 -226.999185 
L 126.412059 -224.92942 
L 126.538656 -222.859656 
L 126.674644 -220.789891 
L 126.821545 -218.720126 
L 126.981297 -216.650362 
L 127.15617 -214.580597 
L 127.34867 -212.510833 
L 127.561433 -210.441068 
L 127.797142 -208.371303 
L 128.05846 -206.301539 
L 128.347992 -204.231774 
L 128.668274 -202.16201 
L 129.02177 -200.092245 
L 129.410883 -198.02248 
L 129.837931 -195.952716 
L 130.30509 -193.882951 
L 130.814275 -191.813187 
L 131.366951 -189.743422 
L 131.963872 -187.673657 
L 132.604781 -185.603893 
L 133.288073 -183.534128 
L 134.010493 -181.464363 
L 134.766893 -179.394599 
L 135.550117 -177.324834 
L 136.351028 -175.25507 
L 137.158735 -173.185305 
L 137.960989 -171.11554 
L 138.744758 -169.045776 
L 139.496927 -166.976011 
L 140.205071 -164.906247 
L 140.858225 -162.836482 
L 141.447597 -160.766717 
L 141.967145 -158.696953 
L 142.413977 -156.627188 
L 142.788531 -154.557424 
L 143.094536 -152.487659 
L 143.338753 -150.417894 
L 143.530529 -148.34813 
L 143.681198 -146.278365 
L 143.803392 -144.208601 
L 143.910301 -142.138836 
L 144.014953 -140.069071 
L 144.129543 -137.999307 
L 144.26487 -135.929542 
L 144.429903 -133.859778 
L 144.631497 -131.790013 
L 144.874271 -129.720248 
L 145.160637 -127.650484 
L 145.490986 -125.580719 
L 145.863995 -123.510955 
L 146.277041 -121.44119 
L 146.726691 -119.371425 
L 147.209252 -117.301661 
L 147.721329 -115.231896 
L 148.26038 -113.162132 
L 148.825222 -111.092367 
L 149.416457 -109.022602 
L 150.036767 -106.952838 
L 150.691023 -104.883073 
L 151.386166 -102.813309 
L 152.130799 -100.743544 
L 152.934441 -98.673779 
L 153.806436 -96.604015 
L 154.75452 -94.53425 
L 155.783108 -92.464486 
L 156.891423 -90.394721 
L 158.071619 -88.324956 
L 159.307136 -86.255192 
L 160.571518 -84.185427 
L 161.827945 -82.115663 
L 163.029686 -80.045898 
L 164.12161 -77.976133 
L 165.042785 -75.906369 
L 165.730049 -73.836604 
L 166.122327 -71.76684 
L 166.165311 -69.697075 
L 165.81607 -67.62731 
L 165.047085 -65.557546 
L 163.849264 -63.487781 
z
" style="stroke: #000000; stroke-opacity: 0.7"/>
    </defs>
    <g clip-path="url(#p332fe40a8c)">
     <use xlink:href="#m5ee050649b" x="0" y="432" style="fill: #440154; fill-opacity: 0.7; stroke: #000000; stroke-opacity: 0.7"/>
    </g>
   </g>
   <g id="PolyCollection_2">
    <defs>
     <path id="ma2ce889a7c" d="M 332.929268 -63.487781 
L 253.912231 -63.487781 
L 252.56732 -65.98148 
L 251.638888 -68.475179 
L 251.12401 -70.968878 
L 251.00227 -73.462577 
L 251.238473 -75.956276 
L 251.786253 -78.449975 
L 252.59213 -80.943674 
L 253.599555 -83.437373 
L 254.752552 -85.931072 
L 255.998647 -88.424771 
L 257.290949 -90.91847 
L 258.589334 -93.41217 
L 259.860854 -95.905869 
L 261.079533 -98.399568 
L 262.225776 -100.893267 
L 263.285604 -103.386966 
L 264.249897 -105.880665 
L 265.113743 -108.374364 
L 265.875961 -110.868063 
L 266.538761 -113.361762 
L 267.107501 -115.855461 
L 267.590441 -118.34916 
L 267.998436 -120.842859 
L 268.344487 -123.336558 
L 268.643156 -125.830257 
L 268.909836 -128.323956 
L 269.159937 -130.817655 
L 269.408055 -133.311354 
L 269.667205 -135.805053 
L 269.948188 -138.298752 
L 270.259153 -140.792451 
L 270.60537 -143.28615 
L 270.989237 -145.779849 
L 271.410476 -148.273548 
L 271.866496 -150.767247 
L 272.352865 -153.260946 
L 272.863843 -155.754645 
L 273.392939 -158.248344 
L 273.933453 -160.742043 
L 274.478975 -163.235742 
L 275.023829 -165.729442 
L 275.563449 -168.223141 
L 276.094654 -170.71684 
L 276.615827 -173.210539 
L 277.126966 -175.704238 
L 277.629609 -178.197937 
L 278.126606 -180.691636 
L 278.621782 -183.185335 
L 279.119482 -185.679034 
L 279.624065 -188.172733 
L 280.139385 -190.666432 
L 280.66833 -193.160131 
L 281.212463 -195.65383 
L 281.771818 -198.147529 
L 282.34486 -200.641228 
L 282.928624 -203.134927 
L 283.519002 -205.628626 
L 284.111121 -208.122325 
L 284.699776 -210.616024 
L 285.279847 -213.109723 
L 285.846637 -215.603422 
L 286.396117 -218.097121 
L 286.925036 -220.59082 
L 287.430906 -223.084519 
L 287.911892 -225.578218 
L 288.36663 -228.071917 
L 288.794017 -230.565616 
L 289.193029 -233.059315 
L 289.562576 -235.553015 
L 289.901437 -238.046714 
L 290.208277 -240.540413 
L 290.481731 -243.034112 
L 290.720555 -245.527811 
L 290.923805 -248.02151 
L 291.091027 -250.515209 
L 291.222429 -253.008908 
L 291.319013 -255.502607 
L 291.382657 -257.996306 
L 291.416137 -260.490005 
L 291.423077 -262.983704 
L 291.40785 -265.477403 
L 291.375421 -267.971102 
L 291.331152 -270.464801 
L 291.280573 -272.9585 
L 291.229148 -275.452199 
L 291.182038 -277.945898 
L 291.143887 -280.439597 
L 291.118631 -282.933296 
L 291.109369 -285.426995 
L 291.118264 -287.920694 
L 291.146522 -290.414393 
L 291.19441 -292.908092 
L 291.261333 -295.401791 
L 291.345944 -297.89549 
L 291.446281 -300.389189 
L 291.559925 -302.882888 
L 291.68415 -305.376587 
L 291.816071 -307.870287 
L 291.952776 -310.363986 
L 294.888722 -310.363986 
L 294.888722 -310.363986 
L 295.025428 -307.870287 
L 295.157349 -305.376587 
L 295.281574 -302.882888 
L 295.395218 -300.389189 
L 295.495555 -297.89549 
L 295.580165 -295.401791 
L 295.647088 -292.908092 
L 295.694977 -290.414393 
L 295.723235 -287.920694 
L 295.73213 -285.426995 
L 295.722867 -282.933296 
L 295.697612 -280.439597 
L 295.65946 -277.945898 
L 295.612351 -275.452199 
L 295.560926 -272.9585 
L 295.510346 -270.464801 
L 295.466077 -267.971102 
L 295.433649 -265.477403 
L 295.418422 -262.983704 
L 295.425362 -260.490005 
L 295.458841 -257.996306 
L 295.522486 -255.502607 
L 295.61907 -253.008908 
L 295.750471 -250.515209 
L 295.917693 -248.02151 
L 296.120943 -245.527811 
L 296.359767 -243.034112 
L 296.633221 -240.540413 
L 296.940061 -238.046714 
L 297.278923 -235.553015 
L 297.648469 -233.059315 
L 298.047481 -230.565616 
L 298.474869 -228.071917 
L 298.929606 -225.578218 
L 299.410593 -223.084519 
L 299.916463 -220.59082 
L 300.445382 -218.097121 
L 300.994862 -215.603422 
L 301.561652 -213.109723 
L 302.141722 -210.616024 
L 302.730378 -208.122325 
L 303.322497 -205.628626 
L 303.912874 -203.134927 
L 304.496639 -200.641228 
L 305.069681 -198.147529 
L 305.629035 -195.65383 
L 306.173169 -193.160131 
L 306.702114 -190.666432 
L 307.217434 -188.172733 
L 307.722016 -185.679034 
L 308.219716 -183.185335 
L 308.714893 -180.691636 
L 309.21189 -178.197937 
L 309.714532 -175.704238 
L 310.225672 -173.210539 
L 310.746844 -170.71684 
L 311.278049 -168.223141 
L 311.817669 -165.729442 
L 312.362524 -163.235742 
L 312.908045 -160.742043 
L 313.448559 -158.248344 
L 313.977656 -155.754645 
L 314.488634 -153.260946 
L 314.975002 -150.767247 
L 315.431022 -148.273548 
L 315.852261 -145.779849 
L 316.236128 -143.28615 
L 316.582346 -140.792451 
L 316.89331 -138.298752 
L 317.174294 -135.805053 
L 317.433444 -133.311354 
L 317.681562 -130.817655 
L 317.931663 -128.323956 
L 318.198343 -125.830257 
L 318.497012 -123.336558 
L 318.843063 -120.842859 
L 319.251057 -118.34916 
L 319.733998 -115.855461 
L 320.302738 -113.361762 
L 320.965538 -110.868063 
L 321.727755 -108.374364 
L 322.591602 -105.880665 
L 323.555894 -103.386966 
L 324.615723 -100.893267 
L 325.761966 -98.399568 
L 326.980645 -95.905869 
L 328.252165 -93.41217 
L 329.55055 -90.91847 
L 330.842852 -88.424771 
L 332.088947 -85.931072 
L 333.241943 -83.437373 
L 334.249369 -80.943674 
L 335.055245 -78.449975 
L 335.603025 -75.956276 
L 335.839229 -73.462577 
L 335.717489 -70.968878 
L 335.202611 -68.475179 
L 334.274179 -65.98148 
L 332.929268 -63.487781 
z
" style="stroke: #000000; stroke-opacity: 0.7"/>
    </defs>
    <g clip-path="url(#p332fe40a8c)">
     <use xlink:href="#ma2ce889a7c" x="0" y="432" style="fill: #31688e; fill-opacity: 0.7; stroke: #000000; stroke-opacity: 0.7"/>
    </g>
   </g>
   <g id="PolyCollection_3">
    <defs>
     <path id="m9c8520ef47" d="M 497.043583 -63.487781 
L 429.145751 -63.487781 
L 427.199373 -66.743175 
L 425.537497 -69.998569 
L 424.16523 -73.253963 
L 423.072095 -76.509357 
L 422.234779 -79.76475 
L 421.620973 -83.020144 
L 421.193753 -86.275538 
L 420.915944 -89.530932 
L 420.75391 -92.786326 
L 420.680401 -96.04172 
L 420.676188 -99.297113 
L 420.730456 -102.552507 
L 420.840062 -105.807901 
L 421.007909 -109.063295 
L 421.240767 -112.318689 
L 421.546905 -115.574083 
L 421.933847 -118.829477 
L 422.406528 -122.08487 
L 422.966018 -125.340264 
L 423.608904 -128.595658 
L 424.327306 -131.851052 
L 425.109451 -135.106446 
L 425.940674 -138.36184 
L 426.804686 -141.617234 
L 427.684926 -144.872627 
L 428.565873 -148.128021 
L 429.434175 -151.383415 
L 430.279498 -154.638809 
L 431.095063 -157.894203 
L 431.877833 -161.149597 
L 432.628372 -164.40499 
L 433.350415 -167.660384 
L 434.050211 -170.915778 
L 434.735707 -174.171172 
L 435.415656 -177.426566 
L 436.098728 -180.68196 
L 436.792694 -183.937354 
L 437.503751 -187.192747 
L 438.236025 -190.448141 
L 438.99128 -193.703535 
L 439.768842 -196.958929 
L 440.565717 -200.214323 
L 441.376876 -203.469717 
L 442.195653 -206.725111 
L 443.01423 -209.980504 
L 443.824142 -213.235898 
L 444.61678 -216.491292 
L 445.38387 -219.746686 
L 446.1179 -223.00208 
L 446.812517 -226.257474 
L 447.462868 -229.512867 
L 448.065909 -232.768261 
L 448.620645 -236.023655 
L 449.128309 -239.279049 
L 449.592418 -242.534443 
L 450.018692 -245.789837 
L 450.414797 -249.045231 
L 450.789889 -252.300624 
L 451.153977 -255.556018 
L 451.517137 -258.811412 
L 451.888651 -262.066806 
L 452.276165 -265.3222 
L 452.684987 -268.577594 
L 453.117597 -271.832988 
L 453.573487 -275.088381 
L 454.049326 -278.343775 
L 454.539468 -281.599169 
L 455.036714 -284.854563 
L 455.533234 -288.109957 
L 456.021509 -291.365351 
L 456.49516 -294.620744 
L 456.949559 -297.876138 
L 457.382135 -301.131532 
L 457.792358 -304.386926 
L 458.181439 -307.64232 
L 458.551792 -310.897714 
L 458.906392 -314.153108 
L 459.248106 -317.408501 
L 459.579126 -320.663895 
L 459.900555 -323.919289 
L 460.212211 -327.174683 
L 460.512643 -330.430077 
L 460.799341 -333.685471 
L 461.069083 -336.940865 
L 461.31837 -340.196258 
L 461.54388 -343.451652 
L 461.742878 -346.707046 
L 461.913551 -349.96244 
L 462.055229 -353.217834 
L 462.168483 -356.473228 
L 462.255108 -359.728622 
L 462.317985 -362.984015 
L 462.36087 -366.239409 
L 462.388111 -369.494803 
L 462.40433 -372.750197 
L 462.414106 -376.005591 
L 462.42167 -379.260985 
L 462.430655 -382.516378 
L 462.4439 -385.771772 
L 463.745435 -385.771772 
L 463.745435 -385.771772 
L 463.758679 -382.516378 
L 463.767664 -379.260985 
L 463.775228 -376.005591 
L 463.785004 -372.750197 
L 463.801223 -369.494803 
L 463.828464 -366.239409 
L 463.87135 -362.984015 
L 463.934227 -359.728622 
L 464.020851 -356.473228 
L 464.134106 -353.217834 
L 464.275783 -349.96244 
L 464.446457 -346.707046 
L 464.645455 -343.451652 
L 464.870964 -340.196258 
L 465.120252 -336.940865 
L 465.389993 -333.685471 
L 465.676691 -330.430077 
L 465.977123 -327.174683 
L 466.288779 -323.919289 
L 466.610208 -320.663895 
L 466.941228 -317.408501 
L 467.282943 -314.153108 
L 467.637542 -310.897714 
L 468.007896 -307.64232 
L 468.396976 -304.386926 
L 468.807199 -301.131532 
L 469.239775 -297.876138 
L 469.694174 -294.620744 
L 470.167825 -291.365351 
L 470.6561 -288.109957 
L 471.15262 -284.854563 
L 471.649866 -281.599169 
L 472.140008 -278.343775 
L 472.615847 -275.088381 
L 473.071737 -271.832988 
L 473.504347 -268.577594 
L 473.913169 -265.3222 
L 474.300684 -262.066806 
L 474.672197 -258.811412 
L 475.035357 -255.556018 
L 475.399445 -252.300624 
L 475.774537 -249.045231 
L 476.170642 -245.789837 
L 476.596916 -242.534443 
L 477.061025 -239.279049 
L 477.568689 -236.023655 
L 478.123425 -232.768261 
L 478.726466 -229.512867 
L 479.376817 -226.257474 
L 480.071434 -223.00208 
L 480.805464 -219.746686 
L 481.572554 -216.491292 
L 482.365193 -213.235898 
L 483.175104 -209.980504 
L 483.993681 -206.725111 
L 484.812459 -203.469717 
L 485.623617 -200.214323 
L 486.420493 -196.958929 
L 487.198054 -193.703535 
L 487.953309 -190.448141 
L 488.685583 -187.192747 
L 489.39664 -183.937354 
L 490.090606 -180.68196 
L 490.773678 -177.426566 
L 491.453627 -174.171172 
L 492.139123 -170.915778 
L 492.838919 -167.660384 
L 493.560962 -164.40499 
L 494.311501 -161.149597 
L 495.094271 -157.894203 
L 495.909836 -154.638809 
L 496.755159 -151.383415 
L 497.623461 -148.128021 
L 498.504409 -144.872627 
L 499.384648 -141.617234 
L 500.24866 -138.36184 
L 501.079884 -135.106446 
L 501.862028 -131.851052 
L 502.58043 -128.595658 
L 503.223316 -125.340264 
L 503.782807 -122.08487 
L 504.255487 -118.829477 
L 504.642429 -115.574083 
L 504.948567 -112.318689 
L 505.181425 -109.063295 
L 505.349272 -105.807901 
L 505.458878 -102.552507 
L 505.513147 -99.297113 
L 505.508933 -96.04172 
L 505.435424 -92.786326 
L 505.27339 -89.530932 
L 504.995581 -86.275538 
L 504.568362 -83.020144 
L 503.954555 -79.76475 
L 503.117239 -76.509357 
L 502.024104 -73.253963 
L 500.651838 -69.998569 
L 498.989961 -66.743175 
L 497.043583 -63.487781 
z
" style="stroke: #000000; stroke-opacity: 0.7"/>
    </defs>
    <g clip-path="url(#p332fe40a8c)">
     <use xlink:href="#m9c8520ef47" x="0" y="432" style="fill: #35b779; fill-opacity: 0.7; stroke: #000000; stroke-opacity: 0.7"/>
    </g>
   </g>
   <g id="PolyCollection_4">
    <defs>
     <path id="m878a3a0ec6" d="M 672.307507 -63.487781 
L 593.229663 -63.487781 
L 591.477958 -66.518287 
L 590.532526 -69.548792 
L 590.350105 -72.579298 
L 590.826665 -75.609803 
L 591.817854 -78.640309 
L 593.163353 -81.670815 
L 594.710084 -84.70132 
L 596.330018 -87.731826 
L 597.930121 -90.762331 
L 599.454026 -93.792837 
L 600.876948 -96.823343 
L 602.196492 -99.853848 
L 603.422404 -102.884354 
L 604.567788 -105.914859 
L 605.643401 -108.945365 
L 606.655463 -111.97587 
L 607.60644 -115.006376 
L 608.497635 -118.036882 
L 609.332206 -121.067387 
L 610.117428 -124.097893 
L 610.86548 -127.128398 
L 611.592539 -130.158904 
L 612.316525 -133.18941 
L 613.054139 -136.219915 
L 613.818001 -139.250421 
L 614.614596 -142.280926 
L 615.443517 -145.311432 
L 616.298112 -148.341937 
L 617.167339 -151.372443 
L 618.038274 -154.402949 
L 618.898647 -157.433454 
L 619.738779 -160.46396 
L 620.552488 -163.494465 
L 621.33688 -166.524971 
L 622.091241 -169.555477 
L 622.815503 -172.585982 
L 623.508848 -175.616488 
L 624.168928 -178.646993 
L 624.791935 -181.677499 
L 625.373463 -184.708004 
L 625.909857 -187.73851 
L 626.399571 -190.769016 
L 626.844109 -193.799521 
L 627.24824 -196.830027 
L 627.619432 -199.860532 
L 627.966667 -202.891038 
L 628.298974 -205.921544 
L 628.624033 -208.952049 
L 628.947182 -211.982555 
L 629.270981 -215.01306 
L 629.595338 -218.043566 
L 629.918055 -221.074071 
L 630.235587 -224.104577 
L 630.543801 -227.135083 
L 630.838579 -230.165588 
L 631.116204 -233.196094 
L 631.373536 -236.226599 
L 631.608045 -239.257105 
L 631.817773 -242.287611 
L 632.00128 -245.318116 
L 632.157609 -248.348622 
L 632.286252 -251.379127 
L 632.387131 -254.409633 
L 632.460546 -257.440139 
L 632.507144 -260.470644 
L 632.527891 -263.50115 
L 632.524095 -266.531655 
L 632.497506 -269.562161 
L 632.450468 -272.592666 
L 632.386108 -275.623172 
L 632.308496 -278.653678 
L 632.222704 -281.684183 
L 632.134694 -284.714689 
L 632.051008 -287.745194 
L 631.978265 -290.7757 
L 631.922518 -293.806206 
L 631.888587 -296.836711 
L 631.87947 -299.867217 
L 631.89596 -302.897722 
L 631.936538 -305.928228 
L 631.997568 -308.958733 
L 632.073757 -311.989239 
L 632.158795 -315.019745 
L 632.246061 -318.05025 
L 632.329278 -321.080756 
L 632.403044 -324.111261 
L 632.463184 -327.141767 
L 632.50692 -330.172273 
L 632.532914 -333.202778 
L 632.541205 -336.233284 
L 632.533098 -339.263789 
L 632.511035 -342.294295 
L 632.478421 -345.3248 
L 632.439414 -348.355306 
L 632.398631 -351.385812 
L 632.360781 -354.416317 
L 632.330233 -357.446823 
L 632.310568 -360.477328 
L 632.304196 -363.507834 
L 633.232974 -363.507834 
L 633.232974 -363.507834 
L 633.226602 -360.477328 
L 633.206937 -357.446823 
L 633.176389 -354.416317 
L 633.138539 -351.385812 
L 633.097756 -348.355306 
L 633.058749 -345.3248 
L 633.026135 -342.294295 
L 633.004072 -339.263789 
L 632.995965 -336.233284 
L 633.004255 -333.202778 
L 633.03025 -330.172273 
L 633.073986 -327.141767 
L 633.134126 -324.111261 
L 633.207892 -321.080756 
L 633.291109 -318.05025 
L 633.378375 -315.019745 
L 633.463413 -311.989239 
L 633.539602 -308.958733 
L 633.600632 -305.928228 
L 633.64121 -302.897722 
L 633.6577 -299.867217 
L 633.648583 -296.836711 
L 633.614652 -293.806206 
L 633.558905 -290.7757 
L 633.486161 -287.745194 
L 633.402476 -284.714689 
L 633.314466 -281.684183 
L 633.228674 -278.653678 
L 633.151062 -275.623172 
L 633.086702 -272.592666 
L 633.039664 -269.562161 
L 633.013075 -266.531655 
L 633.009279 -263.50115 
L 633.030025 -260.470644 
L 633.076624 -257.440139 
L 633.150039 -254.409633 
L 633.250917 -251.379127 
L 633.379561 -248.348622 
L 633.53589 -245.318116 
L 633.719397 -242.287611 
L 633.929125 -239.257105 
L 634.163634 -236.226599 
L 634.420966 -233.196094 
L 634.698591 -230.165588 
L 634.993368 -227.135083 
L 635.301582 -224.104577 
L 635.619115 -221.074071 
L 635.941832 -218.043566 
L 636.266189 -215.01306 
L 636.589988 -211.982555 
L 636.913137 -208.952049 
L 637.238195 -205.921544 
L 637.570502 -202.891038 
L 637.917738 -199.860532 
L 638.28893 -196.830027 
L 638.693061 -193.799521 
L 639.137599 -190.769016 
L 639.627313 -187.73851 
L 640.163707 -184.708004 
L 640.745235 -181.677499 
L 641.368242 -178.646993 
L 642.028322 -175.616488 
L 642.721667 -172.585982 
L 643.445929 -169.555477 
L 644.20029 -166.524971 
L 644.984682 -163.494465 
L 645.798391 -160.46396 
L 646.638523 -157.433454 
L 647.498896 -154.402949 
L 648.36983 -151.372443 
L 649.239057 -148.341937 
L 650.093653 -145.311432 
L 650.922573 -142.280926 
L 651.719169 -139.250421 
L 652.483031 -136.219915 
L 653.220645 -133.18941 
L 653.944631 -130.158904 
L 654.671689 -127.128398 
L 655.419741 -124.097893 
L 656.204964 -121.067387 
L 657.039534 -118.036882 
L 657.93073 -115.006376 
L 658.881707 -111.97587 
L 659.893769 -108.945365 
L 660.969382 -105.914859 
L 662.114766 -102.884354 
L 663.340678 -99.853848 
L 664.660222 -96.823343 
L 666.083143 -93.792837 
L 667.607049 -90.762331 
L 669.207152 -87.731826 
L 670.827086 -84.70132 
L 672.373817 -81.670815 
L 673.719316 -78.640309 
L 674.710504 -75.609803 
L 675.187064 -72.579298 
L 675.004644 -69.548792 
L 674.059212 -66.518287 
L 672.307507 -63.487781 
z
" style="stroke: #000000; stroke-opacity: 0.7"/>
    </defs>
    <g clip-path="url(#p332fe40a8c)">
     <use xlink:href="#m878a3a0ec6" x="0" y="432" style="fill: #fde725; fill-opacity: 0.7; stroke: #000000; stroke-opacity: 0.7"/>
    </g>
   </g>
   <g id="matplotlib.axis_1">
    <g id="xtick_1">
     <g id="line2d_1">
      <defs>
       <path id="m117583dcfa" d="M 0 0 
L 0 3.5 
" style="stroke: #000000; stroke-width: 0.8"/>
      </defs>
      <g>
       <use xlink:href="#m117583dcfa" x="123.746832" y="384.626418" style="stroke: #000000; stroke-width: 0.8"/>
      </g>
     </g>
     <g id="text_1">
      <!-- Borda rule -->
      <g transform="translate(98.221648 399.236765) scale(0.11 -0.11)">
       <defs>
        <path id="CMR17-42" d="M 333 4352 
L 333 4186 
C 774 4186 845 4186 845 3900 
L 845 452 
C 845 166 774 166 333 166 
L 333 0 
L 2534 0 
C 3354 0 3885 583 3885 1164 
C 3885 1741 3360 2233 2675 2233 
C 3290 2356 3718 2771 3718 3264 
C 3718 3802 3194 4352 2368 4352 
L 333 4352 
z
M 1248 2304 
L 1248 3937 
C 1248 4155 1261 4186 1517 4186 
L 2336 4186 
C 2970 4186 3251 3674 3251 3277 
C 3251 2791 2861 2304 2170 2304 
L 1248 2304 
z
M 1517 166 
C 1261 166 1248 197 1248 413 
L 1248 2202 
L 2432 2202 
C 3091 2202 3411 1625 3411 1162 
C 3411 699 3046 166 2349 166 
L 1517 166 
z
" transform="scale(0.015625)"/>
        <path id="CMR17-6f" d="M 2758 1356 
C 2758 2176 2163 2816 1466 2816 
C 768 2816 173 2176 173 1356 
C 173 551 768 -64 1466 -64 
C 2163 -64 2758 551 2758 1356 
z
M 1466 51 
C 1165 51 909 230 762 480 
C 602 767 582 1126 582 1408 
C 582 1677 595 2010 762 2298 
C 890 2509 1139 2714 1466 2714 
C 1754 2714 1997 2554 2150 2330 
C 2349 2029 2349 1607 2349 1408 
C 2349 1158 2336 775 2163 467 
C 1984 173 1709 51 1466 51 
z
" transform="scale(0.015625)"/>
        <path id="CMR17-72" d="M 960 1497 
C 960 2112 1222 2688 1702 2688 
C 1747 2688 1792 2682 1837 2662 
C 1837 2662 1696 2617 1696 2452 
C 1696 2298 1818 2234 1914 2234 
C 1990 2234 2131 2279 2131 2458 
C 2131 2663 1926 2790 1709 2790 
C 1222 2790 1011 2317 947 2093 
L 941 2093 
L 941 2790 
L 198 2720 
L 198 2554 
C 576 2554 634 2515 634 2208 
L 634 428 
C 634 184 608 153 198 153 
L 198 -13 
C 352 0 646 0 813 0 
C 998 0 1325 0 1498 -13 
L 1498 153 
C 1037 153 960 153 960 440 
L 960 1497 
z
" transform="scale(0.015625)"/>
        <path id="CMR17-64" d="M 1869 4326 
L 1869 4160 
C 2246 4160 2304 4122 2304 3820 
L 2304 2345 
C 2278 2377 2016 2790 1498 2790 
C 845 2790 211 2208 211 1364 
C 211 525 806 -64 1434 -64 
C 1978 -64 2259 337 2291 380 
L 2291 -63 
L 3066 -63 
L 3066 128 
C 2688 128 2630 166 2630 473 
L 2630 4396 
L 1869 4326 
z
M 2291 755 
C 2291 563 2176 390 2029 262 
C 1811 70 1594 38 1472 38 
C 1286 38 621 134 621 1356 
C 621 2612 1363 2688 1530 2688 
C 1824 2688 2061 2522 2208 2291 
C 2291 2157 2291 2138 2291 2023 
L 2291 755 
z
" transform="scale(0.015625)"/>
        <path id="CMR17-61" d="M 2304 1653 
C 2304 2072 2304 2294 2035 2543 
C 1798 2752 1523 2816 1306 2816 
C 800 2816 435 2407 435 1971 
C 435 1728 627 1728 666 1728 
C 749 1728 896 1778 896 1954 
C 896 2112 774 2181 666 2181 
C 640 2181 608 2174 589 2168 
C 723 2592 1069 2714 1293 2714 
C 1613 2714 1965 2429 1965 1885 
L 1965 1600 
C 1587 1600 1133 1549 774 1357 
C 371 1133 256 813 256 570 
C 256 77 832 -64 1171 -64 
C 1523 -64 1850 139 1990 511 
C 2003 233 2182 -18 2464 -18 
C 2598 -18 2938 70 2938 567 
L 2938 920 
L 2822 920 
L 2822 562 
C 2822 178 2650 128 2566 128 
C 2304 128 2304 458 2304 738 
L 2304 1653 
z
M 1965 870 
C 1965 317 1568 38 1216 38 
C 896 38 646 275 646 570 
C 646 761 730 1100 1101 1305 
C 1408 1478 1760 1504 1965 1504 
L 1965 870 
z
" transform="scale(0.015625)"/>
        <path id="CMR17-75" d="M 1882 2693 
L 1882 2528 
C 2259 2528 2317 2489 2317 2186 
L 2317 1032 
C 2317 500 2029 38 1555 38 
C 1030 38 986 348 986 678 
L 986 2763 
L 211 2693 
L 211 2528 
C 467 2528 640 2528 646 2274 
L 646 1058 
C 646 633 646 361 813 183 
C 896 101 1056 -64 1517 -64 
C 2061 -64 2272 377 2323 506 
L 2330 506 
L 2330 -63 
L 3091 -63 
L 3091 128 
C 2714 128 2656 166 2656 473 
L 2656 2763 
L 1882 2693 
z
" transform="scale(0.015625)"/>
        <path id="CMR17-6c" d="M 979 4396 
L 218 4326 
L 218 4160 
C 595 4160 653 4122 653 3817 
L 653 426 
C 653 184 627 153 218 153 
L 218 -13 
C 371 0 653 0 813 0 
C 979 0 1261 0 1414 -13 
L 1414 153 
C 1005 153 979 178 979 426 
L 979 4396 
z
" transform="scale(0.015625)"/>
        <path id="CMR17-65" d="M 2438 1472 
C 2464 1498 2464 1511 2464 1576 
C 2464 2238 2118 2816 1389 2816 
C 710 2816 173 2169 173 1383 
C 173 551 781 -64 1459 -64 
C 2176 -64 2458 607 2458 740 
C 2458 784 2419 784 2406 784 
C 2362 784 2355 771 2330 696 
C 2189 265 1837 51 1504 51 
C 1229 51 954 203 781 480 
C 582 803 582 1176 582 1472 
L 2438 1472 
z
M 589 1568 
C 634 2505 1126 2714 1382 2714 
C 1818 2714 2112 2297 2118 1568 
L 589 1568 
z
" transform="scale(0.015625)"/>
       </defs>
       <use xlink:href="#CMR17-42" transform="scale(0.996264)"/>
       <use xlink:href="#CMR17-6f" transform="translate(65.188754 0) scale(0.996264)"/>
       <use xlink:href="#CMR17-72" transform="translate(110.879232 0) scale(0.996264)"/>
       <use xlink:href="#CMR17-64" transform="translate(146.159999 0) scale(0.996264)"/>
       <use xlink:href="#CMR17-61" transform="translate(197.055369 0) scale(0.996264)"/>
       <use xlink:href="#CMR17-72" transform="translate(272.821813 0) scale(0.996264)"/>
       <use xlink:href="#CMR17-75" transform="translate(308.10258 0) scale(0.996264)"/>
       <use xlink:href="#CMR17-6c" transform="translate(358.99795 0) scale(0.996264)"/>
       <use xlink:href="#CMR17-65" transform="translate(383.869009 0) scale(0.996264)"/>
      </g>
     </g>
    </g>
    <g id="xtick_2">
     <g id="line2d_2">
      <g>
       <use xlink:href="#m117583dcfa" x="293.420749" y="384.626418" style="stroke: #000000; stroke-width: 0.8"/>
      </g>
     </g>
     <g id="text_2">
      <!-- Copeland's Rule -->
      <g transform="translate(254.19692 399.236765) scale(0.11 -0.11)">
       <defs>
        <path id="CMR17-43" d="M 3974 4289 
C 3974 4403 3968 4410 3930 4410 
C 3904 4410 3898 4403 3853 4327 
L 3571 3792 
C 3258 4187 2874 4416 2381 4416 
C 1286 4416 294 3456 294 2148 
C 294 826 1286 -128 2387 -128 
C 3366 -128 3974 730 3974 1461 
C 3974 1524 3974 1550 3917 1550 
C 3866 1550 3866 1531 3859 1474 
C 3808 585 3168 38 2477 38 
C 1824 38 781 495 781 2147 
C 781 3805 1843 4250 2464 4250 
C 3187 4250 3712 3628 3834 2745 
C 3846 2668 3846 2655 3904 2655 
C 3974 2655 3974 2668 3974 2783 
L 3974 4289 
z
" transform="scale(0.015625)"/>
        <path id="CMR17-70" d="M 1408 -1063 
C 998 -1063 973 -1037 973 -789 
L 973 402 
C 1158 134 1427 -38 1766 -38 
C 2406 -38 3053 523 3053 1388 
C 3053 2191 2496 2802 1837 2802 
C 1453 2802 1139 2592 960 2338 
L 960 2802 
L 198 2732 
L 198 2567 
C 576 2567 634 2528 634 2223 
L 634 -789 
C 634 -1031 608 -1063 198 -1063 
L 198 -1228 
C 352 -1216 634 -1216 800 -1216 
C 966 -1216 1254 -1216 1408 -1228 
L 1408 -1063 
z
M 973 2012 
C 973 2102 973 2235 1222 2471 
C 1254 2497 1472 2688 1792 2688 
C 2259 2688 2643 2108 2643 1382 
C 2643 656 2234 64 1728 64 
C 1498 64 1248 172 1056 472 
C 973 612 973 650 973 752 
L 973 2012 
z
" transform="scale(0.015625)"/>
        <path id="CMR17-6e" d="M 2656 1933 
C 2656 2259 2592 2790 1837 2790 
C 1331 2790 1069 2400 973 2144 
L 966 2144 
L 966 2790 
L 211 2720 
L 211 2554 
C 589 2554 646 2515 646 2208 
L 646 428 
C 646 184 621 153 211 153 
L 211 -13 
C 365 0 646 0 813 0 
C 979 0 1267 0 1421 -13 
L 1421 153 
C 1011 153 986 178 986 428 
L 986 1658 
C 986 2247 1344 2688 1792 2688 
C 2266 2688 2317 2266 2317 1958 
L 2317 428 
C 2317 184 2291 153 1882 153 
L 1882 -13 
C 2035 0 2317 0 2483 0 
C 2650 0 2938 0 3091 -13 
L 3091 153 
C 2682 153 2656 178 2656 428 
L 2656 1933 
z
" transform="scale(0.015625)"/>
        <path id="CMR17-27" d="M 1024 4025 
C 1037 3955 1043 3929 1043 3820 
C 1043 3415 883 3042 634 2778 
C 608 2752 595 2733 595 2707 
C 595 2681 621 2656 646 2656 
C 691 2656 1146 3105 1146 3811 
C 1146 3952 1133 4426 800 4426 
C 659 4426 538 4331 538 4165 
C 538 3999 659 3904 800 3904 
C 858 3904 966 3923 1024 4025 
z
" transform="scale(0.015625)"/>
        <path id="CMR17-73" d="M 1978 2697 
C 1978 2813 1971 2819 1933 2819 
C 1907 2819 1901 2813 1824 2717 
C 1805 2691 1747 2626 1728 2601 
C 1523 2819 1235 2819 1126 2819 
C 416 2819 160 2447 160 2076 
C 160 1498 813 1365 998 1325 
C 1402 1243 1542 1217 1677 1101 
C 1760 1025 1901 884 1901 654 
C 1901 384 1747 38 1158 38 
C 602 38 403 460 288 1021 
C 269 1110 269 1117 218 1117 
C 166 1117 160 1110 160 983 
L 160 63 
C 160 -51 166 -58 205 -58 
C 237 -58 243 -51 275 0 
C 314 57 410 211 448 276 
C 576 103 800 -64 1158 -64 
C 1792 -64 2131 283 2131 784 
C 2131 1112 1958 1285 1875 1362 
C 1683 1561 1459 1606 1190 1657 
C 838 1735 390 1825 390 2217 
C 390 2383 480 2737 1126 2737 
C 1811 2737 1850 2094 1862 1888 
C 1869 1856 1901 1849 1920 1849 
C 1978 1849 1978 1869 1978 1978 
L 1978 2697 
z
" transform="scale(0.015625)"/>
        <path id="CMR17-52" d="M 2509 2146 
C 3117 2268 3629 2676 3629 3186 
C 3629 3785 2950 4326 2054 4326 
L 333 4326 
L 333 4160 
C 774 4160 845 4160 845 3873 
L 845 415 
C 845 128 774 128 333 128 
L 333 -26 
C 518 -26 851 -26 1050 -26 
C 1248 -26 1581 -26 1766 -26 
L 1766 128 
C 1325 128 1254 128 1254 417 
L 1254 2112 
L 2003 2112 
C 2368 2112 2573 1964 2662 1881 
C 2918 1632 2918 1459 2918 1024 
C 2918 595 2918 377 3110 160 
C 3354 -102 3680 -128 3821 -128 
C 4294 -128 4365 396 4365 503 
C 4365 540 4365 585 4307 585 
C 4256 585 4250 547 4250 522 
C 4218 112 4032 -26 3834 -26 
C 3482 -26 3443 375 3405 764 
C 3386 898 3373 993 3360 1133 
C 3322 1452 3270 1917 2509 2146 
z
M 1984 2214 
L 1254 2214 
L 1254 3913 
C 1254 4129 1267 4160 1523 4160 
L 1990 4160 
C 2522 4160 3142 3977 3142 3190 
C 3142 2372 2464 2214 1984 2214 
z
" transform="scale(0.015625)"/>
       </defs>
       <use xlink:href="#CMR17-43" transform="scale(0.996264)"/>
       <use xlink:href="#CMR17-6f" transform="translate(66.509881 0) scale(0.996264)"/>
       <use xlink:href="#CMR17-70" transform="translate(112.200358 0) scale(0.996264)"/>
       <use xlink:href="#CMR17-65" transform="translate(165.698166 0) scale(0.996264)"/>
       <use xlink:href="#CMR17-6c" transform="translate(206.183827 0) scale(0.996264)"/>
       <use xlink:href="#CMR17-61" transform="translate(231.054885 0) scale(0.996264)"/>
       <use xlink:href="#CMR17-6e" transform="translate(276.745362 0) scale(0.996264)"/>
       <use xlink:href="#CMR17-64" transform="translate(327.640732 0) scale(0.996264)"/>
       <use xlink:href="#CMR17-27" transform="translate(378.536102 0) scale(0.996264)"/>
       <use xlink:href="#CMR17-73" transform="translate(403.40716 0) scale(0.996264)"/>
       <use xlink:href="#CMR17-52" transform="translate(469.284464 0) scale(0.996264)"/>
       <use xlink:href="#CMR17-75" transform="translate(537.075566 0) scale(0.996264)"/>
       <use xlink:href="#CMR17-6c" transform="translate(587.970936 0) scale(0.996264)"/>
       <use xlink:href="#CMR17-65" transform="translate(612.841994 0) scale(0.996264)"/>
      </g>
     </g>
    </g>
    <g id="xtick_3">
     <g id="line2d_3">
      <g>
       <use xlink:href="#m117583dcfa" x="463.094667" y="384.626418" style="stroke: #000000; stroke-width: 0.8"/>
      </g>
     </g>
     <g id="text_3">
      <!-- Plurality rule -->
      <g transform="translate(431.024584 399.236765) scale(0.11 -0.11)">
       <defs>
        <path id="CMR17-50" d="M 1267 2042 
L 2291 2042 
C 3117 2042 3718 2578 3718 3184 
C 3718 3791 3130 4352 2291 4352 
L 333 4352 
L 333 4186 
C 774 4186 845 4186 845 3899 
L 845 446 
C 845 160 774 160 333 160 
L 333 0 
C 518 0 858 0 1056 0 
C 1254 0 1594 0 1779 0 
L 1779 160 
C 1338 160 1267 160 1267 446 
L 1267 2042 
z
M 1254 2176 
L 1254 3938 
C 1254 4155 1267 4186 1523 4186 
L 2170 4186 
C 2995 4186 3232 3714 3232 3184 
C 3232 2604 2950 2176 2170 2176 
L 1254 2176 
z
" transform="scale(0.015625)"/>
        <path id="CMR17-69" d="M 992 3909 
C 992 4049 877 4170 730 4170 
C 589 4170 467 4056 467 3909 
C 467 3769 582 3648 730 3648 
C 870 3648 992 3763 992 3909 
z
M 243 2706 
L 243 2541 
C 602 2541 653 2502 653 2197 
L 653 427 
C 653 184 627 153 218 153 
L 218 -13 
C 371 0 646 0 806 0 
C 960 0 1222 0 1370 -13 
L 1370 153 
C 992 153 979 191 979 420 
L 979 2776 
L 243 2706 
z
" transform="scale(0.015625)"/>
        <path id="CMR17-74" d="M 966 2560 
L 1862 2560 
L 1862 2725 
L 966 2725 
L 966 3904 
L 851 3904 
C 838 3245 614 2668 70 2668 
L 70 2560 
L 627 2560 
L 627 771 
C 627 650 627 -64 1370 -64 
C 1747 -64 1965 306 1965 777 
L 1965 1140 
L 1850 1140 
L 1850 783 
C 1850 344 1677 51 1408 51 
C 1222 51 966 178 966 758 
L 966 2560 
z
" transform="scale(0.015625)"/>
        <path id="CMR17-79" d="M 2496 2197 
C 2656 2586 2944 2586 3034 2586 
L 3034 2752 
C 2912 2752 2752 2752 2630 2752 
C 2496 2752 2285 2752 2157 2758 
L 2157 2592 
C 2400 2573 2406 2394 2406 2343 
C 2406 2280 2394 2248 2362 2171 
L 1664 449 
L 902 2306 
C 870 2382 870 2426 870 2433 
C 870 2573 1018 2586 1171 2586 
L 1171 2758 
C 1018 2752 742 2752 582 2752 
C 410 2752 205 2752 64 2758 
L 64 2586 
C 410 2586 448 2554 531 2350 
L 1485 15 
C 1197 -738 1030 -1178 627 -1178 
C 557 -1178 397 -1159 282 -1044 
C 429 -1031 493 -942 493 -833 
C 493 -725 416 -629 288 -629 
C 147 -629 77 -725 77 -840 
C 77 -1095 339 -1280 627 -1280 
C 998 -1280 1229 -922 1357 -604 
L 2496 2197 
z
" transform="scale(0.015625)"/>
       </defs>
       <use xlink:href="#CMR17-50" transform="scale(0.996264)"/>
       <use xlink:href="#CMR17-6c" transform="translate(62.586301 0) scale(0.996264)"/>
       <use xlink:href="#CMR17-75" transform="translate(87.457359 0) scale(0.996264)"/>
       <use xlink:href="#CMR17-72" transform="translate(138.352729 0) scale(0.996264)"/>
       <use xlink:href="#CMR17-61" transform="translate(173.633497 0) scale(0.996264)"/>
       <use xlink:href="#CMR17-6c" transform="translate(219.323974 0) scale(0.996264)"/>
       <use xlink:href="#CMR17-69" transform="translate(244.195032 0) scale(0.996264)"/>
       <use xlink:href="#CMR17-74" transform="translate(269.066091 0) scale(0.996264)"/>
       <use xlink:href="#CMR17-79" transform="translate(301.744405 0) scale(0.996264)"/>
       <use xlink:href="#CMR17-72" transform="translate(380.113287 0) scale(0.996264)"/>
       <use xlink:href="#CMR17-75" transform="translate(415.394055 0) scale(0.996264)"/>
       <use xlink:href="#CMR17-6c" transform="translate(466.289424 0) scale(0.996264)"/>
       <use xlink:href="#CMR17-65" transform="translate(491.160483 0) scale(0.996264)"/>
      </g>
     </g>
    </g>
    <g id="xtick_4">
     <g id="line2d_4">
      <g>
       <use xlink:href="#m117583dcfa" x="632.768585" y="384.626418" style="stroke: #000000; stroke-width: 0.8"/>
      </g>
     </g>
     <g id="text_4">
      <!-- Black's Rule -->
      <g transform="translate(602.90552 399.236765) scale(0.11 -0.11)">
       <defs>
        <path id="CMR17-63" d="M 2234 2240 
C 2112 2240 1933 2240 1933 2017 
C 1933 1838 2080 1787 2163 1787 
C 2208 1787 2394 1807 2394 2024 
C 2394 2467 1958 2803 1466 2803 
C 787 2803 211 2178 211 1363 
C 211 516 813 -64 1466 -64 
C 2259 -64 2458 677 2458 748 
C 2458 774 2451 793 2406 793 
C 2362 793 2355 787 2330 703 
C 2163 180 1798 51 1523 51 
C 1114 51 621 427 621 1369 
C 621 2338 1094 2688 1472 2688 
C 1722 2688 2093 2573 2234 2240 
z
" transform="scale(0.015625)"/>
        <path id="CMR17-6b" d="M 1670 1673 
C 1664 1686 1632 1724 1632 1743 
C 1632 1756 2086 2171 2144 2222 
C 2509 2528 2739 2560 2906 2560 
L 2906 2733 
C 2867 2733 2854 2733 2848 2720 
L 2534 2720 
C 2355 2720 2080 2720 1907 2733 
L 1907 2566 
C 1997 2559 2061 2508 2061 2419 
C 2061 2291 1933 2170 1926 2170 
L 960 1289 
L 960 4396 
L 198 4326 
L 198 4160 
C 576 4160 634 4122 634 3817 
L 634 426 
C 634 184 608 153 198 153 
L 198 -13 
C 352 0 634 0 794 0 
C 954 0 1235 0 1389 -13 
L 1389 153 
C 979 153 954 178 954 428 
L 954 1130 
L 1395 1532 
L 2042 574 
C 2118 459 2182 369 2182 286 
C 2182 172 2067 153 1990 153 
L 1990 -13 
C 2144 0 2419 0 2579 0 
C 2694 0 2931 0 3040 0 
L 3040 153 
C 2739 153 2669 210 2477 491 
L 1670 1673 
z
" transform="scale(0.015625)"/>
       </defs>
       <use xlink:href="#CMR17-42" transform="scale(0.996264)"/>
       <use xlink:href="#CMR17-6c" transform="translate(65.188754 0) scale(0.996264)"/>
       <use xlink:href="#CMR17-61" transform="translate(90.059813 0) scale(0.996264)"/>
       <use xlink:href="#CMR17-63" transform="translate(135.75029 0) scale(0.996264)"/>
       <use xlink:href="#CMR17-6b" transform="translate(173.633497 0) scale(0.996264)"/>
       <use xlink:href="#CMR17-27" transform="translate(221.926412 0) scale(0.996264)"/>
       <use xlink:href="#CMR17-73" transform="translate(246.797471 0) scale(0.996264)"/>
       <use xlink:href="#CMR17-52" transform="translate(312.674775 0) scale(0.996264)"/>
       <use xlink:href="#CMR17-75" transform="translate(380.465877 0) scale(0.996264)"/>
       <use xlink:href="#CMR17-6c" transform="translate(431.361247 0) scale(0.996264)"/>
       <use xlink:href="#CMR17-65" transform="translate(456.232305 0) scale(0.996264)"/>
      </g>
     </g>
    </g>
    <g id="text_5">
     <!-- Number of voters -->
     <g transform="translate(329.964678 414.361688) scale(0.13 -0.13)">
      <defs>
       <path id="CMR17-4e" d="M 1312 4250 
C 1267 4320 1261 4320 1139 4320 
L 326 4320 
L 326 4160 
L 448 4160 
C 704 4160 819 4129 838 4122 
L 838 610 
C 838 451 838 153 326 153 
L 326 -13 
C 474 0 742 0 902 0 
C 1062 0 1331 0 1478 -13 
L 1478 153 
C 966 153 966 451 966 610 
L 966 4033 
C 1011 3995 1011 3982 1056 3919 
L 3430 76 
C 3475 0 3494 0 3526 0 
C 3590 0 3590 19 3590 139 
L 3590 3705 
C 3590 3863 3590 4160 4102 4160 
L 4102 4326 
C 3955 4320 3686 4320 3526 4320 
C 3366 4320 3098 4320 2950 4326 
L 2950 4160 
C 3462 4160 3462 3862 3462 3703 
L 3462 763 
L 1312 4250 
z
" transform="scale(0.015625)"/>
       <path id="CMR17-6d" d="M 4326 1933 
C 4326 2252 4269 2790 3507 2790 
C 3072 2790 2771 2496 2656 2151 
L 2650 2151 
C 2573 2676 2195 2790 1837 2790 
C 1331 2790 1069 2400 973 2144 
L 966 2144 
L 966 2790 
L 211 2720 
L 211 2554 
C 589 2554 646 2515 646 2208 
L 646 428 
C 646 184 621 153 211 153 
L 211 -13 
C 365 0 646 0 813 0 
C 979 0 1267 0 1421 -13 
L 1421 153 
C 1011 153 986 178 986 428 
L 986 1658 
C 986 2247 1344 2688 1792 2688 
C 2266 2688 2317 2266 2317 1958 
L 2317 428 
C 2317 184 2291 153 1882 153 
L 1882 -13 
C 2035 0 2317 0 2483 0 
C 2650 0 2938 0 3091 -13 
L 3091 153 
C 2682 153 2656 178 2656 428 
L 2656 1658 
C 2656 2247 3014 2688 3462 2688 
C 3936 2688 3987 2266 3987 1958 
L 3987 428 
C 3987 184 3962 153 3552 153 
L 3552 -13 
C 3706 0 3987 0 4154 0 
C 4320 0 4608 0 4762 -13 
L 4762 153 
C 4352 153 4326 178 4326 428 
L 4326 1933 
z
" transform="scale(0.015625)"/>
       <path id="CMR17-62" d="M 960 4396 
L 198 4326 
L 198 4160 
C 576 4160 634 4122 634 3817 
L 634 -13 
L 749 -13 
L 934 441 
C 1120 141 1395 -64 1766 -64 
C 2406 -64 3053 500 3053 1370 
C 3053 2188 2477 2790 1830 2790 
C 1434 2790 1152 2579 960 2330 
L 960 4396 
z
M 973 2004 
C 973 2118 973 2138 1062 2272 
C 1312 2657 1670 2688 1792 2688 
C 1984 2688 2643 2585 2643 1376 
C 2643 108 1888 38 1734 38 
C 1536 38 1248 114 1043 486 
C 973 608 973 621 973 735 
L 973 2004 
z
" transform="scale(0.015625)"/>
       <path id="CMR17-66" d="M 979 2560 
L 1709 2560 
L 1709 2725 
L 966 2725 
L 966 3494 
C 966 4022 1235 4352 1510 4352 
C 1594 4352 1690 4327 1754 4282 
C 1702 4269 1568 4225 1568 4067 
C 1568 3901 1696 3850 1786 3850 
C 1875 3850 2003 3901 2003 4067 
C 2003 4308 1773 4454 1517 4454 
C 1152 4454 653 4156 653 3481 
L 653 2725 
L 141 2725 
L 141 2560 
L 653 2560 
L 653 427 
C 653 184 627 153 218 153 
L 218 -13 
C 371 0 666 0 832 0 
C 1018 0 1344 0 1517 -13 
L 1517 153 
C 1056 153 979 153 979 439 
L 979 2560 
z
" transform="scale(0.015625)"/>
       <path id="CMR17-76" d="M 2502 2163 
C 2560 2304 2662 2560 3034 2560 
L 3034 2726 
C 2912 2726 2752 2726 2630 2726 
C 2496 2726 2285 2726 2157 2732 
L 2157 2566 
C 2317 2553 2406 2477 2406 2311 
C 2406 2253 2406 2240 2368 2151 
L 1664 377 
L 902 2286 
C 864 2369 864 2381 864 2407 
C 864 2560 1075 2560 1171 2560 
L 1171 2732 
C 1018 2726 736 2726 576 2726 
C 403 2726 205 2726 64 2732 
L 64 2560 
C 307 2560 442 2560 518 2362 
L 1446 44 
C 1485 -51 1491 -64 1549 -64 
C 1606 -64 1613 -51 1651 44 
L 2502 2163 
z
" transform="scale(0.015625)"/>
      </defs>
      <use xlink:href="#CMR17-4e" transform="scale(0.996264)"/>
      <use xlink:href="#CMR17-75" transform="translate(69.07243 0) scale(0.996264)"/>
      <use xlink:href="#CMR17-6d" transform="translate(119.9678 0) scale(0.996264)"/>
      <use xlink:href="#CMR17-62" transform="translate(194.284936 0) scale(0.996264)"/>
      <use xlink:href="#CMR17-65" transform="translate(247.782744 0) scale(0.996264)"/>
      <use xlink:href="#CMR17-72" transform="translate(288.268404 0) scale(0.996264)"/>
      <use xlink:href="#CMR17-6f" transform="translate(353.625139 0) scale(0.996264)"/>
      <use xlink:href="#CMR17-66" transform="translate(399.315616 0) scale(0.996264)"/>
      <use xlink:href="#CMR17-76" transform="translate(456.865095 0) scale(0.996264)"/>
      <use xlink:href="#CMR17-6f" transform="translate(502.555556 0) scale(0.996264)"/>
      <use xlink:href="#CMR17-74" transform="translate(548.246034 0) scale(0.996264)"/>
      <use xlink:href="#CMR17-65" transform="translate(583.526801 0) scale(0.996264)"/>
      <use xlink:href="#CMR17-72" transform="translate(624.012462 0) scale(0.996264)"/>
      <use xlink:href="#CMR17-73" transform="translate(659.29323 0) scale(0.996264)"/>
     </g>
    </g>
   </g>
   <g id="matplotlib.axis_2">
    <g id="ytick_1">
     <g id="line2d_5">
      <path d="M 51.635416 368.512219 
L 704.88 368.512219 
" clip-path="url(#p332fe40a8c)" style="fill: none; stroke: #b0b0b0; stroke-opacity: 0.3; stroke-linecap: square"/>
     </g>
     <g id="line2d_6">
      <defs>
       <path id="m78bd34c384" d="M 0 0 
L -3.5 0 
" style="stroke: #000000; stroke-width: 0.8"/>
      </defs>
      <g>
       <use xlink:href="#m78bd34c384" x="51.635416" y="368.512219" style="stroke: #000000; stroke-width: 0.8"/>
      </g>
     </g>
     <g id="text_6">
      <!-- $\mathdefault{1.0}$ -->
      <g transform="translate(30.63234 372.317392) scale(0.11 -0.11)">
       <defs>
        <path id="CMR17-31" d="M 1702 4058 
C 1702 4192 1696 4192 1606 4192 
C 1357 3916 979 3827 621 3827 
C 602 3827 570 3827 563 3808 
C 557 3795 557 3782 557 3648 
C 755 3648 1088 3686 1344 3839 
L 1344 461 
C 1344 236 1331 160 781 160 
L 589 160 
L 589 0 
C 896 0 1216 0 1523 0 
C 1830 0 2150 0 2458 0 
L 2458 160 
L 2266 160 
C 1715 160 1702 230 1702 458 
L 1702 4058 
z
" transform="scale(0.015625)"/>
        <path id="CMMI12-3a" d="M 1178 307 
C 1178 492 1024 619 870 619 
C 685 619 557 466 557 313 
C 557 128 710 0 864 0 
C 1050 0 1178 153 1178 307 
z
" transform="scale(0.015625)"/>
        <path id="CMR17-30" d="M 2688 2025 
C 2688 2416 2682 3080 2413 3591 
C 2176 4039 1798 4198 1466 4198 
C 1158 4198 768 4058 525 3597 
C 269 3118 243 2524 243 2025 
C 243 1661 250 1106 448 619 
C 723 -39 1216 -128 1466 -128 
C 1760 -128 2208 -7 2470 600 
C 2662 1042 2688 1559 2688 2025 
z
M 1466 -26 
C 1056 -26 813 325 723 812 
C 653 1188 653 1738 653 2096 
C 653 2588 653 2997 736 3387 
C 858 3929 1216 4096 1466 4096 
C 1728 4096 2067 3923 2189 3400 
C 2272 3036 2278 2607 2278 2096 
C 2278 1680 2278 1169 2202 792 
C 2067 95 1690 -26 1466 -26 
z
" transform="scale(0.015625)"/>
       </defs>
       <use xlink:href="#CMR17-31" transform="scale(0.996264)"/>
       <use xlink:href="#CMMI12-3a" transform="translate(45.690477 0) scale(0.996264)"/>
       <use xlink:href="#CMR17-30" transform="translate(72.787654 0) scale(0.996264)"/>
      </g>
     </g>
    </g>
    <g id="ytick_2">
     <g id="line2d_7">
      <path d="M 51.635416 314.91545 
L 704.88 314.91545 
" clip-path="url(#p332fe40a8c)" style="fill: none; stroke: #b0b0b0; stroke-opacity: 0.3; stroke-linecap: square"/>
     </g>
     <g id="line2d_8">
      <g>
       <use xlink:href="#m78bd34c384" x="51.635416" y="314.91545" style="stroke: #000000; stroke-width: 0.8"/>
      </g>
     </g>
     <g id="text_7">
      <!-- $\mathdefault{1.2}$ -->
      <g transform="translate(30.63234 318.720623) scale(0.11 -0.11)">
       <defs>
        <path id="CMR17-32" d="M 2669 989 
L 2554 989 
C 2490 536 2438 459 2413 420 
C 2381 369 1920 369 1830 369 
L 602 369 
C 832 619 1280 1072 1824 1597 
C 2214 1967 2669 2402 2669 3035 
C 2669 3790 2067 4224 1395 4224 
C 691 4224 262 3604 262 3030 
C 262 2780 448 2748 525 2748 
C 589 2748 781 2787 781 3010 
C 781 3207 614 3264 525 3264 
C 486 3264 448 3258 422 3245 
C 544 3790 915 4058 1306 4058 
C 1862 4058 2227 3617 2227 3035 
C 2227 2479 1901 2000 1536 1584 
L 262 146 
L 262 0 
L 2515 0 
L 2669 989 
z
" transform="scale(0.015625)"/>
       </defs>
       <use xlink:href="#CMR17-31" transform="scale(0.996264)"/>
       <use xlink:href="#CMMI12-3a" transform="translate(45.690477 0) scale(0.996264)"/>
       <use xlink:href="#CMR17-32" transform="translate(72.787654 0) scale(0.996264)"/>
      </g>
     </g>
    </g>
    <g id="ytick_3">
     <g id="line2d_9">
      <path d="M 51.635416 261.318681 
L 704.88 261.318681 
" clip-path="url(#p332fe40a8c)" style="fill: none; stroke: #b0b0b0; stroke-opacity: 0.3; stroke-linecap: square"/>
     </g>
     <g id="line2d_10">
      <g>
       <use xlink:href="#m78bd34c384" x="51.635416" y="261.318681" style="stroke: #000000; stroke-width: 0.8"/>
      </g>
     </g>
     <g id="text_8">
      <!-- $\mathdefault{1.4}$ -->
      <g transform="translate(30.63234 265.123854) scale(0.11 -0.11)">
       <defs>
        <path id="CMR17-34" d="M 2150 4122 
C 2150 4256 2144 4256 2029 4256 
L 128 1254 
L 128 1088 
L 1779 1088 
L 1779 457 
C 1779 224 1766 160 1318 160 
L 1197 160 
L 1197 0 
C 1402 0 1747 0 1965 0 
C 2182 0 2528 0 2733 0 
L 2733 160 
L 2611 160 
C 2163 160 2150 224 2150 457 
L 2150 1088 
L 2803 1088 
L 2803 1254 
L 2150 1254 
L 2150 4122 
z
M 1798 3703 
L 1798 1254 
L 256 1254 
L 1798 3703 
z
" transform="scale(0.015625)"/>
       </defs>
       <use xlink:href="#CMR17-31" transform="scale(0.996264)"/>
       <use xlink:href="#CMMI12-3a" transform="translate(45.690477 0) scale(0.996264)"/>
       <use xlink:href="#CMR17-34" transform="translate(72.787654 0) scale(0.996264)"/>
      </g>
     </g>
    </g>
    <g id="ytick_4">
     <g id="line2d_11">
      <path d="M 51.635416 207.721911 
L 704.88 207.721911 
" clip-path="url(#p332fe40a8c)" style="fill: none; stroke: #b0b0b0; stroke-opacity: 0.3; stroke-linecap: square"/>
     </g>
     <g id="line2d_12">
      <g>
       <use xlink:href="#m78bd34c384" x="51.635416" y="207.721911" style="stroke: #000000; stroke-width: 0.8"/>
      </g>
     </g>
     <g id="text_9">
      <!-- $\mathdefault{1.6}$ -->
      <g transform="translate(30.63234 211.527085) scale(0.11 -0.11)">
       <defs>
        <path id="CMR17-36" d="M 678 2176 
C 678 3690 1395 4032 1811 4032 
C 1946 4032 2272 4009 2400 3776 
C 2298 3776 2106 3776 2106 3553 
C 2106 3381 2246 3323 2336 3323 
C 2394 3323 2566 3348 2566 3560 
C 2566 3954 2246 4179 1805 4179 
C 1043 4179 243 3390 243 1984 
C 243 253 966 -128 1478 -128 
C 2099 -128 2688 427 2688 1283 
C 2688 2081 2170 2662 1517 2662 
C 1126 2662 838 2407 678 1960 
L 678 2176 
z
M 1478 25 
C 691 25 691 1200 691 1436 
C 691 1896 909 2560 1504 2560 
C 1613 2560 1926 2560 2138 2120 
C 2253 1870 2253 1609 2253 1289 
C 2253 944 2253 690 2118 434 
C 1978 171 1773 25 1478 25 
z
" transform="scale(0.015625)"/>
       </defs>
       <use xlink:href="#CMR17-31" transform="scale(0.996264)"/>
       <use xlink:href="#CMMI12-3a" transform="translate(45.690477 0) scale(0.996264)"/>
       <use xlink:href="#CMR17-36" transform="translate(72.787654 0) scale(0.996264)"/>
      </g>
     </g>
    </g>
    <g id="ytick_5">
     <g id="line2d_13">
      <path d="M 51.635416 154.125142 
L 704.88 154.125142 
" clip-path="url(#p332fe40a8c)" style="fill: none; stroke: #b0b0b0; stroke-opacity: 0.3; stroke-linecap: square"/>
     </g>
     <g id="line2d_14">
      <g>
       <use xlink:href="#m78bd34c384" x="51.635416" y="154.125142" style="stroke: #000000; stroke-width: 0.8"/>
      </g>
     </g>
     <g id="text_10">
      <!-- $\mathdefault{1.8}$ -->
      <g transform="translate(30.63234 157.930316) scale(0.11 -0.11)">
       <defs>
        <path id="CMR17-38" d="M 1741 2264 
C 2144 2467 2554 2773 2554 3263 
C 2554 3841 1990 4179 1472 4179 
C 890 4179 378 3759 378 3180 
C 378 3021 416 2747 666 2505 
C 730 2442 998 2251 1171 2130 
C 883 1983 211 1634 211 934 
C 211 279 838 -128 1459 -128 
C 2144 -128 2720 362 2720 1010 
C 2720 1590 2330 1857 2074 2029 
L 1741 2264 
z
M 902 2822 
C 851 2854 595 3051 595 3351 
C 595 3739 998 4032 1459 4032 
C 1965 4032 2336 3676 2336 3262 
C 2336 2669 1670 2331 1638 2331 
C 1632 2331 1626 2331 1574 2370 
L 902 2822 
z
M 2080 1519 
C 2176 1449 2483 1240 2483 851 
C 2483 381 2010 25 1472 25 
C 890 25 448 438 448 940 
C 448 1443 838 1862 1280 2060 
L 2080 1519 
z
" transform="scale(0.015625)"/>
       </defs>
       <use xlink:href="#CMR17-31" transform="scale(0.996264)"/>
       <use xlink:href="#CMMI12-3a" transform="translate(45.690477 0) scale(0.996264)"/>
       <use xlink:href="#CMR17-38" transform="translate(72.787654 0) scale(0.996264)"/>
      </g>
     </g>
    </g>
    <g id="ytick_6">
     <g id="line2d_15">
      <path d="M 51.635416 100.528373 
L 704.88 100.528373 
" clip-path="url(#p332fe40a8c)" style="fill: none; stroke: #b0b0b0; stroke-opacity: 0.3; stroke-linecap: square"/>
     </g>
     <g id="line2d_16">
      <g>
       <use xlink:href="#m78bd34c384" x="51.635416" y="100.528373" style="stroke: #000000; stroke-width: 0.8"/>
      </g>
     </g>
     <g id="text_11">
      <!-- $\mathdefault{2.0}$ -->
      <g transform="translate(30.63234 104.333546) scale(0.11 -0.11)">
       <use xlink:href="#CMR17-32" transform="scale(0.996264)"/>
       <use xlink:href="#CMMI12-3a" transform="translate(45.690477 0) scale(0.996264)"/>
       <use xlink:href="#CMR17-30" transform="translate(72.787654 0) scale(0.996264)"/>
      </g>
     </g>
    </g>
    <g id="ytick_7">
     <g id="line2d_17">
      <path d="M 51.635416 46.931604 
L 704.88 46.931604 
" clip-path="url(#p332fe40a8c)" style="fill: none; stroke: #b0b0b0; stroke-opacity: 0.3; stroke-linecap: square"/>
     </g>
     <g id="line2d_18">
      <g>
       <use xlink:href="#m78bd34c384" x="51.635416" y="46.931604" style="stroke: #000000; stroke-width: 0.8"/>
      </g>
     </g>
     <g id="text_12">
      <!-- $\mathdefault{2.2}$ -->
      <g transform="translate(30.63234 50.736777) scale(0.11 -0.11)">
       <use xlink:href="#CMR17-32" transform="scale(0.996264)"/>
       <use xlink:href="#CMMI12-3a" transform="translate(45.690477 0) scale(0.996264)"/>
       <use xlink:href="#CMR17-32" transform="translate(72.787654 0) scale(0.996264)"/>
      </g>
     </g>
    </g>
    <g id="text_13">
     <!-- Distortion -->
     <g transform="translate(24.114028 235.497321) rotate(-90) scale(0.13 -0.13)">
      <defs>
       <path id="CMR17-44" d="M 333 4352 
L 333 4186 
C 774 4186 845 4186 845 3900 
L 845 452 
C 845 166 774 166 333 166 
L 333 0 
L 2368 0 
C 3398 0 4224 943 4224 2141 
C 4224 3346 3411 4352 2368 4352 
L 333 4352 
z
M 1523 166 
C 1267 166 1254 197 1254 414 
L 1254 3938 
C 1254 4155 1267 4186 1523 4186 
L 2240 4186 
C 2771 4186 3750 3874 3750 2141 
C 3750 1242 3488 879 3366 707 
C 3213 510 2848 166 2240 166 
L 1523 166 
z
" transform="scale(0.015625)"/>
      </defs>
      <use xlink:href="#CMR17-44" transform="scale(0.996264)"/>
      <use xlink:href="#CMR17-69" transform="translate(70.393556 0) scale(0.996264)"/>
      <use xlink:href="#CMR17-73" transform="translate(95.264614 0) scale(0.996264)"/>
      <use xlink:href="#CMR17-74" transform="translate(131.065952 0) scale(0.996264)"/>
      <use xlink:href="#CMR17-6f" transform="translate(166.34672 0) scale(0.996264)"/>
      <use xlink:href="#CMR17-72" transform="translate(212.037197 0) scale(0.996264)"/>
      <use xlink:href="#CMR17-74" transform="translate(247.317965 0) scale(0.996264)"/>
      <use xlink:href="#CMR17-69" transform="translate(282.598733 0) scale(0.996264)"/>
      <use xlink:href="#CMR17-6f" transform="translate(307.469791 0) scale(0.996264)"/>
      <use xlink:href="#CMR17-6e" transform="translate(353.160268 0) scale(0.996264)"/>
     </g>
    </g>
   </g>
   <g id="LineCollection_1">
    <path d="M 102.537592 323.003805 
L 144.956071 323.003805 
" clip-path="url(#p332fe40a8c)" style="fill: none; stroke: #1f77b4; stroke-width: 1.5"/>
    <path d="M 272.21151 314.410083 
L 314.629989 314.410083 
" clip-path="url(#p332fe40a8c)" style="fill: none; stroke: #1f77b4; stroke-width: 1.5"/>
    <path d="M 441.885427 288.195471 
L 484.303907 288.195471 
" clip-path="url(#p332fe40a8c)" style="fill: none; stroke: #1f77b4; stroke-width: 1.5"/>
    <path d="M 611.559345 325.284708 
L 653.977825 325.284708 
" clip-path="url(#p332fe40a8c)" style="fill: none; stroke: #1f77b4; stroke-width: 1.5"/>
   </g>
   <g id="LineCollection_2">
    <path d="M 102.537592 163.605523 
L 144.956071 163.605523 
" clip-path="url(#p332fe40a8c)" style="fill: none; stroke: #1f77b4; stroke-width: 1.5"/>
    <path d="M 272.21151 121.636014 
L 314.629989 121.636014 
" clip-path="url(#p332fe40a8c)" style="fill: none; stroke: #1f77b4; stroke-width: 1.5"/>
    <path d="M 441.885427 46.228228 
L 484.303907 46.228228 
" clip-path="url(#p332fe40a8c)" style="fill: none; stroke: #1f77b4; stroke-width: 1.5"/>
    <path d="M 611.559345 68.492166 
L 653.977825 68.492166 
" clip-path="url(#p332fe40a8c)" style="fill: none; stroke: #1f77b4; stroke-width: 1.5"/>
   </g>
   <g id="LineCollection_3">
    <path d="M 102.537592 368.512219 
L 144.956071 368.512219 
" clip-path="url(#p332fe40a8c)" style="fill: none; stroke: #1f77b4; stroke-width: 1.5"/>
    <path d="M 272.21151 368.512219 
L 314.629989 368.512219 
" clip-path="url(#p332fe40a8c)" style="fill: none; stroke: #1f77b4; stroke-width: 1.5"/>
    <path d="M 441.885427 368.512219 
L 484.303907 368.512219 
" clip-path="url(#p332fe40a8c)" style="fill: none; stroke: #1f77b4; stroke-width: 1.5"/>
    <path d="M 611.559345 368.512219 
L 653.977825 368.512219 
" clip-path="url(#p332fe40a8c)" style="fill: none; stroke: #1f77b4; stroke-width: 1.5"/>
   </g>
   <g id="LineCollection_4">
    <path d="M 123.746832 368.512219 
L 123.746832 163.605523 
" clip-path="url(#p332fe40a8c)" style="fill: none; stroke: #1f77b4; stroke-width: 1.5"/>
    <path d="M 293.420749 368.512219 
L 293.420749 121.636014 
" clip-path="url(#p332fe40a8c)" style="fill: none; stroke: #1f77b4; stroke-width: 1.5"/>
    <path d="M 463.094667 368.512219 
L 463.094667 46.228228 
" clip-path="url(#p332fe40a8c)" style="fill: none; stroke: #1f77b4; stroke-width: 1.5"/>
    <path d="M 632.768585 368.512219 
L 632.768585 68.492166 
" clip-path="url(#p332fe40a8c)" style="fill: none; stroke: #1f77b4; stroke-width: 1.5"/>
   </g>
   <g id="patch_3">
    <path d="M 51.635416 384.626418 
L 51.635416 30.114028 
" style="fill: none; stroke: #000000; stroke-linejoin: miter; stroke-linecap: square"/>
   </g>
   <g id="patch_4">
    <path d="M 704.88 384.626418 
L 704.88 30.114028 
" style="fill: none; stroke: #000000; stroke-linejoin: miter; stroke-linecap: square"/>
   </g>
   <g id="patch_5">
    <path d="M 51.635416 384.626418 
L 704.88 384.626418 
" style="fill: none; stroke: #000000; stroke-linejoin: miter; stroke-linecap: square"/>
   </g>
   <g id="patch_6">
    <path d="M 51.635416 30.114028 
L 704.88 30.114028 
" style="fill: none; stroke: #000000; stroke-linejoin: miter; stroke-linecap: square"/>
   </g>
   <g id="text_14">
    <!-- Distortion Under Nash -->
    <g transform="translate(314.87355 24.114028) scale(0.13 -0.13)">
     <defs>
      <path id="CMR17-55" d="M 3456 1433 
C 3456 579 2899 38 2291 38 
C 1965 38 1670 210 1491 477 
C 1286 783 1261 1178 1261 1401 
L 1261 3874 
C 1261 4160 1331 4160 1773 4160 
L 1773 4320 
C 1587 4320 1248 4320 1050 4320 
C 851 4320 512 4320 326 4320 
L 326 4160 
C 768 4160 838 4160 838 3874 
L 838 1433 
C 838 516 1536 -128 2278 -128 
C 3110 -128 3590 719 3590 1344 
L 3590 3766 
C 3590 4122 3917 4160 4102 4160 
L 4102 4326 
C 3955 4320 3686 4320 3526 4320 
C 3366 4320 3091 4320 2944 4326 
L 2944 4160 
C 3456 4160 3456 3861 3456 3702 
L 3456 1433 
z
" transform="scale(0.015625)"/>
      <path id="CMR17-68" d="M 2656 1933 
C 2656 2259 2592 2790 1837 2790 
C 1312 2790 1056 2368 979 2157 
L 973 2157 
L 973 4396 
L 211 4326 
L 211 4160 
C 589 4160 646 4122 646 3817 
L 646 426 
C 646 184 621 153 211 153 
L 211 -13 
C 365 0 646 0 813 0 
C 979 0 1267 0 1421 -13 
L 1421 153 
C 1011 153 986 178 986 428 
L 986 1658 
C 986 2247 1344 2688 1792 2688 
C 2266 2688 2317 2266 2317 1958 
L 2317 428 
C 2317 184 2291 153 1882 153 
L 1882 -13 
C 2035 0 2317 0 2483 0 
C 2650 0 2938 0 3091 -13 
L 3091 153 
C 2682 153 2656 178 2656 428 
L 2656 1933 
z
" transform="scale(0.015625)"/>
     </defs>
     <use xlink:href="#CMR17-44" transform="scale(0.996264)"/>
     <use xlink:href="#CMR17-69" transform="translate(70.393556 0) scale(0.996264)"/>
     <use xlink:href="#CMR17-73" transform="translate(95.264614 0) scale(0.996264)"/>
     <use xlink:href="#CMR17-74" transform="translate(131.065952 0) scale(0.996264)"/>
     <use xlink:href="#CMR17-6f" transform="translate(166.34672 0) scale(0.996264)"/>
     <use xlink:href="#CMR17-72" transform="translate(212.037197 0) scale(0.996264)"/>
     <use xlink:href="#CMR17-74" transform="translate(247.317965 0) scale(0.996264)"/>
     <use xlink:href="#CMR17-69" transform="translate(282.598733 0) scale(0.996264)"/>
     <use xlink:href="#CMR17-6f" transform="translate(307.469791 0) scale(0.996264)"/>
     <use xlink:href="#CMR17-6e" transform="translate(353.160268 0) scale(0.996264)"/>
     <use xlink:href="#CMR17-55" transform="translate(434.131604 0) scale(0.996264)"/>
     <use xlink:href="#CMR17-6e" transform="translate(503.204034 0) scale(0.996264)"/>
     <use xlink:href="#CMR17-64" transform="translate(554.099404 0) scale(0.996264)"/>
     <use xlink:href="#CMR17-65" transform="translate(604.994774 0) scale(0.996264)"/>
     <use xlink:href="#CMR17-72" transform="translate(645.480434 0) scale(0.996264)"/>
     <use xlink:href="#CMR17-4e" transform="translate(710.837168 0) scale(0.996264)"/>
     <use xlink:href="#CMR17-61" transform="translate(779.909598 0) scale(0.996264)"/>
     <use xlink:href="#CMR17-73" transform="translate(825.600075 0) scale(0.996264)"/>
     <use xlink:href="#CMR17-68" transform="translate(861.401413 0) scale(0.996264)"/>
    </g>
   </g>
  </g>
 </g>
 <defs>
  <clipPath id="p332fe40a8c">
   <rect x="51.635416" y="30.114028" width="653.244584" height="354.51239"/>
  </clipPath>
 </defs>
</svg>
