<?xml version="1.0" encoding="utf-8" standalone="no"?>
<!DOCTYPE svg PUBLIC "-//W3C//DTD SVG 1.1//EN"
  "http://www.w3.org/Graphics/SVG/1.1/DTD/svg11.dtd">
<svg xmlns:xlink="http://www.w3.org/1999/xlink" width="720pt" height="432pt" viewBox="0 0 720 432" xmlns="http://www.w3.org/2000/svg" version="1.1">
 <metadata>
  <rdf:RDF xmlns:dc="http://purl.org/dc/elements/1.1/" xmlns:cc="http://creativecommons.org/ns#" xmlns:rdf="http://www.w3.org/1999/02/22-rdf-syntax-ns#">
   <cc:Work>
    <dc:type rdf:resource="http://purl.org/dc/dcmitype/StillImage"/>
    <dc:date>2024-12-05T20:29:47.231893</dc:date>
    <dc:format>image/svg+xml</dc:format>
    <dc:creator>
     <cc:Agent>
      <dc:title>Matplotlib v3.9.2, https://matplotlib.org/</dc:title>
     </cc:Agent>
    </dc:creator>
   </cc:Work>
  </rdf:RDF>
 </metadata>
 <defs>
  <style type="text/css">*{stroke-linejoin: round; stroke-linecap: butt}</style>
 </defs>
 <g id="figure_1">
  <g id="patch_1">
   <path d="M 0 432 
L 720 432 
L 720 0 
L 0 0 
z
" style="fill: #ffffff"/>
  </g>
  <g id="axes_1">
   <g id="patch_2">
    <path d="M 51.635416 384.626418 
L 704.88 384.626418 
L 704.88 30.114028 
L 51.635416 30.114028 
z
" style="fill: #ffffff"/>
   </g>
   <g id="PolyCollection_1">
    <defs>
     <path id="m55f1de3e51" d="M 153.615333 -63.487781 
L 93.87833 -63.487781 
L 92.132392 -66.447297 
L 90.580852 -69.406812 
L 89.223487 -72.366328 
L 88.049388 -75.325844 
L 87.039285 -78.285359 
L 86.168602 -81.244875 
L 85.410834 -84.204391 
L 84.740847 -87.163906 
L 84.137697 -90.123422 
L 83.586668 -93.082937 
L 83.080341 -96.042453 
L 82.618652 -99.001969 
L 82.208005 -101.961484 
L 81.859649 -104.921 
L 81.587573 -107.880516 
L 81.406226 -110.840031 
L 81.328352 -113.799547 
L 81.363188 -116.759062 
L 81.515202 -119.718578 
L 81.783474 -122.678094 
L 82.161741 -125.637609 
L 82.639039 -128.597125 
L 83.200844 -131.556641 
L 83.830539 -134.516156 
L 84.51104 -137.475672 
L 85.226406 -140.435187 
L 85.963246 -143.394703 
L 86.711809 -146.354219 
L 87.466639 -149.313734 
L 88.226752 -152.27325 
L 88.995332 -155.232766 
L 89.778998 -158.192281 
L 90.586712 -161.151797 
L 91.428476 -164.111312 
L 92.313927 -167.070828 
L 93.250983 -170.030344 
L 94.244667 -172.989859 
L 95.296219 -175.949375 
L 96.402564 -178.908891 
L 97.556202 -181.868406 
L 98.745509 -184.827922 
L 99.955432 -187.787438 
L 101.168524 -190.746953 
L 102.366219 -193.706469 
L 103.530229 -196.665984 
L 104.643943 -199.6255 
L 105.693681 -202.585016 
L 106.66967 -205.544531 
L 107.566648 -208.504047 
L 108.384015 -211.463563 
L 109.125516 -214.423078 
L 109.798496 -217.382594 
L 110.412802 -220.342109 
L 110.979491 -223.301625 
L 111.509469 -226.261141 
L 112.012271 -229.220656 
L 112.495095 -232.180172 
L 112.96224 -235.139688 
L 113.414978 -238.099203 
L 113.851885 -241.058719 
L 114.269554 -244.018234 
L 114.663571 -246.97775 
L 115.029625 -249.937266 
L 115.364567 -252.896781 
L 115.667272 -255.856297 
L 115.939185 -258.815813 
L 116.184473 -261.775328 
L 116.409758 -264.734844 
L 116.623476 -267.694359 
L 116.834958 -270.653875 
L 117.053351 -273.613391 
L 117.286525 -276.572906 
L 117.540134 -279.532422 
L 117.816918 -282.491938 
L 118.116378 -285.451453 
L 118.434819 -288.410969 
L 118.765782 -291.370485 
L 119.100781 -294.33 
L 119.430262 -297.289516 
L 119.744641 -300.249031 
L 120.035318 -303.208547 
L 120.295532 -306.168063 
L 120.520964 -309.127578 
L 120.710056 -312.087094 
L 120.864 -315.04661 
L 120.98645 -318.006125 
L 121.082995 -320.965641 
L 121.160491 -323.925156 
L 121.226321 -326.884672 
L 121.287695 -329.844188 
L 121.351037 -332.803703 
L 121.421537 -335.763219 
L 121.502878 -338.722735 
L 121.597147 -341.68225 
L 121.7049 -344.641766 
L 121.825364 -347.601281 
L 121.956713 -350.560797 
L 122.09638 -353.520313 
L 122.241375 -356.479828 
L 125.252288 -356.479828 
L 125.252288 -356.479828 
L 125.397283 -353.520313 
L 125.53695 -350.560797 
L 125.668299 -347.601281 
L 125.788763 -344.641766 
L 125.896516 -341.68225 
L 125.990785 -338.722735 
L 126.072126 -335.763219 
L 126.142626 -332.803703 
L 126.205968 -329.844188 
L 126.267342 -326.884672 
L 126.333172 -323.925156 
L 126.410668 -320.965641 
L 126.507213 -318.006125 
L 126.629663 -315.04661 
L 126.783607 -312.087094 
L 126.972699 -309.127578 
L 127.198131 -306.168063 
L 127.458345 -303.208547 
L 127.749022 -300.249031 
L 128.063401 -297.289516 
L 128.392882 -294.33 
L 128.727881 -291.370485 
L 129.058844 -288.410969 
L 129.377285 -285.451453 
L 129.676745 -282.491938 
L 129.953529 -279.532422 
L 130.207138 -276.572906 
L 130.440312 -273.613391 
L 130.658705 -270.653875 
L 130.870187 -267.694359 
L 131.083905 -264.734844 
L 131.30919 -261.775328 
L 131.554478 -258.815813 
L 131.826391 -255.856297 
L 132.129096 -252.896781 
L 132.464038 -249.937266 
L 132.830092 -246.97775 
L 133.224109 -244.018234 
L 133.641778 -241.058719 
L 134.078685 -238.099203 
L 134.531423 -235.139688 
L 134.998568 -232.180172 
L 135.481392 -229.220656 
L 135.984194 -226.261141 
L 136.514172 -223.301625 
L 137.080861 -220.342109 
L 137.695167 -217.382594 
L 138.368147 -214.423078 
L 139.109648 -211.463563 
L 139.927015 -208.504047 
L 140.823993 -205.544531 
L 141.799982 -202.585016 
L 142.84972 -199.6255 
L 143.963434 -196.665984 
L 145.127444 -193.706469 
L 146.325139 -190.746953 
L 147.538231 -187.787438 
L 148.748154 -184.827922 
L 149.937461 -181.868406 
L 151.091099 -178.908891 
L 152.197444 -175.949375 
L 153.248996 -172.989859 
L 154.24268 -170.030344 
L 155.179736 -167.070828 
L 156.065187 -164.111312 
L 156.906951 -161.151797 
L 157.714665 -158.192281 
L 158.498331 -155.232766 
L 159.266911 -152.27325 
L 160.027024 -149.313734 
L 160.781854 -146.354219 
L 161.530417 -143.394703 
L 162.267257 -140.435187 
L 162.982623 -137.475672 
L 163.663124 -134.516156 
L 164.292819 -131.556641 
L 164.854624 -128.597125 
L 165.331922 -125.637609 
L 165.710189 -122.678094 
L 165.978461 -119.718578 
L 166.130475 -116.759062 
L 166.165311 -113.799547 
L 166.087437 -110.840031 
L 165.90609 -107.880516 
L 165.634014 -104.921 
L 165.285658 -101.961484 
L 164.875011 -99.001969 
L 164.413322 -96.042453 
L 163.906995 -93.082937 
L 163.355966 -90.123422 
L 162.752816 -87.163906 
L 162.082829 -84.204391 
L 161.325061 -81.244875 
L 160.454378 -78.285359 
L 159.444275 -75.325844 
L 158.270176 -72.366328 
L 156.912811 -69.406812 
L 155.361271 -66.447297 
L 153.615333 -63.487781 
z
" style="stroke: #000000; stroke-opacity: 0.7"/>
    </defs>
    <g clip-path="url(#pc4e0613a70)">
     <use xlink:href="#m55f1de3e51" x="0" y="432" style="fill: #440154; fill-opacity: 0.7; stroke: #000000; stroke-opacity: 0.7"/>
    </g>
   </g>
   <g id="PolyCollection_2">
    <defs>
     <path id="m22a7f7a26c" d="M 316.316535 -63.487781 
L 270.524964 -63.487781 
L 269.280035 -66.242503 
L 268.213164 -68.997224 
L 267.318135 -71.751946 
L 266.576875 -74.506667 
L 265.961239 -77.261389 
L 265.435571 -80.01611 
L 264.959765 -82.770832 
L 264.492543 -85.525554 
L 263.994674 -88.280275 
L 263.431931 -91.034997 
L 262.777589 -93.789718 
L 262.014372 -96.54444 
L 261.135742 -99.299161 
L 260.146512 -102.053883 
L 259.062724 -104.808605 
L 257.910798 -107.563326 
L 256.725954 -110.318048 
L 255.549948 -113.072769 
L 254.428206 -115.827491 
L 253.406527 -118.582212 
L 252.527558 -121.336934 
L 251.827355 -124.091656 
L 251.332323 -126.846377 
L 251.056907 -129.601099 
L 251.00227 -132.35582 
L 251.156196 -135.110542 
L 251.494245 -137.865263 
L 251.98208 -140.619985 
L 252.578737 -143.374706 
L 253.240464 -146.129428 
L 253.924715 -148.88415 
L 254.593864 -151.638871 
L 255.218255 -154.393593 
L 255.778308 -157.148314 
L 256.265537 -159.903036 
L 256.682456 -162.657757 
L 257.041491 -165.412479 
L 257.363094 -168.167201 
L 257.673315 -170.921922 
L 258.001116 -173.676644 
L 258.375669 -176.431365 
L 258.823885 -179.186087 
L 259.368342 -181.940808 
L 260.025739 -184.69553 
L 260.805949 -187.450251 
L 261.711694 -190.204973 
L 262.738809 -192.959695 
L 263.877026 -195.714416 
L 265.11116 -198.469138 
L 266.422569 -201.223859 
L 267.790718 -203.978581 
L 269.194702 -206.733302 
L 270.614576 -209.488024 
L 272.032395 -212.242746 
L 273.432875 -214.997467 
L 274.803671 -217.752189 
L 276.135285 -220.50691 
L 277.420672 -223.261632 
L 278.654642 -226.016353 
L 279.833154 -228.771075 
L 280.952636 -231.525796 
L 282.009413 -234.280518 
L 282.999328 -237.03524 
L 283.917605 -239.789961 
L 284.758965 -242.544683 
L 285.517985 -245.299404 
L 286.189643 -248.054126 
L 286.769984 -250.808847 
L 287.256819 -253.563569 
L 287.650367 -256.318291 
L 287.953744 -259.073012 
L 288.173245 -261.827734 
L 288.318344 -264.582455 
L 288.401417 -267.337177 
L 288.437182 -270.091898 
L 288.441899 -272.84662 
L 288.432401 -275.601342 
L 288.425045 -278.356063 
L 288.434664 -281.110785 
L 288.473645 -283.865506 
L 288.551184 -286.620228 
L 288.672811 -289.374949 
L 288.84022 -292.129671 
L 289.051402 -294.884392 
L 289.301075 -297.639114 
L 289.581351 -300.393836 
L 289.882581 -303.148557 
L 290.194274 -305.903279 
L 290.506022 -308.658 
L 290.808328 -311.412722 
L 291.093269 -314.167443 
L 291.354955 -316.922165 
L 291.589745 -319.676887 
L 291.796229 -322.431608 
L 291.975005 -325.18633 
L 292.128296 -327.941051 
L 292.259461 -330.695773 
L 292.372476 -333.450494 
L 292.471434 -336.205216 
L 294.370065 -336.205216 
L 294.370065 -336.205216 
L 294.469023 -333.450494 
L 294.582038 -330.695773 
L 294.713203 -327.941051 
L 294.866493 -325.18633 
L 295.04527 -322.431608 
L 295.251754 -319.676887 
L 295.486543 -316.922165 
L 295.74823 -314.167443 
L 296.033171 -311.412722 
L 296.335477 -308.658 
L 296.647225 -305.903279 
L 296.958918 -303.148557 
L 297.260147 -300.393836 
L 297.540424 -297.639114 
L 297.790096 -294.884392 
L 298.001279 -292.129671 
L 298.168688 -289.374949 
L 298.290315 -286.620228 
L 298.367853 -283.865506 
L 298.406834 -281.110785 
L 298.416454 -278.356063 
L 298.409097 -275.601342 
L 298.3996 -272.84662 
L 298.404317 -270.091898 
L 298.440082 -267.337177 
L 298.523155 -264.582455 
L 298.668254 -261.827734 
L 298.887754 -259.073012 
L 299.191132 -256.318291 
L 299.58468 -253.563569 
L 300.071515 -250.808847 
L 300.651856 -248.054126 
L 301.323513 -245.299404 
L 302.082533 -242.544683 
L 302.923894 -239.789961 
L 303.842171 -237.03524 
L 304.832086 -234.280518 
L 305.888863 -231.525796 
L 307.008345 -228.771075 
L 308.186857 -226.016353 
L 309.420826 -223.261632 
L 310.706214 -220.50691 
L 312.037828 -217.752189 
L 313.408623 -214.997467 
L 314.809103 -212.242746 
L 316.226922 -209.488024 
L 317.646797 -206.733302 
L 319.050781 -203.978581 
L 320.41893 -201.223859 
L 321.730339 -198.469138 
L 322.964473 -195.714416 
L 324.102689 -192.959695 
L 325.129805 -190.204973 
L 326.03555 -187.450251 
L 326.81576 -184.69553 
L 327.473157 -181.940808 
L 328.017614 -179.186087 
L 328.46583 -176.431365 
L 328.840382 -173.676644 
L 329.168183 -170.921922 
L 329.478405 -168.167201 
L 329.800007 -165.412479 
L 330.159042 -162.657757 
L 330.575961 -159.903036 
L 331.063191 -157.148314 
L 331.623244 -154.393593 
L 332.247634 -151.638871 
L 332.916783 -148.88415 
L 333.601034 -146.129428 
L 334.262762 -143.374706 
L 334.859419 -140.619985 
L 335.347254 -137.865263 
L 335.685302 -135.110542 
L 335.839229 -132.35582 
L 335.784592 -129.601099 
L 335.509175 -126.846377 
L 335.014144 -124.091656 
L 334.31394 -121.336934 
L 333.434972 -118.582212 
L 332.413292 -115.827491 
L 331.291551 -113.072769 
L 330.115545 -110.318048 
L 328.930701 -107.563326 
L 327.778775 -104.808605 
L 326.694986 -102.053883 
L 325.705756 -99.299161 
L 324.827127 -96.54444 
L 324.06391 -93.789718 
L 323.409568 -91.034997 
L 322.846824 -88.280275 
L 322.348956 -85.525554 
L 321.881733 -82.770832 
L 321.405928 -80.01611 
L 320.88026 -77.261389 
L 320.264624 -74.506667 
L 319.523363 -71.751946 
L 318.628335 -68.997224 
L 317.561463 -66.242503 
L 316.316535 -63.487781 
z
" style="stroke: #000000; stroke-opacity: 0.7"/>
    </defs>
    <g clip-path="url(#pc4e0613a70)">
     <use xlink:href="#m22a7f7a26c" x="0" y="432" style="fill: #31688e; fill-opacity: 0.7; stroke: #000000; stroke-opacity: 0.7"/>
    </g>
   </g>
   <g id="PolyCollection_3">
    <defs>
     <path id="md3d5276eb4" d="M 499.407074 -63.487781 
L 426.782261 -63.487781 
L 424.932337 -66.472015 
L 423.410983 -69.45625 
L 422.233094 -72.440484 
L 421.397635 -75.424718 
L 420.88847 -78.408953 
L 420.676188 -81.393187 
L 420.720755 -84.377421 
L 420.974713 -87.361655 
L 421.386665 -90.34589 
L 421.904781 -93.330124 
L 422.480071 -96.314358 
L 423.069231 -99.298593 
L 423.63689 -102.282827 
L 424.15715 -105.267061 
L 424.614347 -108.251295 
L 425.003022 -111.23553 
L 425.327126 -114.219764 
L 425.598568 -117.203998 
L 425.835213 -120.188233 
L 426.058545 -123.172467 
L 426.291186 -126.156701 
L 426.554502 -129.140935 
L 426.866524 -132.12517 
L 427.240362 -135.109404 
L 427.683237 -138.093638 
L 428.196205 -141.077873 
L 428.774542 -144.062107 
L 429.408714 -147.046341 
L 430.08576 -150.030575 
L 430.790931 -153.01481 
L 431.509347 -155.999044 
L 432.227513 -158.983278 
L 432.934528 -161.967513 
L 433.622882 -164.951747 
L 434.288797 -167.935981 
L 434.932124 -170.920215 
L 435.55586 -173.90445 
L 436.165374 -176.888684 
L 436.767472 -179.872918 
L 437.36942 -182.857153 
L 437.978047 -185.841387 
L 438.599019 -188.825621 
L 439.236352 -191.809855 
L 439.892187 -194.79409 
L 440.566821 -197.778324 
L 441.258945 -200.762558 
L 441.966043 -203.746793 
L 442.68484 -206.731027 
L 443.411751 -209.715261 
L 444.143249 -212.699495 
L 444.876099 -215.68373 
L 445.607459 -218.667964 
L 446.334828 -221.652198 
L 447.055895 -224.636433 
L 447.768323 -227.620667 
L 448.46953 -230.604901 
L 449.156512 -233.589135 
L 449.825756 -236.57337 
L 450.473258 -239.557604 
L 451.09466 -242.541838 
L 451.685499 -245.526073 
L 452.24152 -248.510307 
L 452.759058 -251.494541 
L 453.235404 -254.478775 
L 453.669158 -257.46301 
L 454.060508 -260.447244 
L 454.411409 -263.431478 
L 454.725647 -266.415713 
L 455.008757 -269.399947 
L 455.267809 -272.384181 
L 455.51104 -275.368415 
L 455.747369 -278.35265 
L 455.985821 -281.336884 
L 456.234896 -284.321118 
L 456.501936 -287.305353 
L 456.792556 -290.289587 
L 457.110188 -293.273821 
L 457.455787 -296.258055 
L 457.82774 -299.24229 
L 458.221978 -302.226524 
L 458.632305 -305.210758 
L 459.050891 -308.194993 
L 459.468893 -311.179227 
L 459.877138 -314.163461 
L 460.266811 -317.147695 
L 460.630068 -320.13193 
L 460.960545 -323.116164 
L 461.253708 -326.100398 
L 461.507039 -329.084633 
L 461.72005 -332.068867 
L 461.894144 -335.053101 
L 462.032349 -338.037335 
L 462.138962 -341.02157 
L 462.21914 -344.005804 
L 462.278473 -346.990038 
L 462.322582 -349.974273 
L 462.356757 -352.958507 
L 462.385669 -355.942741 
L 462.413162 -358.926975 
L 463.776172 -358.926975 
L 463.776172 -358.926975 
L 463.803665 -355.942741 
L 463.832577 -352.958507 
L 463.866752 -349.974273 
L 463.910861 -346.990038 
L 463.970194 -344.005804 
L 464.050372 -341.02157 
L 464.156985 -338.037335 
L 464.29519 -335.053101 
L 464.469284 -332.068867 
L 464.682295 -329.084633 
L 464.935626 -326.100398 
L 465.228789 -323.116164 
L 465.559266 -320.13193 
L 465.922523 -317.147695 
L 466.312196 -314.163461 
L 466.720442 -311.179227 
L 467.138443 -308.194993 
L 467.55703 -305.210758 
L 467.967357 -302.226524 
L 468.361595 -299.24229 
L 468.733547 -296.258055 
L 469.079146 -293.273821 
L 469.396778 -290.289587 
L 469.687398 -287.305353 
L 469.954438 -284.321118 
L 470.203513 -281.336884 
L 470.441965 -278.35265 
L 470.678295 -275.368415 
L 470.921525 -272.384181 
L 471.180577 -269.399947 
L 471.463688 -266.415713 
L 471.777925 -263.431478 
L 472.128826 -260.447244 
L 472.520176 -257.46301 
L 472.95393 -254.478775 
L 473.430276 -251.494541 
L 473.947814 -248.510307 
L 474.503836 -245.526073 
L 475.094674 -242.541838 
L 475.716077 -239.557604 
L 476.363578 -236.57337 
L 477.032822 -233.589135 
L 477.719805 -230.604901 
L 478.421012 -227.620667 
L 479.133439 -224.636433 
L 479.854506 -221.652198 
L 480.581875 -218.667964 
L 481.313235 -215.68373 
L 482.046086 -212.699495 
L 482.777583 -209.715261 
L 483.504494 -206.731027 
L 484.223291 -203.746793 
L 484.930389 -200.762558 
L 485.622514 -197.778324 
L 486.297147 -194.79409 
L 486.952982 -191.809855 
L 487.590315 -188.825621 
L 488.211287 -185.841387 
L 488.819914 -182.857153 
L 489.421862 -179.872918 
L 490.02396 -176.888684 
L 490.633475 -173.90445 
L 491.257211 -170.920215 
L 491.900538 -167.935981 
L 492.566452 -164.951747 
L 493.254806 -161.967513 
L 493.961821 -158.983278 
L 494.679987 -155.999044 
L 495.398403 -153.01481 
L 496.103574 -150.030575 
L 496.780621 -147.046341 
L 497.414792 -144.062107 
L 497.993129 -141.077873 
L 498.506097 -138.093638 
L 498.948972 -135.109404 
L 499.32281 -132.12517 
L 499.634832 -129.140935 
L 499.898148 -126.156701 
L 500.130789 -123.172467 
L 500.354122 -120.188233 
L 500.590767 -117.203998 
L 500.862208 -114.219764 
L 501.186313 -111.23553 
L 501.574987 -108.251295 
L 502.032184 -105.267061 
L 502.552444 -102.282827 
L 503.120103 -99.298593 
L 503.709263 -96.314358 
L 504.284553 -93.330124 
L 504.802669 -90.34589 
L 505.214622 -87.361655 
L 505.468579 -84.377421 
L 505.513147 -81.393187 
L 505.300865 -78.408953 
L 504.791699 -75.424718 
L 503.956241 -72.440484 
L 502.778351 -69.45625 
L 501.256997 -66.472015 
L 499.407074 -63.487781 
z
" style="stroke: #000000; stroke-opacity: 0.7"/>
    </defs>
    <g clip-path="url(#pc4e0613a70)">
     <use xlink:href="#md3d5276eb4" x="0" y="432" style="fill: #35b779; fill-opacity: 0.7; stroke: #000000; stroke-opacity: 0.7"/>
    </g>
   </g>
   <g id="PolyCollection_4">
    <defs>
     <path id="mf8945c49b6" d="M 665.13239 -63.487781 
L 600.40478 -63.487781 
L 598.518801 -66.743175 
L 596.908228 -69.998569 
L 595.569981 -73.253963 
L 594.485024 -76.509357 
L 593.622231 -79.76475 
L 592.943211 -83.020144 
L 592.407414 -86.275538 
L 591.976814 -89.530932 
L 591.619638 -92.786326 
L 591.312809 -96.04172 
L 591.042965 -99.297113 
L 590.806183 -102.552507 
L 590.606648 -105.807901 
L 590.454611 -109.063295 
L 590.364014 -112.318689 
L 590.350105 -115.574083 
L 590.427308 -118.829477 
L 590.60751 -122.08487 
L 590.898889 -125.340264 
L 591.305292 -128.595658 
L 591.826151 -131.851052 
L 592.45688 -135.106446 
L 593.189649 -138.36184 
L 594.014432 -141.617234 
L 594.920149 -144.872627 
L 595.895781 -148.128021 
L 596.931285 -151.383415 
L 598.018203 -154.638809 
L 599.149894 -157.894203 
L 600.321374 -161.149597 
L 601.528842 -164.40499 
L 602.768976 -167.660384 
L 604.038156 -170.915778 
L 605.331723 -174.171172 
L 606.643412 -177.426566 
L 607.964995 -180.68196 
L 609.286189 -183.937354 
L 610.59478 -187.192747 
L 611.876952 -190.448141 
L 613.117757 -193.703535 
L 614.301689 -196.958929 
L 615.413347 -200.214323 
L 616.438153 -203.469717 
L 617.363126 -206.725111 
L 618.177688 -209.980504 
L 618.87446 -213.235898 
L 619.449986 -216.491292 
L 619.905311 -219.746686 
L 620.246315 -223.00208 
L 620.483724 -226.257474 
L 620.632752 -229.512867 
L 620.712345 -232.768261 
L 620.744074 -236.023655 
L 620.750768 -239.279049 
L 620.755015 -242.534443 
L 620.777695 -245.789837 
L 620.836699 -249.045231 
L 620.945975 -252.300624 
L 621.114992 -255.556018 
L 621.34865 -258.811412 
L 621.647614 -262.066806 
L 622.008974 -265.3222 
L 622.427127 -268.577594 
L 622.894714 -271.832988 
L 623.403502 -275.088381 
L 623.945103 -278.343775 
L 624.511453 -281.599169 
L 625.095069 -284.854563 
L 625.689075 -288.109957 
L 626.287101 -291.365351 
L 626.883093 -294.620744 
L 627.471141 -297.876138 
L 628.045366 -301.131532 
L 628.599911 -304.386926 
L 629.129043 -307.64232 
L 629.627336 -310.897714 
L 630.089922 -314.153108 
L 630.512737 -317.408501 
L 630.892736 -320.663895 
L 631.228036 -323.919289 
L 631.517967 -327.174683 
L 631.76303 -330.430077 
L 631.964771 -333.685471 
L 632.125599 -336.940865 
L 632.248586 -340.196258 
L 632.337256 -343.451652 
L 632.395422 -346.707046 
L 632.427052 -349.96244 
L 632.436191 -353.217834 
L 632.426919 -356.473228 
L 632.403335 -359.728622 
L 632.369541 -362.984015 
L 632.329609 -366.239409 
L 632.287517 -369.494803 
L 632.247041 -372.750197 
L 632.211616 -376.005591 
L 632.184178 -379.260985 
L 632.167004 -382.516378 
L 632.161583 -385.771772 
L 633.375587 -385.771772 
L 633.375587 -385.771772 
L 633.370166 -382.516378 
L 633.352992 -379.260985 
L 633.325554 -376.005591 
L 633.290129 -372.750197 
L 633.249653 -369.494803 
L 633.207561 -366.239409 
L 633.167629 -362.984015 
L 633.133835 -359.728622 
L 633.110251 -356.473228 
L 633.100979 -353.217834 
L 633.110117 -349.96244 
L 633.141747 -346.707046 
L 633.199914 -343.451652 
L 633.288584 -340.196258 
L 633.411571 -336.940865 
L 633.572399 -333.685471 
L 633.77414 -330.430077 
L 634.019203 -327.174683 
L 634.309134 -323.919289 
L 634.644434 -320.663895 
L 635.024433 -317.408501 
L 635.447248 -314.153108 
L 635.909834 -310.897714 
L 636.408127 -307.64232 
L 636.937258 -304.386926 
L 637.491804 -301.131532 
L 638.066029 -297.876138 
L 638.654077 -294.620744 
L 639.250069 -291.365351 
L 639.848094 -288.109957 
L 640.442101 -284.854563 
L 641.025716 -281.599169 
L 641.592067 -278.343775 
L 642.133668 -275.088381 
L 642.642456 -271.832988 
L 643.110043 -268.577594 
L 643.528195 -265.3222 
L 643.889556 -262.066806 
L 644.188519 -258.811412 
L 644.422178 -255.556018 
L 644.591194 -252.300624 
L 644.700471 -249.045231 
L 644.759475 -245.789837 
L 644.782155 -242.534443 
L 644.786402 -239.279049 
L 644.793096 -236.023655 
L 644.824825 -232.768261 
L 644.904418 -229.512867 
L 645.053446 -226.257474 
L 645.290855 -223.00208 
L 645.631858 -219.746686 
L 646.087184 -216.491292 
L 646.66271 -213.235898 
L 647.359482 -209.980504 
L 648.174044 -206.725111 
L 649.099017 -203.469717 
L 650.123822 -200.214323 
L 651.235481 -196.958929 
L 652.419413 -193.703535 
L 653.660218 -190.448141 
L 654.94239 -187.192747 
L 656.250981 -183.937354 
L 657.572175 -180.68196 
L 658.893758 -177.426566 
L 660.205446 -174.171172 
L 661.499014 -170.915778 
L 662.768193 -167.660384 
L 664.008328 -164.40499 
L 665.215796 -161.149597 
L 666.387276 -157.894203 
L 667.518966 -154.638809 
L 668.605885 -151.383415 
L 669.641389 -148.128021 
L 670.617021 -144.872627 
L 671.522738 -141.617234 
L 672.34752 -138.36184 
L 673.08029 -135.106446 
L 673.711019 -131.851052 
L 674.231878 -128.595658 
L 674.638281 -125.340264 
L 674.92966 -122.08487 
L 675.109862 -118.829477 
L 675.187064 -115.574083 
L 675.173156 -112.318689 
L 675.082559 -109.063295 
L 674.930522 -105.807901 
L 674.730987 -102.552507 
L 674.494205 -99.297113 
L 674.224361 -96.04172 
L 673.917531 -92.786326 
L 673.560356 -89.530932 
L 673.129756 -86.275538 
L 672.593959 -83.020144 
L 671.914939 -79.76475 
L 671.052146 -76.509357 
L 669.967189 -73.253963 
L 668.628942 -69.998569 
L 667.018369 -66.743175 
L 665.13239 -63.487781 
z
" style="stroke: #000000; stroke-opacity: 0.7"/>
    </defs>
    <g clip-path="url(#pc4e0613a70)">
     <use xlink:href="#mf8945c49b6" x="0" y="432" style="fill: #fde725; fill-opacity: 0.7; stroke: #000000; stroke-opacity: 0.7"/>
    </g>
   </g>
   <g id="matplotlib.axis_1">
    <g id="xtick_1">
     <g id="line2d_1">
      <defs>
       <path id="md12f469d5b" d="M 0 0 
L 0 3.5 
" style="stroke: #000000; stroke-width: 0.8"/>
      </defs>
      <g>
       <use xlink:href="#md12f469d5b" x="123.746832" y="384.626418" style="stroke: #000000; stroke-width: 0.8"/>
      </g>
     </g>
     <g id="text_1">
      <!-- Borda rule -->
      <g transform="translate(98.221648 399.236765) scale(0.11 -0.11)">
       <defs>
        <path id="CMR17-42" d="M 333 4352 
L 333 4186 
C 774 4186 845 4186 845 3900 
L 845 452 
C 845 166 774 166 333 166 
L 333 0 
L 2534 0 
C 3354 0 3885 583 3885 1164 
C 3885 1741 3360 2233 2675 2233 
C 3290 2356 3718 2771 3718 3264 
C 3718 3802 3194 4352 2368 4352 
L 333 4352 
z
M 1248 2304 
L 1248 3937 
C 1248 4155 1261 4186 1517 4186 
L 2336 4186 
C 2970 4186 3251 3674 3251 3277 
C 3251 2791 2861 2304 2170 2304 
L 1248 2304 
z
M 1517 166 
C 1261 166 1248 197 1248 413 
L 1248 2202 
L 2432 2202 
C 3091 2202 3411 1625 3411 1162 
C 3411 699 3046 166 2349 166 
L 1517 166 
z
" transform="scale(0.015625)"/>
        <path id="CMR17-6f" d="M 2758 1356 
C 2758 2176 2163 2816 1466 2816 
C 768 2816 173 2176 173 1356 
C 173 551 768 -64 1466 -64 
C 2163 -64 2758 551 2758 1356 
z
M 1466 51 
C 1165 51 909 230 762 480 
C 602 767 582 1126 582 1408 
C 582 1677 595 2010 762 2298 
C 890 2509 1139 2714 1466 2714 
C 1754 2714 1997 2554 2150 2330 
C 2349 2029 2349 1607 2349 1408 
C 2349 1158 2336 775 2163 467 
C 1984 173 1709 51 1466 51 
z
" transform="scale(0.015625)"/>
        <path id="CMR17-72" d="M 960 1497 
C 960 2112 1222 2688 1702 2688 
C 1747 2688 1792 2682 1837 2662 
C 1837 2662 1696 2617 1696 2452 
C 1696 2298 1818 2234 1914 2234 
C 1990 2234 2131 2279 2131 2458 
C 2131 2663 1926 2790 1709 2790 
C 1222 2790 1011 2317 947 2093 
L 941 2093 
L 941 2790 
L 198 2720 
L 198 2554 
C 576 2554 634 2515 634 2208 
L 634 428 
C 634 184 608 153 198 153 
L 198 -13 
C 352 0 646 0 813 0 
C 998 0 1325 0 1498 -13 
L 1498 153 
C 1037 153 960 153 960 440 
L 960 1497 
z
" transform="scale(0.015625)"/>
        <path id="CMR17-64" d="M 1869 4326 
L 1869 4160 
C 2246 4160 2304 4122 2304 3820 
L 2304 2345 
C 2278 2377 2016 2790 1498 2790 
C 845 2790 211 2208 211 1364 
C 211 525 806 -64 1434 -64 
C 1978 -64 2259 337 2291 380 
L 2291 -63 
L 3066 -63 
L 3066 128 
C 2688 128 2630 166 2630 473 
L 2630 4396 
L 1869 4326 
z
M 2291 755 
C 2291 563 2176 390 2029 262 
C 1811 70 1594 38 1472 38 
C 1286 38 621 134 621 1356 
C 621 2612 1363 2688 1530 2688 
C 1824 2688 2061 2522 2208 2291 
C 2291 2157 2291 2138 2291 2023 
L 2291 755 
z
" transform="scale(0.015625)"/>
        <path id="CMR17-61" d="M 2304 1653 
C 2304 2072 2304 2294 2035 2543 
C 1798 2752 1523 2816 1306 2816 
C 800 2816 435 2407 435 1971 
C 435 1728 627 1728 666 1728 
C 749 1728 896 1778 896 1954 
C 896 2112 774 2181 666 2181 
C 640 2181 608 2174 589 2168 
C 723 2592 1069 2714 1293 2714 
C 1613 2714 1965 2429 1965 1885 
L 1965 1600 
C 1587 1600 1133 1549 774 1357 
C 371 1133 256 813 256 570 
C 256 77 832 -64 1171 -64 
C 1523 -64 1850 139 1990 511 
C 2003 233 2182 -18 2464 -18 
C 2598 -18 2938 70 2938 567 
L 2938 920 
L 2822 920 
L 2822 562 
C 2822 178 2650 128 2566 128 
C 2304 128 2304 458 2304 738 
L 2304 1653 
z
M 1965 870 
C 1965 317 1568 38 1216 38 
C 896 38 646 275 646 570 
C 646 761 730 1100 1101 1305 
C 1408 1478 1760 1504 1965 1504 
L 1965 870 
z
" transform="scale(0.015625)"/>
        <path id="CMR17-75" d="M 1882 2693 
L 1882 2528 
C 2259 2528 2317 2489 2317 2186 
L 2317 1032 
C 2317 500 2029 38 1555 38 
C 1030 38 986 348 986 678 
L 986 2763 
L 211 2693 
L 211 2528 
C 467 2528 640 2528 646 2274 
L 646 1058 
C 646 633 646 361 813 183 
C 896 101 1056 -64 1517 -64 
C 2061 -64 2272 377 2323 506 
L 2330 506 
L 2330 -63 
L 3091 -63 
L 3091 128 
C 2714 128 2656 166 2656 473 
L 2656 2763 
L 1882 2693 
z
" transform="scale(0.015625)"/>
        <path id="CMR17-6c" d="M 979 4396 
L 218 4326 
L 218 4160 
C 595 4160 653 4122 653 3817 
L 653 426 
C 653 184 627 153 218 153 
L 218 -13 
C 371 0 653 0 813 0 
C 979 0 1261 0 1414 -13 
L 1414 153 
C 1005 153 979 178 979 426 
L 979 4396 
z
" transform="scale(0.015625)"/>
        <path id="CMR17-65" d="M 2438 1472 
C 2464 1498 2464 1511 2464 1576 
C 2464 2238 2118 2816 1389 2816 
C 710 2816 173 2169 173 1383 
C 173 551 781 -64 1459 -64 
C 2176 -64 2458 607 2458 740 
C 2458 784 2419 784 2406 784 
C 2362 784 2355 771 2330 696 
C 2189 265 1837 51 1504 51 
C 1229 51 954 203 781 480 
C 582 803 582 1176 582 1472 
L 2438 1472 
z
M 589 1568 
C 634 2505 1126 2714 1382 2714 
C 1818 2714 2112 2297 2118 1568 
L 589 1568 
z
" transform="scale(0.015625)"/>
       </defs>
       <use xlink:href="#CMR17-42" transform="scale(0.996264)"/>
       <use xlink:href="#CMR17-6f" transform="translate(65.188754 0) scale(0.996264)"/>
       <use xlink:href="#CMR17-72" transform="translate(110.879232 0) scale(0.996264)"/>
       <use xlink:href="#CMR17-64" transform="translate(146.159999 0) scale(0.996264)"/>
       <use xlink:href="#CMR17-61" transform="translate(197.055369 0) scale(0.996264)"/>
       <use xlink:href="#CMR17-72" transform="translate(272.821813 0) scale(0.996264)"/>
       <use xlink:href="#CMR17-75" transform="translate(308.10258 0) scale(0.996264)"/>
       <use xlink:href="#CMR17-6c" transform="translate(358.99795 0) scale(0.996264)"/>
       <use xlink:href="#CMR17-65" transform="translate(383.869009 0) scale(0.996264)"/>
      </g>
     </g>
    </g>
    <g id="xtick_2">
     <g id="line2d_2">
      <g>
       <use xlink:href="#md12f469d5b" x="293.420749" y="384.626418" style="stroke: #000000; stroke-width: 0.8"/>
      </g>
     </g>
     <g id="text_2">
      <!-- Copeland's Rule -->
      <g transform="translate(254.19692 399.236765) scale(0.11 -0.11)">
       <defs>
        <path id="CMR17-43" d="M 3974 4289 
C 3974 4403 3968 4410 3930 4410 
C 3904 4410 3898 4403 3853 4327 
L 3571 3792 
C 3258 4187 2874 4416 2381 4416 
C 1286 4416 294 3456 294 2148 
C 294 826 1286 -128 2387 -128 
C 3366 -128 3974 730 3974 1461 
C 3974 1524 3974 1550 3917 1550 
C 3866 1550 3866 1531 3859 1474 
C 3808 585 3168 38 2477 38 
C 1824 38 781 495 781 2147 
C 781 3805 1843 4250 2464 4250 
C 3187 4250 3712 3628 3834 2745 
C 3846 2668 3846 2655 3904 2655 
C 3974 2655 3974 2668 3974 2783 
L 3974 4289 
z
" transform="scale(0.015625)"/>
        <path id="CMR17-70" d="M 1408 -1063 
C 998 -1063 973 -1037 973 -789 
L 973 402 
C 1158 134 1427 -38 1766 -38 
C 2406 -38 3053 523 3053 1388 
C 3053 2191 2496 2802 1837 2802 
C 1453 2802 1139 2592 960 2338 
L 960 2802 
L 198 2732 
L 198 2567 
C 576 2567 634 2528 634 2223 
L 634 -789 
C 634 -1031 608 -1063 198 -1063 
L 198 -1228 
C 352 -1216 634 -1216 800 -1216 
C 966 -1216 1254 -1216 1408 -1228 
L 1408 -1063 
z
M 973 2012 
C 973 2102 973 2235 1222 2471 
C 1254 2497 1472 2688 1792 2688 
C 2259 2688 2643 2108 2643 1382 
C 2643 656 2234 64 1728 64 
C 1498 64 1248 172 1056 472 
C 973 612 973 650 973 752 
L 973 2012 
z
" transform="scale(0.015625)"/>
        <path id="CMR17-6e" d="M 2656 1933 
C 2656 2259 2592 2790 1837 2790 
C 1331 2790 1069 2400 973 2144 
L 966 2144 
L 966 2790 
L 211 2720 
L 211 2554 
C 589 2554 646 2515 646 2208 
L 646 428 
C 646 184 621 153 211 153 
L 211 -13 
C 365 0 646 0 813 0 
C 979 0 1267 0 1421 -13 
L 1421 153 
C 1011 153 986 178 986 428 
L 986 1658 
C 986 2247 1344 2688 1792 2688 
C 2266 2688 2317 2266 2317 1958 
L 2317 428 
C 2317 184 2291 153 1882 153 
L 1882 -13 
C 2035 0 2317 0 2483 0 
C 2650 0 2938 0 3091 -13 
L 3091 153 
C 2682 153 2656 178 2656 428 
L 2656 1933 
z
" transform="scale(0.015625)"/>
        <path id="CMR17-27" d="M 1024 4025 
C 1037 3955 1043 3929 1043 3820 
C 1043 3415 883 3042 634 2778 
C 608 2752 595 2733 595 2707 
C 595 2681 621 2656 646 2656 
C 691 2656 1146 3105 1146 3811 
C 1146 3952 1133 4426 800 4426 
C 659 4426 538 4331 538 4165 
C 538 3999 659 3904 800 3904 
C 858 3904 966 3923 1024 4025 
z
" transform="scale(0.015625)"/>
        <path id="CMR17-73" d="M 1978 2697 
C 1978 2813 1971 2819 1933 2819 
C 1907 2819 1901 2813 1824 2717 
C 1805 2691 1747 2626 1728 2601 
C 1523 2819 1235 2819 1126 2819 
C 416 2819 160 2447 160 2076 
C 160 1498 813 1365 998 1325 
C 1402 1243 1542 1217 1677 1101 
C 1760 1025 1901 884 1901 654 
C 1901 384 1747 38 1158 38 
C 602 38 403 460 288 1021 
C 269 1110 269 1117 218 1117 
C 166 1117 160 1110 160 983 
L 160 63 
C 160 -51 166 -58 205 -58 
C 237 -58 243 -51 275 0 
C 314 57 410 211 448 276 
C 576 103 800 -64 1158 -64 
C 1792 -64 2131 283 2131 784 
C 2131 1112 1958 1285 1875 1362 
C 1683 1561 1459 1606 1190 1657 
C 838 1735 390 1825 390 2217 
C 390 2383 480 2737 1126 2737 
C 1811 2737 1850 2094 1862 1888 
C 1869 1856 1901 1849 1920 1849 
C 1978 1849 1978 1869 1978 1978 
L 1978 2697 
z
" transform="scale(0.015625)"/>
        <path id="CMR17-52" d="M 2509 2146 
C 3117 2268 3629 2676 3629 3186 
C 3629 3785 2950 4326 2054 4326 
L 333 4326 
L 333 4160 
C 774 4160 845 4160 845 3873 
L 845 415 
C 845 128 774 128 333 128 
L 333 -26 
C 518 -26 851 -26 1050 -26 
C 1248 -26 1581 -26 1766 -26 
L 1766 128 
C 1325 128 1254 128 1254 417 
L 1254 2112 
L 2003 2112 
C 2368 2112 2573 1964 2662 1881 
C 2918 1632 2918 1459 2918 1024 
C 2918 595 2918 377 3110 160 
C 3354 -102 3680 -128 3821 -128 
C 4294 -128 4365 396 4365 503 
C 4365 540 4365 585 4307 585 
C 4256 585 4250 547 4250 522 
C 4218 112 4032 -26 3834 -26 
C 3482 -26 3443 375 3405 764 
C 3386 898 3373 993 3360 1133 
C 3322 1452 3270 1917 2509 2146 
z
M 1984 2214 
L 1254 2214 
L 1254 3913 
C 1254 4129 1267 4160 1523 4160 
L 1990 4160 
C 2522 4160 3142 3977 3142 3190 
C 3142 2372 2464 2214 1984 2214 
z
" transform="scale(0.015625)"/>
       </defs>
       <use xlink:href="#CMR17-43" transform="scale(0.996264)"/>
       <use xlink:href="#CMR17-6f" transform="translate(66.509881 0) scale(0.996264)"/>
       <use xlink:href="#CMR17-70" transform="translate(112.200358 0) scale(0.996264)"/>
       <use xlink:href="#CMR17-65" transform="translate(165.698166 0) scale(0.996264)"/>
       <use xlink:href="#CMR17-6c" transform="translate(206.183827 0) scale(0.996264)"/>
       <use xlink:href="#CMR17-61" transform="translate(231.054885 0) scale(0.996264)"/>
       <use xlink:href="#CMR17-6e" transform="translate(276.745362 0) scale(0.996264)"/>
       <use xlink:href="#CMR17-64" transform="translate(327.640732 0) scale(0.996264)"/>
       <use xlink:href="#CMR17-27" transform="translate(378.536102 0) scale(0.996264)"/>
       <use xlink:href="#CMR17-73" transform="translate(403.40716 0) scale(0.996264)"/>
       <use xlink:href="#CMR17-52" transform="translate(469.284464 0) scale(0.996264)"/>
       <use xlink:href="#CMR17-75" transform="translate(537.075566 0) scale(0.996264)"/>
       <use xlink:href="#CMR17-6c" transform="translate(587.970936 0) scale(0.996264)"/>
       <use xlink:href="#CMR17-65" transform="translate(612.841994 0) scale(0.996264)"/>
      </g>
     </g>
    </g>
    <g id="xtick_3">
     <g id="line2d_3">
      <g>
       <use xlink:href="#md12f469d5b" x="463.094667" y="384.626418" style="stroke: #000000; stroke-width: 0.8"/>
      </g>
     </g>
     <g id="text_3">
      <!-- Plurality rule -->
      <g transform="translate(431.024584 399.236765) scale(0.11 -0.11)">
       <defs>
        <path id="CMR17-50" d="M 1267 2042 
L 2291 2042 
C 3117 2042 3718 2578 3718 3184 
C 3718 3791 3130 4352 2291 4352 
L 333 4352 
L 333 4186 
C 774 4186 845 4186 845 3899 
L 845 446 
C 845 160 774 160 333 160 
L 333 0 
C 518 0 858 0 1056 0 
C 1254 0 1594 0 1779 0 
L 1779 160 
C 1338 160 1267 160 1267 446 
L 1267 2042 
z
M 1254 2176 
L 1254 3938 
C 1254 4155 1267 4186 1523 4186 
L 2170 4186 
C 2995 4186 3232 3714 3232 3184 
C 3232 2604 2950 2176 2170 2176 
L 1254 2176 
z
" transform="scale(0.015625)"/>
        <path id="CMR17-69" d="M 992 3909 
C 992 4049 877 4170 730 4170 
C 589 4170 467 4056 467 3909 
C 467 3769 582 3648 730 3648 
C 870 3648 992 3763 992 3909 
z
M 243 2706 
L 243 2541 
C 602 2541 653 2502 653 2197 
L 653 427 
C 653 184 627 153 218 153 
L 218 -13 
C 371 0 646 0 806 0 
C 960 0 1222 0 1370 -13 
L 1370 153 
C 992 153 979 191 979 420 
L 979 2776 
L 243 2706 
z
" transform="scale(0.015625)"/>
        <path id="CMR17-74" d="M 966 2560 
L 1862 2560 
L 1862 2725 
L 966 2725 
L 966 3904 
L 851 3904 
C 838 3245 614 2668 70 2668 
L 70 2560 
L 627 2560 
L 627 771 
C 627 650 627 -64 1370 -64 
C 1747 -64 1965 306 1965 777 
L 1965 1140 
L 1850 1140 
L 1850 783 
C 1850 344 1677 51 1408 51 
C 1222 51 966 178 966 758 
L 966 2560 
z
" transform="scale(0.015625)"/>
        <path id="CMR17-79" d="M 2496 2197 
C 2656 2586 2944 2586 3034 2586 
L 3034 2752 
C 2912 2752 2752 2752 2630 2752 
C 2496 2752 2285 2752 2157 2758 
L 2157 2592 
C 2400 2573 2406 2394 2406 2343 
C 2406 2280 2394 2248 2362 2171 
L 1664 449 
L 902 2306 
C 870 2382 870 2426 870 2433 
C 870 2573 1018 2586 1171 2586 
L 1171 2758 
C 1018 2752 742 2752 582 2752 
C 410 2752 205 2752 64 2758 
L 64 2586 
C 410 2586 448 2554 531 2350 
L 1485 15 
C 1197 -738 1030 -1178 627 -1178 
C 557 -1178 397 -1159 282 -1044 
C 429 -1031 493 -942 493 -833 
C 493 -725 416 -629 288 -629 
C 147 -629 77 -725 77 -840 
C 77 -1095 339 -1280 627 -1280 
C 998 -1280 1229 -922 1357 -604 
L 2496 2197 
z
" transform="scale(0.015625)"/>
       </defs>
       <use xlink:href="#CMR17-50" transform="scale(0.996264)"/>
       <use xlink:href="#CMR17-6c" transform="translate(62.586301 0) scale(0.996264)"/>
       <use xlink:href="#CMR17-75" transform="translate(87.457359 0) scale(0.996264)"/>
       <use xlink:href="#CMR17-72" transform="translate(138.352729 0) scale(0.996264)"/>
       <use xlink:href="#CMR17-61" transform="translate(173.633497 0) scale(0.996264)"/>
       <use xlink:href="#CMR17-6c" transform="translate(219.323974 0) scale(0.996264)"/>
       <use xlink:href="#CMR17-69" transform="translate(244.195032 0) scale(0.996264)"/>
       <use xlink:href="#CMR17-74" transform="translate(269.066091 0) scale(0.996264)"/>
       <use xlink:href="#CMR17-79" transform="translate(301.744405 0) scale(0.996264)"/>
       <use xlink:href="#CMR17-72" transform="translate(380.113287 0) scale(0.996264)"/>
       <use xlink:href="#CMR17-75" transform="translate(415.394055 0) scale(0.996264)"/>
       <use xlink:href="#CMR17-6c" transform="translate(466.289424 0) scale(0.996264)"/>
       <use xlink:href="#CMR17-65" transform="translate(491.160483 0) scale(0.996264)"/>
      </g>
     </g>
    </g>
    <g id="xtick_4">
     <g id="line2d_4">
      <g>
       <use xlink:href="#md12f469d5b" x="632.768585" y="384.626418" style="stroke: #000000; stroke-width: 0.8"/>
      </g>
     </g>
     <g id="text_4">
      <!-- Black's Rule -->
      <g transform="translate(602.90552 399.236765) scale(0.11 -0.11)">
       <defs>
        <path id="CMR17-63" d="M 2234 2240 
C 2112 2240 1933 2240 1933 2017 
C 1933 1838 2080 1787 2163 1787 
C 2208 1787 2394 1807 2394 2024 
C 2394 2467 1958 2803 1466 2803 
C 787 2803 211 2178 211 1363 
C 211 516 813 -64 1466 -64 
C 2259 -64 2458 677 2458 748 
C 2458 774 2451 793 2406 793 
C 2362 793 2355 787 2330 703 
C 2163 180 1798 51 1523 51 
C 1114 51 621 427 621 1369 
C 621 2338 1094 2688 1472 2688 
C 1722 2688 2093 2573 2234 2240 
z
" transform="scale(0.015625)"/>
        <path id="CMR17-6b" d="M 1670 1673 
C 1664 1686 1632 1724 1632 1743 
C 1632 1756 2086 2171 2144 2222 
C 2509 2528 2739 2560 2906 2560 
L 2906 2733 
C 2867 2733 2854 2733 2848 2720 
L 2534 2720 
C 2355 2720 2080 2720 1907 2733 
L 1907 2566 
C 1997 2559 2061 2508 2061 2419 
C 2061 2291 1933 2170 1926 2170 
L 960 1289 
L 960 4396 
L 198 4326 
L 198 4160 
C 576 4160 634 4122 634 3817 
L 634 426 
C 634 184 608 153 198 153 
L 198 -13 
C 352 0 634 0 794 0 
C 954 0 1235 0 1389 -13 
L 1389 153 
C 979 153 954 178 954 428 
L 954 1130 
L 1395 1532 
L 2042 574 
C 2118 459 2182 369 2182 286 
C 2182 172 2067 153 1990 153 
L 1990 -13 
C 2144 0 2419 0 2579 0 
C 2694 0 2931 0 3040 0 
L 3040 153 
C 2739 153 2669 210 2477 491 
L 1670 1673 
z
" transform="scale(0.015625)"/>
       </defs>
       <use xlink:href="#CMR17-42" transform="scale(0.996264)"/>
       <use xlink:href="#CMR17-6c" transform="translate(65.188754 0) scale(0.996264)"/>
       <use xlink:href="#CMR17-61" transform="translate(90.059813 0) scale(0.996264)"/>
       <use xlink:href="#CMR17-63" transform="translate(135.75029 0) scale(0.996264)"/>
       <use xlink:href="#CMR17-6b" transform="translate(173.633497 0) scale(0.996264)"/>
       <use xlink:href="#CMR17-27" transform="translate(221.926412 0) scale(0.996264)"/>
       <use xlink:href="#CMR17-73" transform="translate(246.797471 0) scale(0.996264)"/>
       <use xlink:href="#CMR17-52" transform="translate(312.674775 0) scale(0.996264)"/>
       <use xlink:href="#CMR17-75" transform="translate(380.465877 0) scale(0.996264)"/>
       <use xlink:href="#CMR17-6c" transform="translate(431.361247 0) scale(0.996264)"/>
       <use xlink:href="#CMR17-65" transform="translate(456.232305 0) scale(0.996264)"/>
      </g>
     </g>
    </g>
    <g id="text_5">
     <!-- Number of voters -->
     <g transform="translate(329.964678 414.361688) scale(0.13 -0.13)">
      <defs>
       <path id="CMR17-4e" d="M 1312 4250 
C 1267 4320 1261 4320 1139 4320 
L 326 4320 
L 326 4160 
L 448 4160 
C 704 4160 819 4129 838 4122 
L 838 610 
C 838 451 838 153 326 153 
L 326 -13 
C 474 0 742 0 902 0 
C 1062 0 1331 0 1478 -13 
L 1478 153 
C 966 153 966 451 966 610 
L 966 4033 
C 1011 3995 1011 3982 1056 3919 
L 3430 76 
C 3475 0 3494 0 3526 0 
C 3590 0 3590 19 3590 139 
L 3590 3705 
C 3590 3863 3590 4160 4102 4160 
L 4102 4326 
C 3955 4320 3686 4320 3526 4320 
C 3366 4320 3098 4320 2950 4326 
L 2950 4160 
C 3462 4160 3462 3862 3462 3703 
L 3462 763 
L 1312 4250 
z
" transform="scale(0.015625)"/>
       <path id="CMR17-6d" d="M 4326 1933 
C 4326 2252 4269 2790 3507 2790 
C 3072 2790 2771 2496 2656 2151 
L 2650 2151 
C 2573 2676 2195 2790 1837 2790 
C 1331 2790 1069 2400 973 2144 
L 966 2144 
L 966 2790 
L 211 2720 
L 211 2554 
C 589 2554 646 2515 646 2208 
L 646 428 
C 646 184 621 153 211 153 
L 211 -13 
C 365 0 646 0 813 0 
C 979 0 1267 0 1421 -13 
L 1421 153 
C 1011 153 986 178 986 428 
L 986 1658 
C 986 2247 1344 2688 1792 2688 
C 2266 2688 2317 2266 2317 1958 
L 2317 428 
C 2317 184 2291 153 1882 153 
L 1882 -13 
C 2035 0 2317 0 2483 0 
C 2650 0 2938 0 3091 -13 
L 3091 153 
C 2682 153 2656 178 2656 428 
L 2656 1658 
C 2656 2247 3014 2688 3462 2688 
C 3936 2688 3987 2266 3987 1958 
L 3987 428 
C 3987 184 3962 153 3552 153 
L 3552 -13 
C 3706 0 3987 0 4154 0 
C 4320 0 4608 0 4762 -13 
L 4762 153 
C 4352 153 4326 178 4326 428 
L 4326 1933 
z
" transform="scale(0.015625)"/>
       <path id="CMR17-62" d="M 960 4396 
L 198 4326 
L 198 4160 
C 576 4160 634 4122 634 3817 
L 634 -13 
L 749 -13 
L 934 441 
C 1120 141 1395 -64 1766 -64 
C 2406 -64 3053 500 3053 1370 
C 3053 2188 2477 2790 1830 2790 
C 1434 2790 1152 2579 960 2330 
L 960 4396 
z
M 973 2004 
C 973 2118 973 2138 1062 2272 
C 1312 2657 1670 2688 1792 2688 
C 1984 2688 2643 2585 2643 1376 
C 2643 108 1888 38 1734 38 
C 1536 38 1248 114 1043 486 
C 973 608 973 621 973 735 
L 973 2004 
z
" transform="scale(0.015625)"/>
       <path id="CMR17-66" d="M 979 2560 
L 1709 2560 
L 1709 2725 
L 966 2725 
L 966 3494 
C 966 4022 1235 4352 1510 4352 
C 1594 4352 1690 4327 1754 4282 
C 1702 4269 1568 4225 1568 4067 
C 1568 3901 1696 3850 1786 3850 
C 1875 3850 2003 3901 2003 4067 
C 2003 4308 1773 4454 1517 4454 
C 1152 4454 653 4156 653 3481 
L 653 2725 
L 141 2725 
L 141 2560 
L 653 2560 
L 653 427 
C 653 184 627 153 218 153 
L 218 -13 
C 371 0 666 0 832 0 
C 1018 0 1344 0 1517 -13 
L 1517 153 
C 1056 153 979 153 979 439 
L 979 2560 
z
" transform="scale(0.015625)"/>
       <path id="CMR17-76" d="M 2502 2163 
C 2560 2304 2662 2560 3034 2560 
L 3034 2726 
C 2912 2726 2752 2726 2630 2726 
C 2496 2726 2285 2726 2157 2732 
L 2157 2566 
C 2317 2553 2406 2477 2406 2311 
C 2406 2253 2406 2240 2368 2151 
L 1664 377 
L 902 2286 
C 864 2369 864 2381 864 2407 
C 864 2560 1075 2560 1171 2560 
L 1171 2732 
C 1018 2726 736 2726 576 2726 
C 403 2726 205 2726 64 2732 
L 64 2560 
C 307 2560 442 2560 518 2362 
L 1446 44 
C 1485 -51 1491 -64 1549 -64 
C 1606 -64 1613 -51 1651 44 
L 2502 2163 
z
" transform="scale(0.015625)"/>
      </defs>
      <use xlink:href="#CMR17-4e" transform="scale(0.996264)"/>
      <use xlink:href="#CMR17-75" transform="translate(69.07243 0) scale(0.996264)"/>
      <use xlink:href="#CMR17-6d" transform="translate(119.9678 0) scale(0.996264)"/>
      <use xlink:href="#CMR17-62" transform="translate(194.284936 0) scale(0.996264)"/>
      <use xlink:href="#CMR17-65" transform="translate(247.782744 0) scale(0.996264)"/>
      <use xlink:href="#CMR17-72" transform="translate(288.268404 0) scale(0.996264)"/>
      <use xlink:href="#CMR17-6f" transform="translate(353.625139 0) scale(0.996264)"/>
      <use xlink:href="#CMR17-66" transform="translate(399.315616 0) scale(0.996264)"/>
      <use xlink:href="#CMR17-76" transform="translate(456.865095 0) scale(0.996264)"/>
      <use xlink:href="#CMR17-6f" transform="translate(502.555556 0) scale(0.996264)"/>
      <use xlink:href="#CMR17-74" transform="translate(548.246034 0) scale(0.996264)"/>
      <use xlink:href="#CMR17-65" transform="translate(583.526801 0) scale(0.996264)"/>
      <use xlink:href="#CMR17-72" transform="translate(624.012462 0) scale(0.996264)"/>
      <use xlink:href="#CMR17-73" transform="translate(659.29323 0) scale(0.996264)"/>
     </g>
    </g>
   </g>
   <g id="matplotlib.axis_2">
    <g id="ytick_1">
     <g id="line2d_5">
      <path d="M 51.635416 368.512219 
L 704.88 368.512219 
" clip-path="url(#pc4e0613a70)" style="fill: none; stroke: #b0b0b0; stroke-opacity: 0.3; stroke-linecap: square"/>
     </g>
     <g id="line2d_6">
      <defs>
       <path id="m046394bf27" d="M 0 0 
L -3.5 0 
" style="stroke: #000000; stroke-width: 0.8"/>
      </defs>
      <g>
       <use xlink:href="#m046394bf27" x="51.635416" y="368.512219" style="stroke: #000000; stroke-width: 0.8"/>
      </g>
     </g>
     <g id="text_6">
      <!-- $\mathdefault{1.0}$ -->
      <g transform="translate(30.63234 372.317392) scale(0.11 -0.11)">
       <defs>
        <path id="CMR17-31" d="M 1702 4058 
C 1702 4192 1696 4192 1606 4192 
C 1357 3916 979 3827 621 3827 
C 602 3827 570 3827 563 3808 
C 557 3795 557 3782 557 3648 
C 755 3648 1088 3686 1344 3839 
L 1344 461 
C 1344 236 1331 160 781 160 
L 589 160 
L 589 0 
C 896 0 1216 0 1523 0 
C 1830 0 2150 0 2458 0 
L 2458 160 
L 2266 160 
C 1715 160 1702 230 1702 458 
L 1702 4058 
z
" transform="scale(0.015625)"/>
        <path id="CMMI12-3a" d="M 1178 307 
C 1178 492 1024 619 870 619 
C 685 619 557 466 557 313 
C 557 128 710 0 864 0 
C 1050 0 1178 153 1178 307 
z
" transform="scale(0.015625)"/>
        <path id="CMR17-30" d="M 2688 2025 
C 2688 2416 2682 3080 2413 3591 
C 2176 4039 1798 4198 1466 4198 
C 1158 4198 768 4058 525 3597 
C 269 3118 243 2524 243 2025 
C 243 1661 250 1106 448 619 
C 723 -39 1216 -128 1466 -128 
C 1760 -128 2208 -7 2470 600 
C 2662 1042 2688 1559 2688 2025 
z
M 1466 -26 
C 1056 -26 813 325 723 812 
C 653 1188 653 1738 653 2096 
C 653 2588 653 2997 736 3387 
C 858 3929 1216 4096 1466 4096 
C 1728 4096 2067 3923 2189 3400 
C 2272 3036 2278 2607 2278 2096 
C 2278 1680 2278 1169 2202 792 
C 2067 95 1690 -26 1466 -26 
z
" transform="scale(0.015625)"/>
       </defs>
       <use xlink:href="#CMR17-31" transform="scale(0.996264)"/>
       <use xlink:href="#CMMI12-3a" transform="translate(45.690477 0) scale(0.996264)"/>
       <use xlink:href="#CMR17-30" transform="translate(72.787654 0) scale(0.996264)"/>
      </g>
     </g>
    </g>
    <g id="ytick_2">
     <g id="line2d_7">
      <path d="M 51.635416 304.039443 
L 704.88 304.039443 
" clip-path="url(#pc4e0613a70)" style="fill: none; stroke: #b0b0b0; stroke-opacity: 0.3; stroke-linecap: square"/>
     </g>
     <g id="line2d_8">
      <g>
       <use xlink:href="#m046394bf27" x="51.635416" y="304.039443" style="stroke: #000000; stroke-width: 0.8"/>
      </g>
     </g>
     <g id="text_7">
      <!-- $\mathdefault{1.2}$ -->
      <g transform="translate(30.63234 307.844617) scale(0.11 -0.11)">
       <defs>
        <path id="CMR17-32" d="M 2669 989 
L 2554 989 
C 2490 536 2438 459 2413 420 
C 2381 369 1920 369 1830 369 
L 602 369 
C 832 619 1280 1072 1824 1597 
C 2214 1967 2669 2402 2669 3035 
C 2669 3790 2067 4224 1395 4224 
C 691 4224 262 3604 262 3030 
C 262 2780 448 2748 525 2748 
C 589 2748 781 2787 781 3010 
C 781 3207 614 3264 525 3264 
C 486 3264 448 3258 422 3245 
C 544 3790 915 4058 1306 4058 
C 1862 4058 2227 3617 2227 3035 
C 2227 2479 1901 2000 1536 1584 
L 262 146 
L 262 0 
L 2515 0 
L 2669 989 
z
" transform="scale(0.015625)"/>
       </defs>
       <use xlink:href="#CMR17-31" transform="scale(0.996264)"/>
       <use xlink:href="#CMMI12-3a" transform="translate(45.690477 0) scale(0.996264)"/>
       <use xlink:href="#CMR17-32" transform="translate(72.787654 0) scale(0.996264)"/>
      </g>
     </g>
    </g>
    <g id="ytick_3">
     <g id="line2d_9">
      <path d="M 51.635416 239.566668 
L 704.88 239.566668 
" clip-path="url(#pc4e0613a70)" style="fill: none; stroke: #b0b0b0; stroke-opacity: 0.3; stroke-linecap: square"/>
     </g>
     <g id="line2d_10">
      <g>
       <use xlink:href="#m046394bf27" x="51.635416" y="239.566668" style="stroke: #000000; stroke-width: 0.8"/>
      </g>
     </g>
     <g id="text_8">
      <!-- $\mathdefault{1.4}$ -->
      <g transform="translate(30.63234 243.371841) scale(0.11 -0.11)">
       <defs>
        <path id="CMR17-34" d="M 2150 4122 
C 2150 4256 2144 4256 2029 4256 
L 128 1254 
L 128 1088 
L 1779 1088 
L 1779 457 
C 1779 224 1766 160 1318 160 
L 1197 160 
L 1197 0 
C 1402 0 1747 0 1965 0 
C 2182 0 2528 0 2733 0 
L 2733 160 
L 2611 160 
C 2163 160 2150 224 2150 457 
L 2150 1088 
L 2803 1088 
L 2803 1254 
L 2150 1254 
L 2150 4122 
z
M 1798 3703 
L 1798 1254 
L 256 1254 
L 1798 3703 
z
" transform="scale(0.015625)"/>
       </defs>
       <use xlink:href="#CMR17-31" transform="scale(0.996264)"/>
       <use xlink:href="#CMMI12-3a" transform="translate(45.690477 0) scale(0.996264)"/>
       <use xlink:href="#CMR17-34" transform="translate(72.787654 0) scale(0.996264)"/>
      </g>
     </g>
    </g>
    <g id="ytick_4">
     <g id="line2d_11">
      <path d="M 51.635416 175.093892 
L 704.88 175.093892 
" clip-path="url(#pc4e0613a70)" style="fill: none; stroke: #b0b0b0; stroke-opacity: 0.3; stroke-linecap: square"/>
     </g>
     <g id="line2d_12">
      <g>
       <use xlink:href="#m046394bf27" x="51.635416" y="175.093892" style="stroke: #000000; stroke-width: 0.8"/>
      </g>
     </g>
     <g id="text_9">
      <!-- $\mathdefault{1.6}$ -->
      <g transform="translate(30.63234 178.899066) scale(0.11 -0.11)">
       <defs>
        <path id="CMR17-36" d="M 678 2176 
C 678 3690 1395 4032 1811 4032 
C 1946 4032 2272 4009 2400 3776 
C 2298 3776 2106 3776 2106 3553 
C 2106 3381 2246 3323 2336 3323 
C 2394 3323 2566 3348 2566 3560 
C 2566 3954 2246 4179 1805 4179 
C 1043 4179 243 3390 243 1984 
C 243 253 966 -128 1478 -128 
C 2099 -128 2688 427 2688 1283 
C 2688 2081 2170 2662 1517 2662 
C 1126 2662 838 2407 678 1960 
L 678 2176 
z
M 1478 25 
C 691 25 691 1200 691 1436 
C 691 1896 909 2560 1504 2560 
C 1613 2560 1926 2560 2138 2120 
C 2253 1870 2253 1609 2253 1289 
C 2253 944 2253 690 2118 434 
C 1978 171 1773 25 1478 25 
z
" transform="scale(0.015625)"/>
       </defs>
       <use xlink:href="#CMR17-31" transform="scale(0.996264)"/>
       <use xlink:href="#CMMI12-3a" transform="translate(45.690477 0) scale(0.996264)"/>
       <use xlink:href="#CMR17-36" transform="translate(72.787654 0) scale(0.996264)"/>
      </g>
     </g>
    </g>
    <g id="ytick_5">
     <g id="line2d_13">
      <path d="M 51.635416 110.621117 
L 704.88 110.621117 
" clip-path="url(#pc4e0613a70)" style="fill: none; stroke: #b0b0b0; stroke-opacity: 0.3; stroke-linecap: square"/>
     </g>
     <g id="line2d_14">
      <g>
       <use xlink:href="#m046394bf27" x="51.635416" y="110.621117" style="stroke: #000000; stroke-width: 0.8"/>
      </g>
     </g>
     <g id="text_10">
      <!-- $\mathdefault{1.8}$ -->
      <g transform="translate(30.63234 114.42629) scale(0.11 -0.11)">
       <defs>
        <path id="CMR17-38" d="M 1741 2264 
C 2144 2467 2554 2773 2554 3263 
C 2554 3841 1990 4179 1472 4179 
C 890 4179 378 3759 378 3180 
C 378 3021 416 2747 666 2505 
C 730 2442 998 2251 1171 2130 
C 883 1983 211 1634 211 934 
C 211 279 838 -128 1459 -128 
C 2144 -128 2720 362 2720 1010 
C 2720 1590 2330 1857 2074 2029 
L 1741 2264 
z
M 902 2822 
C 851 2854 595 3051 595 3351 
C 595 3739 998 4032 1459 4032 
C 1965 4032 2336 3676 2336 3262 
C 2336 2669 1670 2331 1638 2331 
C 1632 2331 1626 2331 1574 2370 
L 902 2822 
z
M 2080 1519 
C 2176 1449 2483 1240 2483 851 
C 2483 381 2010 25 1472 25 
C 890 25 448 438 448 940 
C 448 1443 838 1862 1280 2060 
L 2080 1519 
z
" transform="scale(0.015625)"/>
       </defs>
       <use xlink:href="#CMR17-31" transform="scale(0.996264)"/>
       <use xlink:href="#CMMI12-3a" transform="translate(45.690477 0) scale(0.996264)"/>
       <use xlink:href="#CMR17-38" transform="translate(72.787654 0) scale(0.996264)"/>
      </g>
     </g>
    </g>
    <g id="ytick_6">
     <g id="line2d_15">
      <path d="M 51.635416 46.148341 
L 704.88 46.148341 
" clip-path="url(#pc4e0613a70)" style="fill: none; stroke: #b0b0b0; stroke-opacity: 0.3; stroke-linecap: square"/>
     </g>
     <g id="line2d_16">
      <g>
       <use xlink:href="#m046394bf27" x="51.635416" y="46.148341" style="stroke: #000000; stroke-width: 0.8"/>
      </g>
     </g>
     <g id="text_11">
      <!-- $\mathdefault{2.0}$ -->
      <g transform="translate(30.63234 49.953515) scale(0.11 -0.11)">
       <use xlink:href="#CMR17-32" transform="scale(0.996264)"/>
       <use xlink:href="#CMMI12-3a" transform="translate(45.690477 0) scale(0.996264)"/>
       <use xlink:href="#CMR17-30" transform="translate(72.787654 0) scale(0.996264)"/>
      </g>
     </g>
    </g>
    <g id="text_12">
     <!-- Distortion -->
     <g transform="translate(24.114028 235.497321) rotate(-90) scale(0.13 -0.13)">
      <defs>
       <path id="CMR17-44" d="M 333 4352 
L 333 4186 
C 774 4186 845 4186 845 3900 
L 845 452 
C 845 166 774 166 333 166 
L 333 0 
L 2368 0 
C 3398 0 4224 943 4224 2141 
C 4224 3346 3411 4352 2368 4352 
L 333 4352 
z
M 1523 166 
C 1267 166 1254 197 1254 414 
L 1254 3938 
C 1254 4155 1267 4186 1523 4186 
L 2240 4186 
C 2771 4186 3750 3874 3750 2141 
C 3750 1242 3488 879 3366 707 
C 3213 510 2848 166 2240 166 
L 1523 166 
z
" transform="scale(0.015625)"/>
      </defs>
      <use xlink:href="#CMR17-44" transform="scale(0.996264)"/>
      <use xlink:href="#CMR17-69" transform="translate(70.393556 0) scale(0.996264)"/>
      <use xlink:href="#CMR17-73" transform="translate(95.264614 0) scale(0.996264)"/>
      <use xlink:href="#CMR17-74" transform="translate(131.065952 0) scale(0.996264)"/>
      <use xlink:href="#CMR17-6f" transform="translate(166.34672 0) scale(0.996264)"/>
      <use xlink:href="#CMR17-72" transform="translate(212.037197 0) scale(0.996264)"/>
      <use xlink:href="#CMR17-74" transform="translate(247.317965 0) scale(0.996264)"/>
      <use xlink:href="#CMR17-69" transform="translate(282.598733 0) scale(0.996264)"/>
      <use xlink:href="#CMR17-6f" transform="translate(307.469791 0) scale(0.996264)"/>
      <use xlink:href="#CMR17-6e" transform="translate(353.160268 0) scale(0.996264)"/>
     </g>
    </g>
   </g>
   <g id="LineCollection_1">
    <path d="M 102.537592 291.436119 
L 144.956071 291.436119 
" clip-path="url(#pc4e0613a70)" style="fill: none; stroke: #1f77b4; stroke-width: 1.5"/>
    <path d="M 272.21151 285.227139 
L 314.629989 285.227139 
" clip-path="url(#pc4e0613a70)" style="fill: none; stroke: #1f77b4; stroke-width: 1.5"/>
    <path d="M 441.885427 292.693673 
L 484.303907 292.693673 
" clip-path="url(#pc4e0613a70)" style="fill: none; stroke: #1f77b4; stroke-width: 1.5"/>
    <path d="M 611.559345 292.028708 
L 653.977825 292.028708 
" clip-path="url(#pc4e0613a70)" style="fill: none; stroke: #1f77b4; stroke-width: 1.5"/>
   </g>
   <g id="LineCollection_2">
    <path d="M 102.537592 75.520172 
L 144.956071 75.520172 
" clip-path="url(#pc4e0613a70)" style="fill: none; stroke: #1f77b4; stroke-width: 1.5"/>
    <path d="M 272.21151 95.794784 
L 314.629989 95.794784 
" clip-path="url(#pc4e0613a70)" style="fill: none; stroke: #1f77b4; stroke-width: 1.5"/>
    <path d="M 441.885427 73.073025 
L 484.303907 73.073025 
" clip-path="url(#pc4e0613a70)" style="fill: none; stroke: #1f77b4; stroke-width: 1.5"/>
    <path d="M 611.559345 46.228228 
L 653.977825 46.228228 
" clip-path="url(#pc4e0613a70)" style="fill: none; stroke: #1f77b4; stroke-width: 1.5"/>
   </g>
   <g id="LineCollection_3">
    <path d="M 102.537592 368.512219 
L 144.956071 368.512219 
" clip-path="url(#pc4e0613a70)" style="fill: none; stroke: #1f77b4; stroke-width: 1.5"/>
    <path d="M 272.21151 368.512219 
L 314.629989 368.512219 
" clip-path="url(#pc4e0613a70)" style="fill: none; stroke: #1f77b4; stroke-width: 1.5"/>
    <path d="M 441.885427 368.512219 
L 484.303907 368.512219 
" clip-path="url(#pc4e0613a70)" style="fill: none; stroke: #1f77b4; stroke-width: 1.5"/>
    <path d="M 611.559345 368.512219 
L 653.977825 368.512219 
" clip-path="url(#pc4e0613a70)" style="fill: none; stroke: #1f77b4; stroke-width: 1.5"/>
   </g>
   <g id="LineCollection_4">
    <path d="M 123.746832 368.512219 
L 123.746832 75.520172 
" clip-path="url(#pc4e0613a70)" style="fill: none; stroke: #1f77b4; stroke-width: 1.5"/>
    <path d="M 293.420749 368.512219 
L 293.420749 95.794784 
" clip-path="url(#pc4e0613a70)" style="fill: none; stroke: #1f77b4; stroke-width: 1.5"/>
    <path d="M 463.094667 368.512219 
L 463.094667 73.073025 
" clip-path="url(#pc4e0613a70)" style="fill: none; stroke: #1f77b4; stroke-width: 1.5"/>
    <path d="M 632.768585 368.512219 
L 632.768585 46.228228 
" clip-path="url(#pc4e0613a70)" style="fill: none; stroke: #1f77b4; stroke-width: 1.5"/>
   </g>
   <g id="patch_3">
    <path d="M 51.635416 384.626418 
L 51.635416 30.114028 
" style="fill: none; stroke: #000000; stroke-linejoin: miter; stroke-linecap: square"/>
   </g>
   <g id="patch_4">
    <path d="M 704.88 384.626418 
L 704.88 30.114028 
" style="fill: none; stroke: #000000; stroke-linejoin: miter; stroke-linecap: square"/>
   </g>
   <g id="patch_5">
    <path d="M 51.635416 384.626418 
L 704.88 384.626418 
" style="fill: none; stroke: #000000; stroke-linejoin: miter; stroke-linecap: square"/>
   </g>
   <g id="patch_6">
    <path d="M 51.635416 30.114028 
L 704.88 30.114028 
" style="fill: none; stroke: #000000; stroke-linejoin: miter; stroke-linecap: square"/>
   </g>
   <g id="text_13">
    <!-- Distortion Under Nietzschean -->
    <g transform="translate(296.027467 24.114028) scale(0.13 -0.13)">
     <defs>
      <path id="CMR17-55" d="M 3456 1433 
C 3456 579 2899 38 2291 38 
C 1965 38 1670 210 1491 477 
C 1286 783 1261 1178 1261 1401 
L 1261 3874 
C 1261 4160 1331 4160 1773 4160 
L 1773 4320 
C 1587 4320 1248 4320 1050 4320 
C 851 4320 512 4320 326 4320 
L 326 4160 
C 768 4160 838 4160 838 3874 
L 838 1433 
C 838 516 1536 -128 2278 -128 
C 3110 -128 3590 719 3590 1344 
L 3590 3766 
C 3590 4122 3917 4160 4102 4160 
L 4102 4326 
C 3955 4320 3686 4320 3526 4320 
C 3366 4320 3091 4320 2944 4326 
L 2944 4160 
C 3456 4160 3456 3861 3456 3702 
L 3456 1433 
z
" transform="scale(0.015625)"/>
      <path id="CMR17-7a" d="M 2310 2605 
C 2362 2670 2362 2682 2362 2695 
C 2362 2752 2336 2752 2221 2752 
L 275 2752 
L 211 1760 
L 326 1760 
C 371 2381 442 2650 1178 2650 
L 1958 2650 
L 128 96 
C 128 0 134 0 269 0 
L 2291 0 
L 2381 1152 
L 2266 1152 
C 2214 442 2131 115 1350 115 
L 531 115 
L 2310 2605 
z
" transform="scale(0.015625)"/>
      <path id="CMR17-68" d="M 2656 1933 
C 2656 2259 2592 2790 1837 2790 
C 1312 2790 1056 2368 979 2157 
L 973 2157 
L 973 4396 
L 211 4326 
L 211 4160 
C 589 4160 646 4122 646 3817 
L 646 426 
C 646 184 621 153 211 153 
L 211 -13 
C 365 0 646 0 813 0 
C 979 0 1267 0 1421 -13 
L 1421 153 
C 1011 153 986 178 986 428 
L 986 1658 
C 986 2247 1344 2688 1792 2688 
C 2266 2688 2317 2266 2317 1958 
L 2317 428 
C 2317 184 2291 153 1882 153 
L 1882 -13 
C 2035 0 2317 0 2483 0 
C 2650 0 2938 0 3091 -13 
L 3091 153 
C 2682 153 2656 178 2656 428 
L 2656 1933 
z
" transform="scale(0.015625)"/>
     </defs>
     <use xlink:href="#CMR17-44" transform="scale(0.996264)"/>
     <use xlink:href="#CMR17-69" transform="translate(70.393556 0) scale(0.996264)"/>
     <use xlink:href="#CMR17-73" transform="translate(95.264614 0) scale(0.996264)"/>
     <use xlink:href="#CMR17-74" transform="translate(131.065952 0) scale(0.996264)"/>
     <use xlink:href="#CMR17-6f" transform="translate(166.34672 0) scale(0.996264)"/>
     <use xlink:href="#CMR17-72" transform="translate(212.037197 0) scale(0.996264)"/>
     <use xlink:href="#CMR17-74" transform="translate(247.317965 0) scale(0.996264)"/>
     <use xlink:href="#CMR17-69" transform="translate(282.598733 0) scale(0.996264)"/>
     <use xlink:href="#CMR17-6f" transform="translate(307.469791 0) scale(0.996264)"/>
     <use xlink:href="#CMR17-6e" transform="translate(353.160268 0) scale(0.996264)"/>
     <use xlink:href="#CMR17-55" transform="translate(434.131604 0) scale(0.996264)"/>
     <use xlink:href="#CMR17-6e" transform="translate(503.204034 0) scale(0.996264)"/>
     <use xlink:href="#CMR17-64" transform="translate(554.099404 0) scale(0.996264)"/>
     <use xlink:href="#CMR17-65" transform="translate(604.994774 0) scale(0.996264)"/>
     <use xlink:href="#CMR17-72" transform="translate(645.480434 0) scale(0.996264)"/>
     <use xlink:href="#CMR17-4e" transform="translate(710.837168 0) scale(0.996264)"/>
     <use xlink:href="#CMR17-69" transform="translate(779.909598 0) scale(0.996264)"/>
     <use xlink:href="#CMR17-65" transform="translate(804.780657 0) scale(0.996264)"/>
     <use xlink:href="#CMR17-74" transform="translate(845.266317 0) scale(0.996264)"/>
     <use xlink:href="#CMR17-7a" transform="translate(880.547085 0) scale(0.996264)"/>
     <use xlink:href="#CMR17-73" transform="translate(921.032745 0) scale(0.996264)"/>
     <use xlink:href="#CMR17-63" transform="translate(956.834083 0) scale(0.996264)"/>
     <use xlink:href="#CMR17-68" transform="translate(994.717289 0) scale(0.996264)"/>
     <use xlink:href="#CMR17-65" transform="translate(1045.612659 0) scale(0.996264)"/>
     <use xlink:href="#CMR17-61" transform="translate(1086.09832 0) scale(0.996264)"/>
     <use xlink:href="#CMR17-6e" transform="translate(1131.788797 0) scale(0.996264)"/>
    </g>
   </g>
  </g>
 </g>
 <defs>
  <clipPath id="pc4e0613a70">
   <rect x="51.635416" y="30.114028" width="653.244584" height="354.51239"/>
  </clipPath>
 </defs>
</svg>
