<?xml version="1.0" encoding="utf-8" standalone="no"?>
<!DOCTYPE svg PUBLIC "-//W3C//DTD SVG 1.1//EN"
  "http://www.w3.org/Graphics/SVG/1.1/DTD/svg11.dtd">
<svg xmlns:xlink="http://www.w3.org/1999/xlink" width="720pt" height="432pt" viewBox="0 0 720 432" xmlns="http://www.w3.org/2000/svg" version="1.1">
 <metadata>
  <rdf:RDF xmlns:dc="http://purl.org/dc/elements/1.1/" xmlns:cc="http://creativecommons.org/ns#" xmlns:rdf="http://www.w3.org/1999/02/22-rdf-syntax-ns#">
   <cc:Work>
    <dc:type rdf:resource="http://purl.org/dc/dcmitype/StillImage"/>
    <dc:date>2024-12-09T12:29:54.873584</dc:date>
    <dc:format>image/svg+xml</dc:format>
    <dc:creator>
     <cc:Agent>
      <dc:title>Matplotlib v3.9.2, https://matplotlib.org/</dc:title>
     </cc:Agent>
    </dc:creator>
   </cc:Work>
  </rdf:RDF>
 </metadata>
 <defs>
  <style type="text/css">*{stroke-linejoin: round; stroke-linecap: butt}</style>
 </defs>
 <g id="figure_1">
  <g id="patch_1">
   <path d="M 0 432 
L 720 432 
L 720 0 
L 0 0 
z
" style="fill: #ffffff"/>
  </g>
  <g id="axes_1">
   <g id="patch_2">
    <path d="M 51.635416 384.626418 
L 704.88 384.626418 
L 704.88 30.114028 
L 51.635416 30.114028 
z
" style="fill: #ffffff"/>
   </g>
   <g id="PolyCollection_1">
    <defs>
     <path id="m51f8199d0f" d="M 166.165311 -63.487781 
L 81.328352 -63.487781 
L 81.382669 -66.743175 
L 81.545212 -69.998569 
L 81.814735 -73.253963 
L 82.189179 -76.509357 
L 82.665697 -79.76475 
L 83.240693 -83.020144 
L 83.909866 -86.275538 
L 84.66826 -89.530932 
L 85.510331 -92.786326 
L 86.430008 -96.04172 
L 87.420773 -99.297113 
L 88.47573 -102.552507 
L 89.58769 -105.807901 
L 90.749249 -109.063295 
L 91.95287 -112.318689 
L 93.190966 -115.574083 
L 94.455971 -118.829477 
L 95.740421 -122.08487 
L 97.037023 -125.340264 
L 98.338719 -128.595658 
L 99.638745 -131.851052 
L 100.930685 -135.106446 
L 102.208517 -138.36184 
L 103.46665 -141.617234 
L 104.699956 -144.872627 
L 105.903792 -148.128021 
L 107.074017 -151.383415 
L 108.207 -154.638809 
L 109.299622 -157.894203 
L 110.34927 -161.149597 
L 111.353825 -164.40499 
L 112.311651 -167.660384 
L 113.221565 -170.915778 
L 114.082821 -174.171172 
L 114.895072 -177.426566 
L 115.658347 -180.68196 
L 116.373012 -183.937354 
L 117.039734 -187.192747 
L 117.659452 -190.448141 
L 118.233332 -193.703535 
L 118.76274 -196.958929 
L 119.249201 -200.214323 
L 119.69437 -203.469717 
L 120.099996 -206.725111 
L 120.467899 -209.980504 
L 120.799937 -213.235898 
L 121.097982 -216.491292 
L 121.3639 -219.746686 
L 121.599532 -223.00208 
L 121.806673 -226.257474 
L 121.987062 -229.512867 
L 122.142371 -232.768261 
L 122.274192 -236.023655 
L 122.384034 -239.279049 
L 122.473318 -242.534443 
L 122.543375 -245.789837 
L 122.595446 -249.045231 
L 122.630685 -252.300624 
L 122.65016 -255.556018 
L 122.654858 -258.811412 
L 122.645694 -262.066806 
L 122.623513 -265.3222 
L 122.589101 -268.577594 
L 122.543194 -271.832988 
L 122.486481 -275.088381 
L 122.419618 -278.343775 
L 122.343234 -281.599169 
L 122.25794 -284.854563 
L 122.164339 -288.109957 
L 122.063028 -291.365351 
L 121.954611 -294.620744 
L 121.839703 -297.876138 
L 121.718936 -301.131532 
L 121.59296 -304.386926 
L 121.462453 -307.64232 
L 121.328119 -310.897714 
L 121.190689 -314.153108 
L 121.050926 -317.408501 
L 120.909618 -320.663895 
L 120.767583 -323.919289 
L 120.625658 -327.174683 
L 120.484704 -330.430077 
L 120.345594 -333.685471 
L 120.209211 -336.940865 
L 120.076441 -340.196258 
L 119.948164 -343.451652 
L 119.825251 -346.707046 
L 119.70855 -349.96244 
L 119.598881 -353.217834 
L 119.49703 -356.473228 
L 119.403736 -359.728622 
L 119.319686 -362.984015 
L 119.245506 -366.239409 
L 119.181754 -369.494803 
L 119.128917 -372.750197 
L 119.087398 -376.005591 
L 119.05752 -379.260985 
L 119.039513 -382.516378 
L 119.03352 -385.771772 
L 128.460143 -385.771772 
L 128.460143 -385.771772 
L 128.45415 -382.516378 
L 128.436143 -379.260985 
L 128.406265 -376.005591 
L 128.364746 -372.750197 
L 128.311909 -369.494803 
L 128.248157 -366.239409 
L 128.173977 -362.984015 
L 128.089927 -359.728622 
L 127.996633 -356.473228 
L 127.894782 -353.217834 
L 127.785113 -349.96244 
L 127.668412 -346.707046 
L 127.545499 -343.451652 
L 127.417222 -340.196258 
L 127.284452 -336.940865 
L 127.148069 -333.685471 
L 127.008959 -330.430077 
L 126.868005 -327.174683 
L 126.72608 -323.919289 
L 126.584045 -320.663895 
L 126.442737 -317.408501 
L 126.302974 -314.153108 
L 126.165544 -310.897714 
L 126.03121 -307.64232 
L 125.900703 -304.386926 
L 125.774727 -301.131532 
L 125.65396 -297.876138 
L 125.539052 -294.620744 
L 125.430635 -291.365351 
L 125.329324 -288.109957 
L 125.235723 -284.854563 
L 125.150429 -281.599169 
L 125.074045 -278.343775 
L 125.007182 -275.088381 
L 124.950469 -271.832988 
L 124.904562 -268.577594 
L 124.87015 -265.3222 
L 124.847969 -262.066806 
L 124.838805 -258.811412 
L 124.843503 -255.556018 
L 124.862978 -252.300624 
L 124.898217 -249.045231 
L 124.950288 -245.789837 
L 125.020345 -242.534443 
L 125.109629 -239.279049 
L 125.219471 -236.023655 
L 125.351292 -232.768261 
L 125.506601 -229.512867 
L 125.68699 -226.257474 
L 125.894131 -223.00208 
L 126.129763 -219.746686 
L 126.395681 -216.491292 
L 126.693726 -213.235898 
L 127.025764 -209.980504 
L 127.393667 -206.725111 
L 127.799293 -203.469717 
L 128.244462 -200.214323 
L 128.730923 -196.958929 
L 129.260331 -193.703535 
L 129.834211 -190.448141 
L 130.453929 -187.192747 
L 131.120651 -183.937354 
L 131.835316 -180.68196 
L 132.598591 -177.426566 
L 133.410842 -174.171172 
L 134.272098 -170.915778 
L 135.182012 -167.660384 
L 136.139838 -164.40499 
L 137.144393 -161.149597 
L 138.194041 -157.894203 
L 139.286663 -154.638809 
L 140.419646 -151.383415 
L 141.589871 -148.128021 
L 142.793707 -144.872627 
L 144.027013 -141.617234 
L 145.285146 -138.36184 
L 146.562978 -135.106446 
L 147.854918 -131.851052 
L 149.154944 -128.595658 
L 150.45664 -125.340264 
L 151.753242 -122.08487 
L 153.037692 -118.829477 
L 154.302697 -115.574083 
L 155.540793 -112.318689 
L 156.744414 -109.063295 
L 157.905973 -105.807901 
L 159.017933 -102.552507 
L 160.07289 -99.297113 
L 161.063655 -96.04172 
L 161.983332 -92.786326 
L 162.825403 -89.530932 
L 163.583797 -86.275538 
L 164.25297 -83.020144 
L 164.827966 -79.76475 
L 165.304484 -76.509357 
L 165.678928 -73.253963 
L 165.948451 -69.998569 
L 166.110994 -66.743175 
L 166.165311 -63.487781 
z
" style="stroke: #000000; stroke-opacity: 0.4"/>
    </defs>
    <g clip-path="url(#p838591accf)">
     <use xlink:href="#m51f8199d0f" x="0" y="432" style="fill: #440154; fill-opacity: 0.4; stroke: #000000; stroke-opacity: 0.4"/>
    </g>
   </g>
   <g id="PolyCollection_2">
    <defs>
     <path id="m6cb9a87d53" d="M 335.742411 -63.487781 
L 251.099087 -63.487781 
L 251.018795 -66.110676 
L 251.00227 -68.733571 
L 251.049504 -71.356466 
L 251.160196 -73.979361 
L 251.333754 -76.602256 
L 251.569299 -79.225151 
L 251.865672 -81.848045 
L 252.221443 -84.47094 
L 252.634921 -87.093835 
L 253.104164 -89.71673 
L 253.626997 -92.339625 
L 254.201024 -94.96252 
L 254.823645 -97.585415 
L 255.492078 -100.20831 
L 256.203372 -102.831205 
L 256.954431 -105.4541 
L 257.742034 -108.076994 
L 258.562853 -110.699889 
L 259.413478 -113.322784 
L 260.290437 -115.945679 
L 261.190215 -118.568574 
L 262.109278 -121.191469 
L 263.044089 -123.814364 
L 263.991135 -126.437259 
L 264.946936 -129.060154 
L 265.908072 -131.683049 
L 266.871194 -134.305943 
L 267.833042 -136.928838 
L 268.79046 -139.551733 
L 269.740408 -142.174628 
L 270.679975 -144.797523 
L 271.60639 -147.420418 
L 272.517027 -150.043313 
L 273.409421 -152.666208 
L 274.281264 -155.289103 
L 275.13042 -157.911998 
L 275.954922 -160.534892 
L 276.752977 -163.157787 
L 277.522968 -165.780682 
L 278.263452 -168.403577 
L 278.973161 -171.026472 
L 279.651001 -173.649367 
L 280.296046 -176.272262 
L 280.907537 -178.895157 
L 281.484879 -181.518052 
L 282.027632 -184.140947 
L 282.535512 -186.763841 
L 283.008378 -189.386736 
L 283.446233 -192.009631 
L 283.849213 -194.632526 
L 284.217583 -197.255421 
L 284.55173 -199.878316 
L 284.852154 -202.501211 
L 285.119468 -205.124106 
L 285.354382 -207.747001 
L 285.557705 -210.369896 
L 285.730334 -212.99279 
L 285.873248 -215.615685 
L 285.987503 -218.23858 
L 286.074227 -220.861475 
L 286.134611 -223.48437 
L 286.169906 -226.107265 
L 286.181416 -228.73016 
L 286.170494 -231.353055 
L 286.138534 -233.97595 
L 286.086968 -236.598845 
L 286.01726 -239.221739 
L 285.930901 -241.844634 
L 285.829403 -244.467529 
L 285.714296 -247.090424 
L 285.587119 -249.713319 
L 285.449419 -252.336214 
L 285.302744 -254.959109 
L 285.148637 -257.582004 
L 284.988633 -260.204899 
L 284.824251 -262.827794 
L 284.65699 -265.450688 
L 284.488325 -268.073583 
L 284.319699 -270.696478 
L 284.152521 -273.319373 
L 283.988159 -275.942268 
L 283.827931 -278.565163 
L 283.67311 -281.188058 
L 283.524908 -283.810953 
L 283.384478 -286.433848 
L 283.25291 -289.056743 
L 283.13122 -291.679637 
L 283.020354 -294.302532 
L 282.92118 -296.925427 
L 282.834486 -299.548322 
L 282.760976 -302.171217 
L 282.701269 -304.794112 
L 282.655897 -307.417007 
L 282.625303 -310.039902 
L 282.609838 -312.662797 
L 282.609766 -315.285692 
L 282.625258 -317.908586 
L 282.656397 -320.531481 
L 282.703177 -323.154376 
L 304.138322 -323.154376 
L 304.138322 -323.154376 
L 304.185102 -320.531481 
L 304.216241 -317.908586 
L 304.231733 -315.285692 
L 304.231661 -312.662797 
L 304.216196 -310.039902 
L 304.185602 -307.417007 
L 304.14023 -304.794112 
L 304.080523 -302.171217 
L 304.007013 -299.548322 
L 303.920319 -296.925427 
L 303.821145 -294.302532 
L 303.710279 -291.679637 
L 303.588589 -289.056743 
L 303.45702 -286.433848 
L 303.316591 -283.810953 
L 303.168389 -281.188058 
L 303.013567 -278.565163 
L 302.85334 -275.942268 
L 302.688977 -273.319373 
L 302.521799 -270.696478 
L 302.353174 -268.073583 
L 302.184509 -265.450688 
L 302.017248 -262.827794 
L 301.852866 -260.204899 
L 301.692861 -257.582004 
L 301.538755 -254.959109 
L 301.39208 -252.336214 
L 301.25438 -249.713319 
L 301.127203 -247.090424 
L 301.012095 -244.467529 
L 300.910597 -241.844634 
L 300.824238 -239.221739 
L 300.75453 -236.598845 
L 300.702965 -233.97595 
L 300.671005 -231.353055 
L 300.660082 -228.73016 
L 300.671593 -226.107265 
L 300.706888 -223.48437 
L 300.767272 -220.861475 
L 300.853996 -218.23858 
L 300.968251 -215.615685 
L 301.111165 -212.99279 
L 301.283793 -210.369896 
L 301.487116 -207.747001 
L 301.722031 -205.124106 
L 301.989344 -202.501211 
L 302.289769 -199.878316 
L 302.623916 -197.255421 
L 302.992286 -194.632526 
L 303.395266 -192.009631 
L 303.833121 -189.386736 
L 304.305987 -186.763841 
L 304.813866 -184.140947 
L 305.35662 -181.518052 
L 305.933961 -178.895157 
L 306.545453 -176.272262 
L 307.190498 -173.649367 
L 307.868337 -171.026472 
L 308.578047 -168.403577 
L 309.318531 -165.780682 
L 310.088522 -163.157787 
L 310.886577 -160.534892 
L 311.711079 -157.911998 
L 312.560235 -155.289103 
L 313.432078 -152.666208 
L 314.324471 -150.043313 
L 315.235109 -147.420418 
L 316.161523 -144.797523 
L 317.101091 -142.174628 
L 318.051039 -139.551733 
L 319.008457 -136.928838 
L 319.970305 -134.305943 
L 320.933427 -131.683049 
L 321.894562 -129.060154 
L 322.850364 -126.437259 
L 323.797409 -123.814364 
L 324.732221 -121.191469 
L 325.651284 -118.568574 
L 326.551062 -115.945679 
L 327.42802 -113.322784 
L 328.278646 -110.699889 
L 329.099465 -108.076994 
L 329.887067 -105.4541 
L 330.638126 -102.831205 
L 331.34942 -100.20831 
L 332.017853 -97.585415 
L 332.640475 -94.96252 
L 333.214502 -92.339625 
L 333.737334 -89.71673 
L 334.206578 -87.093835 
L 334.620055 -84.47094 
L 334.975827 -81.848045 
L 335.2722 -79.225151 
L 335.507745 -76.602256 
L 335.681303 -73.979361 
L 335.791995 -71.356466 
L 335.839229 -68.733571 
L 335.822704 -66.110676 
L 335.742411 -63.487781 
z
" style="stroke: #000000; stroke-opacity: 0.4"/>
    </defs>
    <g clip-path="url(#p838591accf)">
     <use xlink:href="#m6cb9a87d53" x="0" y="432" style="fill: #31688e; fill-opacity: 0.4; stroke: #000000; stroke-opacity: 0.4"/>
    </g>
   </g>
   <g id="PolyCollection_3">
    <defs>
     <path id="m420977a389" d="M 505.513147 -63.487781 
L 420.676188 -63.487781 
L 420.710041 -66.195724 
L 420.818447 -68.903668 
L 421.000751 -71.611611 
L 421.255894 -74.319555 
L 421.582432 -77.027498 
L 421.978538 -79.735441 
L 422.442025 -82.443385 
L 422.970358 -85.151328 
L 423.560679 -87.859271 
L 424.209826 -90.567215 
L 424.914366 -93.275158 
L 425.670614 -95.983102 
L 426.474669 -98.691045 
L 427.322441 -101.398988 
L 428.209684 -104.106932 
L 429.13203 -106.814875 
L 430.085017 -109.522818 
L 431.064125 -112.230762 
L 432.06481 -114.938705 
L 433.082531 -117.646649 
L 434.112781 -120.354592 
L 435.15112 -123.062535 
L 436.1932 -125.770479 
L 437.23479 -128.478422 
L 438.271803 -131.186365 
L 439.300315 -133.894309 
L 440.316587 -136.602252 
L 441.317079 -139.310196 
L 442.298472 -142.018139 
L 443.257671 -144.726082 
L 444.191825 -147.434026 
L 445.098326 -150.141969 
L 445.974821 -152.849912 
L 446.819213 -155.557856 
L 447.629663 -158.265799 
L 448.404585 -160.973743 
L 449.14265 -163.681686 
L 449.842776 -166.389629 
L 450.504125 -169.097573 
L 451.126094 -171.805516 
L 451.708307 -174.513459 
L 452.250604 -177.221403 
L 452.753031 -179.929346 
L 453.215831 -182.63729 
L 453.639427 -185.345233 
L 454.024414 -188.053176 
L 454.371543 -190.76112 
L 454.68171 -193.469063 
L 454.955943 -196.177006 
L 455.19539 -198.88495 
L 455.401304 -201.592893 
L 455.575032 -204.300837 
L 455.718003 -207.00878 
L 455.831717 -209.716723 
L 455.917734 -212.424667 
L 455.977662 -215.13261 
L 456.013146 -217.840553 
L 456.025864 -220.548497 
L 456.01751 -223.25644 
L 455.989792 -225.964384 
L 455.944422 -228.672327 
L 455.883107 -231.38027 
L 455.807544 -234.088214 
L 455.719412 -236.796157 
L 455.620369 -239.5041 
L 455.512043 -242.212044 
L 455.396029 -244.919987 
L 455.273884 -247.62793 
L 455.147122 -250.335874 
L 455.017211 -253.043817 
L 454.885568 -255.751761 
L 454.753558 -258.459704 
L 454.622487 -261.167647 
L 454.493605 -263.875591 
L 454.368097 -266.583534 
L 454.247084 -269.291477 
L 454.131624 -271.999421 
L 454.022704 -274.707364 
L 453.921242 -277.415308 
L 453.828085 -280.123251 
L 453.744009 -282.831194 
L 453.669716 -285.539138 
L 453.605836 -288.247081 
L 453.552922 -290.955024 
L 453.511457 -293.662968 
L 453.481847 -296.370911 
L 453.464426 -299.078855 
L 453.459455 -301.786798 
L 453.467122 -304.494741 
L 453.487547 -307.202685 
L 453.520776 -309.910628 
L 453.566792 -312.618571 
L 453.625508 -315.326515 
L 453.696778 -318.034458 
L 453.78039 -320.742402 
L 453.876078 -323.450345 
L 453.983517 -326.158288 
L 454.102333 -328.866232 
L 454.232099 -331.574175 
L 471.957235 -331.574175 
L 471.957235 -331.574175 
L 472.087002 -328.866232 
L 472.205817 -326.158288 
L 472.313257 -323.450345 
L 472.408944 -320.742402 
L 472.492557 -318.034458 
L 472.563826 -315.326515 
L 472.622543 -312.618571 
L 472.668558 -309.910628 
L 472.701788 -307.202685 
L 472.722212 -304.494741 
L 472.729879 -301.786798 
L 472.724908 -299.078855 
L 472.707487 -296.370911 
L 472.677878 -293.662968 
L 472.636412 -290.955024 
L 472.583499 -288.247081 
L 472.519618 -285.539138 
L 472.445325 -282.831194 
L 472.361249 -280.123251 
L 472.268092 -277.415308 
L 472.16663 -274.707364 
L 472.05771 -271.999421 
L 471.94225 -269.291477 
L 471.821238 -266.583534 
L 471.695729 -263.875591 
L 471.566847 -261.167647 
L 471.435776 -258.459704 
L 471.303766 -255.751761 
L 471.172123 -253.043817 
L 471.042212 -250.335874 
L 470.91545 -247.62793 
L 470.793305 -244.919987 
L 470.677291 -242.212044 
L 470.568965 -239.5041 
L 470.469922 -236.796157 
L 470.381791 -234.088214 
L 470.306227 -231.38027 
L 470.244912 -228.672327 
L 470.199542 -225.964384 
L 470.171824 -223.25644 
L 470.16347 -220.548497 
L 470.176188 -217.840553 
L 470.211673 -215.13261 
L 470.2716 -212.424667 
L 470.357617 -209.716723 
L 470.471331 -207.00878 
L 470.614303 -204.300837 
L 470.78803 -201.592893 
L 470.993944 -198.88495 
L 471.233391 -196.177006 
L 471.507625 -193.469063 
L 471.817792 -190.76112 
L 472.16492 -188.053176 
L 472.549907 -185.345233 
L 472.973503 -182.63729 
L 473.436303 -179.929346 
L 473.938731 -177.221403 
L 474.481027 -174.513459 
L 475.06324 -171.805516 
L 475.685209 -169.097573 
L 476.346558 -166.389629 
L 477.046684 -163.681686 
L 477.784749 -160.973743 
L 478.559672 -158.265799 
L 479.370121 -155.557856 
L 480.214513 -152.849912 
L 481.091009 -150.141969 
L 481.99751 -147.434026 
L 482.931663 -144.726082 
L 483.890862 -142.018139 
L 484.872255 -139.310196 
L 485.872748 -136.602252 
L 486.889019 -133.894309 
L 487.917531 -131.186365 
L 488.954544 -128.478422 
L 489.996134 -125.770479 
L 491.038214 -123.062535 
L 492.076553 -120.354592 
L 493.106804 -117.646649 
L 494.124524 -114.938705 
L 495.125209 -112.230762 
L 496.104318 -109.522818 
L 497.057304 -106.814875 
L 497.97965 -104.106932 
L 498.866893 -101.398988 
L 499.714665 -98.691045 
L 500.51872 -95.983102 
L 501.274968 -93.275158 
L 501.979508 -90.567215 
L 502.628656 -87.859271 
L 503.218976 -85.151328 
L 503.747309 -82.443385 
L 504.210796 -79.735441 
L 504.606902 -77.027498 
L 504.93344 -74.319555 
L 505.188584 -71.611611 
L 505.370887 -68.903668 
L 505.479294 -66.195724 
L 505.513147 -63.487781 
z
" style="stroke: #000000; stroke-opacity: 0.4"/>
    </defs>
    <g clip-path="url(#p838591accf)">
     <use xlink:href="#m420977a389" x="0" y="432" style="fill: #35b779; fill-opacity: 0.4; stroke: #000000; stroke-opacity: 0.4"/>
    </g>
   </g>
   <g id="PolyCollection_4">
    <defs>
     <path id="m14f5071138" d="M 675.187064 -63.487781 
L 590.350105 -63.487781 
L 590.404423 -63.765265 
L 590.566966 -64.042749 
L 590.836489 -64.320233 
L 591.210932 -64.597717 
L 591.68745 -64.875201 
L 592.262447 -65.152685 
L 592.931619 -65.430169 
L 593.690014 -65.707653 
L 594.532084 -65.985137 
L 595.451762 -66.262621 
L 596.442526 -66.540105 
L 597.497483 -66.817589 
L 598.609443 -67.095073 
L 599.771002 -67.372557 
L 600.974624 -67.650041 
L 602.212719 -67.927525 
L 603.477724 -68.20501 
L 604.762174 -68.482494 
L 606.058777 -68.759978 
L 607.360472 -69.037462 
L 608.660498 -69.314946 
L 609.952438 -69.59243 
L 611.230271 -69.869914 
L 612.488404 -70.147398 
L 613.721709 -70.424882 
L 614.925545 -70.702366 
L 616.095771 -70.97985 
L 617.228754 -71.257334 
L 618.321376 -71.534818 
L 619.371023 -71.812302 
L 620.375579 -72.089786 
L 621.333404 -72.36727 
L 622.243319 -72.644754 
L 623.104574 -72.922238 
L 623.916826 -73.199722 
L 624.680101 -73.477206 
L 625.394765 -73.75469 
L 626.061488 -74.032174 
L 626.681205 -74.309658 
L 627.255086 -74.587142 
L 627.784493 -74.864626 
L 628.270955 -75.14211 
L 628.716123 -75.419594 
L 629.12175 -75.697078 
L 629.489653 -75.974562 
L 629.82169 -76.252046 
L 630.119735 -76.52953 
L 630.385653 -76.807014 
L 630.621285 -77.084498 
L 630.828426 -77.361982 
L 631.008816 -77.639466 
L 631.164125 -77.91695 
L 631.295946 -78.194434 
L 631.405787 -78.471918 
L 631.495071 -78.749402 
L 631.565128 -79.026886 
L 631.6172 -79.30437 
L 631.652439 -79.581855 
L 631.671913 -79.859339 
L 631.676611 -80.136823 
L 631.667447 -80.414307 
L 631.645266 -80.691791 
L 631.610855 -80.969275 
L 631.564947 -81.246759 
L 631.508234 -81.524243 
L 631.441371 -81.801727 
L 631.364987 -82.079211 
L 631.279694 -82.356695 
L 631.186092 -82.634179 
L 631.084781 -82.911663 
L 630.976364 -83.189147 
L 630.861457 -83.466631 
L 630.740689 -83.744115 
L 630.614713 -84.021599 
L 630.484206 -84.299083 
L 630.349872 -84.576567 
L 630.212443 -84.854051 
L 630.072679 -85.131535 
L 629.931372 -85.409019 
L 629.789336 -85.686503 
L 629.647412 -85.963987 
L 629.506457 -86.241471 
L 629.367347 -86.518955 
L 629.230964 -86.796439 
L 629.098194 -87.073923 
L 628.969918 -87.351407 
L 628.847004 -87.628891 
L 628.730303 -87.906375 
L 628.620635 -88.183859 
L 628.518784 -88.461343 
L 628.42549 -88.738827 
L 628.341439 -89.016311 
L 628.267259 -89.293795 
L 628.203508 -89.571279 
L 628.15067 -89.848763 
L 628.109152 -90.126247 
L 628.079273 -90.403731 
L 628.061266 -90.681215 
L 628.055273 -90.958699 
L 637.481896 -90.958699 
L 637.481896 -90.958699 
L 637.475903 -90.681215 
L 637.457897 -90.403731 
L 637.428018 -90.126247 
L 637.3865 -89.848763 
L 637.333662 -89.571279 
L 637.269911 -89.293795 
L 637.195731 -89.016311 
L 637.11168 -88.738827 
L 637.018386 -88.461343 
L 636.916535 -88.183859 
L 636.806867 -87.906375 
L 636.690166 -87.628891 
L 636.567252 -87.351407 
L 636.438976 -87.073923 
L 636.306205 -86.796439 
L 636.169823 -86.518955 
L 636.030712 -86.241471 
L 635.889758 -85.963987 
L 635.747834 -85.686503 
L 635.605798 -85.409019 
L 635.464491 -85.131535 
L 635.324727 -84.854051 
L 635.187298 -84.576567 
L 635.052963 -84.299083 
L 634.922457 -84.021599 
L 634.796481 -83.744115 
L 634.675713 -83.466631 
L 634.560805 -83.189147 
L 634.452389 -82.911663 
L 634.351078 -82.634179 
L 634.257476 -82.356695 
L 634.172183 -82.079211 
L 634.095799 -81.801727 
L 634.028936 -81.524243 
L 633.972223 -81.246759 
L 633.926315 -80.969275 
L 633.891904 -80.691791 
L 633.869723 -80.414307 
L 633.860558 -80.136823 
L 633.865257 -79.859339 
L 633.884731 -79.581855 
L 633.91997 -79.30437 
L 633.972041 -79.026886 
L 634.042099 -78.749402 
L 634.131383 -78.471918 
L 634.241224 -78.194434 
L 634.373045 -77.91695 
L 634.528354 -77.639466 
L 634.708744 -77.361982 
L 634.915885 -77.084498 
L 635.151516 -76.807014 
L 635.417435 -76.52953 
L 635.71548 -76.252046 
L 636.047517 -75.974562 
L 636.41542 -75.697078 
L 636.821047 -75.419594 
L 637.266215 -75.14211 
L 637.752676 -74.864626 
L 638.282084 -74.587142 
L 638.855965 -74.309658 
L 639.475682 -74.032174 
L 640.142405 -73.75469 
L 640.857069 -73.477206 
L 641.620344 -73.199722 
L 642.432596 -72.922238 
L 643.293851 -72.644754 
L 644.203766 -72.36727 
L 645.161591 -72.089786 
L 646.166147 -71.812302 
L 647.215794 -71.534818 
L 648.308416 -71.257334 
L 649.441399 -70.97985 
L 650.611624 -70.702366 
L 651.81546 -70.424882 
L 653.048766 -70.147398 
L 654.306899 -69.869914 
L 655.584731 -69.59243 
L 656.876672 -69.314946 
L 658.176698 -69.037462 
L 659.478393 -68.759978 
L 660.774995 -68.482494 
L 662.059446 -68.20501 
L 663.324451 -67.927525 
L 664.562546 -67.650041 
L 665.766168 -67.372557 
L 666.927727 -67.095073 
L 668.039687 -66.817589 
L 669.094644 -66.540105 
L 670.085408 -66.262621 
L 671.005086 -65.985137 
L 671.847156 -65.707653 
L 672.60555 -65.430169 
L 673.274723 -65.152685 
L 673.849719 -64.875201 
L 674.326238 -64.597717 
L 674.700681 -64.320233 
L 674.970204 -64.042749 
L 675.132747 -63.765265 
L 675.187064 -63.487781 
z
" style="stroke: #000000; stroke-opacity: 0.4"/>
    </defs>
    <g clip-path="url(#p838591accf)">
     <use xlink:href="#m14f5071138" x="0" y="432" style="fill: #fde725; fill-opacity: 0.4; stroke: #000000; stroke-opacity: 0.4"/>
    </g>
   </g>
   <g id="matplotlib.axis_1">
    <g id="xtick_1">
     <g id="line2d_1">
      <defs>
       <path id="m7eaa215ddb" d="M 0 0 
L 0 3.5 
" style="stroke: #000000; stroke-width: 0.8"/>
      </defs>
      <g>
       <use xlink:href="#m7eaa215ddb" x="123.746832" y="384.626418" style="stroke: #000000; stroke-width: 0.8"/>
      </g>
     </g>
     <g id="text_1">
      <!-- Borda rule -->
      <g transform="translate(98.221648 399.236765) scale(0.11 -0.11)">
       <defs>
        <path id="CMR17-42" d="M 333 4352 
L 333 4186 
C 774 4186 845 4186 845 3900 
L 845 452 
C 845 166 774 166 333 166 
L 333 0 
L 2534 0 
C 3354 0 3885 583 3885 1164 
C 3885 1741 3360 2233 2675 2233 
C 3290 2356 3718 2771 3718 3264 
C 3718 3802 3194 4352 2368 4352 
L 333 4352 
z
M 1248 2304 
L 1248 3937 
C 1248 4155 1261 4186 1517 4186 
L 2336 4186 
C 2970 4186 3251 3674 3251 3277 
C 3251 2791 2861 2304 2170 2304 
L 1248 2304 
z
M 1517 166 
C 1261 166 1248 197 1248 413 
L 1248 2202 
L 2432 2202 
C 3091 2202 3411 1625 3411 1162 
C 3411 699 3046 166 2349 166 
L 1517 166 
z
" transform="scale(0.015625)"/>
        <path id="CMR17-6f" d="M 2758 1356 
C 2758 2176 2163 2816 1466 2816 
C 768 2816 173 2176 173 1356 
C 173 551 768 -64 1466 -64 
C 2163 -64 2758 551 2758 1356 
z
M 1466 51 
C 1165 51 909 230 762 480 
C 602 767 582 1126 582 1408 
C 582 1677 595 2010 762 2298 
C 890 2509 1139 2714 1466 2714 
C 1754 2714 1997 2554 2150 2330 
C 2349 2029 2349 1607 2349 1408 
C 2349 1158 2336 775 2163 467 
C 1984 173 1709 51 1466 51 
z
" transform="scale(0.015625)"/>
        <path id="CMR17-72" d="M 960 1497 
C 960 2112 1222 2688 1702 2688 
C 1747 2688 1792 2682 1837 2662 
C 1837 2662 1696 2617 1696 2452 
C 1696 2298 1818 2234 1914 2234 
C 1990 2234 2131 2279 2131 2458 
C 2131 2663 1926 2790 1709 2790 
C 1222 2790 1011 2317 947 2093 
L 941 2093 
L 941 2790 
L 198 2720 
L 198 2554 
C 576 2554 634 2515 634 2208 
L 634 428 
C 634 184 608 153 198 153 
L 198 -13 
C 352 0 646 0 813 0 
C 998 0 1325 0 1498 -13 
L 1498 153 
C 1037 153 960 153 960 440 
L 960 1497 
z
" transform="scale(0.015625)"/>
        <path id="CMR17-64" d="M 1869 4326 
L 1869 4160 
C 2246 4160 2304 4122 2304 3820 
L 2304 2345 
C 2278 2377 2016 2790 1498 2790 
C 845 2790 211 2208 211 1364 
C 211 525 806 -64 1434 -64 
C 1978 -64 2259 337 2291 380 
L 2291 -63 
L 3066 -63 
L 3066 128 
C 2688 128 2630 166 2630 473 
L 2630 4396 
L 1869 4326 
z
M 2291 755 
C 2291 563 2176 390 2029 262 
C 1811 70 1594 38 1472 38 
C 1286 38 621 134 621 1356 
C 621 2612 1363 2688 1530 2688 
C 1824 2688 2061 2522 2208 2291 
C 2291 2157 2291 2138 2291 2023 
L 2291 755 
z
" transform="scale(0.015625)"/>
        <path id="CMR17-61" d="M 2304 1653 
C 2304 2072 2304 2294 2035 2543 
C 1798 2752 1523 2816 1306 2816 
C 800 2816 435 2407 435 1971 
C 435 1728 627 1728 666 1728 
C 749 1728 896 1778 896 1954 
C 896 2112 774 2181 666 2181 
C 640 2181 608 2174 589 2168 
C 723 2592 1069 2714 1293 2714 
C 1613 2714 1965 2429 1965 1885 
L 1965 1600 
C 1587 1600 1133 1549 774 1357 
C 371 1133 256 813 256 570 
C 256 77 832 -64 1171 -64 
C 1523 -64 1850 139 1990 511 
C 2003 233 2182 -18 2464 -18 
C 2598 -18 2938 70 2938 567 
L 2938 920 
L 2822 920 
L 2822 562 
C 2822 178 2650 128 2566 128 
C 2304 128 2304 458 2304 738 
L 2304 1653 
z
M 1965 870 
C 1965 317 1568 38 1216 38 
C 896 38 646 275 646 570 
C 646 761 730 1100 1101 1305 
C 1408 1478 1760 1504 1965 1504 
L 1965 870 
z
" transform="scale(0.015625)"/>
        <path id="CMR17-75" d="M 1882 2693 
L 1882 2528 
C 2259 2528 2317 2489 2317 2186 
L 2317 1032 
C 2317 500 2029 38 1555 38 
C 1030 38 986 348 986 678 
L 986 2763 
L 211 2693 
L 211 2528 
C 467 2528 640 2528 646 2274 
L 646 1058 
C 646 633 646 361 813 183 
C 896 101 1056 -64 1517 -64 
C 2061 -64 2272 377 2323 506 
L 2330 506 
L 2330 -63 
L 3091 -63 
L 3091 128 
C 2714 128 2656 166 2656 473 
L 2656 2763 
L 1882 2693 
z
" transform="scale(0.015625)"/>
        <path id="CMR17-6c" d="M 979 4396 
L 218 4326 
L 218 4160 
C 595 4160 653 4122 653 3817 
L 653 426 
C 653 184 627 153 218 153 
L 218 -13 
C 371 0 653 0 813 0 
C 979 0 1261 0 1414 -13 
L 1414 153 
C 1005 153 979 178 979 426 
L 979 4396 
z
" transform="scale(0.015625)"/>
        <path id="CMR17-65" d="M 2438 1472 
C 2464 1498 2464 1511 2464 1576 
C 2464 2238 2118 2816 1389 2816 
C 710 2816 173 2169 173 1383 
C 173 551 781 -64 1459 -64 
C 2176 -64 2458 607 2458 740 
C 2458 784 2419 784 2406 784 
C 2362 784 2355 771 2330 696 
C 2189 265 1837 51 1504 51 
C 1229 51 954 203 781 480 
C 582 803 582 1176 582 1472 
L 2438 1472 
z
M 589 1568 
C 634 2505 1126 2714 1382 2714 
C 1818 2714 2112 2297 2118 1568 
L 589 1568 
z
" transform="scale(0.015625)"/>
       </defs>
       <use xlink:href="#CMR17-42" transform="scale(0.996264)"/>
       <use xlink:href="#CMR17-6f" transform="translate(65.188754 0) scale(0.996264)"/>
       <use xlink:href="#CMR17-72" transform="translate(110.879232 0) scale(0.996264)"/>
       <use xlink:href="#CMR17-64" transform="translate(146.159999 0) scale(0.996264)"/>
       <use xlink:href="#CMR17-61" transform="translate(197.055369 0) scale(0.996264)"/>
       <use xlink:href="#CMR17-72" transform="translate(272.821813 0) scale(0.996264)"/>
       <use xlink:href="#CMR17-75" transform="translate(308.10258 0) scale(0.996264)"/>
       <use xlink:href="#CMR17-6c" transform="translate(358.99795 0) scale(0.996264)"/>
       <use xlink:href="#CMR17-65" transform="translate(383.869009 0) scale(0.996264)"/>
      </g>
     </g>
    </g>
    <g id="xtick_2">
     <g id="line2d_2">
      <g>
       <use xlink:href="#m7eaa215ddb" x="293.420749" y="384.626418" style="stroke: #000000; stroke-width: 0.8"/>
      </g>
     </g>
     <g id="text_2">
      <!-- Copeland's Rule -->
      <g transform="translate(254.19692 399.236765) scale(0.11 -0.11)">
       <defs>
        <path id="CMR17-43" d="M 3974 4289 
C 3974 4403 3968 4410 3930 4410 
C 3904 4410 3898 4403 3853 4327 
L 3571 3792 
C 3258 4187 2874 4416 2381 4416 
C 1286 4416 294 3456 294 2148 
C 294 826 1286 -128 2387 -128 
C 3366 -128 3974 730 3974 1461 
C 3974 1524 3974 1550 3917 1550 
C 3866 1550 3866 1531 3859 1474 
C 3808 585 3168 38 2477 38 
C 1824 38 781 495 781 2147 
C 781 3805 1843 4250 2464 4250 
C 3187 4250 3712 3628 3834 2745 
C 3846 2668 3846 2655 3904 2655 
C 3974 2655 3974 2668 3974 2783 
L 3974 4289 
z
" transform="scale(0.015625)"/>
        <path id="CMR17-70" d="M 1408 -1063 
C 998 -1063 973 -1037 973 -789 
L 973 402 
C 1158 134 1427 -38 1766 -38 
C 2406 -38 3053 523 3053 1388 
C 3053 2191 2496 2802 1837 2802 
C 1453 2802 1139 2592 960 2338 
L 960 2802 
L 198 2732 
L 198 2567 
C 576 2567 634 2528 634 2223 
L 634 -789 
C 634 -1031 608 -1063 198 -1063 
L 198 -1228 
C 352 -1216 634 -1216 800 -1216 
C 966 -1216 1254 -1216 1408 -1228 
L 1408 -1063 
z
M 973 2012 
C 973 2102 973 2235 1222 2471 
C 1254 2497 1472 2688 1792 2688 
C 2259 2688 2643 2108 2643 1382 
C 2643 656 2234 64 1728 64 
C 1498 64 1248 172 1056 472 
C 973 612 973 650 973 752 
L 973 2012 
z
" transform="scale(0.015625)"/>
        <path id="CMR17-6e" d="M 2656 1933 
C 2656 2259 2592 2790 1837 2790 
C 1331 2790 1069 2400 973 2144 
L 966 2144 
L 966 2790 
L 211 2720 
L 211 2554 
C 589 2554 646 2515 646 2208 
L 646 428 
C 646 184 621 153 211 153 
L 211 -13 
C 365 0 646 0 813 0 
C 979 0 1267 0 1421 -13 
L 1421 153 
C 1011 153 986 178 986 428 
L 986 1658 
C 986 2247 1344 2688 1792 2688 
C 2266 2688 2317 2266 2317 1958 
L 2317 428 
C 2317 184 2291 153 1882 153 
L 1882 -13 
C 2035 0 2317 0 2483 0 
C 2650 0 2938 0 3091 -13 
L 3091 153 
C 2682 153 2656 178 2656 428 
L 2656 1933 
z
" transform="scale(0.015625)"/>
        <path id="CMR17-27" d="M 1024 4025 
C 1037 3955 1043 3929 1043 3820 
C 1043 3415 883 3042 634 2778 
C 608 2752 595 2733 595 2707 
C 595 2681 621 2656 646 2656 
C 691 2656 1146 3105 1146 3811 
C 1146 3952 1133 4426 800 4426 
C 659 4426 538 4331 538 4165 
C 538 3999 659 3904 800 3904 
C 858 3904 966 3923 1024 4025 
z
" transform="scale(0.015625)"/>
        <path id="CMR17-73" d="M 1978 2697 
C 1978 2813 1971 2819 1933 2819 
C 1907 2819 1901 2813 1824 2717 
C 1805 2691 1747 2626 1728 2601 
C 1523 2819 1235 2819 1126 2819 
C 416 2819 160 2447 160 2076 
C 160 1498 813 1365 998 1325 
C 1402 1243 1542 1217 1677 1101 
C 1760 1025 1901 884 1901 654 
C 1901 384 1747 38 1158 38 
C 602 38 403 460 288 1021 
C 269 1110 269 1117 218 1117 
C 166 1117 160 1110 160 983 
L 160 63 
C 160 -51 166 -58 205 -58 
C 237 -58 243 -51 275 0 
C 314 57 410 211 448 276 
C 576 103 800 -64 1158 -64 
C 1792 -64 2131 283 2131 784 
C 2131 1112 1958 1285 1875 1362 
C 1683 1561 1459 1606 1190 1657 
C 838 1735 390 1825 390 2217 
C 390 2383 480 2737 1126 2737 
C 1811 2737 1850 2094 1862 1888 
C 1869 1856 1901 1849 1920 1849 
C 1978 1849 1978 1869 1978 1978 
L 1978 2697 
z
" transform="scale(0.015625)"/>
        <path id="CMR17-52" d="M 2509 2146 
C 3117 2268 3629 2676 3629 3186 
C 3629 3785 2950 4326 2054 4326 
L 333 4326 
L 333 4160 
C 774 4160 845 4160 845 3873 
L 845 415 
C 845 128 774 128 333 128 
L 333 -26 
C 518 -26 851 -26 1050 -26 
C 1248 -26 1581 -26 1766 -26 
L 1766 128 
C 1325 128 1254 128 1254 417 
L 1254 2112 
L 2003 2112 
C 2368 2112 2573 1964 2662 1881 
C 2918 1632 2918 1459 2918 1024 
C 2918 595 2918 377 3110 160 
C 3354 -102 3680 -128 3821 -128 
C 4294 -128 4365 396 4365 503 
C 4365 540 4365 585 4307 585 
C 4256 585 4250 547 4250 522 
C 4218 112 4032 -26 3834 -26 
C 3482 -26 3443 375 3405 764 
C 3386 898 3373 993 3360 1133 
C 3322 1452 3270 1917 2509 2146 
z
M 1984 2214 
L 1254 2214 
L 1254 3913 
C 1254 4129 1267 4160 1523 4160 
L 1990 4160 
C 2522 4160 3142 3977 3142 3190 
C 3142 2372 2464 2214 1984 2214 
z
" transform="scale(0.015625)"/>
       </defs>
       <use xlink:href="#CMR17-43" transform="scale(0.996264)"/>
       <use xlink:href="#CMR17-6f" transform="translate(66.509881 0) scale(0.996264)"/>
       <use xlink:href="#CMR17-70" transform="translate(112.200358 0) scale(0.996264)"/>
       <use xlink:href="#CMR17-65" transform="translate(165.698166 0) scale(0.996264)"/>
       <use xlink:href="#CMR17-6c" transform="translate(206.183827 0) scale(0.996264)"/>
       <use xlink:href="#CMR17-61" transform="translate(231.054885 0) scale(0.996264)"/>
       <use xlink:href="#CMR17-6e" transform="translate(276.745362 0) scale(0.996264)"/>
       <use xlink:href="#CMR17-64" transform="translate(327.640732 0) scale(0.996264)"/>
       <use xlink:href="#CMR17-27" transform="translate(378.536102 0) scale(0.996264)"/>
       <use xlink:href="#CMR17-73" transform="translate(403.40716 0) scale(0.996264)"/>
       <use xlink:href="#CMR17-52" transform="translate(469.284464 0) scale(0.996264)"/>
       <use xlink:href="#CMR17-75" transform="translate(537.075566 0) scale(0.996264)"/>
       <use xlink:href="#CMR17-6c" transform="translate(587.970936 0) scale(0.996264)"/>
       <use xlink:href="#CMR17-65" transform="translate(612.841994 0) scale(0.996264)"/>
      </g>
     </g>
    </g>
    <g id="xtick_3">
     <g id="line2d_3">
      <g>
       <use xlink:href="#m7eaa215ddb" x="463.094667" y="384.626418" style="stroke: #000000; stroke-width: 0.8"/>
      </g>
     </g>
     <g id="text_3">
      <!-- Plurality rule -->
      <g transform="translate(431.024584 399.236765) scale(0.11 -0.11)">
       <defs>
        <path id="CMR17-50" d="M 1267 2042 
L 2291 2042 
C 3117 2042 3718 2578 3718 3184 
C 3718 3791 3130 4352 2291 4352 
L 333 4352 
L 333 4186 
C 774 4186 845 4186 845 3899 
L 845 446 
C 845 160 774 160 333 160 
L 333 0 
C 518 0 858 0 1056 0 
C 1254 0 1594 0 1779 0 
L 1779 160 
C 1338 160 1267 160 1267 446 
L 1267 2042 
z
M 1254 2176 
L 1254 3938 
C 1254 4155 1267 4186 1523 4186 
L 2170 4186 
C 2995 4186 3232 3714 3232 3184 
C 3232 2604 2950 2176 2170 2176 
L 1254 2176 
z
" transform="scale(0.015625)"/>
        <path id="CMR17-69" d="M 992 3909 
C 992 4049 877 4170 730 4170 
C 589 4170 467 4056 467 3909 
C 467 3769 582 3648 730 3648 
C 870 3648 992 3763 992 3909 
z
M 243 2706 
L 243 2541 
C 602 2541 653 2502 653 2197 
L 653 427 
C 653 184 627 153 218 153 
L 218 -13 
C 371 0 646 0 806 0 
C 960 0 1222 0 1370 -13 
L 1370 153 
C 992 153 979 191 979 420 
L 979 2776 
L 243 2706 
z
" transform="scale(0.015625)"/>
        <path id="CMR17-74" d="M 966 2560 
L 1862 2560 
L 1862 2725 
L 966 2725 
L 966 3904 
L 851 3904 
C 838 3245 614 2668 70 2668 
L 70 2560 
L 627 2560 
L 627 771 
C 627 650 627 -64 1370 -64 
C 1747 -64 1965 306 1965 777 
L 1965 1140 
L 1850 1140 
L 1850 783 
C 1850 344 1677 51 1408 51 
C 1222 51 966 178 966 758 
L 966 2560 
z
" transform="scale(0.015625)"/>
        <path id="CMR17-79" d="M 2496 2197 
C 2656 2586 2944 2586 3034 2586 
L 3034 2752 
C 2912 2752 2752 2752 2630 2752 
C 2496 2752 2285 2752 2157 2758 
L 2157 2592 
C 2400 2573 2406 2394 2406 2343 
C 2406 2280 2394 2248 2362 2171 
L 1664 449 
L 902 2306 
C 870 2382 870 2426 870 2433 
C 870 2573 1018 2586 1171 2586 
L 1171 2758 
C 1018 2752 742 2752 582 2752 
C 410 2752 205 2752 64 2758 
L 64 2586 
C 410 2586 448 2554 531 2350 
L 1485 15 
C 1197 -738 1030 -1178 627 -1178 
C 557 -1178 397 -1159 282 -1044 
C 429 -1031 493 -942 493 -833 
C 493 -725 416 -629 288 -629 
C 147 -629 77 -725 77 -840 
C 77 -1095 339 -1280 627 -1280 
C 998 -1280 1229 -922 1357 -604 
L 2496 2197 
z
" transform="scale(0.015625)"/>
       </defs>
       <use xlink:href="#CMR17-50" transform="scale(0.996264)"/>
       <use xlink:href="#CMR17-6c" transform="translate(62.586301 0) scale(0.996264)"/>
       <use xlink:href="#CMR17-75" transform="translate(87.457359 0) scale(0.996264)"/>
       <use xlink:href="#CMR17-72" transform="translate(138.352729 0) scale(0.996264)"/>
       <use xlink:href="#CMR17-61" transform="translate(173.633497 0) scale(0.996264)"/>
       <use xlink:href="#CMR17-6c" transform="translate(219.323974 0) scale(0.996264)"/>
       <use xlink:href="#CMR17-69" transform="translate(244.195032 0) scale(0.996264)"/>
       <use xlink:href="#CMR17-74" transform="translate(269.066091 0) scale(0.996264)"/>
       <use xlink:href="#CMR17-79" transform="translate(301.744405 0) scale(0.996264)"/>
       <use xlink:href="#CMR17-72" transform="translate(380.113287 0) scale(0.996264)"/>
       <use xlink:href="#CMR17-75" transform="translate(415.394055 0) scale(0.996264)"/>
       <use xlink:href="#CMR17-6c" transform="translate(466.289424 0) scale(0.996264)"/>
       <use xlink:href="#CMR17-65" transform="translate(491.160483 0) scale(0.996264)"/>
      </g>
     </g>
    </g>
    <g id="xtick_4">
     <g id="line2d_4">
      <g>
       <use xlink:href="#m7eaa215ddb" x="632.768585" y="384.626418" style="stroke: #000000; stroke-width: 0.8"/>
      </g>
     </g>
     <g id="text_4">
      <!-- Black's Rule -->
      <g transform="translate(602.90552 399.236765) scale(0.11 -0.11)">
       <defs>
        <path id="CMR17-63" d="M 2234 2240 
C 2112 2240 1933 2240 1933 2017 
C 1933 1838 2080 1787 2163 1787 
C 2208 1787 2394 1807 2394 2024 
C 2394 2467 1958 2803 1466 2803 
C 787 2803 211 2178 211 1363 
C 211 516 813 -64 1466 -64 
C 2259 -64 2458 677 2458 748 
C 2458 774 2451 793 2406 793 
C 2362 793 2355 787 2330 703 
C 2163 180 1798 51 1523 51 
C 1114 51 621 427 621 1369 
C 621 2338 1094 2688 1472 2688 
C 1722 2688 2093 2573 2234 2240 
z
" transform="scale(0.015625)"/>
        <path id="CMR17-6b" d="M 1670 1673 
C 1664 1686 1632 1724 1632 1743 
C 1632 1756 2086 2171 2144 2222 
C 2509 2528 2739 2560 2906 2560 
L 2906 2733 
C 2867 2733 2854 2733 2848 2720 
L 2534 2720 
C 2355 2720 2080 2720 1907 2733 
L 1907 2566 
C 1997 2559 2061 2508 2061 2419 
C 2061 2291 1933 2170 1926 2170 
L 960 1289 
L 960 4396 
L 198 4326 
L 198 4160 
C 576 4160 634 4122 634 3817 
L 634 426 
C 634 184 608 153 198 153 
L 198 -13 
C 352 0 634 0 794 0 
C 954 0 1235 0 1389 -13 
L 1389 153 
C 979 153 954 178 954 428 
L 954 1130 
L 1395 1532 
L 2042 574 
C 2118 459 2182 369 2182 286 
C 2182 172 2067 153 1990 153 
L 1990 -13 
C 2144 0 2419 0 2579 0 
C 2694 0 2931 0 3040 0 
L 3040 153 
C 2739 153 2669 210 2477 491 
L 1670 1673 
z
" transform="scale(0.015625)"/>
       </defs>
       <use xlink:href="#CMR17-42" transform="scale(0.996264)"/>
       <use xlink:href="#CMR17-6c" transform="translate(65.188754 0) scale(0.996264)"/>
       <use xlink:href="#CMR17-61" transform="translate(90.059813 0) scale(0.996264)"/>
       <use xlink:href="#CMR17-63" transform="translate(135.75029 0) scale(0.996264)"/>
       <use xlink:href="#CMR17-6b" transform="translate(173.633497 0) scale(0.996264)"/>
       <use xlink:href="#CMR17-27" transform="translate(221.926412 0) scale(0.996264)"/>
       <use xlink:href="#CMR17-73" transform="translate(246.797471 0) scale(0.996264)"/>
       <use xlink:href="#CMR17-52" transform="translate(312.674775 0) scale(0.996264)"/>
       <use xlink:href="#CMR17-75" transform="translate(380.465877 0) scale(0.996264)"/>
       <use xlink:href="#CMR17-6c" transform="translate(431.361247 0) scale(0.996264)"/>
       <use xlink:href="#CMR17-65" transform="translate(456.232305 0) scale(0.996264)"/>
      </g>
     </g>
    </g>
    <g id="text_5">
     <!-- Number of voters -->
     <g transform="translate(329.964678 414.361688) scale(0.13 -0.13)">
      <defs>
       <path id="CMR17-4e" d="M 1312 4250 
C 1267 4320 1261 4320 1139 4320 
L 326 4320 
L 326 4160 
L 448 4160 
C 704 4160 819 4129 838 4122 
L 838 610 
C 838 451 838 153 326 153 
L 326 -13 
C 474 0 742 0 902 0 
C 1062 0 1331 0 1478 -13 
L 1478 153 
C 966 153 966 451 966 610 
L 966 4033 
C 1011 3995 1011 3982 1056 3919 
L 3430 76 
C 3475 0 3494 0 3526 0 
C 3590 0 3590 19 3590 139 
L 3590 3705 
C 3590 3863 3590 4160 4102 4160 
L 4102 4326 
C 3955 4320 3686 4320 3526 4320 
C 3366 4320 3098 4320 2950 4326 
L 2950 4160 
C 3462 4160 3462 3862 3462 3703 
L 3462 763 
L 1312 4250 
z
" transform="scale(0.015625)"/>
       <path id="CMR17-6d" d="M 4326 1933 
C 4326 2252 4269 2790 3507 2790 
C 3072 2790 2771 2496 2656 2151 
L 2650 2151 
C 2573 2676 2195 2790 1837 2790 
C 1331 2790 1069 2400 973 2144 
L 966 2144 
L 966 2790 
L 211 2720 
L 211 2554 
C 589 2554 646 2515 646 2208 
L 646 428 
C 646 184 621 153 211 153 
L 211 -13 
C 365 0 646 0 813 0 
C 979 0 1267 0 1421 -13 
L 1421 153 
C 1011 153 986 178 986 428 
L 986 1658 
C 986 2247 1344 2688 1792 2688 
C 2266 2688 2317 2266 2317 1958 
L 2317 428 
C 2317 184 2291 153 1882 153 
L 1882 -13 
C 2035 0 2317 0 2483 0 
C 2650 0 2938 0 3091 -13 
L 3091 153 
C 2682 153 2656 178 2656 428 
L 2656 1658 
C 2656 2247 3014 2688 3462 2688 
C 3936 2688 3987 2266 3987 1958 
L 3987 428 
C 3987 184 3962 153 3552 153 
L 3552 -13 
C 3706 0 3987 0 4154 0 
C 4320 0 4608 0 4762 -13 
L 4762 153 
C 4352 153 4326 178 4326 428 
L 4326 1933 
z
" transform="scale(0.015625)"/>
       <path id="CMR17-62" d="M 960 4396 
L 198 4326 
L 198 4160 
C 576 4160 634 4122 634 3817 
L 634 -13 
L 749 -13 
L 934 441 
C 1120 141 1395 -64 1766 -64 
C 2406 -64 3053 500 3053 1370 
C 3053 2188 2477 2790 1830 2790 
C 1434 2790 1152 2579 960 2330 
L 960 4396 
z
M 973 2004 
C 973 2118 973 2138 1062 2272 
C 1312 2657 1670 2688 1792 2688 
C 1984 2688 2643 2585 2643 1376 
C 2643 108 1888 38 1734 38 
C 1536 38 1248 114 1043 486 
C 973 608 973 621 973 735 
L 973 2004 
z
" transform="scale(0.015625)"/>
       <path id="CMR17-66" d="M 979 2560 
L 1709 2560 
L 1709 2725 
L 966 2725 
L 966 3494 
C 966 4022 1235 4352 1510 4352 
C 1594 4352 1690 4327 1754 4282 
C 1702 4269 1568 4225 1568 4067 
C 1568 3901 1696 3850 1786 3850 
C 1875 3850 2003 3901 2003 4067 
C 2003 4308 1773 4454 1517 4454 
C 1152 4454 653 4156 653 3481 
L 653 2725 
L 141 2725 
L 141 2560 
L 653 2560 
L 653 427 
C 653 184 627 153 218 153 
L 218 -13 
C 371 0 666 0 832 0 
C 1018 0 1344 0 1517 -13 
L 1517 153 
C 1056 153 979 153 979 439 
L 979 2560 
z
" transform="scale(0.015625)"/>
       <path id="CMR17-76" d="M 2502 2163 
C 2560 2304 2662 2560 3034 2560 
L 3034 2726 
C 2912 2726 2752 2726 2630 2726 
C 2496 2726 2285 2726 2157 2732 
L 2157 2566 
C 2317 2553 2406 2477 2406 2311 
C 2406 2253 2406 2240 2368 2151 
L 1664 377 
L 902 2286 
C 864 2369 864 2381 864 2407 
C 864 2560 1075 2560 1171 2560 
L 1171 2732 
C 1018 2726 736 2726 576 2726 
C 403 2726 205 2726 64 2732 
L 64 2560 
C 307 2560 442 2560 518 2362 
L 1446 44 
C 1485 -51 1491 -64 1549 -64 
C 1606 -64 1613 -51 1651 44 
L 2502 2163 
z
" transform="scale(0.015625)"/>
      </defs>
      <use xlink:href="#CMR17-4e" transform="scale(0.996264)"/>
      <use xlink:href="#CMR17-75" transform="translate(69.07243 0) scale(0.996264)"/>
      <use xlink:href="#CMR17-6d" transform="translate(119.9678 0) scale(0.996264)"/>
      <use xlink:href="#CMR17-62" transform="translate(194.284936 0) scale(0.996264)"/>
      <use xlink:href="#CMR17-65" transform="translate(247.782744 0) scale(0.996264)"/>
      <use xlink:href="#CMR17-72" transform="translate(288.268404 0) scale(0.996264)"/>
      <use xlink:href="#CMR17-6f" transform="translate(353.625139 0) scale(0.996264)"/>
      <use xlink:href="#CMR17-66" transform="translate(399.315616 0) scale(0.996264)"/>
      <use xlink:href="#CMR17-76" transform="translate(456.865095 0) scale(0.996264)"/>
      <use xlink:href="#CMR17-6f" transform="translate(502.555556 0) scale(0.996264)"/>
      <use xlink:href="#CMR17-74" transform="translate(548.246034 0) scale(0.996264)"/>
      <use xlink:href="#CMR17-65" transform="translate(583.526801 0) scale(0.996264)"/>
      <use xlink:href="#CMR17-72" transform="translate(624.012462 0) scale(0.996264)"/>
      <use xlink:href="#CMR17-73" transform="translate(659.29323 0) scale(0.996264)"/>
     </g>
    </g>
   </g>
   <g id="matplotlib.axis_2">
    <g id="ytick_1">
     <g id="line2d_5">
      <path d="M 51.635416 368.512219 
L 704.88 368.512219 
" clip-path="url(#p838591accf)" style="fill: none; stroke: #b0b0b0; stroke-opacity: 0.3; stroke-linecap: square"/>
     </g>
     <g id="line2d_6">
      <defs>
       <path id="m836b00d2d6" d="M 0 0 
L -3.5 0 
" style="stroke: #000000; stroke-width: 0.8"/>
      </defs>
      <g>
       <use xlink:href="#m836b00d2d6" x="51.635416" y="368.512219" style="stroke: #000000; stroke-width: 0.8"/>
      </g>
     </g>
     <g id="text_6">
      <!-- $\mathdefault{1.0}$ -->
      <g transform="translate(30.63234 372.317392) scale(0.11 -0.11)">
       <defs>
        <path id="CMR17-31" d="M 1702 4058 
C 1702 4192 1696 4192 1606 4192 
C 1357 3916 979 3827 621 3827 
C 602 3827 570 3827 563 3808 
C 557 3795 557 3782 557 3648 
C 755 3648 1088 3686 1344 3839 
L 1344 461 
C 1344 236 1331 160 781 160 
L 589 160 
L 589 0 
C 896 0 1216 0 1523 0 
C 1830 0 2150 0 2458 0 
L 2458 160 
L 2266 160 
C 1715 160 1702 230 1702 458 
L 1702 4058 
z
" transform="scale(0.015625)"/>
        <path id="CMMI12-3a" d="M 1178 307 
C 1178 492 1024 619 870 619 
C 685 619 557 466 557 313 
C 557 128 710 0 864 0 
C 1050 0 1178 153 1178 307 
z
" transform="scale(0.015625)"/>
        <path id="CMR17-30" d="M 2688 2025 
C 2688 2416 2682 3080 2413 3591 
C 2176 4039 1798 4198 1466 4198 
C 1158 4198 768 4058 525 3597 
C 269 3118 243 2524 243 2025 
C 243 1661 250 1106 448 619 
C 723 -39 1216 -128 1466 -128 
C 1760 -128 2208 -7 2470 600 
C 2662 1042 2688 1559 2688 2025 
z
M 1466 -26 
C 1056 -26 813 325 723 812 
C 653 1188 653 1738 653 2096 
C 653 2588 653 2997 736 3387 
C 858 3929 1216 4096 1466 4096 
C 1728 4096 2067 3923 2189 3400 
C 2272 3036 2278 2607 2278 2096 
C 2278 1680 2278 1169 2202 792 
C 2067 95 1690 -26 1466 -26 
z
" transform="scale(0.015625)"/>
       </defs>
       <use xlink:href="#CMR17-31" transform="scale(0.996264)"/>
       <use xlink:href="#CMMI12-3a" transform="translate(45.690477 0) scale(0.996264)"/>
       <use xlink:href="#CMR17-30" transform="translate(72.787654 0) scale(0.996264)"/>
      </g>
     </g>
    </g>
    <g id="ytick_2">
     <g id="line2d_7">
      <path d="M 51.635416 295.765157 
L 704.88 295.765157 
" clip-path="url(#p838591accf)" style="fill: none; stroke: #b0b0b0; stroke-opacity: 0.3; stroke-linecap: square"/>
     </g>
     <g id="line2d_8">
      <g>
       <use xlink:href="#m836b00d2d6" x="51.635416" y="295.765157" style="stroke: #000000; stroke-width: 0.8"/>
      </g>
     </g>
     <g id="text_7">
      <!-- $\mathdefault{1.1}$ -->
      <g transform="translate(30.63234 299.570331) scale(0.11 -0.11)">
       <use xlink:href="#CMR17-31" transform="scale(0.996264)"/>
       <use xlink:href="#CMMI12-3a" transform="translate(45.690477 0) scale(0.996264)"/>
       <use xlink:href="#CMR17-31" transform="translate(72.787654 0) scale(0.996264)"/>
      </g>
     </g>
    </g>
    <g id="ytick_3">
     <g id="line2d_9">
      <path d="M 51.635416 223.018096 
L 704.88 223.018096 
" clip-path="url(#p838591accf)" style="fill: none; stroke: #b0b0b0; stroke-opacity: 0.3; stroke-linecap: square"/>
     </g>
     <g id="line2d_10">
      <g>
       <use xlink:href="#m836b00d2d6" x="51.635416" y="223.018096" style="stroke: #000000; stroke-width: 0.8"/>
      </g>
     </g>
     <g id="text_8">
      <!-- $\mathdefault{1.2}$ -->
      <g transform="translate(30.63234 226.823269) scale(0.11 -0.11)">
       <defs>
        <path id="CMR17-32" d="M 2669 989 
L 2554 989 
C 2490 536 2438 459 2413 420 
C 2381 369 1920 369 1830 369 
L 602 369 
C 832 619 1280 1072 1824 1597 
C 2214 1967 2669 2402 2669 3035 
C 2669 3790 2067 4224 1395 4224 
C 691 4224 262 3604 262 3030 
C 262 2780 448 2748 525 2748 
C 589 2748 781 2787 781 3010 
C 781 3207 614 3264 525 3264 
C 486 3264 448 3258 422 3245 
C 544 3790 915 4058 1306 4058 
C 1862 4058 2227 3617 2227 3035 
C 2227 2479 1901 2000 1536 1584 
L 262 146 
L 262 0 
L 2515 0 
L 2669 989 
z
" transform="scale(0.015625)"/>
       </defs>
       <use xlink:href="#CMR17-31" transform="scale(0.996264)"/>
       <use xlink:href="#CMMI12-3a" transform="translate(45.690477 0) scale(0.996264)"/>
       <use xlink:href="#CMR17-32" transform="translate(72.787654 0) scale(0.996264)"/>
      </g>
     </g>
    </g>
    <g id="ytick_4">
     <g id="line2d_11">
      <path d="M 51.635416 150.271034 
L 704.88 150.271034 
" clip-path="url(#p838591accf)" style="fill: none; stroke: #b0b0b0; stroke-opacity: 0.3; stroke-linecap: square"/>
     </g>
     <g id="line2d_12">
      <g>
       <use xlink:href="#m836b00d2d6" x="51.635416" y="150.271034" style="stroke: #000000; stroke-width: 0.8"/>
      </g>
     </g>
     <g id="text_9">
      <!-- $\mathdefault{1.3}$ -->
      <g transform="translate(30.63234 154.076207) scale(0.11 -0.11)">
       <defs>
        <path id="CMR17-33" d="M 1414 2157 
C 1984 2157 2234 1662 2234 1090 
C 2234 320 1824 25 1453 25 
C 1114 25 563 194 390 693 
C 422 680 454 680 486 680 
C 640 680 755 782 755 948 
C 755 1133 614 1216 486 1216 
C 378 1216 211 1165 211 926 
C 211 335 787 -128 1466 -128 
C 2176 -128 2720 430 2720 1085 
C 2720 1707 2208 2157 1600 2227 
C 2086 2328 2554 2756 2554 3329 
C 2554 3820 2048 4179 1472 4179 
C 890 4179 378 3829 378 3329 
C 378 3110 544 3072 627 3072 
C 762 3072 877 3155 877 3321 
C 877 3486 762 3569 627 3569 
C 602 3569 570 3569 544 3557 
C 730 3959 1235 4032 1459 4032 
C 1683 4032 2106 3925 2106 3320 
C 2106 3143 2080 2828 1862 2550 
C 1670 2304 1453 2304 1242 2284 
C 1210 2284 1062 2269 1037 2269 
C 992 2263 966 2257 966 2208 
C 966 2163 973 2157 1101 2157 
L 1414 2157 
z
" transform="scale(0.015625)"/>
       </defs>
       <use xlink:href="#CMR17-31" transform="scale(0.996264)"/>
       <use xlink:href="#CMMI12-3a" transform="translate(45.690477 0) scale(0.996264)"/>
       <use xlink:href="#CMR17-33" transform="translate(72.787654 0) scale(0.996264)"/>
      </g>
     </g>
    </g>
    <g id="ytick_5">
     <g id="line2d_13">
      <path d="M 51.635416 77.523972 
L 704.88 77.523972 
" clip-path="url(#p838591accf)" style="fill: none; stroke: #b0b0b0; stroke-opacity: 0.3; stroke-linecap: square"/>
     </g>
     <g id="line2d_14">
      <g>
       <use xlink:href="#m836b00d2d6" x="51.635416" y="77.523972" style="stroke: #000000; stroke-width: 0.8"/>
      </g>
     </g>
     <g id="text_10">
      <!-- $\mathdefault{1.4}$ -->
      <g transform="translate(30.63234 81.329146) scale(0.11 -0.11)">
       <defs>
        <path id="CMR17-34" d="M 2150 4122 
C 2150 4256 2144 4256 2029 4256 
L 128 1254 
L 128 1088 
L 1779 1088 
L 1779 457 
C 1779 224 1766 160 1318 160 
L 1197 160 
L 1197 0 
C 1402 0 1747 0 1965 0 
C 2182 0 2528 0 2733 0 
L 2733 160 
L 2611 160 
C 2163 160 2150 224 2150 457 
L 2150 1088 
L 2803 1088 
L 2803 1254 
L 2150 1254 
L 2150 4122 
z
M 1798 3703 
L 1798 1254 
L 256 1254 
L 1798 3703 
z
" transform="scale(0.015625)"/>
       </defs>
       <use xlink:href="#CMR17-31" transform="scale(0.996264)"/>
       <use xlink:href="#CMMI12-3a" transform="translate(45.690477 0) scale(0.996264)"/>
       <use xlink:href="#CMR17-34" transform="translate(72.787654 0) scale(0.996264)"/>
      </g>
     </g>
    </g>
    <g id="text_11">
     <!-- Distortion -->
     <g transform="translate(24.114028 235.497321) rotate(-90) scale(0.13 -0.13)">
      <defs>
       <path id="CMR17-44" d="M 333 4352 
L 333 4186 
C 774 4186 845 4186 845 3900 
L 845 452 
C 845 166 774 166 333 166 
L 333 0 
L 2368 0 
C 3398 0 4224 943 4224 2141 
C 4224 3346 3411 4352 2368 4352 
L 333 4352 
z
M 1523 166 
C 1267 166 1254 197 1254 414 
L 1254 3938 
C 1254 4155 1267 4186 1523 4186 
L 2240 4186 
C 2771 4186 3750 3874 3750 2141 
C 3750 1242 3488 879 3366 707 
C 3213 510 2848 166 2240 166 
L 1523 166 
z
" transform="scale(0.015625)"/>
      </defs>
      <use xlink:href="#CMR17-44" transform="scale(0.996264)"/>
      <use xlink:href="#CMR17-69" transform="translate(70.393556 0) scale(0.996264)"/>
      <use xlink:href="#CMR17-73" transform="translate(95.264614 0) scale(0.996264)"/>
      <use xlink:href="#CMR17-74" transform="translate(131.065952 0) scale(0.996264)"/>
      <use xlink:href="#CMR17-6f" transform="translate(166.34672 0) scale(0.996264)"/>
      <use xlink:href="#CMR17-72" transform="translate(212.037197 0) scale(0.996264)"/>
      <use xlink:href="#CMR17-74" transform="translate(247.317965 0) scale(0.996264)"/>
      <use xlink:href="#CMR17-69" transform="translate(282.598733 0) scale(0.996264)"/>
      <use xlink:href="#CMR17-6f" transform="translate(307.469791 0) scale(0.996264)"/>
      <use xlink:href="#CMR17-6e" transform="translate(353.160268 0) scale(0.996264)"/>
     </g>
    </g>
   </g>
   <g id="LineCollection_1">
    <path d="M 102.537592 336.28382 
L 144.956071 336.28382 
" clip-path="url(#p838591accf)" style="fill: none; stroke: #1f77b4; stroke-width: 1.5"/>
    <path d="M 272.21151 313.952059 
L 314.629989 313.952059 
" clip-path="url(#p838591accf)" style="fill: none; stroke: #1f77b4; stroke-width: 1.5"/>
    <path d="M 441.885427 320.633546 
L 484.303907 320.633546 
" clip-path="url(#p838591accf)" style="fill: none; stroke: #1f77b4; stroke-width: 1.5"/>
    <path d="M 611.559345 365.765127 
L 653.977825 365.765127 
" clip-path="url(#p838591accf)" style="fill: none; stroke: #1f77b4; stroke-width: 1.5"/>
   </g>
   <g id="LineCollection_2">
    <path d="M 102.537592 46.228228 
L 144.956071 46.228228 
" clip-path="url(#p838591accf)" style="fill: none; stroke: #1f77b4; stroke-width: 1.5"/>
    <path d="M 272.21151 108.845624 
L 314.629989 108.845624 
" clip-path="url(#p838591accf)" style="fill: none; stroke: #1f77b4; stroke-width: 1.5"/>
    <path d="M 441.885427 100.425825 
L 484.303907 100.425825 
" clip-path="url(#p838591accf)" style="fill: none; stroke: #1f77b4; stroke-width: 1.5"/>
    <path d="M 611.559345 341.041301 
L 653.977825 341.041301 
" clip-path="url(#p838591accf)" style="fill: none; stroke: #1f77b4; stroke-width: 1.5"/>
   </g>
   <g id="LineCollection_3">
    <path d="M 102.537592 368.512219 
L 144.956071 368.512219 
" clip-path="url(#p838591accf)" style="fill: none; stroke: #1f77b4; stroke-width: 1.5"/>
    <path d="M 272.21151 368.512219 
L 314.629989 368.512219 
" clip-path="url(#p838591accf)" style="fill: none; stroke: #1f77b4; stroke-width: 1.5"/>
    <path d="M 441.885427 368.512219 
L 484.303907 368.512219 
" clip-path="url(#p838591accf)" style="fill: none; stroke: #1f77b4; stroke-width: 1.5"/>
    <path d="M 611.559345 368.512219 
L 653.977825 368.512219 
" clip-path="url(#p838591accf)" style="fill: none; stroke: #1f77b4; stroke-width: 1.5"/>
   </g>
   <g id="LineCollection_4">
    <path d="M 123.746832 368.512219 
L 123.746832 46.228228 
" clip-path="url(#p838591accf)" style="fill: none; stroke: #1f77b4; stroke-width: 1.5"/>
    <path d="M 293.420749 368.512219 
L 293.420749 108.845624 
" clip-path="url(#p838591accf)" style="fill: none; stroke: #1f77b4; stroke-width: 1.5"/>
    <path d="M 463.094667 368.512219 
L 463.094667 100.425825 
" clip-path="url(#p838591accf)" style="fill: none; stroke: #1f77b4; stroke-width: 1.5"/>
    <path d="M 632.768585 368.512219 
L 632.768585 341.041301 
" clip-path="url(#p838591accf)" style="fill: none; stroke: #1f77b4; stroke-width: 1.5"/>
   </g>
   <g id="patch_3">
    <path d="M 51.635416 384.626418 
L 51.635416 30.114028 
" style="fill: none; stroke: #000000; stroke-linejoin: miter; stroke-linecap: square"/>
   </g>
   <g id="patch_4">
    <path d="M 704.88 384.626418 
L 704.88 30.114028 
" style="fill: none; stroke: #000000; stroke-linejoin: miter; stroke-linecap: square"/>
   </g>
   <g id="patch_5">
    <path d="M 51.635416 384.626418 
L 704.88 384.626418 
" style="fill: none; stroke: #000000; stroke-linejoin: miter; stroke-linecap: square"/>
   </g>
   <g id="patch_6">
    <path d="M 51.635416 30.114028 
L 704.88 30.114028 
" style="fill: none; stroke: #000000; stroke-linejoin: miter; stroke-linecap: square"/>
   </g>
   <g id="text_12">
    <!-- Distortion Under Utiliratian -->
    <g transform="translate(299.76145 24.114028) scale(0.13 -0.13)">
     <defs>
      <path id="CMR17-55" d="M 3456 1433 
C 3456 579 2899 38 2291 38 
C 1965 38 1670 210 1491 477 
C 1286 783 1261 1178 1261 1401 
L 1261 3874 
C 1261 4160 1331 4160 1773 4160 
L 1773 4320 
C 1587 4320 1248 4320 1050 4320 
C 851 4320 512 4320 326 4320 
L 326 4160 
C 768 4160 838 4160 838 3874 
L 838 1433 
C 838 516 1536 -128 2278 -128 
C 3110 -128 3590 719 3590 1344 
L 3590 3766 
C 3590 4122 3917 4160 4102 4160 
L 4102 4326 
C 3955 4320 3686 4320 3526 4320 
C 3366 4320 3091 4320 2944 4326 
L 2944 4160 
C 3456 4160 3456 3861 3456 3702 
L 3456 1433 
z
" transform="scale(0.015625)"/>
     </defs>
     <use xlink:href="#CMR17-44" transform="scale(0.996264)"/>
     <use xlink:href="#CMR17-69" transform="translate(70.393556 0) scale(0.996264)"/>
     <use xlink:href="#CMR17-73" transform="translate(95.264614 0) scale(0.996264)"/>
     <use xlink:href="#CMR17-74" transform="translate(131.065952 0) scale(0.996264)"/>
     <use xlink:href="#CMR17-6f" transform="translate(166.34672 0) scale(0.996264)"/>
     <use xlink:href="#CMR17-72" transform="translate(212.037197 0) scale(0.996264)"/>
     <use xlink:href="#CMR17-74" transform="translate(247.317965 0) scale(0.996264)"/>
     <use xlink:href="#CMR17-69" transform="translate(282.598733 0) scale(0.996264)"/>
     <use xlink:href="#CMR17-6f" transform="translate(307.469791 0) scale(0.996264)"/>
     <use xlink:href="#CMR17-6e" transform="translate(353.160268 0) scale(0.996264)"/>
     <use xlink:href="#CMR17-55" transform="translate(434.131604 0) scale(0.996264)"/>
     <use xlink:href="#CMR17-6e" transform="translate(503.204034 0) scale(0.996264)"/>
     <use xlink:href="#CMR17-64" transform="translate(554.099404 0) scale(0.996264)"/>
     <use xlink:href="#CMR17-65" transform="translate(604.994774 0) scale(0.996264)"/>
     <use xlink:href="#CMR17-72" transform="translate(645.480434 0) scale(0.996264)"/>
     <use xlink:href="#CMR17-55" transform="translate(710.837168 0) scale(0.996264)"/>
     <use xlink:href="#CMR17-74" transform="translate(779.909598 0) scale(0.996264)"/>
     <use xlink:href="#CMR17-69" transform="translate(815.190366 0) scale(0.996264)"/>
     <use xlink:href="#CMR17-6c" transform="translate(840.061424 0) scale(0.996264)"/>
     <use xlink:href="#CMR17-69" transform="translate(864.932483 0) scale(0.996264)"/>
     <use xlink:href="#CMR17-72" transform="translate(889.803541 0) scale(0.996264)"/>
     <use xlink:href="#CMR17-61" transform="translate(925.084309 0) scale(0.996264)"/>
     <use xlink:href="#CMR17-74" transform="translate(970.774786 0) scale(0.996264)"/>
     <use xlink:href="#CMR17-69" transform="translate(1006.055554 0) scale(0.996264)"/>
     <use xlink:href="#CMR17-61" transform="translate(1030.926612 0) scale(0.996264)"/>
     <use xlink:href="#CMR17-6e" transform="translate(1076.61709 0) scale(0.996264)"/>
    </g>
   </g>
  </g>
 </g>
 <defs>
  <clipPath id="p838591accf">
   <rect x="51.635416" y="30.114028" width="653.244584" height="354.51239"/>
  </clipPath>
 </defs>
</svg>
