<?xml version="1.0" encoding="utf-8" standalone="no"?>
<!DOCTYPE svg PUBLIC "-//W3C//DTD SVG 1.1//EN"
  "http://www.w3.org/Graphics/SVG/1.1/DTD/svg11.dtd">
<svg xmlns:xlink="http://www.w3.org/1999/xlink" width="460.8pt" height="345.6pt" viewBox="0 0 460.8 345.6" xmlns="http://www.w3.org/2000/svg" version="1.1">
 <metadata>
  <rdf:RDF xmlns:dc="http://purl.org/dc/elements/1.1/" xmlns:cc="http://creativecommons.org/ns#" xmlns:rdf="http://www.w3.org/1999/02/22-rdf-syntax-ns#">
   <cc:Work>
    <dc:type rdf:resource="http://purl.org/dc/dcmitype/StillImage"/>
    <dc:date>2024-12-08T13:02:51.579456</dc:date>
    <dc:format>image/svg+xml</dc:format>
    <dc:creator>
     <cc:Agent>
      <dc:title>Matplotlib v3.9.2, https://matplotlib.org/</dc:title>
     </cc:Agent>
    </dc:creator>
   </cc:Work>
  </rdf:RDF>
 </metadata>
 <defs>
  <style type="text/css">*{stroke-linejoin: round; stroke-linecap: butt}</style>
 </defs>
 <g id="figure_1">
  <g id="patch_1">
   <path d="M 0 345.6 
L 460.8 345.6 
L 460.8 0 
L 0 0 
z
" style="fill: #ffffff"/>
  </g>
  <g id="axes_1">
   <g id="patch_2">
    <path d="M 43.111807 298.226418 
L 443.441278 298.226418 
L 443.441278 30.114028 
L 43.111807 30.114028 
z
" style="fill: #ffffff"/>
   </g>
   <g id="PolyCollection_1">
    <defs>
     <path id="med0ab5bda0" d="M 61.308602 -234.78445 
L 61.308602 -7.842848 
L 80.463122 -83.941571 
L 99.617642 -82.769891 
L 118.772162 -82.630374 
L 137.926682 -81.839799 
L 157.081202 -81.775766 
L 176.235722 -81.482039 
L 195.390242 -81.503503 
L 214.544762 -81.321533 
L 233.699282 -81.278157 
L 252.853803 -81.226648 
L 272.008323 -81.24933 
L 291.162843 -81.156468 
L 310.317363 -81.203324 
L 329.471883 -81.082147 
L 348.626403 -81.122453 
L 367.780923 -81.070342 
L 386.935443 -81.047287 
L 406.089963 -81.053205 
L 425.244483 -81.030154 
L 425.244483 -81.036475 
L 425.244483 -81.036475 
L 406.089963 -81.059426 
L 386.935443 -81.055296 
L 367.780923 -81.07984 
L 348.626403 -81.13426 
L 329.471883 -81.096424 
L 310.317363 -81.215919 
L 291.162843 -81.176149 
L 272.008323 -81.27837 
L 252.853803 -81.252762 
L 233.699282 -81.299931 
L 214.544762 -81.355511 
L 195.390242 -81.549908 
L 176.235722 -81.542961 
L 157.081202 -81.940789 
L 137.926682 -81.996348 
L 118.772162 -83.204817 
L 99.617642 -83.497221 
L 80.463122 -86.489073 
L 61.308602 -234.78445 
z
" style="stroke: #440154; stroke-opacity: 0.2"/>
    </defs>
    <g clip-path="url(#p430c06e884)">
     <use xlink:href="#med0ab5bda0" x="0" y="345.6" style="fill: #440154; fill-opacity: 0.2; stroke: #440154; stroke-opacity: 0.2"/>
    </g>
   </g>
   <g id="PolyCollection_2">
    <path d="M 61.308602 -898.868482 
L 61.308602 1180.870837 
L 80.463122 267.846285 
L 99.617642 252.652476 
L 118.772162 253.249703 
L 137.926682 257.415706 
L 157.081202 254.74044 
L 176.235722 256.524131 
L 195.390242 254.799789 
L 214.544762 256.417056 
L 233.699282 256.78575 
L 252.853803 256.933082 
L 272.008323 256.823784 
L 291.162843 258.473908 
L 310.317363 256.919695 
L 329.471883 258.200049 
L 348.626403 257.7631 
L 367.780923 257.906939 
L 386.935443 258.561191 
L 406.089963 258.188018 
L 425.244483 257.991973 
L 425.244483 254.971743 
L 425.244483 254.971743 
L 406.089963 255.613906 
L 386.935443 256.278045 
L 367.780923 255.352605 
L 348.626403 255.308025 
L 329.471883 255.415359 
L 310.317363 252.571537 
L 291.162843 253.910489 
L 272.008323 252.885621 
L 252.853803 253.906435 
L 233.699282 250.674076 
L 214.544762 252.190568 
L 195.390242 248.284974 
L 176.235722 249.790051 
L 157.081202 247.022971 
L 137.926682 241.740024 
L 118.772162 243.585288 
L 99.617642 222.388722 
L 80.463122 197.639746 
L 61.308602 -898.868482 
z
" clip-path="url(#p430c06e884)" style="fill: #3b528b; fill-opacity: 0.2; stroke: #3b528b; stroke-opacity: 0.2"/>
   </g>
   <g id="PolyCollection_3">
    <path d="M 61.308602 -465.282047 
L 61.308602 802.745408 
L 80.463122 273.305925 
L 99.617642 251.648972 
L 118.772162 252.877433 
L 137.926682 253.714673 
L 157.081202 252.626326 
L 176.235722 252.892171 
L 195.390242 252.90761 
L 214.544762 251.411773 
L 233.699282 254.719798 
L 252.853803 252.68509 
L 272.008323 254.493682 
L 291.162843 253.652163 
L 310.317363 253.591607 
L 329.471883 253.479391 
L 348.626403 253.463892 
L 367.780923 254.004501 
L 386.935443 253.262359 
L 406.089963 253.20484 
L 425.244483 254.528587 
L 425.244483 249.554245 
L 425.244483 249.554245 
L 406.089963 246.909949 
L 386.935443 247.405938 
L 367.780923 247.448549 
L 348.626403 247.541507 
L 329.471883 243.664648 
L 310.317363 244.250306 
L 291.162843 244.041161 
L 272.008323 246.679571 
L 252.853803 244.064875 
L 233.699282 246.165992 
L 214.544762 241.854565 
L 195.390242 240.342581 
L 176.235722 240.333529 
L 157.081202 236.133884 
L 137.926682 232.312275 
L 118.772162 229.445073 
L 99.617642 220.003546 
L 80.463122 180.623773 
L 61.308602 -465.282047 
z
" clip-path="url(#p430c06e884)" style="fill: #21918c; fill-opacity: 0.2; stroke: #21918c; stroke-opacity: 0.2"/>
   </g>
   <g id="PolyCollection_4">
    <path d="M 61.308602 -11881.898474 
L 61.308602 11998.386185 
L 80.463122 253.786201 
L 99.617642 247.761446 
L 118.772162 248.676751 
L 137.926682 252.321181 
L 157.081202 246.798935 
L 176.235722 250.719593 
L 195.390242 250.598616 
L 214.544762 248.354225 
L 233.699282 251.128354 
L 252.853803 250.177998 
L 272.008323 251.173435 
L 291.162843 251.81338 
L 310.317363 249.449224 
L 329.471883 251.842427 
L 348.626403 251.095546 
L 367.780923 250.48698 
L 386.935443 251.30533 
L 406.089963 252.751962 
L 425.244483 250.844549 
L 425.244483 244.05052 
L 425.244483 244.05052 
L 406.089963 244.649803 
L 386.935443 244.103818 
L 367.780923 241.082571 
L 348.626403 242.16781 
L 329.471883 241.614321 
L 310.317363 240.312472 
L 291.162843 242.096071 
L 272.008323 241.153467 
L 252.853803 239.316561 
L 233.699282 237.3327 
L 214.544762 236.758032 
L 195.390242 238.068338 
L 176.235722 230.493223 
L 157.081202 231.842613 
L 137.926682 226.104385 
L 118.772162 228.307113 
L 99.617642 213.461313 
L 80.463122 185.836848 
L 61.308602 -11881.898474 
z
" clip-path="url(#p430c06e884)" style="fill: #5ec962; fill-opacity: 0.2; stroke: #5ec962; stroke-opacity: 0.2"/>
   </g>
   <g id="PolyCollection_5">
    <path d="M 61.308602 -1622.216172 
L 61.308602 1834.547095 
L 80.463122 287.457504 
L 99.617642 252.650753 
L 118.772162 250.729581 
L 137.926682 253.078673 
L 157.081202 250.306095 
L 176.235722 251.112713 
L 195.390242 248.591632 
L 214.544762 249.693365 
L 233.699282 249.609032 
L 252.853803 250.855594 
L 272.008323 247.023716 
L 291.162843 249.397461 
L 310.317363 248.401457 
L 329.471883 249.291777 
L 348.626403 250.548383 
L 367.780923 248.558669 
L 386.935443 249.82976 
L 406.089963 249.038686 
L 425.244483 250.897725 
L 425.244483 244.088306 
L 425.244483 244.088306 
L 406.089963 239.870776 
L 386.935443 241.12982 
L 367.780923 239.201207 
L 348.626403 240.905593 
L 329.471883 234.765425 
L 310.317363 237.927485 
L 291.162843 235.529795 
L 272.008323 234.653986 
L 252.853803 237.469018 
L 233.699282 233.20037 
L 214.544762 230.102598 
L 195.390242 226.606058 
L 176.235722 234.414685 
L 157.081202 226.038929 
L 137.926682 214.773491 
L 118.772162 216.714209 
L 99.617642 197.154268 
L 80.463122 132.83363 
L 61.308602 -1622.216172 
z
" clip-path="url(#p430c06e884)" style="fill: #fde725; fill-opacity: 0.2; stroke: #fde725; stroke-opacity: 0.2"/>
   </g>
   <g id="matplotlib.axis_1">
    <g id="xtick_1">
     <g id="line2d_1">
      <path d="M 53.646794 298.226418 
L 53.646794 30.114028 
" clip-path="url(#p430c06e884)" style="fill: none; stroke: #b0b0b0; stroke-opacity: 0.3; stroke-linecap: square"/>
     </g>
     <g id="line2d_2">
      <defs>
       <path id="m905998ad36" d="M 0 0 
L 0 3.5 
" style="stroke: #000000; stroke-width: 0.8"/>
      </defs>
      <g>
       <use xlink:href="#m905998ad36" x="53.646794" y="298.226418" style="stroke: #000000; stroke-width: 0.8"/>
      </g>
     </g>
     <g id="text_1">
      <!-- $\mathdefault{0}$ -->
      <g transform="translate(50.90706 312.836765) scale(0.11 -0.11)">
       <defs>
        <path id="CMR17-30" d="M 2688 2025 
C 2688 2416 2682 3080 2413 3591 
C 2176 4039 1798 4198 1466 4198 
C 1158 4198 768 4058 525 3597 
C 269 3118 243 2524 243 2025 
C 243 1661 250 1106 448 619 
C 723 -39 1216 -128 1466 -128 
C 1760 -128 2208 -7 2470 600 
C 2662 1042 2688 1559 2688 2025 
z
M 1466 -26 
C 1056 -26 813 325 723 812 
C 653 1188 653 1738 653 2096 
C 653 2588 653 2997 736 3387 
C 858 3929 1216 4096 1466 4096 
C 1728 4096 2067 3923 2189 3400 
C 2272 3036 2278 2607 2278 2096 
C 2278 1680 2278 1169 2202 792 
C 2067 95 1690 -26 1466 -26 
z
" transform="scale(0.015625)"/>
       </defs>
       <use xlink:href="#CMR17-30" transform="scale(0.996264)"/>
      </g>
     </g>
    </g>
    <g id="xtick_2">
     <g id="line2d_3">
      <path d="M 130.264874 298.226418 
L 130.264874 30.114028 
" clip-path="url(#p430c06e884)" style="fill: none; stroke: #b0b0b0; stroke-opacity: 0.3; stroke-linecap: square"/>
     </g>
     <g id="line2d_4">
      <g>
       <use xlink:href="#m905998ad36" x="130.264874" y="298.226418" style="stroke: #000000; stroke-width: 0.8"/>
      </g>
     </g>
     <g id="text_2">
      <!-- $\mathdefault{20}$ -->
      <g transform="translate(124.785407 312.836765) scale(0.11 -0.11)">
       <defs>
        <path id="CMR17-32" d="M 2669 989 
L 2554 989 
C 2490 536 2438 459 2413 420 
C 2381 369 1920 369 1830 369 
L 602 369 
C 832 619 1280 1072 1824 1597 
C 2214 1967 2669 2402 2669 3035 
C 2669 3790 2067 4224 1395 4224 
C 691 4224 262 3604 262 3030 
C 262 2780 448 2748 525 2748 
C 589 2748 781 2787 781 3010 
C 781 3207 614 3264 525 3264 
C 486 3264 448 3258 422 3245 
C 544 3790 915 4058 1306 4058 
C 1862 4058 2227 3617 2227 3035 
C 2227 2479 1901 2000 1536 1584 
L 262 146 
L 262 0 
L 2515 0 
L 2669 989 
z
" transform="scale(0.015625)"/>
       </defs>
       <use xlink:href="#CMR17-32" transform="scale(0.996264)"/>
       <use xlink:href="#CMR17-30" transform="translate(45.690477 0) scale(0.996264)"/>
      </g>
     </g>
    </g>
    <g id="xtick_3">
     <g id="line2d_5">
      <path d="M 206.882954 298.226418 
L 206.882954 30.114028 
" clip-path="url(#p430c06e884)" style="fill: none; stroke: #b0b0b0; stroke-opacity: 0.3; stroke-linecap: square"/>
     </g>
     <g id="line2d_6">
      <g>
       <use xlink:href="#m905998ad36" x="206.882954" y="298.226418" style="stroke: #000000; stroke-width: 0.8"/>
      </g>
     </g>
     <g id="text_3">
      <!-- $\mathdefault{40}$ -->
      <g transform="translate(201.403487 312.836765) scale(0.11 -0.11)">
       <defs>
        <path id="CMR17-34" d="M 2150 4122 
C 2150 4256 2144 4256 2029 4256 
L 128 1254 
L 128 1088 
L 1779 1088 
L 1779 457 
C 1779 224 1766 160 1318 160 
L 1197 160 
L 1197 0 
C 1402 0 1747 0 1965 0 
C 2182 0 2528 0 2733 0 
L 2733 160 
L 2611 160 
C 2163 160 2150 224 2150 457 
L 2150 1088 
L 2803 1088 
L 2803 1254 
L 2150 1254 
L 2150 4122 
z
M 1798 3703 
L 1798 1254 
L 256 1254 
L 1798 3703 
z
" transform="scale(0.015625)"/>
       </defs>
       <use xlink:href="#CMR17-34" transform="scale(0.996264)"/>
       <use xlink:href="#CMR17-30" transform="translate(45.690477 0) scale(0.996264)"/>
      </g>
     </g>
    </g>
    <g id="xtick_4">
     <g id="line2d_7">
      <path d="M 283.501035 298.226418 
L 283.501035 30.114028 
" clip-path="url(#p430c06e884)" style="fill: none; stroke: #b0b0b0; stroke-opacity: 0.3; stroke-linecap: square"/>
     </g>
     <g id="line2d_8">
      <g>
       <use xlink:href="#m905998ad36" x="283.501035" y="298.226418" style="stroke: #000000; stroke-width: 0.8"/>
      </g>
     </g>
     <g id="text_4">
      <!-- $\mathdefault{60}$ -->
      <g transform="translate(278.021567 312.836765) scale(0.11 -0.11)">
       <defs>
        <path id="CMR17-36" d="M 678 2176 
C 678 3690 1395 4032 1811 4032 
C 1946 4032 2272 4009 2400 3776 
C 2298 3776 2106 3776 2106 3553 
C 2106 3381 2246 3323 2336 3323 
C 2394 3323 2566 3348 2566 3560 
C 2566 3954 2246 4179 1805 4179 
C 1043 4179 243 3390 243 1984 
C 243 253 966 -128 1478 -128 
C 2099 -128 2688 427 2688 1283 
C 2688 2081 2170 2662 1517 2662 
C 1126 2662 838 2407 678 1960 
L 678 2176 
z
M 1478 25 
C 691 25 691 1200 691 1436 
C 691 1896 909 2560 1504 2560 
C 1613 2560 1926 2560 2138 2120 
C 2253 1870 2253 1609 2253 1289 
C 2253 944 2253 690 2118 434 
C 1978 171 1773 25 1478 25 
z
" transform="scale(0.015625)"/>
       </defs>
       <use xlink:href="#CMR17-36" transform="scale(0.996264)"/>
       <use xlink:href="#CMR17-30" transform="translate(45.690477 0) scale(0.996264)"/>
      </g>
     </g>
    </g>
    <g id="xtick_5">
     <g id="line2d_9">
      <path d="M 360.119115 298.226418 
L 360.119115 30.114028 
" clip-path="url(#p430c06e884)" style="fill: none; stroke: #b0b0b0; stroke-opacity: 0.3; stroke-linecap: square"/>
     </g>
     <g id="line2d_10">
      <g>
       <use xlink:href="#m905998ad36" x="360.119115" y="298.226418" style="stroke: #000000; stroke-width: 0.8"/>
      </g>
     </g>
     <g id="text_5">
      <!-- $\mathdefault{80}$ -->
      <g transform="translate(354.639648 312.836765) scale(0.11 -0.11)">
       <defs>
        <path id="CMR17-38" d="M 1741 2264 
C 2144 2467 2554 2773 2554 3263 
C 2554 3841 1990 4179 1472 4179 
C 890 4179 378 3759 378 3180 
C 378 3021 416 2747 666 2505 
C 730 2442 998 2251 1171 2130 
C 883 1983 211 1634 211 934 
C 211 279 838 -128 1459 -128 
C 2144 -128 2720 362 2720 1010 
C 2720 1590 2330 1857 2074 2029 
L 1741 2264 
z
M 902 2822 
C 851 2854 595 3051 595 3351 
C 595 3739 998 4032 1459 4032 
C 1965 4032 2336 3676 2336 3262 
C 2336 2669 1670 2331 1638 2331 
C 1632 2331 1626 2331 1574 2370 
L 902 2822 
z
M 2080 1519 
C 2176 1449 2483 1240 2483 851 
C 2483 381 2010 25 1472 25 
C 890 25 448 438 448 940 
C 448 1443 838 1862 1280 2060 
L 2080 1519 
z
" transform="scale(0.015625)"/>
       </defs>
       <use xlink:href="#CMR17-38" transform="scale(0.996264)"/>
       <use xlink:href="#CMR17-30" transform="translate(45.690477 0) scale(0.996264)"/>
      </g>
     </g>
    </g>
    <g id="xtick_6">
     <g id="line2d_11">
      <path d="M 436.737196 298.226418 
L 436.737196 30.114028 
" clip-path="url(#p430c06e884)" style="fill: none; stroke: #b0b0b0; stroke-opacity: 0.3; stroke-linecap: square"/>
     </g>
     <g id="line2d_12">
      <g>
       <use xlink:href="#m905998ad36" x="436.737196" y="298.226418" style="stroke: #000000; stroke-width: 0.8"/>
      </g>
     </g>
     <g id="text_6">
      <!-- $\mathdefault{100}$ -->
      <g transform="translate(428.517995 312.836765) scale(0.11 -0.11)">
       <defs>
        <path id="CMR17-31" d="M 1702 4058 
C 1702 4192 1696 4192 1606 4192 
C 1357 3916 979 3827 621 3827 
C 602 3827 570 3827 563 3808 
C 557 3795 557 3782 557 3648 
C 755 3648 1088 3686 1344 3839 
L 1344 461 
C 1344 236 1331 160 781 160 
L 589 160 
L 589 0 
C 896 0 1216 0 1523 0 
C 1830 0 2150 0 2458 0 
L 2458 160 
L 2266 160 
C 1715 160 1702 230 1702 458 
L 1702 4058 
z
" transform="scale(0.015625)"/>
       </defs>
       <use xlink:href="#CMR17-31" transform="scale(0.996264)"/>
       <use xlink:href="#CMR17-30" transform="translate(45.690477 0) scale(0.996264)"/>
       <use xlink:href="#CMR17-30" transform="translate(91.380954 0) scale(0.996264)"/>
      </g>
     </g>
    </g>
    <g id="text_7">
     <!-- Number of voters -->
     <g transform="translate(194.983513 327.961688) scale(0.13 -0.13)">
      <defs>
       <path id="CMR17-4e" d="M 1312 4250 
C 1267 4320 1261 4320 1139 4320 
L 326 4320 
L 326 4160 
L 448 4160 
C 704 4160 819 4129 838 4122 
L 838 610 
C 838 451 838 153 326 153 
L 326 -13 
C 474 0 742 0 902 0 
C 1062 0 1331 0 1478 -13 
L 1478 153 
C 966 153 966 451 966 610 
L 966 4033 
C 1011 3995 1011 3982 1056 3919 
L 3430 76 
C 3475 0 3494 0 3526 0 
C 3590 0 3590 19 3590 139 
L 3590 3705 
C 3590 3863 3590 4160 4102 4160 
L 4102 4326 
C 3955 4320 3686 4320 3526 4320 
C 3366 4320 3098 4320 2950 4326 
L 2950 4160 
C 3462 4160 3462 3862 3462 3703 
L 3462 763 
L 1312 4250 
z
" transform="scale(0.015625)"/>
       <path id="CMR17-75" d="M 1882 2693 
L 1882 2528 
C 2259 2528 2317 2489 2317 2186 
L 2317 1032 
C 2317 500 2029 38 1555 38 
C 1030 38 986 348 986 678 
L 986 2763 
L 211 2693 
L 211 2528 
C 467 2528 640 2528 646 2274 
L 646 1058 
C 646 633 646 361 813 183 
C 896 101 1056 -64 1517 -64 
C 2061 -64 2272 377 2323 506 
L 2330 506 
L 2330 -63 
L 3091 -63 
L 3091 128 
C 2714 128 2656 166 2656 473 
L 2656 2763 
L 1882 2693 
z
" transform="scale(0.015625)"/>
       <path id="CMR17-6d" d="M 4326 1933 
C 4326 2252 4269 2790 3507 2790 
C 3072 2790 2771 2496 2656 2151 
L 2650 2151 
C 2573 2676 2195 2790 1837 2790 
C 1331 2790 1069 2400 973 2144 
L 966 2144 
L 966 2790 
L 211 2720 
L 211 2554 
C 589 2554 646 2515 646 2208 
L 646 428 
C 646 184 621 153 211 153 
L 211 -13 
C 365 0 646 0 813 0 
C 979 0 1267 0 1421 -13 
L 1421 153 
C 1011 153 986 178 986 428 
L 986 1658 
C 986 2247 1344 2688 1792 2688 
C 2266 2688 2317 2266 2317 1958 
L 2317 428 
C 2317 184 2291 153 1882 153 
L 1882 -13 
C 2035 0 2317 0 2483 0 
C 2650 0 2938 0 3091 -13 
L 3091 153 
C 2682 153 2656 178 2656 428 
L 2656 1658 
C 2656 2247 3014 2688 3462 2688 
C 3936 2688 3987 2266 3987 1958 
L 3987 428 
C 3987 184 3962 153 3552 153 
L 3552 -13 
C 3706 0 3987 0 4154 0 
C 4320 0 4608 0 4762 -13 
L 4762 153 
C 4352 153 4326 178 4326 428 
L 4326 1933 
z
" transform="scale(0.015625)"/>
       <path id="CMR17-62" d="M 960 4396 
L 198 4326 
L 198 4160 
C 576 4160 634 4122 634 3817 
L 634 -13 
L 749 -13 
L 934 441 
C 1120 141 1395 -64 1766 -64 
C 2406 -64 3053 500 3053 1370 
C 3053 2188 2477 2790 1830 2790 
C 1434 2790 1152 2579 960 2330 
L 960 4396 
z
M 973 2004 
C 973 2118 973 2138 1062 2272 
C 1312 2657 1670 2688 1792 2688 
C 1984 2688 2643 2585 2643 1376 
C 2643 108 1888 38 1734 38 
C 1536 38 1248 114 1043 486 
C 973 608 973 621 973 735 
L 973 2004 
z
" transform="scale(0.015625)"/>
       <path id="CMR17-65" d="M 2438 1472 
C 2464 1498 2464 1511 2464 1576 
C 2464 2238 2118 2816 1389 2816 
C 710 2816 173 2169 173 1383 
C 173 551 781 -64 1459 -64 
C 2176 -64 2458 607 2458 740 
C 2458 784 2419 784 2406 784 
C 2362 784 2355 771 2330 696 
C 2189 265 1837 51 1504 51 
C 1229 51 954 203 781 480 
C 582 803 582 1176 582 1472 
L 2438 1472 
z
M 589 1568 
C 634 2505 1126 2714 1382 2714 
C 1818 2714 2112 2297 2118 1568 
L 589 1568 
z
" transform="scale(0.015625)"/>
       <path id="CMR17-72" d="M 960 1497 
C 960 2112 1222 2688 1702 2688 
C 1747 2688 1792 2682 1837 2662 
C 1837 2662 1696 2617 1696 2452 
C 1696 2298 1818 2234 1914 2234 
C 1990 2234 2131 2279 2131 2458 
C 2131 2663 1926 2790 1709 2790 
C 1222 2790 1011 2317 947 2093 
L 941 2093 
L 941 2790 
L 198 2720 
L 198 2554 
C 576 2554 634 2515 634 2208 
L 634 428 
C 634 184 608 153 198 153 
L 198 -13 
C 352 0 646 0 813 0 
C 998 0 1325 0 1498 -13 
L 1498 153 
C 1037 153 960 153 960 440 
L 960 1497 
z
" transform="scale(0.015625)"/>
       <path id="CMR17-6f" d="M 2758 1356 
C 2758 2176 2163 2816 1466 2816 
C 768 2816 173 2176 173 1356 
C 173 551 768 -64 1466 -64 
C 2163 -64 2758 551 2758 1356 
z
M 1466 51 
C 1165 51 909 230 762 480 
C 602 767 582 1126 582 1408 
C 582 1677 595 2010 762 2298 
C 890 2509 1139 2714 1466 2714 
C 1754 2714 1997 2554 2150 2330 
C 2349 2029 2349 1607 2349 1408 
C 2349 1158 2336 775 2163 467 
C 1984 173 1709 51 1466 51 
z
" transform="scale(0.015625)"/>
       <path id="CMR17-66" d="M 979 2560 
L 1709 2560 
L 1709 2725 
L 966 2725 
L 966 3494 
C 966 4022 1235 4352 1510 4352 
C 1594 4352 1690 4327 1754 4282 
C 1702 4269 1568 4225 1568 4067 
C 1568 3901 1696 3850 1786 3850 
C 1875 3850 2003 3901 2003 4067 
C 2003 4308 1773 4454 1517 4454 
C 1152 4454 653 4156 653 3481 
L 653 2725 
L 141 2725 
L 141 2560 
L 653 2560 
L 653 427 
C 653 184 627 153 218 153 
L 218 -13 
C 371 0 666 0 832 0 
C 1018 0 1344 0 1517 -13 
L 1517 153 
C 1056 153 979 153 979 439 
L 979 2560 
z
" transform="scale(0.015625)"/>
       <path id="CMR17-76" d="M 2502 2163 
C 2560 2304 2662 2560 3034 2560 
L 3034 2726 
C 2912 2726 2752 2726 2630 2726 
C 2496 2726 2285 2726 2157 2732 
L 2157 2566 
C 2317 2553 2406 2477 2406 2311 
C 2406 2253 2406 2240 2368 2151 
L 1664 377 
L 902 2286 
C 864 2369 864 2381 864 2407 
C 864 2560 1075 2560 1171 2560 
L 1171 2732 
C 1018 2726 736 2726 576 2726 
C 403 2726 205 2726 64 2732 
L 64 2560 
C 307 2560 442 2560 518 2362 
L 1446 44 
C 1485 -51 1491 -64 1549 -64 
C 1606 -64 1613 -51 1651 44 
L 2502 2163 
z
" transform="scale(0.015625)"/>
       <path id="CMR17-74" d="M 966 2560 
L 1862 2560 
L 1862 2725 
L 966 2725 
L 966 3904 
L 851 3904 
C 838 3245 614 2668 70 2668 
L 70 2560 
L 627 2560 
L 627 771 
C 627 650 627 -64 1370 -64 
C 1747 -64 1965 306 1965 777 
L 1965 1140 
L 1850 1140 
L 1850 783 
C 1850 344 1677 51 1408 51 
C 1222 51 966 178 966 758 
L 966 2560 
z
" transform="scale(0.015625)"/>
       <path id="CMR17-73" d="M 1978 2697 
C 1978 2813 1971 2819 1933 2819 
C 1907 2819 1901 2813 1824 2717 
C 1805 2691 1747 2626 1728 2601 
C 1523 2819 1235 2819 1126 2819 
C 416 2819 160 2447 160 2076 
C 160 1498 813 1365 998 1325 
C 1402 1243 1542 1217 1677 1101 
C 1760 1025 1901 884 1901 654 
C 1901 384 1747 38 1158 38 
C 602 38 403 460 288 1021 
C 269 1110 269 1117 218 1117 
C 166 1117 160 1110 160 983 
L 160 63 
C 160 -51 166 -58 205 -58 
C 237 -58 243 -51 275 0 
C 314 57 410 211 448 276 
C 576 103 800 -64 1158 -64 
C 1792 -64 2131 283 2131 784 
C 2131 1112 1958 1285 1875 1362 
C 1683 1561 1459 1606 1190 1657 
C 838 1735 390 1825 390 2217 
C 390 2383 480 2737 1126 2737 
C 1811 2737 1850 2094 1862 1888 
C 1869 1856 1901 1849 1920 1849 
C 1978 1849 1978 1869 1978 1978 
L 1978 2697 
z
" transform="scale(0.015625)"/>
      </defs>
      <use xlink:href="#CMR17-4e" transform="scale(0.996264)"/>
      <use xlink:href="#CMR17-75" transform="translate(69.07243 0) scale(0.996264)"/>
      <use xlink:href="#CMR17-6d" transform="translate(119.9678 0) scale(0.996264)"/>
      <use xlink:href="#CMR17-62" transform="translate(194.284936 0) scale(0.996264)"/>
      <use xlink:href="#CMR17-65" transform="translate(247.782744 0) scale(0.996264)"/>
      <use xlink:href="#CMR17-72" transform="translate(288.268404 0) scale(0.996264)"/>
      <use xlink:href="#CMR17-6f" transform="translate(353.625139 0) scale(0.996264)"/>
      <use xlink:href="#CMR17-66" transform="translate(399.315616 0) scale(0.996264)"/>
      <use xlink:href="#CMR17-76" transform="translate(456.865095 0) scale(0.996264)"/>
      <use xlink:href="#CMR17-6f" transform="translate(502.555556 0) scale(0.996264)"/>
      <use xlink:href="#CMR17-74" transform="translate(548.246034 0) scale(0.996264)"/>
      <use xlink:href="#CMR17-65" transform="translate(583.526801 0) scale(0.996264)"/>
      <use xlink:href="#CMR17-72" transform="translate(624.012462 0) scale(0.996264)"/>
      <use xlink:href="#CMR17-73" transform="translate(659.29323 0) scale(0.996264)"/>
     </g>
    </g>
   </g>
   <g id="matplotlib.axis_2">
    <g id="ytick_1">
     <g id="line2d_13">
      <path d="M 43.111807 298.226418 
L 443.441278 298.226418 
" clip-path="url(#p430c06e884)" style="fill: none; stroke: #b0b0b0; stroke-opacity: 0.3; stroke-linecap: square"/>
     </g>
     <g id="line2d_14">
      <defs>
       <path id="m13883bf7e0" d="M 0 0 
L -3.5 0 
" style="stroke: #000000; stroke-width: 0.8"/>
      </defs>
      <g>
       <use xlink:href="#m13883bf7e0" x="43.111807" y="298.226418" style="stroke: #000000; stroke-width: 0.8"/>
      </g>
     </g>
     <g id="text_8">
      <!-- $\mathdefault{0}$ -->
      <g transform="translate(30.63234 302.031592) scale(0.11 -0.11)">
       <use xlink:href="#CMR17-30" transform="scale(0.996264)"/>
      </g>
     </g>
    </g>
    <g id="ytick_2">
     <g id="line2d_15">
      <path d="M 43.111807 264.71237 
L 443.441278 264.71237 
" clip-path="url(#p430c06e884)" style="fill: none; stroke: #b0b0b0; stroke-opacity: 0.3; stroke-linecap: square"/>
     </g>
     <g id="line2d_16">
      <g>
       <use xlink:href="#m13883bf7e0" x="43.111807" y="264.71237" style="stroke: #000000; stroke-width: 0.8"/>
      </g>
     </g>
     <g id="text_9">
      <!-- $\mathdefault{1}$ -->
      <g transform="translate(30.63234 268.517543) scale(0.11 -0.11)">
       <use xlink:href="#CMR17-31" transform="scale(0.996264)"/>
      </g>
     </g>
    </g>
    <g id="ytick_3">
     <g id="line2d_17">
      <path d="M 43.111807 231.198321 
L 443.441278 231.198321 
" clip-path="url(#p430c06e884)" style="fill: none; stroke: #b0b0b0; stroke-opacity: 0.3; stroke-linecap: square"/>
     </g>
     <g id="line2d_18">
      <g>
       <use xlink:href="#m13883bf7e0" x="43.111807" y="231.198321" style="stroke: #000000; stroke-width: 0.8"/>
      </g>
     </g>
     <g id="text_10">
      <!-- $\mathdefault{2}$ -->
      <g transform="translate(30.63234 235.003494) scale(0.11 -0.11)">
       <use xlink:href="#CMR17-32" transform="scale(0.996264)"/>
      </g>
     </g>
    </g>
    <g id="ytick_4">
     <g id="line2d_19">
      <path d="M 43.111807 197.684272 
L 443.441278 197.684272 
" clip-path="url(#p430c06e884)" style="fill: none; stroke: #b0b0b0; stroke-opacity: 0.3; stroke-linecap: square"/>
     </g>
     <g id="line2d_20">
      <g>
       <use xlink:href="#m13883bf7e0" x="43.111807" y="197.684272" style="stroke: #000000; stroke-width: 0.8"/>
      </g>
     </g>
     <g id="text_11">
      <!-- $\mathdefault{3}$ -->
      <g transform="translate(30.63234 201.489445) scale(0.11 -0.11)">
       <defs>
        <path id="CMR17-33" d="M 1414 2157 
C 1984 2157 2234 1662 2234 1090 
C 2234 320 1824 25 1453 25 
C 1114 25 563 194 390 693 
C 422 680 454 680 486 680 
C 640 680 755 782 755 948 
C 755 1133 614 1216 486 1216 
C 378 1216 211 1165 211 926 
C 211 335 787 -128 1466 -128 
C 2176 -128 2720 430 2720 1085 
C 2720 1707 2208 2157 1600 2227 
C 2086 2328 2554 2756 2554 3329 
C 2554 3820 2048 4179 1472 4179 
C 890 4179 378 3829 378 3329 
C 378 3110 544 3072 627 3072 
C 762 3072 877 3155 877 3321 
C 877 3486 762 3569 627 3569 
C 602 3569 570 3569 544 3557 
C 730 3959 1235 4032 1459 4032 
C 1683 4032 2106 3925 2106 3320 
C 2106 3143 2080 2828 1862 2550 
C 1670 2304 1453 2304 1242 2284 
C 1210 2284 1062 2269 1037 2269 
C 992 2263 966 2257 966 2208 
C 966 2163 973 2157 1101 2157 
L 1414 2157 
z
" transform="scale(0.015625)"/>
       </defs>
       <use xlink:href="#CMR17-33" transform="scale(0.996264)"/>
      </g>
     </g>
    </g>
    <g id="ytick_5">
     <g id="line2d_21">
      <path d="M 43.111807 164.170223 
L 443.441278 164.170223 
" clip-path="url(#p430c06e884)" style="fill: none; stroke: #b0b0b0; stroke-opacity: 0.3; stroke-linecap: square"/>
     </g>
     <g id="line2d_22">
      <g>
       <use xlink:href="#m13883bf7e0" x="43.111807" y="164.170223" style="stroke: #000000; stroke-width: 0.8"/>
      </g>
     </g>
     <g id="text_12">
      <!-- $\mathdefault{4}$ -->
      <g transform="translate(30.63234 167.975397) scale(0.11 -0.11)">
       <use xlink:href="#CMR17-34" transform="scale(0.996264)"/>
      </g>
     </g>
    </g>
    <g id="ytick_6">
     <g id="line2d_23">
      <path d="M 43.111807 130.656175 
L 443.441278 130.656175 
" clip-path="url(#p430c06e884)" style="fill: none; stroke: #b0b0b0; stroke-opacity: 0.3; stroke-linecap: square"/>
     </g>
     <g id="line2d_24">
      <g>
       <use xlink:href="#m13883bf7e0" x="43.111807" y="130.656175" style="stroke: #000000; stroke-width: 0.8"/>
      </g>
     </g>
     <g id="text_13">
      <!-- $\mathdefault{5}$ -->
      <g transform="translate(30.63234 134.461348) scale(0.11 -0.11)">
       <defs>
        <path id="CMR17-35" d="M 730 3692 
C 794 3666 1056 3584 1325 3584 
C 1920 3584 2246 3911 2432 4100 
C 2432 4157 2432 4192 2394 4192 
C 2387 4192 2374 4192 2323 4163 
C 2099 4058 1837 3973 1517 3973 
C 1325 3973 1037 3999 723 4139 
C 653 4171 640 4171 634 4171 
C 602 4171 595 4164 595 4037 
L 595 2203 
C 595 2089 595 2057 659 2057 
C 691 2057 704 2070 736 2114 
C 941 2401 1222 2522 1542 2522 
C 1766 2522 2246 2382 2246 1289 
C 2246 1085 2246 715 2054 421 
C 1894 159 1645 25 1370 25 
C 947 25 518 320 403 814 
C 429 807 480 795 506 795 
C 589 795 749 840 749 1038 
C 749 1210 627 1280 506 1280 
C 358 1280 262 1190 262 1011 
C 262 454 704 -128 1382 -128 
C 2042 -128 2669 440 2669 1264 
C 2669 2030 2170 2624 1549 2624 
C 1222 2624 947 2503 730 2274 
L 730 3692 
z
" transform="scale(0.015625)"/>
       </defs>
       <use xlink:href="#CMR17-35" transform="scale(0.996264)"/>
      </g>
     </g>
    </g>
    <g id="ytick_7">
     <g id="line2d_25">
      <path d="M 43.111807 97.142126 
L 443.441278 97.142126 
" clip-path="url(#p430c06e884)" style="fill: none; stroke: #b0b0b0; stroke-opacity: 0.3; stroke-linecap: square"/>
     </g>
     <g id="line2d_26">
      <g>
       <use xlink:href="#m13883bf7e0" x="43.111807" y="97.142126" style="stroke: #000000; stroke-width: 0.8"/>
      </g>
     </g>
     <g id="text_14">
      <!-- $\mathdefault{6}$ -->
      <g transform="translate(30.63234 100.947299) scale(0.11 -0.11)">
       <use xlink:href="#CMR17-36" transform="scale(0.996264)"/>
      </g>
     </g>
    </g>
    <g id="ytick_8">
     <g id="line2d_27">
      <path d="M 43.111807 63.628077 
L 443.441278 63.628077 
" clip-path="url(#p430c06e884)" style="fill: none; stroke: #b0b0b0; stroke-opacity: 0.3; stroke-linecap: square"/>
     </g>
     <g id="line2d_28">
      <g>
       <use xlink:href="#m13883bf7e0" x="43.111807" y="63.628077" style="stroke: #000000; stroke-width: 0.8"/>
      </g>
     </g>
     <g id="text_15">
      <!-- $\mathdefault{7}$ -->
      <g transform="translate(30.63234 67.43325) scale(0.11 -0.11)">
       <defs>
        <path id="CMR17-37" d="M 2886 3941 
L 2886 4081 
L 1382 4081 
C 634 4081 621 4165 595 4288 
L 480 4288 
L 294 3094 
L 410 3094 
C 429 3215 474 3540 550 3661 
C 589 3712 1062 3712 1171 3712 
L 2579 3712 
L 1869 2661 
C 1395 1954 1069 999 1069 165 
C 1069 89 1069 -128 1299 -128 
C 1530 -128 1530 89 1530 171 
L 1530 465 
C 1530 1508 1709 2196 2003 2636 
L 2886 3941 
z
" transform="scale(0.015625)"/>
       </defs>
       <use xlink:href="#CMR17-37" transform="scale(0.996264)"/>
      </g>
     </g>
    </g>
    <g id="ytick_9">
     <g id="line2d_29">
      <path d="M 43.111807 30.114028 
L 443.441278 30.114028 
" clip-path="url(#p430c06e884)" style="fill: none; stroke: #b0b0b0; stroke-opacity: 0.3; stroke-linecap: square"/>
     </g>
     <g id="line2d_30">
      <g>
       <use xlink:href="#m13883bf7e0" x="43.111807" y="30.114028" style="stroke: #000000; stroke-width: 0.8"/>
      </g>
     </g>
     <g id="text_16">
      <!-- $\mathdefault{8}$ -->
      <g transform="translate(30.63234 33.919201) scale(0.11 -0.11)">
       <use xlink:href="#CMR17-38" transform="scale(0.996264)"/>
      </g>
     </g>
    </g>
    <g id="text_17">
     <!-- Distortion -->
     <g transform="translate(24.114028 192.297321) rotate(-90) scale(0.13 -0.13)">
      <defs>
       <path id="CMR17-44" d="M 333 4352 
L 333 4186 
C 774 4186 845 4186 845 3900 
L 845 452 
C 845 166 774 166 333 166 
L 333 0 
L 2368 0 
C 3398 0 4224 943 4224 2141 
C 4224 3346 3411 4352 2368 4352 
L 333 4352 
z
M 1523 166 
C 1267 166 1254 197 1254 414 
L 1254 3938 
C 1254 4155 1267 4186 1523 4186 
L 2240 4186 
C 2771 4186 3750 3874 3750 2141 
C 3750 1242 3488 879 3366 707 
C 3213 510 2848 166 2240 166 
L 1523 166 
z
" transform="scale(0.015625)"/>
       <path id="CMR17-69" d="M 992 3909 
C 992 4049 877 4170 730 4170 
C 589 4170 467 4056 467 3909 
C 467 3769 582 3648 730 3648 
C 870 3648 992 3763 992 3909 
z
M 243 2706 
L 243 2541 
C 602 2541 653 2502 653 2197 
L 653 427 
C 653 184 627 153 218 153 
L 218 -13 
C 371 0 646 0 806 0 
C 960 0 1222 0 1370 -13 
L 1370 153 
C 992 153 979 191 979 420 
L 979 2776 
L 243 2706 
z
" transform="scale(0.015625)"/>
       <path id="CMR17-6e" d="M 2656 1933 
C 2656 2259 2592 2790 1837 2790 
C 1331 2790 1069 2400 973 2144 
L 966 2144 
L 966 2790 
L 211 2720 
L 211 2554 
C 589 2554 646 2515 646 2208 
L 646 428 
C 646 184 621 153 211 153 
L 211 -13 
C 365 0 646 0 813 0 
C 979 0 1267 0 1421 -13 
L 1421 153 
C 1011 153 986 178 986 428 
L 986 1658 
C 986 2247 1344 2688 1792 2688 
C 2266 2688 2317 2266 2317 1958 
L 2317 428 
C 2317 184 2291 153 1882 153 
L 1882 -13 
C 2035 0 2317 0 2483 0 
C 2650 0 2938 0 3091 -13 
L 3091 153 
C 2682 153 2656 178 2656 428 
L 2656 1933 
z
" transform="scale(0.015625)"/>
      </defs>
      <use xlink:href="#CMR17-44" transform="scale(0.996264)"/>
      <use xlink:href="#CMR17-69" transform="translate(70.393556 0) scale(0.996264)"/>
      <use xlink:href="#CMR17-73" transform="translate(95.264614 0) scale(0.996264)"/>
      <use xlink:href="#CMR17-74" transform="translate(131.065952 0) scale(0.996264)"/>
      <use xlink:href="#CMR17-6f" transform="translate(166.34672 0) scale(0.996264)"/>
      <use xlink:href="#CMR17-72" transform="translate(212.037197 0) scale(0.996264)"/>
      <use xlink:href="#CMR17-74" transform="translate(247.317965 0) scale(0.996264)"/>
      <use xlink:href="#CMR17-69" transform="translate(282.598733 0) scale(0.996264)"/>
      <use xlink:href="#CMR17-6f" transform="translate(307.469791 0) scale(0.996264)"/>
      <use xlink:href="#CMR17-6e" transform="translate(353.160268 0) scale(0.996264)"/>
     </g>
    </g>
   </g>
   <g id="line2d_31">
    <path d="M 61.308602 224.286351 
L 80.463122 260.384678 
L 99.617642 262.466444 
L 118.772162 262.682405 
L 137.926682 263.681926 
L 157.081202 263.741723 
L 176.235722 264.0875 
L 195.390242 264.073295 
L 214.544762 264.261478 
L 233.699282 264.310956 
L 252.853803 264.360295 
L 272.008323 264.33615 
L 291.162843 264.433692 
L 310.317363 264.390379 
L 329.471883 264.510715 
L 348.626403 264.471643 
L 367.780923 264.524909 
L 386.935443 264.548709 
L 406.089963 264.543684 
L 425.244483 264.566685 
" clip-path="url(#p430c06e884)" style="fill: none; stroke: #440154; stroke-width: 1.5; stroke-linecap: square"/>
   </g>
   <g id="line2d_32">
    <path d="M 61.308602 141.001178 
L 80.463122 232.743016 
L 99.617642 237.520599 
L 118.772162 248.417495 
L 137.926682 249.577865 
L 157.081202 250.881705 
L 176.235722 253.157091 
L 195.390242 251.542381 
L 214.544762 254.303812 
L 233.699282 253.729913 
L 252.853803 255.419759 
L 272.008323 254.854703 
L 291.162843 256.192198 
L 310.317363 254.745616 
L 329.471883 256.807704 
L 348.626403 256.535562 
L 367.780923 256.629772 
L 386.935443 257.419618 
L 406.089963 256.900962 
L 425.244483 256.481858 
" clip-path="url(#p430c06e884)" style="fill: none; stroke: #3b528b; stroke-width: 1.5; stroke-linecap: square"/>
   </g>
   <g id="line2d_33">
    <path d="M 61.308602 168.73168 
L 80.463122 226.964849 
L 99.617642 235.826259 
L 118.772162 241.161253 
L 137.926682 243.013474 
L 157.081202 244.380105 
L 176.235722 246.61285 
L 195.390242 246.625095 
L 214.544762 246.633169 
L 233.699282 250.442895 
L 252.853803 248.374983 
L 272.008323 250.586627 
L 291.162843 248.846662 
L 310.317363 248.920956 
L 329.471883 248.57202 
L 348.626403 250.5027 
L 367.780923 250.726525 
L 386.935443 250.334149 
L 406.089963 250.057394 
L 425.244483 252.041416 
" clip-path="url(#p430c06e884)" style="fill: none; stroke: #21918c; stroke-width: 1.5; stroke-linecap: square"/>
   </g>
   <g id="line2d_34">
    <path d="M 61.308602 58.243856 
L 80.463122 219.811524 
L 99.617642 230.61138 
L 118.772162 238.491932 
L 137.926682 239.212783 
L 157.081202 239.320774 
L 176.235722 240.606408 
L 195.390242 244.333477 
L 214.544762 242.556128 
L 233.699282 244.230527 
L 252.853803 244.74728 
L 272.008323 246.163451 
L 291.162843 246.954726 
L 310.317363 244.880848 
L 329.471883 246.728374 
L 348.626403 246.631678 
L 367.780923 245.784775 
L 386.935443 247.704574 
L 406.089963 248.700882 
L 425.244483 247.447535 
" clip-path="url(#p430c06e884)" style="fill: none; stroke: #5ec962; stroke-width: 1.5; stroke-linecap: square"/>
   </g>
   <g id="line2d_35">
    <path d="M 61.308602 106.165461 
L 80.463122 210.145567 
L 99.617642 224.902511 
L 118.772162 233.721895 
L 137.926682 233.926082 
L 157.081202 238.172512 
L 176.235722 242.763699 
L 195.390242 237.598845 
L 214.544762 239.897982 
L 233.699282 241.404701 
L 252.853803 244.162306 
L 272.008323 240.838851 
L 291.162843 242.463628 
L 310.317363 243.164471 
L 329.471883 242.028601 
L 348.626403 245.726988 
L 367.780923 243.879938 
L 386.935443 245.47979 
L 406.089963 244.454731 
L 425.244483 247.493015 
" clip-path="url(#p430c06e884)" style="fill: none; stroke: #fde725; stroke-width: 1.5; stroke-linecap: square"/>
   </g>
   <g id="patch_3">
    <path d="M 43.111807 298.226418 
L 43.111807 30.114028 
" style="fill: none; stroke: #000000; stroke-linejoin: miter; stroke-linecap: square"/>
   </g>
   <g id="patch_4">
    <path d="M 443.441278 298.226418 
L 443.441278 30.114028 
" style="fill: none; stroke: #000000; stroke-linejoin: miter; stroke-linecap: square"/>
   </g>
   <g id="patch_5">
    <path d="M 43.111807 298.226418 
L 443.441278 298.226418 
" style="fill: none; stroke: #000000; stroke-linejoin: miter; stroke-linecap: square"/>
   </g>
   <g id="patch_6">
    <path d="M 43.111807 30.114028 
L 443.441278 30.114028 
" style="fill: none; stroke: #000000; stroke-linejoin: miter; stroke-linecap: square"/>
   </g>
   <g id="text_18">
    <!-- Distortion of Black's Rule, Nietzschean -->
    <g transform="translate(134.591339 24.114028) scale(0.13 -0.13)">
     <defs>
      <path id="CMR17-42" d="M 333 4352 
L 333 4186 
C 774 4186 845 4186 845 3900 
L 845 452 
C 845 166 774 166 333 166 
L 333 0 
L 2534 0 
C 3354 0 3885 583 3885 1164 
C 3885 1741 3360 2233 2675 2233 
C 3290 2356 3718 2771 3718 3264 
C 3718 3802 3194 4352 2368 4352 
L 333 4352 
z
M 1248 2304 
L 1248 3937 
C 1248 4155 1261 4186 1517 4186 
L 2336 4186 
C 2970 4186 3251 3674 3251 3277 
C 3251 2791 2861 2304 2170 2304 
L 1248 2304 
z
M 1517 166 
C 1261 166 1248 197 1248 413 
L 1248 2202 
L 2432 2202 
C 3091 2202 3411 1625 3411 1162 
C 3411 699 3046 166 2349 166 
L 1517 166 
z
" transform="scale(0.015625)"/>
      <path id="CMR17-6c" d="M 979 4396 
L 218 4326 
L 218 4160 
C 595 4160 653 4122 653 3817 
L 653 426 
C 653 184 627 153 218 153 
L 218 -13 
C 371 0 653 0 813 0 
C 979 0 1261 0 1414 -13 
L 1414 153 
C 1005 153 979 178 979 426 
L 979 4396 
z
" transform="scale(0.015625)"/>
      <path id="CMR17-61" d="M 2304 1653 
C 2304 2072 2304 2294 2035 2543 
C 1798 2752 1523 2816 1306 2816 
C 800 2816 435 2407 435 1971 
C 435 1728 627 1728 666 1728 
C 749 1728 896 1778 896 1954 
C 896 2112 774 2181 666 2181 
C 640 2181 608 2174 589 2168 
C 723 2592 1069 2714 1293 2714 
C 1613 2714 1965 2429 1965 1885 
L 1965 1600 
C 1587 1600 1133 1549 774 1357 
C 371 1133 256 813 256 570 
C 256 77 832 -64 1171 -64 
C 1523 -64 1850 139 1990 511 
C 2003 233 2182 -18 2464 -18 
C 2598 -18 2938 70 2938 567 
L 2938 920 
L 2822 920 
L 2822 562 
C 2822 178 2650 128 2566 128 
C 2304 128 2304 458 2304 738 
L 2304 1653 
z
M 1965 870 
C 1965 317 1568 38 1216 38 
C 896 38 646 275 646 570 
C 646 761 730 1100 1101 1305 
C 1408 1478 1760 1504 1965 1504 
L 1965 870 
z
" transform="scale(0.015625)"/>
      <path id="CMR17-63" d="M 2234 2240 
C 2112 2240 1933 2240 1933 2017 
C 1933 1838 2080 1787 2163 1787 
C 2208 1787 2394 1807 2394 2024 
C 2394 2467 1958 2803 1466 2803 
C 787 2803 211 2178 211 1363 
C 211 516 813 -64 1466 -64 
C 2259 -64 2458 677 2458 748 
C 2458 774 2451 793 2406 793 
C 2362 793 2355 787 2330 703 
C 2163 180 1798 51 1523 51 
C 1114 51 621 427 621 1369 
C 621 2338 1094 2688 1472 2688 
C 1722 2688 2093 2573 2234 2240 
z
" transform="scale(0.015625)"/>
      <path id="CMR17-6b" d="M 1670 1673 
C 1664 1686 1632 1724 1632 1743 
C 1632 1756 2086 2171 2144 2222 
C 2509 2528 2739 2560 2906 2560 
L 2906 2733 
C 2867 2733 2854 2733 2848 2720 
L 2534 2720 
C 2355 2720 2080 2720 1907 2733 
L 1907 2566 
C 1997 2559 2061 2508 2061 2419 
C 2061 2291 1933 2170 1926 2170 
L 960 1289 
L 960 4396 
L 198 4326 
L 198 4160 
C 576 4160 634 4122 634 3817 
L 634 426 
C 634 184 608 153 198 153 
L 198 -13 
C 352 0 634 0 794 0 
C 954 0 1235 0 1389 -13 
L 1389 153 
C 979 153 954 178 954 428 
L 954 1130 
L 1395 1532 
L 2042 574 
C 2118 459 2182 369 2182 286 
C 2182 172 2067 153 1990 153 
L 1990 -13 
C 2144 0 2419 0 2579 0 
C 2694 0 2931 0 3040 0 
L 3040 153 
C 2739 153 2669 210 2477 491 
L 1670 1673 
z
" transform="scale(0.015625)"/>
      <path id="CMR17-27" d="M 1024 4025 
C 1037 3955 1043 3929 1043 3820 
C 1043 3415 883 3042 634 2778 
C 608 2752 595 2733 595 2707 
C 595 2681 621 2656 646 2656 
C 691 2656 1146 3105 1146 3811 
C 1146 3952 1133 4426 800 4426 
C 659 4426 538 4331 538 4165 
C 538 3999 659 3904 800 3904 
C 858 3904 966 3923 1024 4025 
z
" transform="scale(0.015625)"/>
      <path id="CMR17-52" d="M 2509 2146 
C 3117 2268 3629 2676 3629 3186 
C 3629 3785 2950 4326 2054 4326 
L 333 4326 
L 333 4160 
C 774 4160 845 4160 845 3873 
L 845 415 
C 845 128 774 128 333 128 
L 333 -26 
C 518 -26 851 -26 1050 -26 
C 1248 -26 1581 -26 1766 -26 
L 1766 128 
C 1325 128 1254 128 1254 417 
L 1254 2112 
L 2003 2112 
C 2368 2112 2573 1964 2662 1881 
C 2918 1632 2918 1459 2918 1024 
C 2918 595 2918 377 3110 160 
C 3354 -102 3680 -128 3821 -128 
C 4294 -128 4365 396 4365 503 
C 4365 540 4365 585 4307 585 
C 4256 585 4250 547 4250 522 
C 4218 112 4032 -26 3834 -26 
C 3482 -26 3443 375 3405 764 
C 3386 898 3373 993 3360 1133 
C 3322 1452 3270 1917 2509 2146 
z
M 1984 2214 
L 1254 2214 
L 1254 3913 
C 1254 4129 1267 4160 1523 4160 
L 1990 4160 
C 2522 4160 3142 3977 3142 3190 
C 3142 2372 2464 2214 1984 2214 
z
" transform="scale(0.015625)"/>
      <path id="CMR17-2c" d="M 1011 102 
C 1024 45 1024 25 1024 -77 
C 1024 -463 896 -817 627 -1139 
C 595 -1170 595 -1183 595 -1197 
C 595 -1222 621 -1248 646 -1248 
C 685 -1248 1126 -799 1126 -87 
C 1126 124 1101 522 800 522 
C 659 522 538 427 538 261 
C 538 96 659 0 800 0 
C 877 0 960 32 1011 102 
z
" transform="scale(0.015625)"/>
      <path id="CMR17-7a" d="M 2310 2605 
C 2362 2670 2362 2682 2362 2695 
C 2362 2752 2336 2752 2221 2752 
L 275 2752 
L 211 1760 
L 326 1760 
C 371 2381 442 2650 1178 2650 
L 1958 2650 
L 128 96 
C 128 0 134 0 269 0 
L 2291 0 
L 2381 1152 
L 2266 1152 
C 2214 442 2131 115 1350 115 
L 531 115 
L 2310 2605 
z
" transform="scale(0.015625)"/>
      <path id="CMR17-68" d="M 2656 1933 
C 2656 2259 2592 2790 1837 2790 
C 1312 2790 1056 2368 979 2157 
L 973 2157 
L 973 4396 
L 211 4326 
L 211 4160 
C 589 4160 646 4122 646 3817 
L 646 426 
C 646 184 621 153 211 153 
L 211 -13 
C 365 0 646 0 813 0 
C 979 0 1267 0 1421 -13 
L 1421 153 
C 1011 153 986 178 986 428 
L 986 1658 
C 986 2247 1344 2688 1792 2688 
C 2266 2688 2317 2266 2317 1958 
L 2317 428 
C 2317 184 2291 153 1882 153 
L 1882 -13 
C 2035 0 2317 0 2483 0 
C 2650 0 2938 0 3091 -13 
L 3091 153 
C 2682 153 2656 178 2656 428 
L 2656 1933 
z
" transform="scale(0.015625)"/>
     </defs>
     <use xlink:href="#CMR17-44" transform="scale(0.996264)"/>
     <use xlink:href="#CMR17-69" transform="translate(70.393556 0) scale(0.996264)"/>
     <use xlink:href="#CMR17-73" transform="translate(95.264614 0) scale(0.996264)"/>
     <use xlink:href="#CMR17-74" transform="translate(131.065952 0) scale(0.996264)"/>
     <use xlink:href="#CMR17-6f" transform="translate(166.34672 0) scale(0.996264)"/>
     <use xlink:href="#CMR17-72" transform="translate(212.037197 0) scale(0.996264)"/>
     <use xlink:href="#CMR17-74" transform="translate(247.317965 0) scale(0.996264)"/>
     <use xlink:href="#CMR17-69" transform="translate(282.598733 0) scale(0.996264)"/>
     <use xlink:href="#CMR17-6f" transform="translate(307.469791 0) scale(0.996264)"/>
     <use xlink:href="#CMR17-6e" transform="translate(353.160268 0) scale(0.996264)"/>
     <use xlink:href="#CMR17-6f" transform="translate(434.131604 0) scale(0.996264)"/>
     <use xlink:href="#CMR17-66" transform="translate(479.822081 0) scale(0.996264)"/>
     <use xlink:href="#CMR17-42" transform="translate(537.37156 0) scale(0.996264)"/>
     <use xlink:href="#CMR17-6c" transform="translate(602.560315 0) scale(0.996264)"/>
     <use xlink:href="#CMR17-61" transform="translate(627.431373 0) scale(0.996264)"/>
     <use xlink:href="#CMR17-63" transform="translate(673.12185 0) scale(0.996264)"/>
     <use xlink:href="#CMR17-6b" transform="translate(711.005057 0) scale(0.996264)"/>
     <use xlink:href="#CMR17-27" transform="translate(759.297973 0) scale(0.996264)"/>
     <use xlink:href="#CMR17-73" transform="translate(784.169031 0) scale(0.996264)"/>
     <use xlink:href="#CMR17-52" transform="translate(850.046335 0) scale(0.996264)"/>
     <use xlink:href="#CMR17-75" transform="translate(917.837437 0) scale(0.996264)"/>
     <use xlink:href="#CMR17-6c" transform="translate(968.732807 0) scale(0.996264)"/>
     <use xlink:href="#CMR17-65" transform="translate(993.603865 0) scale(0.996264)"/>
     <use xlink:href="#CMR17-2c" transform="translate(1034.089526 0) scale(0.996264)"/>
     <use xlink:href="#CMR17-4e" transform="translate(1089.036551 0) scale(0.996264)"/>
     <use xlink:href="#CMR17-69" transform="translate(1158.10898 0) scale(0.996264)"/>
     <use xlink:href="#CMR17-65" transform="translate(1182.980039 0) scale(0.996264)"/>
     <use xlink:href="#CMR17-74" transform="translate(1223.465699 0) scale(0.996264)"/>
     <use xlink:href="#CMR17-7a" transform="translate(1258.746467 0) scale(0.996264)"/>
     <use xlink:href="#CMR17-73" transform="translate(1299.232128 0) scale(0.996264)"/>
     <use xlink:href="#CMR17-63" transform="translate(1335.033465 0) scale(0.996264)"/>
     <use xlink:href="#CMR17-68" transform="translate(1372.916672 0) scale(0.996264)"/>
     <use xlink:href="#CMR17-65" transform="translate(1423.812042 0) scale(0.996264)"/>
     <use xlink:href="#CMR17-61" transform="translate(1464.297702 0) scale(0.996264)"/>
     <use xlink:href="#CMR17-6e" transform="translate(1509.988179 0) scale(0.996264)"/>
    </g>
   </g>
   <g id="legend_1">
    <g id="patch_7">
     <path d="M 371.926294 115.568501 
L 435.741278 115.568501 
Q 437.941278 115.568501 437.941278 113.368501 
L 437.941278 37.814028 
Q 437.941278 35.614028 435.741278 35.614028 
L 371.926294 35.614028 
Q 369.726294 35.614028 369.726294 37.814028 
L 369.726294 113.368501 
Q 369.726294 115.568501 371.926294 115.568501 
z
" style="fill: #ffffff; opacity: 0.8; stroke: #cccccc; stroke-linejoin: miter"/>
    </g>
    <g id="line2d_36">
     <path d="M 374.126294 43.864028 
L 385.126294 43.864028 
L 396.126294 43.864028 
" style="fill: none; stroke: #440154; stroke-width: 1.5; stroke-linecap: square"/>
    </g>
    <g id="text_19">
     <!-- m=2 -->
     <g transform="translate(404.926294 47.714028) scale(0.11 -0.11)">
      <defs>
       <path id="CMR17-3d" d="M 4115 2017 
C 4211 2017 4307 2017 4307 2125 
C 4307 2240 4198 2240 4090 2240 
L 512 2240 
C 403 2240 294 2240 294 2125 
C 294 2017 390 2017 486 2017 
L 4115 2017 
z
M 4090 896 
C 4198 896 4307 896 4307 1011 
C 4307 1119 4211 1119 4115 1119 
L 486 1119 
C 390 1119 294 1119 294 1011 
C 294 896 403 896 512 896 
L 4090 896 
z
" transform="scale(0.015625)"/>
      </defs>
      <use xlink:href="#CMR17-6d" transform="scale(0.996264)"/>
      <use xlink:href="#CMR17-3d" transform="translate(76.91959 0) scale(0.996264)"/>
      <use xlink:href="#CMR17-32" transform="translate(148.634378 0) scale(0.996264)"/>
     </g>
    </g>
    <g id="line2d_37">
     <path d="M 374.126294 59.194923 
L 385.126294 59.194923 
L 396.126294 59.194923 
" style="fill: none; stroke: #3b528b; stroke-width: 1.5; stroke-linecap: square"/>
    </g>
    <g id="text_20">
     <!-- m=7 -->
     <g transform="translate(404.926294 63.044923) scale(0.11 -0.11)">
      <use xlink:href="#CMR17-6d" transform="scale(0.996264)"/>
      <use xlink:href="#CMR17-3d" transform="translate(76.91959 0) scale(0.996264)"/>
      <use xlink:href="#CMR17-37" transform="translate(148.634378 0) scale(0.996264)"/>
     </g>
    </g>
    <g id="line2d_38">
     <path d="M 374.126294 74.525817 
L 385.126294 74.525817 
L 396.126294 74.525817 
" style="fill: none; stroke: #21918c; stroke-width: 1.5; stroke-linecap: square"/>
    </g>
    <g id="text_21">
     <!-- m=12 -->
     <g transform="translate(404.926294 78.375817) scale(0.11 -0.11)">
      <use xlink:href="#CMR17-6d" transform="scale(0.996264)"/>
      <use xlink:href="#CMR17-3d" transform="translate(76.91959 0) scale(0.996264)"/>
      <use xlink:href="#CMR17-31" transform="translate(148.634378 0) scale(0.996264)"/>
      <use xlink:href="#CMR17-32" transform="translate(194.324855 0) scale(0.996264)"/>
     </g>
    </g>
    <g id="line2d_39">
     <path d="M 374.126294 89.856712 
L 385.126294 89.856712 
L 396.126294 89.856712 
" style="fill: none; stroke: #5ec962; stroke-width: 1.5; stroke-linecap: square"/>
    </g>
    <g id="text_22">
     <!-- m=17 -->
     <g transform="translate(404.926294 93.706712) scale(0.11 -0.11)">
      <use xlink:href="#CMR17-6d" transform="scale(0.996264)"/>
      <use xlink:href="#CMR17-3d" transform="translate(76.91959 0) scale(0.996264)"/>
      <use xlink:href="#CMR17-31" transform="translate(148.634378 0) scale(0.996264)"/>
      <use xlink:href="#CMR17-37" transform="translate(194.324855 0) scale(0.996264)"/>
     </g>
    </g>
    <g id="line2d_40">
     <path d="M 374.126294 105.187607 
L 385.126294 105.187607 
L 396.126294 105.187607 
" style="fill: none; stroke: #fde725; stroke-width: 1.5; stroke-linecap: square"/>
    </g>
    <g id="text_23">
     <!-- m=22 -->
     <g transform="translate(404.926294 109.037607) scale(0.11 -0.11)">
      <use xlink:href="#CMR17-6d" transform="scale(0.996264)"/>
      <use xlink:href="#CMR17-3d" transform="translate(76.91959 0) scale(0.996264)"/>
      <use xlink:href="#CMR17-32" transform="translate(148.634378 0) scale(0.996264)"/>
      <use xlink:href="#CMR17-32" transform="translate(194.324855 0) scale(0.996264)"/>
     </g>
    </g>
   </g>
  </g>
 </g>
 <defs>
  <clipPath id="p430c06e884">
   <rect x="43.111807" y="30.114028" width="400.32947" height="268.11239"/>
  </clipPath>
 </defs>
</svg>
