<?xml version="1.0" encoding="utf-8" standalone="no"?>
<!DOCTYPE svg PUBLIC "-//W3C//DTD SVG 1.1//EN"
  "http://www.w3.org/Graphics/SVG/1.1/DTD/svg11.dtd">
<svg xmlns:xlink="http://www.w3.org/1999/xlink" width="720pt" height="432pt" viewBox="0 0 720 432" xmlns="http://www.w3.org/2000/svg" version="1.1">
 <metadata>
  <rdf:RDF xmlns:dc="http://purl.org/dc/elements/1.1/" xmlns:cc="http://creativecommons.org/ns#" xmlns:rdf="http://www.w3.org/1999/02/22-rdf-syntax-ns#">
   <cc:Work>
    <dc:type rdf:resource="http://purl.org/dc/dcmitype/StillImage"/>
    <dc:date>2024-12-09T12:29:55.255995</dc:date>
    <dc:format>image/svg+xml</dc:format>
    <dc:creator>
     <cc:Agent>
      <dc:title>Matplotlib v3.9.2, https://matplotlib.org/</dc:title>
     </cc:Agent>
    </dc:creator>
   </cc:Work>
  </rdf:RDF>
 </metadata>
 <defs>
  <style type="text/css">*{stroke-linejoin: round; stroke-linecap: butt}</style>
 </defs>
 <g id="figure_1">
  <g id="patch_1">
   <path d="M 0 432 
L 720 432 
L 720 0 
L 0 0 
z
" style="fill: #ffffff"/>
  </g>
  <g id="axes_1">
   <g id="patch_2">
    <path d="M 48.591275 384.626418 
L 704.88 384.626418 
L 704.88 30.114028 
L 48.591275 30.114028 
z
" style="fill: #ffffff"/>
   </g>
   <g id="PolyCollection_1">
    <defs>
     <path id="m80596a28f7" d="M 163.654882 -63.487781 
L 78.42258 -63.487781 
L 78.425832 -63.656579 
L 78.496536 -63.825377 
L 78.633906 -63.994176 
L 78.836797 -64.162974 
L 79.103709 -64.331772 
L 79.432802 -64.50057 
L 79.821905 -64.669368 
L 80.268537 -64.838167 
L 80.769922 -65.006965 
L 81.323013 -65.175763 
L 81.924514 -65.344561 
L 82.570904 -65.513359 
L 83.258469 -65.682158 
L 83.983323 -65.850956 
L 84.741443 -66.019754 
L 85.528698 -66.188552 
L 86.340874 -66.35735 
L 87.173714 -66.526149 
L 88.022941 -66.694947 
L 88.884292 -66.863745 
L 89.753544 -67.032543 
L 90.626547 -67.201341 
L 91.499247 -67.37014 
L 92.367716 -67.538938 
L 93.228172 -67.707736 
L 94.077005 -67.876534 
L 94.910795 -68.045332 
L 95.726332 -68.214131 
L 96.520633 -68.382929 
L 97.290952 -68.551727 
L 98.034796 -68.720525 
L 98.749934 -68.889323 
L 99.4344 -69.058122 
L 100.086502 -69.22692 
L 100.704821 -69.395718 
L 101.288214 -69.564516 
L 101.835809 -69.733314 
L 102.347004 -69.902113 
L 102.821457 -70.070911 
L 103.259081 -70.239709 
L 103.660035 -70.408507 
L 104.024709 -70.577305 
L 104.353716 -70.746104 
L 104.647876 -70.914902 
L 104.9082 -71.0837 
L 105.135878 -71.252498 
L 105.332259 -71.421296 
L 105.498839 -71.590095 
L 105.637238 -71.758893 
L 105.749186 -71.927691 
L 105.836506 -72.096489 
L 105.901095 -72.265287 
L 105.944908 -72.434086 
L 105.969942 -72.602884 
L 105.97822 -72.771682 
L 105.97177 -72.94048 
L 105.952621 -73.109278 
L 105.922777 -73.278077 
L 105.884214 -73.446875 
L 105.838861 -73.615673 
L 105.788593 -73.784471 
L 105.735216 -73.953269 
L 105.680466 -74.122068 
L 105.625992 -74.290866 
L 105.573356 -74.459664 
L 105.524022 -74.628462 
L 105.479357 -74.79726 
L 105.440621 -74.966059 
L 105.408972 -75.134857 
L 105.385455 -75.303655 
L 105.371012 -75.472453 
L 105.366471 -75.641251 
L 105.372558 -75.81005 
L 105.389891 -75.978848 
L 105.418984 -76.147646 
L 105.460254 -76.316444 
L 105.514021 -76.485242 
L 105.580512 -76.654041 
L 105.659868 -76.822839 
L 105.752145 -76.991637 
L 105.857325 -77.160435 
L 105.975314 -77.329233 
L 106.105954 -77.498032 
L 106.249024 -77.66683 
L 106.404247 -77.835628 
L 106.571295 -78.004426 
L 106.749794 -78.173224 
L 106.939332 -78.342023 
L 107.139458 -78.510821 
L 107.349691 -78.679619 
L 107.569524 -78.848417 
L 107.798427 -79.017215 
L 108.035852 -79.186014 
L 108.281235 -79.354812 
L 108.534 -79.52361 
L 108.793564 -79.692408 
L 109.059338 -79.861206 
L 109.330727 -80.030005 
L 109.607137 -80.198803 
L 132.470326 -80.198803 
L 132.470326 -80.198803 
L 132.746736 -80.030005 
L 133.018125 -79.861206 
L 133.283898 -79.692408 
L 133.543463 -79.52361 
L 133.796228 -79.354812 
L 134.041611 -79.186014 
L 134.279036 -79.017215 
L 134.507939 -78.848417 
L 134.727772 -78.679619 
L 134.938005 -78.510821 
L 135.138131 -78.342023 
L 135.327668 -78.173224 
L 135.506168 -78.004426 
L 135.673216 -77.835628 
L 135.828439 -77.66683 
L 135.971508 -77.498032 
L 136.102148 -77.329233 
L 136.220138 -77.160435 
L 136.325317 -76.991637 
L 136.417595 -76.822839 
L 136.49695 -76.654041 
L 136.563441 -76.485242 
L 136.617208 -76.316444 
L 136.658479 -76.147646 
L 136.687572 -75.978848 
L 136.704905 -75.81005 
L 136.710992 -75.641251 
L 136.706451 -75.472453 
L 136.692007 -75.303655 
L 136.668491 -75.134857 
L 136.636841 -74.966059 
L 136.598106 -74.79726 
L 136.553441 -74.628462 
L 136.504107 -74.459664 
L 136.451471 -74.290866 
L 136.396997 -74.122068 
L 136.342246 -73.953269 
L 136.28887 -73.784471 
L 136.238602 -73.615673 
L 136.193249 -73.446875 
L 136.154686 -73.278077 
L 136.124842 -73.109278 
L 136.105693 -72.94048 
L 136.099243 -72.771682 
L 136.10752 -72.602884 
L 136.132555 -72.434086 
L 136.176368 -72.265287 
L 136.240957 -72.096489 
L 136.328277 -71.927691 
L 136.440225 -71.758893 
L 136.578624 -71.590095 
L 136.745203 -71.421296 
L 136.941585 -71.252498 
L 137.169263 -71.0837 
L 137.429587 -70.914902 
L 137.723747 -70.746104 
L 138.052754 -70.577305 
L 138.417428 -70.408507 
L 138.818382 -70.239709 
L 139.256006 -70.070911 
L 139.730459 -69.902113 
L 140.241653 -69.733314 
L 140.789249 -69.564516 
L 141.372642 -69.395718 
L 141.990961 -69.22692 
L 142.643063 -69.058122 
L 143.327529 -68.889323 
L 144.042666 -68.720525 
L 144.786511 -68.551727 
L 145.55683 -68.382929 
L 146.351131 -68.214131 
L 147.166668 -68.045332 
L 148.000458 -67.876534 
L 148.849291 -67.707736 
L 149.709747 -67.538938 
L 150.578216 -67.37014 
L 151.450916 -67.201341 
L 152.323919 -67.032543 
L 153.193171 -66.863745 
L 154.054521 -66.694947 
L 154.903748 -66.526149 
L 155.736589 -66.35735 
L 156.548765 -66.188552 
L 157.336019 -66.019754 
L 158.09414 -65.850956 
L 158.818994 -65.682158 
L 159.506559 -65.513359 
L 160.152949 -65.344561 
L 160.75445 -65.175763 
L 161.30754 -65.006965 
L 161.808925 -64.838167 
L 162.255557 -64.669368 
L 162.644661 -64.50057 
L 162.973754 -64.331772 
L 163.240666 -64.162974 
L 163.443557 -63.994176 
L 163.580927 -63.825377 
L 163.651631 -63.656579 
L 163.654882 -63.487781 
z
" style="stroke: #000000; stroke-opacity: 0.4"/>
    </defs>
    <g clip-path="url(#p45bebca981)">
     <use xlink:href="#m80596a28f7" x="0" y="432" style="fill: #440154; fill-opacity: 0.4; stroke: #000000; stroke-opacity: 0.4"/>
    </g>
   </g>
   <g id="PolyCollection_2">
    <defs>
     <path id="m0fada66972" d="M 332.969518 -63.487781 
L 250.037153 -63.487781 
L 249.659754 -64.171012 
L 249.356967 -64.854243 
L 249.128913 -65.537474 
L 248.975228 -66.220704 
L 248.895076 -66.903935 
L 248.887184 -67.587166 
L 248.949864 -68.270397 
L 249.081051 -68.953628 
L 249.27834 -69.636858 
L 249.539027 -70.320089 
L 249.860156 -71.00332 
L 250.238557 -71.686551 
L 250.670898 -72.369782 
L 251.153725 -73.053012 
L 251.683505 -73.736243 
L 252.256672 -74.419474 
L 252.869662 -75.102705 
L 253.518949 -75.785936 
L 254.201078 -76.469166 
L 254.912691 -77.152397 
L 255.650554 -77.835628 
L 256.411573 -78.518859 
L 257.192807 -79.20209 
L 257.991483 -79.88532 
L 258.804996 -80.568551 
L 259.630915 -81.251782 
L 260.466976 -81.935013 
L 261.311082 -82.618244 
L 262.161287 -83.301475 
L 263.015791 -83.984705 
L 263.872924 -84.667936 
L 264.731133 -85.351167 
L 265.588964 -86.034398 
L 266.44505 -86.717629 
L 267.298091 -87.400859 
L 268.146844 -88.08409 
L 268.990104 -88.767321 
L 269.826696 -89.450552 
L 270.655459 -90.133783 
L 271.475241 -90.817013 
L 272.284889 -91.500244 
L 273.083247 -92.183475 
L 273.869148 -92.866706 
L 274.641417 -93.549937 
L 275.398873 -94.233167 
L 276.140326 -94.916398 
L 276.864588 -95.599629 
L 277.570476 -96.28286 
L 278.256822 -96.966091 
L 278.922477 -97.649322 
L 279.566325 -98.332552 
L 280.187291 -99.015783 
L 280.784351 -99.699014 
L 281.356541 -100.382245 
L 281.902972 -101.065476 
L 282.422834 -101.748706 
L 282.915409 -102.431937 
L 283.380078 -103.115168 
L 283.816329 -103.798399 
L 284.223764 -104.48163 
L 284.602105 -105.16486 
L 284.951197 -105.848091 
L 285.271014 -106.531322 
L 285.561661 -107.214553 
L 285.823372 -107.897784 
L 286.056516 -108.581014 
L 286.261591 -109.264245 
L 286.439224 -109.947476 
L 286.590167 -110.630707 
L 286.715297 -111.313938 
L 286.815605 -111.997168 
L 286.892194 -112.680399 
L 286.946273 -113.36363 
L 286.979145 -114.046861 
L 286.992207 -114.730092 
L 286.986931 -115.413323 
L 286.964865 -116.096553 
L 286.927615 -116.779784 
L 286.876838 -117.463015 
L 286.814232 -118.146246 
L 286.741522 -118.829477 
L 286.66045 -119.512707 
L 286.572765 -120.195938 
L 286.480207 -120.879169 
L 286.384497 -121.5624 
L 286.287326 -122.245631 
L 286.190341 -122.928861 
L 286.095134 -123.612092 
L 286.003233 -124.295323 
L 285.916087 -124.978554 
L 285.835059 -125.661785 
L 285.761417 -126.345015 
L 285.69632 -127.028246 
L 285.640817 -127.711477 
L 285.595838 -128.394708 
L 285.562186 -129.077939 
L 285.540534 -129.761169 
L 285.531424 -130.4444 
L 285.535265 -131.127631 
L 297.471406 -131.127631 
L 297.471406 -131.127631 
L 297.475246 -130.4444 
L 297.466137 -129.761169 
L 297.444485 -129.077939 
L 297.410833 -128.394708 
L 297.365853 -127.711477 
L 297.310351 -127.028246 
L 297.245254 -126.345015 
L 297.171611 -125.661785 
L 297.090584 -124.978554 
L 297.003438 -124.295323 
L 296.911537 -123.612092 
L 296.81633 -122.928861 
L 296.719345 -122.245631 
L 296.622173 -121.5624 
L 296.526464 -120.879169 
L 296.433905 -120.195938 
L 296.34622 -119.512707 
L 296.265149 -118.829477 
L 296.192439 -118.146246 
L 296.129833 -117.463015 
L 296.079056 -116.779784 
L 296.041806 -116.096553 
L 296.019739 -115.413323 
L 296.014464 -114.730092 
L 296.027525 -114.046861 
L 296.060398 -113.36363 
L 296.114477 -112.680399 
L 296.191066 -111.997168 
L 296.291374 -111.313938 
L 296.416503 -110.630707 
L 296.567447 -109.947476 
L 296.74508 -109.264245 
L 296.950155 -108.581014 
L 297.183299 -107.897784 
L 297.44501 -107.214553 
L 297.735657 -106.531322 
L 298.055474 -105.848091 
L 298.404566 -105.16486 
L 298.782907 -104.48163 
L 299.190342 -103.798399 
L 299.626593 -103.115168 
L 300.091262 -102.431937 
L 300.583837 -101.748706 
L 301.103699 -101.065476 
L 301.65013 -100.382245 
L 302.22232 -99.699014 
L 302.81938 -99.015783 
L 303.440345 -98.332552 
L 304.084194 -97.649322 
L 304.749849 -96.966091 
L 305.436195 -96.28286 
L 306.142083 -95.599629 
L 306.866345 -94.916398 
L 307.607798 -94.233167 
L 308.365253 -93.549937 
L 309.137523 -92.866706 
L 309.923424 -92.183475 
L 310.721781 -91.500244 
L 311.53143 -90.817013 
L 312.351212 -90.133783 
L 313.179975 -89.450552 
L 314.016566 -88.767321 
L 314.859827 -88.08409 
L 315.70858 -87.400859 
L 316.561621 -86.717629 
L 317.417707 -86.034398 
L 318.275538 -85.351167 
L 319.133747 -84.667936 
L 319.99088 -83.984705 
L 320.845384 -83.301475 
L 321.695589 -82.618244 
L 322.539694 -81.935013 
L 323.375756 -81.251782 
L 324.201675 -80.568551 
L 325.015188 -79.88532 
L 325.813864 -79.20209 
L 326.595098 -78.518859 
L 327.356116 -77.835628 
L 328.09398 -77.152397 
L 328.805593 -76.469166 
L 329.487722 -75.785936 
L 330.137009 -75.102705 
L 330.749998 -74.419474 
L 331.323166 -73.736243 
L 331.852946 -73.053012 
L 332.335773 -72.369782 
L 332.768114 -71.686551 
L 333.146515 -71.00332 
L 333.467644 -70.320089 
L 333.728331 -69.636858 
L 333.92562 -68.953628 
L 334.056806 -68.270397 
L 334.119486 -67.587166 
L 334.111594 -66.903935 
L 334.031443 -66.220704 
L 333.877757 -65.537474 
L 333.649704 -64.854243 
L 333.346917 -64.171012 
L 332.969518 -63.487781 
z
" style="stroke: #000000; stroke-opacity: 0.4"/>
    </defs>
    <g clip-path="url(#p45bebca981)">
     <use xlink:href="#m0fada66972" x="0" y="432" style="fill: #31688e; fill-opacity: 0.4; stroke: #000000; stroke-opacity: 0.4"/>
    </g>
   </g>
   <g id="PolyCollection_3">
    <defs>
     <path id="mc157c69827" d="M 504.217218 -63.487781 
L 419.718661 -63.487781 
L 419.490274 -66.743175 
L 419.36772 -69.998569 
L 419.351788 -73.253963 
L 419.442464 -76.509357 
L 419.638933 -79.76475 
L 419.939591 -83.020144 
L 420.342068 -86.275538 
L 420.843257 -89.530932 
L 421.439356 -92.786326 
L 422.125915 -96.04172 
L 422.897889 -99.297113 
L 423.749703 -102.552507 
L 424.675318 -105.807901 
L 425.668299 -109.063295 
L 426.721892 -112.318689 
L 427.829098 -115.574083 
L 428.982749 -118.829477 
L 430.175584 -122.08487 
L 431.400324 -125.340264 
L 432.649742 -128.595658 
L 433.91673 -131.851052 
L 435.194365 -135.106446 
L 436.475963 -138.36184 
L 437.755137 -141.617234 
L 439.025839 -144.872627 
L 440.282398 -148.128021 
L 441.519559 -151.383415 
L 442.732502 -154.638809 
L 443.916867 -157.894203 
L 445.06876 -161.149597 
L 446.184765 -164.40499 
L 447.261938 -167.660384 
L 448.297804 -170.915778 
L 449.290346 -174.171172 
L 450.237987 -177.426566 
L 451.139571 -180.68196 
L 451.994339 -183.937354 
L 452.801902 -187.192747 
L 453.562212 -190.448141 
L 454.275532 -193.703535 
L 454.942405 -196.958929 
L 455.56362 -200.214323 
L 456.14018 -203.469717 
L 456.67327 -206.725111 
L 457.164228 -209.980504 
L 457.614513 -213.235898 
L 458.025677 -216.491292 
L 458.399342 -219.746686 
L 458.73717 -223.00208 
L 459.040844 -226.257474 
L 459.312051 -229.512867 
L 459.552459 -232.768261 
L 459.763709 -236.023655 
L 459.947394 -239.279049 
L 460.105059 -242.534443 
L 460.238185 -245.789837 
L 460.34819 -249.045231 
L 460.43642 -252.300624 
L 460.504153 -255.556018 
L 460.552595 -258.811412 
L 460.582885 -262.066806 
L 460.596098 -265.3222 
L 460.593248 -268.577594 
L 460.575297 -271.832988 
L 460.543156 -275.088381 
L 460.497698 -278.343775 
L 460.439763 -281.599169 
L 460.370165 -284.854563 
L 460.289698 -288.109957 
L 460.199149 -291.365351 
L 460.099301 -294.620744 
L 459.990938 -297.876138 
L 459.874856 -301.131532 
L 459.751865 -304.386926 
L 459.622793 -307.64232 
L 459.488489 -310.897714 
L 459.349827 -314.153108 
L 459.207707 -317.408501 
L 459.063052 -320.663895 
L 458.916808 -323.919289 
L 458.769945 -327.174683 
L 458.623446 -330.430077 
L 458.478309 -333.685471 
L 458.335539 -336.940865 
L 458.196138 -340.196258 
L 458.061105 -343.451652 
L 457.93142 -346.707046 
L 457.808041 -349.96244 
L 457.691892 -353.217834 
L 457.583856 -356.473228 
L 457.484766 -359.728622 
L 457.395393 -362.984015 
L 457.316442 -366.239409 
L 457.248541 -369.494803 
L 457.192237 -372.750197 
L 457.147987 -376.005591 
L 457.116151 -379.260985 
L 457.096993 -382.516378 
L 457.090676 -385.771772 
L 466.845203 -385.771772 
L 466.845203 -385.771772 
L 466.838885 -382.516378 
L 466.819728 -379.260985 
L 466.787892 -376.005591 
L 466.743641 -372.750197 
L 466.687337 -369.494803 
L 466.619437 -366.239409 
L 466.540486 -362.984015 
L 466.451113 -359.728622 
L 466.352022 -356.473228 
L 466.243987 -353.217834 
L 466.127838 -349.96244 
L 466.004458 -346.707046 
L 465.874774 -343.451652 
L 465.73974 -340.196258 
L 465.60034 -336.940865 
L 465.457569 -333.685471 
L 465.312433 -330.430077 
L 465.165934 -327.174683 
L 465.01907 -323.919289 
L 464.872827 -320.663895 
L 464.728172 -317.408501 
L 464.586052 -314.153108 
L 464.44739 -310.897714 
L 464.313086 -307.64232 
L 464.184014 -304.386926 
L 464.061022 -301.131532 
L 463.944941 -297.876138 
L 463.836578 -294.620744 
L 463.73673 -291.365351 
L 463.646181 -288.109957 
L 463.565714 -284.854563 
L 463.496115 -281.599169 
L 463.43818 -278.343775 
L 463.392723 -275.088381 
L 463.360582 -271.832988 
L 463.342631 -268.577594 
L 463.339781 -265.3222 
L 463.352994 -262.066806 
L 463.383284 -258.811412 
L 463.431726 -255.556018 
L 463.499458 -252.300624 
L 463.587689 -249.045231 
L 463.697693 -245.789837 
L 463.83082 -242.534443 
L 463.988485 -239.279049 
L 464.17217 -236.023655 
L 464.383419 -232.768261 
L 464.623828 -229.512867 
L 464.895035 -226.257474 
L 465.198709 -223.00208 
L 465.536537 -219.746686 
L 465.910201 -216.491292 
L 466.321366 -213.235898 
L 466.771651 -209.980504 
L 467.262609 -206.725111 
L 467.795699 -203.469717 
L 468.372259 -200.214323 
L 468.993473 -196.958929 
L 469.660347 -193.703535 
L 470.373667 -190.448141 
L 471.133977 -187.192747 
L 471.94154 -183.937354 
L 472.796308 -180.68196 
L 473.697892 -177.426566 
L 474.645533 -174.171172 
L 475.638075 -170.915778 
L 476.673941 -167.660384 
L 477.751114 -164.40499 
L 478.867118 -161.149597 
L 480.019012 -157.894203 
L 481.203376 -154.638809 
L 482.41632 -151.383415 
L 483.653481 -148.128021 
L 484.91004 -144.872627 
L 486.180741 -141.617234 
L 487.459915 -138.36184 
L 488.741514 -135.106446 
L 490.019149 -131.851052 
L 491.286137 -128.595658 
L 492.535554 -125.340264 
L 493.760295 -122.08487 
L 494.95313 -118.829477 
L 496.106781 -115.574083 
L 497.213987 -112.318689 
L 498.26758 -109.063295 
L 499.260561 -105.807901 
L 500.186175 -102.552507 
L 501.03799 -99.297113 
L 501.809964 -96.04172 
L 502.496522 -92.786326 
L 503.092622 -89.530932 
L 503.593811 -86.275538 
L 503.996288 -83.020144 
L 504.296946 -79.76475 
L 504.493415 -76.509357 
L 504.58409 -73.253963 
L 504.568158 -69.998569 
L 504.445605 -66.743175 
L 504.217218 -63.487781 
z
" style="stroke: #000000; stroke-opacity: 0.4"/>
    </defs>
    <g clip-path="url(#p45bebca981)">
     <use xlink:href="#mc157c69827" x="0" y="432" style="fill: #35b779; fill-opacity: 0.4; stroke: #000000; stroke-opacity: 0.4"/>
    </g>
   </g>
   <g id="PolyCollection_4">
    <defs>
     <path id="m0da06196d3" d="M 675.048694 -63.487781 
L 589.816392 -63.487781 
L 589.831587 -63.513164 
L 589.936804 -63.538547 
L 590.130915 -63.563931 
L 590.412184 -63.589314 
L 590.778291 -63.614697 
L 591.226353 -63.64008 
L 591.752954 -63.665463 
L 592.354188 -63.690847 
L 593.025694 -63.71623 
L 593.76271 -63.741613 
L 594.560115 -63.766996 
L 595.41249 -63.792379 
L 596.314172 -63.817763 
L 597.25931 -63.843146 
L 598.241925 -63.868529 
L 599.255969 -63.893912 
L 600.295384 -63.919295 
L 601.354154 -63.944678 
L 602.426365 -63.970062 
L 603.506252 -63.995445 
L 604.58825 -64.020828 
L 605.667035 -64.046211 
L 606.737568 -64.071594 
L 607.795124 -64.096978 
L 608.835328 -64.122361 
L 609.854175 -64.147744 
L 610.848051 -64.173127 
L 611.813746 -64.19851 
L 612.748464 -64.223894 
L 613.649824 -64.249277 
L 614.515861 -64.27466 
L 615.345015 -64.300043 
L 616.136126 -64.325426 
L 616.888413 -64.350809 
L 617.601458 -64.376193 
L 618.275186 -64.401576 
L 618.909836 -64.426959 
L 619.505937 -64.452342 
L 620.064279 -64.477725 
L 620.58588 -64.503109 
L 621.071961 -64.528492 
L 621.523909 -64.553875 
L 621.94325 -64.579258 
L 622.331616 -64.604641 
L 622.690717 -64.630025 
L 623.022313 -64.655408 
L 623.328185 -64.680791 
L 623.610113 -64.706174 
L 623.869854 -64.731557 
L 624.109118 -64.75694 
L 624.329554 -64.782324 
L 624.532731 -64.807707 
L 624.720129 -64.83309 
L 624.893128 -64.858473 
L 625.052999 -64.883856 
L 625.200899 -64.90924 
L 625.337872 -64.934623 
L 625.464844 -64.960006 
L 625.582629 -64.985389 
L 625.69193 -65.010772 
L 625.793346 -65.036156 
L 625.88738 -65.061539 
L 625.974447 -65.086922 
L 626.054882 -65.112305 
L 626.128953 -65.137688 
L 626.19687 -65.163072 
L 626.2588 -65.188455 
L 626.314873 -65.213838 
L 626.365197 -65.239221 
L 626.409872 -65.264604 
L 626.448993 -65.289987 
L 626.482666 -65.315371 
L 626.511017 -65.340754 
L 626.534197 -65.366137 
L 626.552388 -65.39152 
L 626.565817 -65.416903 
L 626.574748 -65.442287 
L 626.579498 -65.46767 
L 626.580428 -65.493053 
L 626.577951 -65.518436 
L 626.572527 -65.543819 
L 626.564663 -65.569203 
L 626.554909 -65.594586 
L 626.543853 -65.619969 
L 626.532118 -65.645352 
L 626.520352 -65.670735 
L 626.509226 -65.696118 
L 626.499421 -65.721502 
L 626.491625 -65.746885 
L 626.486522 -65.772268 
L 626.484785 -65.797651 
L 626.487065 -65.823034 
L 626.493987 -65.848418 
L 626.506138 -65.873801 
L 626.524064 -65.899184 
L 626.54826 -65.924567 
L 626.579162 -65.94995 
L 626.617149 -65.975334 
L 626.662529 -66.000717 
L 638.202558 -66.000717 
L 638.202558 -66.000717 
L 638.247938 -65.975334 
L 638.285924 -65.94995 
L 638.316827 -65.924567 
L 638.341022 -65.899184 
L 638.358948 -65.873801 
L 638.3711 -65.848418 
L 638.378022 -65.823034 
L 638.380302 -65.797651 
L 638.378564 -65.772268 
L 638.373462 -65.746885 
L 638.365666 -65.721502 
L 638.355861 -65.696118 
L 638.344734 -65.670735 
L 638.332969 -65.645352 
L 638.321233 -65.619969 
L 638.310177 -65.594586 
L 638.300423 -65.569203 
L 638.292559 -65.543819 
L 638.287135 -65.518436 
L 638.284658 -65.493053 
L 638.285589 -65.46767 
L 638.290338 -65.442287 
L 638.29927 -65.416903 
L 638.312698 -65.39152 
L 638.33089 -65.366137 
L 638.354069 -65.340754 
L 638.38242 -65.315371 
L 638.416094 -65.289987 
L 638.455215 -65.264604 
L 638.499889 -65.239221 
L 638.550214 -65.213838 
L 638.606287 -65.188455 
L 638.668216 -65.163072 
L 638.736134 -65.137688 
L 638.810205 -65.112305 
L 638.89064 -65.086922 
L 638.977706 -65.061539 
L 639.071741 -65.036156 
L 639.173157 -65.010772 
L 639.282458 -64.985389 
L 639.400242 -64.960006 
L 639.527215 -64.934623 
L 639.664187 -64.90924 
L 639.812088 -64.883856 
L 639.971959 -64.858473 
L 640.144958 -64.83309 
L 640.332356 -64.807707 
L 640.535533 -64.782324 
L 640.755968 -64.75694 
L 640.995232 -64.731557 
L 641.254973 -64.706174 
L 641.536902 -64.680791 
L 641.842774 -64.655408 
L 642.174369 -64.630025 
L 642.53347 -64.604641 
L 642.921836 -64.579258 
L 643.341177 -64.553875 
L 643.793125 -64.528492 
L 644.279206 -64.503109 
L 644.800808 -64.477725 
L 645.359149 -64.452342 
L 645.95525 -64.426959 
L 646.5899 -64.401576 
L 647.263628 -64.376193 
L 647.976674 -64.350809 
L 648.728961 -64.325426 
L 649.520071 -64.300043 
L 650.349226 -64.27466 
L 651.215263 -64.249277 
L 652.116623 -64.223894 
L 653.051341 -64.19851 
L 654.017036 -64.173127 
L 655.010912 -64.147744 
L 656.029758 -64.122361 
L 657.069962 -64.096978 
L 658.127519 -64.071594 
L 659.198051 -64.046211 
L 660.276837 -64.020828 
L 661.358834 -63.995445 
L 662.438721 -63.970062 
L 663.510932 -63.944678 
L 664.569703 -63.919295 
L 665.609117 -63.893912 
L 666.623162 -63.868529 
L 667.605777 -63.843146 
L 668.550915 -63.817763 
L 669.452597 -63.792379 
L 670.304972 -63.766996 
L 671.102377 -63.741613 
L 671.839392 -63.71623 
L 672.510899 -63.690847 
L 673.112133 -63.665463 
L 673.638734 -63.64008 
L 674.086795 -63.614697 
L 674.452902 -63.589314 
L 674.734172 -63.563931 
L 674.928283 -63.538547 
L 675.0335 -63.513164 
L 675.048694 -63.487781 
z
" style="stroke: #000000; stroke-opacity: 0.4"/>
    </defs>
    <g clip-path="url(#p45bebca981)">
     <use xlink:href="#m0da06196d3" x="0" y="432" style="fill: #fde725; fill-opacity: 0.4; stroke: #000000; stroke-opacity: 0.4"/>
    </g>
   </g>
   <g id="matplotlib.axis_1">
    <g id="xtick_1">
     <g id="line2d_1">
      <defs>
       <path id="m93a7fa5535" d="M 0 0 
L 0 3.5 
" style="stroke: #000000; stroke-width: 0.8"/>
      </defs>
      <g>
       <use xlink:href="#m93a7fa5535" x="121.038731" y="384.626418" style="stroke: #000000; stroke-width: 0.8"/>
      </g>
     </g>
     <g id="text_1">
      <!-- Borda rule -->
      <g transform="translate(95.513548 399.236765) scale(0.11 -0.11)">
       <defs>
        <path id="CMR17-42" d="M 333 4352 
L 333 4186 
C 774 4186 845 4186 845 3900 
L 845 452 
C 845 166 774 166 333 166 
L 333 0 
L 2534 0 
C 3354 0 3885 583 3885 1164 
C 3885 1741 3360 2233 2675 2233 
C 3290 2356 3718 2771 3718 3264 
C 3718 3802 3194 4352 2368 4352 
L 333 4352 
z
M 1248 2304 
L 1248 3937 
C 1248 4155 1261 4186 1517 4186 
L 2336 4186 
C 2970 4186 3251 3674 3251 3277 
C 3251 2791 2861 2304 2170 2304 
L 1248 2304 
z
M 1517 166 
C 1261 166 1248 197 1248 413 
L 1248 2202 
L 2432 2202 
C 3091 2202 3411 1625 3411 1162 
C 3411 699 3046 166 2349 166 
L 1517 166 
z
" transform="scale(0.015625)"/>
        <path id="CMR17-6f" d="M 2758 1356 
C 2758 2176 2163 2816 1466 2816 
C 768 2816 173 2176 173 1356 
C 173 551 768 -64 1466 -64 
C 2163 -64 2758 551 2758 1356 
z
M 1466 51 
C 1165 51 909 230 762 480 
C 602 767 582 1126 582 1408 
C 582 1677 595 2010 762 2298 
C 890 2509 1139 2714 1466 2714 
C 1754 2714 1997 2554 2150 2330 
C 2349 2029 2349 1607 2349 1408 
C 2349 1158 2336 775 2163 467 
C 1984 173 1709 51 1466 51 
z
" transform="scale(0.015625)"/>
        <path id="CMR17-72" d="M 960 1497 
C 960 2112 1222 2688 1702 2688 
C 1747 2688 1792 2682 1837 2662 
C 1837 2662 1696 2617 1696 2452 
C 1696 2298 1818 2234 1914 2234 
C 1990 2234 2131 2279 2131 2458 
C 2131 2663 1926 2790 1709 2790 
C 1222 2790 1011 2317 947 2093 
L 941 2093 
L 941 2790 
L 198 2720 
L 198 2554 
C 576 2554 634 2515 634 2208 
L 634 428 
C 634 184 608 153 198 153 
L 198 -13 
C 352 0 646 0 813 0 
C 998 0 1325 0 1498 -13 
L 1498 153 
C 1037 153 960 153 960 440 
L 960 1497 
z
" transform="scale(0.015625)"/>
        <path id="CMR17-64" d="M 1869 4326 
L 1869 4160 
C 2246 4160 2304 4122 2304 3820 
L 2304 2345 
C 2278 2377 2016 2790 1498 2790 
C 845 2790 211 2208 211 1364 
C 211 525 806 -64 1434 -64 
C 1978 -64 2259 337 2291 380 
L 2291 -63 
L 3066 -63 
L 3066 128 
C 2688 128 2630 166 2630 473 
L 2630 4396 
L 1869 4326 
z
M 2291 755 
C 2291 563 2176 390 2029 262 
C 1811 70 1594 38 1472 38 
C 1286 38 621 134 621 1356 
C 621 2612 1363 2688 1530 2688 
C 1824 2688 2061 2522 2208 2291 
C 2291 2157 2291 2138 2291 2023 
L 2291 755 
z
" transform="scale(0.015625)"/>
        <path id="CMR17-61" d="M 2304 1653 
C 2304 2072 2304 2294 2035 2543 
C 1798 2752 1523 2816 1306 2816 
C 800 2816 435 2407 435 1971 
C 435 1728 627 1728 666 1728 
C 749 1728 896 1778 896 1954 
C 896 2112 774 2181 666 2181 
C 640 2181 608 2174 589 2168 
C 723 2592 1069 2714 1293 2714 
C 1613 2714 1965 2429 1965 1885 
L 1965 1600 
C 1587 1600 1133 1549 774 1357 
C 371 1133 256 813 256 570 
C 256 77 832 -64 1171 -64 
C 1523 -64 1850 139 1990 511 
C 2003 233 2182 -18 2464 -18 
C 2598 -18 2938 70 2938 567 
L 2938 920 
L 2822 920 
L 2822 562 
C 2822 178 2650 128 2566 128 
C 2304 128 2304 458 2304 738 
L 2304 1653 
z
M 1965 870 
C 1965 317 1568 38 1216 38 
C 896 38 646 275 646 570 
C 646 761 730 1100 1101 1305 
C 1408 1478 1760 1504 1965 1504 
L 1965 870 
z
" transform="scale(0.015625)"/>
        <path id="CMR17-75" d="M 1882 2693 
L 1882 2528 
C 2259 2528 2317 2489 2317 2186 
L 2317 1032 
C 2317 500 2029 38 1555 38 
C 1030 38 986 348 986 678 
L 986 2763 
L 211 2693 
L 211 2528 
C 467 2528 640 2528 646 2274 
L 646 1058 
C 646 633 646 361 813 183 
C 896 101 1056 -64 1517 -64 
C 2061 -64 2272 377 2323 506 
L 2330 506 
L 2330 -63 
L 3091 -63 
L 3091 128 
C 2714 128 2656 166 2656 473 
L 2656 2763 
L 1882 2693 
z
" transform="scale(0.015625)"/>
        <path id="CMR17-6c" d="M 979 4396 
L 218 4326 
L 218 4160 
C 595 4160 653 4122 653 3817 
L 653 426 
C 653 184 627 153 218 153 
L 218 -13 
C 371 0 653 0 813 0 
C 979 0 1261 0 1414 -13 
L 1414 153 
C 1005 153 979 178 979 426 
L 979 4396 
z
" transform="scale(0.015625)"/>
        <path id="CMR17-65" d="M 2438 1472 
C 2464 1498 2464 1511 2464 1576 
C 2464 2238 2118 2816 1389 2816 
C 710 2816 173 2169 173 1383 
C 173 551 781 -64 1459 -64 
C 2176 -64 2458 607 2458 740 
C 2458 784 2419 784 2406 784 
C 2362 784 2355 771 2330 696 
C 2189 265 1837 51 1504 51 
C 1229 51 954 203 781 480 
C 582 803 582 1176 582 1472 
L 2438 1472 
z
M 589 1568 
C 634 2505 1126 2714 1382 2714 
C 1818 2714 2112 2297 2118 1568 
L 589 1568 
z
" transform="scale(0.015625)"/>
       </defs>
       <use xlink:href="#CMR17-42" transform="scale(0.996264)"/>
       <use xlink:href="#CMR17-6f" transform="translate(65.188754 0) scale(0.996264)"/>
       <use xlink:href="#CMR17-72" transform="translate(110.879232 0) scale(0.996264)"/>
       <use xlink:href="#CMR17-64" transform="translate(146.159999 0) scale(0.996264)"/>
       <use xlink:href="#CMR17-61" transform="translate(197.055369 0) scale(0.996264)"/>
       <use xlink:href="#CMR17-72" transform="translate(272.821813 0) scale(0.996264)"/>
       <use xlink:href="#CMR17-75" transform="translate(308.10258 0) scale(0.996264)"/>
       <use xlink:href="#CMR17-6c" transform="translate(358.99795 0) scale(0.996264)"/>
       <use xlink:href="#CMR17-65" transform="translate(383.869009 0) scale(0.996264)"/>
      </g>
     </g>
    </g>
    <g id="xtick_2">
     <g id="line2d_2">
      <g>
       <use xlink:href="#m93a7fa5535" x="291.503335" y="384.626418" style="stroke: #000000; stroke-width: 0.8"/>
      </g>
     </g>
     <g id="text_2">
      <!-- Copeland's Rule -->
      <g transform="translate(252.279506 399.236765) scale(0.11 -0.11)">
       <defs>
        <path id="CMR17-43" d="M 3974 4289 
C 3974 4403 3968 4410 3930 4410 
C 3904 4410 3898 4403 3853 4327 
L 3571 3792 
C 3258 4187 2874 4416 2381 4416 
C 1286 4416 294 3456 294 2148 
C 294 826 1286 -128 2387 -128 
C 3366 -128 3974 730 3974 1461 
C 3974 1524 3974 1550 3917 1550 
C 3866 1550 3866 1531 3859 1474 
C 3808 585 3168 38 2477 38 
C 1824 38 781 495 781 2147 
C 781 3805 1843 4250 2464 4250 
C 3187 4250 3712 3628 3834 2745 
C 3846 2668 3846 2655 3904 2655 
C 3974 2655 3974 2668 3974 2783 
L 3974 4289 
z
" transform="scale(0.015625)"/>
        <path id="CMR17-70" d="M 1408 -1063 
C 998 -1063 973 -1037 973 -789 
L 973 402 
C 1158 134 1427 -38 1766 -38 
C 2406 -38 3053 523 3053 1388 
C 3053 2191 2496 2802 1837 2802 
C 1453 2802 1139 2592 960 2338 
L 960 2802 
L 198 2732 
L 198 2567 
C 576 2567 634 2528 634 2223 
L 634 -789 
C 634 -1031 608 -1063 198 -1063 
L 198 -1228 
C 352 -1216 634 -1216 800 -1216 
C 966 -1216 1254 -1216 1408 -1228 
L 1408 -1063 
z
M 973 2012 
C 973 2102 973 2235 1222 2471 
C 1254 2497 1472 2688 1792 2688 
C 2259 2688 2643 2108 2643 1382 
C 2643 656 2234 64 1728 64 
C 1498 64 1248 172 1056 472 
C 973 612 973 650 973 752 
L 973 2012 
z
" transform="scale(0.015625)"/>
        <path id="CMR17-6e" d="M 2656 1933 
C 2656 2259 2592 2790 1837 2790 
C 1331 2790 1069 2400 973 2144 
L 966 2144 
L 966 2790 
L 211 2720 
L 211 2554 
C 589 2554 646 2515 646 2208 
L 646 428 
C 646 184 621 153 211 153 
L 211 -13 
C 365 0 646 0 813 0 
C 979 0 1267 0 1421 -13 
L 1421 153 
C 1011 153 986 178 986 428 
L 986 1658 
C 986 2247 1344 2688 1792 2688 
C 2266 2688 2317 2266 2317 1958 
L 2317 428 
C 2317 184 2291 153 1882 153 
L 1882 -13 
C 2035 0 2317 0 2483 0 
C 2650 0 2938 0 3091 -13 
L 3091 153 
C 2682 153 2656 178 2656 428 
L 2656 1933 
z
" transform="scale(0.015625)"/>
        <path id="CMR17-27" d="M 1024 4025 
C 1037 3955 1043 3929 1043 3820 
C 1043 3415 883 3042 634 2778 
C 608 2752 595 2733 595 2707 
C 595 2681 621 2656 646 2656 
C 691 2656 1146 3105 1146 3811 
C 1146 3952 1133 4426 800 4426 
C 659 4426 538 4331 538 4165 
C 538 3999 659 3904 800 3904 
C 858 3904 966 3923 1024 4025 
z
" transform="scale(0.015625)"/>
        <path id="CMR17-73" d="M 1978 2697 
C 1978 2813 1971 2819 1933 2819 
C 1907 2819 1901 2813 1824 2717 
C 1805 2691 1747 2626 1728 2601 
C 1523 2819 1235 2819 1126 2819 
C 416 2819 160 2447 160 2076 
C 160 1498 813 1365 998 1325 
C 1402 1243 1542 1217 1677 1101 
C 1760 1025 1901 884 1901 654 
C 1901 384 1747 38 1158 38 
C 602 38 403 460 288 1021 
C 269 1110 269 1117 218 1117 
C 166 1117 160 1110 160 983 
L 160 63 
C 160 -51 166 -58 205 -58 
C 237 -58 243 -51 275 0 
C 314 57 410 211 448 276 
C 576 103 800 -64 1158 -64 
C 1792 -64 2131 283 2131 784 
C 2131 1112 1958 1285 1875 1362 
C 1683 1561 1459 1606 1190 1657 
C 838 1735 390 1825 390 2217 
C 390 2383 480 2737 1126 2737 
C 1811 2737 1850 2094 1862 1888 
C 1869 1856 1901 1849 1920 1849 
C 1978 1849 1978 1869 1978 1978 
L 1978 2697 
z
" transform="scale(0.015625)"/>
        <path id="CMR17-52" d="M 2509 2146 
C 3117 2268 3629 2676 3629 3186 
C 3629 3785 2950 4326 2054 4326 
L 333 4326 
L 333 4160 
C 774 4160 845 4160 845 3873 
L 845 415 
C 845 128 774 128 333 128 
L 333 -26 
C 518 -26 851 -26 1050 -26 
C 1248 -26 1581 -26 1766 -26 
L 1766 128 
C 1325 128 1254 128 1254 417 
L 1254 2112 
L 2003 2112 
C 2368 2112 2573 1964 2662 1881 
C 2918 1632 2918 1459 2918 1024 
C 2918 595 2918 377 3110 160 
C 3354 -102 3680 -128 3821 -128 
C 4294 -128 4365 396 4365 503 
C 4365 540 4365 585 4307 585 
C 4256 585 4250 547 4250 522 
C 4218 112 4032 -26 3834 -26 
C 3482 -26 3443 375 3405 764 
C 3386 898 3373 993 3360 1133 
C 3322 1452 3270 1917 2509 2146 
z
M 1984 2214 
L 1254 2214 
L 1254 3913 
C 1254 4129 1267 4160 1523 4160 
L 1990 4160 
C 2522 4160 3142 3977 3142 3190 
C 3142 2372 2464 2214 1984 2214 
z
" transform="scale(0.015625)"/>
       </defs>
       <use xlink:href="#CMR17-43" transform="scale(0.996264)"/>
       <use xlink:href="#CMR17-6f" transform="translate(66.509881 0) scale(0.996264)"/>
       <use xlink:href="#CMR17-70" transform="translate(112.200358 0) scale(0.996264)"/>
       <use xlink:href="#CMR17-65" transform="translate(165.698166 0) scale(0.996264)"/>
       <use xlink:href="#CMR17-6c" transform="translate(206.183827 0) scale(0.996264)"/>
       <use xlink:href="#CMR17-61" transform="translate(231.054885 0) scale(0.996264)"/>
       <use xlink:href="#CMR17-6e" transform="translate(276.745362 0) scale(0.996264)"/>
       <use xlink:href="#CMR17-64" transform="translate(327.640732 0) scale(0.996264)"/>
       <use xlink:href="#CMR17-27" transform="translate(378.536102 0) scale(0.996264)"/>
       <use xlink:href="#CMR17-73" transform="translate(403.40716 0) scale(0.996264)"/>
       <use xlink:href="#CMR17-52" transform="translate(469.284464 0) scale(0.996264)"/>
       <use xlink:href="#CMR17-75" transform="translate(537.075566 0) scale(0.996264)"/>
       <use xlink:href="#CMR17-6c" transform="translate(587.970936 0) scale(0.996264)"/>
       <use xlink:href="#CMR17-65" transform="translate(612.841994 0) scale(0.996264)"/>
      </g>
     </g>
    </g>
    <g id="xtick_3">
     <g id="line2d_3">
      <g>
       <use xlink:href="#m93a7fa5535" x="461.967939" y="384.626418" style="stroke: #000000; stroke-width: 0.8"/>
      </g>
     </g>
     <g id="text_3">
      <!-- Plurality rule -->
      <g transform="translate(429.897856 399.236765) scale(0.11 -0.11)">
       <defs>
        <path id="CMR17-50" d="M 1267 2042 
L 2291 2042 
C 3117 2042 3718 2578 3718 3184 
C 3718 3791 3130 4352 2291 4352 
L 333 4352 
L 333 4186 
C 774 4186 845 4186 845 3899 
L 845 446 
C 845 160 774 160 333 160 
L 333 0 
C 518 0 858 0 1056 0 
C 1254 0 1594 0 1779 0 
L 1779 160 
C 1338 160 1267 160 1267 446 
L 1267 2042 
z
M 1254 2176 
L 1254 3938 
C 1254 4155 1267 4186 1523 4186 
L 2170 4186 
C 2995 4186 3232 3714 3232 3184 
C 3232 2604 2950 2176 2170 2176 
L 1254 2176 
z
" transform="scale(0.015625)"/>
        <path id="CMR17-69" d="M 992 3909 
C 992 4049 877 4170 730 4170 
C 589 4170 467 4056 467 3909 
C 467 3769 582 3648 730 3648 
C 870 3648 992 3763 992 3909 
z
M 243 2706 
L 243 2541 
C 602 2541 653 2502 653 2197 
L 653 427 
C 653 184 627 153 218 153 
L 218 -13 
C 371 0 646 0 806 0 
C 960 0 1222 0 1370 -13 
L 1370 153 
C 992 153 979 191 979 420 
L 979 2776 
L 243 2706 
z
" transform="scale(0.015625)"/>
        <path id="CMR17-74" d="M 966 2560 
L 1862 2560 
L 1862 2725 
L 966 2725 
L 966 3904 
L 851 3904 
C 838 3245 614 2668 70 2668 
L 70 2560 
L 627 2560 
L 627 771 
C 627 650 627 -64 1370 -64 
C 1747 -64 1965 306 1965 777 
L 1965 1140 
L 1850 1140 
L 1850 783 
C 1850 344 1677 51 1408 51 
C 1222 51 966 178 966 758 
L 966 2560 
z
" transform="scale(0.015625)"/>
        <path id="CMR17-79" d="M 2496 2197 
C 2656 2586 2944 2586 3034 2586 
L 3034 2752 
C 2912 2752 2752 2752 2630 2752 
C 2496 2752 2285 2752 2157 2758 
L 2157 2592 
C 2400 2573 2406 2394 2406 2343 
C 2406 2280 2394 2248 2362 2171 
L 1664 449 
L 902 2306 
C 870 2382 870 2426 870 2433 
C 870 2573 1018 2586 1171 2586 
L 1171 2758 
C 1018 2752 742 2752 582 2752 
C 410 2752 205 2752 64 2758 
L 64 2586 
C 410 2586 448 2554 531 2350 
L 1485 15 
C 1197 -738 1030 -1178 627 -1178 
C 557 -1178 397 -1159 282 -1044 
C 429 -1031 493 -942 493 -833 
C 493 -725 416 -629 288 -629 
C 147 -629 77 -725 77 -840 
C 77 -1095 339 -1280 627 -1280 
C 998 -1280 1229 -922 1357 -604 
L 2496 2197 
z
" transform="scale(0.015625)"/>
       </defs>
       <use xlink:href="#CMR17-50" transform="scale(0.996264)"/>
       <use xlink:href="#CMR17-6c" transform="translate(62.586301 0) scale(0.996264)"/>
       <use xlink:href="#CMR17-75" transform="translate(87.457359 0) scale(0.996264)"/>
       <use xlink:href="#CMR17-72" transform="translate(138.352729 0) scale(0.996264)"/>
       <use xlink:href="#CMR17-61" transform="translate(173.633497 0) scale(0.996264)"/>
       <use xlink:href="#CMR17-6c" transform="translate(219.323974 0) scale(0.996264)"/>
       <use xlink:href="#CMR17-69" transform="translate(244.195032 0) scale(0.996264)"/>
       <use xlink:href="#CMR17-74" transform="translate(269.066091 0) scale(0.996264)"/>
       <use xlink:href="#CMR17-79" transform="translate(301.744405 0) scale(0.996264)"/>
       <use xlink:href="#CMR17-72" transform="translate(380.113287 0) scale(0.996264)"/>
       <use xlink:href="#CMR17-75" transform="translate(415.394055 0) scale(0.996264)"/>
       <use xlink:href="#CMR17-6c" transform="translate(466.289424 0) scale(0.996264)"/>
       <use xlink:href="#CMR17-65" transform="translate(491.160483 0) scale(0.996264)"/>
      </g>
     </g>
    </g>
    <g id="xtick_4">
     <g id="line2d_4">
      <g>
       <use xlink:href="#m93a7fa5535" x="632.432543" y="384.626418" style="stroke: #000000; stroke-width: 0.8"/>
      </g>
     </g>
     <g id="text_4">
      <!-- Black's Rule -->
      <g transform="translate(602.569478 399.236765) scale(0.11 -0.11)">
       <defs>
        <path id="CMR17-63" d="M 2234 2240 
C 2112 2240 1933 2240 1933 2017 
C 1933 1838 2080 1787 2163 1787 
C 2208 1787 2394 1807 2394 2024 
C 2394 2467 1958 2803 1466 2803 
C 787 2803 211 2178 211 1363 
C 211 516 813 -64 1466 -64 
C 2259 -64 2458 677 2458 748 
C 2458 774 2451 793 2406 793 
C 2362 793 2355 787 2330 703 
C 2163 180 1798 51 1523 51 
C 1114 51 621 427 621 1369 
C 621 2338 1094 2688 1472 2688 
C 1722 2688 2093 2573 2234 2240 
z
" transform="scale(0.015625)"/>
        <path id="CMR17-6b" d="M 1670 1673 
C 1664 1686 1632 1724 1632 1743 
C 1632 1756 2086 2171 2144 2222 
C 2509 2528 2739 2560 2906 2560 
L 2906 2733 
C 2867 2733 2854 2733 2848 2720 
L 2534 2720 
C 2355 2720 2080 2720 1907 2733 
L 1907 2566 
C 1997 2559 2061 2508 2061 2419 
C 2061 2291 1933 2170 1926 2170 
L 960 1289 
L 960 4396 
L 198 4326 
L 198 4160 
C 576 4160 634 4122 634 3817 
L 634 426 
C 634 184 608 153 198 153 
L 198 -13 
C 352 0 634 0 794 0 
C 954 0 1235 0 1389 -13 
L 1389 153 
C 979 153 954 178 954 428 
L 954 1130 
L 1395 1532 
L 2042 574 
C 2118 459 2182 369 2182 286 
C 2182 172 2067 153 1990 153 
L 1990 -13 
C 2144 0 2419 0 2579 0 
C 2694 0 2931 0 3040 0 
L 3040 153 
C 2739 153 2669 210 2477 491 
L 1670 1673 
z
" transform="scale(0.015625)"/>
       </defs>
       <use xlink:href="#CMR17-42" transform="scale(0.996264)"/>
       <use xlink:href="#CMR17-6c" transform="translate(65.188754 0) scale(0.996264)"/>
       <use xlink:href="#CMR17-61" transform="translate(90.059813 0) scale(0.996264)"/>
       <use xlink:href="#CMR17-63" transform="translate(135.75029 0) scale(0.996264)"/>
       <use xlink:href="#CMR17-6b" transform="translate(173.633497 0) scale(0.996264)"/>
       <use xlink:href="#CMR17-27" transform="translate(221.926412 0) scale(0.996264)"/>
       <use xlink:href="#CMR17-73" transform="translate(246.797471 0) scale(0.996264)"/>
       <use xlink:href="#CMR17-52" transform="translate(312.674775 0) scale(0.996264)"/>
       <use xlink:href="#CMR17-75" transform="translate(380.465877 0) scale(0.996264)"/>
       <use xlink:href="#CMR17-6c" transform="translate(431.361247 0) scale(0.996264)"/>
       <use xlink:href="#CMR17-65" transform="translate(456.232305 0) scale(0.996264)"/>
      </g>
     </g>
    </g>
    <g id="text_5">
     <!-- Number of voters -->
     <g transform="translate(328.442607 414.361688) scale(0.13 -0.13)">
      <defs>
       <path id="CMR17-4e" d="M 1312 4250 
C 1267 4320 1261 4320 1139 4320 
L 326 4320 
L 326 4160 
L 448 4160 
C 704 4160 819 4129 838 4122 
L 838 610 
C 838 451 838 153 326 153 
L 326 -13 
C 474 0 742 0 902 0 
C 1062 0 1331 0 1478 -13 
L 1478 153 
C 966 153 966 451 966 610 
L 966 4033 
C 1011 3995 1011 3982 1056 3919 
L 3430 76 
C 3475 0 3494 0 3526 0 
C 3590 0 3590 19 3590 139 
L 3590 3705 
C 3590 3863 3590 4160 4102 4160 
L 4102 4326 
C 3955 4320 3686 4320 3526 4320 
C 3366 4320 3098 4320 2950 4326 
L 2950 4160 
C 3462 4160 3462 3862 3462 3703 
L 3462 763 
L 1312 4250 
z
" transform="scale(0.015625)"/>
       <path id="CMR17-6d" d="M 4326 1933 
C 4326 2252 4269 2790 3507 2790 
C 3072 2790 2771 2496 2656 2151 
L 2650 2151 
C 2573 2676 2195 2790 1837 2790 
C 1331 2790 1069 2400 973 2144 
L 966 2144 
L 966 2790 
L 211 2720 
L 211 2554 
C 589 2554 646 2515 646 2208 
L 646 428 
C 646 184 621 153 211 153 
L 211 -13 
C 365 0 646 0 813 0 
C 979 0 1267 0 1421 -13 
L 1421 153 
C 1011 153 986 178 986 428 
L 986 1658 
C 986 2247 1344 2688 1792 2688 
C 2266 2688 2317 2266 2317 1958 
L 2317 428 
C 2317 184 2291 153 1882 153 
L 1882 -13 
C 2035 0 2317 0 2483 0 
C 2650 0 2938 0 3091 -13 
L 3091 153 
C 2682 153 2656 178 2656 428 
L 2656 1658 
C 2656 2247 3014 2688 3462 2688 
C 3936 2688 3987 2266 3987 1958 
L 3987 428 
C 3987 184 3962 153 3552 153 
L 3552 -13 
C 3706 0 3987 0 4154 0 
C 4320 0 4608 0 4762 -13 
L 4762 153 
C 4352 153 4326 178 4326 428 
L 4326 1933 
z
" transform="scale(0.015625)"/>
       <path id="CMR17-62" d="M 960 4396 
L 198 4326 
L 198 4160 
C 576 4160 634 4122 634 3817 
L 634 -13 
L 749 -13 
L 934 441 
C 1120 141 1395 -64 1766 -64 
C 2406 -64 3053 500 3053 1370 
C 3053 2188 2477 2790 1830 2790 
C 1434 2790 1152 2579 960 2330 
L 960 4396 
z
M 973 2004 
C 973 2118 973 2138 1062 2272 
C 1312 2657 1670 2688 1792 2688 
C 1984 2688 2643 2585 2643 1376 
C 2643 108 1888 38 1734 38 
C 1536 38 1248 114 1043 486 
C 973 608 973 621 973 735 
L 973 2004 
z
" transform="scale(0.015625)"/>
       <path id="CMR17-66" d="M 979 2560 
L 1709 2560 
L 1709 2725 
L 966 2725 
L 966 3494 
C 966 4022 1235 4352 1510 4352 
C 1594 4352 1690 4327 1754 4282 
C 1702 4269 1568 4225 1568 4067 
C 1568 3901 1696 3850 1786 3850 
C 1875 3850 2003 3901 2003 4067 
C 2003 4308 1773 4454 1517 4454 
C 1152 4454 653 4156 653 3481 
L 653 2725 
L 141 2725 
L 141 2560 
L 653 2560 
L 653 427 
C 653 184 627 153 218 153 
L 218 -13 
C 371 0 666 0 832 0 
C 1018 0 1344 0 1517 -13 
L 1517 153 
C 1056 153 979 153 979 439 
L 979 2560 
z
" transform="scale(0.015625)"/>
       <path id="CMR17-76" d="M 2502 2163 
C 2560 2304 2662 2560 3034 2560 
L 3034 2726 
C 2912 2726 2752 2726 2630 2726 
C 2496 2726 2285 2726 2157 2732 
L 2157 2566 
C 2317 2553 2406 2477 2406 2311 
C 2406 2253 2406 2240 2368 2151 
L 1664 377 
L 902 2286 
C 864 2369 864 2381 864 2407 
C 864 2560 1075 2560 1171 2560 
L 1171 2732 
C 1018 2726 736 2726 576 2726 
C 403 2726 205 2726 64 2732 
L 64 2560 
C 307 2560 442 2560 518 2362 
L 1446 44 
C 1485 -51 1491 -64 1549 -64 
C 1606 -64 1613 -51 1651 44 
L 2502 2163 
z
" transform="scale(0.015625)"/>
      </defs>
      <use xlink:href="#CMR17-4e" transform="scale(0.996264)"/>
      <use xlink:href="#CMR17-75" transform="translate(69.07243 0) scale(0.996264)"/>
      <use xlink:href="#CMR17-6d" transform="translate(119.9678 0) scale(0.996264)"/>
      <use xlink:href="#CMR17-62" transform="translate(194.284936 0) scale(0.996264)"/>
      <use xlink:href="#CMR17-65" transform="translate(247.782744 0) scale(0.996264)"/>
      <use xlink:href="#CMR17-72" transform="translate(288.268404 0) scale(0.996264)"/>
      <use xlink:href="#CMR17-6f" transform="translate(353.625139 0) scale(0.996264)"/>
      <use xlink:href="#CMR17-66" transform="translate(399.315616 0) scale(0.996264)"/>
      <use xlink:href="#CMR17-76" transform="translate(456.865095 0) scale(0.996264)"/>
      <use xlink:href="#CMR17-6f" transform="translate(502.555556 0) scale(0.996264)"/>
      <use xlink:href="#CMR17-74" transform="translate(548.246034 0) scale(0.996264)"/>
      <use xlink:href="#CMR17-65" transform="translate(583.526801 0) scale(0.996264)"/>
      <use xlink:href="#CMR17-72" transform="translate(624.012462 0) scale(0.996264)"/>
      <use xlink:href="#CMR17-73" transform="translate(659.29323 0) scale(0.996264)"/>
     </g>
    </g>
   </g>
   <g id="matplotlib.axis_2">
    <g id="ytick_1">
     <g id="line2d_5">
      <path d="M 48.591275 380.448663 
L 704.88 380.448663 
" clip-path="url(#p45bebca981)" style="fill: none; stroke: #b0b0b0; stroke-opacity: 0.3; stroke-linecap: square"/>
     </g>
     <g id="line2d_6">
      <defs>
       <path id="mb3f59556a2" d="M 0 0 
L -3.5 0 
" style="stroke: #000000; stroke-width: 0.8"/>
      </defs>
      <g>
       <use xlink:href="#mb3f59556a2" x="48.591275" y="380.448663" style="stroke: #000000; stroke-width: 0.8"/>
      </g>
     </g>
     <g id="text_6">
      <!-- $\mathdefault{0}$ -->
      <g transform="translate(36.111807 384.253836) scale(0.11 -0.11)">
       <defs>
        <path id="CMR17-30" d="M 2688 2025 
C 2688 2416 2682 3080 2413 3591 
C 2176 4039 1798 4198 1466 4198 
C 1158 4198 768 4058 525 3597 
C 269 3118 243 2524 243 2025 
C 243 1661 250 1106 448 619 
C 723 -39 1216 -128 1466 -128 
C 1760 -128 2208 -7 2470 600 
C 2662 1042 2688 1559 2688 2025 
z
M 1466 -26 
C 1056 -26 813 325 723 812 
C 653 1188 653 1738 653 2096 
C 653 2588 653 2997 736 3387 
C 858 3929 1216 4096 1466 4096 
C 1728 4096 2067 3923 2189 3400 
C 2272 3036 2278 2607 2278 2096 
C 2278 1680 2278 1169 2202 792 
C 2067 95 1690 -26 1466 -26 
z
" transform="scale(0.015625)"/>
       </defs>
       <use xlink:href="#CMR17-30" transform="scale(0.996264)"/>
      </g>
     </g>
    </g>
    <g id="ytick_2">
     <g id="line2d_7">
      <path d="M 48.591275 320.766442 
L 704.88 320.766442 
" clip-path="url(#p45bebca981)" style="fill: none; stroke: #b0b0b0; stroke-opacity: 0.3; stroke-linecap: square"/>
     </g>
     <g id="line2d_8">
      <g>
       <use xlink:href="#mb3f59556a2" x="48.591275" y="320.766442" style="stroke: #000000; stroke-width: 0.8"/>
      </g>
     </g>
     <g id="text_7">
      <!-- $\mathdefault{5}$ -->
      <g transform="translate(36.111807 324.571616) scale(0.11 -0.11)">
       <defs>
        <path id="CMR17-35" d="M 730 3692 
C 794 3666 1056 3584 1325 3584 
C 1920 3584 2246 3911 2432 4100 
C 2432 4157 2432 4192 2394 4192 
C 2387 4192 2374 4192 2323 4163 
C 2099 4058 1837 3973 1517 3973 
C 1325 3973 1037 3999 723 4139 
C 653 4171 640 4171 634 4171 
C 602 4171 595 4164 595 4037 
L 595 2203 
C 595 2089 595 2057 659 2057 
C 691 2057 704 2070 736 2114 
C 941 2401 1222 2522 1542 2522 
C 1766 2522 2246 2382 2246 1289 
C 2246 1085 2246 715 2054 421 
C 1894 159 1645 25 1370 25 
C 947 25 518 320 403 814 
C 429 807 480 795 506 795 
C 589 795 749 840 749 1038 
C 749 1210 627 1280 506 1280 
C 358 1280 262 1190 262 1011 
C 262 454 704 -128 1382 -128 
C 2042 -128 2669 440 2669 1264 
C 2669 2030 2170 2624 1549 2624 
C 1222 2624 947 2503 730 2274 
L 730 3692 
z
" transform="scale(0.015625)"/>
       </defs>
       <use xlink:href="#CMR17-35" transform="scale(0.996264)"/>
      </g>
     </g>
    </g>
    <g id="ytick_3">
     <g id="line2d_9">
      <path d="M 48.591275 261.084222 
L 704.88 261.084222 
" clip-path="url(#p45bebca981)" style="fill: none; stroke: #b0b0b0; stroke-opacity: 0.3; stroke-linecap: square"/>
     </g>
     <g id="line2d_10">
      <g>
       <use xlink:href="#mb3f59556a2" x="48.591275" y="261.084222" style="stroke: #000000; stroke-width: 0.8"/>
      </g>
     </g>
     <g id="text_8">
      <!-- $\mathdefault{10}$ -->
      <g transform="translate(30.63234 264.889395) scale(0.11 -0.11)">
       <defs>
        <path id="CMR17-31" d="M 1702 4058 
C 1702 4192 1696 4192 1606 4192 
C 1357 3916 979 3827 621 3827 
C 602 3827 570 3827 563 3808 
C 557 3795 557 3782 557 3648 
C 755 3648 1088 3686 1344 3839 
L 1344 461 
C 1344 236 1331 160 781 160 
L 589 160 
L 589 0 
C 896 0 1216 0 1523 0 
C 1830 0 2150 0 2458 0 
L 2458 160 
L 2266 160 
C 1715 160 1702 230 1702 458 
L 1702 4058 
z
" transform="scale(0.015625)"/>
       </defs>
       <use xlink:href="#CMR17-31" transform="scale(0.996264)"/>
       <use xlink:href="#CMR17-30" transform="translate(45.690477 0) scale(0.996264)"/>
      </g>
     </g>
    </g>
    <g id="ytick_4">
     <g id="line2d_11">
      <path d="M 48.591275 201.402001 
L 704.88 201.402001 
" clip-path="url(#p45bebca981)" style="fill: none; stroke: #b0b0b0; stroke-opacity: 0.3; stroke-linecap: square"/>
     </g>
     <g id="line2d_12">
      <g>
       <use xlink:href="#mb3f59556a2" x="48.591275" y="201.402001" style="stroke: #000000; stroke-width: 0.8"/>
      </g>
     </g>
     <g id="text_9">
      <!-- $\mathdefault{15}$ -->
      <g transform="translate(30.63234 205.207175) scale(0.11 -0.11)">
       <use xlink:href="#CMR17-31" transform="scale(0.996264)"/>
       <use xlink:href="#CMR17-35" transform="translate(45.690477 0) scale(0.996264)"/>
      </g>
     </g>
    </g>
    <g id="ytick_5">
     <g id="line2d_13">
      <path d="M 48.591275 141.719781 
L 704.88 141.719781 
" clip-path="url(#p45bebca981)" style="fill: none; stroke: #b0b0b0; stroke-opacity: 0.3; stroke-linecap: square"/>
     </g>
     <g id="line2d_14">
      <g>
       <use xlink:href="#mb3f59556a2" x="48.591275" y="141.719781" style="stroke: #000000; stroke-width: 0.8"/>
      </g>
     </g>
     <g id="text_10">
      <!-- $\mathdefault{20}$ -->
      <g transform="translate(30.63234 145.524954) scale(0.11 -0.11)">
       <defs>
        <path id="CMR17-32" d="M 2669 989 
L 2554 989 
C 2490 536 2438 459 2413 420 
C 2381 369 1920 369 1830 369 
L 602 369 
C 832 619 1280 1072 1824 1597 
C 2214 1967 2669 2402 2669 3035 
C 2669 3790 2067 4224 1395 4224 
C 691 4224 262 3604 262 3030 
C 262 2780 448 2748 525 2748 
C 589 2748 781 2787 781 3010 
C 781 3207 614 3264 525 3264 
C 486 3264 448 3258 422 3245 
C 544 3790 915 4058 1306 4058 
C 1862 4058 2227 3617 2227 3035 
C 2227 2479 1901 2000 1536 1584 
L 262 146 
L 262 0 
L 2515 0 
L 2669 989 
z
" transform="scale(0.015625)"/>
       </defs>
       <use xlink:href="#CMR17-32" transform="scale(0.996264)"/>
       <use xlink:href="#CMR17-30" transform="translate(45.690477 0) scale(0.996264)"/>
      </g>
     </g>
    </g>
    <g id="ytick_6">
     <g id="line2d_15">
      <path d="M 48.591275 82.03756 
L 704.88 82.03756 
" clip-path="url(#p45bebca981)" style="fill: none; stroke: #b0b0b0; stroke-opacity: 0.3; stroke-linecap: square"/>
     </g>
     <g id="line2d_16">
      <g>
       <use xlink:href="#mb3f59556a2" x="48.591275" y="82.03756" style="stroke: #000000; stroke-width: 0.8"/>
      </g>
     </g>
     <g id="text_11">
      <!-- $\mathdefault{25}$ -->
      <g transform="translate(30.63234 85.842733) scale(0.11 -0.11)">
       <use xlink:href="#CMR17-32" transform="scale(0.996264)"/>
       <use xlink:href="#CMR17-35" transform="translate(45.690477 0) scale(0.996264)"/>
      </g>
     </g>
    </g>
    <g id="text_12">
     <!-- Distortion -->
     <g transform="translate(24.114028 235.497321) rotate(-90) scale(0.13 -0.13)">
      <defs>
       <path id="CMR17-44" d="M 333 4352 
L 333 4186 
C 774 4186 845 4186 845 3900 
L 845 452 
C 845 166 774 166 333 166 
L 333 0 
L 2368 0 
C 3398 0 4224 943 4224 2141 
C 4224 3346 3411 4352 2368 4352 
L 333 4352 
z
M 1523 166 
C 1267 166 1254 197 1254 414 
L 1254 3938 
C 1254 4155 1267 4186 1523 4186 
L 2240 4186 
C 2771 4186 3750 3874 3750 2141 
C 3750 1242 3488 879 3366 707 
C 3213 510 2848 166 2240 166 
L 1523 166 
z
" transform="scale(0.015625)"/>
      </defs>
      <use xlink:href="#CMR17-44" transform="scale(0.996264)"/>
      <use xlink:href="#CMR17-69" transform="translate(70.393556 0) scale(0.996264)"/>
      <use xlink:href="#CMR17-73" transform="translate(95.264614 0) scale(0.996264)"/>
      <use xlink:href="#CMR17-74" transform="translate(131.065952 0) scale(0.996264)"/>
      <use xlink:href="#CMR17-6f" transform="translate(166.34672 0) scale(0.996264)"/>
      <use xlink:href="#CMR17-72" transform="translate(212.037197 0) scale(0.996264)"/>
      <use xlink:href="#CMR17-74" transform="translate(247.317965 0) scale(0.996264)"/>
      <use xlink:href="#CMR17-69" transform="translate(282.598733 0) scale(0.996264)"/>
      <use xlink:href="#CMR17-6f" transform="translate(307.469791 0) scale(0.996264)"/>
      <use xlink:href="#CMR17-6e" transform="translate(353.160268 0) scale(0.996264)"/>
     </g>
    </g>
   </g>
   <g id="LineCollection_1">
    <path d="M 99.730656 364.553298 
L 142.346807 364.553298 
" clip-path="url(#p45bebca981)" style="fill: none; stroke: #1f77b4; stroke-width: 1.5"/>
    <path d="M 270.19526 355.614228 
L 312.811411 355.614228 
" clip-path="url(#p45bebca981)" style="fill: none; stroke: #1f77b4; stroke-width: 1.5"/>
    <path d="M 440.659864 327.822121 
L 483.276015 327.822121 
" clip-path="url(#p45bebca981)" style="fill: none; stroke: #1f77b4; stroke-width: 1.5"/>
    <path d="M 611.124468 368.128298 
L 653.740619 368.128298 
" clip-path="url(#p45bebca981)" style="fill: none; stroke: #1f77b4; stroke-width: 1.5"/>
   </g>
   <g id="LineCollection_2">
    <path d="M 99.730656 351.801197 
L 142.346807 351.801197 
" clip-path="url(#p45bebca981)" style="fill: none; stroke: #1f77b4; stroke-width: 1.5"/>
    <path d="M 270.19526 300.872369 
L 312.811411 300.872369 
" clip-path="url(#p45bebca981)" style="fill: none; stroke: #1f77b4; stroke-width: 1.5"/>
    <path d="M 440.659864 46.228228 
L 483.276015 46.228228 
" clip-path="url(#p45bebca981)" style="fill: none; stroke: #1f77b4; stroke-width: 1.5"/>
    <path d="M 611.124468 365.999283 
L 653.740619 365.999283 
" clip-path="url(#p45bebca981)" style="fill: none; stroke: #1f77b4; stroke-width: 1.5"/>
   </g>
   <g id="LineCollection_3">
    <path d="M 99.730656 368.512219 
L 142.346807 368.512219 
" clip-path="url(#p45bebca981)" style="fill: none; stroke: #1f77b4; stroke-width: 1.5"/>
    <path d="M 270.19526 368.512219 
L 312.811411 368.512219 
" clip-path="url(#p45bebca981)" style="fill: none; stroke: #1f77b4; stroke-width: 1.5"/>
    <path d="M 440.659864 368.512219 
L 483.276015 368.512219 
" clip-path="url(#p45bebca981)" style="fill: none; stroke: #1f77b4; stroke-width: 1.5"/>
    <path d="M 611.124468 368.512219 
L 653.740619 368.512219 
" clip-path="url(#p45bebca981)" style="fill: none; stroke: #1f77b4; stroke-width: 1.5"/>
   </g>
   <g id="LineCollection_4">
    <path d="M 121.038731 368.512219 
L 121.038731 351.801197 
" clip-path="url(#p45bebca981)" style="fill: none; stroke: #1f77b4; stroke-width: 1.5"/>
    <path d="M 291.503335 368.512219 
L 291.503335 300.872369 
" clip-path="url(#p45bebca981)" style="fill: none; stroke: #1f77b4; stroke-width: 1.5"/>
    <path d="M 461.967939 368.512219 
L 461.967939 46.228228 
" clip-path="url(#p45bebca981)" style="fill: none; stroke: #1f77b4; stroke-width: 1.5"/>
    <path d="M 632.432543 368.512219 
L 632.432543 365.999283 
" clip-path="url(#p45bebca981)" style="fill: none; stroke: #1f77b4; stroke-width: 1.5"/>
   </g>
   <g id="patch_3">
    <path d="M 48.591275 384.626418 
L 48.591275 30.114028 
" style="fill: none; stroke: #000000; stroke-linejoin: miter; stroke-linecap: square"/>
   </g>
   <g id="patch_4">
    <path d="M 704.88 384.626418 
L 704.88 30.114028 
" style="fill: none; stroke: #000000; stroke-linejoin: miter; stroke-linecap: square"/>
   </g>
   <g id="patch_5">
    <path d="M 48.591275 384.626418 
L 704.88 384.626418 
" style="fill: none; stroke: #000000; stroke-linejoin: miter; stroke-linecap: square"/>
   </g>
   <g id="patch_6">
    <path d="M 48.591275 30.114028 
L 704.88 30.114028 
" style="fill: none; stroke: #000000; stroke-linejoin: miter; stroke-linecap: square"/>
   </g>
   <g id="text_13">
    <!-- Distortion Under Rawlsian -->
    <g transform="translate(302.342128 24.114028) scale(0.13 -0.13)">
     <defs>
      <path id="CMR17-55" d="M 3456 1433 
C 3456 579 2899 38 2291 38 
C 1965 38 1670 210 1491 477 
C 1286 783 1261 1178 1261 1401 
L 1261 3874 
C 1261 4160 1331 4160 1773 4160 
L 1773 4320 
C 1587 4320 1248 4320 1050 4320 
C 851 4320 512 4320 326 4320 
L 326 4160 
C 768 4160 838 4160 838 3874 
L 838 1433 
C 838 516 1536 -128 2278 -128 
C 3110 -128 3590 719 3590 1344 
L 3590 3766 
C 3590 4122 3917 4160 4102 4160 
L 4102 4326 
C 3955 4320 3686 4320 3526 4320 
C 3366 4320 3091 4320 2944 4326 
L 2944 4160 
C 3456 4160 3456 3861 3456 3702 
L 3456 1433 
z
" transform="scale(0.015625)"/>
      <path id="CMR17-77" d="M 3725 2183 
C 3853 2560 4109 2560 4205 2560 
L 4205 2732 
C 4077 2732 3949 2732 3821 2732 
C 3699 2732 3424 2732 3315 2738 
L 3315 2560 
C 3514 2560 3622 2445 3622 2286 
C 3622 2241 3610 2184 3597 2140 
L 2995 407 
L 2342 2275 
C 2330 2319 2310 2370 2310 2395 
C 2310 2560 2528 2560 2630 2560 
L 2630 2738 
C 2483 2732 2214 2732 2061 2732 
C 1901 2732 1734 2732 1587 2738 
L 1587 2560 
C 1939 2560 1939 2547 2074 2149 
L 1485 451 
L 851 2281 
C 819 2363 819 2376 819 2395 
C 819 2560 1037 2560 1139 2560 
L 1139 2738 
C 986 2732 717 2732 557 2732 
C 416 2732 198 2732 64 2738 
L 64 2560 
C 346 2560 416 2541 486 2331 
L 1274 49 
C 1299 -33 1318 -52 1370 -52 
C 1414 -52 1440 -39 1472 56 
L 2131 1980 
L 2797 56 
C 2829 -39 2854 -52 2899 -52 
C 2950 -52 2970 -33 2995 50 
L 3725 2183 
z
" transform="scale(0.015625)"/>
     </defs>
     <use xlink:href="#CMR17-44" transform="scale(0.996264)"/>
     <use xlink:href="#CMR17-69" transform="translate(70.393556 0) scale(0.996264)"/>
     <use xlink:href="#CMR17-73" transform="translate(95.264614 0) scale(0.996264)"/>
     <use xlink:href="#CMR17-74" transform="translate(131.065952 0) scale(0.996264)"/>
     <use xlink:href="#CMR17-6f" transform="translate(166.34672 0) scale(0.996264)"/>
     <use xlink:href="#CMR17-72" transform="translate(212.037197 0) scale(0.996264)"/>
     <use xlink:href="#CMR17-74" transform="translate(247.317965 0) scale(0.996264)"/>
     <use xlink:href="#CMR17-69" transform="translate(282.598733 0) scale(0.996264)"/>
     <use xlink:href="#CMR17-6f" transform="translate(307.469791 0) scale(0.996264)"/>
     <use xlink:href="#CMR17-6e" transform="translate(353.160268 0) scale(0.996264)"/>
     <use xlink:href="#CMR17-55" transform="translate(434.131604 0) scale(0.996264)"/>
     <use xlink:href="#CMR17-6e" transform="translate(503.204034 0) scale(0.996264)"/>
     <use xlink:href="#CMR17-64" transform="translate(554.099404 0) scale(0.996264)"/>
     <use xlink:href="#CMR17-65" transform="translate(604.994774 0) scale(0.996264)"/>
     <use xlink:href="#CMR17-72" transform="translate(645.480434 0) scale(0.996264)"/>
     <use xlink:href="#CMR17-52" transform="translate(710.837168 0) scale(0.996264)"/>
     <use xlink:href="#CMR17-61" transform="translate(778.62827 0) scale(0.996264)"/>
     <use xlink:href="#CMR17-77" transform="translate(821.716293 0) scale(0.996264)"/>
     <use xlink:href="#CMR17-6c" transform="translate(888.226174 0) scale(0.996264)"/>
     <use xlink:href="#CMR17-73" transform="translate(913.097232 0) scale(0.996264)"/>
     <use xlink:href="#CMR17-69" transform="translate(948.89857 0) scale(0.996264)"/>
     <use xlink:href="#CMR17-61" transform="translate(973.769629 0) scale(0.996264)"/>
     <use xlink:href="#CMR17-6e" transform="translate(1019.460106 0) scale(0.996264)"/>
    </g>
   </g>
  </g>
 </g>
 <defs>
  <clipPath id="p45bebca981">
   <rect x="48.591275" y="30.114028" width="656.288725" height="354.51239"/>
  </clipPath>
 </defs>
</svg>
