<?xml version="1.0" encoding="utf-8" standalone="no"?>
<!DOCTYPE svg PUBLIC "-//W3C//DTD SVG 1.1//EN"
  "http://www.w3.org/Graphics/SVG/1.1/DTD/svg11.dtd">
<svg xmlns:xlink="http://www.w3.org/1999/xlink" width="720pt" height="432pt" viewBox="0 0 720 432" xmlns="http://www.w3.org/2000/svg" version="1.1">
 <metadata>
  <rdf:RDF xmlns:dc="http://purl.org/dc/elements/1.1/" xmlns:cc="http://creativecommons.org/ns#" xmlns:rdf="http://www.w3.org/1999/02/22-rdf-syntax-ns#">
   <cc:Work>
    <dc:type rdf:resource="http://purl.org/dc/dcmitype/StillImage"/>
    <dc:date>2024-12-09T17:37:57.019657</dc:date>
    <dc:format>image/svg+xml</dc:format>
    <dc:creator>
     <cc:Agent>
      <dc:title>Matplotlib v3.9.2, https://matplotlib.org/</dc:title>
     </cc:Agent>
    </dc:creator>
   </cc:Work>
  </rdf:RDF>
 </metadata>
 <defs>
  <style type="text/css">*{stroke-linejoin: round; stroke-linecap: butt}</style>
 </defs>
 <g id="figure_1">
  <g id="patch_1">
   <path d="M 0 432 
L 720 432 
L 720 0 
L 0 0 
z
" style="fill: #ffffff"/>
  </g>
  <g id="axes_1">
   <g id="patch_2">
    <path d="M 51.635416 384.626418 
L 704.88 384.626418 
L 704.88 30.114028 
L 51.635416 30.114028 
z
" style="fill: #ffffff"/>
   </g>
   <g id="PolyCollection_1">
    <defs>
     <path id="mbf3283b863" d="M 146.170398 -63.487781 
L 82.470607 -63.487781 
L 81.802155 -65.182926 
L 81.422073 -66.878071 
L 81.328352 -68.573216 
L 81.509749 -70.268361 
L 81.946731 -71.963506 
L 82.612842 -73.658651 
L 83.476382 -75.353795 
L 84.502243 -77.04894 
L 85.653783 -78.744085 
L 86.894593 -80.43923 
L 88.190044 -82.134375 
L 89.508551 -83.82952 
L 90.822475 -85.524665 
L 92.108678 -87.21981 
L 93.34872 -88.914955 
L 94.528757 -90.6101 
L 95.639187 -92.305244 
L 96.674119 -94.000389 
L 97.630736 -95.695534 
L 98.508618 -97.390679 
L 99.309085 -99.085824 
L 100.034614 -100.780969 
L 100.688353 -102.476114 
L 101.273756 -104.171259 
L 101.794348 -105.866404 
L 102.253609 -107.561549 
L 102.654955 -109.256693 
L 103.001801 -110.951838 
L 103.297685 -112.646983 
L 103.546397 -114.342128 
L 103.752114 -116.037273 
L 103.919504 -117.732418 
L 104.053772 -119.427563 
L 104.160652 -121.122708 
L 104.246329 -122.817853 
L 104.317292 -124.512998 
L 104.38014 -126.208142 
L 104.441346 -127.903287 
L 104.507006 -129.598432 
L 104.582593 -131.293577 
L 104.67274 -132.988722 
L 104.781076 -134.683867 
L 104.910117 -136.379012 
L 105.061242 -138.074157 
L 105.234735 -139.769302 
L 105.4299 -141.464447 
L 105.64524 -143.159591 
L 105.878663 -144.854736 
L 106.127725 -146.549881 
L 106.389857 -148.245026 
L 106.662578 -149.940171 
L 106.943665 -151.635316 
L 107.231268 -153.330461 
L 107.523969 -155.025606 
L 107.820773 -156.720751 
L 108.121052 -158.415896 
L 108.424434 -160.11104 
L 108.73067 -161.806185 
L 109.039478 -163.50133 
L 109.350401 -165.196475 
L 109.662674 -166.89162 
L 109.975135 -168.586765 
L 110.286162 -170.28191 
L 110.593675 -171.977055 
L 110.895175 -173.6722 
L 111.187823 -175.367345 
L 111.468567 -177.062489 
L 111.734278 -178.757634 
L 111.981915 -180.452779 
L 112.208679 -182.147924 
L 112.412168 -183.843069 
L 112.590501 -185.538214 
L 112.742425 -187.233359 
L 112.867384 -188.928504 
L 112.965551 -190.623649 
L 113.03783 -192.318794 
L 113.08581 -194.013939 
L 113.111707 -195.709083 
L 113.118255 -197.404228 
L 113.108597 -199.099373 
L 113.086147 -200.794518 
L 113.05445 -202.489663 
L 113.017045 -204.184808 
L 112.97733 -205.879953 
L 112.938441 -207.575098 
L 112.903162 -209.270243 
L 112.873842 -210.965388 
L 112.852352 -212.660532 
L 112.840064 -214.355677 
L 112.837857 -216.050822 
L 112.846146 -217.745967 
L 112.864929 -219.441112 
L 112.893847 -221.136257 
L 112.932251 -222.831402 
L 112.979272 -224.526547 
L 113.033884 -226.221692 
L 113.094965 -227.916837 
L 113.161345 -229.611981 
L 113.231843 -231.307126 
L 115.409163 -231.307126 
L 115.409163 -231.307126 
L 115.479661 -229.611981 
L 115.546041 -227.916837 
L 115.607122 -226.221692 
L 115.661734 -224.526547 
L 115.708754 -222.831402 
L 115.747158 -221.136257 
L 115.776076 -219.441112 
L 115.794859 -217.745967 
L 115.803148 -216.050822 
L 115.800941 -214.355677 
L 115.788653 -212.660532 
L 115.767163 -210.965388 
L 115.737843 -209.270243 
L 115.702564 -207.575098 
L 115.663676 -205.879953 
L 115.62396 -204.184808 
L 115.586555 -202.489663 
L 115.554859 -200.794518 
L 115.532408 -199.099373 
L 115.52275 -197.404228 
L 115.529299 -195.709083 
L 115.555195 -194.013939 
L 115.603176 -192.318794 
L 115.675454 -190.623649 
L 115.773622 -188.928504 
L 115.89858 -187.233359 
L 116.050505 -185.538214 
L 116.228838 -183.843069 
L 116.432326 -182.147924 
L 116.659091 -180.452779 
L 116.906728 -178.757634 
L 117.172439 -177.062489 
L 117.453182 -175.367345 
L 117.745831 -173.6722 
L 118.04733 -171.977055 
L 118.354844 -170.28191 
L 118.665871 -168.586765 
L 118.978331 -166.89162 
L 119.290605 -165.196475 
L 119.601528 -163.50133 
L 119.910336 -161.806185 
L 120.216571 -160.11104 
L 120.519953 -158.415896 
L 120.820232 -156.720751 
L 121.117037 -155.025606 
L 121.409737 -153.330461 
L 121.697341 -151.635316 
L 121.978427 -149.940171 
L 122.251149 -148.245026 
L 122.513281 -146.549881 
L 122.762342 -144.854736 
L 122.995766 -143.159591 
L 123.211105 -141.464447 
L 123.406271 -139.769302 
L 123.579763 -138.074157 
L 123.730888 -136.379012 
L 123.859929 -134.683867 
L 123.968265 -132.988722 
L 124.058413 -131.293577 
L 124.134 -129.598432 
L 124.19966 -127.903287 
L 124.260866 -126.208142 
L 124.323714 -124.512998 
L 124.394677 -122.817853 
L 124.480353 -121.122708 
L 124.587234 -119.427563 
L 124.721502 -117.732418 
L 124.888891 -116.037273 
L 125.094608 -114.342128 
L 125.34332 -112.646983 
L 125.639204 -110.951838 
L 125.986051 -109.256693 
L 126.387396 -107.561549 
L 126.846657 -105.866404 
L 127.36725 -104.171259 
L 127.952653 -102.476114 
L 128.606391 -100.780969 
L 129.33192 -99.085824 
L 130.132388 -97.390679 
L 131.010269 -95.695534 
L 131.966887 -94.000389 
L 133.001819 -92.305244 
L 134.112248 -90.6101 
L 135.292285 -88.914955 
L 136.532327 -87.21981 
L 137.818531 -85.524665 
L 139.132455 -83.82952 
L 140.450962 -82.134375 
L 141.746413 -80.43923 
L 142.987222 -78.744085 
L 144.138763 -77.04894 
L 145.164624 -75.353795 
L 146.028163 -73.658651 
L 146.694275 -71.963506 
L 147.131256 -70.268361 
L 147.312653 -68.573216 
L 147.218933 -66.878071 
L 146.838851 -65.182926 
L 146.170398 -63.487781 
z
" style="stroke: #000000; stroke-opacity: 0.4"/>
    </defs>
    <g clip-path="url(#p3c03861d44)">
     <use xlink:href="#mbf3283b863" x="0" y="432" style="fill: #440154; fill-opacity: 0.4; stroke: #000000; stroke-opacity: 0.4"/>
    </g>
   </g>
   <g id="PolyCollection_2">
    <defs>
     <path id="m9bac766831" d="M 277.817804 -63.487781 
L 214.760407 -63.487781 
L 213.9605 -65.548429 
L 213.47368 -67.609077 
L 213.296955 -69.669726 
L 213.416025 -71.730374 
L 213.806782 -73.791022 
L 214.437372 -75.85167 
L 215.270621 -77.912318 
L 216.266589 -79.972966 
L 217.385029 -82.033615 
L 218.587557 -84.094263 
L 219.839391 -86.154911 
L 221.110566 -88.215559 
L 222.376606 -90.276207 
L 223.618669 -92.336856 
L 224.823251 -94.397504 
L 225.981556 -96.458152 
L 227.088635 -98.5188 
L 228.14244 -100.579448 
L 229.142875 -102.640096 
L 230.090951 -104.700745 
L 230.988085 -106.761393 
L 231.835589 -108.822041 
L 232.634348 -110.882689 
L 233.38467 -112.943337 
L 234.08628 -115.003985 
L 234.738416 -117.064634 
L 235.34 -119.125282 
L 235.889829 -121.18593 
L 236.38677 -123.246578 
L 236.829936 -125.307226 
L 237.218833 -127.367874 
L 237.553467 -129.428523 
L 237.834436 -131.489171 
L 238.062986 -133.549819 
L 238.241061 -135.610467 
L 238.371347 -137.671115 
L 238.457301 -139.731763 
L 238.503181 -141.792412 
L 238.514049 -143.85306 
L 238.49576 -145.913708 
L 238.454901 -147.974356 
L 238.398692 -150.035004 
L 238.334823 -152.095653 
L 238.27124 -154.156301 
L 238.215887 -156.216949 
L 238.176398 -158.277597 
L 238.159792 -160.338245 
L 238.172164 -162.398893 
L 238.218414 -164.459542 
L 238.302043 -166.52019 
L 238.425017 -168.580838 
L 238.587732 -170.641486 
L 238.789062 -172.702134 
L 239.026506 -174.762782 
L 239.296402 -176.823431 
L 239.594189 -178.884079 
L 239.914709 -180.944727 
L 240.2525 -183.005375 
L 240.602072 -185.066023 
L 240.958154 -187.126671 
L 241.315881 -189.18732 
L 241.670927 -191.247968 
L 242.019587 -193.308616 
L 242.358805 -195.369264 
L 242.686158 -197.429912 
L 242.999813 -199.49056 
L 243.298454 -201.551209 
L 243.581203 -203.611857 
L 243.847537 -205.672505 
L 244.097206 -207.733153 
L 244.330154 -209.793801 
L 244.546461 -211.85445 
L 244.746289 -213.915098 
L 244.929839 -215.975746 
L 245.097329 -218.036394 
L 245.248975 -220.097042 
L 245.384987 -222.15769 
L 245.505573 -224.218339 
L 245.610949 -226.278987 
L 245.701357 -228.339635 
L 245.777086 -230.400283 
L 245.838497 -232.460931 
L 245.886047 -234.521579 
L 245.920313 -236.582228 
L 245.94202 -238.642876 
L 245.952059 -240.703524 
L 245.9515 -242.764172 
L 245.941601 -244.82482 
L 245.923808 -246.885468 
L 245.899734 -248.946117 
L 245.871138 -251.006765 
L 245.839878 -253.067413 
L 245.807858 -255.128061 
L 245.776962 -257.188709 
L 245.748978 -259.249357 
L 245.725522 -261.310006 
L 245.707966 -263.370654 
L 245.697376 -265.431302 
L 245.694456 -267.49195 
L 246.883755 -267.49195 
L 246.883755 -267.49195 
L 246.880835 -265.431302 
L 246.870245 -263.370654 
L 246.852689 -261.310006 
L 246.829233 -259.249357 
L 246.801249 -257.188709 
L 246.770352 -255.128061 
L 246.738333 -253.067413 
L 246.707073 -251.006765 
L 246.678477 -248.946117 
L 246.654403 -246.885468 
L 246.63661 -244.82482 
L 246.626711 -242.764172 
L 246.626152 -240.703524 
L 246.636191 -238.642876 
L 246.657898 -236.582228 
L 246.692164 -234.521579 
L 246.739714 -232.460931 
L 246.801125 -230.400283 
L 246.876854 -228.339635 
L 246.967262 -226.278987 
L 247.072638 -224.218339 
L 247.193224 -222.15769 
L 247.329236 -220.097042 
L 247.480882 -218.036394 
L 247.648372 -215.975746 
L 247.831922 -213.915098 
L 248.03175 -211.85445 
L 248.248057 -209.793801 
L 248.481005 -207.733153 
L 248.730674 -205.672505 
L 248.997008 -203.611857 
L 249.279757 -201.551209 
L 249.578398 -199.49056 
L 249.892053 -197.429912 
L 250.219406 -195.369264 
L 250.558624 -193.308616 
L 250.907284 -191.247968 
L 251.26233 -189.18732 
L 251.620057 -187.126671 
L 251.976139 -185.066023 
L 252.325711 -183.005375 
L 252.663501 -180.944727 
L 252.984022 -178.884079 
L 253.281809 -176.823431 
L 253.551705 -174.762782 
L 253.789149 -172.702134 
L 253.990479 -170.641486 
L 254.153193 -168.580838 
L 254.276168 -166.52019 
L 254.359797 -164.459542 
L 254.406047 -162.398893 
L 254.418419 -160.338245 
L 254.401813 -158.277597 
L 254.362324 -156.216949 
L 254.30697 -154.156301 
L 254.243388 -152.095653 
L 254.179519 -150.035004 
L 254.12331 -147.974356 
L 254.082451 -145.913708 
L 254.064162 -143.85306 
L 254.07503 -141.792412 
L 254.12091 -139.731763 
L 254.206864 -137.671115 
L 254.33715 -135.610467 
L 254.515225 -133.549819 
L 254.743775 -131.489171 
L 255.024744 -129.428523 
L 255.359378 -127.367874 
L 255.748275 -125.307226 
L 256.191441 -123.246578 
L 256.688382 -121.18593 
L 257.238211 -119.125282 
L 257.839795 -117.064634 
L 258.491931 -115.003985 
L 259.193541 -112.943337 
L 259.943863 -110.882689 
L 260.742622 -108.822041 
L 261.590126 -106.761393 
L 262.48726 -104.700745 
L 263.435336 -102.640096 
L 264.435771 -100.579448 
L 265.489576 -98.5188 
L 266.596655 -96.458152 
L 267.75496 -94.397504 
L 268.959542 -92.336856 
L 270.201604 -90.276207 
L 271.467645 -88.215559 
L 272.73882 -86.154911 
L 273.990654 -84.094263 
L 275.193182 -82.033615 
L 276.311622 -79.972966 
L 277.30759 -77.912318 
L 278.140839 -75.85167 
L 278.771429 -73.791022 
L 279.162186 -71.730374 
L 279.281256 -69.669726 
L 279.104531 -67.609077 
L 278.617711 -65.548429 
L 277.817804 -63.487781 
z
" style="stroke: #000000; stroke-opacity: 0.4"/>
    </defs>
    <g clip-path="url(#p3c03861d44)">
     <use xlink:href="#m9bac766831" x="0" y="432" style="fill: #3b528b; fill-opacity: 0.4; stroke: #000000; stroke-opacity: 0.4"/>
    </g>
   </g>
   <g id="PolyCollection_3">
    <defs>
     <path id="m9d2539284a" d="M 410.306928 -63.487781 
L 346.208488 -63.487781 
L 345.597074 -65.281847 
L 345.286831 -67.075913 
L 345.265558 -68.869979 
L 345.510253 -70.664044 
L 345.988998 -72.45811 
L 346.663367 -74.252176 
L 347.491136 -76.046242 
L 348.429061 -77.840308 
L 349.4355 -79.634374 
L 350.472667 -81.428439 
L 351.508389 -83.222505 
L 352.517263 -85.016571 
L 353.48119 -86.810637 
L 354.389324 -88.604703 
L 355.237502 -90.398768 
L 356.02728 -92.192834 
L 356.764702 -93.9869 
L 357.458932 -95.780966 
L 358.120878 -97.575032 
L 358.761916 -99.369098 
L 359.392788 -101.163163 
L 360.022727 -102.957229 
L 360.658834 -104.751295 
L 361.30572 -106.545361 
L 361.965368 -108.339427 
L 362.637208 -110.133493 
L 363.31836 -111.927558 
L 364.003984 -113.721624 
L 364.687717 -115.51569 
L 365.362147 -117.309756 
L 366.019285 -119.103822 
L 366.651031 -120.897887 
L 367.249586 -122.691953 
L 367.807835 -124.486019 
L 368.319658 -126.280085 
L 368.780196 -128.074151 
L 369.186057 -129.868217 
L 369.535458 -131.662282 
L 369.828312 -133.456348 
L 370.066251 -135.250414 
L 370.252579 -137.04448 
L 370.392163 -138.838546 
L 370.491246 -140.632612 
L 370.557198 -142.426677 
L 370.598207 -144.220743 
L 370.622923 -146.014809 
L 370.640072 -147.808875 
L 370.658065 -149.602941 
L 370.684624 -151.397006 
L 370.726453 -153.191072 
L 370.788968 -154.985138 
L 370.876119 -156.779204 
L 370.990295 -158.57327 
L 371.132335 -160.367336 
L 371.301625 -162.161401 
L 371.49628 -163.955467 
L 371.713389 -165.749533 
L 371.949299 -167.543599 
L 372.19992 -169.337665 
L 372.461027 -171.131731 
L 372.728528 -172.925796 
L 372.998698 -174.719862 
L 373.268349 -176.513928 
L 373.534941 -178.307994 
L 373.796626 -180.10206 
L 374.05223 -181.896125 
L 374.301182 -183.690191 
L 374.5434 -185.484257 
L 374.779144 -187.278323 
L 375.008866 -189.072389 
L 375.23305 -190.866455 
L 375.452072 -192.66052 
L 375.666085 -194.454586 
L 375.874942 -196.248652 
L 376.07815 -198.042718 
L 376.274877 -199.836784 
L 376.46398 -201.63085 
L 376.644083 -203.424915 
L 376.81366 -205.218981 
L 376.971151 -207.013047 
L 377.115068 -208.807113 
L 377.244107 -210.601179 
L 377.357242 -212.395244 
L 377.453809 -214.18931 
L 377.533555 -215.983376 
L 377.596681 -217.777442 
L 377.643842 -219.571508 
L 377.676133 -221.365574 
L 377.695057 -223.159639 
L 377.702458 -224.953705 
L 377.700455 -226.747771 
L 377.691349 -228.541837 
L 377.677535 -230.335903 
L 377.661393 -232.129969 
L 377.6452 -233.924034 
L 377.631027 -235.7181 
L 377.620663 -237.512166 
L 377.615547 -239.306232 
L 377.616721 -241.100298 
L 378.898695 -241.100298 
L 378.898695 -241.100298 
L 378.899869 -239.306232 
L 378.894753 -237.512166 
L 378.884389 -235.7181 
L 378.870216 -233.924034 
L 378.854023 -232.129969 
L 378.837882 -230.335903 
L 378.824067 -228.541837 
L 378.814962 -226.747771 
L 378.812958 -224.953705 
L 378.820359 -223.159639 
L 378.839283 -221.365574 
L 378.871575 -219.571508 
L 378.918735 -217.777442 
L 378.981861 -215.983376 
L 379.061608 -214.18931 
L 379.158174 -212.395244 
L 379.27131 -210.601179 
L 379.400349 -208.807113 
L 379.544265 -207.013047 
L 379.701756 -205.218981 
L 379.871334 -203.424915 
L 380.051436 -201.63085 
L 380.24054 -199.836784 
L 380.437266 -198.042718 
L 380.640475 -196.248652 
L 380.849331 -194.454586 
L 381.063344 -192.66052 
L 381.282366 -190.866455 
L 381.50655 -189.072389 
L 381.736273 -187.278323 
L 381.972017 -185.484257 
L 382.214234 -183.690191 
L 382.463186 -181.896125 
L 382.71879 -180.10206 
L 382.980475 -178.307994 
L 383.247067 -176.513928 
L 383.516718 -174.719862 
L 383.786888 -172.925796 
L 384.054389 -171.131731 
L 384.315496 -169.337665 
L 384.566118 -167.543599 
L 384.802027 -165.749533 
L 385.019136 -163.955467 
L 385.213791 -162.161401 
L 385.383082 -160.367336 
L 385.525122 -158.57327 
L 385.639298 -156.779204 
L 385.726449 -154.985138 
L 385.788964 -153.191072 
L 385.830792 -151.397006 
L 385.857351 -149.602941 
L 385.875344 -147.808875 
L 385.892493 -146.014809 
L 385.917209 -144.220743 
L 385.958219 -142.426677 
L 386.024171 -140.632612 
L 386.123254 -138.838546 
L 386.262837 -137.04448 
L 386.449166 -135.250414 
L 386.687104 -133.456348 
L 386.979958 -131.662282 
L 387.329359 -129.868217 
L 387.73522 -128.074151 
L 388.195759 -126.280085 
L 388.707582 -124.486019 
L 389.26583 -122.691953 
L 389.864386 -120.897887 
L 390.496131 -119.103822 
L 391.15327 -117.309756 
L 391.827699 -115.51569 
L 392.511433 -113.721624 
L 393.197057 -111.927558 
L 393.878208 -110.133493 
L 394.550049 -108.339427 
L 395.209696 -106.545361 
L 395.856582 -104.751295 
L 396.49269 -102.957229 
L 397.122628 -101.163163 
L 397.7535 -99.369098 
L 398.394538 -97.575032 
L 399.056485 -95.780966 
L 399.750714 -93.9869 
L 400.488136 -92.192834 
L 401.277915 -90.398768 
L 402.126092 -88.604703 
L 403.034226 -86.810637 
L 403.998154 -85.016571 
L 405.007027 -83.222505 
L 406.042749 -81.428439 
L 407.079916 -79.634374 
L 408.086355 -77.840308 
L 409.024281 -76.046242 
L 409.852049 -74.252176 
L 410.526418 -72.45811 
L 411.005164 -70.664044 
L 411.249859 -68.869979 
L 411.228586 -67.075913 
L 410.918343 -65.281847 
L 410.306928 -63.487781 
z
" style="stroke: #000000; stroke-opacity: 0.4"/>
    </defs>
    <g clip-path="url(#p3c03861d44)">
     <use xlink:href="#m9d2539284a" x="0" y="432" style="fill: #21918c; fill-opacity: 0.4; stroke: #000000; stroke-opacity: 0.4"/>
    </g>
   </g>
   <g id="PolyCollection_4">
    <defs>
     <path id="m0d19cbd09a" d="M 542.25342 -63.487781 
L 478.199202 -63.487781 
L 477.415873 -66.743175 
L 477.23416 -69.998569 
L 477.620157 -73.253963 
L 478.503161 -76.509357 
L 479.785471 -79.76475 
L 481.354523 -83.020144 
L 483.095409 -86.275538 
L 484.901908 -89.530932 
L 486.684699 -92.786326 
L 488.376057 -96.04172 
L 489.931055 -99.297113 
L 491.325898 -102.552507 
L 492.554339 -105.807901 
L 493.623235 -109.063295 
L 494.54816 -112.318689 
L 495.349675 -115.574083 
L 496.050551 -118.829477 
L 496.673888 -122.08487 
L 497.241916 -125.340264 
L 497.775161 -128.595658 
L 498.291727 -131.851052 
L 498.806552 -135.106446 
L 499.330637 -138.36184 
L 499.870395 -141.617234 
L 500.427279 -144.872627 
L 500.997893 -148.128021 
L 501.574646 -151.383415 
L 502.146953 -154.638809 
L 502.702827 -157.894203 
L 503.230625 -161.149597 
L 503.720674 -164.40499 
L 504.166525 -167.660384 
L 504.565644 -170.915778 
L 504.919488 -174.171172 
L 505.23298 -177.426566 
L 505.513567 -180.68196 
L 505.770013 -183.937354 
L 506.011193 -187.192747 
L 506.245037 -190.448141 
L 506.477766 -193.703535 
L 506.713481 -196.958929 
L 506.954081 -200.214323 
L 507.199437 -203.469717 
L 507.447758 -206.725111 
L 507.696022 -209.980504 
L 507.940425 -213.235898 
L 508.176789 -216.491292 
L 508.400916 -219.746686 
L 508.608883 -223.00208 
L 508.797306 -226.257474 
L 508.963571 -229.512867 
L 509.106034 -232.768261 
L 509.224189 -236.023655 
L 509.318754 -239.279049 
L 509.391682 -242.534443 
L 509.446043 -245.789837 
L 509.485792 -249.045231 
L 509.515426 -252.300624 
L 509.539568 -255.556018 
L 509.562534 -258.811412 
L 509.587935 -262.066806 
L 509.618376 -265.3222 
L 509.655286 -268.577594 
L 509.698905 -271.832988 
L 509.748418 -275.088381 
L 509.802197 -278.343775 
L 509.85812 -281.599169 
L 509.913901 -284.854563 
L 509.967387 -288.109957 
L 510.016789 -291.365351 
L 510.060817 -294.620744 
L 510.098732 -297.876138 
L 510.13031 -301.131532 
L 510.155754 -304.386926 
L 510.175571 -307.64232 
L 510.190442 -310.897714 
L 510.201094 -314.153108 
L 510.2082 -317.408501 
L 510.2123 -320.663895 
L 510.213744 -323.919289 
L 510.212665 -327.174683 
L 510.208963 -330.430077 
L 510.202321 -333.685471 
L 510.192227 -336.940865 
L 510.178029 -340.196258 
L 510.159013 -343.451652 
L 510.134506 -346.707046 
L 510.104003 -349.96244 
L 510.067307 -353.217834 
L 510.024668 -356.473228 
L 509.976894 -359.728622 
L 509.925415 -362.984015 
L 509.872277 -366.239409 
L 509.820047 -369.494803 
L 509.77163 -372.750197 
L 509.730016 -376.005591 
L 509.697981 -379.260985 
L 509.677775 -382.516378 
L 509.670869 -385.771772 
L 510.781753 -385.771772 
L 510.781753 -385.771772 
L 510.774847 -382.516378 
L 510.754641 -379.260985 
L 510.722606 -376.005591 
L 510.680992 -372.750197 
L 510.632575 -369.494803 
L 510.580345 -366.239409 
L 510.527207 -362.984015 
L 510.475728 -359.728622 
L 510.427954 -356.473228 
L 510.385315 -353.217834 
L 510.348619 -349.96244 
L 510.318116 -346.707046 
L 510.293609 -343.451652 
L 510.274593 -340.196258 
L 510.260395 -336.940865 
L 510.250301 -333.685471 
L 510.243658 -330.430077 
L 510.239957 -327.174683 
L 510.238878 -323.919289 
L 510.240322 -320.663895 
L 510.244421 -317.408501 
L 510.251528 -314.153108 
L 510.26218 -310.897714 
L 510.277051 -307.64232 
L 510.296868 -304.386926 
L 510.322312 -301.131532 
L 510.35389 -297.876138 
L 510.391805 -294.620744 
L 510.435833 -291.365351 
L 510.485235 -288.109957 
L 510.538721 -284.854563 
L 510.594502 -281.599169 
L 510.650425 -278.343775 
L 510.704204 -275.088381 
L 510.753717 -271.832988 
L 510.797336 -268.577594 
L 510.834246 -265.3222 
L 510.864687 -262.066806 
L 510.890088 -258.811412 
L 510.913054 -255.556018 
L 510.937196 -252.300624 
L 510.966829 -249.045231 
L 511.006579 -245.789837 
L 511.06094 -242.534443 
L 511.133868 -239.279049 
L 511.228433 -236.023655 
L 511.346587 -232.768261 
L 511.489051 -229.512867 
L 511.655316 -226.257474 
L 511.843739 -223.00208 
L 512.051706 -219.746686 
L 512.275832 -216.491292 
L 512.512197 -213.235898 
L 512.7566 -209.980504 
L 513.004864 -206.725111 
L 513.253185 -203.469717 
L 513.498541 -200.214323 
L 513.73914 -196.958929 
L 513.974856 -193.703535 
L 514.207585 -190.448141 
L 514.441428 -187.192747 
L 514.682609 -183.937354 
L 514.939055 -180.68196 
L 515.219641 -177.426566 
L 515.533134 -174.171172 
L 515.886978 -170.915778 
L 516.286097 -167.660384 
L 516.731948 -164.40499 
L 517.221997 -161.149597 
L 517.749795 -157.894203 
L 518.305669 -154.638809 
L 518.877976 -151.383415 
L 519.454729 -148.128021 
L 520.025343 -144.872627 
L 520.582227 -141.617234 
L 521.121985 -138.36184 
L 521.64607 -135.106446 
L 522.160895 -131.851052 
L 522.677461 -128.595658 
L 523.210706 -125.340264 
L 523.778734 -122.08487 
L 524.402071 -118.829477 
L 525.102947 -115.574083 
L 525.904462 -112.318689 
L 526.829387 -109.063295 
L 527.898283 -105.807901 
L 529.126724 -102.552507 
L 530.521567 -99.297113 
L 532.076565 -96.04172 
L 533.767923 -92.786326 
L 535.550714 -89.530932 
L 537.357213 -86.275538 
L 539.098098 -83.020144 
L 540.667151 -79.76475 
L 541.949461 -76.509357 
L 542.832465 -73.253963 
L 543.218462 -69.998569 
L 543.036749 -66.743175 
L 542.25342 -63.487781 
z
" style="stroke: #000000; stroke-opacity: 0.4"/>
    </defs>
    <g clip-path="url(#p3c03861d44)">
     <use xlink:href="#m0d19cbd09a" x="0" y="432" style="fill: #5ec962; fill-opacity: 0.4; stroke: #000000; stroke-opacity: 0.4"/>
    </g>
   </g>
   <g id="PolyCollection_5">
    <defs>
     <path id="m91b076302d" d="M 674.638431 -63.487781 
L 609.751396 -63.487781 
L 609.323489 -65.289613 
L 609.202763 -67.091446 
L 609.379498 -68.893278 
L 609.833915 -70.69511 
L 610.537499 -72.496943 
L 611.454786 -74.298775 
L 612.545458 -76.100607 
L 613.766597 -77.90244 
L 615.07491 -79.704272 
L 616.428791 -81.506105 
L 617.790082 -83.307937 
L 619.125446 -85.109769 
L 620.4073 -86.911602 
L 621.614295 -88.713434 
L 622.731373 -90.515266 
L 623.749466 -92.317099 
L 624.664897 -94.118931 
L 625.478592 -95.920763 
L 626.195178 -97.722596 
L 626.822059 -99.524428 
L 627.368536 -101.32626 
L 627.845012 -103.128093 
L 628.262338 -104.929925 
L 628.631286 -106.731757 
L 628.962166 -108.53359 
L 629.264568 -110.335422 
L 629.547203 -112.137254 
L 629.817824 -113.939087 
L 630.083195 -115.740919 
L 630.349093 -117.542751 
L 630.620317 -119.344584 
L 630.900703 -121.146416 
L 631.193128 -122.948248 
L 631.49952 -124.750081 
L 631.820859 -126.551913 
L 632.157192 -128.353745 
L 632.507667 -130.155578 
L 632.870585 -131.95741 
L 633.243493 -133.759242 
L 633.623299 -135.561075 
L 634.006431 -137.362907 
L 634.389014 -139.164739 
L 634.767071 -140.966572 
L 635.136732 -142.768404 
L 635.494443 -144.570237 
L 635.837146 -146.372069 
L 636.162442 -148.173901 
L 636.468703 -149.975734 
L 636.755136 -151.777566 
L 637.021797 -153.579398 
L 637.269542 -155.381231 
L 637.499931 -157.183063 
L 637.715083 -158.984895 
L 637.917501 -160.786728 
L 638.109877 -162.58856 
L 638.294886 -164.390392 
L 638.474995 -166.192225 
L 638.652294 -167.994057 
L 638.828366 -169.795889 
L 639.004195 -171.597722 
L 639.180132 -173.399554 
L 639.3559 -175.201386 
L 639.53066 -177.003219 
L 639.7031 -178.805051 
L 639.871566 -180.606883 
L 640.034201 -182.408716 
L 640.18909 -184.210548 
L 640.334402 -186.01238 
L 640.468504 -187.814213 
L 640.590053 -189.616045 
L 640.698059 -191.417877 
L 640.791909 -193.21971 
L 640.871364 -195.021542 
L 640.936526 -196.823374 
L 640.98779 -198.625207 
L 641.025778 -200.427039 
L 641.051277 -202.228871 
L 641.065174 -204.030704 
L 641.068409 -205.832536 
L 641.061938 -207.634369 
L 641.046718 -209.436201 
L 641.023706 -211.238033 
L 640.993877 -213.039866 
L 640.958244 -214.841698 
L 640.917895 -216.64353 
L 640.874021 -218.445363 
L 640.827938 -220.247195 
L 640.781097 -222.049027 
L 640.735082 -223.85086 
L 640.691582 -225.652692 
L 640.652354 -227.454524 
L 640.619164 -229.256357 
L 640.593714 -231.058189 
L 640.577568 -232.860021 
L 640.572071 -234.661854 
L 640.578274 -236.463686 
L 640.596869 -238.265518 
L 640.62815 -240.067351 
L 640.671977 -241.869183 
L 643.71785 -241.869183 
L 643.71785 -241.869183 
L 643.761678 -240.067351 
L 643.792958 -238.265518 
L 643.811554 -236.463686 
L 643.817756 -234.661854 
L 643.812259 -232.860021 
L 643.796113 -231.058189 
L 643.770664 -229.256357 
L 643.737473 -227.454524 
L 643.698246 -225.652692 
L 643.654746 -223.85086 
L 643.60873 -222.049027 
L 643.561889 -220.247195 
L 643.515806 -218.445363 
L 643.471932 -216.64353 
L 643.431584 -214.841698 
L 643.395951 -213.039866 
L 643.366121 -211.238033 
L 643.34311 -209.436201 
L 643.32789 -207.634369 
L 643.321419 -205.832536 
L 643.324653 -204.030704 
L 643.33855 -202.228871 
L 643.364049 -200.427039 
L 643.402037 -198.625207 
L 643.453301 -196.823374 
L 643.518463 -195.021542 
L 643.597918 -193.21971 
L 643.691768 -191.417877 
L 643.799775 -189.616045 
L 643.921324 -187.814213 
L 644.055425 -186.01238 
L 644.200737 -184.210548 
L 644.355627 -182.408716 
L 644.518261 -180.606883 
L 644.686727 -178.805051 
L 644.859167 -177.003219 
L 645.033927 -175.201386 
L 645.209696 -173.399554 
L 645.385632 -171.597722 
L 645.561461 -169.795889 
L 645.737533 -167.994057 
L 645.914833 -166.192225 
L 646.094941 -164.390392 
L 646.27995 -162.58856 
L 646.472326 -160.786728 
L 646.674745 -158.984895 
L 646.889896 -157.183063 
L 647.120285 -155.381231 
L 647.36803 -153.579398 
L 647.634692 -151.777566 
L 647.921125 -149.975734 
L 648.227385 -148.173901 
L 648.552681 -146.372069 
L 648.895384 -144.570237 
L 649.253095 -142.768404 
L 649.622757 -140.966572 
L 650.000814 -139.164739 
L 650.383396 -137.362907 
L 650.766528 -135.561075 
L 651.146335 -133.759242 
L 651.519242 -131.95741 
L 651.882161 -130.155578 
L 652.232635 -128.353745 
L 652.568968 -126.551913 
L 652.890307 -124.750081 
L 653.196699 -122.948248 
L 653.489125 -121.146416 
L 653.76951 -119.344584 
L 654.040734 -117.542751 
L 654.306632 -115.740919 
L 654.572003 -113.939087 
L 654.842624 -112.137254 
L 655.12526 -110.335422 
L 655.427661 -108.53359 
L 655.758541 -106.731757 
L 656.127489 -104.929925 
L 656.544815 -103.128093 
L 657.021291 -101.32626 
L 657.567768 -99.524428 
L 658.19465 -97.722596 
L 658.911236 -95.920763 
L 659.72493 -94.118931 
L 660.640361 -92.317099 
L 661.658454 -90.515266 
L 662.775532 -88.713434 
L 663.982527 -86.911602 
L 665.264381 -85.109769 
L 666.599746 -83.307937 
L 667.961037 -81.506105 
L 669.314917 -79.704272 
L 670.62323 -77.90244 
L 671.844369 -76.100607 
L 672.935042 -74.298775 
L 673.852328 -72.496943 
L 674.555912 -70.69511 
L 675.010329 -68.893278 
L 675.187064 -67.091446 
L 675.066338 -65.289613 
L 674.638431 -63.487781 
z
" style="stroke: #000000; stroke-opacity: 0.4"/>
    </defs>
    <g clip-path="url(#p3c03861d44)">
     <use xlink:href="#m91b076302d" x="0" y="432" style="fill: #fde725; fill-opacity: 0.4; stroke: #000000; stroke-opacity: 0.4"/>
    </g>
   </g>
   <g id="matplotlib.axis_1">
    <g id="xtick_1">
     <g id="line2d_1">
      <defs>
       <path id="m6992a8f1f0" d="M 0 0 
L 0 3.5 
" style="stroke: #000000; stroke-width: 0.8"/>
      </defs>
      <g>
       <use xlink:href="#m6992a8f1f0" x="114.320503" y="384.626418" style="stroke: #000000; stroke-width: 0.8"/>
      </g>
     </g>
     <g id="text_1">
      <!-- Borda rule -->
      <g transform="translate(88.795319 399.236765) scale(0.11 -0.11)">
       <defs>
        <path id="CMR17-42" d="M 333 4352 
L 333 4186 
C 774 4186 845 4186 845 3900 
L 845 452 
C 845 166 774 166 333 166 
L 333 0 
L 2534 0 
C 3354 0 3885 583 3885 1164 
C 3885 1741 3360 2233 2675 2233 
C 3290 2356 3718 2771 3718 3264 
C 3718 3802 3194 4352 2368 4352 
L 333 4352 
z
M 1248 2304 
L 1248 3937 
C 1248 4155 1261 4186 1517 4186 
L 2336 4186 
C 2970 4186 3251 3674 3251 3277 
C 3251 2791 2861 2304 2170 2304 
L 1248 2304 
z
M 1517 166 
C 1261 166 1248 197 1248 413 
L 1248 2202 
L 2432 2202 
C 3091 2202 3411 1625 3411 1162 
C 3411 699 3046 166 2349 166 
L 1517 166 
z
" transform="scale(0.015625)"/>
        <path id="CMR17-6f" d="M 2758 1356 
C 2758 2176 2163 2816 1466 2816 
C 768 2816 173 2176 173 1356 
C 173 551 768 -64 1466 -64 
C 2163 -64 2758 551 2758 1356 
z
M 1466 51 
C 1165 51 909 230 762 480 
C 602 767 582 1126 582 1408 
C 582 1677 595 2010 762 2298 
C 890 2509 1139 2714 1466 2714 
C 1754 2714 1997 2554 2150 2330 
C 2349 2029 2349 1607 2349 1408 
C 2349 1158 2336 775 2163 467 
C 1984 173 1709 51 1466 51 
z
" transform="scale(0.015625)"/>
        <path id="CMR17-72" d="M 960 1497 
C 960 2112 1222 2688 1702 2688 
C 1747 2688 1792 2682 1837 2662 
C 1837 2662 1696 2617 1696 2452 
C 1696 2298 1818 2234 1914 2234 
C 1990 2234 2131 2279 2131 2458 
C 2131 2663 1926 2790 1709 2790 
C 1222 2790 1011 2317 947 2093 
L 941 2093 
L 941 2790 
L 198 2720 
L 198 2554 
C 576 2554 634 2515 634 2208 
L 634 428 
C 634 184 608 153 198 153 
L 198 -13 
C 352 0 646 0 813 0 
C 998 0 1325 0 1498 -13 
L 1498 153 
C 1037 153 960 153 960 440 
L 960 1497 
z
" transform="scale(0.015625)"/>
        <path id="CMR17-64" d="M 1869 4326 
L 1869 4160 
C 2246 4160 2304 4122 2304 3820 
L 2304 2345 
C 2278 2377 2016 2790 1498 2790 
C 845 2790 211 2208 211 1364 
C 211 525 806 -64 1434 -64 
C 1978 -64 2259 337 2291 380 
L 2291 -63 
L 3066 -63 
L 3066 128 
C 2688 128 2630 166 2630 473 
L 2630 4396 
L 1869 4326 
z
M 2291 755 
C 2291 563 2176 390 2029 262 
C 1811 70 1594 38 1472 38 
C 1286 38 621 134 621 1356 
C 621 2612 1363 2688 1530 2688 
C 1824 2688 2061 2522 2208 2291 
C 2291 2157 2291 2138 2291 2023 
L 2291 755 
z
" transform="scale(0.015625)"/>
        <path id="CMR17-61" d="M 2304 1653 
C 2304 2072 2304 2294 2035 2543 
C 1798 2752 1523 2816 1306 2816 
C 800 2816 435 2407 435 1971 
C 435 1728 627 1728 666 1728 
C 749 1728 896 1778 896 1954 
C 896 2112 774 2181 666 2181 
C 640 2181 608 2174 589 2168 
C 723 2592 1069 2714 1293 2714 
C 1613 2714 1965 2429 1965 1885 
L 1965 1600 
C 1587 1600 1133 1549 774 1357 
C 371 1133 256 813 256 570 
C 256 77 832 -64 1171 -64 
C 1523 -64 1850 139 1990 511 
C 2003 233 2182 -18 2464 -18 
C 2598 -18 2938 70 2938 567 
L 2938 920 
L 2822 920 
L 2822 562 
C 2822 178 2650 128 2566 128 
C 2304 128 2304 458 2304 738 
L 2304 1653 
z
M 1965 870 
C 1965 317 1568 38 1216 38 
C 896 38 646 275 646 570 
C 646 761 730 1100 1101 1305 
C 1408 1478 1760 1504 1965 1504 
L 1965 870 
z
" transform="scale(0.015625)"/>
        <path id="CMR17-75" d="M 1882 2693 
L 1882 2528 
C 2259 2528 2317 2489 2317 2186 
L 2317 1032 
C 2317 500 2029 38 1555 38 
C 1030 38 986 348 986 678 
L 986 2763 
L 211 2693 
L 211 2528 
C 467 2528 640 2528 646 2274 
L 646 1058 
C 646 633 646 361 813 183 
C 896 101 1056 -64 1517 -64 
C 2061 -64 2272 377 2323 506 
L 2330 506 
L 2330 -63 
L 3091 -63 
L 3091 128 
C 2714 128 2656 166 2656 473 
L 2656 2763 
L 1882 2693 
z
" transform="scale(0.015625)"/>
        <path id="CMR17-6c" d="M 979 4396 
L 218 4326 
L 218 4160 
C 595 4160 653 4122 653 3817 
L 653 426 
C 653 184 627 153 218 153 
L 218 -13 
C 371 0 653 0 813 0 
C 979 0 1261 0 1414 -13 
L 1414 153 
C 1005 153 979 178 979 426 
L 979 4396 
z
" transform="scale(0.015625)"/>
        <path id="CMR17-65" d="M 2438 1472 
C 2464 1498 2464 1511 2464 1576 
C 2464 2238 2118 2816 1389 2816 
C 710 2816 173 2169 173 1383 
C 173 551 781 -64 1459 -64 
C 2176 -64 2458 607 2458 740 
C 2458 784 2419 784 2406 784 
C 2362 784 2355 771 2330 696 
C 2189 265 1837 51 1504 51 
C 1229 51 954 203 781 480 
C 582 803 582 1176 582 1472 
L 2438 1472 
z
M 589 1568 
C 634 2505 1126 2714 1382 2714 
C 1818 2714 2112 2297 2118 1568 
L 589 1568 
z
" transform="scale(0.015625)"/>
       </defs>
       <use xlink:href="#CMR17-42" transform="scale(0.996264)"/>
       <use xlink:href="#CMR17-6f" transform="translate(65.188754 0) scale(0.996264)"/>
       <use xlink:href="#CMR17-72" transform="translate(110.879232 0) scale(0.996264)"/>
       <use xlink:href="#CMR17-64" transform="translate(146.159999 0) scale(0.996264)"/>
       <use xlink:href="#CMR17-61" transform="translate(197.055369 0) scale(0.996264)"/>
       <use xlink:href="#CMR17-72" transform="translate(272.821813 0) scale(0.996264)"/>
       <use xlink:href="#CMR17-75" transform="translate(308.10258 0) scale(0.996264)"/>
       <use xlink:href="#CMR17-6c" transform="translate(358.99795 0) scale(0.996264)"/>
       <use xlink:href="#CMR17-65" transform="translate(383.869009 0) scale(0.996264)"/>
      </g>
     </g>
    </g>
    <g id="xtick_2">
     <g id="line2d_2">
      <g>
       <use xlink:href="#m6992a8f1f0" x="246.289105" y="384.626418" style="stroke: #000000; stroke-width: 0.8"/>
      </g>
     </g>
     <g id="text_2">
      <!-- Copeland's Rule -->
      <g transform="translate(207.065277 399.236765) scale(0.11 -0.11)">
       <defs>
        <path id="CMR17-43" d="M 3974 4289 
C 3974 4403 3968 4410 3930 4410 
C 3904 4410 3898 4403 3853 4327 
L 3571 3792 
C 3258 4187 2874 4416 2381 4416 
C 1286 4416 294 3456 294 2148 
C 294 826 1286 -128 2387 -128 
C 3366 -128 3974 730 3974 1461 
C 3974 1524 3974 1550 3917 1550 
C 3866 1550 3866 1531 3859 1474 
C 3808 585 3168 38 2477 38 
C 1824 38 781 495 781 2147 
C 781 3805 1843 4250 2464 4250 
C 3187 4250 3712 3628 3834 2745 
C 3846 2668 3846 2655 3904 2655 
C 3974 2655 3974 2668 3974 2783 
L 3974 4289 
z
" transform="scale(0.015625)"/>
        <path id="CMR17-70" d="M 1408 -1063 
C 998 -1063 973 -1037 973 -789 
L 973 402 
C 1158 134 1427 -38 1766 -38 
C 2406 -38 3053 523 3053 1388 
C 3053 2191 2496 2802 1837 2802 
C 1453 2802 1139 2592 960 2338 
L 960 2802 
L 198 2732 
L 198 2567 
C 576 2567 634 2528 634 2223 
L 634 -789 
C 634 -1031 608 -1063 198 -1063 
L 198 -1228 
C 352 -1216 634 -1216 800 -1216 
C 966 -1216 1254 -1216 1408 -1228 
L 1408 -1063 
z
M 973 2012 
C 973 2102 973 2235 1222 2471 
C 1254 2497 1472 2688 1792 2688 
C 2259 2688 2643 2108 2643 1382 
C 2643 656 2234 64 1728 64 
C 1498 64 1248 172 1056 472 
C 973 612 973 650 973 752 
L 973 2012 
z
" transform="scale(0.015625)"/>
        <path id="CMR17-6e" d="M 2656 1933 
C 2656 2259 2592 2790 1837 2790 
C 1331 2790 1069 2400 973 2144 
L 966 2144 
L 966 2790 
L 211 2720 
L 211 2554 
C 589 2554 646 2515 646 2208 
L 646 428 
C 646 184 621 153 211 153 
L 211 -13 
C 365 0 646 0 813 0 
C 979 0 1267 0 1421 -13 
L 1421 153 
C 1011 153 986 178 986 428 
L 986 1658 
C 986 2247 1344 2688 1792 2688 
C 2266 2688 2317 2266 2317 1958 
L 2317 428 
C 2317 184 2291 153 1882 153 
L 1882 -13 
C 2035 0 2317 0 2483 0 
C 2650 0 2938 0 3091 -13 
L 3091 153 
C 2682 153 2656 178 2656 428 
L 2656 1933 
z
" transform="scale(0.015625)"/>
        <path id="CMR17-27" d="M 1024 4025 
C 1037 3955 1043 3929 1043 3820 
C 1043 3415 883 3042 634 2778 
C 608 2752 595 2733 595 2707 
C 595 2681 621 2656 646 2656 
C 691 2656 1146 3105 1146 3811 
C 1146 3952 1133 4426 800 4426 
C 659 4426 538 4331 538 4165 
C 538 3999 659 3904 800 3904 
C 858 3904 966 3923 1024 4025 
z
" transform="scale(0.015625)"/>
        <path id="CMR17-73" d="M 1978 2697 
C 1978 2813 1971 2819 1933 2819 
C 1907 2819 1901 2813 1824 2717 
C 1805 2691 1747 2626 1728 2601 
C 1523 2819 1235 2819 1126 2819 
C 416 2819 160 2447 160 2076 
C 160 1498 813 1365 998 1325 
C 1402 1243 1542 1217 1677 1101 
C 1760 1025 1901 884 1901 654 
C 1901 384 1747 38 1158 38 
C 602 38 403 460 288 1021 
C 269 1110 269 1117 218 1117 
C 166 1117 160 1110 160 983 
L 160 63 
C 160 -51 166 -58 205 -58 
C 237 -58 243 -51 275 0 
C 314 57 410 211 448 276 
C 576 103 800 -64 1158 -64 
C 1792 -64 2131 283 2131 784 
C 2131 1112 1958 1285 1875 1362 
C 1683 1561 1459 1606 1190 1657 
C 838 1735 390 1825 390 2217 
C 390 2383 480 2737 1126 2737 
C 1811 2737 1850 2094 1862 1888 
C 1869 1856 1901 1849 1920 1849 
C 1978 1849 1978 1869 1978 1978 
L 1978 2697 
z
" transform="scale(0.015625)"/>
        <path id="CMR17-52" d="M 2509 2146 
C 3117 2268 3629 2676 3629 3186 
C 3629 3785 2950 4326 2054 4326 
L 333 4326 
L 333 4160 
C 774 4160 845 4160 845 3873 
L 845 415 
C 845 128 774 128 333 128 
L 333 -26 
C 518 -26 851 -26 1050 -26 
C 1248 -26 1581 -26 1766 -26 
L 1766 128 
C 1325 128 1254 128 1254 417 
L 1254 2112 
L 2003 2112 
C 2368 2112 2573 1964 2662 1881 
C 2918 1632 2918 1459 2918 1024 
C 2918 595 2918 377 3110 160 
C 3354 -102 3680 -128 3821 -128 
C 4294 -128 4365 396 4365 503 
C 4365 540 4365 585 4307 585 
C 4256 585 4250 547 4250 522 
C 4218 112 4032 -26 3834 -26 
C 3482 -26 3443 375 3405 764 
C 3386 898 3373 993 3360 1133 
C 3322 1452 3270 1917 2509 2146 
z
M 1984 2214 
L 1254 2214 
L 1254 3913 
C 1254 4129 1267 4160 1523 4160 
L 1990 4160 
C 2522 4160 3142 3977 3142 3190 
C 3142 2372 2464 2214 1984 2214 
z
" transform="scale(0.015625)"/>
       </defs>
       <use xlink:href="#CMR17-43" transform="scale(0.996264)"/>
       <use xlink:href="#CMR17-6f" transform="translate(66.509881 0) scale(0.996264)"/>
       <use xlink:href="#CMR17-70" transform="translate(112.200358 0) scale(0.996264)"/>
       <use xlink:href="#CMR17-65" transform="translate(165.698166 0) scale(0.996264)"/>
       <use xlink:href="#CMR17-6c" transform="translate(206.183827 0) scale(0.996264)"/>
       <use xlink:href="#CMR17-61" transform="translate(231.054885 0) scale(0.996264)"/>
       <use xlink:href="#CMR17-6e" transform="translate(276.745362 0) scale(0.996264)"/>
       <use xlink:href="#CMR17-64" transform="translate(327.640732 0) scale(0.996264)"/>
       <use xlink:href="#CMR17-27" transform="translate(378.536102 0) scale(0.996264)"/>
       <use xlink:href="#CMR17-73" transform="translate(403.40716 0) scale(0.996264)"/>
       <use xlink:href="#CMR17-52" transform="translate(469.284464 0) scale(0.996264)"/>
       <use xlink:href="#CMR17-75" transform="translate(537.075566 0) scale(0.996264)"/>
       <use xlink:href="#CMR17-6c" transform="translate(587.970936 0) scale(0.996264)"/>
       <use xlink:href="#CMR17-65" transform="translate(612.841994 0) scale(0.996264)"/>
      </g>
     </g>
    </g>
    <g id="xtick_3">
     <g id="line2d_3">
      <g>
       <use xlink:href="#m6992a8f1f0" x="378.257708" y="384.626418" style="stroke: #000000; stroke-width: 0.8"/>
      </g>
     </g>
     <g id="text_3">
      <!-- Plurality rule -->
      <g transform="translate(346.187625 399.236765) scale(0.11 -0.11)">
       <defs>
        <path id="CMR17-50" d="M 1267 2042 
L 2291 2042 
C 3117 2042 3718 2578 3718 3184 
C 3718 3791 3130 4352 2291 4352 
L 333 4352 
L 333 4186 
C 774 4186 845 4186 845 3899 
L 845 446 
C 845 160 774 160 333 160 
L 333 0 
C 518 0 858 0 1056 0 
C 1254 0 1594 0 1779 0 
L 1779 160 
C 1338 160 1267 160 1267 446 
L 1267 2042 
z
M 1254 2176 
L 1254 3938 
C 1254 4155 1267 4186 1523 4186 
L 2170 4186 
C 2995 4186 3232 3714 3232 3184 
C 3232 2604 2950 2176 2170 2176 
L 1254 2176 
z
" transform="scale(0.015625)"/>
        <path id="CMR17-69" d="M 992 3909 
C 992 4049 877 4170 730 4170 
C 589 4170 467 4056 467 3909 
C 467 3769 582 3648 730 3648 
C 870 3648 992 3763 992 3909 
z
M 243 2706 
L 243 2541 
C 602 2541 653 2502 653 2197 
L 653 427 
C 653 184 627 153 218 153 
L 218 -13 
C 371 0 646 0 806 0 
C 960 0 1222 0 1370 -13 
L 1370 153 
C 992 153 979 191 979 420 
L 979 2776 
L 243 2706 
z
" transform="scale(0.015625)"/>
        <path id="CMR17-74" d="M 966 2560 
L 1862 2560 
L 1862 2725 
L 966 2725 
L 966 3904 
L 851 3904 
C 838 3245 614 2668 70 2668 
L 70 2560 
L 627 2560 
L 627 771 
C 627 650 627 -64 1370 -64 
C 1747 -64 1965 306 1965 777 
L 1965 1140 
L 1850 1140 
L 1850 783 
C 1850 344 1677 51 1408 51 
C 1222 51 966 178 966 758 
L 966 2560 
z
" transform="scale(0.015625)"/>
        <path id="CMR17-79" d="M 2496 2197 
C 2656 2586 2944 2586 3034 2586 
L 3034 2752 
C 2912 2752 2752 2752 2630 2752 
C 2496 2752 2285 2752 2157 2758 
L 2157 2592 
C 2400 2573 2406 2394 2406 2343 
C 2406 2280 2394 2248 2362 2171 
L 1664 449 
L 902 2306 
C 870 2382 870 2426 870 2433 
C 870 2573 1018 2586 1171 2586 
L 1171 2758 
C 1018 2752 742 2752 582 2752 
C 410 2752 205 2752 64 2758 
L 64 2586 
C 410 2586 448 2554 531 2350 
L 1485 15 
C 1197 -738 1030 -1178 627 -1178 
C 557 -1178 397 -1159 282 -1044 
C 429 -1031 493 -942 493 -833 
C 493 -725 416 -629 288 -629 
C 147 -629 77 -725 77 -840 
C 77 -1095 339 -1280 627 -1280 
C 998 -1280 1229 -922 1357 -604 
L 2496 2197 
z
" transform="scale(0.015625)"/>
       </defs>
       <use xlink:href="#CMR17-50" transform="scale(0.996264)"/>
       <use xlink:href="#CMR17-6c" transform="translate(62.586301 0) scale(0.996264)"/>
       <use xlink:href="#CMR17-75" transform="translate(87.457359 0) scale(0.996264)"/>
       <use xlink:href="#CMR17-72" transform="translate(138.352729 0) scale(0.996264)"/>
       <use xlink:href="#CMR17-61" transform="translate(173.633497 0) scale(0.996264)"/>
       <use xlink:href="#CMR17-6c" transform="translate(219.323974 0) scale(0.996264)"/>
       <use xlink:href="#CMR17-69" transform="translate(244.195032 0) scale(0.996264)"/>
       <use xlink:href="#CMR17-74" transform="translate(269.066091 0) scale(0.996264)"/>
       <use xlink:href="#CMR17-79" transform="translate(301.744405 0) scale(0.996264)"/>
       <use xlink:href="#CMR17-72" transform="translate(380.113287 0) scale(0.996264)"/>
       <use xlink:href="#CMR17-75" transform="translate(415.394055 0) scale(0.996264)"/>
       <use xlink:href="#CMR17-6c" transform="translate(466.289424 0) scale(0.996264)"/>
       <use xlink:href="#CMR17-65" transform="translate(491.160483 0) scale(0.996264)"/>
      </g>
     </g>
    </g>
    <g id="xtick_4">
     <g id="line2d_4">
      <g>
       <use xlink:href="#m6992a8f1f0" x="510.226311" y="384.626418" style="stroke: #000000; stroke-width: 0.8"/>
      </g>
     </g>
     <g id="text_4">
      <!-- Black's Rule -->
      <g transform="translate(480.363246 399.236765) scale(0.11 -0.11)">
       <defs>
        <path id="CMR17-63" d="M 2234 2240 
C 2112 2240 1933 2240 1933 2017 
C 1933 1838 2080 1787 2163 1787 
C 2208 1787 2394 1807 2394 2024 
C 2394 2467 1958 2803 1466 2803 
C 787 2803 211 2178 211 1363 
C 211 516 813 -64 1466 -64 
C 2259 -64 2458 677 2458 748 
C 2458 774 2451 793 2406 793 
C 2362 793 2355 787 2330 703 
C 2163 180 1798 51 1523 51 
C 1114 51 621 427 621 1369 
C 621 2338 1094 2688 1472 2688 
C 1722 2688 2093 2573 2234 2240 
z
" transform="scale(0.015625)"/>
        <path id="CMR17-6b" d="M 1670 1673 
C 1664 1686 1632 1724 1632 1743 
C 1632 1756 2086 2171 2144 2222 
C 2509 2528 2739 2560 2906 2560 
L 2906 2733 
C 2867 2733 2854 2733 2848 2720 
L 2534 2720 
C 2355 2720 2080 2720 1907 2733 
L 1907 2566 
C 1997 2559 2061 2508 2061 2419 
C 2061 2291 1933 2170 1926 2170 
L 960 1289 
L 960 4396 
L 198 4326 
L 198 4160 
C 576 4160 634 4122 634 3817 
L 634 426 
C 634 184 608 153 198 153 
L 198 -13 
C 352 0 634 0 794 0 
C 954 0 1235 0 1389 -13 
L 1389 153 
C 979 153 954 178 954 428 
L 954 1130 
L 1395 1532 
L 2042 574 
C 2118 459 2182 369 2182 286 
C 2182 172 2067 153 1990 153 
L 1990 -13 
C 2144 0 2419 0 2579 0 
C 2694 0 2931 0 3040 0 
L 3040 153 
C 2739 153 2669 210 2477 491 
L 1670 1673 
z
" transform="scale(0.015625)"/>
       </defs>
       <use xlink:href="#CMR17-42" transform="scale(0.996264)"/>
       <use xlink:href="#CMR17-6c" transform="translate(65.188754 0) scale(0.996264)"/>
       <use xlink:href="#CMR17-61" transform="translate(90.059813 0) scale(0.996264)"/>
       <use xlink:href="#CMR17-63" transform="translate(135.75029 0) scale(0.996264)"/>
       <use xlink:href="#CMR17-6b" transform="translate(173.633497 0) scale(0.996264)"/>
       <use xlink:href="#CMR17-27" transform="translate(221.926412 0) scale(0.996264)"/>
       <use xlink:href="#CMR17-73" transform="translate(246.797471 0) scale(0.996264)"/>
       <use xlink:href="#CMR17-52" transform="translate(312.674775 0) scale(0.996264)"/>
       <use xlink:href="#CMR17-75" transform="translate(380.465877 0) scale(0.996264)"/>
       <use xlink:href="#CMR17-6c" transform="translate(431.361247 0) scale(0.996264)"/>
       <use xlink:href="#CMR17-65" transform="translate(456.232305 0) scale(0.996264)"/>
      </g>
     </g>
    </g>
    <g id="xtick_5">
     <g id="line2d_5">
      <g>
       <use xlink:href="#m6992a8f1f0" x="642.194914" y="384.626418" style="stroke: #000000; stroke-width: 0.8"/>
      </g>
     </g>
     <g id="text_5">
      <!-- Instand-runoff voting -->
      <g transform="translate(591.311994 399.236765) scale(0.11 -0.11)">
       <defs>
        <path id="CMR17-49" d="M 1261 3905 
C 1261 4192 1338 4192 1798 4192 
L 1798 4352 
C 1594 4352 1267 4352 1050 4352 
C 832 4352 506 4352 301 4352 
L 301 4192 
C 762 4192 838 4192 838 3905 
L 838 447 
C 838 160 762 160 301 160 
L 301 0 
C 506 0 832 0 1050 0 
C 1267 0 1594 0 1798 0 
L 1798 160 
C 1338 160 1261 160 1261 447 
L 1261 3905 
z
" transform="scale(0.015625)"/>
        <path id="CMR17-2d" d="M 1632 1216 
L 1632 1496 
L 26 1496 
L 26 1216 
L 1632 1216 
z
" transform="scale(0.015625)"/>
        <path id="CMR17-b" d="M 2554 2560 
L 3283 2560 
L 3283 2725 
L 2541 2725 
L 2541 3494 
C 2541 4022 2810 4352 3085 4352 
C 3168 4352 3264 4327 3328 4282 
C 3277 4269 3142 4225 3142 4067 
C 3142 3901 3270 3850 3360 3850 
C 3450 3850 3578 3901 3578 4067 
C 3578 4308 3347 4454 3091 4454 
C 2842 4454 2637 4333 2477 4181 
C 2330 4390 2086 4454 1837 4454 
C 1338 4454 634 4168 634 3469 
L 634 2725 
L 122 2725 
L 122 2560 
L 634 2560 
L 634 427 
C 634 184 608 153 198 153 
L 198 -13 
C 352 0 634 0 794 0 
C 960 0 1242 0 1395 -13 
L 1395 153 
C 986 153 960 178 960 427 
L 960 2560 
L 2227 2560 
L 2227 427 
C 2227 184 2202 153 1792 153 
L 1792 -13 
C 1946 0 2240 0 2406 0 
C 2592 0 2918 0 3091 -13 
L 3091 153 
C 2630 153 2554 153 2554 439 
L 2554 2560 
z
M 947 2725 
L 947 3469 
C 947 4047 1395 4352 1824 4352 
C 1920 4352 2170 4332 2323 4187 
C 2208 4187 2099 4136 2099 3977 
C 2099 3812 2246 3767 2259 3767 
C 2227 3652 2227 3526 2227 3481 
L 2227 2725 
L 947 2725 
z
" transform="scale(0.015625)"/>
        <path id="CMR17-76" d="M 2502 2163 
C 2560 2304 2662 2560 3034 2560 
L 3034 2726 
C 2912 2726 2752 2726 2630 2726 
C 2496 2726 2285 2726 2157 2732 
L 2157 2566 
C 2317 2553 2406 2477 2406 2311 
C 2406 2253 2406 2240 2368 2151 
L 1664 377 
L 902 2286 
C 864 2369 864 2381 864 2407 
C 864 2560 1075 2560 1171 2560 
L 1171 2732 
C 1018 2726 736 2726 576 2726 
C 403 2726 205 2726 64 2732 
L 64 2560 
C 307 2560 442 2560 518 2362 
L 1446 44 
C 1485 -51 1491 -64 1549 -64 
C 1606 -64 1613 -51 1651 44 
L 2502 2163 
z
" transform="scale(0.015625)"/>
        <path id="CMR17-67" d="M 710 1164 
C 832 1068 1043 960 1299 960 
C 1805 960 2240 1357 2240 1888 
C 2240 2054 2189 2310 1997 2509 
C 2176 2692 2438 2752 2586 2752 
C 2611 2752 2650 2752 2682 2734 
C 2656 2728 2598 2703 2598 2605 
C 2598 2527 2656 2471 2739 2471 
C 2835 2471 2886 2533 2886 2614 
C 2886 2731 2790 2854 2586 2854 
C 2330 2854 2106 2738 1926 2580 
C 1734 2753 1504 2816 1299 2816 
C 794 2816 358 2419 358 1888 
C 358 1522 570 1292 634 1228 
C 442 1004 442 743 442 711 
C 442 545 506 302 723 168 
C 390 85 128 -169 128 -486 
C 128 -943 736 -1280 1466 -1280 
C 2170 -1280 2803 -956 2803 -479 
C 2803 384 1856 384 1363 384 
C 1216 384 954 384 922 391 
C 723 423 589 602 589 826 
C 589 883 589 1024 710 1164 
z
M 1299 1068 
C 736 1068 736 1760 736 1889 
C 736 2016 736 2708 1299 2708 
C 1862 2708 1862 2016 1862 1889 
C 1862 1760 1862 1068 1299 1068 
z
M 1466 -1171 
C 826 -1171 384 -835 384 -486 
C 384 -289 493 -105 634 -4 
C 794 104 858 104 1293 104 
C 1818 104 2547 104 2547 -486 
C 2547 -835 2106 -1171 1466 -1171 
z
" transform="scale(0.015625)"/>
       </defs>
       <use xlink:href="#CMR17-49" transform="scale(0.996264)"/>
       <use xlink:href="#CMR17-6e" transform="translate(32.638409 0) scale(0.996264)"/>
       <use xlink:href="#CMR17-73" transform="translate(83.533779 0) scale(0.996264)"/>
       <use xlink:href="#CMR17-74" transform="translate(119.335117 0) scale(0.996264)"/>
       <use xlink:href="#CMR17-61" transform="translate(154.615884 0) scale(0.996264)"/>
       <use xlink:href="#CMR17-6e" transform="translate(200.306362 0) scale(0.996264)"/>
       <use xlink:href="#CMR17-64" transform="translate(251.201731 0) scale(0.996264)"/>
       <use xlink:href="#CMR17-2d" transform="translate(302.097101 0) scale(0.996264)"/>
       <use xlink:href="#CMR17-72" transform="translate(332.173067 0) scale(0.996264)"/>
       <use xlink:href="#CMR17-75" transform="translate(367.453835 0) scale(0.996264)"/>
       <use xlink:href="#CMR17-6e" transform="translate(418.349205 0) scale(0.996264)"/>
       <use xlink:href="#CMR17-6f" transform="translate(469.244575 0) scale(0.996264)"/>
       <use xlink:href="#CMR17-b" transform="translate(514.935052 0) scale(0.996264)"/>
       <use xlink:href="#CMR17-76" transform="translate(597.355696 0) scale(0.996264)"/>
       <use xlink:href="#CMR17-6f" transform="translate(643.046157 0) scale(0.996264)"/>
       <use xlink:href="#CMR17-74" transform="translate(688.736635 0) scale(0.996264)"/>
       <use xlink:href="#CMR17-69" transform="translate(724.017402 0) scale(0.996264)"/>
       <use xlink:href="#CMR17-6e" transform="translate(748.888461 0) scale(0.996264)"/>
       <use xlink:href="#CMR17-67" transform="translate(799.783831 0) scale(0.996264)"/>
      </g>
     </g>
    </g>
    <g id="text_6">
     <!-- Number of voters -->
     <g transform="translate(329.964678 414.361688) scale(0.13 -0.13)">
      <defs>
       <path id="CMR17-4e" d="M 1312 4250 
C 1267 4320 1261 4320 1139 4320 
L 326 4320 
L 326 4160 
L 448 4160 
C 704 4160 819 4129 838 4122 
L 838 610 
C 838 451 838 153 326 153 
L 326 -13 
C 474 0 742 0 902 0 
C 1062 0 1331 0 1478 -13 
L 1478 153 
C 966 153 966 451 966 610 
L 966 4033 
C 1011 3995 1011 3982 1056 3919 
L 3430 76 
C 3475 0 3494 0 3526 0 
C 3590 0 3590 19 3590 139 
L 3590 3705 
C 3590 3863 3590 4160 4102 4160 
L 4102 4326 
C 3955 4320 3686 4320 3526 4320 
C 3366 4320 3098 4320 2950 4326 
L 2950 4160 
C 3462 4160 3462 3862 3462 3703 
L 3462 763 
L 1312 4250 
z
" transform="scale(0.015625)"/>
       <path id="CMR17-6d" d="M 4326 1933 
C 4326 2252 4269 2790 3507 2790 
C 3072 2790 2771 2496 2656 2151 
L 2650 2151 
C 2573 2676 2195 2790 1837 2790 
C 1331 2790 1069 2400 973 2144 
L 966 2144 
L 966 2790 
L 211 2720 
L 211 2554 
C 589 2554 646 2515 646 2208 
L 646 428 
C 646 184 621 153 211 153 
L 211 -13 
C 365 0 646 0 813 0 
C 979 0 1267 0 1421 -13 
L 1421 153 
C 1011 153 986 178 986 428 
L 986 1658 
C 986 2247 1344 2688 1792 2688 
C 2266 2688 2317 2266 2317 1958 
L 2317 428 
C 2317 184 2291 153 1882 153 
L 1882 -13 
C 2035 0 2317 0 2483 0 
C 2650 0 2938 0 3091 -13 
L 3091 153 
C 2682 153 2656 178 2656 428 
L 2656 1658 
C 2656 2247 3014 2688 3462 2688 
C 3936 2688 3987 2266 3987 1958 
L 3987 428 
C 3987 184 3962 153 3552 153 
L 3552 -13 
C 3706 0 3987 0 4154 0 
C 4320 0 4608 0 4762 -13 
L 4762 153 
C 4352 153 4326 178 4326 428 
L 4326 1933 
z
" transform="scale(0.015625)"/>
       <path id="CMR17-62" d="M 960 4396 
L 198 4326 
L 198 4160 
C 576 4160 634 4122 634 3817 
L 634 -13 
L 749 -13 
L 934 441 
C 1120 141 1395 -64 1766 -64 
C 2406 -64 3053 500 3053 1370 
C 3053 2188 2477 2790 1830 2790 
C 1434 2790 1152 2579 960 2330 
L 960 4396 
z
M 973 2004 
C 973 2118 973 2138 1062 2272 
C 1312 2657 1670 2688 1792 2688 
C 1984 2688 2643 2585 2643 1376 
C 2643 108 1888 38 1734 38 
C 1536 38 1248 114 1043 486 
C 973 608 973 621 973 735 
L 973 2004 
z
" transform="scale(0.015625)"/>
       <path id="CMR17-66" d="M 979 2560 
L 1709 2560 
L 1709 2725 
L 966 2725 
L 966 3494 
C 966 4022 1235 4352 1510 4352 
C 1594 4352 1690 4327 1754 4282 
C 1702 4269 1568 4225 1568 4067 
C 1568 3901 1696 3850 1786 3850 
C 1875 3850 2003 3901 2003 4067 
C 2003 4308 1773 4454 1517 4454 
C 1152 4454 653 4156 653 3481 
L 653 2725 
L 141 2725 
L 141 2560 
L 653 2560 
L 653 427 
C 653 184 627 153 218 153 
L 218 -13 
C 371 0 666 0 832 0 
C 1018 0 1344 0 1517 -13 
L 1517 153 
C 1056 153 979 153 979 439 
L 979 2560 
z
" transform="scale(0.015625)"/>
      </defs>
      <use xlink:href="#CMR17-4e" transform="scale(0.996264)"/>
      <use xlink:href="#CMR17-75" transform="translate(69.07243 0) scale(0.996264)"/>
      <use xlink:href="#CMR17-6d" transform="translate(119.9678 0) scale(0.996264)"/>
      <use xlink:href="#CMR17-62" transform="translate(194.284936 0) scale(0.996264)"/>
      <use xlink:href="#CMR17-65" transform="translate(247.782744 0) scale(0.996264)"/>
      <use xlink:href="#CMR17-72" transform="translate(288.268404 0) scale(0.996264)"/>
      <use xlink:href="#CMR17-6f" transform="translate(353.625139 0) scale(0.996264)"/>
      <use xlink:href="#CMR17-66" transform="translate(399.315616 0) scale(0.996264)"/>
      <use xlink:href="#CMR17-76" transform="translate(456.865095 0) scale(0.996264)"/>
      <use xlink:href="#CMR17-6f" transform="translate(502.555556 0) scale(0.996264)"/>
      <use xlink:href="#CMR17-74" transform="translate(548.246034 0) scale(0.996264)"/>
      <use xlink:href="#CMR17-65" transform="translate(583.526801 0) scale(0.996264)"/>
      <use xlink:href="#CMR17-72" transform="translate(624.012462 0) scale(0.996264)"/>
      <use xlink:href="#CMR17-73" transform="translate(659.29323 0) scale(0.996264)"/>
     </g>
    </g>
   </g>
   <g id="matplotlib.axis_2">
    <g id="ytick_1">
     <g id="line2d_6">
      <path d="M 51.635416 368.512219 
L 704.88 368.512219 
" clip-path="url(#p3c03861d44)" style="fill: none; stroke: #b0b0b0; stroke-opacity: 0.3; stroke-linecap: square"/>
     </g>
     <g id="line2d_7">
      <defs>
       <path id="m6d1bc71fdd" d="M 0 0 
L -3.5 0 
" style="stroke: #000000; stroke-width: 0.8"/>
      </defs>
      <g>
       <use xlink:href="#m6d1bc71fdd" x="51.635416" y="368.512219" style="stroke: #000000; stroke-width: 0.8"/>
      </g>
     </g>
     <g id="text_7">
      <!-- $\mathdefault{1.0}$ -->
      <g transform="translate(30.63234 372.317392) scale(0.11 -0.11)">
       <defs>
        <path id="CMR17-31" d="M 1702 4058 
C 1702 4192 1696 4192 1606 4192 
C 1357 3916 979 3827 621 3827 
C 602 3827 570 3827 563 3808 
C 557 3795 557 3782 557 3648 
C 755 3648 1088 3686 1344 3839 
L 1344 461 
C 1344 236 1331 160 781 160 
L 589 160 
L 589 0 
C 896 0 1216 0 1523 0 
C 1830 0 2150 0 2458 0 
L 2458 160 
L 2266 160 
C 1715 160 1702 230 1702 458 
L 1702 4058 
z
" transform="scale(0.015625)"/>
        <path id="CMMI12-3a" d="M 1178 307 
C 1178 492 1024 619 870 619 
C 685 619 557 466 557 313 
C 557 128 710 0 864 0 
C 1050 0 1178 153 1178 307 
z
" transform="scale(0.015625)"/>
        <path id="CMR17-30" d="M 2688 2025 
C 2688 2416 2682 3080 2413 3591 
C 2176 4039 1798 4198 1466 4198 
C 1158 4198 768 4058 525 3597 
C 269 3118 243 2524 243 2025 
C 243 1661 250 1106 448 619 
C 723 -39 1216 -128 1466 -128 
C 1760 -128 2208 -7 2470 600 
C 2662 1042 2688 1559 2688 2025 
z
M 1466 -26 
C 1056 -26 813 325 723 812 
C 653 1188 653 1738 653 2096 
C 653 2588 653 2997 736 3387 
C 858 3929 1216 4096 1466 4096 
C 1728 4096 2067 3923 2189 3400 
C 2272 3036 2278 2607 2278 2096 
C 2278 1680 2278 1169 2202 792 
C 2067 95 1690 -26 1466 -26 
z
" transform="scale(0.015625)"/>
       </defs>
       <use xlink:href="#CMR17-31" transform="scale(0.996264)"/>
       <use xlink:href="#CMMI12-3a" transform="translate(45.690477 0) scale(0.996264)"/>
       <use xlink:href="#CMR17-30" transform="translate(72.787654 0) scale(0.996264)"/>
      </g>
     </g>
    </g>
    <g id="ytick_2">
     <g id="line2d_8">
      <path d="M 51.635416 290.470356 
L 704.88 290.470356 
" clip-path="url(#p3c03861d44)" style="fill: none; stroke: #b0b0b0; stroke-opacity: 0.3; stroke-linecap: square"/>
     </g>
     <g id="line2d_9">
      <g>
       <use xlink:href="#m6d1bc71fdd" x="51.635416" y="290.470356" style="stroke: #000000; stroke-width: 0.8"/>
      </g>
     </g>
     <g id="text_8">
      <!-- $\mathdefault{1.5}$ -->
      <g transform="translate(30.63234 294.275529) scale(0.11 -0.11)">
       <defs>
        <path id="CMR17-35" d="M 730 3692 
C 794 3666 1056 3584 1325 3584 
C 1920 3584 2246 3911 2432 4100 
C 2432 4157 2432 4192 2394 4192 
C 2387 4192 2374 4192 2323 4163 
C 2099 4058 1837 3973 1517 3973 
C 1325 3973 1037 3999 723 4139 
C 653 4171 640 4171 634 4171 
C 602 4171 595 4164 595 4037 
L 595 2203 
C 595 2089 595 2057 659 2057 
C 691 2057 704 2070 736 2114 
C 941 2401 1222 2522 1542 2522 
C 1766 2522 2246 2382 2246 1289 
C 2246 1085 2246 715 2054 421 
C 1894 159 1645 25 1370 25 
C 947 25 518 320 403 814 
C 429 807 480 795 506 795 
C 589 795 749 840 749 1038 
C 749 1210 627 1280 506 1280 
C 358 1280 262 1190 262 1011 
C 262 454 704 -128 1382 -128 
C 2042 -128 2669 440 2669 1264 
C 2669 2030 2170 2624 1549 2624 
C 1222 2624 947 2503 730 2274 
L 730 3692 
z
" transform="scale(0.015625)"/>
       </defs>
       <use xlink:href="#CMR17-31" transform="scale(0.996264)"/>
       <use xlink:href="#CMMI12-3a" transform="translate(45.690477 0) scale(0.996264)"/>
       <use xlink:href="#CMR17-35" transform="translate(72.787654 0) scale(0.996264)"/>
      </g>
     </g>
    </g>
    <g id="ytick_3">
     <g id="line2d_10">
      <path d="M 51.635416 212.428492 
L 704.88 212.428492 
" clip-path="url(#p3c03861d44)" style="fill: none; stroke: #b0b0b0; stroke-opacity: 0.3; stroke-linecap: square"/>
     </g>
     <g id="line2d_11">
      <g>
       <use xlink:href="#m6d1bc71fdd" x="51.635416" y="212.428492" style="stroke: #000000; stroke-width: 0.8"/>
      </g>
     </g>
     <g id="text_9">
      <!-- $\mathdefault{2.0}$ -->
      <g transform="translate(30.63234 216.233666) scale(0.11 -0.11)">
       <defs>
        <path id="CMR17-32" d="M 2669 989 
L 2554 989 
C 2490 536 2438 459 2413 420 
C 2381 369 1920 369 1830 369 
L 602 369 
C 832 619 1280 1072 1824 1597 
C 2214 1967 2669 2402 2669 3035 
C 2669 3790 2067 4224 1395 4224 
C 691 4224 262 3604 262 3030 
C 262 2780 448 2748 525 2748 
C 589 2748 781 2787 781 3010 
C 781 3207 614 3264 525 3264 
C 486 3264 448 3258 422 3245 
C 544 3790 915 4058 1306 4058 
C 1862 4058 2227 3617 2227 3035 
C 2227 2479 1901 2000 1536 1584 
L 262 146 
L 262 0 
L 2515 0 
L 2669 989 
z
" transform="scale(0.015625)"/>
       </defs>
       <use xlink:href="#CMR17-32" transform="scale(0.996264)"/>
       <use xlink:href="#CMMI12-3a" transform="translate(45.690477 0) scale(0.996264)"/>
       <use xlink:href="#CMR17-30" transform="translate(72.787654 0) scale(0.996264)"/>
      </g>
     </g>
    </g>
    <g id="ytick_4">
     <g id="line2d_12">
      <path d="M 51.635416 134.386629 
L 704.88 134.386629 
" clip-path="url(#p3c03861d44)" style="fill: none; stroke: #b0b0b0; stroke-opacity: 0.3; stroke-linecap: square"/>
     </g>
     <g id="line2d_13">
      <g>
       <use xlink:href="#m6d1bc71fdd" x="51.635416" y="134.386629" style="stroke: #000000; stroke-width: 0.8"/>
      </g>
     </g>
     <g id="text_10">
      <!-- $\mathdefault{2.5}$ -->
      <g transform="translate(30.63234 138.191802) scale(0.11 -0.11)">
       <use xlink:href="#CMR17-32" transform="scale(0.996264)"/>
       <use xlink:href="#CMMI12-3a" transform="translate(45.690477 0) scale(0.996264)"/>
       <use xlink:href="#CMR17-35" transform="translate(72.787654 0) scale(0.996264)"/>
      </g>
     </g>
    </g>
    <g id="ytick_5">
     <g id="line2d_14">
      <path d="M 51.635416 56.344766 
L 704.88 56.344766 
" clip-path="url(#p3c03861d44)" style="fill: none; stroke: #b0b0b0; stroke-opacity: 0.3; stroke-linecap: square"/>
     </g>
     <g id="line2d_15">
      <g>
       <use xlink:href="#m6d1bc71fdd" x="51.635416" y="56.344766" style="stroke: #000000; stroke-width: 0.8"/>
      </g>
     </g>
     <g id="text_11">
      <!-- $\mathdefault{3.0}$ -->
      <g transform="translate(30.63234 60.149939) scale(0.11 -0.11)">
       <defs>
        <path id="CMR17-33" d="M 1414 2157 
C 1984 2157 2234 1662 2234 1090 
C 2234 320 1824 25 1453 25 
C 1114 25 563 194 390 693 
C 422 680 454 680 486 680 
C 640 680 755 782 755 948 
C 755 1133 614 1216 486 1216 
C 378 1216 211 1165 211 926 
C 211 335 787 -128 1466 -128 
C 2176 -128 2720 430 2720 1085 
C 2720 1707 2208 2157 1600 2227 
C 2086 2328 2554 2756 2554 3329 
C 2554 3820 2048 4179 1472 4179 
C 890 4179 378 3829 378 3329 
C 378 3110 544 3072 627 3072 
C 762 3072 877 3155 877 3321 
C 877 3486 762 3569 627 3569 
C 602 3569 570 3569 544 3557 
C 730 3959 1235 4032 1459 4032 
C 1683 4032 2106 3925 2106 3320 
C 2106 3143 2080 2828 1862 2550 
C 1670 2304 1453 2304 1242 2284 
C 1210 2284 1062 2269 1037 2269 
C 992 2263 966 2257 966 2208 
C 966 2163 973 2157 1101 2157 
L 1414 2157 
z
" transform="scale(0.015625)"/>
       </defs>
       <use xlink:href="#CMR17-33" transform="scale(0.996264)"/>
       <use xlink:href="#CMMI12-3a" transform="translate(45.690477 0) scale(0.996264)"/>
       <use xlink:href="#CMR17-30" transform="translate(72.787654 0) scale(0.996264)"/>
      </g>
     </g>
    </g>
    <g id="text_12">
     <!-- Distortion -->
     <g transform="translate(24.114028 235.497321) rotate(-90) scale(0.13 -0.13)">
      <defs>
       <path id="CMR17-44" d="M 333 4352 
L 333 4186 
C 774 4186 845 4186 845 3900 
L 845 452 
C 845 166 774 166 333 166 
L 333 0 
L 2368 0 
C 3398 0 4224 943 4224 2141 
C 4224 3346 3411 4352 2368 4352 
L 333 4352 
z
M 1523 166 
C 1267 166 1254 197 1254 414 
L 1254 3938 
C 1254 4155 1267 4186 1523 4186 
L 2240 4186 
C 2771 4186 3750 3874 3750 2141 
C 3750 1242 3488 879 3366 707 
C 3213 510 2848 166 2240 166 
L 1523 166 
z
" transform="scale(0.015625)"/>
      </defs>
      <use xlink:href="#CMR17-44" transform="scale(0.996264)"/>
      <use xlink:href="#CMR17-69" transform="translate(70.393556 0) scale(0.996264)"/>
      <use xlink:href="#CMR17-73" transform="translate(95.264614 0) scale(0.996264)"/>
      <use xlink:href="#CMR17-74" transform="translate(131.065952 0) scale(0.996264)"/>
      <use xlink:href="#CMR17-6f" transform="translate(166.34672 0) scale(0.996264)"/>
      <use xlink:href="#CMR17-72" transform="translate(212.037197 0) scale(0.996264)"/>
      <use xlink:href="#CMR17-74" transform="translate(247.317965 0) scale(0.996264)"/>
      <use xlink:href="#CMR17-69" transform="translate(282.598733 0) scale(0.996264)"/>
      <use xlink:href="#CMR17-6f" transform="translate(307.469791 0) scale(0.996264)"/>
      <use xlink:href="#CMR17-6e" transform="translate(353.160268 0) scale(0.996264)"/>
     </g>
    </g>
   </g>
   <g id="LineCollection_1">
    <path d="M 97.824427 338.624634 
L 130.816578 338.624634 
" clip-path="url(#p3c03861d44)" style="fill: none; stroke: #1f77b4; stroke-width: 1.5"/>
    <path d="M 229.79303 334.061212 
L 262.785181 334.061212 
" clip-path="url(#p3c03861d44)" style="fill: none; stroke: #1f77b4; stroke-width: 1.5"/>
    <path d="M 361.761633 336.855829 
L 394.753784 336.855829 
" clip-path="url(#p3c03861d44)" style="fill: none; stroke: #1f77b4; stroke-width: 1.5"/>
    <path d="M 493.730236 332.945948 
L 526.722386 332.945948 
" clip-path="url(#p3c03861d44)" style="fill: none; stroke: #1f77b4; stroke-width: 1.5"/>
    <path d="M 625.698838 339.420157 
L 658.690989 339.420157 
" clip-path="url(#p3c03861d44)" style="fill: none; stroke: #1f77b4; stroke-width: 1.5"/>
   </g>
   <g id="LineCollection_2">
    <path d="M 97.824427 200.692874 
L 130.816578 200.692874 
" clip-path="url(#p3c03861d44)" style="fill: none; stroke: #1f77b4; stroke-width: 1.5"/>
    <path d="M 229.79303 164.50805 
L 262.785181 164.50805 
" clip-path="url(#p3c03861d44)" style="fill: none; stroke: #1f77b4; stroke-width: 1.5"/>
    <path d="M 361.761633 190.899702 
L 394.753784 190.899702 
" clip-path="url(#p3c03861d44)" style="fill: none; stroke: #1f77b4; stroke-width: 1.5"/>
    <path d="M 493.730236 46.228228 
L 526.722386 46.228228 
" clip-path="url(#p3c03861d44)" style="fill: none; stroke: #1f77b4; stroke-width: 1.5"/>
    <path d="M 625.698838 190.130817 
L 658.690989 190.130817 
" clip-path="url(#p3c03861d44)" style="fill: none; stroke: #1f77b4; stroke-width: 1.5"/>
   </g>
   <g id="LineCollection_3">
    <path d="M 97.824427 368.512219 
L 130.816578 368.512219 
" clip-path="url(#p3c03861d44)" style="fill: none; stroke: #1f77b4; stroke-width: 1.5"/>
    <path d="M 229.79303 368.512219 
L 262.785181 368.512219 
" clip-path="url(#p3c03861d44)" style="fill: none; stroke: #1f77b4; stroke-width: 1.5"/>
    <path d="M 361.761633 368.512219 
L 394.753784 368.512219 
" clip-path="url(#p3c03861d44)" style="fill: none; stroke: #1f77b4; stroke-width: 1.5"/>
    <path d="M 493.730236 368.512219 
L 526.722386 368.512219 
" clip-path="url(#p3c03861d44)" style="fill: none; stroke: #1f77b4; stroke-width: 1.5"/>
    <path d="M 625.698838 368.512219 
L 658.690989 368.512219 
" clip-path="url(#p3c03861d44)" style="fill: none; stroke: #1f77b4; stroke-width: 1.5"/>
   </g>
   <g id="LineCollection_4">
    <path d="M 114.320503 368.512219 
L 114.320503 200.692874 
" clip-path="url(#p3c03861d44)" style="fill: none; stroke: #1f77b4; stroke-width: 1.5"/>
    <path d="M 246.289105 368.512219 
L 246.289105 164.50805 
" clip-path="url(#p3c03861d44)" style="fill: none; stroke: #1f77b4; stroke-width: 1.5"/>
    <path d="M 378.257708 368.512219 
L 378.257708 190.899702 
" clip-path="url(#p3c03861d44)" style="fill: none; stroke: #1f77b4; stroke-width: 1.5"/>
    <path d="M 510.226311 368.512219 
L 510.226311 46.228228 
" clip-path="url(#p3c03861d44)" style="fill: none; stroke: #1f77b4; stroke-width: 1.5"/>
    <path d="M 642.194914 368.512219 
L 642.194914 190.130817 
" clip-path="url(#p3c03861d44)" style="fill: none; stroke: #1f77b4; stroke-width: 1.5"/>
   </g>
   <g id="patch_3">
    <path d="M 51.635416 384.626418 
L 51.635416 30.114028 
" style="fill: none; stroke: #000000; stroke-linejoin: miter; stroke-linecap: square"/>
   </g>
   <g id="patch_4">
    <path d="M 704.88 384.626418 
L 704.88 30.114028 
" style="fill: none; stroke: #000000; stroke-linejoin: miter; stroke-linecap: square"/>
   </g>
   <g id="patch_5">
    <path d="M 51.635416 384.626418 
L 704.88 384.626418 
" style="fill: none; stroke: #000000; stroke-linejoin: miter; stroke-linecap: square"/>
   </g>
   <g id="patch_6">
    <path d="M 51.635416 30.114028 
L 704.88 30.114028 
" style="fill: none; stroke: #000000; stroke-linejoin: miter; stroke-linecap: square"/>
   </g>
   <g id="text_13">
    <!-- Distortion Under Nietzschean -->
    <g transform="translate(296.027467 24.114028) scale(0.13 -0.13)">
     <defs>
      <path id="CMR17-55" d="M 3456 1433 
C 3456 579 2899 38 2291 38 
C 1965 38 1670 210 1491 477 
C 1286 783 1261 1178 1261 1401 
L 1261 3874 
C 1261 4160 1331 4160 1773 4160 
L 1773 4320 
C 1587 4320 1248 4320 1050 4320 
C 851 4320 512 4320 326 4320 
L 326 4160 
C 768 4160 838 4160 838 3874 
L 838 1433 
C 838 516 1536 -128 2278 -128 
C 3110 -128 3590 719 3590 1344 
L 3590 3766 
C 3590 4122 3917 4160 4102 4160 
L 4102 4326 
C 3955 4320 3686 4320 3526 4320 
C 3366 4320 3091 4320 2944 4326 
L 2944 4160 
C 3456 4160 3456 3861 3456 3702 
L 3456 1433 
z
" transform="scale(0.015625)"/>
      <path id="CMR17-7a" d="M 2310 2605 
C 2362 2670 2362 2682 2362 2695 
C 2362 2752 2336 2752 2221 2752 
L 275 2752 
L 211 1760 
L 326 1760 
C 371 2381 442 2650 1178 2650 
L 1958 2650 
L 128 96 
C 128 0 134 0 269 0 
L 2291 0 
L 2381 1152 
L 2266 1152 
C 2214 442 2131 115 1350 115 
L 531 115 
L 2310 2605 
z
" transform="scale(0.015625)"/>
      <path id="CMR17-68" d="M 2656 1933 
C 2656 2259 2592 2790 1837 2790 
C 1312 2790 1056 2368 979 2157 
L 973 2157 
L 973 4396 
L 211 4326 
L 211 4160 
C 589 4160 646 4122 646 3817 
L 646 426 
C 646 184 621 153 211 153 
L 211 -13 
C 365 0 646 0 813 0 
C 979 0 1267 0 1421 -13 
L 1421 153 
C 1011 153 986 178 986 428 
L 986 1658 
C 986 2247 1344 2688 1792 2688 
C 2266 2688 2317 2266 2317 1958 
L 2317 428 
C 2317 184 2291 153 1882 153 
L 1882 -13 
C 2035 0 2317 0 2483 0 
C 2650 0 2938 0 3091 -13 
L 3091 153 
C 2682 153 2656 178 2656 428 
L 2656 1933 
z
" transform="scale(0.015625)"/>
     </defs>
     <use xlink:href="#CMR17-44" transform="scale(0.996264)"/>
     <use xlink:href="#CMR17-69" transform="translate(70.393556 0) scale(0.996264)"/>
     <use xlink:href="#CMR17-73" transform="translate(95.264614 0) scale(0.996264)"/>
     <use xlink:href="#CMR17-74" transform="translate(131.065952 0) scale(0.996264)"/>
     <use xlink:href="#CMR17-6f" transform="translate(166.34672 0) scale(0.996264)"/>
     <use xlink:href="#CMR17-72" transform="translate(212.037197 0) scale(0.996264)"/>
     <use xlink:href="#CMR17-74" transform="translate(247.317965 0) scale(0.996264)"/>
     <use xlink:href="#CMR17-69" transform="translate(282.598733 0) scale(0.996264)"/>
     <use xlink:href="#CMR17-6f" transform="translate(307.469791 0) scale(0.996264)"/>
     <use xlink:href="#CMR17-6e" transform="translate(353.160268 0) scale(0.996264)"/>
     <use xlink:href="#CMR17-55" transform="translate(434.131604 0) scale(0.996264)"/>
     <use xlink:href="#CMR17-6e" transform="translate(503.204034 0) scale(0.996264)"/>
     <use xlink:href="#CMR17-64" transform="translate(554.099404 0) scale(0.996264)"/>
     <use xlink:href="#CMR17-65" transform="translate(604.994774 0) scale(0.996264)"/>
     <use xlink:href="#CMR17-72" transform="translate(645.480434 0) scale(0.996264)"/>
     <use xlink:href="#CMR17-4e" transform="translate(710.837168 0) scale(0.996264)"/>
     <use xlink:href="#CMR17-69" transform="translate(779.909598 0) scale(0.996264)"/>
     <use xlink:href="#CMR17-65" transform="translate(804.780657 0) scale(0.996264)"/>
     <use xlink:href="#CMR17-74" transform="translate(845.266317 0) scale(0.996264)"/>
     <use xlink:href="#CMR17-7a" transform="translate(880.547085 0) scale(0.996264)"/>
     <use xlink:href="#CMR17-73" transform="translate(921.032745 0) scale(0.996264)"/>
     <use xlink:href="#CMR17-63" transform="translate(956.834083 0) scale(0.996264)"/>
     <use xlink:href="#CMR17-68" transform="translate(994.717289 0) scale(0.996264)"/>
     <use xlink:href="#CMR17-65" transform="translate(1045.612659 0) scale(0.996264)"/>
     <use xlink:href="#CMR17-61" transform="translate(1086.09832 0) scale(0.996264)"/>
     <use xlink:href="#CMR17-6e" transform="translate(1131.788797 0) scale(0.996264)"/>
    </g>
   </g>
  </g>
 </g>
 <defs>
  <clipPath id="p3c03861d44">
   <rect x="51.635416" y="30.114028" width="653.244584" height="354.51239"/>
  </clipPath>
 </defs>
</svg>
