<?xml version="1.0" encoding="utf-8" standalone="no"?>
<!DOCTYPE svg PUBLIC "-//W3C//DTD SVG 1.1//EN"
  "http://www.w3.org/Graphics/SVG/1.1/DTD/svg11.dtd">
<svg xmlns:xlink="http://www.w3.org/1999/xlink" width="720pt" height="432pt" viewBox="0 0 720 432" xmlns="http://www.w3.org/2000/svg" version="1.1">
 <metadata>
  <rdf:RDF xmlns:dc="http://purl.org/dc/elements/1.1/" xmlns:cc="http://creativecommons.org/ns#" xmlns:rdf="http://www.w3.org/1999/02/22-rdf-syntax-ns#">
   <cc:Work>
    <dc:type rdf:resource="http://purl.org/dc/dcmitype/StillImage"/>
    <dc:date>2024-12-06T15:46:39.309206</dc:date>
    <dc:format>image/svg+xml</dc:format>
    <dc:creator>
     <cc:Agent>
      <dc:title>Matplotlib v3.9.2, https://matplotlib.org/</dc:title>
     </cc:Agent>
    </dc:creator>
   </cc:Work>
  </rdf:RDF>
 </metadata>
 <defs>
  <style type="text/css">*{stroke-linejoin: round; stroke-linecap: butt}</style>
 </defs>
 <g id="figure_1">
  <g id="patch_1">
   <path d="M 0 432 
L 720 432 
L 720 0 
L 0 0 
z
" style="fill: #ffffff"/>
  </g>
  <g id="axes_1">
   <g id="patch_2">
    <path d="M 57.114884 384.626418 
L 704.88 384.626418 
L 704.88 30.114028 
L 57.114884 30.114028 
z
" style="fill: #ffffff"/>
   </g>
   <g id="PolyCollection_1">
    <defs>
     <path id="m04846a0884" d="M 169.862133 -63.487781 
L 87.380712 -63.487781 
L 87.055643 -66.743175 
L 86.810519 -69.998569 
L 86.645996 -73.253963 
L 86.562205 -76.509357 
L 86.558753 -79.76475 
L 86.634734 -83.020144 
L 86.788744 -86.275538 
L 87.018894 -89.530932 
L 87.322843 -92.786326 
L 87.69782 -96.04172 
L 88.14066 -99.297113 
L 88.647841 -102.552507 
L 89.215521 -105.807901 
L 89.839582 -109.063295 
L 90.515677 -112.318689 
L 91.239268 -115.574083 
L 92.005678 -118.829477 
L 92.810135 -122.08487 
L 93.647815 -125.340264 
L 94.51389 -128.595658 
L 95.403569 -131.851052 
L 96.312137 -135.106446 
L 97.234995 -138.36184 
L 98.167692 -141.617234 
L 99.105961 -144.872627 
L 100.045743 -148.128021 
L 100.983214 -151.383415 
L 101.914802 -154.638809 
L 102.837208 -157.894203 
L 103.747414 -161.149597 
L 104.642697 -164.40499 
L 105.520627 -167.660384 
L 106.379073 -170.915778 
L 107.216199 -174.171172 
L 108.030456 -177.426566 
L 108.820577 -180.68196 
L 109.585561 -183.937354 
L 110.324661 -187.192747 
L 111.037368 -190.448141 
L 111.723394 -193.703535 
L 112.382647 -196.958929 
L 113.015217 -200.214323 
L 113.621351 -203.469717 
L 114.201434 -206.725111 
L 114.755964 -209.980504 
L 115.285534 -213.235898 
L 115.79081 -216.491292 
L 116.272512 -219.746686 
L 116.731395 -223.00208 
L 117.168232 -226.257474 
L 117.583798 -229.512867 
L 117.978859 -232.768261 
L 118.354156 -236.023655 
L 118.7104 -239.279049 
L 119.048259 -242.534443 
L 119.368356 -245.789837 
L 119.671263 -249.045231 
L 119.957501 -252.300624 
L 120.227538 -255.556018 
L 120.481793 -258.811412 
L 120.720635 -262.066806 
L 120.944395 -265.3222 
L 121.153365 -268.577594 
L 121.347807 -271.832988 
L 121.527965 -275.088381 
L 121.694067 -278.343775 
L 121.84634 -281.599169 
L 121.985013 -284.854563 
L 122.110334 -288.109957 
L 122.222569 -291.365351 
L 122.322019 -294.620744 
L 122.409022 -297.876138 
L 122.483964 -301.131532 
L 122.547278 -304.386926 
L 122.599459 -307.64232 
L 122.641055 -310.897714 
L 122.672681 -314.153108 
L 122.69501 -317.408501 
L 122.708779 -320.663895 
L 122.714784 -323.919289 
L 122.713876 -327.174683 
L 122.706957 -330.430077 
L 122.694975 -333.685471 
L 122.678917 -336.940865 
L 122.659798 -340.196258 
L 122.638656 -343.451652 
L 122.616539 -346.707046 
L 122.594497 -349.96244 
L 122.573573 -353.217834 
L 122.554787 -356.473228 
L 122.539131 -359.728622 
L 122.527557 -362.984015 
L 122.520964 -366.239409 
L 122.520192 -369.494803 
L 122.526014 -372.750197 
L 122.539125 -376.005591 
L 122.560134 -379.260985 
L 122.589565 -382.516378 
L 122.627845 -385.771772 
L 134.615 -385.771772 
L 134.615 -385.771772 
L 134.65328 -382.516378 
L 134.682711 -379.260985 
L 134.70372 -376.005591 
L 134.716831 -372.750197 
L 134.722653 -369.494803 
L 134.721881 -366.239409 
L 134.715288 -362.984015 
L 134.703714 -359.728622 
L 134.688058 -356.473228 
L 134.669272 -353.217834 
L 134.648348 -349.96244 
L 134.626306 -346.707046 
L 134.604189 -343.451652 
L 134.583047 -340.196258 
L 134.563928 -336.940865 
L 134.54787 -333.685471 
L 134.535888 -330.430077 
L 134.528969 -327.174683 
L 134.528061 -323.919289 
L 134.534066 -320.663895 
L 134.547835 -317.408501 
L 134.570164 -314.153108 
L 134.60179 -310.897714 
L 134.643386 -307.64232 
L 134.695567 -304.386926 
L 134.758881 -301.131532 
L 134.833823 -297.876138 
L 134.920826 -294.620744 
L 135.020276 -291.365351 
L 135.132511 -288.109957 
L 135.257832 -284.854563 
L 135.396505 -281.599169 
L 135.548778 -278.343775 
L 135.71488 -275.088381 
L 135.895038 -271.832988 
L 136.08948 -268.577594 
L 136.29845 -265.3222 
L 136.52221 -262.066806 
L 136.761052 -258.811412 
L 137.015307 -255.556018 
L 137.285344 -252.300624 
L 137.571582 -249.045231 
L 137.874489 -245.789837 
L 138.194586 -242.534443 
L 138.532445 -239.279049 
L 138.888689 -236.023655 
L 139.263986 -232.768261 
L 139.659047 -229.512867 
L 140.074613 -226.257474 
L 140.51145 -223.00208 
L 140.970333 -219.746686 
L 141.452035 -216.491292 
L 141.957311 -213.235898 
L 142.486881 -209.980504 
L 143.041411 -206.725111 
L 143.621494 -203.469717 
L 144.227628 -200.214323 
L 144.860198 -196.958929 
L 145.519451 -193.703535 
L 146.205477 -190.448141 
L 146.918184 -187.192747 
L 147.657284 -183.937354 
L 148.422268 -180.68196 
L 149.212389 -177.426566 
L 150.026646 -174.171172 
L 150.863772 -170.915778 
L 151.722218 -167.660384 
L 152.600148 -164.40499 
L 153.495431 -161.149597 
L 154.405637 -157.894203 
L 155.328043 -154.638809 
L 156.259631 -151.383415 
L 157.197102 -148.128021 
L 158.136884 -144.872627 
L 159.075153 -141.617234 
L 160.00785 -138.36184 
L 160.930708 -135.106446 
L 161.839276 -131.851052 
L 162.728955 -128.595658 
L 163.59503 -125.340264 
L 164.43271 -122.08487 
L 165.237167 -118.829477 
L 166.003577 -115.574083 
L 166.727168 -112.318689 
L 167.403263 -109.063295 
L 168.027324 -105.807901 
L 168.595004 -102.552507 
L 169.102185 -99.297113 
L 169.545025 -96.04172 
L 169.920002 -92.786326 
L 170.223951 -89.530932 
L 170.454101 -86.275538 
L 170.608111 -83.020144 
L 170.684092 -79.76475 
L 170.68064 -76.509357 
L 170.596849 -73.253963 
L 170.432326 -69.998569 
L 170.187202 -66.743175 
L 169.862133 -63.487781 
z
" style="stroke: #000000; stroke-opacity: 0.4"/>
    </defs>
    <g clip-path="url(#p30368c7d6d)">
     <use xlink:href="#m04846a0884" x="0" y="432" style="fill: #440154; fill-opacity: 0.4; stroke: #000000; stroke-opacity: 0.4"/>
    </g>
   </g>
   <g id="PolyCollection_2">
    <defs>
     <path id="meca81a2ada" d="M 338.532853 -63.487781 
L 255.211351 -63.487781 
L 254.97834 -64.844195 
L 254.844168 -66.200609 
L 254.809432 -67.557023 
L 254.87401 -68.913438 
L 255.037069 -70.269852 
L 255.297079 -71.626266 
L 255.651836 -72.98268 
L 256.09849 -74.339094 
L 256.633586 -75.695508 
L 257.253108 -77.051922 
L 257.952527 -78.408336 
L 258.726857 -79.76475 
L 259.570714 -81.121164 
L 260.478377 -82.477579 
L 261.443853 -83.833993 
L 262.460943 -85.190407 
L 263.5233 -86.546821 
L 264.624504 -87.903235 
L 265.758113 -89.259649 
L 266.917729 -90.616063 
L 268.097055 -91.972477 
L 269.289942 -93.328891 
L 270.490441 -94.685306 
L 271.692846 -96.04172 
L 272.891728 -97.398134 
L 274.081971 -98.754548 
L 275.2588 -100.110962 
L 276.417797 -101.467376 
L 277.55492 -102.82379 
L 278.666513 -104.180204 
L 279.749313 -105.536618 
L 280.800446 -106.893032 
L 281.817427 -108.249447 
L 282.798151 -109.605861 
L 283.74088 -110.962275 
L 284.644231 -112.318689 
L 285.507154 -113.675103 
L 286.328916 -115.031517 
L 287.10908 -116.387931 
L 287.847475 -117.744345 
L 288.544183 -119.100759 
L 289.199505 -120.457173 
L 289.813941 -121.813588 
L 290.388165 -123.170002 
L 290.923001 -124.526416 
L 291.4194 -125.88283 
L 291.878417 -127.239244 
L 292.301193 -128.595658 
L 292.688932 -129.952072 
L 293.042885 -131.308486 
L 293.364335 -132.6649 
L 293.65458 -134.021315 
L 293.914922 -135.377729 
L 294.146655 -136.734143 
L 294.351058 -138.090557 
L 294.529384 -139.446971 
L 294.682858 -140.803385 
L 294.81267 -142.159799 
L 294.919973 -143.516213 
L 295.005882 -144.872627 
L 295.071477 -146.229041 
L 295.117798 -147.585456 
L 295.145851 -148.94187 
L 295.156613 -150.298284 
L 295.151031 -151.654698 
L 295.130032 -153.011112 
L 295.094523 -154.367526 
L 295.045397 -155.72394 
L 294.983542 -157.080354 
L 294.909841 -158.436768 
L 294.825182 -159.793183 
L 294.730457 -161.149597 
L 294.626572 -162.506011 
L 294.514446 -163.862425 
L 294.395014 -165.218839 
L 294.269234 -166.575253 
L 294.138082 -167.931667 
L 294.002555 -169.288081 
L 293.863669 -170.644495 
L 293.722459 -172.000909 
L 293.579974 -173.357324 
L 293.437275 -174.713738 
L 293.295427 -176.070152 
L 293.155499 -177.426566 
L 293.01855 -178.78298 
L 292.885628 -180.139394 
L 292.757759 -181.495808 
L 292.635941 -182.852222 
L 292.521134 -184.208636 
L 292.41425 -185.56505 
L 292.316148 -186.921465 
L 292.227624 -188.277879 
L 292.149402 -189.634293 
L 292.082127 -190.990707 
L 292.026361 -192.347121 
L 291.982574 -193.703535 
L 291.951139 -195.059949 
L 291.93233 -196.416363 
L 291.926319 -197.772777 
L 301.817885 -197.772777 
L 301.817885 -197.772777 
L 301.811874 -196.416363 
L 301.793065 -195.059949 
L 301.76163 -193.703535 
L 301.717843 -192.347121 
L 301.662077 -190.990707 
L 301.594802 -189.634293 
L 301.51658 -188.277879 
L 301.428056 -186.921465 
L 301.329954 -185.56505 
L 301.22307 -184.208636 
L 301.108263 -182.852222 
L 300.986445 -181.495808 
L 300.858577 -180.139394 
L 300.725655 -178.78298 
L 300.588706 -177.426566 
L 300.448777 -176.070152 
L 300.30693 -174.713738 
L 300.16423 -173.357324 
L 300.021745 -172.000909 
L 299.880535 -170.644495 
L 299.741649 -169.288081 
L 299.606122 -167.931667 
L 299.47497 -166.575253 
L 299.34919 -165.218839 
L 299.229759 -163.862425 
L 299.117632 -162.506011 
L 299.013747 -161.149597 
L 298.919022 -159.793183 
L 298.834363 -158.436768 
L 298.760663 -157.080354 
L 298.698807 -155.72394 
L 298.649682 -154.367526 
L 298.614172 -153.011112 
L 298.593173 -151.654698 
L 298.587591 -150.298284 
L 298.598353 -148.94187 
L 298.626407 -147.585456 
L 298.672727 -146.229041 
L 298.738322 -144.872627 
L 298.824232 -143.516213 
L 298.931535 -142.159799 
L 299.061346 -140.803385 
L 299.21482 -139.446971 
L 299.393146 -138.090557 
L 299.597549 -136.734143 
L 299.829283 -135.377729 
L 300.089624 -134.021315 
L 300.379869 -132.6649 
L 300.701319 -131.308486 
L 301.055272 -129.952072 
L 301.443011 -128.595658 
L 301.865787 -127.239244 
L 302.324804 -125.88283 
L 302.821203 -124.526416 
L 303.356039 -123.170002 
L 303.930263 -121.813588 
L 304.544699 -120.457173 
L 305.200021 -119.100759 
L 305.896729 -117.744345 
L 306.635125 -116.387931 
L 307.415288 -115.031517 
L 308.23705 -113.675103 
L 309.099973 -112.318689 
L 310.003324 -110.962275 
L 310.946053 -109.605861 
L 311.926777 -108.249447 
L 312.943758 -106.893032 
L 313.994891 -105.536618 
L 315.077691 -104.180204 
L 316.189284 -102.82379 
L 317.326407 -101.467376 
L 318.485404 -100.110962 
L 319.662233 -98.754548 
L 320.852477 -97.398134 
L 322.051359 -96.04172 
L 323.253763 -94.685306 
L 324.454262 -93.328891 
L 325.647149 -91.972477 
L 326.826475 -90.616063 
L 327.986092 -89.259649 
L 329.1197 -87.903235 
L 330.220904 -86.546821 
L 331.283262 -85.190407 
L 332.300351 -83.833993 
L 333.265827 -82.477579 
L 334.17349 -81.121164 
L 335.017347 -79.76475 
L 335.791677 -78.408336 
L 336.491096 -77.051922 
L 337.110618 -75.695508 
L 337.645714 -74.339094 
L 338.092368 -72.98268 
L 338.447125 -71.626266 
L 338.707135 -70.269852 
L 338.870194 -68.913438 
L 338.934772 -67.557023 
L 338.900036 -66.200609 
L 338.765864 -64.844195 
L 338.532853 -63.487781 
z
" style="stroke: #000000; stroke-opacity: 0.4"/>
    </defs>
    <g clip-path="url(#p30368c7d6d)">
     <use xlink:href="#meca81a2ada" x="0" y="432" style="fill: #31688e; fill-opacity: 0.4; stroke: #000000; stroke-opacity: 0.4"/>
    </g>
   </g>
   <g id="PolyCollection_3">
    <defs>
     <path id="m1b2d24667b" d="M 504.403305 -63.487781 
L 425.842258 -63.487781 
L 425.158277 -65.658044 
L 424.564056 -67.828306 
L 424.063724 -69.998569 
L 423.660753 -72.168831 
L 423.357918 -74.339094 
L 423.157271 -76.509357 
L 423.060112 -78.679619 
L 423.066979 -80.849882 
L 423.177644 -83.020144 
L 423.391119 -85.190407 
L 423.705667 -87.360669 
L 424.11883 -89.530932 
L 424.627458 -91.701194 
L 425.227749 -93.871457 
L 425.915299 -96.04172 
L 426.685148 -98.211982 
L 427.531847 -100.382245 
L 428.449517 -102.552507 
L 429.431915 -104.72277 
L 430.472504 -106.893032 
L 431.564526 -109.063295 
L 432.701067 -111.233558 
L 433.875134 -113.40382 
L 435.079719 -115.574083 
L 436.307867 -117.744345 
L 437.552738 -119.914608 
L 438.807665 -122.08487 
L 440.066209 -124.255133 
L 441.322209 -126.425396 
L 442.56982 -128.595658 
L 443.803556 -130.765921 
L 445.018319 -132.936183 
L 446.209419 -135.106446 
L 447.372599 -137.276708 
L 448.504044 -139.446971 
L 449.600385 -141.617234 
L 450.658705 -143.787496 
L 451.676527 -145.957759 
L 452.651812 -148.128021 
L 453.58294 -150.298284 
L 454.46869 -152.468546 
L 455.308226 -154.638809 
L 456.101065 -156.809071 
L 456.847055 -158.979334 
L 457.546346 -161.149597 
L 458.199359 -163.319859 
L 458.806758 -165.490122 
L 459.369418 -167.660384 
L 459.888397 -169.830647 
L 460.364905 -172.000909 
L 460.800277 -174.171172 
L 461.195947 -176.341435 
L 461.553423 -178.511697 
L 461.874264 -180.68196 
L 462.160057 -182.852222 
L 462.412405 -185.022485 
L 462.632904 -187.192747 
L 462.823134 -189.36301 
L 462.984648 -191.533273 
L 463.118961 -193.703535 
L 463.227545 -195.873798 
L 463.311825 -198.04406 
L 463.373179 -200.214323 
L 463.412933 -202.384585 
L 463.432368 -204.554848 
L 463.432718 -206.725111 
L 463.415179 -208.895373 
L 463.380912 -211.065636 
L 463.331047 -213.235898 
L 463.266693 -215.406161 
L 463.188943 -217.576423 
L 463.098879 -219.746686 
L 462.997582 -221.916948 
L 462.886136 -224.087211 
L 462.765631 -226.257474 
L 462.63717 -228.427736 
L 462.501875 -230.597999 
L 462.360882 -232.768261 
L 462.215347 -234.938524 
L 462.066445 -237.108786 
L 461.915368 -239.279049 
L 461.76332 -241.449312 
L 461.611516 -243.619574 
L 461.461172 -245.789837 
L 461.313504 -247.960099 
L 461.169712 -250.130362 
L 461.030978 -252.300624 
L 460.898455 -254.470887 
L 460.773255 -256.64115 
L 460.656438 -258.811412 
L 460.549006 -260.981675 
L 460.451887 -263.151937 
L 460.36593 -265.3222 
L 460.291893 -267.492462 
L 460.230433 -269.662725 
L 460.182102 -271.832988 
L 460.14734 -274.00325 
L 460.126466 -276.173513 
L 460.11968 -278.343775 
L 470.125883 -278.343775 
L 470.125883 -278.343775 
L 470.119097 -276.173513 
L 470.098224 -274.00325 
L 470.063461 -271.832988 
L 470.015131 -269.662725 
L 469.953671 -267.492462 
L 469.879633 -265.3222 
L 469.793676 -263.151937 
L 469.696557 -260.981675 
L 469.589125 -258.811412 
L 469.472308 -256.64115 
L 469.347108 -254.470887 
L 469.214585 -252.300624 
L 469.075852 -250.130362 
L 468.93206 -247.960099 
L 468.784391 -245.789837 
L 468.634048 -243.619574 
L 468.482243 -241.449312 
L 468.330196 -239.279049 
L 468.179118 -237.108786 
L 468.030217 -234.938524 
L 467.884682 -232.768261 
L 467.743688 -230.597999 
L 467.608393 -228.427736 
L 467.479933 -226.257474 
L 467.359427 -224.087211 
L 467.247981 -221.916948 
L 467.146684 -219.746686 
L 467.05662 -217.576423 
L 466.97887 -215.406161 
L 466.914516 -213.235898 
L 466.864651 -211.065636 
L 466.830384 -208.895373 
L 466.812845 -206.725111 
L 466.813196 -204.554848 
L 466.83263 -202.384585 
L 466.872384 -200.214323 
L 466.933738 -198.04406 
L 467.018019 -195.873798 
L 467.126602 -193.703535 
L 467.260915 -191.533273 
L 467.422429 -189.36301 
L 467.61266 -187.192747 
L 467.833159 -185.022485 
L 468.085506 -182.852222 
L 468.3713 -180.68196 
L 468.69214 -178.511697 
L 469.049616 -176.341435 
L 469.445287 -174.171172 
L 469.880659 -172.000909 
L 470.357166 -169.830647 
L 470.876145 -167.660384 
L 471.438805 -165.490122 
L 472.046204 -163.319859 
L 472.699217 -161.149597 
L 473.398508 -158.979334 
L 474.144499 -156.809071 
L 474.937338 -154.638809 
L 475.776873 -152.468546 
L 476.662624 -150.298284 
L 477.593751 -148.128021 
L 478.569036 -145.957759 
L 479.586859 -143.787496 
L 480.645178 -141.617234 
L 481.74152 -139.446971 
L 482.872964 -137.276708 
L 484.036144 -135.106446 
L 485.227245 -132.936183 
L 486.442007 -130.765921 
L 487.675743 -128.595658 
L 488.923355 -126.425396 
L 490.179354 -124.255133 
L 491.437898 -122.08487 
L 492.692825 -119.914608 
L 493.937696 -117.744345 
L 495.165844 -115.574083 
L 496.370429 -113.40382 
L 497.544496 -111.233558 
L 498.681038 -109.063295 
L 499.773059 -106.893032 
L 500.813648 -104.72277 
L 501.796046 -102.552507 
L 502.713716 -100.382245 
L 503.560415 -98.211982 
L 504.330265 -96.04172 
L 505.017814 -93.871457 
L 505.618106 -91.701194 
L 506.126734 -89.530932 
L 506.539897 -87.360669 
L 506.854445 -85.190407 
L 507.067919 -83.020144 
L 507.178584 -80.849882 
L 507.185452 -78.679619 
L 507.088292 -76.509357 
L 506.887645 -74.339094 
L 506.584811 -72.168831 
L 506.181839 -69.998569 
L 505.681507 -67.828306 
L 505.087286 -65.658044 
L 504.403305 -63.487781 
z
" style="stroke: #000000; stroke-opacity: 0.4"/>
    </defs>
    <g clip-path="url(#p30368c7d6d)">
     <use xlink:href="#m1b2d24667b" x="0" y="432" style="fill: #35b779; fill-opacity: 0.4; stroke: #000000; stroke-opacity: 0.4"/>
    </g>
   </g>
   <g id="PolyCollection_4">
    <defs>
     <path id="mc69862e3c3" d="M 674.624869 -63.487781 
L 592.122054 -63.487781 
L 591.832671 -65.115478 
L 591.606413 -66.743175 
L 591.443879 -68.370872 
L 591.345352 -69.998569 
L 591.310791 -71.626266 
L 591.339842 -73.253963 
L 591.431836 -74.88166 
L 591.585802 -76.509357 
L 591.800474 -78.137053 
L 592.074305 -79.76475 
L 592.405482 -81.392447 
L 592.79194 -83.020144 
L 593.231383 -84.647841 
L 593.721301 -86.275538 
L 594.258993 -87.903235 
L 594.841586 -89.530932 
L 595.46606 -91.158629 
L 596.12927 -92.786326 
L 596.827967 -94.414023 
L 597.558821 -96.04172 
L 598.318449 -97.669417 
L 599.103429 -99.297113 
L 599.910329 -100.92481 
L 600.73572 -102.552507 
L 601.576203 -104.180204 
L 602.428422 -105.807901 
L 603.289086 -107.435598 
L 604.154978 -109.063295 
L 605.022977 -110.690992 
L 605.890065 -112.318689 
L 606.753344 -113.946386 
L 607.61004 -115.574083 
L 608.457516 -117.20178 
L 609.293278 -118.829477 
L 610.114981 -120.457173 
L 610.920431 -122.08487 
L 611.707595 -123.712567 
L 612.474595 -125.340264 
L 613.219714 -126.967961 
L 613.941398 -128.595658 
L 614.638249 -130.223355 
L 615.30903 -131.851052 
L 615.95266 -133.478749 
L 616.568214 -135.106446 
L 617.154914 -136.734143 
L 617.712135 -138.36184 
L 618.239392 -139.989537 
L 618.736344 -141.617234 
L 619.202784 -143.24493 
L 619.638638 -144.872627 
L 620.043959 -146.500324 
L 620.418925 -148.128021 
L 620.763832 -149.755718 
L 621.079088 -151.383415 
L 621.365215 -153.011112 
L 621.622835 -154.638809 
L 621.852673 -156.266506 
L 622.055549 -157.894203 
L 622.232372 -159.5219 
L 622.384137 -161.149597 
L 622.511917 -162.777294 
L 622.61686 -164.40499 
L 622.700185 -166.032687 
L 622.763169 -167.660384 
L 622.80715 -169.288081 
L 622.833515 -170.915778 
L 622.843693 -172.543475 
L 622.839155 -174.171172 
L 622.821397 -175.798869 
L 622.791943 -177.426566 
L 622.75233 -179.054263 
L 622.704106 -180.68196 
L 622.64882 -182.309657 
L 622.588012 -183.937354 
L 622.523213 -185.56505 
L 622.455928 -187.192747 
L 622.387637 -188.820444 
L 622.319779 -190.448141 
L 622.253754 -192.075838 
L 622.190909 -193.703535 
L 622.132533 -195.331232 
L 622.079854 -196.958929 
L 622.034027 -198.586626 
L 621.996134 -200.214323 
L 621.967175 -201.84202 
L 621.948065 -203.469717 
L 621.939633 -205.097414 
L 621.94261 -206.725111 
L 621.957638 -208.352807 
L 621.985257 -209.980504 
L 622.025911 -211.608201 
L 622.079945 -213.235898 
L 622.147602 -214.863595 
L 622.229031 -216.491292 
L 622.32428 -218.118989 
L 622.433303 -219.746686 
L 622.555964 -221.374383 
L 622.692034 -223.00208 
L 622.841203 -224.629777 
L 643.90572 -224.629777 
L 643.90572 -224.629777 
L 644.054888 -223.00208 
L 644.190959 -221.374383 
L 644.313619 -219.746686 
L 644.422643 -218.118989 
L 644.517891 -216.491292 
L 644.59932 -214.863595 
L 644.666978 -213.235898 
L 644.721011 -211.608201 
L 644.761665 -209.980504 
L 644.789285 -208.352807 
L 644.804312 -206.725111 
L 644.80729 -205.097414 
L 644.798857 -203.469717 
L 644.779748 -201.84202 
L 644.750789 -200.214323 
L 644.712895 -198.586626 
L 644.667069 -196.958929 
L 644.614389 -195.331232 
L 644.556014 -193.703535 
L 644.493168 -192.075838 
L 644.427143 -190.448141 
L 644.359286 -188.820444 
L 644.290994 -187.192747 
L 644.223709 -185.56505 
L 644.15891 -183.937354 
L 644.098103 -182.309657 
L 644.042816 -180.68196 
L 643.994592 -179.054263 
L 643.95498 -177.426566 
L 643.925525 -175.798869 
L 643.907768 -174.171172 
L 643.903229 -172.543475 
L 643.913408 -170.915778 
L 643.939772 -169.288081 
L 643.983753 -167.660384 
L 644.046738 -166.032687 
L 644.130062 -164.40499 
L 644.235006 -162.777294 
L 644.362786 -161.149597 
L 644.51455 -159.5219 
L 644.691373 -157.894203 
L 644.894249 -156.266506 
L 645.124088 -154.638809 
L 645.381708 -153.011112 
L 645.667834 -151.383415 
L 645.983091 -149.755718 
L 646.327997 -148.128021 
L 646.702963 -146.500324 
L 647.108284 -144.872627 
L 647.544138 -143.24493 
L 648.010578 -141.617234 
L 648.50753 -139.989537 
L 649.034788 -138.36184 
L 649.592008 -136.734143 
L 650.178709 -135.106446 
L 650.794262 -133.478749 
L 651.437893 -131.851052 
L 652.108674 -130.223355 
L 652.805525 -128.595658 
L 653.527208 -126.967961 
L 654.272328 -125.340264 
L 655.039327 -123.712567 
L 655.826491 -122.08487 
L 656.631942 -120.457173 
L 657.453644 -118.829477 
L 658.289406 -117.20178 
L 659.136882 -115.574083 
L 659.993578 -113.946386 
L 660.856857 -112.318689 
L 661.723946 -110.690992 
L 662.591945 -109.063295 
L 663.457837 -107.435598 
L 664.3185 -105.807901 
L 665.17072 -104.180204 
L 666.011203 -102.552507 
L 666.836594 -100.92481 
L 667.643493 -99.297113 
L 668.428473 -97.669417 
L 669.188101 -96.04172 
L 669.918956 -94.414023 
L 670.617652 -92.786326 
L 671.280862 -91.158629 
L 671.905336 -89.530932 
L 672.48793 -87.903235 
L 673.025622 -86.275538 
L 673.51554 -84.647841 
L 673.954982 -83.020144 
L 674.34144 -81.392447 
L 674.672617 -79.76475 
L 674.946448 -78.137053 
L 675.16112 -76.509357 
L 675.315086 -74.88166 
L 675.40708 -73.253963 
L 675.436131 -71.626266 
L 675.401571 -69.998569 
L 675.303043 -68.370872 
L 675.14051 -66.743175 
L 674.914251 -65.115478 
L 674.624869 -63.487781 
z
" style="stroke: #000000; stroke-opacity: 0.4"/>
    </defs>
    <g clip-path="url(#p30368c7d6d)">
     <use xlink:href="#mc69862e3c3" x="0" y="432" style="fill: #fde725; fill-opacity: 0.4; stroke: #000000; stroke-opacity: 0.4"/>
    </g>
   </g>
   <g id="matplotlib.axis_1">
    <g id="xtick_1">
     <g id="line2d_1">
      <defs>
       <path id="mf27cbfcdb9" d="M 0 0 
L 0 3.5 
" style="stroke: #000000; stroke-width: 0.8"/>
      </defs>
      <g>
       <use xlink:href="#mf27cbfcdb9" x="128.621423" y="384.626418" style="stroke: #000000; stroke-width: 0.8"/>
      </g>
     </g>
     <g id="text_1">
      <!-- Borda rule -->
      <g transform="translate(103.096239 399.236765) scale(0.11 -0.11)">
       <defs>
        <path id="CMR17-42" d="M 333 4352 
L 333 4186 
C 774 4186 845 4186 845 3900 
L 845 452 
C 845 166 774 166 333 166 
L 333 0 
L 2534 0 
C 3354 0 3885 583 3885 1164 
C 3885 1741 3360 2233 2675 2233 
C 3290 2356 3718 2771 3718 3264 
C 3718 3802 3194 4352 2368 4352 
L 333 4352 
z
M 1248 2304 
L 1248 3937 
C 1248 4155 1261 4186 1517 4186 
L 2336 4186 
C 2970 4186 3251 3674 3251 3277 
C 3251 2791 2861 2304 2170 2304 
L 1248 2304 
z
M 1517 166 
C 1261 166 1248 197 1248 413 
L 1248 2202 
L 2432 2202 
C 3091 2202 3411 1625 3411 1162 
C 3411 699 3046 166 2349 166 
L 1517 166 
z
" transform="scale(0.015625)"/>
        <path id="CMR17-6f" d="M 2758 1356 
C 2758 2176 2163 2816 1466 2816 
C 768 2816 173 2176 173 1356 
C 173 551 768 -64 1466 -64 
C 2163 -64 2758 551 2758 1356 
z
M 1466 51 
C 1165 51 909 230 762 480 
C 602 767 582 1126 582 1408 
C 582 1677 595 2010 762 2298 
C 890 2509 1139 2714 1466 2714 
C 1754 2714 1997 2554 2150 2330 
C 2349 2029 2349 1607 2349 1408 
C 2349 1158 2336 775 2163 467 
C 1984 173 1709 51 1466 51 
z
" transform="scale(0.015625)"/>
        <path id="CMR17-72" d="M 960 1497 
C 960 2112 1222 2688 1702 2688 
C 1747 2688 1792 2682 1837 2662 
C 1837 2662 1696 2617 1696 2452 
C 1696 2298 1818 2234 1914 2234 
C 1990 2234 2131 2279 2131 2458 
C 2131 2663 1926 2790 1709 2790 
C 1222 2790 1011 2317 947 2093 
L 941 2093 
L 941 2790 
L 198 2720 
L 198 2554 
C 576 2554 634 2515 634 2208 
L 634 428 
C 634 184 608 153 198 153 
L 198 -13 
C 352 0 646 0 813 0 
C 998 0 1325 0 1498 -13 
L 1498 153 
C 1037 153 960 153 960 440 
L 960 1497 
z
" transform="scale(0.015625)"/>
        <path id="CMR17-64" d="M 1869 4326 
L 1869 4160 
C 2246 4160 2304 4122 2304 3820 
L 2304 2345 
C 2278 2377 2016 2790 1498 2790 
C 845 2790 211 2208 211 1364 
C 211 525 806 -64 1434 -64 
C 1978 -64 2259 337 2291 380 
L 2291 -63 
L 3066 -63 
L 3066 128 
C 2688 128 2630 166 2630 473 
L 2630 4396 
L 1869 4326 
z
M 2291 755 
C 2291 563 2176 390 2029 262 
C 1811 70 1594 38 1472 38 
C 1286 38 621 134 621 1356 
C 621 2612 1363 2688 1530 2688 
C 1824 2688 2061 2522 2208 2291 
C 2291 2157 2291 2138 2291 2023 
L 2291 755 
z
" transform="scale(0.015625)"/>
        <path id="CMR17-61" d="M 2304 1653 
C 2304 2072 2304 2294 2035 2543 
C 1798 2752 1523 2816 1306 2816 
C 800 2816 435 2407 435 1971 
C 435 1728 627 1728 666 1728 
C 749 1728 896 1778 896 1954 
C 896 2112 774 2181 666 2181 
C 640 2181 608 2174 589 2168 
C 723 2592 1069 2714 1293 2714 
C 1613 2714 1965 2429 1965 1885 
L 1965 1600 
C 1587 1600 1133 1549 774 1357 
C 371 1133 256 813 256 570 
C 256 77 832 -64 1171 -64 
C 1523 -64 1850 139 1990 511 
C 2003 233 2182 -18 2464 -18 
C 2598 -18 2938 70 2938 567 
L 2938 920 
L 2822 920 
L 2822 562 
C 2822 178 2650 128 2566 128 
C 2304 128 2304 458 2304 738 
L 2304 1653 
z
M 1965 870 
C 1965 317 1568 38 1216 38 
C 896 38 646 275 646 570 
C 646 761 730 1100 1101 1305 
C 1408 1478 1760 1504 1965 1504 
L 1965 870 
z
" transform="scale(0.015625)"/>
        <path id="CMR17-75" d="M 1882 2693 
L 1882 2528 
C 2259 2528 2317 2489 2317 2186 
L 2317 1032 
C 2317 500 2029 38 1555 38 
C 1030 38 986 348 986 678 
L 986 2763 
L 211 2693 
L 211 2528 
C 467 2528 640 2528 646 2274 
L 646 1058 
C 646 633 646 361 813 183 
C 896 101 1056 -64 1517 -64 
C 2061 -64 2272 377 2323 506 
L 2330 506 
L 2330 -63 
L 3091 -63 
L 3091 128 
C 2714 128 2656 166 2656 473 
L 2656 2763 
L 1882 2693 
z
" transform="scale(0.015625)"/>
        <path id="CMR17-6c" d="M 979 4396 
L 218 4326 
L 218 4160 
C 595 4160 653 4122 653 3817 
L 653 426 
C 653 184 627 153 218 153 
L 218 -13 
C 371 0 653 0 813 0 
C 979 0 1261 0 1414 -13 
L 1414 153 
C 1005 153 979 178 979 426 
L 979 4396 
z
" transform="scale(0.015625)"/>
        <path id="CMR17-65" d="M 2438 1472 
C 2464 1498 2464 1511 2464 1576 
C 2464 2238 2118 2816 1389 2816 
C 710 2816 173 2169 173 1383 
C 173 551 781 -64 1459 -64 
C 2176 -64 2458 607 2458 740 
C 2458 784 2419 784 2406 784 
C 2362 784 2355 771 2330 696 
C 2189 265 1837 51 1504 51 
C 1229 51 954 203 781 480 
C 582 803 582 1176 582 1472 
L 2438 1472 
z
M 589 1568 
C 634 2505 1126 2714 1382 2714 
C 1818 2714 2112 2297 2118 1568 
L 589 1568 
z
" transform="scale(0.015625)"/>
       </defs>
       <use xlink:href="#CMR17-42" transform="scale(0.996264)"/>
       <use xlink:href="#CMR17-6f" transform="translate(65.188754 0) scale(0.996264)"/>
       <use xlink:href="#CMR17-72" transform="translate(110.879232 0) scale(0.996264)"/>
       <use xlink:href="#CMR17-64" transform="translate(146.159999 0) scale(0.996264)"/>
       <use xlink:href="#CMR17-61" transform="translate(197.055369 0) scale(0.996264)"/>
       <use xlink:href="#CMR17-72" transform="translate(272.821813 0) scale(0.996264)"/>
       <use xlink:href="#CMR17-75" transform="translate(308.10258 0) scale(0.996264)"/>
       <use xlink:href="#CMR17-6c" transform="translate(358.99795 0) scale(0.996264)"/>
       <use xlink:href="#CMR17-65" transform="translate(383.869009 0) scale(0.996264)"/>
      </g>
     </g>
    </g>
    <g id="xtick_2">
     <g id="line2d_2">
      <g>
       <use xlink:href="#mf27cbfcdb9" x="296.872102" y="384.626418" style="stroke: #000000; stroke-width: 0.8"/>
      </g>
     </g>
     <g id="text_2">
      <!-- Copeland's Rule -->
      <g transform="translate(257.648273 399.236765) scale(0.11 -0.11)">
       <defs>
        <path id="CMR17-43" d="M 3974 4289 
C 3974 4403 3968 4410 3930 4410 
C 3904 4410 3898 4403 3853 4327 
L 3571 3792 
C 3258 4187 2874 4416 2381 4416 
C 1286 4416 294 3456 294 2148 
C 294 826 1286 -128 2387 -128 
C 3366 -128 3974 730 3974 1461 
C 3974 1524 3974 1550 3917 1550 
C 3866 1550 3866 1531 3859 1474 
C 3808 585 3168 38 2477 38 
C 1824 38 781 495 781 2147 
C 781 3805 1843 4250 2464 4250 
C 3187 4250 3712 3628 3834 2745 
C 3846 2668 3846 2655 3904 2655 
C 3974 2655 3974 2668 3974 2783 
L 3974 4289 
z
" transform="scale(0.015625)"/>
        <path id="CMR17-70" d="M 1408 -1063 
C 998 -1063 973 -1037 973 -789 
L 973 402 
C 1158 134 1427 -38 1766 -38 
C 2406 -38 3053 523 3053 1388 
C 3053 2191 2496 2802 1837 2802 
C 1453 2802 1139 2592 960 2338 
L 960 2802 
L 198 2732 
L 198 2567 
C 576 2567 634 2528 634 2223 
L 634 -789 
C 634 -1031 608 -1063 198 -1063 
L 198 -1228 
C 352 -1216 634 -1216 800 -1216 
C 966 -1216 1254 -1216 1408 -1228 
L 1408 -1063 
z
M 973 2012 
C 973 2102 973 2235 1222 2471 
C 1254 2497 1472 2688 1792 2688 
C 2259 2688 2643 2108 2643 1382 
C 2643 656 2234 64 1728 64 
C 1498 64 1248 172 1056 472 
C 973 612 973 650 973 752 
L 973 2012 
z
" transform="scale(0.015625)"/>
        <path id="CMR17-6e" d="M 2656 1933 
C 2656 2259 2592 2790 1837 2790 
C 1331 2790 1069 2400 973 2144 
L 966 2144 
L 966 2790 
L 211 2720 
L 211 2554 
C 589 2554 646 2515 646 2208 
L 646 428 
C 646 184 621 153 211 153 
L 211 -13 
C 365 0 646 0 813 0 
C 979 0 1267 0 1421 -13 
L 1421 153 
C 1011 153 986 178 986 428 
L 986 1658 
C 986 2247 1344 2688 1792 2688 
C 2266 2688 2317 2266 2317 1958 
L 2317 428 
C 2317 184 2291 153 1882 153 
L 1882 -13 
C 2035 0 2317 0 2483 0 
C 2650 0 2938 0 3091 -13 
L 3091 153 
C 2682 153 2656 178 2656 428 
L 2656 1933 
z
" transform="scale(0.015625)"/>
        <path id="CMR17-27" d="M 1024 4025 
C 1037 3955 1043 3929 1043 3820 
C 1043 3415 883 3042 634 2778 
C 608 2752 595 2733 595 2707 
C 595 2681 621 2656 646 2656 
C 691 2656 1146 3105 1146 3811 
C 1146 3952 1133 4426 800 4426 
C 659 4426 538 4331 538 4165 
C 538 3999 659 3904 800 3904 
C 858 3904 966 3923 1024 4025 
z
" transform="scale(0.015625)"/>
        <path id="CMR17-73" d="M 1978 2697 
C 1978 2813 1971 2819 1933 2819 
C 1907 2819 1901 2813 1824 2717 
C 1805 2691 1747 2626 1728 2601 
C 1523 2819 1235 2819 1126 2819 
C 416 2819 160 2447 160 2076 
C 160 1498 813 1365 998 1325 
C 1402 1243 1542 1217 1677 1101 
C 1760 1025 1901 884 1901 654 
C 1901 384 1747 38 1158 38 
C 602 38 403 460 288 1021 
C 269 1110 269 1117 218 1117 
C 166 1117 160 1110 160 983 
L 160 63 
C 160 -51 166 -58 205 -58 
C 237 -58 243 -51 275 0 
C 314 57 410 211 448 276 
C 576 103 800 -64 1158 -64 
C 1792 -64 2131 283 2131 784 
C 2131 1112 1958 1285 1875 1362 
C 1683 1561 1459 1606 1190 1657 
C 838 1735 390 1825 390 2217 
C 390 2383 480 2737 1126 2737 
C 1811 2737 1850 2094 1862 1888 
C 1869 1856 1901 1849 1920 1849 
C 1978 1849 1978 1869 1978 1978 
L 1978 2697 
z
" transform="scale(0.015625)"/>
        <path id="CMR17-52" d="M 2509 2146 
C 3117 2268 3629 2676 3629 3186 
C 3629 3785 2950 4326 2054 4326 
L 333 4326 
L 333 4160 
C 774 4160 845 4160 845 3873 
L 845 415 
C 845 128 774 128 333 128 
L 333 -26 
C 518 -26 851 -26 1050 -26 
C 1248 -26 1581 -26 1766 -26 
L 1766 128 
C 1325 128 1254 128 1254 417 
L 1254 2112 
L 2003 2112 
C 2368 2112 2573 1964 2662 1881 
C 2918 1632 2918 1459 2918 1024 
C 2918 595 2918 377 3110 160 
C 3354 -102 3680 -128 3821 -128 
C 4294 -128 4365 396 4365 503 
C 4365 540 4365 585 4307 585 
C 4256 585 4250 547 4250 522 
C 4218 112 4032 -26 3834 -26 
C 3482 -26 3443 375 3405 764 
C 3386 898 3373 993 3360 1133 
C 3322 1452 3270 1917 2509 2146 
z
M 1984 2214 
L 1254 2214 
L 1254 3913 
C 1254 4129 1267 4160 1523 4160 
L 1990 4160 
C 2522 4160 3142 3977 3142 3190 
C 3142 2372 2464 2214 1984 2214 
z
" transform="scale(0.015625)"/>
       </defs>
       <use xlink:href="#CMR17-43" transform="scale(0.996264)"/>
       <use xlink:href="#CMR17-6f" transform="translate(66.509881 0) scale(0.996264)"/>
       <use xlink:href="#CMR17-70" transform="translate(112.200358 0) scale(0.996264)"/>
       <use xlink:href="#CMR17-65" transform="translate(165.698166 0) scale(0.996264)"/>
       <use xlink:href="#CMR17-6c" transform="translate(206.183827 0) scale(0.996264)"/>
       <use xlink:href="#CMR17-61" transform="translate(231.054885 0) scale(0.996264)"/>
       <use xlink:href="#CMR17-6e" transform="translate(276.745362 0) scale(0.996264)"/>
       <use xlink:href="#CMR17-64" transform="translate(327.640732 0) scale(0.996264)"/>
       <use xlink:href="#CMR17-27" transform="translate(378.536102 0) scale(0.996264)"/>
       <use xlink:href="#CMR17-73" transform="translate(403.40716 0) scale(0.996264)"/>
       <use xlink:href="#CMR17-52" transform="translate(469.284464 0) scale(0.996264)"/>
       <use xlink:href="#CMR17-75" transform="translate(537.075566 0) scale(0.996264)"/>
       <use xlink:href="#CMR17-6c" transform="translate(587.970936 0) scale(0.996264)"/>
       <use xlink:href="#CMR17-65" transform="translate(612.841994 0) scale(0.996264)"/>
      </g>
     </g>
    </g>
    <g id="xtick_3">
     <g id="line2d_3">
      <g>
       <use xlink:href="#mf27cbfcdb9" x="465.122782" y="384.626418" style="stroke: #000000; stroke-width: 0.8"/>
      </g>
     </g>
     <g id="text_3">
      <!-- Plurality rule -->
      <g transform="translate(433.052699 399.236765) scale(0.11 -0.11)">
       <defs>
        <path id="CMR17-50" d="M 1267 2042 
L 2291 2042 
C 3117 2042 3718 2578 3718 3184 
C 3718 3791 3130 4352 2291 4352 
L 333 4352 
L 333 4186 
C 774 4186 845 4186 845 3899 
L 845 446 
C 845 160 774 160 333 160 
L 333 0 
C 518 0 858 0 1056 0 
C 1254 0 1594 0 1779 0 
L 1779 160 
C 1338 160 1267 160 1267 446 
L 1267 2042 
z
M 1254 2176 
L 1254 3938 
C 1254 4155 1267 4186 1523 4186 
L 2170 4186 
C 2995 4186 3232 3714 3232 3184 
C 3232 2604 2950 2176 2170 2176 
L 1254 2176 
z
" transform="scale(0.015625)"/>
        <path id="CMR17-69" d="M 992 3909 
C 992 4049 877 4170 730 4170 
C 589 4170 467 4056 467 3909 
C 467 3769 582 3648 730 3648 
C 870 3648 992 3763 992 3909 
z
M 243 2706 
L 243 2541 
C 602 2541 653 2502 653 2197 
L 653 427 
C 653 184 627 153 218 153 
L 218 -13 
C 371 0 646 0 806 0 
C 960 0 1222 0 1370 -13 
L 1370 153 
C 992 153 979 191 979 420 
L 979 2776 
L 243 2706 
z
" transform="scale(0.015625)"/>
        <path id="CMR17-74" d="M 966 2560 
L 1862 2560 
L 1862 2725 
L 966 2725 
L 966 3904 
L 851 3904 
C 838 3245 614 2668 70 2668 
L 70 2560 
L 627 2560 
L 627 771 
C 627 650 627 -64 1370 -64 
C 1747 -64 1965 306 1965 777 
L 1965 1140 
L 1850 1140 
L 1850 783 
C 1850 344 1677 51 1408 51 
C 1222 51 966 178 966 758 
L 966 2560 
z
" transform="scale(0.015625)"/>
        <path id="CMR17-79" d="M 2496 2197 
C 2656 2586 2944 2586 3034 2586 
L 3034 2752 
C 2912 2752 2752 2752 2630 2752 
C 2496 2752 2285 2752 2157 2758 
L 2157 2592 
C 2400 2573 2406 2394 2406 2343 
C 2406 2280 2394 2248 2362 2171 
L 1664 449 
L 902 2306 
C 870 2382 870 2426 870 2433 
C 870 2573 1018 2586 1171 2586 
L 1171 2758 
C 1018 2752 742 2752 582 2752 
C 410 2752 205 2752 64 2758 
L 64 2586 
C 410 2586 448 2554 531 2350 
L 1485 15 
C 1197 -738 1030 -1178 627 -1178 
C 557 -1178 397 -1159 282 -1044 
C 429 -1031 493 -942 493 -833 
C 493 -725 416 -629 288 -629 
C 147 -629 77 -725 77 -840 
C 77 -1095 339 -1280 627 -1280 
C 998 -1280 1229 -922 1357 -604 
L 2496 2197 
z
" transform="scale(0.015625)"/>
       </defs>
       <use xlink:href="#CMR17-50" transform="scale(0.996264)"/>
       <use xlink:href="#CMR17-6c" transform="translate(62.586301 0) scale(0.996264)"/>
       <use xlink:href="#CMR17-75" transform="translate(87.457359 0) scale(0.996264)"/>
       <use xlink:href="#CMR17-72" transform="translate(138.352729 0) scale(0.996264)"/>
       <use xlink:href="#CMR17-61" transform="translate(173.633497 0) scale(0.996264)"/>
       <use xlink:href="#CMR17-6c" transform="translate(219.323974 0) scale(0.996264)"/>
       <use xlink:href="#CMR17-69" transform="translate(244.195032 0) scale(0.996264)"/>
       <use xlink:href="#CMR17-74" transform="translate(269.066091 0) scale(0.996264)"/>
       <use xlink:href="#CMR17-79" transform="translate(301.744405 0) scale(0.996264)"/>
       <use xlink:href="#CMR17-72" transform="translate(380.113287 0) scale(0.996264)"/>
       <use xlink:href="#CMR17-75" transform="translate(415.394055 0) scale(0.996264)"/>
       <use xlink:href="#CMR17-6c" transform="translate(466.289424 0) scale(0.996264)"/>
       <use xlink:href="#CMR17-65" transform="translate(491.160483 0) scale(0.996264)"/>
      </g>
     </g>
    </g>
    <g id="xtick_4">
     <g id="line2d_4">
      <g>
       <use xlink:href="#mf27cbfcdb9" x="633.373461" y="384.626418" style="stroke: #000000; stroke-width: 0.8"/>
      </g>
     </g>
     <g id="text_4">
      <!-- Black's Rule -->
      <g transform="translate(603.510396 399.236765) scale(0.11 -0.11)">
       <defs>
        <path id="CMR17-63" d="M 2234 2240 
C 2112 2240 1933 2240 1933 2017 
C 1933 1838 2080 1787 2163 1787 
C 2208 1787 2394 1807 2394 2024 
C 2394 2467 1958 2803 1466 2803 
C 787 2803 211 2178 211 1363 
C 211 516 813 -64 1466 -64 
C 2259 -64 2458 677 2458 748 
C 2458 774 2451 793 2406 793 
C 2362 793 2355 787 2330 703 
C 2163 180 1798 51 1523 51 
C 1114 51 621 427 621 1369 
C 621 2338 1094 2688 1472 2688 
C 1722 2688 2093 2573 2234 2240 
z
" transform="scale(0.015625)"/>
        <path id="CMR17-6b" d="M 1670 1673 
C 1664 1686 1632 1724 1632 1743 
C 1632 1756 2086 2171 2144 2222 
C 2509 2528 2739 2560 2906 2560 
L 2906 2733 
C 2867 2733 2854 2733 2848 2720 
L 2534 2720 
C 2355 2720 2080 2720 1907 2733 
L 1907 2566 
C 1997 2559 2061 2508 2061 2419 
C 2061 2291 1933 2170 1926 2170 
L 960 1289 
L 960 4396 
L 198 4326 
L 198 4160 
C 576 4160 634 4122 634 3817 
L 634 426 
C 634 184 608 153 198 153 
L 198 -13 
C 352 0 634 0 794 0 
C 954 0 1235 0 1389 -13 
L 1389 153 
C 979 153 954 178 954 428 
L 954 1130 
L 1395 1532 
L 2042 574 
C 2118 459 2182 369 2182 286 
C 2182 172 2067 153 1990 153 
L 1990 -13 
C 2144 0 2419 0 2579 0 
C 2694 0 2931 0 3040 0 
L 3040 153 
C 2739 153 2669 210 2477 491 
L 1670 1673 
z
" transform="scale(0.015625)"/>
       </defs>
       <use xlink:href="#CMR17-42" transform="scale(0.996264)"/>
       <use xlink:href="#CMR17-6c" transform="translate(65.188754 0) scale(0.996264)"/>
       <use xlink:href="#CMR17-61" transform="translate(90.059813 0) scale(0.996264)"/>
       <use xlink:href="#CMR17-63" transform="translate(135.75029 0) scale(0.996264)"/>
       <use xlink:href="#CMR17-6b" transform="translate(173.633497 0) scale(0.996264)"/>
       <use xlink:href="#CMR17-27" transform="translate(221.926412 0) scale(0.996264)"/>
       <use xlink:href="#CMR17-73" transform="translate(246.797471 0) scale(0.996264)"/>
       <use xlink:href="#CMR17-52" transform="translate(312.674775 0) scale(0.996264)"/>
       <use xlink:href="#CMR17-75" transform="translate(380.465877 0) scale(0.996264)"/>
       <use xlink:href="#CMR17-6c" transform="translate(431.361247 0) scale(0.996264)"/>
       <use xlink:href="#CMR17-65" transform="translate(456.232305 0) scale(0.996264)"/>
      </g>
     </g>
    </g>
    <g id="text_5">
     <!-- Number of voters -->
     <g transform="translate(332.704412 414.361688) scale(0.13 -0.13)">
      <defs>
       <path id="CMR17-4e" d="M 1312 4250 
C 1267 4320 1261 4320 1139 4320 
L 326 4320 
L 326 4160 
L 448 4160 
C 704 4160 819 4129 838 4122 
L 838 610 
C 838 451 838 153 326 153 
L 326 -13 
C 474 0 742 0 902 0 
C 1062 0 1331 0 1478 -13 
L 1478 153 
C 966 153 966 451 966 610 
L 966 4033 
C 1011 3995 1011 3982 1056 3919 
L 3430 76 
C 3475 0 3494 0 3526 0 
C 3590 0 3590 19 3590 139 
L 3590 3705 
C 3590 3863 3590 4160 4102 4160 
L 4102 4326 
C 3955 4320 3686 4320 3526 4320 
C 3366 4320 3098 4320 2950 4326 
L 2950 4160 
C 3462 4160 3462 3862 3462 3703 
L 3462 763 
L 1312 4250 
z
" transform="scale(0.015625)"/>
       <path id="CMR17-6d" d="M 4326 1933 
C 4326 2252 4269 2790 3507 2790 
C 3072 2790 2771 2496 2656 2151 
L 2650 2151 
C 2573 2676 2195 2790 1837 2790 
C 1331 2790 1069 2400 973 2144 
L 966 2144 
L 966 2790 
L 211 2720 
L 211 2554 
C 589 2554 646 2515 646 2208 
L 646 428 
C 646 184 621 153 211 153 
L 211 -13 
C 365 0 646 0 813 0 
C 979 0 1267 0 1421 -13 
L 1421 153 
C 1011 153 986 178 986 428 
L 986 1658 
C 986 2247 1344 2688 1792 2688 
C 2266 2688 2317 2266 2317 1958 
L 2317 428 
C 2317 184 2291 153 1882 153 
L 1882 -13 
C 2035 0 2317 0 2483 0 
C 2650 0 2938 0 3091 -13 
L 3091 153 
C 2682 153 2656 178 2656 428 
L 2656 1658 
C 2656 2247 3014 2688 3462 2688 
C 3936 2688 3987 2266 3987 1958 
L 3987 428 
C 3987 184 3962 153 3552 153 
L 3552 -13 
C 3706 0 3987 0 4154 0 
C 4320 0 4608 0 4762 -13 
L 4762 153 
C 4352 153 4326 178 4326 428 
L 4326 1933 
z
" transform="scale(0.015625)"/>
       <path id="CMR17-62" d="M 960 4396 
L 198 4326 
L 198 4160 
C 576 4160 634 4122 634 3817 
L 634 -13 
L 749 -13 
L 934 441 
C 1120 141 1395 -64 1766 -64 
C 2406 -64 3053 500 3053 1370 
C 3053 2188 2477 2790 1830 2790 
C 1434 2790 1152 2579 960 2330 
L 960 4396 
z
M 973 2004 
C 973 2118 973 2138 1062 2272 
C 1312 2657 1670 2688 1792 2688 
C 1984 2688 2643 2585 2643 1376 
C 2643 108 1888 38 1734 38 
C 1536 38 1248 114 1043 486 
C 973 608 973 621 973 735 
L 973 2004 
z
" transform="scale(0.015625)"/>
       <path id="CMR17-66" d="M 979 2560 
L 1709 2560 
L 1709 2725 
L 966 2725 
L 966 3494 
C 966 4022 1235 4352 1510 4352 
C 1594 4352 1690 4327 1754 4282 
C 1702 4269 1568 4225 1568 4067 
C 1568 3901 1696 3850 1786 3850 
C 1875 3850 2003 3901 2003 4067 
C 2003 4308 1773 4454 1517 4454 
C 1152 4454 653 4156 653 3481 
L 653 2725 
L 141 2725 
L 141 2560 
L 653 2560 
L 653 427 
C 653 184 627 153 218 153 
L 218 -13 
C 371 0 666 0 832 0 
C 1018 0 1344 0 1517 -13 
L 1517 153 
C 1056 153 979 153 979 439 
L 979 2560 
z
" transform="scale(0.015625)"/>
       <path id="CMR17-76" d="M 2502 2163 
C 2560 2304 2662 2560 3034 2560 
L 3034 2726 
C 2912 2726 2752 2726 2630 2726 
C 2496 2726 2285 2726 2157 2732 
L 2157 2566 
C 2317 2553 2406 2477 2406 2311 
C 2406 2253 2406 2240 2368 2151 
L 1664 377 
L 902 2286 
C 864 2369 864 2381 864 2407 
C 864 2560 1075 2560 1171 2560 
L 1171 2732 
C 1018 2726 736 2726 576 2726 
C 403 2726 205 2726 64 2732 
L 64 2560 
C 307 2560 442 2560 518 2362 
L 1446 44 
C 1485 -51 1491 -64 1549 -64 
C 1606 -64 1613 -51 1651 44 
L 2502 2163 
z
" transform="scale(0.015625)"/>
      </defs>
      <use xlink:href="#CMR17-4e" transform="scale(0.996264)"/>
      <use xlink:href="#CMR17-75" transform="translate(69.07243 0) scale(0.996264)"/>
      <use xlink:href="#CMR17-6d" transform="translate(119.9678 0) scale(0.996264)"/>
      <use xlink:href="#CMR17-62" transform="translate(194.284936 0) scale(0.996264)"/>
      <use xlink:href="#CMR17-65" transform="translate(247.782744 0) scale(0.996264)"/>
      <use xlink:href="#CMR17-72" transform="translate(288.268404 0) scale(0.996264)"/>
      <use xlink:href="#CMR17-6f" transform="translate(353.625139 0) scale(0.996264)"/>
      <use xlink:href="#CMR17-66" transform="translate(399.315616 0) scale(0.996264)"/>
      <use xlink:href="#CMR17-76" transform="translate(456.865095 0) scale(0.996264)"/>
      <use xlink:href="#CMR17-6f" transform="translate(502.555556 0) scale(0.996264)"/>
      <use xlink:href="#CMR17-74" transform="translate(548.246034 0) scale(0.996264)"/>
      <use xlink:href="#CMR17-65" transform="translate(583.526801 0) scale(0.996264)"/>
      <use xlink:href="#CMR17-72" transform="translate(624.012462 0) scale(0.996264)"/>
      <use xlink:href="#CMR17-73" transform="translate(659.29323 0) scale(0.996264)"/>
     </g>
    </g>
   </g>
   <g id="matplotlib.axis_2">
    <g id="ytick_1">
     <g id="line2d_5">
      <path d="M 57.114884 341.65522 
L 704.88 341.65522 
" clip-path="url(#p30368c7d6d)" style="fill: none; stroke: #b0b0b0; stroke-opacity: 0.3; stroke-linecap: square"/>
     </g>
     <g id="line2d_6">
      <defs>
       <path id="m2db7d1e2eb" d="M 0 0 
L -3.5 0 
" style="stroke: #000000; stroke-width: 0.8"/>
      </defs>
      <g>
       <use xlink:href="#m2db7d1e2eb" x="57.114884" y="341.65522" style="stroke: #000000; stroke-width: 0.8"/>
      </g>
     </g>
     <g id="text_6">
      <!-- $\mathdefault{2.5}$ -->
      <g transform="translate(36.111807 345.460393) scale(0.11 -0.11)">
       <defs>
        <path id="CMR17-32" d="M 2669 989 
L 2554 989 
C 2490 536 2438 459 2413 420 
C 2381 369 1920 369 1830 369 
L 602 369 
C 832 619 1280 1072 1824 1597 
C 2214 1967 2669 2402 2669 3035 
C 2669 3790 2067 4224 1395 4224 
C 691 4224 262 3604 262 3030 
C 262 2780 448 2748 525 2748 
C 589 2748 781 2787 781 3010 
C 781 3207 614 3264 525 3264 
C 486 3264 448 3258 422 3245 
C 544 3790 915 4058 1306 4058 
C 1862 4058 2227 3617 2227 3035 
C 2227 2479 1901 2000 1536 1584 
L 262 146 
L 262 0 
L 2515 0 
L 2669 989 
z
" transform="scale(0.015625)"/>
        <path id="CMMI12-3a" d="M 1178 307 
C 1178 492 1024 619 870 619 
C 685 619 557 466 557 313 
C 557 128 710 0 864 0 
C 1050 0 1178 153 1178 307 
z
" transform="scale(0.015625)"/>
        <path id="CMR17-35" d="M 730 3692 
C 794 3666 1056 3584 1325 3584 
C 1920 3584 2246 3911 2432 4100 
C 2432 4157 2432 4192 2394 4192 
C 2387 4192 2374 4192 2323 4163 
C 2099 4058 1837 3973 1517 3973 
C 1325 3973 1037 3999 723 4139 
C 653 4171 640 4171 634 4171 
C 602 4171 595 4164 595 4037 
L 595 2203 
C 595 2089 595 2057 659 2057 
C 691 2057 704 2070 736 2114 
C 941 2401 1222 2522 1542 2522 
C 1766 2522 2246 2382 2246 1289 
C 2246 1085 2246 715 2054 421 
C 1894 159 1645 25 1370 25 
C 947 25 518 320 403 814 
C 429 807 480 795 506 795 
C 589 795 749 840 749 1038 
C 749 1210 627 1280 506 1280 
C 358 1280 262 1190 262 1011 
C 262 454 704 -128 1382 -128 
C 2042 -128 2669 440 2669 1264 
C 2669 2030 2170 2624 1549 2624 
C 1222 2624 947 2503 730 2274 
L 730 3692 
z
" transform="scale(0.015625)"/>
       </defs>
       <use xlink:href="#CMR17-32" transform="scale(0.996264)"/>
       <use xlink:href="#CMMI12-3a" transform="translate(45.690477 0) scale(0.996264)"/>
       <use xlink:href="#CMR17-35" transform="translate(72.787654 0) scale(0.996264)"/>
      </g>
     </g>
    </g>
    <g id="ytick_2">
     <g id="line2d_7">
      <path d="M 57.114884 296.893554 
L 704.88 296.893554 
" clip-path="url(#p30368c7d6d)" style="fill: none; stroke: #b0b0b0; stroke-opacity: 0.3; stroke-linecap: square"/>
     </g>
     <g id="line2d_8">
      <g>
       <use xlink:href="#m2db7d1e2eb" x="57.114884" y="296.893554" style="stroke: #000000; stroke-width: 0.8"/>
      </g>
     </g>
     <g id="text_7">
      <!-- $\mathdefault{5.0}$ -->
      <g transform="translate(36.111807 300.698728) scale(0.11 -0.11)">
       <defs>
        <path id="CMR17-30" d="M 2688 2025 
C 2688 2416 2682 3080 2413 3591 
C 2176 4039 1798 4198 1466 4198 
C 1158 4198 768 4058 525 3597 
C 269 3118 243 2524 243 2025 
C 243 1661 250 1106 448 619 
C 723 -39 1216 -128 1466 -128 
C 1760 -128 2208 -7 2470 600 
C 2662 1042 2688 1559 2688 2025 
z
M 1466 -26 
C 1056 -26 813 325 723 812 
C 653 1188 653 1738 653 2096 
C 653 2588 653 2997 736 3387 
C 858 3929 1216 4096 1466 4096 
C 1728 4096 2067 3923 2189 3400 
C 2272 3036 2278 2607 2278 2096 
C 2278 1680 2278 1169 2202 792 
C 2067 95 1690 -26 1466 -26 
z
" transform="scale(0.015625)"/>
       </defs>
       <use xlink:href="#CMR17-35" transform="scale(0.996264)"/>
       <use xlink:href="#CMMI12-3a" transform="translate(45.690477 0) scale(0.996264)"/>
       <use xlink:href="#CMR17-30" transform="translate(72.787654 0) scale(0.996264)"/>
      </g>
     </g>
    </g>
    <g id="ytick_3">
     <g id="line2d_9">
      <path d="M 57.114884 252.131889 
L 704.88 252.131889 
" clip-path="url(#p30368c7d6d)" style="fill: none; stroke: #b0b0b0; stroke-opacity: 0.3; stroke-linecap: square"/>
     </g>
     <g id="line2d_10">
      <g>
       <use xlink:href="#m2db7d1e2eb" x="57.114884" y="252.131889" style="stroke: #000000; stroke-width: 0.8"/>
      </g>
     </g>
     <g id="text_8">
      <!-- $\mathdefault{7.5}$ -->
      <g transform="translate(36.111807 255.937062) scale(0.11 -0.11)">
       <defs>
        <path id="CMR17-37" d="M 2886 3941 
L 2886 4081 
L 1382 4081 
C 634 4081 621 4165 595 4288 
L 480 4288 
L 294 3094 
L 410 3094 
C 429 3215 474 3540 550 3661 
C 589 3712 1062 3712 1171 3712 
L 2579 3712 
L 1869 2661 
C 1395 1954 1069 999 1069 165 
C 1069 89 1069 -128 1299 -128 
C 1530 -128 1530 89 1530 171 
L 1530 465 
C 1530 1508 1709 2196 2003 2636 
L 2886 3941 
z
" transform="scale(0.015625)"/>
       </defs>
       <use xlink:href="#CMR17-37" transform="scale(0.996264)"/>
       <use xlink:href="#CMMI12-3a" transform="translate(45.690477 0) scale(0.996264)"/>
       <use xlink:href="#CMR17-35" transform="translate(72.787654 0) scale(0.996264)"/>
      </g>
     </g>
    </g>
    <g id="ytick_4">
     <g id="line2d_11">
      <path d="M 57.114884 207.370223 
L 704.88 207.370223 
" clip-path="url(#p30368c7d6d)" style="fill: none; stroke: #b0b0b0; stroke-opacity: 0.3; stroke-linecap: square"/>
     </g>
     <g id="line2d_12">
      <g>
       <use xlink:href="#m2db7d1e2eb" x="57.114884" y="207.370223" style="stroke: #000000; stroke-width: 0.8"/>
      </g>
     </g>
     <g id="text_9">
      <!-- $\mathdefault{10.0}$ -->
      <g transform="translate(30.63234 211.175397) scale(0.11 -0.11)">
       <defs>
        <path id="CMR17-31" d="M 1702 4058 
C 1702 4192 1696 4192 1606 4192 
C 1357 3916 979 3827 621 3827 
C 602 3827 570 3827 563 3808 
C 557 3795 557 3782 557 3648 
C 755 3648 1088 3686 1344 3839 
L 1344 461 
C 1344 236 1331 160 781 160 
L 589 160 
L 589 0 
C 896 0 1216 0 1523 0 
C 1830 0 2150 0 2458 0 
L 2458 160 
L 2266 160 
C 1715 160 1702 230 1702 458 
L 1702 4058 
z
" transform="scale(0.015625)"/>
       </defs>
       <use xlink:href="#CMR17-31" transform="scale(0.996264)"/>
       <use xlink:href="#CMR17-30" transform="translate(45.690477 0) scale(0.996264)"/>
       <use xlink:href="#CMMI12-3a" transform="translate(91.380954 0) scale(0.996264)"/>
       <use xlink:href="#CMR17-30" transform="translate(118.478131 0) scale(0.996264)"/>
      </g>
     </g>
    </g>
    <g id="ytick_5">
     <g id="line2d_13">
      <path d="M 57.114884 162.608558 
L 704.88 162.608558 
" clip-path="url(#p30368c7d6d)" style="fill: none; stroke: #b0b0b0; stroke-opacity: 0.3; stroke-linecap: square"/>
     </g>
     <g id="line2d_14">
      <g>
       <use xlink:href="#m2db7d1e2eb" x="57.114884" y="162.608558" style="stroke: #000000; stroke-width: 0.8"/>
      </g>
     </g>
     <g id="text_10">
      <!-- $\mathdefault{12.5}$ -->
      <g transform="translate(30.63234 166.413731) scale(0.11 -0.11)">
       <use xlink:href="#CMR17-31" transform="scale(0.996264)"/>
       <use xlink:href="#CMR17-32" transform="translate(45.690477 0) scale(0.996264)"/>
       <use xlink:href="#CMMI12-3a" transform="translate(91.380954 0) scale(0.996264)"/>
       <use xlink:href="#CMR17-35" transform="translate(118.478131 0) scale(0.996264)"/>
      </g>
     </g>
    </g>
    <g id="ytick_6">
     <g id="line2d_15">
      <path d="M 57.114884 117.846892 
L 704.88 117.846892 
" clip-path="url(#p30368c7d6d)" style="fill: none; stroke: #b0b0b0; stroke-opacity: 0.3; stroke-linecap: square"/>
     </g>
     <g id="line2d_16">
      <g>
       <use xlink:href="#m2db7d1e2eb" x="57.114884" y="117.846892" style="stroke: #000000; stroke-width: 0.8"/>
      </g>
     </g>
     <g id="text_11">
      <!-- $\mathdefault{15.0}$ -->
      <g transform="translate(30.63234 121.652066) scale(0.11 -0.11)">
       <use xlink:href="#CMR17-31" transform="scale(0.996264)"/>
       <use xlink:href="#CMR17-35" transform="translate(45.690477 0) scale(0.996264)"/>
       <use xlink:href="#CMMI12-3a" transform="translate(91.380954 0) scale(0.996264)"/>
       <use xlink:href="#CMR17-30" transform="translate(118.478131 0) scale(0.996264)"/>
      </g>
     </g>
    </g>
    <g id="ytick_7">
     <g id="line2d_17">
      <path d="M 57.114884 73.085227 
L 704.88 73.085227 
" clip-path="url(#p30368c7d6d)" style="fill: none; stroke: #b0b0b0; stroke-opacity: 0.3; stroke-linecap: square"/>
     </g>
     <g id="line2d_18">
      <g>
       <use xlink:href="#m2db7d1e2eb" x="57.114884" y="73.085227" style="stroke: #000000; stroke-width: 0.8"/>
      </g>
     </g>
     <g id="text_12">
      <!-- $\mathdefault{17.5}$ -->
      <g transform="translate(30.63234 76.8904) scale(0.11 -0.11)">
       <use xlink:href="#CMR17-31" transform="scale(0.996264)"/>
       <use xlink:href="#CMR17-37" transform="translate(45.690477 0) scale(0.996264)"/>
       <use xlink:href="#CMMI12-3a" transform="translate(91.380954 0) scale(0.996264)"/>
       <use xlink:href="#CMR17-35" transform="translate(118.478131 0) scale(0.996264)"/>
      </g>
     </g>
    </g>
    <g id="text_13">
     <!-- Distortion -->
     <g transform="translate(24.114028 235.497321) rotate(-90) scale(0.13 -0.13)">
      <defs>
       <path id="CMR17-44" d="M 333 4352 
L 333 4186 
C 774 4186 845 4186 845 3900 
L 845 452 
C 845 166 774 166 333 166 
L 333 0 
L 2368 0 
C 3398 0 4224 943 4224 2141 
C 4224 3346 3411 4352 2368 4352 
L 333 4352 
z
M 1523 166 
C 1267 166 1254 197 1254 414 
L 1254 3938 
C 1254 4155 1267 4186 1523 4186 
L 2240 4186 
C 2771 4186 3750 3874 3750 2141 
C 3750 1242 3488 879 3366 707 
C 3213 510 2848 166 2240 166 
L 1523 166 
z
" transform="scale(0.015625)"/>
      </defs>
      <use xlink:href="#CMR17-44" transform="scale(0.996264)"/>
      <use xlink:href="#CMR17-69" transform="translate(70.393556 0) scale(0.996264)"/>
      <use xlink:href="#CMR17-73" transform="translate(95.264614 0) scale(0.996264)"/>
      <use xlink:href="#CMR17-74" transform="translate(131.065952 0) scale(0.996264)"/>
      <use xlink:href="#CMR17-6f" transform="translate(166.34672 0) scale(0.996264)"/>
      <use xlink:href="#CMR17-72" transform="translate(212.037197 0) scale(0.996264)"/>
      <use xlink:href="#CMR17-74" transform="translate(247.317965 0) scale(0.996264)"/>
      <use xlink:href="#CMR17-69" transform="translate(282.598733 0) scale(0.996264)"/>
      <use xlink:href="#CMR17-6f" transform="translate(307.469791 0) scale(0.996264)"/>
      <use xlink:href="#CMR17-6e" transform="translate(353.160268 0) scale(0.996264)"/>
     </g>
    </g>
   </g>
   <g id="LineCollection_1">
    <path d="M 107.590088 306.964929 
L 149.652757 306.964929 
" clip-path="url(#p30368c7d6d)" style="fill: none; stroke: #1f77b4; stroke-width: 1.5"/>
    <path d="M 275.840767 350.68315 
L 317.903437 350.68315 
" clip-path="url(#p30368c7d6d)" style="fill: none; stroke: #1f77b4; stroke-width: 1.5"/>
    <path d="M 444.091447 331.966399 
L 486.154117 331.966399 
" clip-path="url(#p30368c7d6d)" style="fill: none; stroke: #1f77b4; stroke-width: 1.5"/>
    <path d="M 612.342126 329.619305 
L 654.404796 329.619305 
" clip-path="url(#p30368c7d6d)" style="fill: none; stroke: #1f77b4; stroke-width: 1.5"/>
   </g>
   <g id="LineCollection_2">
    <path d="M 107.590088 46.228228 
L 149.652757 46.228228 
" clip-path="url(#p30368c7d6d)" style="fill: none; stroke: #1f77b4; stroke-width: 1.5"/>
    <path d="M 275.840767 234.227223 
L 317.903437 234.227223 
" clip-path="url(#p30368c7d6d)" style="fill: none; stroke: #1f77b4; stroke-width: 1.5"/>
    <path d="M 444.091447 153.656225 
L 486.154117 153.656225 
" clip-path="url(#p30368c7d6d)" style="fill: none; stroke: #1f77b4; stroke-width: 1.5"/>
    <path d="M 612.342126 207.370223 
L 654.404796 207.370223 
" clip-path="url(#p30368c7d6d)" style="fill: none; stroke: #1f77b4; stroke-width: 1.5"/>
   </g>
   <g id="LineCollection_3">
    <path d="M 107.590088 368.512219 
L 149.652757 368.512219 
" clip-path="url(#p30368c7d6d)" style="fill: none; stroke: #1f77b4; stroke-width: 1.5"/>
    <path d="M 275.840767 368.512219 
L 317.903437 368.512219 
" clip-path="url(#p30368c7d6d)" style="fill: none; stroke: #1f77b4; stroke-width: 1.5"/>
    <path d="M 444.091447 368.512219 
L 486.154117 368.512219 
" clip-path="url(#p30368c7d6d)" style="fill: none; stroke: #1f77b4; stroke-width: 1.5"/>
    <path d="M 612.342126 368.512219 
L 654.404796 368.512219 
" clip-path="url(#p30368c7d6d)" style="fill: none; stroke: #1f77b4; stroke-width: 1.5"/>
   </g>
   <g id="LineCollection_4">
    <path d="M 128.621423 368.512219 
L 128.621423 46.228228 
" clip-path="url(#p30368c7d6d)" style="fill: none; stroke: #1f77b4; stroke-width: 1.5"/>
    <path d="M 296.872102 368.512219 
L 296.872102 234.227223 
" clip-path="url(#p30368c7d6d)" style="fill: none; stroke: #1f77b4; stroke-width: 1.5"/>
    <path d="M 465.122782 368.512219 
L 465.122782 153.656225 
" clip-path="url(#p30368c7d6d)" style="fill: none; stroke: #1f77b4; stroke-width: 1.5"/>
    <path d="M 633.373461 368.512219 
L 633.373461 207.370223 
" clip-path="url(#p30368c7d6d)" style="fill: none; stroke: #1f77b4; stroke-width: 1.5"/>
   </g>
   <g id="patch_3">
    <path d="M 57.114884 384.626418 
L 57.114884 30.114028 
" style="fill: none; stroke: #000000; stroke-linejoin: miter; stroke-linecap: square"/>
   </g>
   <g id="patch_4">
    <path d="M 704.88 384.626418 
L 704.88 30.114028 
" style="fill: none; stroke: #000000; stroke-linejoin: miter; stroke-linecap: square"/>
   </g>
   <g id="patch_5">
    <path d="M 57.114884 384.626418 
L 704.88 384.626418 
" style="fill: none; stroke: #000000; stroke-linejoin: miter; stroke-linecap: square"/>
   </g>
   <g id="patch_6">
    <path d="M 57.114884 30.114028 
L 704.88 30.114028 
" style="fill: none; stroke: #000000; stroke-linejoin: miter; stroke-linecap: square"/>
   </g>
   <g id="text_14">
    <!-- Distortion Under Rawlsian -->
    <g transform="translate(306.603932 24.114028) scale(0.13 -0.13)">
     <defs>
      <path id="CMR17-55" d="M 3456 1433 
C 3456 579 2899 38 2291 38 
C 1965 38 1670 210 1491 477 
C 1286 783 1261 1178 1261 1401 
L 1261 3874 
C 1261 4160 1331 4160 1773 4160 
L 1773 4320 
C 1587 4320 1248 4320 1050 4320 
C 851 4320 512 4320 326 4320 
L 326 4160 
C 768 4160 838 4160 838 3874 
L 838 1433 
C 838 516 1536 -128 2278 -128 
C 3110 -128 3590 719 3590 1344 
L 3590 3766 
C 3590 4122 3917 4160 4102 4160 
L 4102 4326 
C 3955 4320 3686 4320 3526 4320 
C 3366 4320 3091 4320 2944 4326 
L 2944 4160 
C 3456 4160 3456 3861 3456 3702 
L 3456 1433 
z
" transform="scale(0.015625)"/>
      <path id="CMR17-77" d="M 3725 2183 
C 3853 2560 4109 2560 4205 2560 
L 4205 2732 
C 4077 2732 3949 2732 3821 2732 
C 3699 2732 3424 2732 3315 2738 
L 3315 2560 
C 3514 2560 3622 2445 3622 2286 
C 3622 2241 3610 2184 3597 2140 
L 2995 407 
L 2342 2275 
C 2330 2319 2310 2370 2310 2395 
C 2310 2560 2528 2560 2630 2560 
L 2630 2738 
C 2483 2732 2214 2732 2061 2732 
C 1901 2732 1734 2732 1587 2738 
L 1587 2560 
C 1939 2560 1939 2547 2074 2149 
L 1485 451 
L 851 2281 
C 819 2363 819 2376 819 2395 
C 819 2560 1037 2560 1139 2560 
L 1139 2738 
C 986 2732 717 2732 557 2732 
C 416 2732 198 2732 64 2738 
L 64 2560 
C 346 2560 416 2541 486 2331 
L 1274 49 
C 1299 -33 1318 -52 1370 -52 
C 1414 -52 1440 -39 1472 56 
L 2131 1980 
L 2797 56 
C 2829 -39 2854 -52 2899 -52 
C 2950 -52 2970 -33 2995 50 
L 3725 2183 
z
" transform="scale(0.015625)"/>
     </defs>
     <use xlink:href="#CMR17-44" transform="scale(0.996264)"/>
     <use xlink:href="#CMR17-69" transform="translate(70.393556 0) scale(0.996264)"/>
     <use xlink:href="#CMR17-73" transform="translate(95.264614 0) scale(0.996264)"/>
     <use xlink:href="#CMR17-74" transform="translate(131.065952 0) scale(0.996264)"/>
     <use xlink:href="#CMR17-6f" transform="translate(166.34672 0) scale(0.996264)"/>
     <use xlink:href="#CMR17-72" transform="translate(212.037197 0) scale(0.996264)"/>
     <use xlink:href="#CMR17-74" transform="translate(247.317965 0) scale(0.996264)"/>
     <use xlink:href="#CMR17-69" transform="translate(282.598733 0) scale(0.996264)"/>
     <use xlink:href="#CMR17-6f" transform="translate(307.469791 0) scale(0.996264)"/>
     <use xlink:href="#CMR17-6e" transform="translate(353.160268 0) scale(0.996264)"/>
     <use xlink:href="#CMR17-55" transform="translate(434.131604 0) scale(0.996264)"/>
     <use xlink:href="#CMR17-6e" transform="translate(503.204034 0) scale(0.996264)"/>
     <use xlink:href="#CMR17-64" transform="translate(554.099404 0) scale(0.996264)"/>
     <use xlink:href="#CMR17-65" transform="translate(604.994774 0) scale(0.996264)"/>
     <use xlink:href="#CMR17-72" transform="translate(645.480434 0) scale(0.996264)"/>
     <use xlink:href="#CMR17-52" transform="translate(710.837168 0) scale(0.996264)"/>
     <use xlink:href="#CMR17-61" transform="translate(778.62827 0) scale(0.996264)"/>
     <use xlink:href="#CMR17-77" transform="translate(821.716293 0) scale(0.996264)"/>
     <use xlink:href="#CMR17-6c" transform="translate(888.226174 0) scale(0.996264)"/>
     <use xlink:href="#CMR17-73" transform="translate(913.097232 0) scale(0.996264)"/>
     <use xlink:href="#CMR17-69" transform="translate(948.89857 0) scale(0.996264)"/>
     <use xlink:href="#CMR17-61" transform="translate(973.769629 0) scale(0.996264)"/>
     <use xlink:href="#CMR17-6e" transform="translate(1019.460106 0) scale(0.996264)"/>
    </g>
   </g>
  </g>
 </g>
 <defs>
  <clipPath id="p30368c7d6d">
   <rect x="57.114884" y="30.114028" width="647.765116" height="354.51239"/>
  </clipPath>
 </defs>
</svg>
